G75*
%MOIN*%
%OFA0B0*%
%FSLAX25Y25*%
%IPPOS*%
%LPD*%
%AMOC8*
5,1,8,0,0,1.08239X$1,22.5*
%
%ADD10C,0.00000*%
%ADD11C,0.00400*%
%ADD12C,0.00039*%
%ADD13C,0.00200*%
%ADD14C,0.00500*%
D10*
X0086176Y0058146D02*
X0267279Y0058146D01*
X0267469Y0058148D01*
X0267659Y0058155D01*
X0267849Y0058167D01*
X0268039Y0058183D01*
X0268228Y0058203D01*
X0268417Y0058229D01*
X0268605Y0058258D01*
X0268792Y0058293D01*
X0268978Y0058332D01*
X0269163Y0058375D01*
X0269348Y0058423D01*
X0269531Y0058475D01*
X0269712Y0058531D01*
X0269892Y0058592D01*
X0270071Y0058658D01*
X0270248Y0058727D01*
X0270424Y0058801D01*
X0270597Y0058879D01*
X0270769Y0058962D01*
X0270938Y0059048D01*
X0271106Y0059138D01*
X0271271Y0059233D01*
X0271434Y0059331D01*
X0271594Y0059434D01*
X0271752Y0059540D01*
X0271907Y0059650D01*
X0272060Y0059763D01*
X0272210Y0059881D01*
X0272356Y0060002D01*
X0272500Y0060126D01*
X0272641Y0060254D01*
X0272779Y0060385D01*
X0272914Y0060520D01*
X0273045Y0060658D01*
X0273173Y0060799D01*
X0273297Y0060943D01*
X0273418Y0061089D01*
X0273536Y0061239D01*
X0273649Y0061392D01*
X0273759Y0061547D01*
X0273865Y0061705D01*
X0273968Y0061865D01*
X0274066Y0062028D01*
X0274161Y0062193D01*
X0274251Y0062361D01*
X0274337Y0062530D01*
X0274420Y0062702D01*
X0274498Y0062875D01*
X0274572Y0063051D01*
X0274641Y0063228D01*
X0274707Y0063407D01*
X0274768Y0063587D01*
X0274824Y0063768D01*
X0274876Y0063951D01*
X0274924Y0064136D01*
X0274967Y0064321D01*
X0275006Y0064507D01*
X0275041Y0064694D01*
X0275070Y0064882D01*
X0275096Y0065071D01*
X0275116Y0065260D01*
X0275132Y0065450D01*
X0275144Y0065640D01*
X0275151Y0065830D01*
X0275153Y0066020D01*
X0275153Y0170350D01*
X0275151Y0170540D01*
X0275144Y0170730D01*
X0275132Y0170920D01*
X0275116Y0171110D01*
X0275096Y0171299D01*
X0275070Y0171488D01*
X0275041Y0171676D01*
X0275006Y0171863D01*
X0274967Y0172049D01*
X0274924Y0172234D01*
X0274876Y0172419D01*
X0274824Y0172602D01*
X0274768Y0172783D01*
X0274707Y0172963D01*
X0274641Y0173142D01*
X0274572Y0173319D01*
X0274498Y0173495D01*
X0274420Y0173668D01*
X0274337Y0173840D01*
X0274251Y0174009D01*
X0274161Y0174177D01*
X0274066Y0174342D01*
X0273968Y0174505D01*
X0273865Y0174665D01*
X0273759Y0174823D01*
X0273649Y0174978D01*
X0273536Y0175131D01*
X0273418Y0175281D01*
X0273297Y0175427D01*
X0273173Y0175571D01*
X0273045Y0175712D01*
X0272914Y0175850D01*
X0272779Y0175985D01*
X0272641Y0176116D01*
X0272500Y0176244D01*
X0272356Y0176368D01*
X0272210Y0176489D01*
X0272060Y0176607D01*
X0271907Y0176720D01*
X0271752Y0176830D01*
X0271594Y0176936D01*
X0271434Y0177039D01*
X0271271Y0177137D01*
X0271106Y0177232D01*
X0270938Y0177322D01*
X0270769Y0177408D01*
X0270597Y0177491D01*
X0270424Y0177569D01*
X0270248Y0177643D01*
X0270071Y0177712D01*
X0269892Y0177778D01*
X0269712Y0177839D01*
X0269531Y0177895D01*
X0269348Y0177947D01*
X0269163Y0177995D01*
X0268978Y0178038D01*
X0268792Y0178077D01*
X0268605Y0178112D01*
X0268417Y0178141D01*
X0268228Y0178167D01*
X0268039Y0178187D01*
X0267849Y0178203D01*
X0267659Y0178215D01*
X0267469Y0178222D01*
X0267279Y0178224D01*
X0186570Y0178224D01*
X0186380Y0178226D01*
X0186190Y0178233D01*
X0186000Y0178245D01*
X0185810Y0178261D01*
X0185621Y0178281D01*
X0185432Y0178307D01*
X0185244Y0178336D01*
X0185057Y0178371D01*
X0184871Y0178410D01*
X0184686Y0178453D01*
X0184501Y0178501D01*
X0184318Y0178553D01*
X0184137Y0178609D01*
X0183957Y0178670D01*
X0183778Y0178736D01*
X0183601Y0178805D01*
X0183425Y0178879D01*
X0183252Y0178957D01*
X0183080Y0179040D01*
X0182911Y0179126D01*
X0182743Y0179216D01*
X0182578Y0179311D01*
X0182415Y0179409D01*
X0182255Y0179512D01*
X0182097Y0179618D01*
X0181942Y0179728D01*
X0181789Y0179841D01*
X0181639Y0179959D01*
X0181493Y0180080D01*
X0181349Y0180204D01*
X0181208Y0180332D01*
X0181070Y0180463D01*
X0180935Y0180598D01*
X0180804Y0180736D01*
X0180676Y0180877D01*
X0180552Y0181021D01*
X0180431Y0181167D01*
X0180313Y0181317D01*
X0180200Y0181470D01*
X0180090Y0181625D01*
X0179984Y0181783D01*
X0179881Y0181943D01*
X0179783Y0182106D01*
X0179688Y0182271D01*
X0179598Y0182439D01*
X0179512Y0182608D01*
X0179429Y0182780D01*
X0179351Y0182953D01*
X0179277Y0183129D01*
X0179208Y0183306D01*
X0179142Y0183485D01*
X0179081Y0183665D01*
X0179025Y0183846D01*
X0178973Y0184029D01*
X0178925Y0184214D01*
X0178882Y0184399D01*
X0178843Y0184585D01*
X0178808Y0184772D01*
X0178779Y0184960D01*
X0178753Y0185149D01*
X0178733Y0185338D01*
X0178717Y0185528D01*
X0178705Y0185718D01*
X0178698Y0185908D01*
X0178696Y0186098D01*
X0178696Y0192004D01*
X0178694Y0192194D01*
X0178687Y0192384D01*
X0178675Y0192574D01*
X0178659Y0192764D01*
X0178639Y0192953D01*
X0178613Y0193142D01*
X0178584Y0193330D01*
X0178549Y0193517D01*
X0178510Y0193703D01*
X0178467Y0193888D01*
X0178419Y0194073D01*
X0178367Y0194256D01*
X0178311Y0194437D01*
X0178250Y0194617D01*
X0178184Y0194796D01*
X0178115Y0194973D01*
X0178041Y0195149D01*
X0177963Y0195322D01*
X0177880Y0195494D01*
X0177794Y0195663D01*
X0177704Y0195831D01*
X0177609Y0195996D01*
X0177511Y0196159D01*
X0177408Y0196319D01*
X0177302Y0196477D01*
X0177192Y0196632D01*
X0177079Y0196785D01*
X0176961Y0196935D01*
X0176840Y0197081D01*
X0176716Y0197225D01*
X0176588Y0197366D01*
X0176457Y0197504D01*
X0176322Y0197639D01*
X0176184Y0197770D01*
X0176043Y0197898D01*
X0175899Y0198022D01*
X0175753Y0198143D01*
X0175603Y0198261D01*
X0175450Y0198374D01*
X0175295Y0198484D01*
X0175137Y0198590D01*
X0174977Y0198693D01*
X0174814Y0198791D01*
X0174649Y0198886D01*
X0174481Y0198976D01*
X0174312Y0199062D01*
X0174140Y0199145D01*
X0173967Y0199223D01*
X0173791Y0199297D01*
X0173614Y0199366D01*
X0173435Y0199432D01*
X0173255Y0199493D01*
X0173074Y0199549D01*
X0172891Y0199601D01*
X0172706Y0199649D01*
X0172521Y0199692D01*
X0172335Y0199731D01*
X0172148Y0199766D01*
X0171960Y0199795D01*
X0171771Y0199821D01*
X0171582Y0199841D01*
X0171392Y0199857D01*
X0171202Y0199869D01*
X0171012Y0199876D01*
X0170822Y0199878D01*
X0086176Y0199878D01*
X0085986Y0199876D01*
X0085796Y0199869D01*
X0085606Y0199857D01*
X0085416Y0199841D01*
X0085227Y0199821D01*
X0085038Y0199795D01*
X0084850Y0199766D01*
X0084663Y0199731D01*
X0084477Y0199692D01*
X0084292Y0199649D01*
X0084107Y0199601D01*
X0083924Y0199549D01*
X0083743Y0199493D01*
X0083563Y0199432D01*
X0083384Y0199366D01*
X0083207Y0199297D01*
X0083031Y0199223D01*
X0082858Y0199145D01*
X0082686Y0199062D01*
X0082517Y0198976D01*
X0082349Y0198886D01*
X0082184Y0198791D01*
X0082021Y0198693D01*
X0081861Y0198590D01*
X0081703Y0198484D01*
X0081548Y0198374D01*
X0081395Y0198261D01*
X0081245Y0198143D01*
X0081099Y0198022D01*
X0080955Y0197898D01*
X0080814Y0197770D01*
X0080676Y0197639D01*
X0080541Y0197504D01*
X0080410Y0197366D01*
X0080282Y0197225D01*
X0080158Y0197081D01*
X0080037Y0196935D01*
X0079919Y0196785D01*
X0079806Y0196632D01*
X0079696Y0196477D01*
X0079590Y0196319D01*
X0079487Y0196159D01*
X0079389Y0195996D01*
X0079294Y0195831D01*
X0079204Y0195663D01*
X0079118Y0195494D01*
X0079035Y0195322D01*
X0078957Y0195149D01*
X0078883Y0194973D01*
X0078814Y0194796D01*
X0078748Y0194617D01*
X0078687Y0194437D01*
X0078631Y0194256D01*
X0078579Y0194073D01*
X0078531Y0193888D01*
X0078488Y0193703D01*
X0078449Y0193517D01*
X0078414Y0193330D01*
X0078385Y0193142D01*
X0078359Y0192953D01*
X0078339Y0192764D01*
X0078323Y0192574D01*
X0078311Y0192384D01*
X0078304Y0192194D01*
X0078302Y0192004D01*
X0078302Y0066020D01*
X0078304Y0065830D01*
X0078311Y0065640D01*
X0078323Y0065450D01*
X0078339Y0065260D01*
X0078359Y0065071D01*
X0078385Y0064882D01*
X0078414Y0064694D01*
X0078449Y0064507D01*
X0078488Y0064321D01*
X0078531Y0064136D01*
X0078579Y0063951D01*
X0078631Y0063768D01*
X0078687Y0063587D01*
X0078748Y0063407D01*
X0078814Y0063228D01*
X0078883Y0063051D01*
X0078957Y0062875D01*
X0079035Y0062702D01*
X0079118Y0062530D01*
X0079204Y0062361D01*
X0079294Y0062193D01*
X0079389Y0062028D01*
X0079487Y0061865D01*
X0079590Y0061705D01*
X0079696Y0061547D01*
X0079806Y0061392D01*
X0079919Y0061239D01*
X0080037Y0061089D01*
X0080158Y0060943D01*
X0080282Y0060799D01*
X0080410Y0060658D01*
X0080541Y0060520D01*
X0080676Y0060385D01*
X0080814Y0060254D01*
X0080955Y0060126D01*
X0081099Y0060002D01*
X0081245Y0059881D01*
X0081395Y0059763D01*
X0081548Y0059650D01*
X0081703Y0059540D01*
X0081861Y0059434D01*
X0082021Y0059331D01*
X0082184Y0059233D01*
X0082349Y0059138D01*
X0082517Y0059048D01*
X0082686Y0058962D01*
X0082858Y0058879D01*
X0083031Y0058801D01*
X0083207Y0058727D01*
X0083384Y0058658D01*
X0083563Y0058592D01*
X0083743Y0058531D01*
X0083924Y0058475D01*
X0084107Y0058423D01*
X0084292Y0058375D01*
X0084477Y0058332D01*
X0084663Y0058293D01*
X0084850Y0058258D01*
X0085038Y0058229D01*
X0085227Y0058203D01*
X0085416Y0058183D01*
X0085606Y0058167D01*
X0085796Y0058155D01*
X0085986Y0058148D01*
X0086176Y0058146D01*
D11*
X0139326Y0097516D02*
X0139326Y0180193D01*
X0191366Y0141693D02*
X0191366Y0140416D01*
X0191368Y0140361D01*
X0191374Y0140307D01*
X0191384Y0140253D01*
X0191397Y0140200D01*
X0191414Y0140148D01*
X0191435Y0140097D01*
X0191460Y0140048D01*
X0191488Y0140001D01*
X0191519Y0139956D01*
X0191553Y0139914D01*
X0191591Y0139874D01*
X0191631Y0139836D01*
X0191673Y0139802D01*
X0191718Y0139771D01*
X0191765Y0139743D01*
X0191814Y0139718D01*
X0191865Y0139697D01*
X0191917Y0139680D01*
X0191970Y0139667D01*
X0192024Y0139657D01*
X0192078Y0139651D01*
X0192133Y0139649D01*
X0193411Y0139649D01*
X0192900Y0139649D02*
X0192900Y0141693D01*
X0193411Y0141693D01*
X0193474Y0141691D01*
X0193537Y0141685D01*
X0193599Y0141676D01*
X0193660Y0141662D01*
X0193721Y0141645D01*
X0193780Y0141624D01*
X0193838Y0141599D01*
X0193895Y0141571D01*
X0193949Y0141540D01*
X0194001Y0141505D01*
X0194052Y0141467D01*
X0194100Y0141426D01*
X0194145Y0141382D01*
X0194187Y0141336D01*
X0194227Y0141287D01*
X0194263Y0141236D01*
X0194296Y0141182D01*
X0194326Y0141127D01*
X0194352Y0141069D01*
X0194375Y0141011D01*
X0194394Y0140951D01*
X0194409Y0140890D01*
X0194421Y0140828D01*
X0194429Y0140765D01*
X0194433Y0140702D01*
X0194433Y0140640D01*
X0194429Y0140577D01*
X0194421Y0140514D01*
X0194409Y0140452D01*
X0194394Y0140391D01*
X0194375Y0140331D01*
X0194352Y0140273D01*
X0194326Y0140215D01*
X0194296Y0140160D01*
X0194263Y0140106D01*
X0194227Y0140055D01*
X0194187Y0140006D01*
X0194145Y0139960D01*
X0194100Y0139916D01*
X0194052Y0139875D01*
X0194001Y0139837D01*
X0193949Y0139802D01*
X0193895Y0139771D01*
X0193838Y0139743D01*
X0193780Y0139718D01*
X0193721Y0139697D01*
X0193660Y0139680D01*
X0193599Y0139666D01*
X0193537Y0139657D01*
X0193474Y0139651D01*
X0193411Y0139649D01*
X0193922Y0138208D02*
X0194433Y0138208D01*
X0194433Y0136675D01*
X0191366Y0136675D01*
X0191366Y0134470D02*
X0193666Y0134470D01*
X0193155Y0134470D02*
X0193155Y0133320D01*
X0193666Y0134470D02*
X0193721Y0134468D01*
X0193775Y0134462D01*
X0193829Y0134452D01*
X0193882Y0134439D01*
X0193934Y0134422D01*
X0193985Y0134401D01*
X0194034Y0134376D01*
X0194081Y0134348D01*
X0194126Y0134317D01*
X0194168Y0134283D01*
X0194208Y0134245D01*
X0194246Y0134205D01*
X0194280Y0134163D01*
X0194311Y0134118D01*
X0194339Y0134071D01*
X0194364Y0134022D01*
X0194385Y0133971D01*
X0194402Y0133919D01*
X0194415Y0133866D01*
X0194425Y0133812D01*
X0194431Y0133758D01*
X0194433Y0133703D01*
X0194433Y0132681D01*
X0194433Y0130654D02*
X0191366Y0129888D01*
X0193411Y0129121D01*
X0191366Y0128354D01*
X0194433Y0127588D01*
X0194433Y0125620D02*
X0194433Y0124342D01*
X0194431Y0124287D01*
X0194425Y0124233D01*
X0194415Y0124179D01*
X0194402Y0124126D01*
X0194385Y0124074D01*
X0194364Y0124023D01*
X0194339Y0123974D01*
X0194311Y0123927D01*
X0194280Y0123882D01*
X0194246Y0123840D01*
X0194208Y0123800D01*
X0194168Y0123762D01*
X0194126Y0123728D01*
X0194081Y0123697D01*
X0194034Y0123669D01*
X0193985Y0123644D01*
X0193934Y0123623D01*
X0193882Y0123606D01*
X0193829Y0123593D01*
X0193775Y0123583D01*
X0193721Y0123577D01*
X0193666Y0123575D01*
X0193666Y0123576D02*
X0192133Y0123576D01*
X0192133Y0123575D02*
X0192078Y0123577D01*
X0192024Y0123583D01*
X0191970Y0123593D01*
X0191917Y0123606D01*
X0191865Y0123623D01*
X0191814Y0123644D01*
X0191765Y0123669D01*
X0191718Y0123697D01*
X0191673Y0123728D01*
X0191631Y0123762D01*
X0191591Y0123800D01*
X0191553Y0123840D01*
X0191519Y0123882D01*
X0191488Y0123927D01*
X0191460Y0123974D01*
X0191435Y0124023D01*
X0191414Y0124074D01*
X0191397Y0124126D01*
X0191384Y0124179D01*
X0191374Y0124233D01*
X0191368Y0124287D01*
X0191366Y0124342D01*
X0191366Y0125620D01*
X0195966Y0125620D01*
X0201677Y0126887D02*
X0201716Y0126797D01*
X0201752Y0126704D01*
X0201785Y0126611D01*
X0201814Y0126517D01*
X0201841Y0126422D01*
X0201864Y0126326D01*
X0201884Y0126229D01*
X0201900Y0126131D01*
X0201913Y0126033D01*
X0201923Y0125935D01*
X0201930Y0125836D01*
X0201933Y0125737D01*
X0201932Y0125686D01*
X0201927Y0125636D01*
X0201917Y0125585D01*
X0201905Y0125536D01*
X0201888Y0125488D01*
X0201867Y0125441D01*
X0201844Y0125395D01*
X0201816Y0125352D01*
X0201786Y0125311D01*
X0201752Y0125273D01*
X0201716Y0125237D01*
X0201676Y0125204D01*
X0201635Y0125174D01*
X0201591Y0125148D01*
X0201546Y0125125D01*
X0201498Y0125106D01*
X0201450Y0125090D01*
X0201400Y0125078D01*
X0201350Y0125070D01*
X0201299Y0125066D01*
X0201248Y0125065D01*
X0201197Y0125069D01*
X0201146Y0125077D01*
X0201096Y0125088D01*
X0201047Y0125103D01*
X0201000Y0125122D01*
X0200954Y0125145D01*
X0200910Y0125171D01*
X0200868Y0125200D01*
X0200829Y0125233D01*
X0200792Y0125268D01*
X0200758Y0125307D01*
X0200727Y0125347D01*
X0200700Y0125390D01*
X0200675Y0125435D01*
X0200654Y0125482D01*
X0200655Y0125482D02*
X0200144Y0126760D01*
X0200145Y0126760D02*
X0200124Y0126807D01*
X0200099Y0126852D01*
X0200072Y0126895D01*
X0200041Y0126935D01*
X0200007Y0126974D01*
X0199970Y0127009D01*
X0199931Y0127042D01*
X0199889Y0127071D01*
X0199845Y0127097D01*
X0199799Y0127120D01*
X0199752Y0127139D01*
X0199703Y0127154D01*
X0199653Y0127165D01*
X0199602Y0127173D01*
X0199551Y0127177D01*
X0199500Y0127176D01*
X0199449Y0127172D01*
X0199399Y0127164D01*
X0199349Y0127152D01*
X0199301Y0127136D01*
X0199253Y0127117D01*
X0199208Y0127094D01*
X0199164Y0127068D01*
X0199123Y0127038D01*
X0199083Y0127005D01*
X0199047Y0126969D01*
X0199013Y0126931D01*
X0198983Y0126890D01*
X0198955Y0126847D01*
X0198932Y0126801D01*
X0198911Y0126754D01*
X0198894Y0126706D01*
X0198882Y0126657D01*
X0198872Y0126606D01*
X0198867Y0126556D01*
X0198866Y0126505D01*
X0199888Y0128999D02*
X0200911Y0128999D01*
X0200974Y0129001D01*
X0201037Y0129007D01*
X0201099Y0129016D01*
X0201160Y0129030D01*
X0201221Y0129047D01*
X0201280Y0129068D01*
X0201338Y0129093D01*
X0201395Y0129121D01*
X0201449Y0129152D01*
X0201501Y0129187D01*
X0201552Y0129225D01*
X0201600Y0129266D01*
X0201645Y0129310D01*
X0201687Y0129356D01*
X0201727Y0129405D01*
X0201763Y0129456D01*
X0201796Y0129510D01*
X0201826Y0129565D01*
X0201852Y0129623D01*
X0201875Y0129681D01*
X0201894Y0129741D01*
X0201909Y0129802D01*
X0201921Y0129864D01*
X0201929Y0129927D01*
X0201933Y0129990D01*
X0201933Y0130052D01*
X0201929Y0130115D01*
X0201921Y0130178D01*
X0201909Y0130240D01*
X0201894Y0130301D01*
X0201875Y0130361D01*
X0201852Y0130419D01*
X0201826Y0130477D01*
X0201796Y0130532D01*
X0201763Y0130586D01*
X0201727Y0130637D01*
X0201687Y0130686D01*
X0201645Y0130732D01*
X0201600Y0130776D01*
X0201552Y0130817D01*
X0201501Y0130855D01*
X0201449Y0130890D01*
X0201395Y0130921D01*
X0201338Y0130949D01*
X0201280Y0130974D01*
X0201221Y0130995D01*
X0201160Y0131012D01*
X0201099Y0131026D01*
X0201037Y0131035D01*
X0200974Y0131041D01*
X0200911Y0131043D01*
X0199888Y0131043D01*
X0199825Y0131041D01*
X0199762Y0131035D01*
X0199700Y0131026D01*
X0199639Y0131012D01*
X0199578Y0130995D01*
X0199519Y0130974D01*
X0199461Y0130949D01*
X0199404Y0130921D01*
X0199350Y0130890D01*
X0199298Y0130855D01*
X0199247Y0130817D01*
X0199199Y0130776D01*
X0199154Y0130732D01*
X0199112Y0130686D01*
X0199072Y0130637D01*
X0199036Y0130586D01*
X0199003Y0130532D01*
X0198973Y0130477D01*
X0198947Y0130419D01*
X0198924Y0130361D01*
X0198905Y0130301D01*
X0198890Y0130240D01*
X0198878Y0130178D01*
X0198870Y0130115D01*
X0198866Y0130052D01*
X0198866Y0129990D01*
X0198870Y0129927D01*
X0198878Y0129864D01*
X0198890Y0129802D01*
X0198905Y0129741D01*
X0198924Y0129681D01*
X0198947Y0129623D01*
X0198973Y0129565D01*
X0199003Y0129510D01*
X0199036Y0129456D01*
X0199072Y0129405D01*
X0199112Y0129356D01*
X0199154Y0129310D01*
X0199199Y0129266D01*
X0199247Y0129225D01*
X0199298Y0129187D01*
X0199350Y0129152D01*
X0199404Y0129121D01*
X0199461Y0129093D01*
X0199519Y0129068D01*
X0199578Y0129047D01*
X0199639Y0129030D01*
X0199700Y0129016D01*
X0199762Y0129007D01*
X0199825Y0129001D01*
X0199888Y0128999D01*
X0198866Y0126504D02*
X0198870Y0126374D01*
X0198878Y0126243D01*
X0198890Y0126114D01*
X0198905Y0125984D01*
X0198925Y0125855D01*
X0198948Y0125727D01*
X0198975Y0125599D01*
X0199006Y0125472D01*
X0199041Y0125347D01*
X0199080Y0125222D01*
X0199122Y0125099D01*
X0198866Y0120693D02*
X0201166Y0120693D01*
X0201166Y0120694D02*
X0201221Y0120692D01*
X0201275Y0120686D01*
X0201329Y0120676D01*
X0201382Y0120663D01*
X0201434Y0120646D01*
X0201485Y0120625D01*
X0201534Y0120600D01*
X0201581Y0120572D01*
X0201626Y0120541D01*
X0201668Y0120507D01*
X0201708Y0120469D01*
X0201746Y0120429D01*
X0201780Y0120387D01*
X0201811Y0120342D01*
X0201839Y0120295D01*
X0201864Y0120246D01*
X0201885Y0120195D01*
X0201902Y0120143D01*
X0201915Y0120090D01*
X0201925Y0120036D01*
X0201931Y0119982D01*
X0201933Y0119927D01*
X0201933Y0118649D01*
X0198866Y0118649D01*
X0198866Y0116643D02*
X0198866Y0115366D01*
X0198868Y0115311D01*
X0198874Y0115257D01*
X0198884Y0115203D01*
X0198897Y0115150D01*
X0198914Y0115098D01*
X0198935Y0115047D01*
X0198960Y0114998D01*
X0198988Y0114951D01*
X0199019Y0114906D01*
X0199053Y0114864D01*
X0199091Y0114824D01*
X0199131Y0114786D01*
X0199173Y0114752D01*
X0199218Y0114721D01*
X0199265Y0114693D01*
X0199314Y0114668D01*
X0199365Y0114647D01*
X0199417Y0114630D01*
X0199470Y0114617D01*
X0199524Y0114607D01*
X0199578Y0114601D01*
X0199633Y0114599D01*
X0200911Y0114599D01*
X0200400Y0114599D02*
X0200400Y0116643D01*
X0200911Y0116643D01*
X0200974Y0116641D01*
X0201037Y0116635D01*
X0201099Y0116626D01*
X0201160Y0116612D01*
X0201221Y0116595D01*
X0201280Y0116574D01*
X0201338Y0116549D01*
X0201395Y0116521D01*
X0201449Y0116490D01*
X0201501Y0116455D01*
X0201552Y0116417D01*
X0201600Y0116376D01*
X0201645Y0116332D01*
X0201687Y0116286D01*
X0201727Y0116237D01*
X0201763Y0116186D01*
X0201796Y0116132D01*
X0201826Y0116077D01*
X0201852Y0116019D01*
X0201875Y0115961D01*
X0201894Y0115901D01*
X0201909Y0115840D01*
X0201921Y0115778D01*
X0201929Y0115715D01*
X0201933Y0115652D01*
X0201933Y0115590D01*
X0201929Y0115527D01*
X0201921Y0115464D01*
X0201909Y0115402D01*
X0201894Y0115341D01*
X0201875Y0115281D01*
X0201852Y0115223D01*
X0201826Y0115165D01*
X0201796Y0115110D01*
X0201763Y0115056D01*
X0201727Y0115005D01*
X0201687Y0114956D01*
X0201645Y0114910D01*
X0201600Y0114866D01*
X0201552Y0114825D01*
X0201501Y0114787D01*
X0201449Y0114752D01*
X0201395Y0114721D01*
X0201338Y0114693D01*
X0201280Y0114668D01*
X0201221Y0114647D01*
X0201160Y0114630D01*
X0201099Y0114616D01*
X0201037Y0114607D01*
X0200974Y0114601D01*
X0200911Y0114599D01*
X0201166Y0112767D02*
X0199633Y0112767D01*
X0199578Y0112765D01*
X0199524Y0112759D01*
X0199470Y0112749D01*
X0199417Y0112736D01*
X0199365Y0112719D01*
X0199314Y0112698D01*
X0199265Y0112673D01*
X0199218Y0112645D01*
X0199173Y0112614D01*
X0199131Y0112580D01*
X0199091Y0112542D01*
X0199053Y0112502D01*
X0199019Y0112460D01*
X0198988Y0112415D01*
X0198960Y0112368D01*
X0198935Y0112319D01*
X0198914Y0112268D01*
X0198897Y0112216D01*
X0198884Y0112163D01*
X0198874Y0112109D01*
X0198868Y0112055D01*
X0198866Y0112000D01*
X0198866Y0110722D01*
X0197333Y0110722D02*
X0201933Y0110722D01*
X0201933Y0112000D01*
X0201931Y0112055D01*
X0201925Y0112109D01*
X0201915Y0112163D01*
X0201902Y0112216D01*
X0201885Y0112268D01*
X0201864Y0112319D01*
X0201839Y0112368D01*
X0201811Y0112415D01*
X0201780Y0112460D01*
X0201746Y0112502D01*
X0201708Y0112542D01*
X0201668Y0112580D01*
X0201626Y0112614D01*
X0201581Y0112645D01*
X0201534Y0112673D01*
X0201485Y0112698D01*
X0201434Y0112719D01*
X0201382Y0112736D01*
X0201329Y0112749D01*
X0201275Y0112759D01*
X0201221Y0112765D01*
X0201166Y0112767D01*
X0200911Y0108693D02*
X0199888Y0108693D01*
X0199825Y0108691D01*
X0199762Y0108685D01*
X0199700Y0108676D01*
X0199639Y0108662D01*
X0199578Y0108645D01*
X0199519Y0108624D01*
X0199461Y0108599D01*
X0199404Y0108571D01*
X0199350Y0108540D01*
X0199298Y0108505D01*
X0199247Y0108467D01*
X0199199Y0108426D01*
X0199154Y0108382D01*
X0199112Y0108336D01*
X0199072Y0108287D01*
X0199036Y0108236D01*
X0199003Y0108182D01*
X0198973Y0108127D01*
X0198947Y0108069D01*
X0198924Y0108011D01*
X0198905Y0107951D01*
X0198890Y0107890D01*
X0198878Y0107828D01*
X0198870Y0107765D01*
X0198866Y0107702D01*
X0198866Y0107640D01*
X0198870Y0107577D01*
X0198878Y0107514D01*
X0198890Y0107452D01*
X0198905Y0107391D01*
X0198924Y0107331D01*
X0198947Y0107273D01*
X0198973Y0107215D01*
X0199003Y0107160D01*
X0199036Y0107106D01*
X0199072Y0107055D01*
X0199112Y0107006D01*
X0199154Y0106960D01*
X0199199Y0106916D01*
X0199247Y0106875D01*
X0199298Y0106837D01*
X0199350Y0106802D01*
X0199404Y0106771D01*
X0199461Y0106743D01*
X0199519Y0106718D01*
X0199578Y0106697D01*
X0199639Y0106680D01*
X0199700Y0106666D01*
X0199762Y0106657D01*
X0199825Y0106651D01*
X0199888Y0106649D01*
X0200911Y0106649D01*
X0200974Y0106651D01*
X0201037Y0106657D01*
X0201099Y0106666D01*
X0201160Y0106680D01*
X0201221Y0106697D01*
X0201280Y0106718D01*
X0201338Y0106743D01*
X0201395Y0106771D01*
X0201449Y0106802D01*
X0201501Y0106837D01*
X0201552Y0106875D01*
X0201600Y0106916D01*
X0201645Y0106960D01*
X0201687Y0107006D01*
X0201727Y0107055D01*
X0201763Y0107106D01*
X0201796Y0107160D01*
X0201826Y0107215D01*
X0201852Y0107273D01*
X0201875Y0107331D01*
X0201894Y0107391D01*
X0201909Y0107452D01*
X0201921Y0107514D01*
X0201929Y0107577D01*
X0201933Y0107640D01*
X0201933Y0107702D01*
X0201929Y0107765D01*
X0201921Y0107828D01*
X0201909Y0107890D01*
X0201894Y0107951D01*
X0201875Y0108011D01*
X0201852Y0108069D01*
X0201826Y0108127D01*
X0201796Y0108182D01*
X0201763Y0108236D01*
X0201727Y0108287D01*
X0201687Y0108336D01*
X0201645Y0108382D01*
X0201600Y0108426D01*
X0201552Y0108467D01*
X0201501Y0108505D01*
X0201449Y0108540D01*
X0201395Y0108571D01*
X0201338Y0108599D01*
X0201280Y0108624D01*
X0201221Y0108645D01*
X0201160Y0108662D01*
X0201099Y0108676D01*
X0201037Y0108685D01*
X0200974Y0108691D01*
X0200911Y0108693D01*
X0195966Y0112349D02*
X0191366Y0112349D01*
X0191366Y0114393D02*
X0193666Y0114393D01*
X0193666Y0114394D02*
X0193721Y0114392D01*
X0193775Y0114386D01*
X0193829Y0114376D01*
X0193882Y0114363D01*
X0193934Y0114346D01*
X0193985Y0114325D01*
X0194034Y0114300D01*
X0194081Y0114272D01*
X0194126Y0114241D01*
X0194168Y0114207D01*
X0194208Y0114169D01*
X0194246Y0114129D01*
X0194280Y0114087D01*
X0194311Y0114042D01*
X0194339Y0113995D01*
X0194364Y0113946D01*
X0194385Y0113895D01*
X0194402Y0113843D01*
X0194415Y0113790D01*
X0194425Y0113736D01*
X0194431Y0113682D01*
X0194433Y0113627D01*
X0194433Y0112349D01*
X0194433Y0116631D02*
X0194433Y0117653D01*
X0194431Y0117708D01*
X0194425Y0117762D01*
X0194415Y0117816D01*
X0194402Y0117869D01*
X0194385Y0117921D01*
X0194364Y0117972D01*
X0194339Y0118021D01*
X0194311Y0118068D01*
X0194280Y0118113D01*
X0194246Y0118155D01*
X0194208Y0118195D01*
X0194168Y0118233D01*
X0194126Y0118267D01*
X0194081Y0118298D01*
X0194034Y0118326D01*
X0193985Y0118351D01*
X0193934Y0118372D01*
X0193882Y0118389D01*
X0193829Y0118402D01*
X0193775Y0118412D01*
X0193721Y0118418D01*
X0193666Y0118420D01*
X0191366Y0118420D01*
X0191366Y0117270D01*
X0191367Y0117270D02*
X0191369Y0117212D01*
X0191375Y0117153D01*
X0191384Y0117096D01*
X0191397Y0117039D01*
X0191414Y0116983D01*
X0191435Y0116928D01*
X0191459Y0116875D01*
X0191487Y0116823D01*
X0191518Y0116773D01*
X0191552Y0116726D01*
X0191589Y0116681D01*
X0191629Y0116638D01*
X0191672Y0116598D01*
X0191717Y0116561D01*
X0191764Y0116527D01*
X0191814Y0116496D01*
X0191866Y0116468D01*
X0191919Y0116444D01*
X0191974Y0116423D01*
X0192030Y0116406D01*
X0192087Y0116393D01*
X0192144Y0116384D01*
X0192203Y0116378D01*
X0192261Y0116376D01*
X0192319Y0116378D01*
X0192378Y0116384D01*
X0192435Y0116393D01*
X0192492Y0116406D01*
X0192548Y0116423D01*
X0192603Y0116444D01*
X0192656Y0116468D01*
X0192708Y0116496D01*
X0192758Y0116527D01*
X0192805Y0116561D01*
X0192850Y0116598D01*
X0192893Y0116638D01*
X0192933Y0116681D01*
X0192970Y0116726D01*
X0193004Y0116773D01*
X0193035Y0116823D01*
X0193063Y0116875D01*
X0193087Y0116928D01*
X0193108Y0116983D01*
X0193125Y0117039D01*
X0193138Y0117096D01*
X0193147Y0117153D01*
X0193153Y0117212D01*
X0193155Y0117270D01*
X0193155Y0118420D01*
X0194433Y0120625D02*
X0191366Y0120625D01*
X0193922Y0122158D02*
X0194433Y0122158D01*
X0194433Y0120625D01*
X0193155Y0133320D02*
X0193153Y0133262D01*
X0193147Y0133203D01*
X0193138Y0133146D01*
X0193125Y0133089D01*
X0193108Y0133033D01*
X0193087Y0132978D01*
X0193063Y0132925D01*
X0193035Y0132873D01*
X0193004Y0132823D01*
X0192970Y0132776D01*
X0192933Y0132731D01*
X0192893Y0132688D01*
X0192850Y0132648D01*
X0192805Y0132611D01*
X0192758Y0132577D01*
X0192708Y0132546D01*
X0192656Y0132518D01*
X0192603Y0132494D01*
X0192548Y0132473D01*
X0192492Y0132456D01*
X0192435Y0132443D01*
X0192378Y0132434D01*
X0192319Y0132428D01*
X0192261Y0132426D01*
X0192203Y0132428D01*
X0192144Y0132434D01*
X0192087Y0132443D01*
X0192030Y0132456D01*
X0191974Y0132473D01*
X0191919Y0132494D01*
X0191866Y0132518D01*
X0191814Y0132546D01*
X0191764Y0132577D01*
X0191717Y0132611D01*
X0191672Y0132648D01*
X0191629Y0132688D01*
X0191589Y0132731D01*
X0191552Y0132776D01*
X0191518Y0132823D01*
X0191487Y0132873D01*
X0191459Y0132925D01*
X0191435Y0132978D01*
X0191414Y0133033D01*
X0191397Y0133089D01*
X0191384Y0133146D01*
X0191375Y0133203D01*
X0191369Y0133262D01*
X0191367Y0133320D01*
X0191366Y0133320D02*
X0191366Y0134470D01*
X0198866Y0135093D02*
X0198866Y0133816D01*
X0198868Y0133761D01*
X0198874Y0133707D01*
X0198884Y0133653D01*
X0198897Y0133600D01*
X0198914Y0133548D01*
X0198935Y0133497D01*
X0198960Y0133448D01*
X0198988Y0133401D01*
X0199019Y0133356D01*
X0199053Y0133314D01*
X0199091Y0133274D01*
X0199131Y0133236D01*
X0199173Y0133202D01*
X0199218Y0133171D01*
X0199265Y0133143D01*
X0199314Y0133118D01*
X0199365Y0133097D01*
X0199417Y0133080D01*
X0199470Y0133067D01*
X0199524Y0133057D01*
X0199578Y0133051D01*
X0199633Y0133049D01*
X0201933Y0133049D01*
X0201933Y0135093D02*
X0198866Y0135093D01*
X0198866Y0137275D02*
X0201933Y0137275D01*
X0201933Y0138808D01*
X0201422Y0138808D01*
X0201166Y0140254D02*
X0199633Y0140254D01*
X0199578Y0140256D01*
X0199524Y0140262D01*
X0199470Y0140272D01*
X0199417Y0140285D01*
X0199365Y0140302D01*
X0199314Y0140323D01*
X0199265Y0140348D01*
X0199218Y0140376D01*
X0199173Y0140407D01*
X0199131Y0140441D01*
X0199091Y0140479D01*
X0199053Y0140519D01*
X0199019Y0140561D01*
X0198988Y0140606D01*
X0198960Y0140653D01*
X0198935Y0140702D01*
X0198914Y0140753D01*
X0198897Y0140805D01*
X0198884Y0140858D01*
X0198874Y0140912D01*
X0198868Y0140966D01*
X0198866Y0141021D01*
X0198866Y0142043D01*
X0199633Y0143699D02*
X0200911Y0143699D01*
X0200400Y0143699D02*
X0200400Y0145743D01*
X0200911Y0145743D01*
X0200974Y0145741D01*
X0201037Y0145735D01*
X0201099Y0145726D01*
X0201160Y0145712D01*
X0201221Y0145695D01*
X0201280Y0145674D01*
X0201338Y0145649D01*
X0201395Y0145621D01*
X0201449Y0145590D01*
X0201501Y0145555D01*
X0201552Y0145517D01*
X0201600Y0145476D01*
X0201645Y0145432D01*
X0201687Y0145386D01*
X0201727Y0145337D01*
X0201763Y0145286D01*
X0201796Y0145232D01*
X0201826Y0145177D01*
X0201852Y0145119D01*
X0201875Y0145061D01*
X0201894Y0145001D01*
X0201909Y0144940D01*
X0201921Y0144878D01*
X0201929Y0144815D01*
X0201933Y0144752D01*
X0201933Y0144690D01*
X0201929Y0144627D01*
X0201921Y0144564D01*
X0201909Y0144502D01*
X0201894Y0144441D01*
X0201875Y0144381D01*
X0201852Y0144323D01*
X0201826Y0144265D01*
X0201796Y0144210D01*
X0201763Y0144156D01*
X0201727Y0144105D01*
X0201687Y0144056D01*
X0201645Y0144010D01*
X0201600Y0143966D01*
X0201552Y0143925D01*
X0201501Y0143887D01*
X0201449Y0143852D01*
X0201395Y0143821D01*
X0201338Y0143793D01*
X0201280Y0143768D01*
X0201221Y0143747D01*
X0201160Y0143730D01*
X0201099Y0143716D01*
X0201037Y0143707D01*
X0200974Y0143701D01*
X0200911Y0143699D01*
X0199633Y0143699D02*
X0199578Y0143701D01*
X0199524Y0143707D01*
X0199470Y0143717D01*
X0199417Y0143730D01*
X0199365Y0143747D01*
X0199314Y0143768D01*
X0199265Y0143793D01*
X0199218Y0143821D01*
X0199173Y0143852D01*
X0199131Y0143886D01*
X0199091Y0143924D01*
X0199053Y0143964D01*
X0199019Y0144006D01*
X0198988Y0144051D01*
X0198960Y0144098D01*
X0198935Y0144147D01*
X0198914Y0144198D01*
X0198897Y0144250D01*
X0198884Y0144303D01*
X0198874Y0144357D01*
X0198868Y0144411D01*
X0198866Y0144466D01*
X0198866Y0145743D01*
X0201933Y0142043D02*
X0201933Y0141021D01*
X0201931Y0140966D01*
X0201925Y0140912D01*
X0201915Y0140858D01*
X0201902Y0140805D01*
X0201885Y0140753D01*
X0201864Y0140702D01*
X0201839Y0140653D01*
X0201811Y0140606D01*
X0201780Y0140561D01*
X0201746Y0140519D01*
X0201708Y0140479D01*
X0201668Y0140441D01*
X0201626Y0140407D01*
X0201581Y0140376D01*
X0201534Y0140348D01*
X0201485Y0140323D01*
X0201434Y0140302D01*
X0201382Y0140285D01*
X0201329Y0140272D01*
X0201275Y0140262D01*
X0201221Y0140256D01*
X0201166Y0140254D01*
D12*
X0163285Y0136630D02*
X0163285Y0135075D01*
X0163240Y0134897D01*
X0160128Y0134897D01*
X0159980Y0134864D01*
X0160122Y0134694D01*
X0160254Y0134514D01*
X0160374Y0134327D01*
X0160481Y0134133D01*
X0160577Y0133932D01*
X0160659Y0133726D01*
X0160729Y0133515D01*
X0160785Y0133300D01*
X0160827Y0133082D01*
X0160856Y0132861D01*
X0160871Y0132640D01*
X0160873Y0132417D01*
X0160865Y0132195D01*
X0160845Y0131974D01*
X0160811Y0131754D01*
X0160766Y0131537D01*
X0160707Y0131322D01*
X0160637Y0131112D01*
X0160555Y0130905D01*
X0160461Y0130704D01*
X0160356Y0130508D01*
X0160240Y0130318D01*
X0160113Y0130136D01*
X0159976Y0129961D01*
X0159829Y0129794D01*
X0159511Y0129484D01*
X0159343Y0129338D01*
X0159168Y0129201D01*
X0158986Y0129074D01*
X0158797Y0128956D01*
X0158603Y0128849D01*
X0158403Y0128752D01*
X0158198Y0128666D01*
X0157989Y0128591D01*
X0157776Y0128527D01*
X0157560Y0128475D01*
X0157342Y0128434D01*
X0157121Y0128404D01*
X0156900Y0128387D01*
X0156678Y0128381D01*
X0156233Y0128387D01*
X0156011Y0128403D01*
X0155791Y0128430D01*
X0155572Y0128468D01*
X0155355Y0128518D01*
X0155142Y0128579D01*
X0154931Y0128651D01*
X0154725Y0128734D01*
X0154523Y0128827D01*
X0154327Y0128930D01*
X0154136Y0129044D01*
X0153951Y0129167D01*
X0153773Y0129300D01*
X0153602Y0129442D01*
X0153278Y0129746D01*
X0153128Y0129910D01*
X0152988Y0130083D01*
X0152859Y0130264D01*
X0152742Y0130453D01*
X0152635Y0130648D01*
X0152541Y0130849D01*
X0152459Y0131055D01*
X0152389Y0131267D01*
X0152332Y0131481D01*
X0152289Y0131699D01*
X0152258Y0131919D01*
X0152241Y0132141D01*
X0152236Y0132363D01*
X0152237Y0132520D01*
X0152249Y0132742D01*
X0152274Y0132963D01*
X0152313Y0133182D01*
X0152365Y0133398D01*
X0152430Y0133610D01*
X0152507Y0133819D01*
X0152597Y0134022D01*
X0152699Y0134219D01*
X0152813Y0134410D01*
X0152938Y0134594D01*
X0153074Y0134770D01*
X0153221Y0134937D01*
X0153373Y0135092D01*
X0154587Y0134200D01*
X0154449Y0134032D01*
X0154325Y0133848D01*
X0154220Y0133653D01*
X0154133Y0133448D01*
X0154067Y0133236D01*
X0154022Y0133018D01*
X0153999Y0132797D01*
X0153996Y0132575D01*
X0154016Y0132354D01*
X0154056Y0132135D01*
X0154118Y0131922D01*
X0154200Y0131716D01*
X0154302Y0131518D01*
X0154422Y0131331D01*
X0154560Y0131157D01*
X0154714Y0130997D01*
X0154887Y0130858D01*
X0155071Y0130733D01*
X0155264Y0130623D01*
X0155465Y0130529D01*
X0155674Y0130452D01*
X0155888Y0130392D01*
X0156106Y0130349D01*
X0156326Y0130324D01*
X0156549Y0130317D01*
X0156771Y0130328D01*
X0156991Y0130356D01*
X0157208Y0130402D01*
X0157421Y0130466D01*
X0157628Y0130546D01*
X0157828Y0130643D01*
X0158020Y0130756D01*
X0158201Y0130884D01*
X0158372Y0131026D01*
X0158526Y0131186D01*
X0158663Y0131361D01*
X0158782Y0131548D01*
X0158882Y0131747D01*
X0158962Y0131954D01*
X0159020Y0132169D01*
X0159057Y0132388D01*
X0159072Y0132609D01*
X0159072Y0132674D01*
X0159062Y0132896D01*
X0159029Y0133116D01*
X0158975Y0133331D01*
X0158899Y0133540D01*
X0158803Y0133741D01*
X0158687Y0133930D01*
X0158553Y0134107D01*
X0158402Y0134270D01*
X0158235Y0134417D01*
X0158056Y0134548D01*
X0157867Y0134664D01*
X0157669Y0134765D01*
X0157463Y0134849D01*
X0157251Y0134916D01*
X0157035Y0134966D01*
X0156815Y0134998D01*
X0156593Y0135012D01*
X0156371Y0135009D01*
X0156150Y0134987D01*
X0155931Y0134948D01*
X0155716Y0134891D01*
X0155507Y0134817D01*
X0155304Y0134726D01*
X0155109Y0134619D01*
X0154924Y0134497D01*
X0154749Y0134360D01*
X0154594Y0134207D01*
X0153372Y0135096D01*
X0153244Y0135131D01*
X0152578Y0135131D01*
X0152548Y0135323D01*
X0152548Y0136656D01*
X0152595Y0136831D01*
X0163264Y0136831D01*
X0163285Y0136630D01*
X0163284Y0136636D02*
X0152548Y0136636D01*
X0152548Y0136598D02*
X0163285Y0136598D01*
X0163285Y0136560D02*
X0152548Y0136560D01*
X0152548Y0136522D02*
X0163285Y0136522D01*
X0163285Y0136484D02*
X0152548Y0136484D01*
X0152548Y0136447D02*
X0163285Y0136447D01*
X0163285Y0136409D02*
X0152548Y0136409D01*
X0152548Y0136371D02*
X0163285Y0136371D01*
X0163285Y0136333D02*
X0152548Y0136333D01*
X0152548Y0136295D02*
X0163285Y0136295D01*
X0163285Y0136257D02*
X0152548Y0136257D01*
X0152548Y0136219D02*
X0163285Y0136219D01*
X0163285Y0136181D02*
X0152548Y0136181D01*
X0152548Y0136143D02*
X0163285Y0136143D01*
X0163285Y0136106D02*
X0152548Y0136106D01*
X0152548Y0136068D02*
X0163285Y0136068D01*
X0163285Y0136030D02*
X0152548Y0136030D01*
X0152548Y0135992D02*
X0163285Y0135992D01*
X0163285Y0135954D02*
X0152548Y0135954D01*
X0152548Y0135916D02*
X0163285Y0135916D01*
X0163285Y0135878D02*
X0152548Y0135878D01*
X0152548Y0135840D02*
X0163285Y0135840D01*
X0163285Y0135803D02*
X0152548Y0135803D01*
X0152548Y0135765D02*
X0163285Y0135765D01*
X0163285Y0135727D02*
X0152548Y0135727D01*
X0152548Y0135689D02*
X0163285Y0135689D01*
X0163285Y0135651D02*
X0152548Y0135651D01*
X0152548Y0135613D02*
X0163285Y0135613D01*
X0163285Y0135575D02*
X0152548Y0135575D01*
X0152548Y0135537D02*
X0163285Y0135537D01*
X0163285Y0135499D02*
X0152548Y0135499D01*
X0152548Y0135462D02*
X0163285Y0135462D01*
X0163285Y0135424D02*
X0152548Y0135424D01*
X0152548Y0135386D02*
X0163285Y0135386D01*
X0163285Y0135348D02*
X0152548Y0135348D01*
X0152550Y0135310D02*
X0163285Y0135310D01*
X0163285Y0135272D02*
X0152556Y0135272D01*
X0152561Y0135234D02*
X0163285Y0135234D01*
X0163285Y0135196D02*
X0152567Y0135196D01*
X0152573Y0135159D02*
X0163285Y0135159D01*
X0163285Y0135121D02*
X0153282Y0135121D01*
X0153327Y0135045D02*
X0153437Y0135045D01*
X0153442Y0135045D02*
X0163277Y0135045D01*
X0163285Y0135083D02*
X0153390Y0135083D01*
X0153385Y0135083D02*
X0153365Y0135083D01*
X0153290Y0135007D02*
X0153488Y0135007D01*
X0153495Y0135007D02*
X0156354Y0135007D01*
X0156049Y0134969D02*
X0153547Y0134969D01*
X0153540Y0134969D02*
X0153252Y0134969D01*
X0153216Y0134931D02*
X0153591Y0134931D01*
X0153599Y0134931D02*
X0155868Y0134931D01*
X0155725Y0134893D02*
X0153651Y0134893D01*
X0153643Y0134893D02*
X0153182Y0134893D01*
X0153149Y0134855D02*
X0153695Y0134855D01*
X0153703Y0134855D02*
X0155616Y0134855D01*
X0155508Y0134818D02*
X0153755Y0134818D01*
X0153746Y0134818D02*
X0153116Y0134818D01*
X0153083Y0134780D02*
X0153798Y0134780D01*
X0153807Y0134780D02*
X0155424Y0134780D01*
X0155339Y0134742D02*
X0153859Y0134742D01*
X0153849Y0134742D02*
X0153053Y0134742D01*
X0153023Y0134704D02*
X0153901Y0134704D01*
X0153911Y0134704D02*
X0155264Y0134704D01*
X0155195Y0134666D02*
X0153963Y0134666D01*
X0153953Y0134666D02*
X0152994Y0134666D01*
X0152965Y0134628D02*
X0154004Y0134628D01*
X0154015Y0134628D02*
X0155126Y0134628D01*
X0155066Y0134590D02*
X0154068Y0134590D01*
X0154056Y0134590D02*
X0152936Y0134590D01*
X0152910Y0134552D02*
X0154107Y0134552D01*
X0154120Y0134552D02*
X0155008Y0134552D01*
X0154951Y0134515D02*
X0154172Y0134515D01*
X0154159Y0134515D02*
X0152884Y0134515D01*
X0152858Y0134477D02*
X0154211Y0134477D01*
X0154224Y0134477D02*
X0154898Y0134477D01*
X0154850Y0134439D02*
X0154276Y0134439D01*
X0154262Y0134439D02*
X0152833Y0134439D01*
X0152808Y0134401D02*
X0154314Y0134401D01*
X0154328Y0134401D02*
X0154802Y0134401D01*
X0154753Y0134363D02*
X0154380Y0134363D01*
X0154365Y0134363D02*
X0152785Y0134363D01*
X0152762Y0134325D02*
X0154417Y0134325D01*
X0154432Y0134325D02*
X0154714Y0134325D01*
X0154675Y0134287D02*
X0154484Y0134287D01*
X0154469Y0134287D02*
X0152740Y0134287D01*
X0152717Y0134249D02*
X0154520Y0134249D01*
X0154536Y0134249D02*
X0154637Y0134249D01*
X0154598Y0134212D02*
X0154588Y0134212D01*
X0154572Y0134212D02*
X0152695Y0134212D01*
X0152676Y0134174D02*
X0154566Y0134174D01*
X0154534Y0134136D02*
X0152656Y0134136D01*
X0152636Y0134098D02*
X0154503Y0134098D01*
X0154472Y0134060D02*
X0152617Y0134060D01*
X0152597Y0134022D02*
X0154442Y0134022D01*
X0154417Y0133984D02*
X0152581Y0133984D01*
X0152564Y0133946D02*
X0154391Y0133946D01*
X0154366Y0133908D02*
X0152547Y0133908D01*
X0152530Y0133871D02*
X0154340Y0133871D01*
X0154317Y0133833D02*
X0152513Y0133833D01*
X0152498Y0133795D02*
X0154296Y0133795D01*
X0154276Y0133757D02*
X0152484Y0133757D01*
X0152470Y0133719D02*
X0154255Y0133719D01*
X0154235Y0133681D02*
X0152456Y0133681D01*
X0152442Y0133643D02*
X0154216Y0133643D01*
X0154200Y0133605D02*
X0152428Y0133605D01*
X0152417Y0133568D02*
X0154184Y0133568D01*
X0154168Y0133530D02*
X0152405Y0133530D01*
X0152394Y0133492D02*
X0154152Y0133492D01*
X0154136Y0133454D02*
X0152382Y0133454D01*
X0152371Y0133416D02*
X0154124Y0133416D01*
X0154112Y0133378D02*
X0152360Y0133378D01*
X0152351Y0133340D02*
X0154100Y0133340D01*
X0154088Y0133302D02*
X0152342Y0133302D01*
X0152333Y0133264D02*
X0154076Y0133264D01*
X0154066Y0133227D02*
X0152324Y0133227D01*
X0152315Y0133189D02*
X0154058Y0133189D01*
X0154050Y0133151D02*
X0152308Y0133151D01*
X0152301Y0133113D02*
X0154042Y0133113D01*
X0154034Y0133075D02*
X0152294Y0133075D01*
X0152287Y0133037D02*
X0154026Y0133037D01*
X0154020Y0132999D02*
X0152281Y0132999D01*
X0152274Y0132961D02*
X0154016Y0132961D01*
X0154012Y0132924D02*
X0152270Y0132924D01*
X0152265Y0132886D02*
X0154008Y0132886D01*
X0154004Y0132848D02*
X0152261Y0132848D01*
X0152257Y0132810D02*
X0154000Y0132810D01*
X0153998Y0132772D02*
X0152252Y0132772D01*
X0152248Y0132734D02*
X0153998Y0132734D01*
X0153998Y0132696D02*
X0152246Y0132696D01*
X0152244Y0132658D02*
X0153997Y0132658D01*
X0153997Y0132620D02*
X0152242Y0132620D01*
X0152240Y0132583D02*
X0153996Y0132583D01*
X0153999Y0132545D02*
X0152238Y0132545D01*
X0152237Y0132507D02*
X0154002Y0132507D01*
X0154006Y0132469D02*
X0152237Y0132469D01*
X0152237Y0132431D02*
X0154009Y0132431D01*
X0154012Y0132393D02*
X0152236Y0132393D01*
X0152236Y0132355D02*
X0154016Y0132355D01*
X0154023Y0132317D02*
X0152237Y0132317D01*
X0152238Y0132280D02*
X0154030Y0132280D01*
X0154037Y0132242D02*
X0152239Y0132242D01*
X0152239Y0132204D02*
X0154044Y0132204D01*
X0154051Y0132166D02*
X0152240Y0132166D01*
X0152242Y0132128D02*
X0154059Y0132128D01*
X0154069Y0132090D02*
X0152245Y0132090D01*
X0152247Y0132052D02*
X0154080Y0132052D01*
X0154091Y0132014D02*
X0152250Y0132014D01*
X0152253Y0131977D02*
X0154102Y0131977D01*
X0154113Y0131939D02*
X0152256Y0131939D01*
X0152260Y0131901D02*
X0154126Y0131901D01*
X0154142Y0131863D02*
X0152266Y0131863D01*
X0152271Y0131825D02*
X0154157Y0131825D01*
X0154172Y0131787D02*
X0152276Y0131787D01*
X0152282Y0131749D02*
X0154187Y0131749D01*
X0154202Y0131711D02*
X0152287Y0131711D01*
X0152294Y0131673D02*
X0154222Y0131673D01*
X0154241Y0131636D02*
X0152301Y0131636D01*
X0152309Y0131598D02*
X0154261Y0131598D01*
X0154280Y0131560D02*
X0152317Y0131560D01*
X0152324Y0131522D02*
X0154300Y0131522D01*
X0154324Y0131484D02*
X0152332Y0131484D01*
X0152342Y0131446D02*
X0154348Y0131446D01*
X0154372Y0131408D02*
X0152352Y0131408D01*
X0152362Y0131370D02*
X0154397Y0131370D01*
X0154421Y0131333D02*
X0152372Y0131333D01*
X0152382Y0131295D02*
X0154451Y0131295D01*
X0154481Y0131257D02*
X0152392Y0131257D01*
X0152405Y0131219D02*
X0154511Y0131219D01*
X0154541Y0131181D02*
X0152417Y0131181D01*
X0152430Y0131143D02*
X0154573Y0131143D01*
X0154610Y0131105D02*
X0152442Y0131105D01*
X0152455Y0131067D02*
X0154646Y0131067D01*
X0154683Y0131029D02*
X0152469Y0131029D01*
X0152484Y0130992D02*
X0154721Y0130992D01*
X0154768Y0130954D02*
X0152499Y0130954D01*
X0152514Y0130916D02*
X0154815Y0130916D01*
X0154862Y0130878D02*
X0152529Y0130878D01*
X0152545Y0130840D02*
X0154913Y0130840D01*
X0154969Y0130802D02*
X0152563Y0130802D01*
X0152581Y0130764D02*
X0155024Y0130764D01*
X0155082Y0130726D02*
X0152598Y0130726D01*
X0152616Y0130689D02*
X0155148Y0130689D01*
X0155215Y0130651D02*
X0152634Y0130651D01*
X0152654Y0130613D02*
X0155286Y0130613D01*
X0155367Y0130575D02*
X0152675Y0130575D01*
X0152696Y0130537D02*
X0155448Y0130537D01*
X0155546Y0130499D02*
X0152716Y0130499D01*
X0152737Y0130461D02*
X0155649Y0130461D01*
X0155775Y0130423D02*
X0152760Y0130423D01*
X0152784Y0130385D02*
X0155920Y0130385D01*
X0156119Y0130348D02*
X0152807Y0130348D01*
X0152831Y0130310D02*
X0160234Y0130310D01*
X0160258Y0130348D02*
X0156925Y0130348D01*
X0157129Y0130385D02*
X0160281Y0130385D01*
X0160304Y0130423D02*
X0157280Y0130423D01*
X0157407Y0130461D02*
X0160327Y0130461D01*
X0160350Y0130499D02*
X0157508Y0130499D01*
X0157605Y0130537D02*
X0160371Y0130537D01*
X0160392Y0130575D02*
X0157688Y0130575D01*
X0157766Y0130613D02*
X0160412Y0130613D01*
X0160433Y0130651D02*
X0157841Y0130651D01*
X0157905Y0130689D02*
X0160453Y0130689D01*
X0160472Y0130726D02*
X0157970Y0130726D01*
X0158032Y0130764D02*
X0160489Y0130764D01*
X0160507Y0130802D02*
X0158086Y0130802D01*
X0158139Y0130840D02*
X0160525Y0130840D01*
X0160542Y0130878D02*
X0158193Y0130878D01*
X0158240Y0130916D02*
X0160559Y0130916D01*
X0160574Y0130954D02*
X0158285Y0130954D01*
X0158330Y0130992D02*
X0160589Y0130992D01*
X0160604Y0131029D02*
X0158375Y0131029D01*
X0158411Y0131067D02*
X0160619Y0131067D01*
X0160635Y0131105D02*
X0158448Y0131105D01*
X0158484Y0131143D02*
X0160648Y0131143D01*
X0160660Y0131181D02*
X0158521Y0131181D01*
X0158551Y0131219D02*
X0160673Y0131219D01*
X0160685Y0131257D02*
X0158581Y0131257D01*
X0158611Y0131295D02*
X0160698Y0131295D01*
X0160710Y0131333D02*
X0158641Y0131333D01*
X0158669Y0131370D02*
X0160720Y0131370D01*
X0160731Y0131408D02*
X0158693Y0131408D01*
X0158717Y0131446D02*
X0160741Y0131446D01*
X0160751Y0131484D02*
X0158741Y0131484D01*
X0158765Y0131522D02*
X0160761Y0131522D01*
X0160770Y0131560D02*
X0158788Y0131560D01*
X0158807Y0131598D02*
X0160778Y0131598D01*
X0160786Y0131636D02*
X0158826Y0131636D01*
X0158845Y0131673D02*
X0160794Y0131673D01*
X0160802Y0131711D02*
X0158864Y0131711D01*
X0158883Y0131749D02*
X0160810Y0131749D01*
X0160816Y0131787D02*
X0158898Y0131787D01*
X0158912Y0131825D02*
X0160822Y0131825D01*
X0160828Y0131863D02*
X0158927Y0131863D01*
X0158941Y0131901D02*
X0160833Y0131901D01*
X0160839Y0131939D02*
X0158956Y0131939D01*
X0158968Y0131977D02*
X0160845Y0131977D01*
X0160848Y0132014D02*
X0158978Y0132014D01*
X0158989Y0132052D02*
X0160852Y0132052D01*
X0160855Y0132090D02*
X0158999Y0132090D01*
X0159009Y0132128D02*
X0160859Y0132128D01*
X0160862Y0132166D02*
X0159020Y0132166D01*
X0159026Y0132204D02*
X0160866Y0132204D01*
X0160867Y0132242D02*
X0159033Y0132242D01*
X0159039Y0132280D02*
X0160868Y0132280D01*
X0160870Y0132317D02*
X0159045Y0132317D01*
X0159052Y0132355D02*
X0160871Y0132355D01*
X0160872Y0132393D02*
X0159058Y0132393D01*
X0159060Y0132431D02*
X0160873Y0132431D01*
X0160873Y0132469D02*
X0159063Y0132469D01*
X0159065Y0132507D02*
X0160872Y0132507D01*
X0160872Y0132545D02*
X0159068Y0132545D01*
X0159070Y0132583D02*
X0160871Y0132583D01*
X0160871Y0132620D02*
X0159072Y0132620D01*
X0159072Y0132658D02*
X0160869Y0132658D01*
X0160867Y0132696D02*
X0159071Y0132696D01*
X0159069Y0132734D02*
X0160864Y0132734D01*
X0160862Y0132772D02*
X0159068Y0132772D01*
X0159066Y0132810D02*
X0160859Y0132810D01*
X0160857Y0132848D02*
X0159064Y0132848D01*
X0159062Y0132886D02*
X0160853Y0132886D01*
X0160848Y0132924D02*
X0159058Y0132924D01*
X0159052Y0132961D02*
X0160843Y0132961D01*
X0160838Y0132999D02*
X0159046Y0132999D01*
X0159041Y0133037D02*
X0160833Y0133037D01*
X0160828Y0133075D02*
X0159035Y0133075D01*
X0159030Y0133113D02*
X0160821Y0133113D01*
X0160814Y0133151D02*
X0159020Y0133151D01*
X0159011Y0133189D02*
X0160807Y0133189D01*
X0160799Y0133227D02*
X0159001Y0133227D01*
X0158991Y0133264D02*
X0160792Y0133264D01*
X0160784Y0133302D02*
X0158982Y0133302D01*
X0158971Y0133340D02*
X0160774Y0133340D01*
X0160765Y0133378D02*
X0158958Y0133378D01*
X0158944Y0133416D02*
X0160755Y0133416D01*
X0160745Y0133454D02*
X0158930Y0133454D01*
X0158917Y0133492D02*
X0160735Y0133492D01*
X0160724Y0133530D02*
X0158903Y0133530D01*
X0158886Y0133568D02*
X0160712Y0133568D01*
X0160699Y0133605D02*
X0158868Y0133605D01*
X0158850Y0133643D02*
X0160687Y0133643D01*
X0160674Y0133681D02*
X0158831Y0133681D01*
X0158813Y0133719D02*
X0160662Y0133719D01*
X0160647Y0133757D02*
X0158793Y0133757D01*
X0158770Y0133795D02*
X0160632Y0133795D01*
X0160617Y0133833D02*
X0158747Y0133833D01*
X0158724Y0133871D02*
X0160602Y0133871D01*
X0160586Y0133908D02*
X0158701Y0133908D01*
X0158675Y0133946D02*
X0160570Y0133946D01*
X0160552Y0133984D02*
X0158647Y0133984D01*
X0158618Y0134022D02*
X0160534Y0134022D01*
X0160516Y0134060D02*
X0158589Y0134060D01*
X0158561Y0134098D02*
X0160498Y0134098D01*
X0160480Y0134136D02*
X0158527Y0134136D01*
X0158492Y0134174D02*
X0160459Y0134174D01*
X0160438Y0134212D02*
X0158457Y0134212D01*
X0158422Y0134249D02*
X0160417Y0134249D01*
X0160396Y0134287D02*
X0158383Y0134287D01*
X0158340Y0134325D02*
X0160375Y0134325D01*
X0160351Y0134363D02*
X0158297Y0134363D01*
X0158253Y0134401D02*
X0160326Y0134401D01*
X0160302Y0134439D02*
X0158205Y0134439D01*
X0158153Y0134477D02*
X0160278Y0134477D01*
X0160254Y0134515D02*
X0158102Y0134515D01*
X0158049Y0134552D02*
X0160226Y0134552D01*
X0160198Y0134590D02*
X0157987Y0134590D01*
X0157925Y0134628D02*
X0160170Y0134628D01*
X0160143Y0134666D02*
X0157863Y0134666D01*
X0157789Y0134704D02*
X0160114Y0134704D01*
X0160082Y0134742D02*
X0157714Y0134742D01*
X0157632Y0134780D02*
X0160051Y0134780D01*
X0160019Y0134818D02*
X0157540Y0134818D01*
X0157442Y0134855D02*
X0159987Y0134855D01*
X0160110Y0134893D02*
X0157323Y0134893D01*
X0157185Y0134931D02*
X0163249Y0134931D01*
X0163258Y0134969D02*
X0157012Y0134969D01*
X0156675Y0135007D02*
X0163268Y0135007D01*
X0163280Y0136674D02*
X0152552Y0136674D01*
X0152563Y0136712D02*
X0163276Y0136712D01*
X0163272Y0136750D02*
X0152573Y0136750D01*
X0152583Y0136787D02*
X0163268Y0136787D01*
X0163264Y0136825D02*
X0152593Y0136825D01*
X0153949Y0138659D02*
X0154134Y0138537D01*
X0154326Y0138424D01*
X0154523Y0138320D01*
X0154724Y0138227D01*
X0158315Y0138227D01*
X0158395Y0138261D02*
X0158595Y0138358D01*
X0158790Y0138465D01*
X0158979Y0138582D01*
X0159162Y0138708D01*
X0159339Y0138843D01*
X0159674Y0139135D01*
X0159831Y0139293D01*
X0159977Y0139460D01*
X0160114Y0139636D01*
X0160239Y0139819D01*
X0160354Y0140009D01*
X0160457Y0140207D01*
X0160548Y0140409D01*
X0160626Y0140617D01*
X0160693Y0140830D01*
X0160746Y0141045D01*
X0160786Y0141264D01*
X0160813Y0141485D01*
X0160827Y0141707D01*
X0160825Y0142151D01*
X0160806Y0142373D01*
X0160774Y0142593D01*
X0160729Y0142811D01*
X0158991Y0142811D01*
X0158984Y0142836D02*
X0159036Y0142620D01*
X0159065Y0142400D01*
X0159072Y0142178D01*
X0159069Y0142002D01*
X0159046Y0141781D01*
X0159000Y0141564D01*
X0158933Y0141352D01*
X0158845Y0141148D01*
X0158737Y0140953D01*
X0158610Y0140771D01*
X0158466Y0140602D01*
X0158305Y0140449D01*
X0158130Y0140312D01*
X0157944Y0140190D01*
X0157749Y0140083D01*
X0157546Y0139993D01*
X0157336Y0139919D01*
X0157121Y0139863D01*
X0156902Y0139824D01*
X0156681Y0139803D01*
X0156459Y0139799D01*
X0156237Y0139813D01*
X0156017Y0139846D01*
X0155800Y0139895D01*
X0155588Y0139962D01*
X0155383Y0140046D01*
X0155184Y0140147D01*
X0154995Y0140263D01*
X0154815Y0140394D01*
X0154649Y0140541D01*
X0154501Y0140707D01*
X0154369Y0140886D01*
X0154255Y0141077D01*
X0154160Y0141278D01*
X0154084Y0141487D01*
X0154029Y0141702D01*
X0153994Y0141921D01*
X0153981Y0142143D01*
X0153989Y0142365D01*
X0154018Y0142586D01*
X0154068Y0142802D01*
X0154138Y0143013D01*
X0154228Y0143216D01*
X0154338Y0143410D01*
X0154462Y0143588D01*
X0153329Y0144496D01*
X0153180Y0144338D01*
X0153037Y0144167D01*
X0152905Y0143989D01*
X0152783Y0143803D01*
X0152673Y0143609D01*
X0152575Y0143410D01*
X0152488Y0143205D01*
X0152414Y0142996D01*
X0152353Y0142782D01*
X0152304Y0142565D01*
X0152268Y0142346D01*
X0152246Y0142124D01*
X0152237Y0141902D01*
X0152236Y0141855D01*
X0152240Y0141633D01*
X0152258Y0141412D01*
X0152288Y0141191D01*
X0152332Y0140973D01*
X0152388Y0140758D01*
X0152457Y0140547D01*
X0152539Y0140340D01*
X0152633Y0140139D01*
X0152739Y0139943D01*
X0152856Y0139754D01*
X0152984Y0139573D01*
X0153123Y0139399D01*
X0153272Y0139234D01*
X0153431Y0139078D01*
X0153597Y0138930D01*
X0153769Y0138790D01*
X0153949Y0138659D01*
X0153972Y0138644D02*
X0159069Y0138644D01*
X0159124Y0138682D02*
X0153918Y0138682D01*
X0153866Y0138719D02*
X0159178Y0138719D01*
X0159227Y0138757D02*
X0153815Y0138757D01*
X0153764Y0138795D02*
X0159277Y0138795D01*
X0159327Y0138833D02*
X0153717Y0138833D01*
X0153670Y0138871D02*
X0159372Y0138871D01*
X0159415Y0138909D02*
X0153623Y0138909D01*
X0153578Y0138947D02*
X0159459Y0138947D01*
X0159502Y0138985D02*
X0153536Y0138985D01*
X0153493Y0139022D02*
X0159545Y0139022D01*
X0159589Y0139060D02*
X0153451Y0139060D01*
X0153410Y0139098D02*
X0159632Y0139098D01*
X0159675Y0139136D02*
X0153372Y0139136D01*
X0153333Y0139174D02*
X0159713Y0139174D01*
X0159750Y0139212D02*
X0153295Y0139212D01*
X0153258Y0139250D02*
X0159788Y0139250D01*
X0159825Y0139288D02*
X0153224Y0139288D01*
X0153189Y0139326D02*
X0159859Y0139326D01*
X0159892Y0139363D02*
X0153155Y0139363D01*
X0153121Y0139401D02*
X0159926Y0139401D01*
X0159959Y0139439D02*
X0153091Y0139439D01*
X0153061Y0139477D02*
X0159991Y0139477D01*
X0160020Y0139515D02*
X0153030Y0139515D01*
X0153000Y0139553D02*
X0160049Y0139553D01*
X0160079Y0139591D02*
X0152971Y0139591D01*
X0152945Y0139629D02*
X0160108Y0139629D01*
X0160135Y0139666D02*
X0152918Y0139666D01*
X0152891Y0139704D02*
X0160161Y0139704D01*
X0160187Y0139742D02*
X0152864Y0139742D01*
X0152840Y0139780D02*
X0160213Y0139780D01*
X0160239Y0139818D02*
X0156841Y0139818D01*
X0157082Y0139856D02*
X0160262Y0139856D01*
X0160284Y0139894D02*
X0157239Y0139894D01*
X0157371Y0139932D02*
X0160307Y0139932D01*
X0160330Y0139969D02*
X0157479Y0139969D01*
X0157578Y0140007D02*
X0160353Y0140007D01*
X0160373Y0140045D02*
X0157663Y0140045D01*
X0157748Y0140083D02*
X0160392Y0140083D01*
X0160412Y0140121D02*
X0157818Y0140121D01*
X0157887Y0140159D02*
X0160432Y0140159D01*
X0160452Y0140197D02*
X0157954Y0140197D01*
X0158012Y0140235D02*
X0160469Y0140235D01*
X0160486Y0140273D02*
X0158070Y0140273D01*
X0158127Y0140310D02*
X0160503Y0140310D01*
X0160520Y0140348D02*
X0158176Y0140348D01*
X0158225Y0140386D02*
X0160537Y0140386D01*
X0160553Y0140424D02*
X0158274Y0140424D01*
X0158319Y0140462D02*
X0160568Y0140462D01*
X0160582Y0140500D02*
X0158359Y0140500D01*
X0158399Y0140538D02*
X0160596Y0140538D01*
X0160611Y0140576D02*
X0158439Y0140576D01*
X0158476Y0140613D02*
X0160625Y0140613D01*
X0160637Y0140651D02*
X0158508Y0140651D01*
X0158541Y0140689D02*
X0160649Y0140689D01*
X0160661Y0140727D02*
X0158573Y0140727D01*
X0158605Y0140765D02*
X0160672Y0140765D01*
X0160684Y0140803D02*
X0158633Y0140803D01*
X0158659Y0140841D02*
X0160695Y0140841D01*
X0160705Y0140879D02*
X0158685Y0140879D01*
X0158712Y0140917D02*
X0160714Y0140917D01*
X0160723Y0140954D02*
X0158738Y0140954D01*
X0158759Y0140992D02*
X0160733Y0140992D01*
X0160742Y0141030D02*
X0158780Y0141030D01*
X0158801Y0141068D02*
X0160750Y0141068D01*
X0160757Y0141106D02*
X0158822Y0141106D01*
X0158843Y0141144D02*
X0160764Y0141144D01*
X0160771Y0141182D02*
X0158860Y0141182D01*
X0158876Y0141220D02*
X0160778Y0141220D01*
X0160785Y0141257D02*
X0158892Y0141257D01*
X0158909Y0141295D02*
X0160790Y0141295D01*
X0160794Y0141333D02*
X0158925Y0141333D01*
X0158939Y0141371D02*
X0160799Y0141371D01*
X0160804Y0141409D02*
X0158951Y0141409D01*
X0158963Y0141447D02*
X0160808Y0141447D01*
X0160813Y0141485D02*
X0158975Y0141485D01*
X0158987Y0141523D02*
X0160815Y0141523D01*
X0160818Y0141561D02*
X0158999Y0141561D01*
X0159007Y0141598D02*
X0160820Y0141598D01*
X0160822Y0141636D02*
X0159015Y0141636D01*
X0159023Y0141674D02*
X0160825Y0141674D01*
X0160827Y0141712D02*
X0159031Y0141712D01*
X0159039Y0141750D02*
X0160827Y0141750D01*
X0160826Y0141788D02*
X0159046Y0141788D01*
X0159050Y0141826D02*
X0160826Y0141826D01*
X0160826Y0141864D02*
X0159054Y0141864D01*
X0159058Y0141901D02*
X0160826Y0141901D01*
X0160826Y0141939D02*
X0159062Y0141939D01*
X0159067Y0141977D02*
X0160825Y0141977D01*
X0160825Y0142015D02*
X0159069Y0142015D01*
X0159070Y0142053D02*
X0160825Y0142053D01*
X0160825Y0142091D02*
X0159071Y0142091D01*
X0159071Y0142129D02*
X0160825Y0142129D01*
X0160823Y0142167D02*
X0159072Y0142167D01*
X0159071Y0142204D02*
X0160820Y0142204D01*
X0160817Y0142242D02*
X0159070Y0142242D01*
X0159069Y0142280D02*
X0160814Y0142280D01*
X0160811Y0142318D02*
X0159068Y0142318D01*
X0159066Y0142356D02*
X0160807Y0142356D01*
X0160803Y0142394D02*
X0159065Y0142394D01*
X0159061Y0142432D02*
X0160798Y0142432D01*
X0160792Y0142470D02*
X0159056Y0142470D01*
X0159051Y0142508D02*
X0160787Y0142508D01*
X0160781Y0142545D02*
X0159046Y0142545D01*
X0159041Y0142583D02*
X0160776Y0142583D01*
X0160768Y0142621D02*
X0159035Y0142621D01*
X0159026Y0142659D02*
X0160761Y0142659D01*
X0160753Y0142697D02*
X0159017Y0142697D01*
X0159008Y0142735D02*
X0160745Y0142735D01*
X0160737Y0142773D02*
X0159000Y0142773D01*
X0158984Y0142836D02*
X0158912Y0143047D01*
X0158819Y0143248D01*
X0158706Y0143440D01*
X0158574Y0143619D01*
X0158426Y0143784D01*
X0158260Y0143933D01*
X0158082Y0144066D01*
X0157894Y0144184D01*
X0157697Y0144286D01*
X0157492Y0144372D01*
X0157280Y0144441D01*
X0157064Y0144494D01*
X0156845Y0144528D01*
X0156623Y0144544D01*
X0156401Y0144543D01*
X0156179Y0144524D01*
X0155960Y0144488D01*
X0155745Y0144433D01*
X0155534Y0144362D01*
X0155330Y0144273D01*
X0155134Y0144169D01*
X0154947Y0144049D01*
X0154770Y0143914D01*
X0154609Y0143761D01*
X0154468Y0143596D01*
X0153332Y0144504D01*
X0153333Y0144590D01*
X0152666Y0144590D01*
X0152548Y0144694D01*
X0152548Y0146250D01*
X0152652Y0146368D01*
X0160434Y0146368D01*
X0160595Y0146307D01*
X0160595Y0144750D01*
X0160533Y0144590D01*
X0159866Y0144590D01*
X0159769Y0144538D01*
X0159921Y0144375D01*
X0160062Y0144204D01*
X0160193Y0144024D01*
X0160312Y0143837D01*
X0160420Y0143642D01*
X0160516Y0143442D01*
X0160600Y0143236D01*
X0160671Y0143025D01*
X0160729Y0142811D01*
X0160719Y0142848D02*
X0158980Y0142848D01*
X0158967Y0142886D02*
X0160709Y0142886D01*
X0160698Y0142924D02*
X0158954Y0142924D01*
X0158941Y0142962D02*
X0160688Y0142962D01*
X0160678Y0143000D02*
X0158928Y0143000D01*
X0158915Y0143038D02*
X0160667Y0143038D01*
X0160654Y0143076D02*
X0158898Y0143076D01*
X0158881Y0143114D02*
X0160641Y0143114D01*
X0160628Y0143152D02*
X0158863Y0143152D01*
X0158846Y0143189D02*
X0160616Y0143189D01*
X0160603Y0143227D02*
X0158828Y0143227D01*
X0158809Y0143265D02*
X0160588Y0143265D01*
X0160573Y0143303D02*
X0158786Y0143303D01*
X0158764Y0143341D02*
X0160557Y0143341D01*
X0160542Y0143379D02*
X0158742Y0143379D01*
X0158720Y0143417D02*
X0160526Y0143417D01*
X0160510Y0143455D02*
X0158695Y0143455D01*
X0158667Y0143492D02*
X0160492Y0143492D01*
X0160474Y0143530D02*
X0158639Y0143530D01*
X0158612Y0143568D02*
X0160456Y0143568D01*
X0160438Y0143606D02*
X0158584Y0143606D01*
X0158552Y0143644D02*
X0160419Y0143644D01*
X0160398Y0143682D02*
X0158518Y0143682D01*
X0158484Y0143720D02*
X0160377Y0143720D01*
X0160356Y0143758D02*
X0158450Y0143758D01*
X0158413Y0143796D02*
X0160335Y0143796D01*
X0160314Y0143833D02*
X0158371Y0143833D01*
X0158329Y0143871D02*
X0160290Y0143871D01*
X0160266Y0143909D02*
X0158287Y0143909D01*
X0158241Y0143947D02*
X0160242Y0143947D01*
X0160218Y0143985D02*
X0158191Y0143985D01*
X0158140Y0144023D02*
X0160193Y0144023D01*
X0160166Y0144061D02*
X0158089Y0144061D01*
X0158030Y0144099D02*
X0160138Y0144099D01*
X0160111Y0144136D02*
X0157969Y0144136D01*
X0157909Y0144174D02*
X0160083Y0144174D01*
X0160055Y0144212D02*
X0157839Y0144212D01*
X0157766Y0144250D02*
X0160024Y0144250D01*
X0159993Y0144288D02*
X0157692Y0144288D01*
X0157602Y0144326D02*
X0159961Y0144326D01*
X0159930Y0144364D02*
X0157512Y0144364D01*
X0157402Y0144402D02*
X0159896Y0144402D01*
X0159861Y0144439D02*
X0157287Y0144439D01*
X0157132Y0144477D02*
X0159826Y0144477D01*
X0159790Y0144515D02*
X0156926Y0144515D01*
X0156125Y0144515D02*
X0153332Y0144515D01*
X0153333Y0144553D02*
X0159797Y0144553D01*
X0160533Y0144591D02*
X0152665Y0144591D01*
X0152621Y0144629D02*
X0160548Y0144629D01*
X0160563Y0144667D02*
X0152578Y0144667D01*
X0152548Y0144705D02*
X0160577Y0144705D01*
X0160592Y0144743D02*
X0152548Y0144743D01*
X0152548Y0144780D02*
X0160595Y0144780D01*
X0160595Y0144818D02*
X0152548Y0144818D01*
X0152548Y0144856D02*
X0160595Y0144856D01*
X0160595Y0144894D02*
X0152548Y0144894D01*
X0152548Y0144932D02*
X0160595Y0144932D01*
X0160595Y0144970D02*
X0152548Y0144970D01*
X0152548Y0145008D02*
X0160595Y0145008D01*
X0160595Y0145046D02*
X0152548Y0145046D01*
X0152548Y0145083D02*
X0160595Y0145083D01*
X0160595Y0145121D02*
X0152548Y0145121D01*
X0152548Y0145159D02*
X0160595Y0145159D01*
X0160595Y0145197D02*
X0152548Y0145197D01*
X0152548Y0145235D02*
X0160595Y0145235D01*
X0160595Y0145273D02*
X0152548Y0145273D01*
X0152548Y0145311D02*
X0160595Y0145311D01*
X0160595Y0145349D02*
X0152548Y0145349D01*
X0152548Y0145387D02*
X0160595Y0145387D01*
X0160595Y0145424D02*
X0152548Y0145424D01*
X0152548Y0145462D02*
X0160595Y0145462D01*
X0160595Y0145500D02*
X0152548Y0145500D01*
X0152548Y0145538D02*
X0160595Y0145538D01*
X0160595Y0145576D02*
X0152548Y0145576D01*
X0152548Y0145614D02*
X0160595Y0145614D01*
X0160595Y0145652D02*
X0152548Y0145652D01*
X0152548Y0145690D02*
X0160595Y0145690D01*
X0160595Y0145727D02*
X0152548Y0145727D01*
X0152548Y0145765D02*
X0160595Y0145765D01*
X0160595Y0145803D02*
X0152548Y0145803D01*
X0152548Y0145841D02*
X0160595Y0145841D01*
X0160595Y0145879D02*
X0152548Y0145879D01*
X0152548Y0145917D02*
X0160595Y0145917D01*
X0160595Y0145955D02*
X0152548Y0145955D01*
X0152548Y0145993D02*
X0160595Y0145993D01*
X0160595Y0146031D02*
X0152548Y0146031D01*
X0152548Y0146068D02*
X0160595Y0146068D01*
X0160595Y0146106D02*
X0152548Y0146106D01*
X0152548Y0146144D02*
X0160595Y0146144D01*
X0160595Y0146182D02*
X0152548Y0146182D01*
X0152548Y0146220D02*
X0160595Y0146220D01*
X0160595Y0146258D02*
X0152554Y0146258D01*
X0152588Y0146296D02*
X0160595Y0146296D01*
X0160525Y0146334D02*
X0152621Y0146334D01*
X0152582Y0147791D02*
X0163240Y0147835D01*
X0163240Y0149612D01*
X0163176Y0149769D01*
X0160067Y0149769D01*
X0160078Y0149871D01*
X0160220Y0150042D01*
X0160348Y0150223D01*
X0160462Y0150413D01*
X0160562Y0150612D01*
X0160646Y0150817D01*
X0160715Y0151028D01*
X0160768Y0151243D01*
X0160805Y0151462D01*
X0160824Y0151684D01*
X0160829Y0151906D01*
X0160824Y0152127D01*
X0160801Y0152348D01*
X0160761Y0152567D01*
X0160705Y0152781D01*
X0160632Y0152991D01*
X0160543Y0153194D01*
X0160439Y0153390D01*
X0160319Y0153578D01*
X0160186Y0153755D01*
X0160039Y0153922D01*
X0159880Y0154077D01*
X0159704Y0154212D01*
X0159520Y0154336D01*
X0159329Y0154449D01*
X0159132Y0154551D01*
X0158929Y0154642D01*
X0158722Y0154720D01*
X0158510Y0154787D01*
X0158295Y0154841D01*
X0158076Y0154883D01*
X0157856Y0154912D01*
X0157635Y0154929D01*
X0157413Y0154932D01*
X0157191Y0154927D01*
X0152528Y0154927D01*
X0152503Y0154730D01*
X0152503Y0153175D01*
X0152543Y0152993D01*
X0156762Y0152993D01*
X0156984Y0152999D01*
X0157206Y0152993D01*
X0157426Y0152970D01*
X0157645Y0152930D01*
X0157859Y0152874D01*
X0158069Y0152801D01*
X0158272Y0152712D01*
X0158468Y0152608D01*
X0158634Y0152461D01*
X0158775Y0152290D01*
X0158890Y0152100D01*
X0158978Y0151897D01*
X0159037Y0151683D01*
X0159065Y0151463D01*
X0159063Y0151241D01*
X0159029Y0151022D01*
X0158966Y0150809D01*
X0158873Y0150607D01*
X0158753Y0150421D01*
X0158609Y0150253D01*
X0158437Y0150114D01*
X0158240Y0150011D01*
X0158036Y0149922D01*
X0157827Y0149850D01*
X0157612Y0149792D01*
X0157394Y0149751D01*
X0157173Y0149727D01*
X0156952Y0149718D01*
X0156730Y0149725D01*
X0152514Y0149722D01*
X0152514Y0147945D01*
X0152582Y0147791D01*
X0152573Y0147811D02*
X0157331Y0147811D01*
X0157318Y0149743D02*
X0163187Y0149743D01*
X0163202Y0149705D02*
X0152514Y0149705D01*
X0152514Y0149667D02*
X0163218Y0149667D01*
X0163233Y0149629D02*
X0152514Y0149629D01*
X0152514Y0149591D02*
X0163240Y0149591D01*
X0163240Y0149553D02*
X0152514Y0149553D01*
X0152514Y0149516D02*
X0163240Y0149516D01*
X0163240Y0149478D02*
X0152514Y0149478D01*
X0152514Y0149440D02*
X0163240Y0149440D01*
X0163240Y0149402D02*
X0152514Y0149402D01*
X0152514Y0149364D02*
X0163240Y0149364D01*
X0163240Y0149326D02*
X0152514Y0149326D01*
X0152514Y0149288D02*
X0163240Y0149288D01*
X0163240Y0149250D02*
X0152514Y0149250D01*
X0152514Y0149213D02*
X0163240Y0149213D01*
X0163240Y0149175D02*
X0152514Y0149175D01*
X0152514Y0149137D02*
X0163240Y0149137D01*
X0163240Y0149099D02*
X0152514Y0149099D01*
X0152514Y0149061D02*
X0163240Y0149061D01*
X0163240Y0149023D02*
X0152514Y0149023D01*
X0152514Y0148985D02*
X0163240Y0148985D01*
X0163240Y0148947D02*
X0152514Y0148947D01*
X0152514Y0148909D02*
X0163240Y0148909D01*
X0163240Y0148872D02*
X0152514Y0148872D01*
X0152514Y0148834D02*
X0163240Y0148834D01*
X0163240Y0148796D02*
X0152514Y0148796D01*
X0152514Y0148758D02*
X0163240Y0148758D01*
X0163240Y0148720D02*
X0152514Y0148720D01*
X0152514Y0148682D02*
X0163240Y0148682D01*
X0163240Y0148644D02*
X0152514Y0148644D01*
X0152514Y0148606D02*
X0163240Y0148606D01*
X0163240Y0148569D02*
X0152514Y0148569D01*
X0152514Y0148531D02*
X0163240Y0148531D01*
X0163240Y0148493D02*
X0152514Y0148493D01*
X0152514Y0148455D02*
X0163240Y0148455D01*
X0163240Y0148417D02*
X0152514Y0148417D01*
X0152514Y0148379D02*
X0163240Y0148379D01*
X0163240Y0148341D02*
X0152514Y0148341D01*
X0152514Y0148303D02*
X0163240Y0148303D01*
X0163240Y0148266D02*
X0152514Y0148266D01*
X0152514Y0148228D02*
X0163240Y0148228D01*
X0163240Y0148190D02*
X0152514Y0148190D01*
X0152514Y0148152D02*
X0163240Y0148152D01*
X0163240Y0148114D02*
X0152514Y0148114D01*
X0152514Y0148076D02*
X0163240Y0148076D01*
X0163240Y0148038D02*
X0152514Y0148038D01*
X0152514Y0148000D02*
X0163240Y0148000D01*
X0163240Y0147962D02*
X0152514Y0147962D01*
X0152523Y0147925D02*
X0163240Y0147925D01*
X0163240Y0147887D02*
X0152540Y0147887D01*
X0152557Y0147849D02*
X0163240Y0147849D01*
X0160069Y0149781D02*
X0157550Y0149781D01*
X0157711Y0149819D02*
X0160073Y0149819D01*
X0160077Y0149857D02*
X0157847Y0149857D01*
X0157956Y0149894D02*
X0160098Y0149894D01*
X0160129Y0149932D02*
X0158059Y0149932D01*
X0158147Y0149970D02*
X0160161Y0149970D01*
X0160192Y0150008D02*
X0158234Y0150008D01*
X0158308Y0150046D02*
X0160223Y0150046D01*
X0160249Y0150084D02*
X0158380Y0150084D01*
X0158447Y0150122D02*
X0160276Y0150122D01*
X0160303Y0150160D02*
X0158494Y0150160D01*
X0158540Y0150197D02*
X0160330Y0150197D01*
X0160355Y0150235D02*
X0158587Y0150235D01*
X0158626Y0150273D02*
X0160378Y0150273D01*
X0160401Y0150311D02*
X0158659Y0150311D01*
X0158692Y0150349D02*
X0160424Y0150349D01*
X0160446Y0150387D02*
X0158724Y0150387D01*
X0158756Y0150425D02*
X0160468Y0150425D01*
X0160487Y0150463D02*
X0158780Y0150463D01*
X0158804Y0150501D02*
X0160506Y0150501D01*
X0160525Y0150538D02*
X0158829Y0150538D01*
X0158853Y0150576D02*
X0160544Y0150576D01*
X0160563Y0150614D02*
X0158876Y0150614D01*
X0158894Y0150652D02*
X0160578Y0150652D01*
X0160594Y0150690D02*
X0158911Y0150690D01*
X0158928Y0150728D02*
X0160610Y0150728D01*
X0160625Y0150766D02*
X0158946Y0150766D01*
X0158963Y0150804D02*
X0160641Y0150804D01*
X0160654Y0150841D02*
X0158975Y0150841D01*
X0158987Y0150879D02*
X0160667Y0150879D01*
X0160679Y0150917D02*
X0158998Y0150917D01*
X0159010Y0150955D02*
X0160691Y0150955D01*
X0160704Y0150993D02*
X0159021Y0150993D01*
X0159031Y0151031D02*
X0160716Y0151031D01*
X0160725Y0151069D02*
X0159037Y0151069D01*
X0159042Y0151107D02*
X0160734Y0151107D01*
X0160744Y0151145D02*
X0159048Y0151145D01*
X0159054Y0151182D02*
X0160753Y0151182D01*
X0160762Y0151220D02*
X0159060Y0151220D01*
X0159063Y0151258D02*
X0160770Y0151258D01*
X0160777Y0151296D02*
X0159063Y0151296D01*
X0159064Y0151334D02*
X0160783Y0151334D01*
X0160789Y0151372D02*
X0159064Y0151372D01*
X0159065Y0151410D02*
X0160796Y0151410D01*
X0160802Y0151448D02*
X0159065Y0151448D01*
X0159062Y0151485D02*
X0160807Y0151485D01*
X0160810Y0151523D02*
X0159058Y0151523D01*
X0159053Y0151561D02*
X0160813Y0151561D01*
X0160817Y0151599D02*
X0159048Y0151599D01*
X0159043Y0151637D02*
X0160820Y0151637D01*
X0160824Y0151675D02*
X0159038Y0151675D01*
X0159029Y0151713D02*
X0160825Y0151713D01*
X0160826Y0151751D02*
X0159018Y0151751D01*
X0159008Y0151788D02*
X0160827Y0151788D01*
X0160827Y0151826D02*
X0158998Y0151826D01*
X0158987Y0151864D02*
X0160828Y0151864D01*
X0160829Y0151902D02*
X0158976Y0151902D01*
X0158959Y0151940D02*
X0160828Y0151940D01*
X0160827Y0151978D02*
X0158943Y0151978D01*
X0158927Y0152016D02*
X0160826Y0152016D01*
X0160825Y0152054D02*
X0158910Y0152054D01*
X0158894Y0152092D02*
X0160824Y0152092D01*
X0160823Y0152129D02*
X0158873Y0152129D01*
X0158849Y0152167D02*
X0160819Y0152167D01*
X0160816Y0152205D02*
X0158826Y0152205D01*
X0158803Y0152243D02*
X0160812Y0152243D01*
X0160808Y0152281D02*
X0158780Y0152281D01*
X0158751Y0152319D02*
X0160804Y0152319D01*
X0160799Y0152357D02*
X0158720Y0152357D01*
X0158689Y0152395D02*
X0160793Y0152395D01*
X0160786Y0152432D02*
X0158658Y0152432D01*
X0158624Y0152470D02*
X0160779Y0152470D01*
X0160772Y0152508D02*
X0158581Y0152508D01*
X0158538Y0152546D02*
X0160765Y0152546D01*
X0160757Y0152584D02*
X0158495Y0152584D01*
X0158442Y0152622D02*
X0160747Y0152622D01*
X0160737Y0152660D02*
X0158371Y0152660D01*
X0158300Y0152698D02*
X0160727Y0152698D01*
X0160717Y0152736D02*
X0158219Y0152736D01*
X0158132Y0152773D02*
X0160707Y0152773D01*
X0160694Y0152811D02*
X0158039Y0152811D01*
X0157931Y0152849D02*
X0160681Y0152849D01*
X0160668Y0152887D02*
X0157810Y0152887D01*
X0157666Y0152925D02*
X0160655Y0152925D01*
X0160642Y0152963D02*
X0157468Y0152963D01*
X0157987Y0154895D02*
X0152524Y0154895D01*
X0152519Y0154857D02*
X0158212Y0154857D01*
X0158382Y0154819D02*
X0152514Y0154819D01*
X0152510Y0154781D02*
X0158528Y0154781D01*
X0158648Y0154743D02*
X0152505Y0154743D01*
X0152503Y0154705D02*
X0158761Y0154705D01*
X0158861Y0154667D02*
X0152503Y0154667D01*
X0152503Y0154630D02*
X0158956Y0154630D01*
X0159041Y0154592D02*
X0152503Y0154592D01*
X0152503Y0154554D02*
X0159126Y0154554D01*
X0159200Y0154516D02*
X0152503Y0154516D01*
X0152503Y0154478D02*
X0159273Y0154478D01*
X0159344Y0154440D02*
X0152503Y0154440D01*
X0152503Y0154402D02*
X0159408Y0154402D01*
X0159472Y0154364D02*
X0152503Y0154364D01*
X0152503Y0154327D02*
X0159534Y0154327D01*
X0159590Y0154289D02*
X0152503Y0154289D01*
X0152503Y0154251D02*
X0159647Y0154251D01*
X0159703Y0154213D02*
X0152503Y0154213D01*
X0152503Y0154175D02*
X0159752Y0154175D01*
X0159801Y0154137D02*
X0152503Y0154137D01*
X0152503Y0154099D02*
X0159851Y0154099D01*
X0159896Y0154061D02*
X0152503Y0154061D01*
X0152503Y0154023D02*
X0159935Y0154023D01*
X0159974Y0153986D02*
X0152503Y0153986D01*
X0152503Y0153948D02*
X0160013Y0153948D01*
X0160050Y0153910D02*
X0152503Y0153910D01*
X0152503Y0153872D02*
X0160083Y0153872D01*
X0160117Y0153834D02*
X0152503Y0153834D01*
X0152503Y0153796D02*
X0160150Y0153796D01*
X0160183Y0153758D02*
X0152503Y0153758D01*
X0152503Y0153720D02*
X0160212Y0153720D01*
X0160241Y0153683D02*
X0152503Y0153683D01*
X0152503Y0153645D02*
X0160269Y0153645D01*
X0160297Y0153607D02*
X0152503Y0153607D01*
X0152503Y0153569D02*
X0160325Y0153569D01*
X0160349Y0153531D02*
X0152503Y0153531D01*
X0152503Y0153493D02*
X0160373Y0153493D01*
X0160397Y0153455D02*
X0152503Y0153455D01*
X0152503Y0153417D02*
X0160421Y0153417D01*
X0160444Y0153380D02*
X0152503Y0153380D01*
X0152503Y0153342D02*
X0160465Y0153342D01*
X0160485Y0153304D02*
X0152503Y0153304D01*
X0152503Y0153266D02*
X0160505Y0153266D01*
X0160525Y0153228D02*
X0152503Y0153228D01*
X0152503Y0153190D02*
X0160545Y0153190D01*
X0160561Y0153152D02*
X0152508Y0153152D01*
X0152516Y0153114D02*
X0160578Y0153114D01*
X0160595Y0153076D02*
X0152525Y0153076D01*
X0152533Y0153039D02*
X0160611Y0153039D01*
X0160628Y0153001D02*
X0152541Y0153001D01*
X0152574Y0156539D02*
X0163240Y0156550D01*
X0163240Y0158327D01*
X0163163Y0158473D01*
X0152720Y0158473D01*
X0152503Y0158467D01*
X0152503Y0156690D01*
X0152574Y0156539D01*
X0152564Y0156562D02*
X0163240Y0156562D01*
X0163240Y0156599D02*
X0152546Y0156599D01*
X0152528Y0156637D02*
X0163240Y0156637D01*
X0163240Y0156675D02*
X0152510Y0156675D01*
X0152503Y0156713D02*
X0163240Y0156713D01*
X0163240Y0156751D02*
X0152503Y0156751D01*
X0152503Y0156789D02*
X0163240Y0156789D01*
X0163240Y0156827D02*
X0152503Y0156827D01*
X0152503Y0156865D02*
X0163240Y0156865D01*
X0163240Y0156902D02*
X0152503Y0156902D01*
X0152503Y0156940D02*
X0163240Y0156940D01*
X0163240Y0156978D02*
X0152503Y0156978D01*
X0152503Y0157016D02*
X0163240Y0157016D01*
X0163240Y0157054D02*
X0152503Y0157054D01*
X0152503Y0157092D02*
X0163240Y0157092D01*
X0163240Y0157130D02*
X0152503Y0157130D01*
X0152503Y0157168D02*
X0163240Y0157168D01*
X0163240Y0157206D02*
X0152503Y0157206D01*
X0152503Y0157243D02*
X0163240Y0157243D01*
X0163240Y0157281D02*
X0152503Y0157281D01*
X0152503Y0157319D02*
X0163240Y0157319D01*
X0163240Y0157357D02*
X0152503Y0157357D01*
X0152503Y0157395D02*
X0163240Y0157395D01*
X0163240Y0157433D02*
X0152503Y0157433D01*
X0152503Y0157471D02*
X0163240Y0157471D01*
X0163240Y0157509D02*
X0152503Y0157509D01*
X0152503Y0157546D02*
X0163240Y0157546D01*
X0163240Y0157584D02*
X0152503Y0157584D01*
X0152503Y0157622D02*
X0163240Y0157622D01*
X0163240Y0157660D02*
X0152503Y0157660D01*
X0152503Y0157698D02*
X0163240Y0157698D01*
X0163240Y0157736D02*
X0152503Y0157736D01*
X0152503Y0157774D02*
X0163240Y0157774D01*
X0163240Y0157812D02*
X0152503Y0157812D01*
X0152503Y0157850D02*
X0163240Y0157850D01*
X0163240Y0157887D02*
X0152503Y0157887D01*
X0152503Y0157925D02*
X0163240Y0157925D01*
X0163240Y0157963D02*
X0152503Y0157963D01*
X0152503Y0158001D02*
X0163240Y0158001D01*
X0163240Y0158039D02*
X0152503Y0158039D01*
X0152503Y0158077D02*
X0163240Y0158077D01*
X0163240Y0158115D02*
X0152503Y0158115D01*
X0152503Y0158153D02*
X0163240Y0158153D01*
X0163240Y0158190D02*
X0152503Y0158190D01*
X0152503Y0158228D02*
X0163240Y0158228D01*
X0163240Y0158266D02*
X0152503Y0158266D01*
X0152503Y0158304D02*
X0163240Y0158304D01*
X0163233Y0158342D02*
X0152503Y0158342D01*
X0152503Y0158380D02*
X0163213Y0158380D01*
X0163193Y0158418D02*
X0152503Y0158418D01*
X0152503Y0158456D02*
X0163173Y0158456D01*
X0155920Y0144477D02*
X0153366Y0144477D01*
X0153352Y0144477D02*
X0153311Y0144477D01*
X0153276Y0144439D02*
X0153399Y0144439D01*
X0153414Y0144439D02*
X0155769Y0144439D01*
X0155651Y0144402D02*
X0153461Y0144402D01*
X0153447Y0144402D02*
X0153240Y0144402D01*
X0153204Y0144364D02*
X0153494Y0144364D01*
X0153508Y0144364D02*
X0155540Y0144364D01*
X0155451Y0144326D02*
X0153556Y0144326D01*
X0153541Y0144326D02*
X0153170Y0144326D01*
X0153138Y0144288D02*
X0153589Y0144288D01*
X0153603Y0144288D02*
X0155364Y0144288D01*
X0155286Y0144250D02*
X0153650Y0144250D01*
X0153636Y0144250D02*
X0153106Y0144250D01*
X0153074Y0144212D02*
X0153683Y0144212D01*
X0153698Y0144212D02*
X0155215Y0144212D01*
X0155144Y0144174D02*
X0153745Y0144174D01*
X0153730Y0144174D02*
X0153043Y0144174D01*
X0153014Y0144136D02*
X0153778Y0144136D01*
X0153792Y0144136D02*
X0155083Y0144136D01*
X0155024Y0144099D02*
X0153840Y0144099D01*
X0153825Y0144099D02*
X0152986Y0144099D01*
X0152958Y0144061D02*
X0153872Y0144061D01*
X0153887Y0144061D02*
X0154965Y0144061D01*
X0154913Y0144023D02*
X0153934Y0144023D01*
X0153919Y0144023D02*
X0152930Y0144023D01*
X0152902Y0143985D02*
X0153967Y0143985D01*
X0153982Y0143985D02*
X0154863Y0143985D01*
X0154813Y0143947D02*
X0154029Y0143947D01*
X0154014Y0143947D02*
X0152878Y0143947D01*
X0152853Y0143909D02*
X0154061Y0143909D01*
X0154076Y0143909D02*
X0154765Y0143909D01*
X0154725Y0143871D02*
X0154124Y0143871D01*
X0154108Y0143871D02*
X0152828Y0143871D01*
X0152803Y0143833D02*
X0154156Y0143833D01*
X0154171Y0143833D02*
X0154685Y0143833D01*
X0154645Y0143796D02*
X0154218Y0143796D01*
X0154203Y0143796D02*
X0152779Y0143796D01*
X0152758Y0143758D02*
X0154250Y0143758D01*
X0154266Y0143758D02*
X0154606Y0143758D01*
X0154574Y0143720D02*
X0154313Y0143720D01*
X0154298Y0143720D02*
X0152736Y0143720D01*
X0152714Y0143682D02*
X0154345Y0143682D01*
X0154360Y0143682D02*
X0154541Y0143682D01*
X0154509Y0143644D02*
X0154408Y0143644D01*
X0154392Y0143644D02*
X0152693Y0143644D01*
X0152672Y0143606D02*
X0154439Y0143606D01*
X0154455Y0143606D02*
X0154477Y0143606D01*
X0154448Y0143568D02*
X0152653Y0143568D01*
X0152634Y0143530D02*
X0154422Y0143530D01*
X0154395Y0143492D02*
X0152615Y0143492D01*
X0152597Y0143455D02*
X0154369Y0143455D01*
X0154342Y0143417D02*
X0152578Y0143417D01*
X0152562Y0143379D02*
X0154320Y0143379D01*
X0154299Y0143341D02*
X0152546Y0143341D01*
X0152530Y0143303D02*
X0154277Y0143303D01*
X0154256Y0143265D02*
X0152514Y0143265D01*
X0152498Y0143227D02*
X0154235Y0143227D01*
X0154216Y0143189D02*
X0152483Y0143189D01*
X0152469Y0143152D02*
X0154200Y0143152D01*
X0154183Y0143114D02*
X0152456Y0143114D01*
X0152443Y0143076D02*
X0154166Y0143076D01*
X0154149Y0143038D02*
X0152429Y0143038D01*
X0152416Y0143000D02*
X0154134Y0143000D01*
X0154121Y0142962D02*
X0152405Y0142962D01*
X0152394Y0142924D02*
X0154108Y0142924D01*
X0154096Y0142886D02*
X0152383Y0142886D01*
X0152372Y0142848D02*
X0154083Y0142848D01*
X0154070Y0142811D02*
X0152361Y0142811D01*
X0152351Y0142773D02*
X0154061Y0142773D01*
X0154052Y0142735D02*
X0152342Y0142735D01*
X0152334Y0142697D02*
X0154043Y0142697D01*
X0154035Y0142659D02*
X0152325Y0142659D01*
X0152317Y0142621D02*
X0154026Y0142621D01*
X0154017Y0142583D02*
X0152308Y0142583D01*
X0152301Y0142545D02*
X0154012Y0142545D01*
X0154007Y0142508D02*
X0152295Y0142508D01*
X0152289Y0142470D02*
X0154002Y0142470D01*
X0153997Y0142432D02*
X0152283Y0142432D01*
X0152276Y0142394D02*
X0153992Y0142394D01*
X0153988Y0142356D02*
X0152270Y0142356D01*
X0152266Y0142318D02*
X0153987Y0142318D01*
X0153986Y0142280D02*
X0152262Y0142280D01*
X0152258Y0142242D02*
X0153984Y0142242D01*
X0153983Y0142204D02*
X0152254Y0142204D01*
X0152250Y0142167D02*
X0153981Y0142167D01*
X0153982Y0142129D02*
X0152246Y0142129D01*
X0152245Y0142091D02*
X0153984Y0142091D01*
X0153986Y0142053D02*
X0152243Y0142053D01*
X0152241Y0142015D02*
X0153988Y0142015D01*
X0153991Y0141977D02*
X0152240Y0141977D01*
X0152238Y0141939D02*
X0153993Y0141939D01*
X0153997Y0141901D02*
X0152237Y0141901D01*
X0152236Y0141864D02*
X0154003Y0141864D01*
X0154009Y0141826D02*
X0152237Y0141826D01*
X0152238Y0141788D02*
X0154015Y0141788D01*
X0154021Y0141750D02*
X0152238Y0141750D01*
X0152239Y0141712D02*
X0154027Y0141712D01*
X0154036Y0141674D02*
X0152240Y0141674D01*
X0152240Y0141636D02*
X0154045Y0141636D01*
X0154055Y0141598D02*
X0152243Y0141598D01*
X0152246Y0141561D02*
X0154065Y0141561D01*
X0154075Y0141523D02*
X0152249Y0141523D01*
X0152252Y0141485D02*
X0154085Y0141485D01*
X0154098Y0141447D02*
X0152255Y0141447D01*
X0152258Y0141409D02*
X0154112Y0141409D01*
X0154126Y0141371D02*
X0152263Y0141371D01*
X0152268Y0141333D02*
X0154140Y0141333D01*
X0154153Y0141295D02*
X0152274Y0141295D01*
X0152279Y0141257D02*
X0154169Y0141257D01*
X0154187Y0141220D02*
X0152284Y0141220D01*
X0152290Y0141182D02*
X0154205Y0141182D01*
X0154223Y0141144D02*
X0152298Y0141144D01*
X0152305Y0141106D02*
X0154241Y0141106D01*
X0154260Y0141068D02*
X0152313Y0141068D01*
X0152320Y0141030D02*
X0154283Y0141030D01*
X0154306Y0140992D02*
X0152328Y0140992D01*
X0152336Y0140954D02*
X0154328Y0140954D01*
X0154351Y0140917D02*
X0152346Y0140917D01*
X0152356Y0140879D02*
X0154374Y0140879D01*
X0154402Y0140841D02*
X0152366Y0140841D01*
X0152376Y0140803D02*
X0154430Y0140803D01*
X0154458Y0140765D02*
X0152386Y0140765D01*
X0152398Y0140727D02*
X0154486Y0140727D01*
X0154517Y0140689D02*
X0152411Y0140689D01*
X0152423Y0140651D02*
X0154551Y0140651D01*
X0154585Y0140613D02*
X0152435Y0140613D01*
X0152448Y0140576D02*
X0154619Y0140576D01*
X0154653Y0140538D02*
X0152461Y0140538D01*
X0152476Y0140500D02*
X0154696Y0140500D01*
X0154739Y0140462D02*
X0152491Y0140462D01*
X0152506Y0140424D02*
X0154781Y0140424D01*
X0154826Y0140386D02*
X0152521Y0140386D01*
X0152536Y0140348D02*
X0154878Y0140348D01*
X0154930Y0140310D02*
X0152553Y0140310D01*
X0152570Y0140273D02*
X0154982Y0140273D01*
X0155041Y0140235D02*
X0152588Y0140235D01*
X0152606Y0140197D02*
X0155103Y0140197D01*
X0155165Y0140159D02*
X0152623Y0140159D01*
X0152642Y0140121D02*
X0155235Y0140121D01*
X0155310Y0140083D02*
X0152663Y0140083D01*
X0152683Y0140045D02*
X0155386Y0140045D01*
X0155478Y0140007D02*
X0152704Y0140007D01*
X0152724Y0139969D02*
X0155571Y0139969D01*
X0155686Y0139932D02*
X0152746Y0139932D01*
X0152769Y0139894D02*
X0155807Y0139894D01*
X0155973Y0139856D02*
X0152793Y0139856D01*
X0152816Y0139818D02*
X0156206Y0139818D01*
X0155991Y0137886D02*
X0157044Y0137886D01*
X0157118Y0137894D02*
X0157337Y0137929D01*
X0157555Y0137974D01*
X0157770Y0138030D01*
X0157982Y0138097D01*
X0158191Y0138174D01*
X0158395Y0138261D01*
X0158403Y0138265D02*
X0154642Y0138265D01*
X0154561Y0138303D02*
X0158481Y0138303D01*
X0158558Y0138341D02*
X0154484Y0138341D01*
X0154412Y0138378D02*
X0158632Y0138378D01*
X0158700Y0138416D02*
X0154340Y0138416D01*
X0154274Y0138454D02*
X0158769Y0138454D01*
X0158833Y0138492D02*
X0154210Y0138492D01*
X0154146Y0138530D02*
X0158895Y0138530D01*
X0158956Y0138568D02*
X0154087Y0138568D01*
X0154030Y0138606D02*
X0159014Y0138606D01*
X0158226Y0138189D02*
X0154818Y0138189D01*
X0154911Y0138151D02*
X0158129Y0138151D01*
X0158027Y0138113D02*
X0155017Y0138113D01*
X0154930Y0138143D02*
X0155140Y0138070D01*
X0155354Y0138008D01*
X0155570Y0137956D01*
X0155788Y0137914D01*
X0156009Y0137884D01*
X0156230Y0137864D01*
X0156452Y0137855D01*
X0156675Y0137857D01*
X0156896Y0137870D01*
X0157118Y0137894D01*
X0157307Y0137924D02*
X0155737Y0137924D01*
X0155544Y0137962D02*
X0157496Y0137962D01*
X0157653Y0138000D02*
X0155387Y0138000D01*
X0155252Y0138038D02*
X0157793Y0138038D01*
X0157914Y0138075D02*
X0155126Y0138075D01*
X0154930Y0138143D02*
X0154724Y0138227D01*
X0152855Y0130272D02*
X0160207Y0130272D01*
X0160181Y0130234D02*
X0152881Y0130234D01*
X0152908Y0130196D02*
X0160155Y0130196D01*
X0160128Y0130158D02*
X0152935Y0130158D01*
X0152962Y0130120D02*
X0160101Y0130120D01*
X0160071Y0130082D02*
X0152989Y0130082D01*
X0153020Y0130045D02*
X0160041Y0130045D01*
X0160012Y0130007D02*
X0153050Y0130007D01*
X0153081Y0129969D02*
X0159982Y0129969D01*
X0159949Y0129931D02*
X0153111Y0129931D01*
X0153144Y0129893D02*
X0159916Y0129893D01*
X0159883Y0129855D02*
X0153178Y0129855D01*
X0153213Y0129817D02*
X0159849Y0129817D01*
X0159814Y0129779D02*
X0153247Y0129779D01*
X0153282Y0129742D02*
X0159775Y0129742D01*
X0159736Y0129704D02*
X0153323Y0129704D01*
X0153363Y0129666D02*
X0159697Y0129666D01*
X0159659Y0129628D02*
X0153403Y0129628D01*
X0153444Y0129590D02*
X0159620Y0129590D01*
X0159581Y0129552D02*
X0153484Y0129552D01*
X0153524Y0129514D02*
X0159542Y0129514D01*
X0159503Y0129476D02*
X0153565Y0129476D01*
X0153606Y0129438D02*
X0159459Y0129438D01*
X0159416Y0129401D02*
X0153651Y0129401D01*
X0153697Y0129363D02*
X0159372Y0129363D01*
X0159327Y0129325D02*
X0153743Y0129325D01*
X0153790Y0129287D02*
X0159278Y0129287D01*
X0159230Y0129249D02*
X0153841Y0129249D01*
X0153892Y0129211D02*
X0159181Y0129211D01*
X0159129Y0129173D02*
X0153943Y0129173D01*
X0153999Y0129135D02*
X0159074Y0129135D01*
X0159020Y0129098D02*
X0154055Y0129098D01*
X0154112Y0129060D02*
X0158963Y0129060D01*
X0158903Y0129022D02*
X0154173Y0129022D01*
X0154237Y0128984D02*
X0158842Y0128984D01*
X0158779Y0128946D02*
X0154300Y0128946D01*
X0154369Y0128908D02*
X0158710Y0128908D01*
X0158641Y0128870D02*
X0154441Y0128870D01*
X0154513Y0128832D02*
X0158568Y0128832D01*
X0158490Y0128794D02*
X0154593Y0128794D01*
X0154675Y0128757D02*
X0158412Y0128757D01*
X0158323Y0128719D02*
X0154762Y0128719D01*
X0154857Y0128681D02*
X0158233Y0128681D01*
X0158133Y0128643D02*
X0154954Y0128643D01*
X0155065Y0128605D02*
X0158028Y0128605D01*
X0157909Y0128567D02*
X0155183Y0128567D01*
X0155316Y0128529D02*
X0157783Y0128529D01*
X0157629Y0128491D02*
X0155472Y0128491D01*
X0155656Y0128454D02*
X0157447Y0128454D01*
X0157207Y0128416D02*
X0155907Y0128416D01*
X0154241Y0127350D02*
X0153796Y0127355D01*
X0153573Y0127349D01*
X0153351Y0127333D01*
X0153130Y0127307D01*
X0152910Y0127271D01*
X0152692Y0127226D01*
X0152477Y0127170D01*
X0152264Y0127105D01*
X0152054Y0127030D01*
X0151848Y0126946D01*
X0151646Y0126853D01*
X0151448Y0126751D01*
X0151255Y0126639D01*
X0151067Y0126520D01*
X0150885Y0126392D01*
X0150709Y0126256D01*
X0150540Y0126111D01*
X0150383Y0125953D01*
X0150235Y0125787D01*
X0150096Y0125613D01*
X0149966Y0125432D01*
X0149847Y0125244D01*
X0149737Y0125050D01*
X0149638Y0124851D01*
X0149550Y0124646D01*
X0149473Y0124437D01*
X0149408Y0124225D01*
X0149353Y0124009D01*
X0149311Y0123790D01*
X0149280Y0123570D01*
X0149261Y0123348D01*
X0149254Y0123125D01*
X0149259Y0122680D01*
X0149272Y0122458D01*
X0149295Y0122237D01*
X0149330Y0122017D01*
X0149376Y0121799D01*
X0149433Y0121584D01*
X0149500Y0121371D01*
X0149578Y0121163D01*
X0149666Y0120959D01*
X0149765Y0120759D01*
X0149873Y0120564D01*
X0149991Y0120375D01*
X0150120Y0120194D01*
X0150260Y0120021D01*
X0150410Y0119857D01*
X0150571Y0119702D01*
X0150740Y0119558D01*
X0150919Y0119425D01*
X0151105Y0119303D01*
X0151298Y0119192D01*
X0151498Y0119094D01*
X0151703Y0119009D01*
X0151914Y0118936D01*
X0151911Y0121161D01*
X0151724Y0121280D01*
X0151555Y0121426D01*
X0151410Y0121595D01*
X0151291Y0121783D01*
X0151195Y0121983D01*
X0151115Y0122191D01*
X0151054Y0122405D01*
X0151010Y0122623D01*
X0150986Y0122844D01*
X0150980Y0123004D01*
X0150984Y0123227D01*
X0151009Y0123448D01*
X0151053Y0123666D01*
X0151117Y0123879D01*
X0151200Y0124086D01*
X0151302Y0124284D01*
X0151421Y0124472D01*
X0151556Y0124648D01*
X0151708Y0124812D01*
X0151875Y0124958D01*
X0152054Y0125090D01*
X0152244Y0125207D01*
X0152442Y0125308D01*
X0152648Y0125393D01*
X0152860Y0125461D01*
X0153076Y0125513D01*
X0153296Y0125546D01*
X0153435Y0125528D01*
X0153277Y0125371D01*
X0153128Y0125205D01*
X0152990Y0125031D01*
X0152862Y0124849D01*
X0152744Y0124660D01*
X0152639Y0124464D01*
X0152545Y0124262D01*
X0152463Y0124055D01*
X0152393Y0123844D01*
X0152336Y0123628D01*
X0152292Y0123410D01*
X0152260Y0123190D01*
X0152242Y0122968D01*
X0152236Y0122745D01*
X0152240Y0122523D01*
X0152257Y0122301D01*
X0152288Y0122080D01*
X0152332Y0121862D01*
X0152389Y0121647D01*
X0152459Y0121436D01*
X0152541Y0121229D01*
X0152636Y0121027D01*
X0152743Y0120832D01*
X0152861Y0120644D01*
X0152991Y0120463D01*
X0153131Y0120290D01*
X0153282Y0120126D01*
X0153442Y0119971D01*
X0153610Y0119825D01*
X0153784Y0119686D01*
X0153965Y0119557D01*
X0154152Y0119436D01*
X0154345Y0119324D01*
X0158695Y0119324D01*
X0158763Y0119362D02*
X0154280Y0119362D01*
X0154345Y0119324D02*
X0154543Y0119223D01*
X0154746Y0119131D01*
X0154953Y0119049D01*
X0155163Y0118977D01*
X0155377Y0118916D01*
X0155594Y0118866D01*
X0155813Y0118826D01*
X0156034Y0118796D01*
X0156256Y0118778D01*
X0156478Y0118771D01*
X0156701Y0118774D01*
X0156923Y0118788D01*
X0157144Y0118813D01*
X0157364Y0118849D01*
X0157582Y0118895D01*
X0157797Y0118952D01*
X0158009Y0119020D01*
X0158218Y0119098D01*
X0158422Y0119186D01*
X0158622Y0119284D01*
X0158817Y0119392D01*
X0159006Y0119509D01*
X0159189Y0119635D01*
X0159366Y0119771D01*
X0159537Y0119914D01*
X0159701Y0120064D01*
X0159857Y0120223D01*
X0160003Y0120391D01*
X0160138Y0120568D01*
X0160263Y0120752D01*
X0160376Y0120944D01*
X0160477Y0121143D01*
X0160566Y0121347D01*
X0160642Y0121556D01*
X0160706Y0121769D01*
X0160757Y0121986D01*
X0160794Y0122205D01*
X0160818Y0122427D01*
X0160828Y0122649D01*
X0160828Y0122872D01*
X0160817Y0123094D01*
X0160793Y0123315D01*
X0160755Y0123535D01*
X0160703Y0123751D01*
X0160638Y0123964D01*
X0160560Y0124173D01*
X0158781Y0124173D01*
X0158758Y0124211D02*
X0160543Y0124211D01*
X0160526Y0124249D02*
X0158735Y0124249D01*
X0158711Y0124287D02*
X0160509Y0124287D01*
X0160492Y0124324D02*
X0158687Y0124324D01*
X0158692Y0124318D02*
X0158809Y0124129D01*
X0158905Y0123928D01*
X0158980Y0123719D01*
X0159034Y0123502D01*
X0159064Y0123282D01*
X0159072Y0123060D01*
X0159072Y0122997D01*
X0159057Y0122775D01*
X0159021Y0122555D01*
X0158962Y0122340D01*
X0158882Y0122133D01*
X0158782Y0121934D01*
X0158663Y0121746D01*
X0158525Y0121571D01*
X0158371Y0121411D01*
X0158199Y0121269D01*
X0158016Y0121143D01*
X0157823Y0121032D01*
X0157622Y0120936D01*
X0157414Y0120857D01*
X0157200Y0120795D01*
X0156982Y0120750D01*
X0156761Y0120723D01*
X0156539Y0120713D01*
X0156316Y0120721D01*
X0156095Y0120746D01*
X0155877Y0120789D01*
X0155663Y0120850D01*
X0155454Y0120927D01*
X0155252Y0121021D01*
X0155058Y0121131D01*
X0154874Y0121255D01*
X0154700Y0121395D01*
X0154542Y0121551D01*
X0154401Y0121723D01*
X0154277Y0121908D01*
X0154173Y0122105D01*
X0154088Y0122311D01*
X0154025Y0122524D01*
X0153984Y0122743D01*
X0153964Y0122964D01*
X0153967Y0123187D01*
X0153992Y0123408D01*
X0154039Y0123626D01*
X0154107Y0123837D01*
X0154197Y0124041D01*
X0154306Y0124235D01*
X0154434Y0124417D01*
X0154579Y0124585D01*
X0154741Y0124738D01*
X0154916Y0124876D01*
X0155102Y0124998D01*
X0155297Y0125106D01*
X0155500Y0125197D01*
X0155710Y0125271D01*
X0155925Y0125329D01*
X0156144Y0125368D01*
X0156366Y0125390D01*
X0156588Y0125394D01*
X0156810Y0125380D01*
X0157031Y0125348D01*
X0157248Y0125299D01*
X0157460Y0125232D01*
X0157666Y0125149D01*
X0157865Y0125048D01*
X0158055Y0124933D01*
X0158235Y0124802D01*
X0158404Y0124656D01*
X0158553Y0124498D01*
X0159685Y0125445D01*
X0159832Y0125472D01*
X0160500Y0125472D01*
X0160551Y0125644D01*
X0160551Y0127203D01*
X0160475Y0127350D01*
X0154241Y0127350D01*
X0153827Y0127355D02*
X0153782Y0127355D01*
X0153214Y0127317D02*
X0160492Y0127317D01*
X0160512Y0127279D02*
X0152958Y0127279D01*
X0152767Y0127241D02*
X0160531Y0127241D01*
X0160550Y0127203D02*
X0152606Y0127203D01*
X0152462Y0127166D02*
X0160551Y0127166D01*
X0160551Y0127128D02*
X0152339Y0127128D01*
X0152222Y0127090D02*
X0160551Y0127090D01*
X0160551Y0127052D02*
X0152116Y0127052D01*
X0152015Y0127014D02*
X0160551Y0127014D01*
X0160551Y0126976D02*
X0151922Y0126976D01*
X0151831Y0126938D02*
X0160551Y0126938D01*
X0160551Y0126900D02*
X0151749Y0126900D01*
X0151667Y0126863D02*
X0160551Y0126863D01*
X0160551Y0126825D02*
X0151591Y0126825D01*
X0151518Y0126787D02*
X0160551Y0126787D01*
X0160551Y0126749D02*
X0151445Y0126749D01*
X0151379Y0126711D02*
X0160551Y0126711D01*
X0160551Y0126673D02*
X0151314Y0126673D01*
X0151249Y0126635D02*
X0160551Y0126635D01*
X0160551Y0126597D02*
X0151189Y0126597D01*
X0151130Y0126559D02*
X0160551Y0126559D01*
X0160551Y0126522D02*
X0151070Y0126522D01*
X0151016Y0126484D02*
X0160551Y0126484D01*
X0160551Y0126446D02*
X0150962Y0126446D01*
X0150908Y0126408D02*
X0160551Y0126408D01*
X0160551Y0126370D02*
X0150857Y0126370D01*
X0150808Y0126332D02*
X0160551Y0126332D01*
X0160551Y0126294D02*
X0150759Y0126294D01*
X0150710Y0126256D02*
X0160551Y0126256D01*
X0160551Y0126219D02*
X0150665Y0126219D01*
X0150621Y0126181D02*
X0160551Y0126181D01*
X0160551Y0126143D02*
X0150577Y0126143D01*
X0150534Y0126105D02*
X0160551Y0126105D01*
X0160551Y0126067D02*
X0150496Y0126067D01*
X0150459Y0126029D02*
X0160551Y0126029D01*
X0160551Y0125991D02*
X0150421Y0125991D01*
X0150384Y0125953D02*
X0160551Y0125953D01*
X0160551Y0125915D02*
X0150350Y0125915D01*
X0150316Y0125878D02*
X0160551Y0125878D01*
X0160551Y0125840D02*
X0150282Y0125840D01*
X0150248Y0125802D02*
X0160551Y0125802D01*
X0160551Y0125764D02*
X0150217Y0125764D01*
X0150186Y0125726D02*
X0160551Y0125726D01*
X0160551Y0125688D02*
X0150156Y0125688D01*
X0150126Y0125650D02*
X0160551Y0125650D01*
X0160541Y0125612D02*
X0150096Y0125612D01*
X0150069Y0125575D02*
X0160530Y0125575D01*
X0160519Y0125537D02*
X0153369Y0125537D01*
X0153405Y0125499D02*
X0160508Y0125499D01*
X0159988Y0125120D02*
X0159304Y0125120D01*
X0159296Y0125120D02*
X0157723Y0125120D01*
X0157798Y0125082D02*
X0159251Y0125082D01*
X0159259Y0125082D02*
X0160018Y0125082D01*
X0160048Y0125044D02*
X0159214Y0125044D01*
X0159206Y0125044D02*
X0157872Y0125044D01*
X0157934Y0125006D02*
X0159160Y0125006D01*
X0159170Y0125006D02*
X0160077Y0125006D01*
X0160107Y0124968D02*
X0159125Y0124968D01*
X0159115Y0124968D02*
X0157996Y0124968D01*
X0158058Y0124931D02*
X0159070Y0124931D01*
X0159080Y0124931D02*
X0160136Y0124931D01*
X0160124Y0124947D02*
X0159987Y0125122D01*
X0159838Y0125288D01*
X0159684Y0125441D01*
X0158560Y0124491D01*
X0158692Y0124318D01*
X0158658Y0124362D02*
X0160475Y0124362D01*
X0160469Y0124376D02*
X0160366Y0124573D01*
X0160251Y0124764D01*
X0160124Y0124947D01*
X0160162Y0124893D02*
X0159035Y0124893D01*
X0159025Y0124893D02*
X0158110Y0124893D01*
X0158162Y0124855D02*
X0158979Y0124855D01*
X0158990Y0124855D02*
X0160188Y0124855D01*
X0160214Y0124817D02*
X0158945Y0124817D01*
X0158934Y0124817D02*
X0158214Y0124817D01*
X0158261Y0124779D02*
X0158889Y0124779D01*
X0158901Y0124779D02*
X0160240Y0124779D01*
X0160265Y0124741D02*
X0158856Y0124741D01*
X0158844Y0124741D02*
X0158305Y0124741D01*
X0158349Y0124703D02*
X0158798Y0124703D01*
X0158811Y0124703D02*
X0160287Y0124703D01*
X0160310Y0124665D02*
X0158766Y0124665D01*
X0158753Y0124665D02*
X0158393Y0124665D01*
X0158431Y0124628D02*
X0158708Y0124628D01*
X0158721Y0124628D02*
X0160333Y0124628D01*
X0160356Y0124590D02*
X0158677Y0124590D01*
X0158662Y0124590D02*
X0158467Y0124590D01*
X0158503Y0124552D02*
X0158617Y0124552D01*
X0158632Y0124552D02*
X0160377Y0124552D01*
X0160397Y0124514D02*
X0158587Y0124514D01*
X0158572Y0124514D02*
X0158538Y0124514D01*
X0158571Y0124476D02*
X0160417Y0124476D01*
X0160437Y0124438D02*
X0158600Y0124438D01*
X0158629Y0124400D02*
X0160456Y0124400D01*
X0160469Y0124376D02*
X0160560Y0124173D01*
X0160574Y0124135D02*
X0158805Y0124135D01*
X0158824Y0124097D02*
X0160588Y0124097D01*
X0160602Y0124059D02*
X0158842Y0124059D01*
X0158860Y0124021D02*
X0160617Y0124021D01*
X0160631Y0123984D02*
X0158878Y0123984D01*
X0158897Y0123946D02*
X0160644Y0123946D01*
X0160655Y0123908D02*
X0158912Y0123908D01*
X0158926Y0123870D02*
X0160667Y0123870D01*
X0160678Y0123832D02*
X0158940Y0123832D01*
X0158953Y0123794D02*
X0160690Y0123794D01*
X0160701Y0123756D02*
X0158967Y0123756D01*
X0158980Y0123718D02*
X0160711Y0123718D01*
X0160720Y0123680D02*
X0158990Y0123680D01*
X0158999Y0123643D02*
X0160729Y0123643D01*
X0160738Y0123605D02*
X0159008Y0123605D01*
X0159018Y0123567D02*
X0160747Y0123567D01*
X0160756Y0123529D02*
X0159027Y0123529D01*
X0159035Y0123491D02*
X0160762Y0123491D01*
X0160769Y0123453D02*
X0159041Y0123453D01*
X0159046Y0123415D02*
X0160775Y0123415D01*
X0160782Y0123377D02*
X0159051Y0123377D01*
X0159056Y0123340D02*
X0160789Y0123340D01*
X0160794Y0123302D02*
X0159062Y0123302D01*
X0159065Y0123264D02*
X0160799Y0123264D01*
X0160803Y0123226D02*
X0159066Y0123226D01*
X0159068Y0123188D02*
X0160807Y0123188D01*
X0160811Y0123150D02*
X0159069Y0123150D01*
X0159070Y0123112D02*
X0160815Y0123112D01*
X0160818Y0123074D02*
X0159072Y0123074D01*
X0159072Y0123037D02*
X0160820Y0123037D01*
X0160822Y0122999D02*
X0159072Y0122999D01*
X0159070Y0122961D02*
X0160824Y0122961D01*
X0160826Y0122923D02*
X0159067Y0122923D01*
X0159065Y0122885D02*
X0160828Y0122885D01*
X0160828Y0122847D02*
X0159062Y0122847D01*
X0159060Y0122809D02*
X0160828Y0122809D01*
X0160828Y0122771D02*
X0159057Y0122771D01*
X0159051Y0122733D02*
X0160828Y0122733D01*
X0160828Y0122696D02*
X0159044Y0122696D01*
X0159038Y0122658D02*
X0160828Y0122658D01*
X0160827Y0122620D02*
X0159032Y0122620D01*
X0159025Y0122582D02*
X0160825Y0122582D01*
X0160823Y0122544D02*
X0159018Y0122544D01*
X0159007Y0122506D02*
X0160821Y0122506D01*
X0160820Y0122468D02*
X0158997Y0122468D01*
X0158987Y0122430D02*
X0160818Y0122430D01*
X0160814Y0122393D02*
X0158976Y0122393D01*
X0158966Y0122355D02*
X0160810Y0122355D01*
X0160806Y0122317D02*
X0158953Y0122317D01*
X0158939Y0122279D02*
X0160802Y0122279D01*
X0160798Y0122241D02*
X0158924Y0122241D01*
X0158910Y0122203D02*
X0160793Y0122203D01*
X0160787Y0122165D02*
X0158895Y0122165D01*
X0158880Y0122127D02*
X0160781Y0122127D01*
X0160774Y0122089D02*
X0158861Y0122089D01*
X0158842Y0122052D02*
X0160768Y0122052D01*
X0160761Y0122014D02*
X0158823Y0122014D01*
X0158804Y0121976D02*
X0160754Y0121976D01*
X0160745Y0121938D02*
X0158784Y0121938D01*
X0158761Y0121900D02*
X0160737Y0121900D01*
X0160728Y0121862D02*
X0158737Y0121862D01*
X0158713Y0121824D02*
X0160719Y0121824D01*
X0160710Y0121786D02*
X0158689Y0121786D01*
X0158664Y0121749D02*
X0160700Y0121749D01*
X0160689Y0121711D02*
X0158635Y0121711D01*
X0158605Y0121673D02*
X0160677Y0121673D01*
X0160666Y0121635D02*
X0158575Y0121635D01*
X0158546Y0121597D02*
X0160655Y0121597D01*
X0160643Y0121559D02*
X0158514Y0121559D01*
X0158477Y0121521D02*
X0160630Y0121521D01*
X0160616Y0121483D02*
X0158441Y0121483D01*
X0158404Y0121445D02*
X0160602Y0121445D01*
X0160588Y0121408D02*
X0158367Y0121408D01*
X0158321Y0121370D02*
X0160574Y0121370D01*
X0160560Y0121332D02*
X0158275Y0121332D01*
X0158229Y0121294D02*
X0160543Y0121294D01*
X0160527Y0121256D02*
X0158180Y0121256D01*
X0158125Y0121218D02*
X0160510Y0121218D01*
X0160493Y0121180D02*
X0158070Y0121180D01*
X0158014Y0121142D02*
X0160477Y0121142D01*
X0160458Y0121105D02*
X0157949Y0121105D01*
X0157883Y0121067D02*
X0160438Y0121067D01*
X0160419Y0121029D02*
X0157816Y0121029D01*
X0157737Y0120991D02*
X0160400Y0120991D01*
X0160380Y0120953D02*
X0157657Y0120953D01*
X0157566Y0120915D02*
X0160359Y0120915D01*
X0160336Y0120877D02*
X0157466Y0120877D01*
X0157352Y0120839D02*
X0160314Y0120839D01*
X0160292Y0120802D02*
X0157222Y0120802D01*
X0157047Y0120764D02*
X0160269Y0120764D01*
X0160245Y0120726D02*
X0156785Y0120726D01*
X0156274Y0120726D02*
X0152810Y0120726D01*
X0152786Y0120764D02*
X0156008Y0120764D01*
X0155834Y0120802D02*
X0152762Y0120802D01*
X0152739Y0120839D02*
X0155700Y0120839D01*
X0155589Y0120877D02*
X0152718Y0120877D01*
X0152697Y0120915D02*
X0155486Y0120915D01*
X0155398Y0120953D02*
X0152677Y0120953D01*
X0152656Y0120991D02*
X0155317Y0120991D01*
X0155238Y0121029D02*
X0152635Y0121029D01*
X0152617Y0121067D02*
X0155171Y0121067D01*
X0155104Y0121105D02*
X0152600Y0121105D01*
X0152582Y0121142D02*
X0155041Y0121142D01*
X0154985Y0121180D02*
X0152564Y0121180D01*
X0152546Y0121218D02*
X0154929Y0121218D01*
X0154873Y0121256D02*
X0152530Y0121256D01*
X0152515Y0121294D02*
X0154826Y0121294D01*
X0154778Y0121332D02*
X0152500Y0121332D01*
X0152485Y0121370D02*
X0154731Y0121370D01*
X0154687Y0121408D02*
X0152470Y0121408D01*
X0152455Y0121445D02*
X0154649Y0121445D01*
X0154611Y0121483D02*
X0152443Y0121483D01*
X0152430Y0121521D02*
X0154572Y0121521D01*
X0154536Y0121559D02*
X0152418Y0121559D01*
X0152405Y0121597D02*
X0154505Y0121597D01*
X0154473Y0121635D02*
X0152393Y0121635D01*
X0152382Y0121673D02*
X0154442Y0121673D01*
X0154411Y0121711D02*
X0152372Y0121711D01*
X0152362Y0121749D02*
X0154384Y0121749D01*
X0154358Y0121786D02*
X0152352Y0121786D01*
X0152342Y0121824D02*
X0154333Y0121824D01*
X0154308Y0121862D02*
X0152332Y0121862D01*
X0152324Y0121900D02*
X0154283Y0121900D01*
X0154261Y0121938D02*
X0152316Y0121938D01*
X0152309Y0121976D02*
X0154241Y0121976D01*
X0154221Y0122014D02*
X0152301Y0122014D01*
X0152294Y0122052D02*
X0154201Y0122052D01*
X0154181Y0122089D02*
X0152287Y0122089D01*
X0152281Y0122127D02*
X0154163Y0122127D01*
X0154148Y0122165D02*
X0152276Y0122165D01*
X0152271Y0122203D02*
X0154132Y0122203D01*
X0154117Y0122241D02*
X0152266Y0122241D01*
X0152260Y0122279D02*
X0154101Y0122279D01*
X0154087Y0122317D02*
X0152256Y0122317D01*
X0152253Y0122355D02*
X0154075Y0122355D01*
X0154064Y0122393D02*
X0152250Y0122393D01*
X0152247Y0122430D02*
X0154053Y0122430D01*
X0154042Y0122468D02*
X0152244Y0122468D01*
X0152242Y0122506D02*
X0154030Y0122506D01*
X0154021Y0122544D02*
X0152240Y0122544D01*
X0152239Y0122582D02*
X0154014Y0122582D01*
X0154007Y0122620D02*
X0152239Y0122620D01*
X0152238Y0122658D02*
X0154000Y0122658D01*
X0153993Y0122696D02*
X0152237Y0122696D01*
X0152237Y0122733D02*
X0153985Y0122733D01*
X0153981Y0122771D02*
X0152237Y0122771D01*
X0152238Y0122809D02*
X0153978Y0122809D01*
X0153974Y0122847D02*
X0152239Y0122847D01*
X0152240Y0122885D02*
X0153971Y0122885D01*
X0153968Y0122923D02*
X0152241Y0122923D01*
X0152242Y0122961D02*
X0153964Y0122961D01*
X0153964Y0122999D02*
X0152244Y0122999D01*
X0152247Y0123037D02*
X0153965Y0123037D01*
X0153965Y0123074D02*
X0152251Y0123074D01*
X0152254Y0123112D02*
X0153966Y0123112D01*
X0153966Y0123150D02*
X0152257Y0123150D01*
X0152260Y0123188D02*
X0153967Y0123188D01*
X0153971Y0123226D02*
X0152265Y0123226D01*
X0152271Y0123264D02*
X0153975Y0123264D01*
X0153980Y0123302D02*
X0152276Y0123302D01*
X0152281Y0123340D02*
X0153984Y0123340D01*
X0153988Y0123377D02*
X0152287Y0123377D01*
X0152293Y0123415D02*
X0153993Y0123415D01*
X0154001Y0123453D02*
X0152300Y0123453D01*
X0152308Y0123491D02*
X0154010Y0123491D01*
X0154018Y0123529D02*
X0152316Y0123529D01*
X0152323Y0123567D02*
X0154026Y0123567D01*
X0154034Y0123605D02*
X0152331Y0123605D01*
X0152340Y0123643D02*
X0154044Y0123643D01*
X0154056Y0123680D02*
X0152350Y0123680D01*
X0152360Y0123718D02*
X0154069Y0123718D01*
X0154081Y0123756D02*
X0152370Y0123756D01*
X0152380Y0123794D02*
X0154093Y0123794D01*
X0154105Y0123832D02*
X0152390Y0123832D01*
X0152402Y0123870D02*
X0154121Y0123870D01*
X0154138Y0123908D02*
X0152414Y0123908D01*
X0152427Y0123946D02*
X0154155Y0123946D01*
X0154171Y0123984D02*
X0152439Y0123984D01*
X0152452Y0124021D02*
X0154188Y0124021D01*
X0154207Y0124059D02*
X0152464Y0124059D01*
X0152479Y0124097D02*
X0154228Y0124097D01*
X0154249Y0124135D02*
X0152494Y0124135D01*
X0152509Y0124173D02*
X0154271Y0124173D01*
X0154292Y0124211D02*
X0152524Y0124211D01*
X0152539Y0124249D02*
X0154315Y0124249D01*
X0154342Y0124287D02*
X0152556Y0124287D01*
X0152574Y0124324D02*
X0154368Y0124324D01*
X0154395Y0124362D02*
X0152591Y0124362D01*
X0152609Y0124400D02*
X0154422Y0124400D01*
X0154452Y0124438D02*
X0152627Y0124438D01*
X0152645Y0124476D02*
X0154485Y0124476D01*
X0154517Y0124514D02*
X0152666Y0124514D01*
X0152686Y0124552D02*
X0154550Y0124552D01*
X0154584Y0124590D02*
X0152707Y0124590D01*
X0152727Y0124628D02*
X0154624Y0124628D01*
X0154664Y0124665D02*
X0152748Y0124665D01*
X0152771Y0124703D02*
X0154704Y0124703D01*
X0154745Y0124741D02*
X0152795Y0124741D01*
X0152818Y0124779D02*
X0154793Y0124779D01*
X0154842Y0124817D02*
X0152842Y0124817D01*
X0152866Y0124855D02*
X0154890Y0124855D01*
X0154942Y0124893D02*
X0152892Y0124893D01*
X0152919Y0124931D02*
X0155000Y0124931D01*
X0155057Y0124968D02*
X0152946Y0124968D01*
X0152972Y0125006D02*
X0155117Y0125006D01*
X0155186Y0125044D02*
X0153000Y0125044D01*
X0153030Y0125082D02*
X0155254Y0125082D01*
X0155329Y0125120D02*
X0153060Y0125120D01*
X0153090Y0125158D02*
X0155413Y0125158D01*
X0155498Y0125196D02*
X0153121Y0125196D01*
X0153153Y0125234D02*
X0155604Y0125234D01*
X0155711Y0125272D02*
X0153187Y0125272D01*
X0153221Y0125309D02*
X0155853Y0125309D01*
X0156029Y0125347D02*
X0153255Y0125347D01*
X0153291Y0125385D02*
X0156317Y0125385D01*
X0156730Y0125385D02*
X0159613Y0125385D01*
X0159618Y0125385D02*
X0159740Y0125385D01*
X0159778Y0125347D02*
X0159573Y0125347D01*
X0159568Y0125347D02*
X0157036Y0125347D01*
X0157203Y0125309D02*
X0159523Y0125309D01*
X0159528Y0125309D02*
X0159816Y0125309D01*
X0159853Y0125272D02*
X0159483Y0125272D01*
X0159477Y0125272D02*
X0157335Y0125272D01*
X0157456Y0125234D02*
X0159432Y0125234D01*
X0159438Y0125234D02*
X0159887Y0125234D01*
X0159920Y0125196D02*
X0159394Y0125196D01*
X0159387Y0125196D02*
X0157550Y0125196D01*
X0157643Y0125158D02*
X0159342Y0125158D01*
X0159349Y0125158D02*
X0159954Y0125158D01*
X0159773Y0125461D02*
X0153367Y0125461D01*
X0153329Y0125423D02*
X0159658Y0125423D01*
X0159663Y0125423D02*
X0159701Y0125423D01*
X0160219Y0120688D02*
X0152833Y0120688D01*
X0152857Y0120650D02*
X0160194Y0120650D01*
X0160168Y0120612D02*
X0152884Y0120612D01*
X0152911Y0120574D02*
X0160143Y0120574D01*
X0160114Y0120536D02*
X0152938Y0120536D01*
X0152965Y0120498D02*
X0160085Y0120498D01*
X0160056Y0120461D02*
X0152993Y0120461D01*
X0153023Y0120423D02*
X0160027Y0120423D01*
X0159997Y0120385D02*
X0153054Y0120385D01*
X0153085Y0120347D02*
X0159965Y0120347D01*
X0159932Y0120309D02*
X0153116Y0120309D01*
X0153148Y0120271D02*
X0159899Y0120271D01*
X0159866Y0120233D02*
X0153183Y0120233D01*
X0153218Y0120195D02*
X0159830Y0120195D01*
X0159793Y0120158D02*
X0153253Y0120158D01*
X0153288Y0120120D02*
X0159756Y0120120D01*
X0159719Y0120082D02*
X0153328Y0120082D01*
X0153367Y0120044D02*
X0159679Y0120044D01*
X0159637Y0120006D02*
X0153406Y0120006D01*
X0153446Y0119968D02*
X0159596Y0119968D01*
X0159554Y0119930D02*
X0153489Y0119930D01*
X0153533Y0119892D02*
X0159511Y0119892D01*
X0159466Y0119854D02*
X0153576Y0119854D01*
X0153620Y0119817D02*
X0159421Y0119817D01*
X0159376Y0119779D02*
X0153668Y0119779D01*
X0153716Y0119741D02*
X0159327Y0119741D01*
X0159278Y0119703D02*
X0153763Y0119703D01*
X0153814Y0119665D02*
X0159228Y0119665D01*
X0159177Y0119627D02*
X0153867Y0119627D01*
X0153920Y0119589D02*
X0159123Y0119589D01*
X0159068Y0119551D02*
X0153973Y0119551D01*
X0154032Y0119514D02*
X0159013Y0119514D01*
X0158952Y0119476D02*
X0154091Y0119476D01*
X0154149Y0119438D02*
X0158891Y0119438D01*
X0158830Y0119400D02*
X0154214Y0119400D01*
X0154419Y0119286D02*
X0158626Y0119286D01*
X0158549Y0119248D02*
X0154493Y0119248D01*
X0154569Y0119210D02*
X0158472Y0119210D01*
X0158391Y0119173D02*
X0154653Y0119173D01*
X0154737Y0119135D02*
X0158303Y0119135D01*
X0158215Y0119097D02*
X0154831Y0119097D01*
X0154927Y0119059D02*
X0158113Y0119059D01*
X0158012Y0119021D02*
X0155034Y0119021D01*
X0155146Y0118983D02*
X0157894Y0118983D01*
X0157770Y0118945D02*
X0155275Y0118945D01*
X0155415Y0118907D02*
X0157628Y0118907D01*
X0157461Y0118870D02*
X0155577Y0118870D01*
X0155780Y0118832D02*
X0157258Y0118832D01*
X0156974Y0118794D02*
X0156067Y0118794D01*
X0157160Y0116513D02*
X0152503Y0116512D01*
X0152503Y0114737D01*
X0152566Y0114579D01*
X0160551Y0114579D01*
X0160551Y0116353D01*
X0160355Y0116379D01*
X0160133Y0116379D01*
X0159962Y0116395D01*
X0160143Y0116524D01*
X0160305Y0116675D01*
X0160448Y0116844D01*
X0160571Y0117028D01*
X0160672Y0117226D01*
X0160749Y0117433D01*
X0160802Y0117649D01*
X0160829Y0117869D01*
X0160831Y0118090D01*
X0160774Y0118258D01*
X0159000Y0118258D01*
X0158934Y0117835D01*
X0158875Y0117621D01*
X0158793Y0117415D01*
X0158690Y0117219D01*
X0158566Y0117035D01*
X0158405Y0116884D01*
X0158222Y0116758D01*
X0158026Y0116655D01*
X0157818Y0116579D01*
X0157602Y0116529D01*
X0157381Y0116507D01*
X0157160Y0116513D01*
X0157518Y0116521D02*
X0160139Y0116521D01*
X0160180Y0116559D02*
X0157731Y0116559D01*
X0157866Y0116597D02*
X0160221Y0116597D01*
X0160261Y0116635D02*
X0157969Y0116635D01*
X0158058Y0116672D02*
X0160302Y0116672D01*
X0160335Y0116710D02*
X0158131Y0116710D01*
X0158204Y0116748D02*
X0160367Y0116748D01*
X0160399Y0116786D02*
X0158263Y0116786D01*
X0158318Y0116824D02*
X0160431Y0116824D01*
X0160460Y0116862D02*
X0158373Y0116862D01*
X0158421Y0116900D02*
X0160485Y0116900D01*
X0160511Y0116938D02*
X0158462Y0116938D01*
X0158503Y0116975D02*
X0160536Y0116975D01*
X0160561Y0117013D02*
X0158543Y0117013D01*
X0158577Y0117051D02*
X0160583Y0117051D01*
X0160602Y0117089D02*
X0158603Y0117089D01*
X0158628Y0117127D02*
X0160622Y0117127D01*
X0160641Y0117165D02*
X0158654Y0117165D01*
X0158679Y0117203D02*
X0160660Y0117203D01*
X0160678Y0117241D02*
X0158701Y0117241D01*
X0158721Y0117279D02*
X0160692Y0117279D01*
X0160706Y0117316D02*
X0158741Y0117316D01*
X0158761Y0117354D02*
X0160720Y0117354D01*
X0160734Y0117392D02*
X0158781Y0117392D01*
X0158799Y0117430D02*
X0160748Y0117430D01*
X0160758Y0117468D02*
X0158814Y0117468D01*
X0158829Y0117506D02*
X0160767Y0117506D01*
X0160776Y0117544D02*
X0158844Y0117544D01*
X0158859Y0117582D02*
X0160786Y0117582D01*
X0160795Y0117619D02*
X0158874Y0117619D01*
X0158885Y0117657D02*
X0160803Y0117657D01*
X0160808Y0117695D02*
X0158896Y0117695D01*
X0158906Y0117733D02*
X0160813Y0117733D01*
X0160817Y0117771D02*
X0158917Y0117771D01*
X0158927Y0117809D02*
X0160822Y0117809D01*
X0160827Y0117847D02*
X0158936Y0117847D01*
X0158942Y0117885D02*
X0160830Y0117885D01*
X0160830Y0117923D02*
X0158948Y0117923D01*
X0158954Y0117960D02*
X0160830Y0117960D01*
X0160830Y0117998D02*
X0158960Y0117998D01*
X0158966Y0118036D02*
X0160831Y0118036D01*
X0160831Y0118074D02*
X0158972Y0118074D01*
X0158977Y0118112D02*
X0160824Y0118112D01*
X0160811Y0118150D02*
X0158983Y0118150D01*
X0158989Y0118188D02*
X0160798Y0118188D01*
X0160785Y0118226D02*
X0158995Y0118226D01*
X0160086Y0116483D02*
X0152503Y0116483D01*
X0152503Y0116445D02*
X0160033Y0116445D01*
X0159980Y0116407D02*
X0152503Y0116407D01*
X0152503Y0116369D02*
X0160429Y0116369D01*
X0160551Y0116331D02*
X0152503Y0116331D01*
X0152503Y0116294D02*
X0160551Y0116294D01*
X0160551Y0116256D02*
X0152503Y0116256D01*
X0152503Y0116218D02*
X0160551Y0116218D01*
X0160551Y0116180D02*
X0152503Y0116180D01*
X0152503Y0116142D02*
X0160551Y0116142D01*
X0160551Y0116104D02*
X0152503Y0116104D01*
X0152503Y0116066D02*
X0160551Y0116066D01*
X0160551Y0116028D02*
X0152503Y0116028D01*
X0152503Y0115991D02*
X0160551Y0115991D01*
X0160551Y0115953D02*
X0152503Y0115953D01*
X0152503Y0115915D02*
X0160551Y0115915D01*
X0160551Y0115877D02*
X0152503Y0115877D01*
X0152503Y0115839D02*
X0160551Y0115839D01*
X0160551Y0115801D02*
X0152503Y0115801D01*
X0152503Y0115763D02*
X0160551Y0115763D01*
X0160551Y0115725D02*
X0152503Y0115725D01*
X0152503Y0115688D02*
X0160551Y0115688D01*
X0160551Y0115650D02*
X0152503Y0115650D01*
X0152503Y0115612D02*
X0160551Y0115612D01*
X0160551Y0115574D02*
X0152503Y0115574D01*
X0152503Y0115536D02*
X0160551Y0115536D01*
X0160551Y0115498D02*
X0152503Y0115498D01*
X0152503Y0115460D02*
X0160551Y0115460D01*
X0160551Y0115422D02*
X0152503Y0115422D01*
X0152503Y0115384D02*
X0160551Y0115384D01*
X0160551Y0115347D02*
X0152503Y0115347D01*
X0152503Y0115309D02*
X0160551Y0115309D01*
X0160551Y0115271D02*
X0152503Y0115271D01*
X0152503Y0115233D02*
X0160551Y0115233D01*
X0160551Y0115195D02*
X0152503Y0115195D01*
X0152503Y0115157D02*
X0160551Y0115157D01*
X0160551Y0115119D02*
X0152503Y0115119D01*
X0152503Y0115081D02*
X0160551Y0115081D01*
X0160551Y0115044D02*
X0152503Y0115044D01*
X0152503Y0115006D02*
X0160551Y0115006D01*
X0160551Y0114968D02*
X0152503Y0114968D01*
X0152503Y0114930D02*
X0160551Y0114930D01*
X0160551Y0114892D02*
X0152503Y0114892D01*
X0152503Y0114854D02*
X0160551Y0114854D01*
X0160551Y0114816D02*
X0152503Y0114816D01*
X0152503Y0114778D02*
X0160551Y0114778D01*
X0160551Y0114740D02*
X0152503Y0114740D01*
X0152517Y0114703D02*
X0160551Y0114703D01*
X0160551Y0114665D02*
X0152532Y0114665D01*
X0152547Y0114627D02*
X0160551Y0114627D01*
X0160551Y0114589D02*
X0152562Y0114589D01*
X0154021Y0112494D02*
X0153839Y0112366D01*
X0153665Y0112229D01*
X0153498Y0112081D01*
X0153341Y0111925D01*
X0153193Y0111759D01*
X0153055Y0111585D01*
X0152928Y0111403D01*
X0152811Y0111214D01*
X0152705Y0111019D01*
X0152609Y0110818D01*
X0152524Y0110613D01*
X0152449Y0110404D01*
X0152386Y0110191D01*
X0152333Y0109975D01*
X0152292Y0109757D01*
X0152262Y0109537D01*
X0152243Y0109316D01*
X0152236Y0109094D01*
X0152236Y0109021D01*
X0152239Y0108799D01*
X0152253Y0108577D01*
X0152280Y0108357D01*
X0152319Y0108138D01*
X0152370Y0107922D01*
X0152433Y0107709D01*
X0152507Y0107500D01*
X0152593Y0107295D01*
X0152690Y0107095D01*
X0152798Y0106901D01*
X0152917Y0106713D01*
X0153046Y0106532D01*
X0153184Y0106358D01*
X0153332Y0106193D01*
X0153489Y0106035D01*
X0153655Y0105888D01*
X0153828Y0105749D01*
X0154008Y0105619D01*
X0154194Y0105497D01*
X0158848Y0105497D01*
X0158839Y0105492D02*
X0159026Y0105612D01*
X0159206Y0105742D01*
X0159380Y0105881D01*
X0159546Y0106028D01*
X0159703Y0106185D01*
X0159851Y0106351D01*
X0159990Y0106524D01*
X0160119Y0106705D01*
X0160238Y0106892D01*
X0160348Y0107086D01*
X0160446Y0107285D01*
X0160534Y0107489D01*
X0160611Y0107697D01*
X0160676Y0107909D01*
X0160730Y0108125D01*
X0160773Y0108343D01*
X0160803Y0108563D01*
X0160822Y0108784D01*
X0160828Y0109006D01*
X0160823Y0109228D01*
X0160806Y0109450D01*
X0160777Y0109670D01*
X0160736Y0109888D01*
X0160684Y0110104D01*
X0160620Y0110317D01*
X0160545Y0110526D01*
X0160459Y0110731D01*
X0160361Y0110930D01*
X0160253Y0111125D01*
X0160135Y0111313D01*
X0160007Y0111494D01*
X0159870Y0111669D01*
X0159723Y0111835D01*
X0159567Y0111994D01*
X0159407Y0112148D01*
X0159239Y0112293D01*
X0159063Y0112429D01*
X0158881Y0112555D01*
X0158692Y0112672D01*
X0158497Y0112778D01*
X0158296Y0112874D01*
X0158091Y0112959D01*
X0157882Y0113033D01*
X0157668Y0113095D01*
X0157452Y0113147D01*
X0157234Y0113186D01*
X0157013Y0113214D01*
X0156792Y0113230D01*
X0156570Y0113235D01*
X0156348Y0113229D01*
X0156126Y0113214D01*
X0155905Y0113191D01*
X0155685Y0113158D01*
X0155671Y0112948D01*
X0155671Y0106955D01*
X0157216Y0107028D01*
X0157216Y0111244D01*
X0157361Y0111207D01*
X0157571Y0111136D01*
X0157774Y0111046D01*
X0157968Y0110938D01*
X0158151Y0110812D01*
X0158322Y0110671D01*
X0158484Y0110519D01*
X0158630Y0110351D01*
X0158756Y0110168D01*
X0158862Y0109973D01*
X0158946Y0109767D01*
X0159008Y0109554D01*
X0159046Y0109336D01*
X0159061Y0109114D01*
X0159057Y0108892D01*
X0159031Y0108671D01*
X0158982Y0108455D01*
X0158910Y0108245D01*
X0158817Y0108043D01*
X0158703Y0107853D01*
X0158569Y0107676D01*
X0158417Y0107513D01*
X0158250Y0107367D01*
X0158071Y0107236D01*
X0157882Y0107120D01*
X0157684Y0107019D01*
X0157478Y0106934D01*
X0157267Y0106867D01*
X0157218Y0107019D01*
X0155666Y0106949D01*
X0155532Y0106925D01*
X0155328Y0107013D01*
X0152736Y0107013D01*
X0152715Y0107051D02*
X0155258Y0107051D01*
X0155328Y0107013D02*
X0155132Y0107118D01*
X0154947Y0107241D01*
X0154773Y0107379D01*
X0154610Y0107529D01*
X0154462Y0107695D01*
X0154332Y0107875D01*
X0154222Y0108068D01*
X0154132Y0108271D01*
X0154064Y0108482D01*
X0154018Y0108700D01*
X0153995Y0108920D01*
X0153994Y0109143D01*
X0154012Y0109364D01*
X0154052Y0109582D01*
X0154113Y0109796D01*
X0154194Y0110003D01*
X0154294Y0110201D01*
X0154414Y0110387D01*
X0154556Y0110558D01*
X0154718Y0110710D01*
X0154897Y0110841D01*
X0155037Y0110982D01*
X0155037Y0112759D01*
X0155023Y0112963D01*
X0154813Y0112892D01*
X0154607Y0112810D01*
X0154405Y0112716D01*
X0154210Y0112610D01*
X0154021Y0112494D01*
X0154040Y0112505D02*
X0155037Y0112505D01*
X0155037Y0112468D02*
X0153984Y0112468D01*
X0153930Y0112430D02*
X0155037Y0112430D01*
X0155037Y0112392D02*
X0153875Y0112392D01*
X0153823Y0112354D02*
X0155037Y0112354D01*
X0155037Y0112316D02*
X0153775Y0112316D01*
X0153727Y0112278D02*
X0155037Y0112278D01*
X0155037Y0112240D02*
X0153679Y0112240D01*
X0153635Y0112202D02*
X0155037Y0112202D01*
X0155037Y0112165D02*
X0153592Y0112165D01*
X0153550Y0112127D02*
X0155037Y0112127D01*
X0155037Y0112089D02*
X0153507Y0112089D01*
X0153468Y0112051D02*
X0155037Y0112051D01*
X0155037Y0112013D02*
X0153430Y0112013D01*
X0153392Y0111975D02*
X0155037Y0111975D01*
X0155037Y0111937D02*
X0153354Y0111937D01*
X0153318Y0111899D02*
X0155037Y0111899D01*
X0155037Y0111861D02*
X0153285Y0111861D01*
X0153251Y0111824D02*
X0155037Y0111824D01*
X0155037Y0111786D02*
X0153217Y0111786D01*
X0153184Y0111748D02*
X0155037Y0111748D01*
X0155037Y0111710D02*
X0153154Y0111710D01*
X0153124Y0111672D02*
X0155037Y0111672D01*
X0155037Y0111634D02*
X0153094Y0111634D01*
X0153063Y0111596D02*
X0155037Y0111596D01*
X0155037Y0111558D02*
X0153036Y0111558D01*
X0153010Y0111521D02*
X0155037Y0111521D01*
X0155037Y0111483D02*
X0152983Y0111483D01*
X0152957Y0111445D02*
X0155037Y0111445D01*
X0155037Y0111407D02*
X0152930Y0111407D01*
X0152907Y0111369D02*
X0155037Y0111369D01*
X0155037Y0111331D02*
X0152883Y0111331D01*
X0152860Y0111293D02*
X0155037Y0111293D01*
X0155037Y0111255D02*
X0152837Y0111255D01*
X0152814Y0111218D02*
X0155037Y0111218D01*
X0155037Y0111180D02*
X0152793Y0111180D01*
X0152772Y0111142D02*
X0155037Y0111142D01*
X0155037Y0111104D02*
X0152752Y0111104D01*
X0152731Y0111066D02*
X0155037Y0111066D01*
X0155037Y0111028D02*
X0152710Y0111028D01*
X0152692Y0110990D02*
X0155037Y0110990D01*
X0155008Y0110952D02*
X0152673Y0110952D01*
X0152655Y0110914D02*
X0154970Y0110914D01*
X0154933Y0110877D02*
X0152637Y0110877D01*
X0152619Y0110839D02*
X0154894Y0110839D01*
X0154842Y0110801D02*
X0152602Y0110801D01*
X0152586Y0110763D02*
X0154791Y0110763D01*
X0154739Y0110725D02*
X0152570Y0110725D01*
X0152555Y0110687D02*
X0154694Y0110687D01*
X0154653Y0110649D02*
X0152539Y0110649D01*
X0152523Y0110611D02*
X0154613Y0110611D01*
X0154573Y0110574D02*
X0152510Y0110574D01*
X0152496Y0110536D02*
X0154537Y0110536D01*
X0154506Y0110498D02*
X0152483Y0110498D01*
X0152469Y0110460D02*
X0154475Y0110460D01*
X0154443Y0110422D02*
X0152456Y0110422D01*
X0152443Y0110384D02*
X0154412Y0110384D01*
X0154388Y0110346D02*
X0152432Y0110346D01*
X0152421Y0110308D02*
X0154364Y0110308D01*
X0154339Y0110270D02*
X0152409Y0110270D01*
X0152398Y0110233D02*
X0154315Y0110233D01*
X0154291Y0110195D02*
X0152387Y0110195D01*
X0152377Y0110157D02*
X0154272Y0110157D01*
X0154253Y0110119D02*
X0152368Y0110119D01*
X0152359Y0110081D02*
X0154234Y0110081D01*
X0154214Y0110043D02*
X0152349Y0110043D01*
X0152340Y0110005D02*
X0154195Y0110005D01*
X0154180Y0109967D02*
X0152331Y0109967D01*
X0152324Y0109930D02*
X0154165Y0109930D01*
X0154150Y0109892D02*
X0152317Y0109892D01*
X0152310Y0109854D02*
X0154135Y0109854D01*
X0154120Y0109816D02*
X0152303Y0109816D01*
X0152295Y0109778D02*
X0154107Y0109778D01*
X0154097Y0109740D02*
X0152289Y0109740D01*
X0152284Y0109702D02*
X0154086Y0109702D01*
X0154075Y0109664D02*
X0152279Y0109664D01*
X0152274Y0109626D02*
X0154064Y0109626D01*
X0154054Y0109589D02*
X0152269Y0109589D01*
X0152264Y0109551D02*
X0154046Y0109551D01*
X0154039Y0109513D02*
X0152260Y0109513D01*
X0152256Y0109475D02*
X0154032Y0109475D01*
X0154025Y0109437D02*
X0152253Y0109437D01*
X0152250Y0109399D02*
X0154019Y0109399D01*
X0154012Y0109361D02*
X0152247Y0109361D01*
X0152244Y0109323D02*
X0154009Y0109323D01*
X0154006Y0109286D02*
X0152242Y0109286D01*
X0152241Y0109248D02*
X0154002Y0109248D01*
X0153999Y0109210D02*
X0152240Y0109210D01*
X0152239Y0109172D02*
X0153996Y0109172D01*
X0153994Y0109134D02*
X0152237Y0109134D01*
X0152236Y0109096D02*
X0153994Y0109096D01*
X0153994Y0109058D02*
X0152236Y0109058D01*
X0152236Y0109020D02*
X0153995Y0109020D01*
X0153995Y0108983D02*
X0152237Y0108983D01*
X0152237Y0108945D02*
X0153995Y0108945D01*
X0153997Y0108907D02*
X0152238Y0108907D01*
X0152238Y0108869D02*
X0154001Y0108869D01*
X0154004Y0108831D02*
X0152238Y0108831D01*
X0152239Y0108793D02*
X0154008Y0108793D01*
X0154012Y0108755D02*
X0152242Y0108755D01*
X0152244Y0108717D02*
X0154016Y0108717D01*
X0154022Y0108679D02*
X0152247Y0108679D01*
X0152249Y0108642D02*
X0154030Y0108642D01*
X0154038Y0108604D02*
X0152252Y0108604D01*
X0152255Y0108566D02*
X0154046Y0108566D01*
X0154054Y0108528D02*
X0152259Y0108528D01*
X0152264Y0108490D02*
X0154062Y0108490D01*
X0154074Y0108452D02*
X0152269Y0108452D01*
X0152273Y0108414D02*
X0154086Y0108414D01*
X0154098Y0108376D02*
X0152278Y0108376D01*
X0152283Y0108339D02*
X0154110Y0108339D01*
X0154123Y0108301D02*
X0152290Y0108301D01*
X0152297Y0108263D02*
X0154136Y0108263D01*
X0154153Y0108225D02*
X0152304Y0108225D01*
X0152310Y0108187D02*
X0154169Y0108187D01*
X0154186Y0108149D02*
X0152317Y0108149D01*
X0152325Y0108111D02*
X0154203Y0108111D01*
X0154220Y0108073D02*
X0152334Y0108073D01*
X0152343Y0108035D02*
X0154241Y0108035D01*
X0154262Y0107998D02*
X0152352Y0107998D01*
X0152361Y0107960D02*
X0154284Y0107960D01*
X0154306Y0107922D02*
X0152370Y0107922D01*
X0152381Y0107884D02*
X0154327Y0107884D01*
X0154353Y0107846D02*
X0152393Y0107846D01*
X0152404Y0107808D02*
X0154381Y0107808D01*
X0154408Y0107770D02*
X0152415Y0107770D01*
X0152426Y0107732D02*
X0154435Y0107732D01*
X0154463Y0107695D02*
X0152438Y0107695D01*
X0152452Y0107657D02*
X0154496Y0107657D01*
X0154530Y0107619D02*
X0152465Y0107619D01*
X0152479Y0107581D02*
X0154564Y0107581D01*
X0154598Y0107543D02*
X0152492Y0107543D01*
X0152505Y0107505D02*
X0154636Y0107505D01*
X0154677Y0107467D02*
X0152521Y0107467D01*
X0152537Y0107429D02*
X0154718Y0107429D01*
X0154759Y0107391D02*
X0152553Y0107391D01*
X0152569Y0107354D02*
X0154805Y0107354D01*
X0154853Y0107316D02*
X0152585Y0107316D01*
X0152602Y0107278D02*
X0154900Y0107278D01*
X0154948Y0107240D02*
X0152620Y0107240D01*
X0152638Y0107202D02*
X0155005Y0107202D01*
X0155063Y0107164D02*
X0152657Y0107164D01*
X0152675Y0107126D02*
X0155120Y0107126D01*
X0155188Y0107088D02*
X0152694Y0107088D01*
X0152757Y0106975D02*
X0155415Y0106975D01*
X0155503Y0106937D02*
X0152778Y0106937D01*
X0152799Y0106899D02*
X0157256Y0106899D01*
X0157244Y0106937D02*
X0155598Y0106937D01*
X0155671Y0106975D02*
X0156085Y0106975D01*
X0156235Y0106975D02*
X0157232Y0106975D01*
X0157219Y0107013D02*
X0157085Y0107013D01*
X0157216Y0107051D02*
X0155671Y0107051D01*
X0155671Y0107088D02*
X0157216Y0107088D01*
X0157216Y0107126D02*
X0155671Y0107126D01*
X0155671Y0107164D02*
X0157216Y0107164D01*
X0157216Y0107202D02*
X0155671Y0107202D01*
X0155671Y0107240D02*
X0157216Y0107240D01*
X0157216Y0107278D02*
X0155671Y0107278D01*
X0155671Y0107316D02*
X0157216Y0107316D01*
X0157216Y0107354D02*
X0155671Y0107354D01*
X0155671Y0107391D02*
X0157216Y0107391D01*
X0157216Y0107429D02*
X0155671Y0107429D01*
X0155671Y0107467D02*
X0157216Y0107467D01*
X0157216Y0107505D02*
X0155671Y0107505D01*
X0155671Y0107543D02*
X0157216Y0107543D01*
X0157216Y0107581D02*
X0155671Y0107581D01*
X0155671Y0107619D02*
X0157216Y0107619D01*
X0157216Y0107657D02*
X0155671Y0107657D01*
X0155671Y0107695D02*
X0157216Y0107695D01*
X0157216Y0107732D02*
X0155671Y0107732D01*
X0155671Y0107770D02*
X0157216Y0107770D01*
X0157216Y0107808D02*
X0155671Y0107808D01*
X0155671Y0107846D02*
X0157216Y0107846D01*
X0157216Y0107884D02*
X0155671Y0107884D01*
X0155671Y0107922D02*
X0157216Y0107922D01*
X0157216Y0107960D02*
X0155671Y0107960D01*
X0155671Y0107998D02*
X0157216Y0107998D01*
X0157216Y0108035D02*
X0155671Y0108035D01*
X0155671Y0108073D02*
X0157216Y0108073D01*
X0157216Y0108111D02*
X0155671Y0108111D01*
X0155671Y0108149D02*
X0157216Y0108149D01*
X0157216Y0108187D02*
X0155671Y0108187D01*
X0155671Y0108225D02*
X0157216Y0108225D01*
X0157216Y0108263D02*
X0155671Y0108263D01*
X0155671Y0108301D02*
X0157216Y0108301D01*
X0157216Y0108339D02*
X0155671Y0108339D01*
X0155671Y0108376D02*
X0157216Y0108376D01*
X0157216Y0108414D02*
X0155671Y0108414D01*
X0155671Y0108452D02*
X0157216Y0108452D01*
X0157216Y0108490D02*
X0155671Y0108490D01*
X0155671Y0108528D02*
X0157216Y0108528D01*
X0157216Y0108566D02*
X0155671Y0108566D01*
X0155671Y0108604D02*
X0157216Y0108604D01*
X0157216Y0108642D02*
X0155671Y0108642D01*
X0155671Y0108679D02*
X0157216Y0108679D01*
X0157216Y0108717D02*
X0155671Y0108717D01*
X0155671Y0108755D02*
X0157216Y0108755D01*
X0157216Y0108793D02*
X0155671Y0108793D01*
X0155671Y0108831D02*
X0157216Y0108831D01*
X0157216Y0108869D02*
X0155671Y0108869D01*
X0155671Y0108907D02*
X0157216Y0108907D01*
X0157216Y0108945D02*
X0155671Y0108945D01*
X0155671Y0108983D02*
X0157216Y0108983D01*
X0157216Y0109020D02*
X0155671Y0109020D01*
X0155671Y0109058D02*
X0157216Y0109058D01*
X0157216Y0109096D02*
X0155671Y0109096D01*
X0155671Y0109134D02*
X0157216Y0109134D01*
X0157216Y0109172D02*
X0155671Y0109172D01*
X0155671Y0109210D02*
X0157216Y0109210D01*
X0157216Y0109248D02*
X0155671Y0109248D01*
X0155671Y0109286D02*
X0157216Y0109286D01*
X0157216Y0109323D02*
X0155671Y0109323D01*
X0155671Y0109361D02*
X0157216Y0109361D01*
X0157216Y0109399D02*
X0155671Y0109399D01*
X0155671Y0109437D02*
X0157216Y0109437D01*
X0157216Y0109475D02*
X0155671Y0109475D01*
X0155671Y0109513D02*
X0157216Y0109513D01*
X0157216Y0109551D02*
X0155671Y0109551D01*
X0155671Y0109589D02*
X0157216Y0109589D01*
X0157216Y0109626D02*
X0155671Y0109626D01*
X0155671Y0109664D02*
X0157216Y0109664D01*
X0157216Y0109702D02*
X0155671Y0109702D01*
X0155671Y0109740D02*
X0157216Y0109740D01*
X0157216Y0109778D02*
X0155671Y0109778D01*
X0155671Y0109816D02*
X0157216Y0109816D01*
X0157216Y0109854D02*
X0155671Y0109854D01*
X0155671Y0109892D02*
X0157216Y0109892D01*
X0157216Y0109930D02*
X0155671Y0109930D01*
X0155671Y0109967D02*
X0157216Y0109967D01*
X0157216Y0110005D02*
X0155671Y0110005D01*
X0155671Y0110043D02*
X0157216Y0110043D01*
X0157216Y0110081D02*
X0155671Y0110081D01*
X0155671Y0110119D02*
X0157216Y0110119D01*
X0157216Y0110157D02*
X0155671Y0110157D01*
X0155671Y0110195D02*
X0157216Y0110195D01*
X0157216Y0110233D02*
X0155671Y0110233D01*
X0155671Y0110270D02*
X0157216Y0110270D01*
X0157216Y0110308D02*
X0155671Y0110308D01*
X0155671Y0110346D02*
X0157216Y0110346D01*
X0157216Y0110384D02*
X0155671Y0110384D01*
X0155671Y0110422D02*
X0157216Y0110422D01*
X0157216Y0110460D02*
X0155671Y0110460D01*
X0155671Y0110498D02*
X0157216Y0110498D01*
X0157216Y0110536D02*
X0155671Y0110536D01*
X0155671Y0110574D02*
X0157216Y0110574D01*
X0157216Y0110611D02*
X0155671Y0110611D01*
X0155671Y0110649D02*
X0157216Y0110649D01*
X0157216Y0110687D02*
X0155671Y0110687D01*
X0155671Y0110725D02*
X0157216Y0110725D01*
X0157216Y0110763D02*
X0155671Y0110763D01*
X0155671Y0110801D02*
X0157216Y0110801D01*
X0157216Y0110839D02*
X0155671Y0110839D01*
X0155671Y0110877D02*
X0157216Y0110877D01*
X0157216Y0110914D02*
X0155671Y0110914D01*
X0155671Y0110952D02*
X0157216Y0110952D01*
X0157216Y0110990D02*
X0155671Y0110990D01*
X0155671Y0111028D02*
X0157216Y0111028D01*
X0157216Y0111066D02*
X0155671Y0111066D01*
X0155671Y0111104D02*
X0157216Y0111104D01*
X0157216Y0111142D02*
X0155671Y0111142D01*
X0155671Y0111180D02*
X0157216Y0111180D01*
X0157216Y0111218D02*
X0155671Y0111218D01*
X0155671Y0111255D02*
X0160171Y0111255D01*
X0160195Y0111218D02*
X0157320Y0111218D01*
X0157442Y0111180D02*
X0160219Y0111180D01*
X0160243Y0111142D02*
X0157554Y0111142D01*
X0157644Y0111104D02*
X0160265Y0111104D01*
X0160286Y0111066D02*
X0157729Y0111066D01*
X0157806Y0111028D02*
X0160307Y0111028D01*
X0160328Y0110990D02*
X0157874Y0110990D01*
X0157942Y0110952D02*
X0160349Y0110952D01*
X0160369Y0110914D02*
X0158002Y0110914D01*
X0158057Y0110877D02*
X0160387Y0110877D01*
X0160406Y0110839D02*
X0158113Y0110839D01*
X0158165Y0110801D02*
X0160424Y0110801D01*
X0160443Y0110763D02*
X0158211Y0110763D01*
X0158257Y0110725D02*
X0160461Y0110725D01*
X0160477Y0110687D02*
X0158303Y0110687D01*
X0158345Y0110649D02*
X0160493Y0110649D01*
X0160509Y0110611D02*
X0158386Y0110611D01*
X0158426Y0110574D02*
X0160525Y0110574D01*
X0160541Y0110536D02*
X0158467Y0110536D01*
X0158503Y0110498D02*
X0160555Y0110498D01*
X0160569Y0110460D02*
X0158535Y0110460D01*
X0158568Y0110422D02*
X0160582Y0110422D01*
X0160596Y0110384D02*
X0158601Y0110384D01*
X0158633Y0110346D02*
X0160610Y0110346D01*
X0160623Y0110308D02*
X0158659Y0110308D01*
X0158685Y0110270D02*
X0160634Y0110270D01*
X0160646Y0110233D02*
X0158711Y0110233D01*
X0158737Y0110195D02*
X0160657Y0110195D01*
X0160668Y0110157D02*
X0158762Y0110157D01*
X0158782Y0110119D02*
X0160680Y0110119D01*
X0160690Y0110081D02*
X0158803Y0110081D01*
X0158823Y0110043D02*
X0160699Y0110043D01*
X0160708Y0110005D02*
X0158844Y0110005D01*
X0158864Y0109967D02*
X0160717Y0109967D01*
X0160727Y0109930D02*
X0158879Y0109930D01*
X0158895Y0109892D02*
X0160736Y0109892D01*
X0160743Y0109854D02*
X0158910Y0109854D01*
X0158926Y0109816D02*
X0160750Y0109816D01*
X0160757Y0109778D02*
X0158942Y0109778D01*
X0158954Y0109740D02*
X0160764Y0109740D01*
X0160771Y0109702D02*
X0158965Y0109702D01*
X0158976Y0109664D02*
X0160778Y0109664D01*
X0160783Y0109626D02*
X0158987Y0109626D01*
X0158998Y0109589D02*
X0160788Y0109589D01*
X0160793Y0109551D02*
X0159008Y0109551D01*
X0159015Y0109513D02*
X0160798Y0109513D01*
X0160803Y0109475D02*
X0159022Y0109475D01*
X0159028Y0109437D02*
X0160807Y0109437D01*
X0160810Y0109399D02*
X0159035Y0109399D01*
X0159042Y0109361D02*
X0160813Y0109361D01*
X0160816Y0109323D02*
X0159047Y0109323D01*
X0159050Y0109286D02*
X0160819Y0109286D01*
X0160822Y0109248D02*
X0159052Y0109248D01*
X0159055Y0109210D02*
X0160824Y0109210D01*
X0160825Y0109172D02*
X0159057Y0109172D01*
X0159060Y0109134D02*
X0160825Y0109134D01*
X0160826Y0109096D02*
X0159061Y0109096D01*
X0159060Y0109058D02*
X0160827Y0109058D01*
X0160828Y0109020D02*
X0159059Y0109020D01*
X0159059Y0108983D02*
X0160828Y0108983D01*
X0160827Y0108945D02*
X0159058Y0108945D01*
X0159057Y0108907D02*
X0160825Y0108907D01*
X0160824Y0108869D02*
X0159054Y0108869D01*
X0159050Y0108831D02*
X0160823Y0108831D01*
X0160822Y0108793D02*
X0159045Y0108793D01*
X0159041Y0108755D02*
X0160819Y0108755D01*
X0160816Y0108717D02*
X0159036Y0108717D01*
X0159032Y0108679D02*
X0160813Y0108679D01*
X0160810Y0108642D02*
X0159024Y0108642D01*
X0159016Y0108604D02*
X0160806Y0108604D01*
X0160803Y0108566D02*
X0159007Y0108566D01*
X0158998Y0108528D02*
X0160798Y0108528D01*
X0160793Y0108490D02*
X0158990Y0108490D01*
X0158981Y0108452D02*
X0160788Y0108452D01*
X0160782Y0108414D02*
X0158968Y0108414D01*
X0158955Y0108376D02*
X0160777Y0108376D01*
X0160772Y0108339D02*
X0158942Y0108339D01*
X0158929Y0108301D02*
X0160764Y0108301D01*
X0160757Y0108263D02*
X0158916Y0108263D01*
X0158901Y0108225D02*
X0160750Y0108225D01*
X0160742Y0108187D02*
X0158883Y0108187D01*
X0158866Y0108149D02*
X0160735Y0108149D01*
X0160727Y0108111D02*
X0158848Y0108111D01*
X0158831Y0108073D02*
X0160717Y0108073D01*
X0160708Y0108035D02*
X0158812Y0108035D01*
X0158789Y0107998D02*
X0160698Y0107998D01*
X0160689Y0107960D02*
X0158767Y0107960D01*
X0158744Y0107922D02*
X0160679Y0107922D01*
X0160668Y0107884D02*
X0158721Y0107884D01*
X0158698Y0107846D02*
X0160657Y0107846D01*
X0160645Y0107808D02*
X0158669Y0107808D01*
X0158640Y0107770D02*
X0160633Y0107770D01*
X0160622Y0107732D02*
X0158612Y0107732D01*
X0158583Y0107695D02*
X0160610Y0107695D01*
X0160596Y0107657D02*
X0158551Y0107657D01*
X0158516Y0107619D02*
X0160582Y0107619D01*
X0160568Y0107581D02*
X0158481Y0107581D01*
X0158445Y0107543D02*
X0160554Y0107543D01*
X0160540Y0107505D02*
X0158408Y0107505D01*
X0158365Y0107467D02*
X0160525Y0107467D01*
X0160508Y0107429D02*
X0158321Y0107429D01*
X0158278Y0107391D02*
X0160492Y0107391D01*
X0160476Y0107354D02*
X0158231Y0107354D01*
X0158180Y0107316D02*
X0160459Y0107316D01*
X0160443Y0107278D02*
X0158128Y0107278D01*
X0158076Y0107240D02*
X0160424Y0107240D01*
X0160405Y0107202D02*
X0158016Y0107202D01*
X0157954Y0107164D02*
X0160386Y0107164D01*
X0160368Y0107126D02*
X0157893Y0107126D01*
X0157821Y0107088D02*
X0160349Y0107088D01*
X0160328Y0107051D02*
X0157746Y0107051D01*
X0157669Y0107013D02*
X0160306Y0107013D01*
X0160285Y0106975D02*
X0157577Y0106975D01*
X0157484Y0106937D02*
X0160264Y0106937D01*
X0160242Y0106899D02*
X0157367Y0106899D01*
X0156887Y0107013D02*
X0155671Y0107013D01*
X0154973Y0105119D02*
X0158069Y0105119D01*
X0158040Y0105107D02*
X0158247Y0105188D01*
X0158449Y0105279D01*
X0158647Y0105381D01*
X0158839Y0105492D01*
X0158783Y0105460D02*
X0154259Y0105460D01*
X0154194Y0105497D02*
X0154386Y0105386D01*
X0154584Y0105284D01*
X0154786Y0105192D01*
X0154993Y0105111D01*
X0155203Y0105040D01*
X0155417Y0104979D01*
X0155633Y0104930D01*
X0155852Y0104891D01*
X0156072Y0104863D01*
X0156294Y0104846D01*
X0156516Y0104841D01*
X0156738Y0104846D01*
X0156960Y0104862D01*
X0157180Y0104889D01*
X0157399Y0104928D01*
X0157615Y0104977D01*
X0157829Y0105037D01*
X0158040Y0105107D01*
X0157961Y0105081D02*
X0155082Y0105081D01*
X0155194Y0105043D02*
X0157848Y0105043D01*
X0157716Y0105005D02*
X0155326Y0105005D01*
X0155471Y0104967D02*
X0157573Y0104967D01*
X0157406Y0104929D02*
X0155637Y0104929D01*
X0155850Y0104891D02*
X0157191Y0104891D01*
X0156841Y0104853D02*
X0156201Y0104853D01*
X0156306Y0103954D02*
X0156084Y0103936D01*
X0155864Y0103907D01*
X0155646Y0103866D01*
X0155430Y0103816D01*
X0155216Y0103755D01*
X0157933Y0103755D01*
X0157843Y0103783D02*
X0157628Y0103840D01*
X0157411Y0103886D01*
X0157192Y0103921D01*
X0156971Y0103945D01*
X0156749Y0103959D01*
X0156527Y0103962D01*
X0156306Y0103954D01*
X0156185Y0103944D02*
X0156981Y0103944D01*
X0157282Y0103906D02*
X0155864Y0103906D01*
X0155657Y0103869D02*
X0157492Y0103869D01*
X0157663Y0103831D02*
X0155493Y0103831D01*
X0155349Y0103793D02*
X0157807Y0103793D01*
X0157843Y0103783D02*
X0158054Y0103716D01*
X0158262Y0103639D01*
X0158467Y0103552D01*
X0158666Y0103455D01*
X0158861Y0103348D01*
X0159050Y0103232D01*
X0159233Y0103106D01*
X0159410Y0102972D01*
X0159580Y0102829D01*
X0159744Y0102680D01*
X0159899Y0102521D01*
X0160045Y0102354D01*
X0160180Y0102178D01*
X0160305Y0101994D01*
X0160418Y0101803D01*
X0160520Y0101606D01*
X0160610Y0101403D01*
X0160688Y0101195D01*
X0160753Y0100983D01*
X0160805Y0100767D01*
X0160844Y0100549D01*
X0160870Y0100328D01*
X0160883Y0100107D01*
X0160884Y0099885D01*
X0160874Y0099663D01*
X0160851Y0099442D01*
X0160816Y0099223D01*
X0160767Y0099006D01*
X0160706Y0098793D01*
X0160632Y0098584D01*
X0160546Y0098379D01*
X0160448Y0098180D01*
X0160339Y0097987D01*
X0160218Y0097800D01*
X0160087Y0097621D01*
X0159946Y0097450D01*
X0160068Y0097406D01*
X0163176Y0097406D01*
X0163240Y0097248D01*
X0163240Y0095472D01*
X0163092Y0095472D01*
X0152657Y0095461D01*
X0152559Y0095584D01*
X0152559Y0097138D01*
X0152680Y0097239D01*
X0153346Y0097239D01*
X0153292Y0097354D01*
X0154510Y0098218D01*
X0154658Y0098060D01*
X0154826Y0097914D01*
X0155006Y0097785D01*
X0155195Y0097670D01*
X0155394Y0097570D01*
X0155600Y0097487D01*
X0155812Y0097421D01*
X0156028Y0097372D01*
X0156248Y0097341D01*
X0156469Y0097328D01*
X0156691Y0097332D01*
X0156912Y0097354D01*
X0157130Y0097394D01*
X0157345Y0097451D01*
X0157554Y0097525D01*
X0157756Y0097616D01*
X0157951Y0097723D01*
X0158136Y0097845D01*
X0158311Y0097982D01*
X0158468Y0098139D01*
X0158608Y0098311D01*
X0158730Y0098496D01*
X0158834Y0098692D01*
X0158919Y0098897D01*
X0158984Y0099110D01*
X0159028Y0099327D01*
X0159050Y0099548D01*
X0159052Y0099770D01*
X0159032Y0099991D01*
X0158991Y0100209D01*
X0158929Y0100422D01*
X0158846Y0100628D01*
X0158745Y0100825D01*
X0158624Y0101012D01*
X0158487Y0101186D01*
X0158333Y0101346D01*
X0158159Y0101484D01*
X0157975Y0101608D01*
X0157782Y0101717D01*
X0157581Y0101810D01*
X0157372Y0101887D01*
X0157158Y0101946D01*
X0156941Y0101988D01*
X0156720Y0102013D01*
X0156498Y0102019D01*
X0156276Y0102008D01*
X0156056Y0101979D01*
X0155839Y0101933D01*
X0155627Y0101869D01*
X0155420Y0101788D01*
X0155221Y0101691D01*
X0155030Y0101578D01*
X0154848Y0101450D01*
X0154679Y0101307D01*
X0154525Y0101147D01*
X0154388Y0100972D01*
X0154269Y0100785D01*
X0154170Y0100586D01*
X0154091Y0100379D01*
X0154032Y0100165D01*
X0153996Y0099946D01*
X0153981Y0099724D01*
X0153981Y0099651D01*
X0153993Y0099429D01*
X0154027Y0099210D01*
X0154082Y0098995D01*
X0154159Y0098787D01*
X0154255Y0098587D01*
X0154372Y0098398D01*
X0154503Y0098226D01*
X0153287Y0097362D01*
X0153146Y0097527D01*
X0153011Y0097703D01*
X0152887Y0097887D01*
X0152773Y0098078D01*
X0152671Y0098275D01*
X0152580Y0098477D01*
X0152501Y0098685D01*
X0152434Y0098896D01*
X0152380Y0099111D01*
X0152337Y0099329D01*
X0152308Y0099549D01*
X0152291Y0099771D01*
X0152287Y0099993D01*
X0152295Y0100214D01*
X0152317Y0100435D01*
X0152351Y0100655D01*
X0152397Y0100872D01*
X0152456Y0101086D01*
X0152528Y0101296D01*
X0152611Y0101502D01*
X0152706Y0101702D01*
X0152812Y0101897D01*
X0152929Y0102086D01*
X0153057Y0102267D01*
X0153195Y0102441D01*
X0153343Y0102606D01*
X0153501Y0102763D01*
X0153667Y0102910D01*
X0153841Y0103047D01*
X0154022Y0103177D01*
X0154208Y0103297D01*
X0154400Y0103408D01*
X0154598Y0103510D01*
X0154800Y0103602D01*
X0155006Y0103683D01*
X0155216Y0103755D01*
X0155105Y0103717D02*
X0158053Y0103717D01*
X0158155Y0103679D02*
X0154996Y0103679D01*
X0154900Y0103641D02*
X0158257Y0103641D01*
X0158346Y0103603D02*
X0154804Y0103603D01*
X0154720Y0103565D02*
X0158435Y0103565D01*
X0158517Y0103528D02*
X0154637Y0103528D01*
X0154558Y0103490D02*
X0158594Y0103490D01*
X0158672Y0103452D02*
X0154485Y0103452D01*
X0154411Y0103414D02*
X0158740Y0103414D01*
X0158809Y0103376D02*
X0154344Y0103376D01*
X0154279Y0103338D02*
X0158876Y0103338D01*
X0158938Y0103300D02*
X0154213Y0103300D01*
X0154154Y0103262D02*
X0159000Y0103262D01*
X0159060Y0103225D02*
X0154095Y0103225D01*
X0154037Y0103187D02*
X0159115Y0103187D01*
X0159171Y0103149D02*
X0153982Y0103149D01*
X0153930Y0103111D02*
X0159226Y0103111D01*
X0159277Y0103073D02*
X0153877Y0103073D01*
X0153826Y0103035D02*
X0159327Y0103035D01*
X0159377Y0102997D02*
X0153778Y0102997D01*
X0153730Y0102959D02*
X0159425Y0102959D01*
X0159470Y0102921D02*
X0153682Y0102921D01*
X0153638Y0102884D02*
X0159515Y0102884D01*
X0159561Y0102846D02*
X0153595Y0102846D01*
X0153552Y0102808D02*
X0159604Y0102808D01*
X0159645Y0102770D02*
X0153509Y0102770D01*
X0153470Y0102732D02*
X0159687Y0102732D01*
X0159728Y0102694D02*
X0153432Y0102694D01*
X0153394Y0102656D02*
X0159767Y0102656D01*
X0159804Y0102618D02*
X0153356Y0102618D01*
X0153320Y0102581D02*
X0159841Y0102581D01*
X0159878Y0102543D02*
X0153287Y0102543D01*
X0153253Y0102505D02*
X0159914Y0102505D01*
X0159947Y0102467D02*
X0153219Y0102467D01*
X0153186Y0102429D02*
X0159980Y0102429D01*
X0160013Y0102391D02*
X0153156Y0102391D01*
X0153126Y0102353D02*
X0160045Y0102353D01*
X0160075Y0102315D02*
X0153096Y0102315D01*
X0153066Y0102277D02*
X0160104Y0102277D01*
X0160133Y0102240D02*
X0153038Y0102240D01*
X0153011Y0102202D02*
X0160162Y0102202D01*
X0160190Y0102164D02*
X0152984Y0102164D01*
X0152958Y0102126D02*
X0160216Y0102126D01*
X0160241Y0102088D02*
X0152931Y0102088D01*
X0152907Y0102050D02*
X0160267Y0102050D01*
X0160293Y0102012D02*
X0156723Y0102012D01*
X0157013Y0101974D02*
X0160317Y0101974D01*
X0160339Y0101937D02*
X0157194Y0101937D01*
X0157330Y0101899D02*
X0160362Y0101899D01*
X0160384Y0101861D02*
X0157444Y0101861D01*
X0157547Y0101823D02*
X0160407Y0101823D01*
X0160428Y0101785D02*
X0157636Y0101785D01*
X0157718Y0101747D02*
X0160447Y0101747D01*
X0160467Y0101709D02*
X0157797Y0101709D01*
X0157864Y0101671D02*
X0160487Y0101671D01*
X0160506Y0101634D02*
X0157931Y0101634D01*
X0157994Y0101596D02*
X0160525Y0101596D01*
X0160542Y0101558D02*
X0158050Y0101558D01*
X0158106Y0101520D02*
X0160558Y0101520D01*
X0160575Y0101482D02*
X0158162Y0101482D01*
X0158209Y0101444D02*
X0160592Y0101444D01*
X0160609Y0101406D02*
X0158257Y0101406D01*
X0158304Y0101368D02*
X0160623Y0101368D01*
X0160637Y0101330D02*
X0158347Y0101330D01*
X0158384Y0101293D02*
X0160651Y0101293D01*
X0160665Y0101255D02*
X0158420Y0101255D01*
X0158457Y0101217D02*
X0160680Y0101217D01*
X0160693Y0101179D02*
X0158492Y0101179D01*
X0158522Y0101141D02*
X0160704Y0101141D01*
X0160716Y0101103D02*
X0158552Y0101103D01*
X0158582Y0101065D02*
X0160727Y0101065D01*
X0160739Y0101027D02*
X0158612Y0101027D01*
X0158639Y0100990D02*
X0160751Y0100990D01*
X0160760Y0100952D02*
X0158663Y0100952D01*
X0158688Y0100914D02*
X0160769Y0100914D01*
X0160778Y0100876D02*
X0158712Y0100876D01*
X0158736Y0100838D02*
X0160788Y0100838D01*
X0160797Y0100800D02*
X0158758Y0100800D01*
X0158777Y0100762D02*
X0160806Y0100762D01*
X0160812Y0100724D02*
X0158797Y0100724D01*
X0158816Y0100686D02*
X0160819Y0100686D01*
X0160826Y0100649D02*
X0158836Y0100649D01*
X0158853Y0100611D02*
X0160833Y0100611D01*
X0160840Y0100573D02*
X0158868Y0100573D01*
X0158884Y0100535D02*
X0160845Y0100535D01*
X0160850Y0100497D02*
X0158899Y0100497D01*
X0158914Y0100459D02*
X0160854Y0100459D01*
X0160859Y0100421D02*
X0158929Y0100421D01*
X0158940Y0100383D02*
X0160863Y0100383D01*
X0160868Y0100346D02*
X0158951Y0100346D01*
X0158962Y0100308D02*
X0160871Y0100308D01*
X0160873Y0100270D02*
X0158973Y0100270D01*
X0158984Y0100232D02*
X0160875Y0100232D01*
X0160878Y0100194D02*
X0158993Y0100194D01*
X0159001Y0100156D02*
X0160880Y0100156D01*
X0160882Y0100118D02*
X0159008Y0100118D01*
X0159015Y0100080D02*
X0160883Y0100080D01*
X0160883Y0100042D02*
X0159022Y0100042D01*
X0159029Y0100005D02*
X0160883Y0100005D01*
X0160883Y0099967D02*
X0159034Y0099967D01*
X0159037Y0099929D02*
X0160883Y0099929D01*
X0160884Y0099891D02*
X0159041Y0099891D01*
X0159044Y0099853D02*
X0160882Y0099853D01*
X0160881Y0099815D02*
X0159048Y0099815D01*
X0159051Y0099777D02*
X0160879Y0099777D01*
X0160877Y0099739D02*
X0159052Y0099739D01*
X0159051Y0099702D02*
X0160876Y0099702D01*
X0160874Y0099664D02*
X0159051Y0099664D01*
X0159051Y0099626D02*
X0160870Y0099626D01*
X0160866Y0099588D02*
X0159051Y0099588D01*
X0159050Y0099550D02*
X0160862Y0099550D01*
X0160858Y0099512D02*
X0159047Y0099512D01*
X0159043Y0099474D02*
X0160855Y0099474D01*
X0160850Y0099436D02*
X0159039Y0099436D01*
X0159035Y0099399D02*
X0160844Y0099399D01*
X0160838Y0099361D02*
X0159031Y0099361D01*
X0159027Y0099323D02*
X0160832Y0099323D01*
X0160826Y0099285D02*
X0159019Y0099285D01*
X0159012Y0099247D02*
X0160819Y0099247D01*
X0160812Y0099209D02*
X0159004Y0099209D01*
X0158996Y0099171D02*
X0160804Y0099171D01*
X0160795Y0099133D02*
X0158989Y0099133D01*
X0158979Y0099095D02*
X0160787Y0099095D01*
X0160778Y0099058D02*
X0158968Y0099058D01*
X0158956Y0099020D02*
X0160770Y0099020D01*
X0160760Y0098982D02*
X0158945Y0098982D01*
X0158933Y0098944D02*
X0160749Y0098944D01*
X0160738Y0098906D02*
X0158922Y0098906D01*
X0158907Y0098868D02*
X0160727Y0098868D01*
X0160716Y0098830D02*
X0158891Y0098830D01*
X0158876Y0098792D02*
X0160706Y0098792D01*
X0160692Y0098755D02*
X0158860Y0098755D01*
X0158844Y0098717D02*
X0160679Y0098717D01*
X0160666Y0098679D02*
X0158827Y0098679D01*
X0158807Y0098641D02*
X0160652Y0098641D01*
X0160639Y0098603D02*
X0158787Y0098603D01*
X0158767Y0098565D02*
X0160624Y0098565D01*
X0160608Y0098527D02*
X0158747Y0098527D01*
X0158726Y0098489D02*
X0160592Y0098489D01*
X0160577Y0098451D02*
X0158700Y0098451D01*
X0158675Y0098414D02*
X0160561Y0098414D01*
X0160545Y0098376D02*
X0158650Y0098376D01*
X0158625Y0098338D02*
X0160526Y0098338D01*
X0160507Y0098300D02*
X0158598Y0098300D01*
X0158568Y0098262D02*
X0160489Y0098262D01*
X0160470Y0098224D02*
X0158537Y0098224D01*
X0158506Y0098186D02*
X0160452Y0098186D01*
X0160431Y0098148D02*
X0158475Y0098148D01*
X0158439Y0098111D02*
X0160409Y0098111D01*
X0160388Y0098073D02*
X0158401Y0098073D01*
X0158363Y0098035D02*
X0160366Y0098035D01*
X0160345Y0097997D02*
X0158326Y0097997D01*
X0158281Y0097959D02*
X0160321Y0097959D01*
X0160297Y0097921D02*
X0158233Y0097921D01*
X0158185Y0097883D02*
X0160272Y0097883D01*
X0160248Y0097845D02*
X0158136Y0097845D01*
X0158079Y0097807D02*
X0160223Y0097807D01*
X0160196Y0097770D02*
X0158022Y0097770D01*
X0157964Y0097732D02*
X0160168Y0097732D01*
X0160141Y0097694D02*
X0157898Y0097694D01*
X0157829Y0097656D02*
X0160113Y0097656D01*
X0160085Y0097618D02*
X0157760Y0097618D01*
X0157677Y0097580D02*
X0160053Y0097580D01*
X0160022Y0097542D02*
X0157592Y0097542D01*
X0157496Y0097504D02*
X0159990Y0097504D01*
X0159959Y0097467D02*
X0157389Y0097467D01*
X0157262Y0097429D02*
X0160005Y0097429D01*
X0157115Y0097391D02*
X0163182Y0097391D01*
X0163198Y0097353D02*
X0156901Y0097353D01*
X0156165Y0097353D02*
X0153293Y0097353D01*
X0153310Y0097315D02*
X0163213Y0097315D01*
X0163229Y0097277D02*
X0153328Y0097277D01*
X0153346Y0097239D02*
X0163240Y0097239D01*
X0163240Y0097201D02*
X0152635Y0097201D01*
X0152589Y0097164D02*
X0163240Y0097164D01*
X0163240Y0097126D02*
X0152559Y0097126D01*
X0152559Y0097088D02*
X0163240Y0097088D01*
X0163240Y0097050D02*
X0152559Y0097050D01*
X0152559Y0097012D02*
X0163240Y0097012D01*
X0163240Y0096974D02*
X0152559Y0096974D01*
X0152559Y0096936D02*
X0163240Y0096936D01*
X0163240Y0096898D02*
X0152559Y0096898D01*
X0152559Y0096860D02*
X0163240Y0096860D01*
X0163240Y0096823D02*
X0152559Y0096823D01*
X0152559Y0096785D02*
X0163240Y0096785D01*
X0163240Y0096747D02*
X0152559Y0096747D01*
X0152559Y0096709D02*
X0163240Y0096709D01*
X0163240Y0096671D02*
X0152559Y0096671D01*
X0152559Y0096633D02*
X0163240Y0096633D01*
X0163240Y0096595D02*
X0152559Y0096595D01*
X0152559Y0096557D02*
X0163240Y0096557D01*
X0163240Y0096520D02*
X0152559Y0096520D01*
X0152559Y0096482D02*
X0163240Y0096482D01*
X0163240Y0096444D02*
X0152559Y0096444D01*
X0152559Y0096406D02*
X0163240Y0096406D01*
X0163240Y0096368D02*
X0152559Y0096368D01*
X0152559Y0096330D02*
X0163240Y0096330D01*
X0163240Y0096292D02*
X0152559Y0096292D01*
X0152559Y0096254D02*
X0163240Y0096254D01*
X0163240Y0096216D02*
X0152559Y0096216D01*
X0152559Y0096179D02*
X0163240Y0096179D01*
X0163240Y0096141D02*
X0152559Y0096141D01*
X0152559Y0096103D02*
X0163240Y0096103D01*
X0163240Y0096065D02*
X0152559Y0096065D01*
X0152559Y0096027D02*
X0163240Y0096027D01*
X0163240Y0095989D02*
X0152559Y0095989D01*
X0152559Y0095951D02*
X0163240Y0095951D01*
X0163240Y0095913D02*
X0152559Y0095913D01*
X0152559Y0095876D02*
X0163240Y0095876D01*
X0163240Y0095838D02*
X0152559Y0095838D01*
X0152559Y0095800D02*
X0163240Y0095800D01*
X0163240Y0095762D02*
X0152559Y0095762D01*
X0152559Y0095724D02*
X0163240Y0095724D01*
X0163240Y0095686D02*
X0152559Y0095686D01*
X0152559Y0095648D02*
X0163240Y0095648D01*
X0163240Y0095610D02*
X0152559Y0095610D01*
X0152568Y0095572D02*
X0163240Y0095572D01*
X0163240Y0095535D02*
X0152598Y0095535D01*
X0152628Y0095497D02*
X0163240Y0095497D01*
X0155946Y0097391D02*
X0153345Y0097391D01*
X0153328Y0097391D02*
X0153262Y0097391D01*
X0153230Y0097429D02*
X0153381Y0097429D01*
X0153398Y0097429D02*
X0155787Y0097429D01*
X0155666Y0097467D02*
X0153451Y0097467D01*
X0153435Y0097467D02*
X0153197Y0097467D01*
X0153165Y0097504D02*
X0153488Y0097504D01*
X0153505Y0097504D02*
X0155557Y0097504D01*
X0155463Y0097542D02*
X0153558Y0097542D01*
X0153541Y0097542D02*
X0153134Y0097542D01*
X0153105Y0097580D02*
X0153595Y0097580D01*
X0153611Y0097580D02*
X0155374Y0097580D01*
X0155298Y0097618D02*
X0153665Y0097618D01*
X0153648Y0097618D02*
X0153076Y0097618D01*
X0153047Y0097656D02*
X0153701Y0097656D01*
X0153718Y0097656D02*
X0155222Y0097656D01*
X0155155Y0097694D02*
X0153771Y0097694D01*
X0153755Y0097694D02*
X0153018Y0097694D01*
X0152992Y0097732D02*
X0153808Y0097732D01*
X0153825Y0097732D02*
X0155093Y0097732D01*
X0155030Y0097770D02*
X0153878Y0097770D01*
X0153861Y0097770D02*
X0152966Y0097770D01*
X0152940Y0097807D02*
X0153915Y0097807D01*
X0153931Y0097807D02*
X0154974Y0097807D01*
X0154921Y0097845D02*
X0153985Y0097845D01*
X0153968Y0097845D02*
X0152915Y0097845D01*
X0152889Y0097883D02*
X0154021Y0097883D01*
X0154038Y0097883D02*
X0154869Y0097883D01*
X0154818Y0097921D02*
X0154091Y0097921D01*
X0154075Y0097921D02*
X0152866Y0097921D01*
X0152844Y0097959D02*
X0154128Y0097959D01*
X0154145Y0097959D02*
X0154774Y0097959D01*
X0154730Y0097997D02*
X0154198Y0097997D01*
X0154181Y0097997D02*
X0152821Y0097997D01*
X0152799Y0098035D02*
X0154235Y0098035D01*
X0154251Y0098035D02*
X0154686Y0098035D01*
X0154646Y0098073D02*
X0154305Y0098073D01*
X0154288Y0098073D02*
X0152776Y0098073D01*
X0152756Y0098111D02*
X0154341Y0098111D01*
X0154358Y0098111D02*
X0154610Y0098111D01*
X0154575Y0098148D02*
X0154412Y0098148D01*
X0154395Y0098148D02*
X0152737Y0098148D01*
X0152717Y0098186D02*
X0154448Y0098186D01*
X0154465Y0098186D02*
X0154539Y0098186D01*
X0154501Y0098224D02*
X0152697Y0098224D01*
X0152678Y0098262D02*
X0154476Y0098262D01*
X0154447Y0098300D02*
X0152660Y0098300D01*
X0152643Y0098338D02*
X0154418Y0098338D01*
X0154389Y0098376D02*
X0152626Y0098376D01*
X0152609Y0098414D02*
X0154362Y0098414D01*
X0154339Y0098451D02*
X0152592Y0098451D01*
X0152576Y0098489D02*
X0154316Y0098489D01*
X0154292Y0098527D02*
X0152561Y0098527D01*
X0152547Y0098565D02*
X0154269Y0098565D01*
X0154248Y0098603D02*
X0152532Y0098603D01*
X0152518Y0098641D02*
X0154229Y0098641D01*
X0154211Y0098679D02*
X0152503Y0098679D01*
X0152491Y0098717D02*
X0154193Y0098717D01*
X0154174Y0098755D02*
X0152479Y0098755D01*
X0152467Y0098792D02*
X0154157Y0098792D01*
X0154143Y0098830D02*
X0152455Y0098830D01*
X0152443Y0098868D02*
X0154129Y0098868D01*
X0154115Y0098906D02*
X0152432Y0098906D01*
X0152422Y0098944D02*
X0154101Y0098944D01*
X0154087Y0098982D02*
X0152412Y0098982D01*
X0152403Y0099020D02*
X0154076Y0099020D01*
X0154066Y0099058D02*
X0152393Y0099058D01*
X0152384Y0099095D02*
X0154056Y0099095D01*
X0154046Y0099133D02*
X0152375Y0099133D01*
X0152368Y0099171D02*
X0154037Y0099171D01*
X0154027Y0099209D02*
X0152361Y0099209D01*
X0152353Y0099247D02*
X0154021Y0099247D01*
X0154015Y0099285D02*
X0152346Y0099285D01*
X0152339Y0099323D02*
X0154009Y0099323D01*
X0154004Y0099361D02*
X0152333Y0099361D01*
X0152328Y0099399D02*
X0153998Y0099399D01*
X0153993Y0099436D02*
X0152323Y0099436D01*
X0152318Y0099474D02*
X0153991Y0099474D01*
X0153989Y0099512D02*
X0152313Y0099512D01*
X0152308Y0099550D02*
X0153987Y0099550D01*
X0153985Y0099588D02*
X0152305Y0099588D01*
X0152302Y0099626D02*
X0153983Y0099626D01*
X0153981Y0099664D02*
X0152299Y0099664D01*
X0152296Y0099702D02*
X0153981Y0099702D01*
X0153982Y0099739D02*
X0152293Y0099739D01*
X0152291Y0099777D02*
X0153985Y0099777D01*
X0153987Y0099815D02*
X0152290Y0099815D01*
X0152289Y0099853D02*
X0153990Y0099853D01*
X0153992Y0099891D02*
X0152289Y0099891D01*
X0152288Y0099929D02*
X0153995Y0099929D01*
X0153999Y0099967D02*
X0152287Y0099967D01*
X0152287Y0100005D02*
X0154006Y0100005D01*
X0154012Y0100042D02*
X0152289Y0100042D01*
X0152290Y0100080D02*
X0154018Y0100080D01*
X0154025Y0100118D02*
X0152292Y0100118D01*
X0152293Y0100156D02*
X0154031Y0100156D01*
X0154040Y0100194D02*
X0152295Y0100194D01*
X0152297Y0100232D02*
X0154051Y0100232D01*
X0154061Y0100270D02*
X0152301Y0100270D01*
X0152304Y0100308D02*
X0154071Y0100308D01*
X0154082Y0100346D02*
X0152308Y0100346D01*
X0152312Y0100383D02*
X0154092Y0100383D01*
X0154107Y0100421D02*
X0152315Y0100421D01*
X0152320Y0100459D02*
X0154121Y0100459D01*
X0154136Y0100497D02*
X0152326Y0100497D01*
X0152332Y0100535D02*
X0154150Y0100535D01*
X0154165Y0100573D02*
X0152338Y0100573D01*
X0152344Y0100611D02*
X0154182Y0100611D01*
X0154201Y0100649D02*
X0152350Y0100649D01*
X0152358Y0100686D02*
X0154220Y0100686D01*
X0154239Y0100724D02*
X0152366Y0100724D01*
X0152374Y0100762D02*
X0154258Y0100762D01*
X0154279Y0100800D02*
X0152382Y0100800D01*
X0152390Y0100838D02*
X0154303Y0100838D01*
X0154327Y0100876D02*
X0152398Y0100876D01*
X0152409Y0100914D02*
X0154351Y0100914D01*
X0154375Y0100952D02*
X0152419Y0100952D01*
X0152430Y0100990D02*
X0154402Y0100990D01*
X0154432Y0101027D02*
X0152440Y0101027D01*
X0152451Y0101065D02*
X0154461Y0101065D01*
X0154491Y0101103D02*
X0152462Y0101103D01*
X0152475Y0101141D02*
X0154521Y0101141D01*
X0154556Y0101179D02*
X0152488Y0101179D01*
X0152501Y0101217D02*
X0154592Y0101217D01*
X0154629Y0101255D02*
X0152514Y0101255D01*
X0152526Y0101293D02*
X0154665Y0101293D01*
X0154707Y0101330D02*
X0152542Y0101330D01*
X0152557Y0101368D02*
X0154752Y0101368D01*
X0154797Y0101406D02*
X0152572Y0101406D01*
X0152587Y0101444D02*
X0154842Y0101444D01*
X0154894Y0101482D02*
X0152603Y0101482D01*
X0152619Y0101520D02*
X0154948Y0101520D01*
X0155001Y0101558D02*
X0152637Y0101558D01*
X0152655Y0101596D02*
X0155060Y0101596D01*
X0155124Y0101634D02*
X0152673Y0101634D01*
X0152691Y0101671D02*
X0155188Y0101671D01*
X0155259Y0101709D02*
X0152709Y0101709D01*
X0152730Y0101747D02*
X0155336Y0101747D01*
X0155414Y0101785D02*
X0152751Y0101785D01*
X0152771Y0101823D02*
X0155509Y0101823D01*
X0155606Y0101861D02*
X0152792Y0101861D01*
X0152813Y0101899D02*
X0155726Y0101899D01*
X0155858Y0101937D02*
X0152836Y0101937D01*
X0152860Y0101974D02*
X0156034Y0101974D01*
X0156361Y0102012D02*
X0152884Y0102012D01*
X0154537Y0105308D02*
X0158505Y0105308D01*
X0158579Y0105346D02*
X0154464Y0105346D01*
X0154390Y0105384D02*
X0158652Y0105384D01*
X0158718Y0105422D02*
X0154325Y0105422D01*
X0154136Y0105535D02*
X0158907Y0105535D01*
X0158965Y0105573D02*
X0154078Y0105573D01*
X0154019Y0105611D02*
X0159024Y0105611D01*
X0159076Y0105649D02*
X0153966Y0105649D01*
X0153914Y0105687D02*
X0159129Y0105687D01*
X0159181Y0105725D02*
X0153861Y0105725D01*
X0153811Y0105763D02*
X0159231Y0105763D01*
X0159279Y0105800D02*
X0153764Y0105800D01*
X0153717Y0105838D02*
X0159326Y0105838D01*
X0159374Y0105876D02*
X0153669Y0105876D01*
X0153625Y0105914D02*
X0159417Y0105914D01*
X0159460Y0105952D02*
X0153583Y0105952D01*
X0153540Y0105990D02*
X0159503Y0105990D01*
X0159546Y0106028D02*
X0153497Y0106028D01*
X0153458Y0106066D02*
X0159583Y0106066D01*
X0159621Y0106104D02*
X0153421Y0106104D01*
X0153383Y0106141D02*
X0159659Y0106141D01*
X0159697Y0106179D02*
X0153345Y0106179D01*
X0153310Y0106217D02*
X0159731Y0106217D01*
X0159765Y0106255D02*
X0153276Y0106255D01*
X0153242Y0106293D02*
X0159799Y0106293D01*
X0159833Y0106331D02*
X0153209Y0106331D01*
X0153176Y0106369D02*
X0159865Y0106369D01*
X0159895Y0106407D02*
X0153146Y0106407D01*
X0153115Y0106444D02*
X0159926Y0106444D01*
X0159956Y0106482D02*
X0153085Y0106482D01*
X0153055Y0106520D02*
X0159986Y0106520D01*
X0160014Y0106558D02*
X0153027Y0106558D01*
X0153000Y0106596D02*
X0160041Y0106596D01*
X0160068Y0106634D02*
X0152973Y0106634D01*
X0152946Y0106672D02*
X0160095Y0106672D01*
X0160122Y0106710D02*
X0152919Y0106710D01*
X0152895Y0106748D02*
X0160146Y0106748D01*
X0160170Y0106785D02*
X0152871Y0106785D01*
X0152847Y0106823D02*
X0160194Y0106823D01*
X0160218Y0106861D02*
X0152823Y0106861D01*
X0154614Y0105270D02*
X0158429Y0105270D01*
X0158345Y0105232D02*
X0154698Y0105232D01*
X0154781Y0105194D02*
X0158261Y0105194D01*
X0158166Y0105156D02*
X0154877Y0105156D01*
X0155671Y0111293D02*
X0160148Y0111293D01*
X0160122Y0111331D02*
X0155671Y0111331D01*
X0155671Y0111369D02*
X0160096Y0111369D01*
X0160069Y0111407D02*
X0155671Y0111407D01*
X0155671Y0111445D02*
X0160042Y0111445D01*
X0160016Y0111483D02*
X0155671Y0111483D01*
X0155671Y0111521D02*
X0159987Y0111521D01*
X0159957Y0111558D02*
X0155671Y0111558D01*
X0155671Y0111596D02*
X0159927Y0111596D01*
X0159897Y0111634D02*
X0155671Y0111634D01*
X0155671Y0111672D02*
X0159867Y0111672D01*
X0159833Y0111710D02*
X0155671Y0111710D01*
X0155671Y0111748D02*
X0159800Y0111748D01*
X0159767Y0111786D02*
X0155671Y0111786D01*
X0155671Y0111824D02*
X0159733Y0111824D01*
X0159697Y0111861D02*
X0155671Y0111861D01*
X0155671Y0111899D02*
X0159660Y0111899D01*
X0159623Y0111937D02*
X0155671Y0111937D01*
X0155671Y0111975D02*
X0159586Y0111975D01*
X0159548Y0112013D02*
X0155671Y0112013D01*
X0155671Y0112051D02*
X0159508Y0112051D01*
X0159469Y0112089D02*
X0155671Y0112089D01*
X0155671Y0112127D02*
X0159429Y0112127D01*
X0159388Y0112165D02*
X0155671Y0112165D01*
X0155671Y0112202D02*
X0159344Y0112202D01*
X0159300Y0112240D02*
X0155671Y0112240D01*
X0155671Y0112278D02*
X0159256Y0112278D01*
X0159209Y0112316D02*
X0155671Y0112316D01*
X0155671Y0112354D02*
X0159160Y0112354D01*
X0159111Y0112392D02*
X0155671Y0112392D01*
X0155671Y0112430D02*
X0159062Y0112430D01*
X0159007Y0112468D02*
X0155671Y0112468D01*
X0155671Y0112505D02*
X0158953Y0112505D01*
X0158898Y0112543D02*
X0155671Y0112543D01*
X0155671Y0112581D02*
X0158839Y0112581D01*
X0158777Y0112619D02*
X0155671Y0112619D01*
X0155671Y0112657D02*
X0158716Y0112657D01*
X0158650Y0112695D02*
X0155671Y0112695D01*
X0155671Y0112733D02*
X0158580Y0112733D01*
X0158511Y0112771D02*
X0155671Y0112771D01*
X0155671Y0112809D02*
X0158433Y0112809D01*
X0158354Y0112846D02*
X0155671Y0112846D01*
X0155671Y0112884D02*
X0158271Y0112884D01*
X0158180Y0112922D02*
X0155671Y0112922D01*
X0155672Y0112960D02*
X0158088Y0112960D01*
X0157980Y0112998D02*
X0155674Y0112998D01*
X0155677Y0113036D02*
X0157871Y0113036D01*
X0157742Y0113074D02*
X0155680Y0113074D01*
X0155682Y0113112D02*
X0157600Y0113112D01*
X0157437Y0113149D02*
X0155685Y0113149D01*
X0155881Y0113187D02*
X0157225Y0113187D01*
X0156860Y0113225D02*
X0156291Y0113225D01*
X0155024Y0112960D02*
X0155015Y0112960D01*
X0155026Y0112922D02*
X0154902Y0112922D01*
X0154793Y0112884D02*
X0155029Y0112884D01*
X0155031Y0112846D02*
X0154698Y0112846D01*
X0154604Y0112809D02*
X0155034Y0112809D01*
X0155037Y0112771D02*
X0154523Y0112771D01*
X0154442Y0112733D02*
X0155037Y0112733D01*
X0155037Y0112695D02*
X0154367Y0112695D01*
X0154297Y0112657D02*
X0155037Y0112657D01*
X0155037Y0112619D02*
X0154227Y0112619D01*
X0154163Y0112581D02*
X0155037Y0112581D01*
X0155037Y0112543D02*
X0154102Y0112543D01*
X0151914Y0118945D02*
X0151887Y0118945D01*
X0151914Y0118983D02*
X0151777Y0118983D01*
X0151674Y0119021D02*
X0151914Y0119021D01*
X0151914Y0119059D02*
X0151583Y0119059D01*
X0151493Y0119097D02*
X0151914Y0119097D01*
X0151914Y0119135D02*
X0151415Y0119135D01*
X0151338Y0119173D02*
X0151914Y0119173D01*
X0151914Y0119210D02*
X0151266Y0119210D01*
X0151200Y0119248D02*
X0151913Y0119248D01*
X0151913Y0119286D02*
X0151133Y0119286D01*
X0151072Y0119324D02*
X0151913Y0119324D01*
X0151913Y0119362D02*
X0151014Y0119362D01*
X0150957Y0119400D02*
X0151913Y0119400D01*
X0151913Y0119438D02*
X0150902Y0119438D01*
X0150851Y0119476D02*
X0151913Y0119476D01*
X0151913Y0119514D02*
X0150800Y0119514D01*
X0150750Y0119551D02*
X0151913Y0119551D01*
X0151913Y0119589D02*
X0150704Y0119589D01*
X0150659Y0119627D02*
X0151913Y0119627D01*
X0151913Y0119665D02*
X0150615Y0119665D01*
X0150570Y0119703D02*
X0151913Y0119703D01*
X0151913Y0119741D02*
X0150531Y0119741D01*
X0150492Y0119779D02*
X0151913Y0119779D01*
X0151913Y0119817D02*
X0150452Y0119817D01*
X0150413Y0119854D02*
X0151913Y0119854D01*
X0151913Y0119892D02*
X0150378Y0119892D01*
X0150343Y0119930D02*
X0151913Y0119930D01*
X0151913Y0119968D02*
X0150308Y0119968D01*
X0150274Y0120006D02*
X0151913Y0120006D01*
X0151912Y0120044D02*
X0150241Y0120044D01*
X0150211Y0120082D02*
X0151912Y0120082D01*
X0151912Y0120120D02*
X0150180Y0120120D01*
X0150149Y0120158D02*
X0151912Y0120158D01*
X0151912Y0120195D02*
X0150119Y0120195D01*
X0150092Y0120233D02*
X0151912Y0120233D01*
X0151912Y0120271D02*
X0150065Y0120271D01*
X0150038Y0120309D02*
X0151912Y0120309D01*
X0151912Y0120347D02*
X0150011Y0120347D01*
X0149985Y0120385D02*
X0151912Y0120385D01*
X0151912Y0120423D02*
X0149962Y0120423D01*
X0149938Y0120461D02*
X0151912Y0120461D01*
X0151912Y0120498D02*
X0149914Y0120498D01*
X0149891Y0120536D02*
X0151912Y0120536D01*
X0151912Y0120574D02*
X0149868Y0120574D01*
X0149847Y0120612D02*
X0151912Y0120612D01*
X0151912Y0120650D02*
X0149825Y0120650D01*
X0149804Y0120688D02*
X0151912Y0120688D01*
X0151912Y0120726D02*
X0149783Y0120726D01*
X0149762Y0120764D02*
X0151912Y0120764D01*
X0151911Y0120802D02*
X0149744Y0120802D01*
X0149725Y0120839D02*
X0151911Y0120839D01*
X0151911Y0120877D02*
X0149706Y0120877D01*
X0149688Y0120915D02*
X0151911Y0120915D01*
X0151911Y0120953D02*
X0149669Y0120953D01*
X0149652Y0120991D02*
X0151911Y0120991D01*
X0151911Y0121029D02*
X0149636Y0121029D01*
X0149620Y0121067D02*
X0151911Y0121067D01*
X0151911Y0121105D02*
X0149603Y0121105D01*
X0149587Y0121142D02*
X0151911Y0121142D01*
X0151880Y0121180D02*
X0149572Y0121180D01*
X0149557Y0121218D02*
X0151821Y0121218D01*
X0151761Y0121256D02*
X0149543Y0121256D01*
X0149529Y0121294D02*
X0151708Y0121294D01*
X0151664Y0121332D02*
X0149515Y0121332D01*
X0149501Y0121370D02*
X0151620Y0121370D01*
X0151576Y0121408D02*
X0149489Y0121408D01*
X0149477Y0121445D02*
X0151538Y0121445D01*
X0151506Y0121483D02*
X0149465Y0121483D01*
X0149453Y0121521D02*
X0151473Y0121521D01*
X0151441Y0121559D02*
X0149441Y0121559D01*
X0149429Y0121597D02*
X0151409Y0121597D01*
X0151385Y0121635D02*
X0149419Y0121635D01*
X0149409Y0121673D02*
X0151361Y0121673D01*
X0151337Y0121711D02*
X0149399Y0121711D01*
X0149389Y0121749D02*
X0151313Y0121749D01*
X0151289Y0121786D02*
X0149379Y0121786D01*
X0149371Y0121824D02*
X0151271Y0121824D01*
X0151253Y0121862D02*
X0149363Y0121862D01*
X0149355Y0121900D02*
X0151235Y0121900D01*
X0151217Y0121938D02*
X0149347Y0121938D01*
X0149339Y0121976D02*
X0151199Y0121976D01*
X0151183Y0122014D02*
X0149331Y0122014D01*
X0149325Y0122052D02*
X0151169Y0122052D01*
X0151154Y0122089D02*
X0149319Y0122089D01*
X0149313Y0122127D02*
X0151140Y0122127D01*
X0151125Y0122165D02*
X0149307Y0122165D01*
X0149301Y0122203D02*
X0151112Y0122203D01*
X0151101Y0122241D02*
X0149295Y0122241D01*
X0149291Y0122279D02*
X0151090Y0122279D01*
X0151079Y0122317D02*
X0149287Y0122317D01*
X0149283Y0122355D02*
X0151068Y0122355D01*
X0151057Y0122393D02*
X0149279Y0122393D01*
X0149274Y0122430D02*
X0151049Y0122430D01*
X0151041Y0122468D02*
X0149271Y0122468D01*
X0149269Y0122506D02*
X0151034Y0122506D01*
X0151026Y0122544D02*
X0149267Y0122544D01*
X0149264Y0122582D02*
X0151019Y0122582D01*
X0151011Y0122620D02*
X0149262Y0122620D01*
X0149260Y0122658D02*
X0151007Y0122658D01*
X0151003Y0122696D02*
X0149259Y0122696D01*
X0149258Y0122733D02*
X0150998Y0122733D01*
X0150994Y0122771D02*
X0149258Y0122771D01*
X0149257Y0122809D02*
X0150990Y0122809D01*
X0150986Y0122847D02*
X0149257Y0122847D01*
X0149256Y0122885D02*
X0150985Y0122885D01*
X0150983Y0122923D02*
X0149256Y0122923D01*
X0149256Y0122961D02*
X0150982Y0122961D01*
X0150981Y0122999D02*
X0149255Y0122999D01*
X0149255Y0123037D02*
X0150981Y0123037D01*
X0150982Y0123074D02*
X0149254Y0123074D01*
X0149254Y0123112D02*
X0150982Y0123112D01*
X0150983Y0123150D02*
X0149255Y0123150D01*
X0149256Y0123188D02*
X0150984Y0123188D01*
X0150984Y0123226D02*
X0149257Y0123226D01*
X0149258Y0123264D02*
X0150988Y0123264D01*
X0150993Y0123302D02*
X0149259Y0123302D01*
X0149261Y0123340D02*
X0150997Y0123340D01*
X0151001Y0123377D02*
X0149263Y0123377D01*
X0149267Y0123415D02*
X0151005Y0123415D01*
X0151010Y0123453D02*
X0149270Y0123453D01*
X0149273Y0123491D02*
X0151018Y0123491D01*
X0151025Y0123529D02*
X0149276Y0123529D01*
X0149280Y0123567D02*
X0151033Y0123567D01*
X0151041Y0123605D02*
X0149285Y0123605D01*
X0149290Y0123643D02*
X0151048Y0123643D01*
X0151057Y0123680D02*
X0149295Y0123680D01*
X0149301Y0123718D02*
X0151069Y0123718D01*
X0151080Y0123756D02*
X0149306Y0123756D01*
X0149311Y0123794D02*
X0151091Y0123794D01*
X0151103Y0123832D02*
X0149319Y0123832D01*
X0149326Y0123870D02*
X0151114Y0123870D01*
X0151129Y0123908D02*
X0149334Y0123908D01*
X0149341Y0123946D02*
X0151144Y0123946D01*
X0151159Y0123984D02*
X0149348Y0123984D01*
X0149356Y0124021D02*
X0151174Y0124021D01*
X0151190Y0124059D02*
X0149366Y0124059D01*
X0149376Y0124097D02*
X0151206Y0124097D01*
X0151225Y0124135D02*
X0149385Y0124135D01*
X0149395Y0124173D02*
X0151245Y0124173D01*
X0151264Y0124211D02*
X0149404Y0124211D01*
X0149415Y0124249D02*
X0151284Y0124249D01*
X0151303Y0124287D02*
X0149427Y0124287D01*
X0149438Y0124324D02*
X0151327Y0124324D01*
X0151351Y0124362D02*
X0149450Y0124362D01*
X0149462Y0124400D02*
X0151375Y0124400D01*
X0151399Y0124438D02*
X0149474Y0124438D01*
X0149488Y0124476D02*
X0151424Y0124476D01*
X0151453Y0124514D02*
X0149502Y0124514D01*
X0149515Y0124552D02*
X0151482Y0124552D01*
X0151511Y0124590D02*
X0149529Y0124590D01*
X0149543Y0124628D02*
X0151540Y0124628D01*
X0151572Y0124665D02*
X0149559Y0124665D01*
X0149575Y0124703D02*
X0151607Y0124703D01*
X0151642Y0124741D02*
X0149591Y0124741D01*
X0149608Y0124779D02*
X0151678Y0124779D01*
X0151714Y0124817D02*
X0149624Y0124817D01*
X0149640Y0124855D02*
X0151757Y0124855D01*
X0151800Y0124893D02*
X0149659Y0124893D01*
X0149678Y0124931D02*
X0151843Y0124931D01*
X0151889Y0124968D02*
X0149697Y0124968D01*
X0149716Y0125006D02*
X0151940Y0125006D01*
X0151992Y0125044D02*
X0149734Y0125044D01*
X0149755Y0125082D02*
X0152044Y0125082D01*
X0152103Y0125120D02*
X0149777Y0125120D01*
X0149798Y0125158D02*
X0152165Y0125158D01*
X0152226Y0125196D02*
X0149820Y0125196D01*
X0149841Y0125234D02*
X0152296Y0125234D01*
X0152370Y0125272D02*
X0149864Y0125272D01*
X0149888Y0125309D02*
X0152445Y0125309D01*
X0152537Y0125347D02*
X0149913Y0125347D01*
X0149937Y0125385D02*
X0152628Y0125385D01*
X0152740Y0125423D02*
X0149961Y0125423D01*
X0149987Y0125461D02*
X0152858Y0125461D01*
X0153017Y0125499D02*
X0150014Y0125499D01*
X0150041Y0125537D02*
X0153232Y0125537D01*
D13*
X0206066Y0117743D02*
X0208366Y0121143D01*
X0207966Y0121843D01*
X0207666Y0122543D01*
X0207366Y0123143D01*
X0214166Y0125543D01*
X0214502Y0124840D01*
X0214963Y0124211D01*
X0215533Y0123679D01*
X0216192Y0123262D01*
X0216917Y0122974D01*
X0217683Y0122826D01*
X0218462Y0122823D01*
X0219229Y0122965D01*
X0219956Y0123247D01*
X0220618Y0123659D01*
X0221192Y0124187D01*
X0221658Y0124813D01*
X0221999Y0125514D01*
X0222204Y0126266D01*
X0222266Y0127043D01*
X0222241Y0127834D01*
X0222068Y0128606D01*
X0221753Y0129331D01*
X0221308Y0129985D01*
X0220748Y0130544D01*
X0220094Y0130988D01*
X0219367Y0131301D01*
X0218595Y0131473D01*
X0217805Y0131496D01*
X0217024Y0131372D01*
X0216280Y0131102D01*
X0215600Y0130699D01*
X0215008Y0130175D01*
X0214524Y0129549D01*
X0214166Y0128843D01*
X0207466Y0131443D01*
X0208666Y0133543D01*
X0206266Y0136843D01*
X0207566Y0138143D01*
X0208966Y0139343D01*
X0212566Y0136943D01*
X0213366Y0137443D01*
X0215166Y0138043D01*
X0215866Y0138243D01*
X0216566Y0142243D01*
X0217666Y0142343D01*
X0218566Y0142343D01*
X0219366Y0142243D01*
X0220366Y0142143D01*
X0221066Y0138043D01*
X0222166Y0137643D01*
X0222766Y0137443D01*
X0223466Y0137043D01*
X0224266Y0136543D01*
X0227466Y0139043D01*
X0228166Y0138443D01*
X0228866Y0137743D01*
X0230266Y0136143D01*
X0227866Y0132743D01*
X0228266Y0131843D01*
X0228666Y0131043D01*
X0229066Y0129643D01*
X0233166Y0129043D01*
X0233166Y0125243D01*
X0229066Y0124443D01*
X0228766Y0123343D01*
X0227766Y0121343D01*
X0230166Y0117943D01*
X0229566Y0117243D01*
X0228166Y0115843D01*
X0227466Y0115243D01*
X0224066Y0117543D01*
X0223166Y0117043D01*
X0222266Y0116643D01*
X0220666Y0116043D01*
X0220066Y0112043D01*
X0218866Y0111943D01*
X0216266Y0111943D01*
X0215566Y0116143D01*
X0214566Y0116343D01*
X0213566Y0116743D01*
X0212666Y0117143D01*
X0211866Y0117543D01*
X0208666Y0115143D01*
X0207966Y0115743D01*
X0206566Y0117143D01*
X0206066Y0117743D01*
X0206103Y0117699D02*
X0229957Y0117699D01*
X0230127Y0117898D02*
X0206171Y0117898D01*
X0206305Y0118096D02*
X0230058Y0118096D01*
X0229918Y0118295D02*
X0206439Y0118295D01*
X0206573Y0118493D02*
X0229778Y0118493D01*
X0229638Y0118692D02*
X0206708Y0118692D01*
X0206842Y0118890D02*
X0229498Y0118890D01*
X0229358Y0119089D02*
X0206976Y0119089D01*
X0207111Y0119287D02*
X0229218Y0119287D01*
X0229077Y0119486D02*
X0207245Y0119486D01*
X0207379Y0119684D02*
X0228937Y0119684D01*
X0228797Y0119883D02*
X0207513Y0119883D01*
X0207648Y0120081D02*
X0228657Y0120081D01*
X0228517Y0120280D02*
X0207782Y0120280D01*
X0207916Y0120478D02*
X0228377Y0120478D01*
X0228237Y0120677D02*
X0208051Y0120677D01*
X0208185Y0120875D02*
X0228097Y0120875D01*
X0227956Y0121074D02*
X0208319Y0121074D01*
X0208293Y0121272D02*
X0227816Y0121272D01*
X0227830Y0121471D02*
X0208179Y0121471D01*
X0208066Y0121669D02*
X0227929Y0121669D01*
X0228028Y0121868D02*
X0207956Y0121868D01*
X0207871Y0122066D02*
X0228128Y0122066D01*
X0228227Y0122265D02*
X0207786Y0122265D01*
X0207700Y0122463D02*
X0228326Y0122463D01*
X0228425Y0122662D02*
X0207607Y0122662D01*
X0207508Y0122860D02*
X0217506Y0122860D01*
X0216703Y0123059D02*
X0207408Y0123059D01*
X0207689Y0123257D02*
X0216203Y0123257D01*
X0215885Y0123456D02*
X0208252Y0123456D01*
X0208814Y0123654D02*
X0215572Y0123654D01*
X0215347Y0123853D02*
X0209377Y0123853D01*
X0209939Y0124051D02*
X0215134Y0124051D01*
X0214935Y0124250D02*
X0210502Y0124250D01*
X0211064Y0124448D02*
X0214789Y0124448D01*
X0214644Y0124647D02*
X0211627Y0124647D01*
X0212189Y0124845D02*
X0214500Y0124845D01*
X0214405Y0125044D02*
X0212751Y0125044D01*
X0213314Y0125242D02*
X0214310Y0125242D01*
X0214215Y0125441D02*
X0213876Y0125441D01*
X0213726Y0129014D02*
X0214253Y0129014D01*
X0214354Y0129213D02*
X0213214Y0129213D01*
X0212703Y0129411D02*
X0214454Y0129411D01*
X0214571Y0129610D02*
X0212191Y0129610D01*
X0211680Y0129808D02*
X0214724Y0129808D01*
X0214878Y0130007D02*
X0211168Y0130007D01*
X0210657Y0130205D02*
X0215042Y0130205D01*
X0215267Y0130404D02*
X0210145Y0130404D01*
X0209633Y0130602D02*
X0215491Y0130602D01*
X0215772Y0130801D02*
X0209122Y0130801D01*
X0208610Y0130999D02*
X0216106Y0130999D01*
X0216544Y0131198D02*
X0208099Y0131198D01*
X0207587Y0131396D02*
X0217179Y0131396D01*
X0218939Y0131396D02*
X0228490Y0131396D01*
X0228589Y0131198D02*
X0219607Y0131198D01*
X0220067Y0130999D02*
X0228679Y0130999D01*
X0228735Y0130801D02*
X0220369Y0130801D01*
X0220662Y0130602D02*
X0228792Y0130602D01*
X0228849Y0130404D02*
X0220889Y0130404D01*
X0221088Y0130205D02*
X0228906Y0130205D01*
X0228962Y0130007D02*
X0221286Y0130007D01*
X0221429Y0129808D02*
X0229019Y0129808D01*
X0229296Y0129610D02*
X0221564Y0129610D01*
X0221699Y0129411D02*
X0230652Y0129411D01*
X0232009Y0129213D02*
X0221805Y0129213D01*
X0221891Y0129014D02*
X0233166Y0129014D01*
X0233166Y0128816D02*
X0221977Y0128816D01*
X0222063Y0128617D02*
X0233166Y0128617D01*
X0233166Y0128419D02*
X0222110Y0128419D01*
X0222154Y0128220D02*
X0233166Y0128220D01*
X0233166Y0128022D02*
X0222199Y0128022D01*
X0222241Y0127823D02*
X0233166Y0127823D01*
X0233166Y0127625D02*
X0222248Y0127625D01*
X0222254Y0127426D02*
X0233166Y0127426D01*
X0233166Y0127228D02*
X0222260Y0127228D01*
X0222265Y0127029D02*
X0233166Y0127029D01*
X0233166Y0126831D02*
X0222249Y0126831D01*
X0222233Y0126632D02*
X0233166Y0126632D01*
X0233166Y0126434D02*
X0222218Y0126434D01*
X0222196Y0126235D02*
X0233166Y0126235D01*
X0233166Y0126037D02*
X0222142Y0126037D01*
X0222087Y0125838D02*
X0233166Y0125838D01*
X0233166Y0125640D02*
X0222033Y0125640D01*
X0221964Y0125441D02*
X0233166Y0125441D01*
X0233162Y0125242D02*
X0221867Y0125242D01*
X0221770Y0125044D02*
X0232145Y0125044D01*
X0231127Y0124845D02*
X0221673Y0124845D01*
X0221534Y0124647D02*
X0230110Y0124647D01*
X0229093Y0124448D02*
X0221386Y0124448D01*
X0221238Y0124250D02*
X0229013Y0124250D01*
X0228959Y0124051D02*
X0221044Y0124051D01*
X0220828Y0123853D02*
X0228905Y0123853D01*
X0228851Y0123654D02*
X0220610Y0123654D01*
X0220291Y0123456D02*
X0228797Y0123456D01*
X0228723Y0123257D02*
X0219972Y0123257D01*
X0219470Y0123059D02*
X0228624Y0123059D01*
X0228525Y0122860D02*
X0218662Y0122860D01*
X0221376Y0116309D02*
X0214735Y0116309D01*
X0214154Y0116508D02*
X0221905Y0116508D01*
X0222408Y0116707D02*
X0213658Y0116707D01*
X0213202Y0116905D02*
X0222855Y0116905D01*
X0223275Y0117104D02*
X0212756Y0117104D01*
X0212349Y0117302D02*
X0223632Y0117302D01*
X0223989Y0117501D02*
X0211952Y0117501D01*
X0211809Y0117501D02*
X0206269Y0117501D01*
X0206434Y0117302D02*
X0211545Y0117302D01*
X0211280Y0117104D02*
X0206606Y0117104D01*
X0206805Y0116905D02*
X0211015Y0116905D01*
X0210750Y0116707D02*
X0207003Y0116707D01*
X0207202Y0116508D02*
X0210486Y0116508D01*
X0210221Y0116309D02*
X0207400Y0116309D01*
X0207599Y0116111D02*
X0209956Y0116111D01*
X0209692Y0115912D02*
X0207797Y0115912D01*
X0208000Y0115714D02*
X0209427Y0115714D01*
X0209162Y0115515D02*
X0208232Y0115515D01*
X0208464Y0115317D02*
X0208898Y0115317D01*
X0215572Y0116111D02*
X0220847Y0116111D01*
X0220647Y0115912D02*
X0215605Y0115912D01*
X0215638Y0115714D02*
X0220617Y0115714D01*
X0220587Y0115515D02*
X0215671Y0115515D01*
X0215704Y0115317D02*
X0220557Y0115317D01*
X0220527Y0115118D02*
X0215737Y0115118D01*
X0215770Y0114920D02*
X0220498Y0114920D01*
X0220468Y0114721D02*
X0215803Y0114721D01*
X0215836Y0114523D02*
X0220438Y0114523D01*
X0220408Y0114324D02*
X0215869Y0114324D01*
X0215902Y0114126D02*
X0220379Y0114126D01*
X0220349Y0113927D02*
X0215936Y0113927D01*
X0215969Y0113729D02*
X0220319Y0113729D01*
X0220289Y0113530D02*
X0216002Y0113530D01*
X0216035Y0113332D02*
X0220259Y0113332D01*
X0220230Y0113133D02*
X0216068Y0113133D01*
X0216101Y0112935D02*
X0220200Y0112935D01*
X0220170Y0112736D02*
X0216134Y0112736D01*
X0216167Y0112538D02*
X0220140Y0112538D01*
X0220111Y0112339D02*
X0216200Y0112339D01*
X0216233Y0112141D02*
X0220081Y0112141D01*
X0224129Y0117501D02*
X0229787Y0117501D01*
X0229617Y0117302D02*
X0224423Y0117302D01*
X0224716Y0117104D02*
X0229426Y0117104D01*
X0229228Y0116905D02*
X0225010Y0116905D01*
X0225303Y0116707D02*
X0229029Y0116707D01*
X0228831Y0116508D02*
X0225597Y0116508D01*
X0225890Y0116309D02*
X0228632Y0116309D01*
X0228434Y0116111D02*
X0226184Y0116111D01*
X0226477Y0115912D02*
X0228235Y0115912D01*
X0228015Y0115714D02*
X0226770Y0115714D01*
X0227064Y0115515D02*
X0227784Y0115515D01*
X0227552Y0115317D02*
X0227357Y0115317D01*
X0228390Y0131595D02*
X0207553Y0131595D01*
X0207666Y0131793D02*
X0228291Y0131793D01*
X0228200Y0131992D02*
X0207780Y0131992D01*
X0207893Y0132190D02*
X0228112Y0132190D01*
X0228024Y0132389D02*
X0208007Y0132389D01*
X0208120Y0132587D02*
X0227935Y0132587D01*
X0227896Y0132786D02*
X0208233Y0132786D01*
X0208347Y0132984D02*
X0228036Y0132984D01*
X0228177Y0133183D02*
X0208460Y0133183D01*
X0208574Y0133381D02*
X0228317Y0133381D01*
X0228457Y0133580D02*
X0208640Y0133580D01*
X0208495Y0133778D02*
X0228597Y0133778D01*
X0228737Y0133977D02*
X0208351Y0133977D01*
X0208206Y0134176D02*
X0228877Y0134176D01*
X0229017Y0134374D02*
X0208062Y0134374D01*
X0207918Y0134573D02*
X0229157Y0134573D01*
X0229298Y0134771D02*
X0207773Y0134771D01*
X0207629Y0134970D02*
X0229438Y0134970D01*
X0229578Y0135168D02*
X0207485Y0135168D01*
X0207340Y0135367D02*
X0229718Y0135367D01*
X0229858Y0135565D02*
X0207196Y0135565D01*
X0207051Y0135764D02*
X0229998Y0135764D01*
X0230138Y0135962D02*
X0206907Y0135962D01*
X0206763Y0136161D02*
X0230251Y0136161D01*
X0230077Y0136359D02*
X0206618Y0136359D01*
X0206474Y0136558D02*
X0224243Y0136558D01*
X0224285Y0136558D02*
X0229904Y0136558D01*
X0229730Y0136756D02*
X0224539Y0136756D01*
X0224793Y0136955D02*
X0229556Y0136955D01*
X0229383Y0137153D02*
X0225047Y0137153D01*
X0225301Y0137352D02*
X0229209Y0137352D01*
X0229035Y0137550D02*
X0225555Y0137550D01*
X0225809Y0137749D02*
X0228861Y0137749D01*
X0228662Y0137947D02*
X0226063Y0137947D01*
X0226317Y0138146D02*
X0228464Y0138146D01*
X0228265Y0138344D02*
X0226571Y0138344D01*
X0226826Y0138543D02*
X0228050Y0138543D01*
X0227819Y0138741D02*
X0227080Y0138741D01*
X0227334Y0138940D02*
X0227587Y0138940D01*
X0223926Y0136756D02*
X0206330Y0136756D01*
X0206378Y0136955D02*
X0212549Y0136955D01*
X0212584Y0136955D02*
X0223608Y0136955D01*
X0223274Y0137153D02*
X0212902Y0137153D01*
X0213220Y0137352D02*
X0222927Y0137352D01*
X0222446Y0137550D02*
X0213687Y0137550D01*
X0214282Y0137749D02*
X0221876Y0137749D01*
X0221330Y0137947D02*
X0214878Y0137947D01*
X0215525Y0138146D02*
X0221049Y0138146D01*
X0221015Y0138344D02*
X0215884Y0138344D01*
X0215919Y0138543D02*
X0220981Y0138543D01*
X0220947Y0138741D02*
X0215953Y0138741D01*
X0215988Y0138940D02*
X0220913Y0138940D01*
X0220879Y0139138D02*
X0216023Y0139138D01*
X0216058Y0139337D02*
X0220845Y0139337D01*
X0220811Y0139535D02*
X0216092Y0139535D01*
X0216127Y0139734D02*
X0220778Y0139734D01*
X0220744Y0139932D02*
X0216162Y0139932D01*
X0216197Y0140131D02*
X0220710Y0140131D01*
X0220676Y0140329D02*
X0216231Y0140329D01*
X0216266Y0140528D02*
X0220642Y0140528D01*
X0220608Y0140726D02*
X0216301Y0140726D01*
X0216335Y0140925D02*
X0220574Y0140925D01*
X0220540Y0141123D02*
X0216370Y0141123D01*
X0216405Y0141322D02*
X0220506Y0141322D01*
X0220473Y0141520D02*
X0216440Y0141520D01*
X0216474Y0141719D02*
X0220439Y0141719D01*
X0220405Y0141917D02*
X0216509Y0141917D01*
X0216544Y0142116D02*
X0220371Y0142116D01*
X0218797Y0142314D02*
X0217349Y0142314D01*
X0212251Y0137153D02*
X0206576Y0137153D01*
X0206775Y0137352D02*
X0211954Y0137352D01*
X0211656Y0137550D02*
X0206973Y0137550D01*
X0207172Y0137749D02*
X0211358Y0137749D01*
X0211060Y0137947D02*
X0207370Y0137947D01*
X0207569Y0138146D02*
X0210763Y0138146D01*
X0210465Y0138344D02*
X0207801Y0138344D01*
X0208032Y0138543D02*
X0210167Y0138543D01*
X0209869Y0138741D02*
X0208264Y0138741D01*
X0208495Y0138940D02*
X0209572Y0138940D01*
X0209274Y0139138D02*
X0208727Y0139138D01*
X0208959Y0139337D02*
X0208976Y0139337D01*
D14*
X0172791Y0148697D02*
X0172791Y0164445D01*
X0149169Y0164445D02*
X0149169Y0148697D01*
X0145232Y0148697D02*
X0145232Y0164445D01*
X0121610Y0164445D02*
X0121610Y0148697D01*
X0121610Y0109327D02*
X0121610Y0093579D01*
X0145232Y0093579D02*
X0145232Y0109327D01*
X0149169Y0109327D02*
X0149169Y0093579D01*
X0172791Y0093579D02*
X0172791Y0109327D01*
M02*
