%
M48
M72
T01C0.01378
T02C0.03937
T03C0.11811
%
T01
X184602Y170350
X196413Y166413
X196413Y158539
X196413Y150665
X196413Y142791
X194444Y138854
X196413Y130980
X200350Y130980
X189007Y131543
X178696Y134917
X178696Y138854
X155074Y152634
X146806Y161689
X134523Y153177
X131452Y156571
X131452Y160508
X119641Y164445
X90113Y190035
X131452Y75862
X149169Y93579
X145232Y97516
X136491Y98146
X132554Y98146
X132554Y102083
X147190Y105400
X153106Y107358
X162948Y107358
X166885Y98303
X160980Y95547
X175547Y87280
X178696Y91610
X186570Y93579
X194444Y85705
X186570Y103421
X204287Y121138
X208224Y140823
X216098Y140823
X227909Y142791
X227909Y150665
X227909Y158539
X227909Y166413
X216098Y168382
X208224Y168382
X172791Y162476
X235783Y130980
X259405Y148697
X241688Y174287
X263342Y87673
X265310Y67988
X239720Y66020
X101924Y93579
X82239Y134917
T02
X103893Y84917
X92476Y103421
X115704Y103421
X153106Y71925
X163106Y71925
X178696Y71925
X188696Y71925
X204877Y71925
X214877Y71925
X224877Y71925
X234877Y71925
X244877Y71925
X254877Y71925
X260980Y97516
X237751Y97516
X249562Y116020
X115704Y154602
X92476Y154602
X103893Y136098
T03
X149169Y129012
X255468Y129012
M30
