G75*
%MOIN*%
%OFA0B0*%
%FSLAX25Y25*%
%IPPOS*%
%LPD*%
%AMOC8*
5,1,8,0,0,1.08239X$1,22.5*
%
%ADD10C,0.00000*%
%ADD11C,0.01388*%
%ADD12C,0.01171*%
%ADD13R,0.03156X0.03156*%
%ADD14R,0.01975X0.03550*%
%ADD15R,0.03550X0.01975*%
%ADD16R,0.06109X0.06109*%
%ADD17R,0.07400X0.07400*%
%ADD18C,0.07400*%
%ADD19C,0.13455*%
%ADD20C,0.05833*%
%ADD21C,0.09061*%
%ADD22C,0.01105*%
D10*
X0072397Y0058146D02*
X0253499Y0058146D01*
X0253689Y0058148D01*
X0253879Y0058155D01*
X0254069Y0058167D01*
X0254259Y0058183D01*
X0254448Y0058203D01*
X0254637Y0058229D01*
X0254825Y0058258D01*
X0255012Y0058293D01*
X0255198Y0058332D01*
X0255383Y0058375D01*
X0255568Y0058423D01*
X0255751Y0058475D01*
X0255932Y0058531D01*
X0256112Y0058592D01*
X0256291Y0058658D01*
X0256468Y0058727D01*
X0256644Y0058801D01*
X0256817Y0058879D01*
X0256989Y0058962D01*
X0257158Y0059048D01*
X0257326Y0059138D01*
X0257491Y0059233D01*
X0257654Y0059331D01*
X0257814Y0059434D01*
X0257972Y0059540D01*
X0258127Y0059650D01*
X0258280Y0059763D01*
X0258430Y0059881D01*
X0258576Y0060002D01*
X0258720Y0060126D01*
X0258861Y0060254D01*
X0258999Y0060385D01*
X0259134Y0060520D01*
X0259265Y0060658D01*
X0259393Y0060799D01*
X0259517Y0060943D01*
X0259638Y0061089D01*
X0259756Y0061239D01*
X0259869Y0061392D01*
X0259979Y0061547D01*
X0260085Y0061705D01*
X0260188Y0061865D01*
X0260286Y0062028D01*
X0260381Y0062193D01*
X0260471Y0062361D01*
X0260557Y0062530D01*
X0260640Y0062702D01*
X0260718Y0062875D01*
X0260792Y0063051D01*
X0260861Y0063228D01*
X0260927Y0063407D01*
X0260988Y0063587D01*
X0261044Y0063768D01*
X0261096Y0063951D01*
X0261144Y0064136D01*
X0261187Y0064321D01*
X0261226Y0064507D01*
X0261261Y0064694D01*
X0261290Y0064882D01*
X0261316Y0065071D01*
X0261336Y0065260D01*
X0261352Y0065450D01*
X0261364Y0065640D01*
X0261371Y0065830D01*
X0261373Y0066020D01*
X0261373Y0170350D01*
X0261371Y0170540D01*
X0261364Y0170730D01*
X0261352Y0170920D01*
X0261336Y0171110D01*
X0261316Y0171299D01*
X0261290Y0171488D01*
X0261261Y0171676D01*
X0261226Y0171863D01*
X0261187Y0172049D01*
X0261144Y0172234D01*
X0261096Y0172419D01*
X0261044Y0172602D01*
X0260988Y0172783D01*
X0260927Y0172963D01*
X0260861Y0173142D01*
X0260792Y0173319D01*
X0260718Y0173495D01*
X0260640Y0173668D01*
X0260557Y0173840D01*
X0260471Y0174009D01*
X0260381Y0174177D01*
X0260286Y0174342D01*
X0260188Y0174505D01*
X0260085Y0174665D01*
X0259979Y0174823D01*
X0259869Y0174978D01*
X0259756Y0175131D01*
X0259638Y0175281D01*
X0259517Y0175427D01*
X0259393Y0175571D01*
X0259265Y0175712D01*
X0259134Y0175850D01*
X0258999Y0175985D01*
X0258861Y0176116D01*
X0258720Y0176244D01*
X0258576Y0176368D01*
X0258430Y0176489D01*
X0258280Y0176607D01*
X0258127Y0176720D01*
X0257972Y0176830D01*
X0257814Y0176936D01*
X0257654Y0177039D01*
X0257491Y0177137D01*
X0257326Y0177232D01*
X0257158Y0177322D01*
X0256989Y0177408D01*
X0256817Y0177491D01*
X0256644Y0177569D01*
X0256468Y0177643D01*
X0256291Y0177712D01*
X0256112Y0177778D01*
X0255932Y0177839D01*
X0255751Y0177895D01*
X0255568Y0177947D01*
X0255383Y0177995D01*
X0255198Y0178038D01*
X0255012Y0178077D01*
X0254825Y0178112D01*
X0254637Y0178141D01*
X0254448Y0178167D01*
X0254259Y0178187D01*
X0254069Y0178203D01*
X0253879Y0178215D01*
X0253689Y0178222D01*
X0253499Y0178224D01*
X0172791Y0178224D01*
X0172601Y0178226D01*
X0172411Y0178233D01*
X0172221Y0178245D01*
X0172031Y0178261D01*
X0171842Y0178281D01*
X0171653Y0178307D01*
X0171465Y0178336D01*
X0171278Y0178371D01*
X0171092Y0178410D01*
X0170907Y0178453D01*
X0170722Y0178501D01*
X0170539Y0178553D01*
X0170358Y0178609D01*
X0170178Y0178670D01*
X0169999Y0178736D01*
X0169822Y0178805D01*
X0169646Y0178879D01*
X0169473Y0178957D01*
X0169301Y0179040D01*
X0169132Y0179126D01*
X0168964Y0179216D01*
X0168799Y0179311D01*
X0168636Y0179409D01*
X0168476Y0179512D01*
X0168318Y0179618D01*
X0168163Y0179728D01*
X0168010Y0179841D01*
X0167860Y0179959D01*
X0167714Y0180080D01*
X0167570Y0180204D01*
X0167429Y0180332D01*
X0167291Y0180463D01*
X0167156Y0180598D01*
X0167025Y0180736D01*
X0166897Y0180877D01*
X0166773Y0181021D01*
X0166652Y0181167D01*
X0166534Y0181317D01*
X0166421Y0181470D01*
X0166311Y0181625D01*
X0166205Y0181783D01*
X0166102Y0181943D01*
X0166004Y0182106D01*
X0165909Y0182271D01*
X0165819Y0182439D01*
X0165733Y0182608D01*
X0165650Y0182780D01*
X0165572Y0182953D01*
X0165498Y0183129D01*
X0165429Y0183306D01*
X0165363Y0183485D01*
X0165302Y0183665D01*
X0165246Y0183846D01*
X0165194Y0184029D01*
X0165146Y0184214D01*
X0165103Y0184399D01*
X0165064Y0184585D01*
X0165029Y0184772D01*
X0165000Y0184960D01*
X0164974Y0185149D01*
X0164954Y0185338D01*
X0164938Y0185528D01*
X0164926Y0185718D01*
X0164919Y0185908D01*
X0164917Y0186098D01*
X0164917Y0192004D01*
X0164915Y0192194D01*
X0164908Y0192384D01*
X0164896Y0192574D01*
X0164880Y0192764D01*
X0164860Y0192953D01*
X0164834Y0193142D01*
X0164805Y0193330D01*
X0164770Y0193517D01*
X0164731Y0193703D01*
X0164688Y0193888D01*
X0164640Y0194073D01*
X0164588Y0194256D01*
X0164532Y0194437D01*
X0164471Y0194617D01*
X0164405Y0194796D01*
X0164336Y0194973D01*
X0164262Y0195149D01*
X0164184Y0195322D01*
X0164101Y0195494D01*
X0164015Y0195663D01*
X0163925Y0195831D01*
X0163830Y0195996D01*
X0163732Y0196159D01*
X0163629Y0196319D01*
X0163523Y0196477D01*
X0163413Y0196632D01*
X0163300Y0196785D01*
X0163182Y0196935D01*
X0163061Y0197081D01*
X0162937Y0197225D01*
X0162809Y0197366D01*
X0162678Y0197504D01*
X0162543Y0197639D01*
X0162405Y0197770D01*
X0162264Y0197898D01*
X0162120Y0198022D01*
X0161974Y0198143D01*
X0161824Y0198261D01*
X0161671Y0198374D01*
X0161516Y0198484D01*
X0161358Y0198590D01*
X0161198Y0198693D01*
X0161035Y0198791D01*
X0160870Y0198886D01*
X0160702Y0198976D01*
X0160533Y0199062D01*
X0160361Y0199145D01*
X0160188Y0199223D01*
X0160012Y0199297D01*
X0159835Y0199366D01*
X0159656Y0199432D01*
X0159476Y0199493D01*
X0159295Y0199549D01*
X0159112Y0199601D01*
X0158927Y0199649D01*
X0158742Y0199692D01*
X0158556Y0199731D01*
X0158369Y0199766D01*
X0158181Y0199795D01*
X0157992Y0199821D01*
X0157803Y0199841D01*
X0157613Y0199857D01*
X0157423Y0199869D01*
X0157233Y0199876D01*
X0157043Y0199878D01*
X0072397Y0199878D01*
X0072207Y0199876D01*
X0072017Y0199869D01*
X0071827Y0199857D01*
X0071637Y0199841D01*
X0071448Y0199821D01*
X0071259Y0199795D01*
X0071071Y0199766D01*
X0070884Y0199731D01*
X0070698Y0199692D01*
X0070513Y0199649D01*
X0070328Y0199601D01*
X0070145Y0199549D01*
X0069964Y0199493D01*
X0069784Y0199432D01*
X0069605Y0199366D01*
X0069428Y0199297D01*
X0069252Y0199223D01*
X0069079Y0199145D01*
X0068907Y0199062D01*
X0068738Y0198976D01*
X0068570Y0198886D01*
X0068405Y0198791D01*
X0068242Y0198693D01*
X0068082Y0198590D01*
X0067924Y0198484D01*
X0067769Y0198374D01*
X0067616Y0198261D01*
X0067466Y0198143D01*
X0067320Y0198022D01*
X0067176Y0197898D01*
X0067035Y0197770D01*
X0066897Y0197639D01*
X0066762Y0197504D01*
X0066631Y0197366D01*
X0066503Y0197225D01*
X0066379Y0197081D01*
X0066258Y0196935D01*
X0066140Y0196785D01*
X0066027Y0196632D01*
X0065917Y0196477D01*
X0065811Y0196319D01*
X0065708Y0196159D01*
X0065610Y0195996D01*
X0065515Y0195831D01*
X0065425Y0195663D01*
X0065339Y0195494D01*
X0065256Y0195322D01*
X0065178Y0195149D01*
X0065104Y0194973D01*
X0065035Y0194796D01*
X0064969Y0194617D01*
X0064908Y0194437D01*
X0064852Y0194256D01*
X0064800Y0194073D01*
X0064752Y0193888D01*
X0064709Y0193703D01*
X0064670Y0193517D01*
X0064635Y0193330D01*
X0064606Y0193142D01*
X0064580Y0192953D01*
X0064560Y0192764D01*
X0064544Y0192574D01*
X0064532Y0192384D01*
X0064525Y0192194D01*
X0064523Y0192004D01*
X0064523Y0066020D01*
X0064525Y0065830D01*
X0064532Y0065640D01*
X0064544Y0065450D01*
X0064560Y0065260D01*
X0064580Y0065071D01*
X0064606Y0064882D01*
X0064635Y0064694D01*
X0064670Y0064507D01*
X0064709Y0064321D01*
X0064752Y0064136D01*
X0064800Y0063951D01*
X0064852Y0063768D01*
X0064908Y0063587D01*
X0064969Y0063407D01*
X0065035Y0063228D01*
X0065104Y0063051D01*
X0065178Y0062875D01*
X0065256Y0062702D01*
X0065339Y0062530D01*
X0065425Y0062361D01*
X0065515Y0062193D01*
X0065610Y0062028D01*
X0065708Y0061865D01*
X0065811Y0061705D01*
X0065917Y0061547D01*
X0066027Y0061392D01*
X0066140Y0061239D01*
X0066258Y0061089D01*
X0066379Y0060943D01*
X0066503Y0060799D01*
X0066631Y0060658D01*
X0066762Y0060520D01*
X0066897Y0060385D01*
X0067035Y0060254D01*
X0067176Y0060126D01*
X0067320Y0060002D01*
X0067466Y0059881D01*
X0067616Y0059763D01*
X0067769Y0059650D01*
X0067924Y0059540D01*
X0068082Y0059434D01*
X0068242Y0059331D01*
X0068405Y0059233D01*
X0068570Y0059138D01*
X0068738Y0059048D01*
X0068907Y0058962D01*
X0069079Y0058879D01*
X0069252Y0058801D01*
X0069428Y0058727D01*
X0069605Y0058658D01*
X0069784Y0058592D01*
X0069964Y0058531D01*
X0070145Y0058475D01*
X0070328Y0058423D01*
X0070513Y0058375D01*
X0070698Y0058332D01*
X0070884Y0058293D01*
X0071071Y0058258D01*
X0071259Y0058229D01*
X0071448Y0058203D01*
X0071637Y0058183D01*
X0071827Y0058167D01*
X0072017Y0058155D01*
X0072207Y0058148D01*
X0072397Y0058146D01*
D11*
X0132537Y0110998D02*
X0135485Y0110998D01*
X0135485Y0107656D01*
X0132537Y0107656D01*
X0132537Y0110998D01*
X0132537Y0108975D02*
X0135485Y0108975D01*
X0135485Y0110294D02*
X0132537Y0110294D01*
X0139230Y0110998D02*
X0142178Y0110998D01*
X0142178Y0107656D01*
X0139230Y0107656D01*
X0139230Y0110998D01*
X0139230Y0108975D02*
X0142178Y0108975D01*
X0142178Y0110294D02*
X0139230Y0110294D01*
X0150840Y0104305D02*
X0150840Y0101357D01*
X0147498Y0101357D01*
X0147498Y0104305D01*
X0150840Y0104305D01*
X0150840Y0102676D02*
X0147498Y0102676D01*
X0147498Y0103995D02*
X0150840Y0103995D01*
X0150840Y0097612D02*
X0150840Y0094664D01*
X0147498Y0094664D01*
X0147498Y0097612D01*
X0150840Y0097612D01*
X0150840Y0095983D02*
X0147498Y0095983D01*
X0147498Y0097302D02*
X0150840Y0097302D01*
X0166002Y0099187D02*
X0168950Y0099187D01*
X0168950Y0095845D01*
X0166002Y0095845D01*
X0166002Y0099187D01*
X0166002Y0097164D02*
X0168950Y0097164D01*
X0168950Y0098483D02*
X0166002Y0098483D01*
X0172695Y0099187D02*
X0175643Y0099187D01*
X0175643Y0095845D01*
X0172695Y0095845D01*
X0172695Y0099187D01*
X0172695Y0097164D02*
X0175643Y0097164D01*
X0175643Y0098483D02*
X0172695Y0098483D01*
X0178994Y0097420D02*
X0178994Y0100368D01*
X0182336Y0100368D01*
X0182336Y0097420D01*
X0178994Y0097420D01*
X0178994Y0098739D02*
X0182336Y0098739D01*
X0182336Y0100058D02*
X0178994Y0100058D01*
X0178994Y0093675D02*
X0178994Y0090727D01*
X0178994Y0093675D02*
X0182336Y0093675D01*
X0182336Y0090727D01*
X0178994Y0090727D01*
X0178994Y0092046D02*
X0182336Y0092046D01*
X0182336Y0093365D02*
X0178994Y0093365D01*
X0178600Y0085407D02*
X0181548Y0085407D01*
X0181548Y0082065D01*
X0178600Y0082065D01*
X0178600Y0085407D01*
X0178600Y0083384D02*
X0181548Y0083384D01*
X0181548Y0084703D02*
X0178600Y0084703D01*
X0174855Y0085407D02*
X0171907Y0085407D01*
X0174855Y0085407D02*
X0174855Y0082065D01*
X0171907Y0082065D01*
X0171907Y0085407D01*
X0171907Y0083384D02*
X0174855Y0083384D01*
X0174855Y0084703D02*
X0171907Y0084703D01*
X0169737Y0082065D02*
X0166789Y0082065D01*
X0166789Y0085407D01*
X0169737Y0085407D01*
X0169737Y0082065D01*
X0169737Y0083384D02*
X0166789Y0083384D01*
X0166789Y0084703D02*
X0169737Y0084703D01*
X0163044Y0082065D02*
X0160096Y0082065D01*
X0160096Y0085407D01*
X0163044Y0085407D01*
X0163044Y0082065D01*
X0163044Y0083384D02*
X0160096Y0083384D01*
X0160096Y0084703D02*
X0163044Y0084703D01*
X0167970Y0119467D02*
X0170918Y0119467D01*
X0167970Y0119467D02*
X0167970Y0122809D01*
X0170918Y0122809D01*
X0170918Y0119467D01*
X0170918Y0120786D02*
X0167970Y0120786D01*
X0167970Y0122105D02*
X0170918Y0122105D01*
X0174663Y0119467D02*
X0177611Y0119467D01*
X0174663Y0119467D02*
X0174663Y0122809D01*
X0177611Y0122809D01*
X0177611Y0119467D01*
X0177611Y0120786D02*
X0174663Y0120786D01*
X0174663Y0122105D02*
X0177611Y0122105D01*
X0150840Y0149782D02*
X0150840Y0152730D01*
X0150840Y0149782D02*
X0147498Y0149782D01*
X0147498Y0152730D01*
X0150840Y0152730D01*
X0150840Y0151101D02*
X0147498Y0151101D01*
X0147498Y0152420D02*
X0150840Y0152420D01*
X0150840Y0156475D02*
X0150840Y0159423D01*
X0150840Y0156475D02*
X0147498Y0156475D01*
X0147498Y0159423D01*
X0150840Y0159423D01*
X0150840Y0157794D02*
X0147498Y0157794D01*
X0147498Y0159113D02*
X0150840Y0159113D01*
X0142178Y0166116D02*
X0139230Y0166116D01*
X0142178Y0166116D02*
X0142178Y0162774D01*
X0139230Y0162774D01*
X0139230Y0166116D01*
X0139230Y0164093D02*
X0142178Y0164093D01*
X0142178Y0165412D02*
X0139230Y0165412D01*
X0135485Y0166116D02*
X0132537Y0166116D01*
X0135485Y0166116D02*
X0135485Y0162774D01*
X0132537Y0162774D01*
X0132537Y0166116D01*
X0132537Y0164093D02*
X0135485Y0164093D01*
X0135485Y0165412D02*
X0132537Y0165412D01*
X0161277Y0166317D02*
X0161277Y0169265D01*
X0164619Y0169265D01*
X0164619Y0166317D01*
X0161277Y0166317D01*
X0161277Y0167636D02*
X0164619Y0167636D01*
X0164619Y0168955D02*
X0161277Y0168955D01*
X0161277Y0162572D02*
X0161277Y0159624D01*
X0161277Y0162572D02*
X0164619Y0162572D01*
X0164619Y0159624D01*
X0161277Y0159624D01*
X0161277Y0160943D02*
X0164619Y0160943D01*
X0164619Y0162262D02*
X0161277Y0162262D01*
D12*
X0142288Y0158351D02*
X0139908Y0158351D01*
X0142288Y0158351D02*
X0142288Y0155579D01*
X0139908Y0155579D01*
X0139908Y0158351D01*
X0139908Y0156691D02*
X0142288Y0156691D01*
X0142288Y0157803D02*
X0139908Y0157803D01*
X0134807Y0158351D02*
X0132427Y0158351D01*
X0134807Y0158351D02*
X0134807Y0155579D01*
X0132427Y0155579D01*
X0132427Y0158351D01*
X0132427Y0156691D02*
X0134807Y0156691D01*
X0134807Y0157803D02*
X0132427Y0157803D01*
X0136168Y0149689D02*
X0138548Y0149689D01*
X0138548Y0146917D01*
X0136168Y0146917D01*
X0136168Y0149689D01*
X0136168Y0148029D02*
X0138548Y0148029D01*
X0138548Y0149141D02*
X0136168Y0149141D01*
X0134807Y0103232D02*
X0132427Y0103232D01*
X0134807Y0103232D02*
X0134807Y0100460D01*
X0132427Y0100460D01*
X0132427Y0103232D01*
X0132427Y0101572D02*
X0134807Y0101572D01*
X0134807Y0102684D02*
X0132427Y0102684D01*
X0139908Y0103232D02*
X0142288Y0103232D01*
X0142288Y0100460D01*
X0139908Y0100460D01*
X0139908Y0103232D01*
X0139908Y0101572D02*
X0142288Y0101572D01*
X0142288Y0102684D02*
X0139908Y0102684D01*
X0138548Y0094571D02*
X0136168Y0094571D01*
X0138548Y0094571D02*
X0138548Y0091799D01*
X0136168Y0091799D01*
X0136168Y0094571D01*
X0136168Y0092911D02*
X0138548Y0092911D01*
X0138548Y0094023D02*
X0136168Y0094023D01*
D13*
X0174956Y0135114D03*
X0221806Y0135114D03*
X0221806Y0174091D03*
X0174956Y0174091D03*
D14*
X0179484Y0173894D03*
X0182633Y0173894D03*
X0185783Y0173894D03*
X0188932Y0173894D03*
X0192082Y0173894D03*
X0195232Y0173894D03*
X0198381Y0173894D03*
X0201531Y0173894D03*
X0204680Y0173894D03*
X0207830Y0173894D03*
X0210980Y0173894D03*
X0214129Y0173894D03*
X0217279Y0173894D03*
X0217279Y0135311D03*
X0214129Y0135311D03*
X0210980Y0135311D03*
X0207830Y0135311D03*
X0204680Y0135311D03*
X0201531Y0135311D03*
X0198381Y0135311D03*
X0195232Y0135311D03*
X0192082Y0135311D03*
X0188932Y0135311D03*
X0185783Y0135311D03*
X0182633Y0135311D03*
X0179484Y0135311D03*
D15*
X0175153Y0138854D03*
X0175153Y0142004D03*
X0175153Y0145154D03*
X0175153Y0148303D03*
X0175153Y0151453D03*
X0175153Y0154602D03*
X0175153Y0157752D03*
X0175153Y0160902D03*
X0175153Y0164051D03*
X0175153Y0167201D03*
X0175153Y0170350D03*
X0221610Y0170350D03*
X0221610Y0167201D03*
X0221610Y0164051D03*
X0221610Y0160902D03*
X0221610Y0157752D03*
X0221610Y0154602D03*
X0221610Y0151453D03*
X0221610Y0148303D03*
X0221610Y0145154D03*
X0221610Y0142004D03*
X0221610Y0138854D03*
D16*
X0206255Y0146728D03*
X0198381Y0146728D03*
X0190507Y0146728D03*
X0190507Y0154602D03*
X0198381Y0154602D03*
X0206255Y0154602D03*
X0206255Y0162476D03*
X0198381Y0162476D03*
X0190507Y0162476D03*
D17*
X0191098Y0071925D03*
D18*
X0201098Y0071925D03*
X0211098Y0071925D03*
X0221098Y0071925D03*
X0231098Y0071925D03*
X0241098Y0071925D03*
X0174917Y0071925D03*
X0164917Y0071925D03*
X0149326Y0071925D03*
X0139326Y0071925D03*
D19*
X0103893Y0067713D03*
X0103893Y0119445D03*
X0103893Y0138579D03*
X0103893Y0190311D03*
D20*
X0114562Y0178224D03*
X0114562Y0168382D03*
X0114562Y0160508D03*
X0114562Y0150665D03*
X0114562Y0107358D03*
X0114562Y0097516D03*
X0114562Y0089642D03*
X0114562Y0079799D03*
D21*
X0223972Y0093185D02*
X0223972Y0101846D01*
X0231452Y0116020D02*
X0240113Y0116020D01*
X0247200Y0101846D02*
X0247200Y0093185D01*
D22*
X0177557Y0102593D02*
X0175505Y0102593D01*
X0175505Y0105825D01*
X0177557Y0105825D01*
X0177557Y0102593D01*
X0177557Y0103643D02*
X0175505Y0103643D01*
X0175505Y0104693D02*
X0177557Y0104693D01*
X0177557Y0105743D02*
X0175505Y0105743D01*
X0173817Y0102593D02*
X0171765Y0102593D01*
X0171765Y0105825D01*
X0173817Y0105825D01*
X0173817Y0102593D01*
X0173817Y0103643D02*
X0171765Y0103643D01*
X0171765Y0104693D02*
X0173817Y0104693D01*
X0173817Y0105743D02*
X0171765Y0105743D01*
X0170076Y0102593D02*
X0168024Y0102593D01*
X0168024Y0105825D01*
X0170076Y0105825D01*
X0170076Y0102593D01*
X0170076Y0103643D02*
X0168024Y0103643D01*
X0168024Y0104693D02*
X0170076Y0104693D01*
X0170076Y0105743D02*
X0168024Y0105743D01*
X0168024Y0112435D02*
X0170076Y0112435D01*
X0168024Y0112435D02*
X0168024Y0115667D01*
X0170076Y0115667D01*
X0170076Y0112435D01*
X0170076Y0113485D02*
X0168024Y0113485D01*
X0168024Y0114535D02*
X0170076Y0114535D01*
X0170076Y0115585D02*
X0168024Y0115585D01*
X0175505Y0112435D02*
X0177557Y0112435D01*
X0175505Y0112435D02*
X0175505Y0115667D01*
X0177557Y0115667D01*
X0177557Y0112435D01*
X0177557Y0113485D02*
X0175505Y0113485D01*
X0175505Y0114535D02*
X0177557Y0114535D01*
X0177557Y0115585D02*
X0175505Y0115585D01*
M02*
