G75*
%MOIN*%
%OFA0B0*%
%FSLAX25Y25*%
%IPPOS*%
%LPD*%
%AMOC8*
5,1,8,0,0,1.08239X$1,22.5*
%
%ADD10C,0.00000*%
%ADD11C,0.00400*%
%ADD12C,0.00300*%
%ADD13C,0.00500*%
%ADD14C,0.00800*%
%ADD15C,0.00600*%
%ADD16C,0.00200*%
D10*
X0072397Y0058146D02*
X0253499Y0058146D01*
X0253689Y0058148D01*
X0253879Y0058155D01*
X0254069Y0058167D01*
X0254259Y0058183D01*
X0254448Y0058203D01*
X0254637Y0058229D01*
X0254825Y0058258D01*
X0255012Y0058293D01*
X0255198Y0058332D01*
X0255383Y0058375D01*
X0255568Y0058423D01*
X0255751Y0058475D01*
X0255932Y0058531D01*
X0256112Y0058592D01*
X0256291Y0058658D01*
X0256468Y0058727D01*
X0256644Y0058801D01*
X0256817Y0058879D01*
X0256989Y0058962D01*
X0257158Y0059048D01*
X0257326Y0059138D01*
X0257491Y0059233D01*
X0257654Y0059331D01*
X0257814Y0059434D01*
X0257972Y0059540D01*
X0258127Y0059650D01*
X0258280Y0059763D01*
X0258430Y0059881D01*
X0258576Y0060002D01*
X0258720Y0060126D01*
X0258861Y0060254D01*
X0258999Y0060385D01*
X0259134Y0060520D01*
X0259265Y0060658D01*
X0259393Y0060799D01*
X0259517Y0060943D01*
X0259638Y0061089D01*
X0259756Y0061239D01*
X0259869Y0061392D01*
X0259979Y0061547D01*
X0260085Y0061705D01*
X0260188Y0061865D01*
X0260286Y0062028D01*
X0260381Y0062193D01*
X0260471Y0062361D01*
X0260557Y0062530D01*
X0260640Y0062702D01*
X0260718Y0062875D01*
X0260792Y0063051D01*
X0260861Y0063228D01*
X0260927Y0063407D01*
X0260988Y0063587D01*
X0261044Y0063768D01*
X0261096Y0063951D01*
X0261144Y0064136D01*
X0261187Y0064321D01*
X0261226Y0064507D01*
X0261261Y0064694D01*
X0261290Y0064882D01*
X0261316Y0065071D01*
X0261336Y0065260D01*
X0261352Y0065450D01*
X0261364Y0065640D01*
X0261371Y0065830D01*
X0261373Y0066020D01*
X0261373Y0170350D01*
X0261371Y0170540D01*
X0261364Y0170730D01*
X0261352Y0170920D01*
X0261336Y0171110D01*
X0261316Y0171299D01*
X0261290Y0171488D01*
X0261261Y0171676D01*
X0261226Y0171863D01*
X0261187Y0172049D01*
X0261144Y0172234D01*
X0261096Y0172419D01*
X0261044Y0172602D01*
X0260988Y0172783D01*
X0260927Y0172963D01*
X0260861Y0173142D01*
X0260792Y0173319D01*
X0260718Y0173495D01*
X0260640Y0173668D01*
X0260557Y0173840D01*
X0260471Y0174009D01*
X0260381Y0174177D01*
X0260286Y0174342D01*
X0260188Y0174505D01*
X0260085Y0174665D01*
X0259979Y0174823D01*
X0259869Y0174978D01*
X0259756Y0175131D01*
X0259638Y0175281D01*
X0259517Y0175427D01*
X0259393Y0175571D01*
X0259265Y0175712D01*
X0259134Y0175850D01*
X0258999Y0175985D01*
X0258861Y0176116D01*
X0258720Y0176244D01*
X0258576Y0176368D01*
X0258430Y0176489D01*
X0258280Y0176607D01*
X0258127Y0176720D01*
X0257972Y0176830D01*
X0257814Y0176936D01*
X0257654Y0177039D01*
X0257491Y0177137D01*
X0257326Y0177232D01*
X0257158Y0177322D01*
X0256989Y0177408D01*
X0256817Y0177491D01*
X0256644Y0177569D01*
X0256468Y0177643D01*
X0256291Y0177712D01*
X0256112Y0177778D01*
X0255932Y0177839D01*
X0255751Y0177895D01*
X0255568Y0177947D01*
X0255383Y0177995D01*
X0255198Y0178038D01*
X0255012Y0178077D01*
X0254825Y0178112D01*
X0254637Y0178141D01*
X0254448Y0178167D01*
X0254259Y0178187D01*
X0254069Y0178203D01*
X0253879Y0178215D01*
X0253689Y0178222D01*
X0253499Y0178224D01*
X0172791Y0178224D01*
X0172601Y0178226D01*
X0172411Y0178233D01*
X0172221Y0178245D01*
X0172031Y0178261D01*
X0171842Y0178281D01*
X0171653Y0178307D01*
X0171465Y0178336D01*
X0171278Y0178371D01*
X0171092Y0178410D01*
X0170907Y0178453D01*
X0170722Y0178501D01*
X0170539Y0178553D01*
X0170358Y0178609D01*
X0170178Y0178670D01*
X0169999Y0178736D01*
X0169822Y0178805D01*
X0169646Y0178879D01*
X0169473Y0178957D01*
X0169301Y0179040D01*
X0169132Y0179126D01*
X0168964Y0179216D01*
X0168799Y0179311D01*
X0168636Y0179409D01*
X0168476Y0179512D01*
X0168318Y0179618D01*
X0168163Y0179728D01*
X0168010Y0179841D01*
X0167860Y0179959D01*
X0167714Y0180080D01*
X0167570Y0180204D01*
X0167429Y0180332D01*
X0167291Y0180463D01*
X0167156Y0180598D01*
X0167025Y0180736D01*
X0166897Y0180877D01*
X0166773Y0181021D01*
X0166652Y0181167D01*
X0166534Y0181317D01*
X0166421Y0181470D01*
X0166311Y0181625D01*
X0166205Y0181783D01*
X0166102Y0181943D01*
X0166004Y0182106D01*
X0165909Y0182271D01*
X0165819Y0182439D01*
X0165733Y0182608D01*
X0165650Y0182780D01*
X0165572Y0182953D01*
X0165498Y0183129D01*
X0165429Y0183306D01*
X0165363Y0183485D01*
X0165302Y0183665D01*
X0165246Y0183846D01*
X0165194Y0184029D01*
X0165146Y0184214D01*
X0165103Y0184399D01*
X0165064Y0184585D01*
X0165029Y0184772D01*
X0165000Y0184960D01*
X0164974Y0185149D01*
X0164954Y0185338D01*
X0164938Y0185528D01*
X0164926Y0185718D01*
X0164919Y0185908D01*
X0164917Y0186098D01*
X0164917Y0192004D01*
X0164915Y0192194D01*
X0164908Y0192384D01*
X0164896Y0192574D01*
X0164880Y0192764D01*
X0164860Y0192953D01*
X0164834Y0193142D01*
X0164805Y0193330D01*
X0164770Y0193517D01*
X0164731Y0193703D01*
X0164688Y0193888D01*
X0164640Y0194073D01*
X0164588Y0194256D01*
X0164532Y0194437D01*
X0164471Y0194617D01*
X0164405Y0194796D01*
X0164336Y0194973D01*
X0164262Y0195149D01*
X0164184Y0195322D01*
X0164101Y0195494D01*
X0164015Y0195663D01*
X0163925Y0195831D01*
X0163830Y0195996D01*
X0163732Y0196159D01*
X0163629Y0196319D01*
X0163523Y0196477D01*
X0163413Y0196632D01*
X0163300Y0196785D01*
X0163182Y0196935D01*
X0163061Y0197081D01*
X0162937Y0197225D01*
X0162809Y0197366D01*
X0162678Y0197504D01*
X0162543Y0197639D01*
X0162405Y0197770D01*
X0162264Y0197898D01*
X0162120Y0198022D01*
X0161974Y0198143D01*
X0161824Y0198261D01*
X0161671Y0198374D01*
X0161516Y0198484D01*
X0161358Y0198590D01*
X0161198Y0198693D01*
X0161035Y0198791D01*
X0160870Y0198886D01*
X0160702Y0198976D01*
X0160533Y0199062D01*
X0160361Y0199145D01*
X0160188Y0199223D01*
X0160012Y0199297D01*
X0159835Y0199366D01*
X0159656Y0199432D01*
X0159476Y0199493D01*
X0159295Y0199549D01*
X0159112Y0199601D01*
X0158927Y0199649D01*
X0158742Y0199692D01*
X0158556Y0199731D01*
X0158369Y0199766D01*
X0158181Y0199795D01*
X0157992Y0199821D01*
X0157803Y0199841D01*
X0157613Y0199857D01*
X0157423Y0199869D01*
X0157233Y0199876D01*
X0157043Y0199878D01*
X0072397Y0199878D01*
X0072207Y0199876D01*
X0072017Y0199869D01*
X0071827Y0199857D01*
X0071637Y0199841D01*
X0071448Y0199821D01*
X0071259Y0199795D01*
X0071071Y0199766D01*
X0070884Y0199731D01*
X0070698Y0199692D01*
X0070513Y0199649D01*
X0070328Y0199601D01*
X0070145Y0199549D01*
X0069964Y0199493D01*
X0069784Y0199432D01*
X0069605Y0199366D01*
X0069428Y0199297D01*
X0069252Y0199223D01*
X0069079Y0199145D01*
X0068907Y0199062D01*
X0068738Y0198976D01*
X0068570Y0198886D01*
X0068405Y0198791D01*
X0068242Y0198693D01*
X0068082Y0198590D01*
X0067924Y0198484D01*
X0067769Y0198374D01*
X0067616Y0198261D01*
X0067466Y0198143D01*
X0067320Y0198022D01*
X0067176Y0197898D01*
X0067035Y0197770D01*
X0066897Y0197639D01*
X0066762Y0197504D01*
X0066631Y0197366D01*
X0066503Y0197225D01*
X0066379Y0197081D01*
X0066258Y0196935D01*
X0066140Y0196785D01*
X0066027Y0196632D01*
X0065917Y0196477D01*
X0065811Y0196319D01*
X0065708Y0196159D01*
X0065610Y0195996D01*
X0065515Y0195831D01*
X0065425Y0195663D01*
X0065339Y0195494D01*
X0065256Y0195322D01*
X0065178Y0195149D01*
X0065104Y0194973D01*
X0065035Y0194796D01*
X0064969Y0194617D01*
X0064908Y0194437D01*
X0064852Y0194256D01*
X0064800Y0194073D01*
X0064752Y0193888D01*
X0064709Y0193703D01*
X0064670Y0193517D01*
X0064635Y0193330D01*
X0064606Y0193142D01*
X0064580Y0192953D01*
X0064560Y0192764D01*
X0064544Y0192574D01*
X0064532Y0192384D01*
X0064525Y0192194D01*
X0064523Y0192004D01*
X0064523Y0066020D01*
X0064525Y0065830D01*
X0064532Y0065640D01*
X0064544Y0065450D01*
X0064560Y0065260D01*
X0064580Y0065071D01*
X0064606Y0064882D01*
X0064635Y0064694D01*
X0064670Y0064507D01*
X0064709Y0064321D01*
X0064752Y0064136D01*
X0064800Y0063951D01*
X0064852Y0063768D01*
X0064908Y0063587D01*
X0064969Y0063407D01*
X0065035Y0063228D01*
X0065104Y0063051D01*
X0065178Y0062875D01*
X0065256Y0062702D01*
X0065339Y0062530D01*
X0065425Y0062361D01*
X0065515Y0062193D01*
X0065610Y0062028D01*
X0065708Y0061865D01*
X0065811Y0061705D01*
X0065917Y0061547D01*
X0066027Y0061392D01*
X0066140Y0061239D01*
X0066258Y0061089D01*
X0066379Y0060943D01*
X0066503Y0060799D01*
X0066631Y0060658D01*
X0066762Y0060520D01*
X0066897Y0060385D01*
X0067035Y0060254D01*
X0067176Y0060126D01*
X0067320Y0060002D01*
X0067466Y0059881D01*
X0067616Y0059763D01*
X0067769Y0059650D01*
X0067924Y0059540D01*
X0068082Y0059434D01*
X0068242Y0059331D01*
X0068405Y0059233D01*
X0068570Y0059138D01*
X0068738Y0059048D01*
X0068907Y0058962D01*
X0069079Y0058879D01*
X0069252Y0058801D01*
X0069428Y0058727D01*
X0069605Y0058658D01*
X0069784Y0058592D01*
X0069964Y0058531D01*
X0070145Y0058475D01*
X0070328Y0058423D01*
X0070513Y0058375D01*
X0070698Y0058332D01*
X0070884Y0058293D01*
X0071071Y0058258D01*
X0071259Y0058229D01*
X0071448Y0058203D01*
X0071637Y0058183D01*
X0071827Y0058167D01*
X0072017Y0058155D01*
X0072207Y0058148D01*
X0072397Y0058146D01*
D11*
X0182833Y0114486D02*
X0182833Y0117042D01*
X0182835Y0117104D01*
X0182840Y0117165D01*
X0182850Y0117226D01*
X0182863Y0117287D01*
X0182879Y0117346D01*
X0182899Y0117404D01*
X0182923Y0117461D01*
X0182950Y0117517D01*
X0182980Y0117571D01*
X0183014Y0117623D01*
X0183050Y0117672D01*
X0183090Y0117720D01*
X0183132Y0117765D01*
X0183177Y0117807D01*
X0183225Y0117846D01*
X0183274Y0117883D01*
X0183326Y0117917D01*
X0183380Y0117947D01*
X0183436Y0117974D01*
X0183493Y0117998D01*
X0183551Y0118018D01*
X0183610Y0118034D01*
X0183671Y0118047D01*
X0183732Y0118057D01*
X0183793Y0118062D01*
X0183855Y0118064D01*
X0184878Y0118064D01*
X0186552Y0115508D02*
X0186552Y0114486D01*
X0186554Y0114423D01*
X0186560Y0114360D01*
X0186569Y0114298D01*
X0186583Y0114237D01*
X0186600Y0114176D01*
X0186621Y0114117D01*
X0186646Y0114059D01*
X0186674Y0114002D01*
X0186705Y0113948D01*
X0186740Y0113896D01*
X0186778Y0113845D01*
X0186819Y0113797D01*
X0186863Y0113752D01*
X0186909Y0113710D01*
X0186958Y0113670D01*
X0187009Y0113634D01*
X0187063Y0113601D01*
X0187118Y0113571D01*
X0187176Y0113545D01*
X0187234Y0113522D01*
X0187294Y0113503D01*
X0187355Y0113488D01*
X0187417Y0113476D01*
X0187480Y0113468D01*
X0187543Y0113464D01*
X0187605Y0113464D01*
X0187668Y0113468D01*
X0187731Y0113476D01*
X0187793Y0113488D01*
X0187854Y0113503D01*
X0187914Y0113522D01*
X0187972Y0113545D01*
X0188030Y0113571D01*
X0188085Y0113601D01*
X0188139Y0113634D01*
X0188190Y0113670D01*
X0188239Y0113710D01*
X0188285Y0113752D01*
X0188329Y0113797D01*
X0188370Y0113845D01*
X0188408Y0113896D01*
X0188443Y0113948D01*
X0188474Y0114002D01*
X0188502Y0114059D01*
X0188527Y0114117D01*
X0188548Y0114176D01*
X0188565Y0114237D01*
X0188579Y0114298D01*
X0188588Y0114360D01*
X0188594Y0114423D01*
X0188596Y0114486D01*
X0188596Y0115508D01*
X0188594Y0115571D01*
X0188588Y0115634D01*
X0188579Y0115696D01*
X0188565Y0115757D01*
X0188548Y0115818D01*
X0188527Y0115877D01*
X0188502Y0115935D01*
X0188474Y0115992D01*
X0188443Y0116046D01*
X0188408Y0116098D01*
X0188370Y0116149D01*
X0188329Y0116197D01*
X0188285Y0116242D01*
X0188239Y0116284D01*
X0188190Y0116324D01*
X0188139Y0116360D01*
X0188085Y0116393D01*
X0188030Y0116423D01*
X0187972Y0116449D01*
X0187914Y0116472D01*
X0187854Y0116491D01*
X0187793Y0116506D01*
X0187731Y0116518D01*
X0187668Y0116526D01*
X0187605Y0116530D01*
X0187543Y0116530D01*
X0187480Y0116526D01*
X0187417Y0116518D01*
X0187355Y0116506D01*
X0187294Y0116491D01*
X0187234Y0116472D01*
X0187176Y0116449D01*
X0187118Y0116423D01*
X0187063Y0116393D01*
X0187009Y0116360D01*
X0186958Y0116324D01*
X0186909Y0116284D01*
X0186863Y0116242D01*
X0186819Y0116197D01*
X0186778Y0116149D01*
X0186740Y0116098D01*
X0186705Y0116046D01*
X0186674Y0115992D01*
X0186646Y0115935D01*
X0186621Y0115877D01*
X0186600Y0115818D01*
X0186583Y0115757D01*
X0186569Y0115696D01*
X0186560Y0115634D01*
X0186554Y0115571D01*
X0186552Y0115508D01*
X0184878Y0113464D02*
X0183855Y0113464D01*
X0183793Y0113466D01*
X0183732Y0113471D01*
X0183671Y0113481D01*
X0183610Y0113494D01*
X0183551Y0113510D01*
X0183493Y0113530D01*
X0183436Y0113554D01*
X0183380Y0113581D01*
X0183326Y0113611D01*
X0183274Y0113645D01*
X0183225Y0113681D01*
X0183177Y0113721D01*
X0183132Y0113763D01*
X0183090Y0113808D01*
X0183050Y0113856D01*
X0183014Y0113905D01*
X0182980Y0113957D01*
X0182950Y0114011D01*
X0182923Y0114067D01*
X0182899Y0114124D01*
X0182879Y0114182D01*
X0182863Y0114241D01*
X0182850Y0114302D01*
X0182840Y0114363D01*
X0182835Y0114424D01*
X0182833Y0114486D01*
X0182833Y0120964D02*
X0184366Y0120964D01*
X0184428Y0120966D01*
X0184489Y0120971D01*
X0184550Y0120981D01*
X0184611Y0120994D01*
X0184670Y0121010D01*
X0184728Y0121030D01*
X0184785Y0121054D01*
X0184841Y0121081D01*
X0184895Y0121111D01*
X0184947Y0121145D01*
X0184996Y0121181D01*
X0185044Y0121221D01*
X0185089Y0121263D01*
X0185131Y0121308D01*
X0185171Y0121356D01*
X0185207Y0121405D01*
X0185241Y0121457D01*
X0185271Y0121511D01*
X0185298Y0121567D01*
X0185322Y0121624D01*
X0185342Y0121682D01*
X0185358Y0121741D01*
X0185371Y0121802D01*
X0185381Y0121863D01*
X0185386Y0121924D01*
X0185388Y0121986D01*
X0185389Y0121986D02*
X0185389Y0122497D01*
X0185388Y0122497D02*
X0185386Y0122559D01*
X0185381Y0122620D01*
X0185371Y0122681D01*
X0185358Y0122742D01*
X0185342Y0122801D01*
X0185322Y0122859D01*
X0185298Y0122916D01*
X0185271Y0122972D01*
X0185241Y0123026D01*
X0185207Y0123078D01*
X0185171Y0123127D01*
X0185131Y0123175D01*
X0185089Y0123220D01*
X0185044Y0123262D01*
X0184996Y0123302D01*
X0184947Y0123338D01*
X0184895Y0123372D01*
X0184841Y0123402D01*
X0184785Y0123429D01*
X0184728Y0123453D01*
X0184670Y0123473D01*
X0184611Y0123489D01*
X0184550Y0123502D01*
X0184489Y0123512D01*
X0184428Y0123517D01*
X0184366Y0123519D01*
X0182833Y0123519D01*
X0182833Y0125564D01*
X0185389Y0125564D01*
X0187078Y0125564D02*
X0188611Y0120964D01*
X0190144Y0125564D01*
X0195511Y0125564D02*
X0197044Y0120964D01*
X0196661Y0122114D02*
X0194361Y0122114D01*
X0193978Y0120964D02*
X0195511Y0125564D01*
X0198839Y0124030D02*
X0200116Y0124030D01*
X0200116Y0124031D02*
X0200171Y0124029D01*
X0200225Y0124023D01*
X0200279Y0124013D01*
X0200332Y0124000D01*
X0200384Y0123983D01*
X0200435Y0123962D01*
X0200484Y0123937D01*
X0200531Y0123909D01*
X0200576Y0123878D01*
X0200618Y0123844D01*
X0200658Y0123806D01*
X0200696Y0123766D01*
X0200730Y0123724D01*
X0200761Y0123679D01*
X0200789Y0123632D01*
X0200814Y0123583D01*
X0200835Y0123532D01*
X0200852Y0123480D01*
X0200865Y0123427D01*
X0200875Y0123373D01*
X0200881Y0123319D01*
X0200883Y0123264D01*
X0200883Y0120964D01*
X0198839Y0120964D02*
X0198839Y0124030D01*
X0203121Y0124030D02*
X0204143Y0124030D01*
X0204143Y0124031D02*
X0204198Y0124029D01*
X0204252Y0124023D01*
X0204306Y0124013D01*
X0204359Y0124000D01*
X0204411Y0123983D01*
X0204462Y0123962D01*
X0204511Y0123937D01*
X0204558Y0123909D01*
X0204603Y0123878D01*
X0204645Y0123844D01*
X0204685Y0123806D01*
X0204723Y0123766D01*
X0204757Y0123724D01*
X0204788Y0123679D01*
X0204816Y0123632D01*
X0204841Y0123583D01*
X0204862Y0123532D01*
X0204879Y0123480D01*
X0204892Y0123427D01*
X0204902Y0123373D01*
X0204908Y0123319D01*
X0204910Y0123264D01*
X0204910Y0120964D01*
X0203760Y0120964D01*
X0203702Y0120966D01*
X0203643Y0120972D01*
X0203586Y0120981D01*
X0203529Y0120994D01*
X0203473Y0121011D01*
X0203418Y0121032D01*
X0203365Y0121056D01*
X0203313Y0121084D01*
X0203263Y0121115D01*
X0203216Y0121149D01*
X0203171Y0121186D01*
X0203128Y0121226D01*
X0203088Y0121269D01*
X0203051Y0121314D01*
X0203017Y0121361D01*
X0202986Y0121411D01*
X0202958Y0121463D01*
X0202934Y0121516D01*
X0202913Y0121571D01*
X0202896Y0121627D01*
X0202883Y0121684D01*
X0202874Y0121741D01*
X0202868Y0121800D01*
X0202866Y0121858D01*
X0202868Y0121916D01*
X0202874Y0121975D01*
X0202883Y0122032D01*
X0202896Y0122089D01*
X0202913Y0122145D01*
X0202934Y0122200D01*
X0202958Y0122253D01*
X0202986Y0122305D01*
X0203017Y0122355D01*
X0203051Y0122402D01*
X0203088Y0122447D01*
X0203128Y0122490D01*
X0203171Y0122530D01*
X0203216Y0122567D01*
X0203263Y0122601D01*
X0203313Y0122632D01*
X0203365Y0122660D01*
X0203418Y0122684D01*
X0203473Y0122705D01*
X0203529Y0122722D01*
X0203586Y0122735D01*
X0203643Y0122744D01*
X0203702Y0122750D01*
X0203760Y0122752D01*
X0203760Y0122753D02*
X0204910Y0122753D01*
X0206998Y0121730D02*
X0206998Y0125564D01*
X0209339Y0123008D02*
X0209339Y0121986D01*
X0209341Y0121923D01*
X0209347Y0121860D01*
X0209356Y0121798D01*
X0209370Y0121737D01*
X0209387Y0121676D01*
X0209408Y0121617D01*
X0209433Y0121559D01*
X0209461Y0121502D01*
X0209492Y0121448D01*
X0209527Y0121396D01*
X0209565Y0121345D01*
X0209606Y0121297D01*
X0209650Y0121252D01*
X0209696Y0121210D01*
X0209745Y0121170D01*
X0209796Y0121134D01*
X0209850Y0121101D01*
X0209905Y0121071D01*
X0209963Y0121045D01*
X0210021Y0121022D01*
X0210081Y0121003D01*
X0210142Y0120988D01*
X0210204Y0120976D01*
X0210267Y0120968D01*
X0210330Y0120964D01*
X0210392Y0120964D01*
X0210455Y0120968D01*
X0210518Y0120976D01*
X0210580Y0120988D01*
X0210641Y0121003D01*
X0210701Y0121022D01*
X0210759Y0121045D01*
X0210817Y0121071D01*
X0210872Y0121101D01*
X0210926Y0121134D01*
X0210977Y0121170D01*
X0211026Y0121210D01*
X0211072Y0121252D01*
X0211116Y0121297D01*
X0211157Y0121345D01*
X0211195Y0121396D01*
X0211230Y0121448D01*
X0211261Y0121502D01*
X0211289Y0121559D01*
X0211314Y0121617D01*
X0211335Y0121676D01*
X0211352Y0121737D01*
X0211366Y0121798D01*
X0211375Y0121860D01*
X0211381Y0121923D01*
X0211383Y0121986D01*
X0211383Y0123008D01*
X0211381Y0123071D01*
X0211375Y0123134D01*
X0211366Y0123196D01*
X0211352Y0123257D01*
X0211335Y0123318D01*
X0211314Y0123377D01*
X0211289Y0123435D01*
X0211261Y0123492D01*
X0211230Y0123546D01*
X0211195Y0123598D01*
X0211157Y0123649D01*
X0211116Y0123697D01*
X0211072Y0123742D01*
X0211026Y0123784D01*
X0210977Y0123824D01*
X0210926Y0123860D01*
X0210872Y0123893D01*
X0210817Y0123923D01*
X0210759Y0123949D01*
X0210701Y0123972D01*
X0210641Y0123991D01*
X0210580Y0124006D01*
X0210518Y0124018D01*
X0210455Y0124026D01*
X0210392Y0124030D01*
X0210330Y0124030D01*
X0210267Y0124026D01*
X0210204Y0124018D01*
X0210142Y0124006D01*
X0210081Y0123991D01*
X0210021Y0123972D01*
X0209963Y0123949D01*
X0209905Y0123923D01*
X0209850Y0123893D01*
X0209796Y0123860D01*
X0209745Y0123824D01*
X0209696Y0123784D01*
X0209650Y0123742D01*
X0209606Y0123697D01*
X0209565Y0123649D01*
X0209527Y0123598D01*
X0209492Y0123546D01*
X0209461Y0123492D01*
X0209433Y0123435D01*
X0209408Y0123377D01*
X0209387Y0123318D01*
X0209370Y0123257D01*
X0209356Y0123196D01*
X0209347Y0123134D01*
X0209341Y0123071D01*
X0209339Y0123008D01*
X0207764Y0120963D02*
X0207709Y0120965D01*
X0207655Y0120971D01*
X0207601Y0120981D01*
X0207548Y0120994D01*
X0207496Y0121011D01*
X0207445Y0121032D01*
X0207396Y0121057D01*
X0207349Y0121085D01*
X0207304Y0121116D01*
X0207262Y0121150D01*
X0207222Y0121188D01*
X0207184Y0121228D01*
X0207150Y0121270D01*
X0207119Y0121315D01*
X0207091Y0121362D01*
X0207066Y0121411D01*
X0207045Y0121462D01*
X0207028Y0121514D01*
X0207015Y0121567D01*
X0207005Y0121621D01*
X0206999Y0121675D01*
X0206997Y0121730D01*
X0207011Y0118064D02*
X0207011Y0114230D01*
X0207010Y0114230D02*
X0207012Y0114175D01*
X0207018Y0114121D01*
X0207028Y0114067D01*
X0207041Y0114014D01*
X0207058Y0113962D01*
X0207079Y0113911D01*
X0207104Y0113862D01*
X0207132Y0113815D01*
X0207163Y0113770D01*
X0207197Y0113728D01*
X0207235Y0113688D01*
X0207275Y0113650D01*
X0207317Y0113616D01*
X0207362Y0113585D01*
X0207409Y0113557D01*
X0207458Y0113532D01*
X0207509Y0113511D01*
X0207561Y0113494D01*
X0207614Y0113481D01*
X0207668Y0113471D01*
X0207722Y0113465D01*
X0207777Y0113463D01*
X0209352Y0114230D02*
X0209352Y0115508D01*
X0209352Y0114997D02*
X0211396Y0114997D01*
X0211396Y0115508D01*
X0211394Y0115571D01*
X0211388Y0115634D01*
X0211379Y0115696D01*
X0211365Y0115757D01*
X0211348Y0115818D01*
X0211327Y0115877D01*
X0211302Y0115935D01*
X0211274Y0115992D01*
X0211243Y0116046D01*
X0211208Y0116098D01*
X0211170Y0116149D01*
X0211129Y0116197D01*
X0211085Y0116242D01*
X0211039Y0116284D01*
X0210990Y0116324D01*
X0210939Y0116360D01*
X0210885Y0116393D01*
X0210830Y0116423D01*
X0210772Y0116449D01*
X0210714Y0116472D01*
X0210654Y0116491D01*
X0210593Y0116506D01*
X0210531Y0116518D01*
X0210468Y0116526D01*
X0210405Y0116530D01*
X0210343Y0116530D01*
X0210280Y0116526D01*
X0210217Y0116518D01*
X0210155Y0116506D01*
X0210094Y0116491D01*
X0210034Y0116472D01*
X0209976Y0116449D01*
X0209918Y0116423D01*
X0209863Y0116393D01*
X0209809Y0116360D01*
X0209758Y0116324D01*
X0209709Y0116284D01*
X0209663Y0116242D01*
X0209619Y0116197D01*
X0209578Y0116149D01*
X0209540Y0116098D01*
X0209505Y0116046D01*
X0209474Y0115992D01*
X0209446Y0115935D01*
X0209421Y0115877D01*
X0209400Y0115818D01*
X0209383Y0115757D01*
X0209369Y0115696D01*
X0209360Y0115634D01*
X0209354Y0115571D01*
X0209352Y0115508D01*
X0209351Y0114230D02*
X0209353Y0114175D01*
X0209359Y0114121D01*
X0209369Y0114067D01*
X0209382Y0114014D01*
X0209399Y0113962D01*
X0209420Y0113911D01*
X0209445Y0113862D01*
X0209473Y0113815D01*
X0209504Y0113770D01*
X0209538Y0113728D01*
X0209576Y0113688D01*
X0209616Y0113650D01*
X0209658Y0113616D01*
X0209703Y0113585D01*
X0209750Y0113557D01*
X0209799Y0113532D01*
X0209850Y0113511D01*
X0209902Y0113494D01*
X0209955Y0113481D01*
X0210009Y0113471D01*
X0210063Y0113465D01*
X0210118Y0113463D01*
X0210118Y0113464D02*
X0211396Y0113464D01*
X0213428Y0113464D02*
X0213428Y0116530D01*
X0214961Y0116530D01*
X0214961Y0116019D01*
X0214493Y0119430D02*
X0213471Y0119430D01*
X0214493Y0119430D02*
X0214548Y0119432D01*
X0214602Y0119438D01*
X0214656Y0119448D01*
X0214709Y0119461D01*
X0214761Y0119478D01*
X0214812Y0119499D01*
X0214861Y0119524D01*
X0214908Y0119552D01*
X0214953Y0119583D01*
X0214995Y0119617D01*
X0215035Y0119655D01*
X0215073Y0119695D01*
X0215107Y0119737D01*
X0215138Y0119782D01*
X0215166Y0119829D01*
X0215191Y0119878D01*
X0215212Y0119929D01*
X0215229Y0119981D01*
X0215242Y0120034D01*
X0215252Y0120088D01*
X0215258Y0120142D01*
X0215260Y0120197D01*
X0215260Y0124030D01*
X0213982Y0124030D01*
X0213982Y0124031D02*
X0213927Y0124029D01*
X0213873Y0124023D01*
X0213819Y0124013D01*
X0213766Y0124000D01*
X0213714Y0123983D01*
X0213663Y0123962D01*
X0213614Y0123937D01*
X0213567Y0123909D01*
X0213522Y0123878D01*
X0213480Y0123844D01*
X0213440Y0123806D01*
X0213402Y0123766D01*
X0213368Y0123724D01*
X0213337Y0123679D01*
X0213309Y0123632D01*
X0213284Y0123583D01*
X0213263Y0123532D01*
X0213246Y0123480D01*
X0213233Y0123427D01*
X0213223Y0123373D01*
X0213217Y0123319D01*
X0213215Y0123264D01*
X0213215Y0121730D01*
X0213217Y0121675D01*
X0213223Y0121621D01*
X0213233Y0121567D01*
X0213246Y0121514D01*
X0213263Y0121462D01*
X0213284Y0121411D01*
X0213309Y0121362D01*
X0213337Y0121315D01*
X0213368Y0121270D01*
X0213402Y0121228D01*
X0213440Y0121188D01*
X0213480Y0121150D01*
X0213522Y0121116D01*
X0213567Y0121085D01*
X0213614Y0121057D01*
X0213663Y0121032D01*
X0213714Y0121011D01*
X0213766Y0120994D01*
X0213819Y0120981D01*
X0213873Y0120971D01*
X0213927Y0120965D01*
X0213982Y0120963D01*
X0213982Y0120964D02*
X0215260Y0120964D01*
X0204611Y0118064D02*
X0204611Y0114230D01*
X0204610Y0114230D02*
X0204612Y0114175D01*
X0204618Y0114121D01*
X0204628Y0114067D01*
X0204641Y0114014D01*
X0204658Y0113962D01*
X0204679Y0113911D01*
X0204704Y0113862D01*
X0204732Y0113815D01*
X0204763Y0113770D01*
X0204797Y0113728D01*
X0204835Y0113688D01*
X0204875Y0113650D01*
X0204917Y0113616D01*
X0204962Y0113585D01*
X0205009Y0113557D01*
X0205058Y0113532D01*
X0205109Y0113511D01*
X0205161Y0113494D01*
X0205214Y0113481D01*
X0205268Y0113471D01*
X0205322Y0113465D01*
X0205377Y0113463D01*
X0202696Y0114486D02*
X0202696Y0115508D01*
X0202694Y0115571D01*
X0202688Y0115634D01*
X0202679Y0115696D01*
X0202665Y0115757D01*
X0202648Y0115818D01*
X0202627Y0115877D01*
X0202602Y0115935D01*
X0202574Y0115992D01*
X0202543Y0116046D01*
X0202508Y0116098D01*
X0202470Y0116149D01*
X0202429Y0116197D01*
X0202385Y0116242D01*
X0202339Y0116284D01*
X0202290Y0116324D01*
X0202239Y0116360D01*
X0202185Y0116393D01*
X0202130Y0116423D01*
X0202072Y0116449D01*
X0202014Y0116472D01*
X0201954Y0116491D01*
X0201893Y0116506D01*
X0201831Y0116518D01*
X0201768Y0116526D01*
X0201705Y0116530D01*
X0201643Y0116530D01*
X0201580Y0116526D01*
X0201517Y0116518D01*
X0201455Y0116506D01*
X0201394Y0116491D01*
X0201334Y0116472D01*
X0201276Y0116449D01*
X0201218Y0116423D01*
X0201163Y0116393D01*
X0201109Y0116360D01*
X0201058Y0116324D01*
X0201009Y0116284D01*
X0200963Y0116242D01*
X0200919Y0116197D01*
X0200878Y0116149D01*
X0200840Y0116098D01*
X0200805Y0116046D01*
X0200774Y0115992D01*
X0200746Y0115935D01*
X0200721Y0115877D01*
X0200700Y0115818D01*
X0200683Y0115757D01*
X0200669Y0115696D01*
X0200660Y0115634D01*
X0200654Y0115571D01*
X0200652Y0115508D01*
X0200652Y0114486D01*
X0200654Y0114423D01*
X0200660Y0114360D01*
X0200669Y0114298D01*
X0200683Y0114237D01*
X0200700Y0114176D01*
X0200721Y0114117D01*
X0200746Y0114059D01*
X0200774Y0114002D01*
X0200805Y0113948D01*
X0200840Y0113896D01*
X0200878Y0113845D01*
X0200919Y0113797D01*
X0200963Y0113752D01*
X0201009Y0113710D01*
X0201058Y0113670D01*
X0201109Y0113634D01*
X0201163Y0113601D01*
X0201218Y0113571D01*
X0201276Y0113545D01*
X0201334Y0113522D01*
X0201394Y0113503D01*
X0201455Y0113488D01*
X0201517Y0113476D01*
X0201580Y0113468D01*
X0201643Y0113464D01*
X0201705Y0113464D01*
X0201768Y0113468D01*
X0201831Y0113476D01*
X0201893Y0113488D01*
X0201954Y0113503D01*
X0202014Y0113522D01*
X0202072Y0113545D01*
X0202130Y0113571D01*
X0202185Y0113601D01*
X0202239Y0113634D01*
X0202290Y0113670D01*
X0202339Y0113710D01*
X0202385Y0113752D01*
X0202429Y0113797D01*
X0202470Y0113845D01*
X0202508Y0113896D01*
X0202543Y0113948D01*
X0202574Y0114002D01*
X0202602Y0114059D01*
X0202627Y0114117D01*
X0202648Y0114176D01*
X0202665Y0114237D01*
X0202679Y0114298D01*
X0202688Y0114360D01*
X0202694Y0114423D01*
X0202696Y0114486D01*
X0199211Y0116019D02*
X0199211Y0116530D01*
X0197678Y0116530D01*
X0197678Y0113464D01*
X0195804Y0113464D02*
X0195549Y0113464D01*
X0195549Y0113463D02*
X0195494Y0113465D01*
X0195440Y0113471D01*
X0195386Y0113481D01*
X0195333Y0113494D01*
X0195281Y0113511D01*
X0195230Y0113532D01*
X0195181Y0113557D01*
X0195134Y0113585D01*
X0195089Y0113616D01*
X0195047Y0113650D01*
X0195007Y0113688D01*
X0194969Y0113728D01*
X0194935Y0113770D01*
X0194904Y0113815D01*
X0194876Y0113862D01*
X0194851Y0113911D01*
X0194830Y0113962D01*
X0194813Y0114014D01*
X0194800Y0114067D01*
X0194790Y0114121D01*
X0194784Y0114175D01*
X0194782Y0114230D01*
X0194782Y0118064D01*
X0194271Y0116530D02*
X0195804Y0116530D01*
X0192646Y0115764D02*
X0192646Y0113464D01*
X0190602Y0113464D02*
X0190602Y0116530D01*
X0191880Y0116530D01*
X0191880Y0116531D02*
X0191935Y0116529D01*
X0191989Y0116523D01*
X0192043Y0116513D01*
X0192096Y0116500D01*
X0192148Y0116483D01*
X0192199Y0116462D01*
X0192248Y0116437D01*
X0192295Y0116409D01*
X0192340Y0116378D01*
X0192382Y0116344D01*
X0192422Y0116306D01*
X0192460Y0116266D01*
X0192494Y0116224D01*
X0192525Y0116179D01*
X0192553Y0116132D01*
X0192578Y0116083D01*
X0192599Y0116032D01*
X0192616Y0115980D01*
X0192629Y0115927D01*
X0192639Y0115873D01*
X0192645Y0115819D01*
X0192647Y0115764D01*
X0224172Y0111136D02*
X0224172Y0108580D01*
X0224174Y0108518D01*
X0224179Y0108457D01*
X0224189Y0108396D01*
X0224202Y0108335D01*
X0224218Y0108276D01*
X0224238Y0108218D01*
X0224262Y0108161D01*
X0224289Y0108105D01*
X0224319Y0108051D01*
X0224353Y0107999D01*
X0224389Y0107950D01*
X0224429Y0107902D01*
X0224471Y0107857D01*
X0224516Y0107815D01*
X0224564Y0107775D01*
X0224613Y0107739D01*
X0224665Y0107705D01*
X0224719Y0107675D01*
X0224775Y0107648D01*
X0224832Y0107624D01*
X0224890Y0107604D01*
X0224949Y0107588D01*
X0225010Y0107575D01*
X0225071Y0107565D01*
X0225132Y0107560D01*
X0225194Y0107558D01*
X0226727Y0107558D01*
X0226727Y0110114D01*
X0225961Y0110114D01*
X0224172Y0111136D02*
X0224174Y0111198D01*
X0224179Y0111259D01*
X0224189Y0111320D01*
X0224202Y0111381D01*
X0224218Y0111440D01*
X0224238Y0111498D01*
X0224262Y0111555D01*
X0224289Y0111611D01*
X0224319Y0111665D01*
X0224353Y0111717D01*
X0224389Y0111766D01*
X0224429Y0111814D01*
X0224471Y0111859D01*
X0224516Y0111901D01*
X0224564Y0111940D01*
X0224613Y0111977D01*
X0224665Y0112011D01*
X0224719Y0112041D01*
X0224775Y0112068D01*
X0224832Y0112092D01*
X0224890Y0112112D01*
X0224949Y0112128D01*
X0225010Y0112141D01*
X0225071Y0112151D01*
X0225132Y0112156D01*
X0225194Y0112158D01*
X0226727Y0112158D01*
X0228972Y0112158D02*
X0231527Y0107558D01*
X0231527Y0112158D01*
X0233772Y0112158D02*
X0235049Y0112158D01*
X0233772Y0112158D02*
X0233772Y0107558D01*
X0235049Y0107558D01*
X0235118Y0107560D01*
X0235187Y0107565D01*
X0235256Y0107575D01*
X0235324Y0107588D01*
X0235391Y0107605D01*
X0235457Y0107625D01*
X0235522Y0107649D01*
X0235586Y0107676D01*
X0235648Y0107707D01*
X0235708Y0107741D01*
X0235766Y0107778D01*
X0235822Y0107819D01*
X0235876Y0107862D01*
X0235928Y0107908D01*
X0235977Y0107957D01*
X0236023Y0108009D01*
X0236066Y0108063D01*
X0236107Y0108119D01*
X0236144Y0108177D01*
X0236178Y0108237D01*
X0236209Y0108299D01*
X0236236Y0108363D01*
X0236260Y0108428D01*
X0236280Y0108494D01*
X0236297Y0108561D01*
X0236310Y0108629D01*
X0236320Y0108698D01*
X0236325Y0108767D01*
X0236327Y0108836D01*
X0236327Y0110880D01*
X0236325Y0110949D01*
X0236320Y0111018D01*
X0236310Y0111087D01*
X0236297Y0111155D01*
X0236280Y0111222D01*
X0236260Y0111288D01*
X0236236Y0111353D01*
X0236209Y0111417D01*
X0236178Y0111479D01*
X0236144Y0111539D01*
X0236107Y0111597D01*
X0236066Y0111653D01*
X0236023Y0111707D01*
X0235977Y0111759D01*
X0235928Y0111808D01*
X0235876Y0111854D01*
X0235822Y0111897D01*
X0235766Y0111938D01*
X0235708Y0111975D01*
X0235648Y0112009D01*
X0235586Y0112040D01*
X0235522Y0112067D01*
X0235457Y0112091D01*
X0235391Y0112111D01*
X0235324Y0112128D01*
X0235256Y0112141D01*
X0235187Y0112151D01*
X0235118Y0112156D01*
X0235049Y0112158D01*
X0228972Y0112158D02*
X0228972Y0107558D01*
X0228416Y0100347D02*
X0229949Y0095747D01*
X0231483Y0100347D01*
X0226727Y0100347D02*
X0224172Y0100347D01*
X0224172Y0098303D01*
X0225705Y0098303D01*
X0225767Y0098301D01*
X0225828Y0098296D01*
X0225889Y0098286D01*
X0225950Y0098273D01*
X0226009Y0098257D01*
X0226067Y0098237D01*
X0226124Y0098213D01*
X0226180Y0098186D01*
X0226234Y0098156D01*
X0226286Y0098122D01*
X0226335Y0098086D01*
X0226383Y0098046D01*
X0226428Y0098004D01*
X0226470Y0097959D01*
X0226510Y0097911D01*
X0226546Y0097862D01*
X0226580Y0097810D01*
X0226610Y0097756D01*
X0226637Y0097700D01*
X0226661Y0097643D01*
X0226681Y0097585D01*
X0226697Y0097526D01*
X0226710Y0097465D01*
X0226720Y0097404D01*
X0226725Y0097343D01*
X0226727Y0097281D01*
X0226727Y0096769D01*
X0226725Y0096707D01*
X0226720Y0096646D01*
X0226710Y0096585D01*
X0226697Y0096524D01*
X0226681Y0096465D01*
X0226661Y0096407D01*
X0226637Y0096350D01*
X0226610Y0096294D01*
X0226580Y0096240D01*
X0226546Y0096188D01*
X0226510Y0096139D01*
X0226470Y0096091D01*
X0226428Y0096046D01*
X0226383Y0096004D01*
X0226335Y0095964D01*
X0226286Y0095928D01*
X0226234Y0095894D01*
X0226180Y0095864D01*
X0226124Y0095837D01*
X0226067Y0095813D01*
X0226009Y0095793D01*
X0225950Y0095777D01*
X0225889Y0095764D01*
X0225828Y0095754D01*
X0225767Y0095749D01*
X0225705Y0095747D01*
X0224172Y0095747D01*
D12*
X0198581Y0065834D02*
X0197348Y0065834D01*
X0197292Y0065832D01*
X0197236Y0065826D01*
X0197181Y0065817D01*
X0197126Y0065804D01*
X0197073Y0065787D01*
X0197021Y0065766D01*
X0196970Y0065742D01*
X0196921Y0065714D01*
X0196874Y0065684D01*
X0196829Y0065650D01*
X0196787Y0065613D01*
X0196747Y0065573D01*
X0196710Y0065531D01*
X0196676Y0065486D01*
X0196646Y0065439D01*
X0196618Y0065390D01*
X0196594Y0065339D01*
X0196573Y0065287D01*
X0196556Y0065234D01*
X0196543Y0065179D01*
X0196534Y0065124D01*
X0196528Y0065068D01*
X0196526Y0065012D01*
X0196525Y0065012D02*
X0196525Y0062956D01*
X0196526Y0062956D02*
X0196528Y0062900D01*
X0196534Y0062844D01*
X0196543Y0062789D01*
X0196556Y0062734D01*
X0196573Y0062681D01*
X0196594Y0062629D01*
X0196618Y0062578D01*
X0196646Y0062529D01*
X0196676Y0062482D01*
X0196710Y0062437D01*
X0196747Y0062395D01*
X0196787Y0062355D01*
X0196829Y0062318D01*
X0196874Y0062284D01*
X0196921Y0062254D01*
X0196970Y0062226D01*
X0197021Y0062202D01*
X0197073Y0062181D01*
X0197126Y0062164D01*
X0197181Y0062151D01*
X0197236Y0062142D01*
X0197292Y0062136D01*
X0197348Y0062134D01*
X0198581Y0062134D01*
X0198581Y0064190D01*
X0197964Y0064190D01*
X0194861Y0064806D02*
X0194861Y0063162D01*
X0194859Y0063099D01*
X0194853Y0063036D01*
X0194843Y0062973D01*
X0194830Y0062911D01*
X0194813Y0062850D01*
X0194792Y0062791D01*
X0194767Y0062732D01*
X0194739Y0062676D01*
X0194707Y0062621D01*
X0194672Y0062568D01*
X0194634Y0062518D01*
X0194593Y0062469D01*
X0194549Y0062424D01*
X0194502Y0062381D01*
X0194453Y0062342D01*
X0194401Y0062305D01*
X0194347Y0062272D01*
X0194291Y0062242D01*
X0194234Y0062215D01*
X0194175Y0062192D01*
X0194114Y0062173D01*
X0194053Y0062158D01*
X0193991Y0062146D01*
X0193928Y0062138D01*
X0193865Y0062134D01*
X0193801Y0062134D01*
X0193738Y0062138D01*
X0193675Y0062146D01*
X0193613Y0062158D01*
X0193552Y0062173D01*
X0193491Y0062192D01*
X0193432Y0062215D01*
X0193375Y0062242D01*
X0193319Y0062272D01*
X0193265Y0062305D01*
X0193213Y0062342D01*
X0193164Y0062381D01*
X0193117Y0062424D01*
X0193073Y0062469D01*
X0193032Y0062518D01*
X0192994Y0062568D01*
X0192959Y0062621D01*
X0192927Y0062676D01*
X0192899Y0062732D01*
X0192874Y0062791D01*
X0192853Y0062850D01*
X0192836Y0062911D01*
X0192823Y0062973D01*
X0192813Y0063036D01*
X0192807Y0063099D01*
X0192805Y0063162D01*
X0192805Y0064806D01*
X0192807Y0064869D01*
X0192813Y0064932D01*
X0192823Y0064995D01*
X0192836Y0065057D01*
X0192853Y0065118D01*
X0192874Y0065177D01*
X0192899Y0065236D01*
X0192927Y0065292D01*
X0192959Y0065347D01*
X0192994Y0065400D01*
X0193032Y0065450D01*
X0193073Y0065499D01*
X0193117Y0065544D01*
X0193164Y0065587D01*
X0193213Y0065626D01*
X0193265Y0065663D01*
X0193319Y0065696D01*
X0193375Y0065726D01*
X0193432Y0065753D01*
X0193491Y0065776D01*
X0193552Y0065795D01*
X0193613Y0065810D01*
X0193675Y0065822D01*
X0193738Y0065830D01*
X0193801Y0065834D01*
X0193865Y0065834D01*
X0193928Y0065830D01*
X0193991Y0065822D01*
X0194053Y0065810D01*
X0194114Y0065795D01*
X0194175Y0065776D01*
X0194234Y0065753D01*
X0194291Y0065726D01*
X0194347Y0065696D01*
X0194401Y0065663D01*
X0194453Y0065626D01*
X0194502Y0065587D01*
X0194549Y0065544D01*
X0194593Y0065499D01*
X0194634Y0065450D01*
X0194672Y0065400D01*
X0194707Y0065347D01*
X0194739Y0065292D01*
X0194767Y0065236D01*
X0194792Y0065177D01*
X0194813Y0065118D01*
X0194830Y0065057D01*
X0194843Y0064995D01*
X0194853Y0064932D01*
X0194859Y0064869D01*
X0194861Y0064806D01*
X0191283Y0062134D02*
X0190461Y0063779D01*
X0190256Y0063779D02*
X0189228Y0063779D01*
X0190256Y0063778D02*
X0190319Y0063780D01*
X0190382Y0063786D01*
X0190445Y0063796D01*
X0190507Y0063809D01*
X0190568Y0063826D01*
X0190627Y0063847D01*
X0190686Y0063872D01*
X0190742Y0063900D01*
X0190797Y0063932D01*
X0190850Y0063967D01*
X0190900Y0064005D01*
X0190949Y0064046D01*
X0190994Y0064090D01*
X0191037Y0064137D01*
X0191076Y0064186D01*
X0191113Y0064238D01*
X0191146Y0064292D01*
X0191176Y0064348D01*
X0191203Y0064405D01*
X0191226Y0064464D01*
X0191245Y0064525D01*
X0191260Y0064586D01*
X0191272Y0064648D01*
X0191280Y0064711D01*
X0191284Y0064774D01*
X0191284Y0064838D01*
X0191280Y0064901D01*
X0191272Y0064964D01*
X0191260Y0065026D01*
X0191245Y0065087D01*
X0191226Y0065148D01*
X0191203Y0065207D01*
X0191176Y0065264D01*
X0191146Y0065320D01*
X0191113Y0065374D01*
X0191076Y0065426D01*
X0191037Y0065475D01*
X0190994Y0065522D01*
X0190949Y0065566D01*
X0190900Y0065607D01*
X0190850Y0065645D01*
X0190797Y0065680D01*
X0190742Y0065712D01*
X0190686Y0065740D01*
X0190627Y0065765D01*
X0190568Y0065786D01*
X0190507Y0065803D01*
X0190445Y0065816D01*
X0190382Y0065826D01*
X0190319Y0065832D01*
X0190256Y0065834D01*
X0189228Y0065834D01*
X0189228Y0062134D01*
X0186685Y0063779D02*
X0185657Y0063779D01*
X0186685Y0063778D02*
X0186748Y0063780D01*
X0186811Y0063786D01*
X0186874Y0063796D01*
X0186936Y0063809D01*
X0186997Y0063826D01*
X0187056Y0063847D01*
X0187115Y0063872D01*
X0187171Y0063900D01*
X0187226Y0063932D01*
X0187279Y0063967D01*
X0187329Y0064005D01*
X0187378Y0064046D01*
X0187423Y0064090D01*
X0187466Y0064137D01*
X0187505Y0064186D01*
X0187542Y0064238D01*
X0187575Y0064292D01*
X0187605Y0064348D01*
X0187632Y0064405D01*
X0187655Y0064464D01*
X0187674Y0064525D01*
X0187689Y0064586D01*
X0187701Y0064648D01*
X0187709Y0064711D01*
X0187713Y0064774D01*
X0187713Y0064838D01*
X0187709Y0064901D01*
X0187701Y0064964D01*
X0187689Y0065026D01*
X0187674Y0065087D01*
X0187655Y0065148D01*
X0187632Y0065207D01*
X0187605Y0065264D01*
X0187575Y0065320D01*
X0187542Y0065374D01*
X0187505Y0065426D01*
X0187466Y0065475D01*
X0187423Y0065522D01*
X0187378Y0065566D01*
X0187329Y0065607D01*
X0187279Y0065645D01*
X0187226Y0065680D01*
X0187171Y0065712D01*
X0187115Y0065740D01*
X0187056Y0065765D01*
X0186997Y0065786D01*
X0186936Y0065803D01*
X0186874Y0065816D01*
X0186811Y0065826D01*
X0186748Y0065832D01*
X0186685Y0065834D01*
X0185657Y0065834D01*
X0185657Y0062134D01*
X0172510Y0065775D02*
X0170455Y0065775D01*
X0171483Y0065775D02*
X0171483Y0062075D01*
X0169150Y0063103D02*
X0169150Y0064747D01*
X0169151Y0064747D02*
X0169149Y0064810D01*
X0169143Y0064873D01*
X0169133Y0064936D01*
X0169120Y0064998D01*
X0169103Y0065059D01*
X0169082Y0065118D01*
X0169057Y0065177D01*
X0169029Y0065233D01*
X0168997Y0065288D01*
X0168962Y0065341D01*
X0168924Y0065391D01*
X0168883Y0065440D01*
X0168839Y0065485D01*
X0168792Y0065528D01*
X0168743Y0065567D01*
X0168691Y0065604D01*
X0168637Y0065637D01*
X0168581Y0065667D01*
X0168524Y0065694D01*
X0168465Y0065717D01*
X0168404Y0065736D01*
X0168343Y0065751D01*
X0168281Y0065763D01*
X0168218Y0065771D01*
X0168155Y0065775D01*
X0168091Y0065775D01*
X0168028Y0065771D01*
X0167965Y0065763D01*
X0167903Y0065751D01*
X0167842Y0065736D01*
X0167781Y0065717D01*
X0167722Y0065694D01*
X0167665Y0065667D01*
X0167609Y0065637D01*
X0167555Y0065604D01*
X0167503Y0065567D01*
X0167454Y0065528D01*
X0167407Y0065485D01*
X0167363Y0065440D01*
X0167322Y0065391D01*
X0167284Y0065341D01*
X0167249Y0065288D01*
X0167217Y0065233D01*
X0167189Y0065177D01*
X0167164Y0065118D01*
X0167143Y0065059D01*
X0167126Y0064998D01*
X0167113Y0064936D01*
X0167103Y0064873D01*
X0167097Y0064810D01*
X0167095Y0064747D01*
X0167095Y0063103D01*
X0167097Y0063040D01*
X0167103Y0062977D01*
X0167113Y0062914D01*
X0167126Y0062852D01*
X0167143Y0062791D01*
X0167164Y0062732D01*
X0167189Y0062673D01*
X0167217Y0062617D01*
X0167249Y0062562D01*
X0167284Y0062509D01*
X0167322Y0062459D01*
X0167363Y0062410D01*
X0167407Y0062365D01*
X0167454Y0062322D01*
X0167503Y0062283D01*
X0167555Y0062246D01*
X0167609Y0062213D01*
X0167665Y0062183D01*
X0167722Y0062156D01*
X0167781Y0062133D01*
X0167842Y0062114D01*
X0167903Y0062099D01*
X0167965Y0062087D01*
X0168028Y0062079D01*
X0168091Y0062075D01*
X0168155Y0062075D01*
X0168218Y0062079D01*
X0168281Y0062087D01*
X0168343Y0062099D01*
X0168404Y0062114D01*
X0168465Y0062133D01*
X0168524Y0062156D01*
X0168581Y0062183D01*
X0168637Y0062213D01*
X0168691Y0062246D01*
X0168743Y0062283D01*
X0168792Y0062322D01*
X0168839Y0062365D01*
X0168883Y0062410D01*
X0168924Y0062459D01*
X0168962Y0062509D01*
X0168997Y0062562D01*
X0169029Y0062617D01*
X0169057Y0062673D01*
X0169082Y0062732D01*
X0169103Y0062791D01*
X0169120Y0062852D01*
X0169133Y0062914D01*
X0169143Y0062977D01*
X0169149Y0063040D01*
X0169151Y0063103D01*
X0165550Y0063103D02*
X0165550Y0064747D01*
X0165551Y0064747D02*
X0165549Y0064810D01*
X0165543Y0064873D01*
X0165533Y0064936D01*
X0165520Y0064998D01*
X0165503Y0065059D01*
X0165482Y0065118D01*
X0165457Y0065177D01*
X0165429Y0065233D01*
X0165397Y0065288D01*
X0165362Y0065341D01*
X0165324Y0065391D01*
X0165283Y0065440D01*
X0165239Y0065485D01*
X0165192Y0065528D01*
X0165143Y0065567D01*
X0165091Y0065604D01*
X0165037Y0065637D01*
X0164981Y0065667D01*
X0164924Y0065694D01*
X0164865Y0065717D01*
X0164804Y0065736D01*
X0164743Y0065751D01*
X0164681Y0065763D01*
X0164618Y0065771D01*
X0164555Y0065775D01*
X0164491Y0065775D01*
X0164428Y0065771D01*
X0164365Y0065763D01*
X0164303Y0065751D01*
X0164242Y0065736D01*
X0164181Y0065717D01*
X0164122Y0065694D01*
X0164065Y0065667D01*
X0164009Y0065637D01*
X0163955Y0065604D01*
X0163903Y0065567D01*
X0163854Y0065528D01*
X0163807Y0065485D01*
X0163763Y0065440D01*
X0163722Y0065391D01*
X0163684Y0065341D01*
X0163649Y0065288D01*
X0163617Y0065233D01*
X0163589Y0065177D01*
X0163564Y0065118D01*
X0163543Y0065059D01*
X0163526Y0064998D01*
X0163513Y0064936D01*
X0163503Y0064873D01*
X0163497Y0064810D01*
X0163495Y0064747D01*
X0163495Y0063103D01*
X0163497Y0063040D01*
X0163503Y0062977D01*
X0163513Y0062914D01*
X0163526Y0062852D01*
X0163543Y0062791D01*
X0163564Y0062732D01*
X0163589Y0062673D01*
X0163617Y0062617D01*
X0163649Y0062562D01*
X0163684Y0062509D01*
X0163722Y0062459D01*
X0163763Y0062410D01*
X0163807Y0062365D01*
X0163854Y0062322D01*
X0163903Y0062283D01*
X0163955Y0062246D01*
X0164009Y0062213D01*
X0164065Y0062183D01*
X0164122Y0062156D01*
X0164181Y0062133D01*
X0164242Y0062114D01*
X0164303Y0062099D01*
X0164365Y0062087D01*
X0164428Y0062079D01*
X0164491Y0062075D01*
X0164555Y0062075D01*
X0164618Y0062079D01*
X0164681Y0062087D01*
X0164743Y0062099D01*
X0164804Y0062114D01*
X0164865Y0062133D01*
X0164924Y0062156D01*
X0164981Y0062183D01*
X0165037Y0062213D01*
X0165091Y0062246D01*
X0165143Y0062283D01*
X0165192Y0062322D01*
X0165239Y0062365D01*
X0165283Y0062410D01*
X0165324Y0062459D01*
X0165362Y0062509D01*
X0165397Y0062562D01*
X0165429Y0062617D01*
X0165457Y0062673D01*
X0165482Y0062732D01*
X0165503Y0062791D01*
X0165520Y0062852D01*
X0165533Y0062914D01*
X0165543Y0062977D01*
X0165549Y0063040D01*
X0165551Y0063103D01*
X0161094Y0062075D02*
X0161157Y0062077D01*
X0161220Y0062083D01*
X0161283Y0062093D01*
X0161345Y0062106D01*
X0161406Y0062123D01*
X0161465Y0062144D01*
X0161524Y0062169D01*
X0161580Y0062197D01*
X0161635Y0062229D01*
X0161688Y0062264D01*
X0161738Y0062302D01*
X0161787Y0062343D01*
X0161832Y0062387D01*
X0161875Y0062434D01*
X0161914Y0062483D01*
X0161951Y0062535D01*
X0161984Y0062589D01*
X0162014Y0062645D01*
X0162041Y0062702D01*
X0162064Y0062761D01*
X0162083Y0062822D01*
X0162098Y0062883D01*
X0162110Y0062945D01*
X0162118Y0063008D01*
X0162122Y0063071D01*
X0162122Y0063135D01*
X0162118Y0063198D01*
X0162110Y0063261D01*
X0162098Y0063323D01*
X0162083Y0063384D01*
X0162064Y0063445D01*
X0162041Y0063504D01*
X0162014Y0063561D01*
X0161984Y0063617D01*
X0161951Y0063671D01*
X0161914Y0063723D01*
X0161875Y0063772D01*
X0161832Y0063819D01*
X0161787Y0063863D01*
X0161738Y0063904D01*
X0161688Y0063942D01*
X0161635Y0063977D01*
X0161580Y0064009D01*
X0161524Y0064037D01*
X0161465Y0064062D01*
X0161406Y0064083D01*
X0161345Y0064100D01*
X0161283Y0064113D01*
X0161220Y0064123D01*
X0161157Y0064129D01*
X0161094Y0064131D01*
X0160067Y0064131D01*
X0161094Y0064131D02*
X0161150Y0064133D01*
X0161206Y0064139D01*
X0161261Y0064148D01*
X0161316Y0064161D01*
X0161369Y0064178D01*
X0161421Y0064199D01*
X0161472Y0064223D01*
X0161521Y0064251D01*
X0161568Y0064281D01*
X0161613Y0064315D01*
X0161655Y0064352D01*
X0161695Y0064392D01*
X0161732Y0064434D01*
X0161766Y0064479D01*
X0161796Y0064526D01*
X0161824Y0064575D01*
X0161848Y0064626D01*
X0161869Y0064678D01*
X0161886Y0064731D01*
X0161899Y0064786D01*
X0161908Y0064841D01*
X0161914Y0064897D01*
X0161916Y0064953D01*
X0161914Y0065009D01*
X0161908Y0065065D01*
X0161899Y0065120D01*
X0161886Y0065175D01*
X0161869Y0065228D01*
X0161848Y0065280D01*
X0161824Y0065331D01*
X0161796Y0065380D01*
X0161766Y0065427D01*
X0161732Y0065472D01*
X0161695Y0065514D01*
X0161655Y0065554D01*
X0161613Y0065591D01*
X0161568Y0065625D01*
X0161521Y0065655D01*
X0161472Y0065683D01*
X0161421Y0065707D01*
X0161369Y0065728D01*
X0161316Y0065745D01*
X0161261Y0065758D01*
X0161206Y0065767D01*
X0161150Y0065773D01*
X0161094Y0065775D01*
X0160067Y0065775D01*
X0160067Y0062075D01*
X0161094Y0062075D01*
X0149469Y0065775D02*
X0147414Y0065775D01*
X0148441Y0065775D02*
X0148441Y0062075D01*
X0146305Y0062075D02*
X0144660Y0062075D01*
X0144660Y0065775D01*
X0146305Y0065775D01*
X0145894Y0064131D02*
X0144660Y0064131D01*
X0142698Y0063617D02*
X0141567Y0064234D01*
X0141979Y0065775D02*
X0142055Y0065773D01*
X0142131Y0065767D01*
X0142207Y0065758D01*
X0142282Y0065745D01*
X0142357Y0065728D01*
X0142430Y0065707D01*
X0142503Y0065683D01*
X0142574Y0065656D01*
X0142643Y0065624D01*
X0142712Y0065590D01*
X0142778Y0065552D01*
X0142842Y0065511D01*
X0142904Y0065467D01*
X0141567Y0064234D02*
X0141521Y0064263D01*
X0141478Y0064295D01*
X0141436Y0064329D01*
X0141397Y0064367D01*
X0141360Y0064406D01*
X0141326Y0064448D01*
X0141294Y0064493D01*
X0141266Y0064539D01*
X0141241Y0064587D01*
X0141218Y0064636D01*
X0141200Y0064687D01*
X0141184Y0064739D01*
X0141172Y0064791D01*
X0141163Y0064845D01*
X0141158Y0064899D01*
X0141156Y0064953D01*
X0141157Y0064953D02*
X0141159Y0065009D01*
X0141165Y0065065D01*
X0141174Y0065120D01*
X0141187Y0065175D01*
X0141204Y0065228D01*
X0141225Y0065280D01*
X0141249Y0065331D01*
X0141277Y0065380D01*
X0141307Y0065427D01*
X0141341Y0065472D01*
X0141378Y0065514D01*
X0141418Y0065554D01*
X0141460Y0065591D01*
X0141505Y0065625D01*
X0141552Y0065655D01*
X0141601Y0065683D01*
X0141652Y0065707D01*
X0141704Y0065728D01*
X0141757Y0065745D01*
X0141812Y0065758D01*
X0141867Y0065767D01*
X0141923Y0065773D01*
X0141979Y0065775D01*
X0141054Y0062589D02*
X0141112Y0062533D01*
X0141172Y0062480D01*
X0141235Y0062429D01*
X0141301Y0062382D01*
X0141368Y0062338D01*
X0141438Y0062297D01*
X0141509Y0062259D01*
X0141582Y0062225D01*
X0141656Y0062194D01*
X0141732Y0062166D01*
X0141809Y0062142D01*
X0141887Y0062122D01*
X0141966Y0062105D01*
X0142046Y0062092D01*
X0142126Y0062082D01*
X0142206Y0062077D01*
X0142287Y0062075D01*
X0142343Y0062077D01*
X0142399Y0062083D01*
X0142454Y0062092D01*
X0142509Y0062105D01*
X0142562Y0062122D01*
X0142614Y0062143D01*
X0142665Y0062167D01*
X0142714Y0062195D01*
X0142761Y0062225D01*
X0142806Y0062259D01*
X0142848Y0062296D01*
X0142888Y0062336D01*
X0142925Y0062378D01*
X0142959Y0062423D01*
X0142989Y0062470D01*
X0143017Y0062519D01*
X0143041Y0062570D01*
X0143062Y0062622D01*
X0143079Y0062675D01*
X0143092Y0062730D01*
X0143101Y0062785D01*
X0143107Y0062841D01*
X0143109Y0062897D01*
X0143107Y0062951D01*
X0143102Y0063005D01*
X0143093Y0063059D01*
X0143081Y0063111D01*
X0143065Y0063163D01*
X0143047Y0063214D01*
X0143024Y0063263D01*
X0142999Y0063311D01*
X0142971Y0063357D01*
X0142939Y0063402D01*
X0142905Y0063444D01*
X0142868Y0063483D01*
X0142829Y0063521D01*
X0142787Y0063555D01*
X0142744Y0063587D01*
X0142698Y0063616D01*
X0139825Y0062075D02*
X0138180Y0062075D01*
X0138180Y0065775D01*
X0139825Y0065775D01*
X0139414Y0064131D02*
X0138180Y0064131D01*
X0135709Y0063720D02*
X0136532Y0062075D01*
X0135504Y0063720D02*
X0134476Y0063720D01*
X0135504Y0063719D02*
X0135567Y0063721D01*
X0135630Y0063727D01*
X0135693Y0063737D01*
X0135755Y0063750D01*
X0135816Y0063767D01*
X0135875Y0063788D01*
X0135934Y0063813D01*
X0135990Y0063841D01*
X0136045Y0063873D01*
X0136098Y0063908D01*
X0136148Y0063946D01*
X0136197Y0063987D01*
X0136242Y0064031D01*
X0136285Y0064078D01*
X0136324Y0064127D01*
X0136361Y0064179D01*
X0136394Y0064233D01*
X0136424Y0064289D01*
X0136451Y0064346D01*
X0136474Y0064405D01*
X0136493Y0064466D01*
X0136508Y0064527D01*
X0136520Y0064589D01*
X0136528Y0064652D01*
X0136532Y0064715D01*
X0136532Y0064779D01*
X0136528Y0064842D01*
X0136520Y0064905D01*
X0136508Y0064967D01*
X0136493Y0065028D01*
X0136474Y0065089D01*
X0136451Y0065148D01*
X0136424Y0065205D01*
X0136394Y0065261D01*
X0136361Y0065315D01*
X0136324Y0065367D01*
X0136285Y0065416D01*
X0136242Y0065463D01*
X0136197Y0065507D01*
X0136148Y0065548D01*
X0136098Y0065586D01*
X0136045Y0065621D01*
X0135990Y0065653D01*
X0135934Y0065681D01*
X0135875Y0065706D01*
X0135816Y0065727D01*
X0135755Y0065744D01*
X0135693Y0065757D01*
X0135630Y0065767D01*
X0135567Y0065773D01*
X0135504Y0065775D01*
X0134476Y0065775D01*
X0134476Y0062075D01*
X0252543Y0139092D02*
X0252605Y0139090D01*
X0252667Y0139084D01*
X0252728Y0139075D01*
X0252788Y0139061D01*
X0252848Y0139044D01*
X0252906Y0139023D01*
X0252963Y0138999D01*
X0253018Y0138971D01*
X0253072Y0138940D01*
X0253123Y0138905D01*
X0253172Y0138868D01*
X0253219Y0138827D01*
X0253263Y0138784D01*
X0253262Y0138783D02*
X0255318Y0137036D01*
X0255318Y0139091D01*
X0254804Y0142383D02*
X0254708Y0142428D01*
X0254610Y0142469D01*
X0254510Y0142507D01*
X0254410Y0142542D01*
X0254308Y0142573D01*
X0254205Y0142601D01*
X0254102Y0142624D01*
X0253997Y0142645D01*
X0253892Y0142661D01*
X0253787Y0142674D01*
X0253681Y0142684D01*
X0253574Y0142689D01*
X0253468Y0142691D01*
X0253468Y0140636D02*
X0253362Y0140638D01*
X0253255Y0140643D01*
X0253149Y0140653D01*
X0253044Y0140666D01*
X0252939Y0140682D01*
X0252834Y0140703D01*
X0252731Y0140726D01*
X0252628Y0140754D01*
X0252526Y0140785D01*
X0252426Y0140820D01*
X0252326Y0140858D01*
X0252228Y0140899D01*
X0252132Y0140944D01*
X0251617Y0141664D02*
X0251619Y0141716D01*
X0251624Y0141769D01*
X0251633Y0141820D01*
X0251646Y0141871D01*
X0251662Y0141921D01*
X0251681Y0141970D01*
X0251704Y0142017D01*
X0251730Y0142063D01*
X0251759Y0142106D01*
X0251791Y0142148D01*
X0251825Y0142187D01*
X0251863Y0142224D01*
X0251903Y0142258D01*
X0251945Y0142290D01*
X0251989Y0142318D01*
X0252035Y0142343D01*
X0252082Y0142365D01*
X0252131Y0142384D01*
X0252440Y0142486D02*
X0254496Y0140841D01*
X0255318Y0141664D02*
X0255316Y0141716D01*
X0255311Y0141769D01*
X0255302Y0141820D01*
X0255289Y0141871D01*
X0255273Y0141921D01*
X0255254Y0141970D01*
X0255231Y0142017D01*
X0255205Y0142063D01*
X0255176Y0142106D01*
X0255144Y0142148D01*
X0255110Y0142187D01*
X0255072Y0142224D01*
X0255032Y0142258D01*
X0254990Y0142290D01*
X0254946Y0142318D01*
X0254900Y0142343D01*
X0254853Y0142365D01*
X0254804Y0142384D01*
X0255318Y0141664D02*
X0255316Y0141612D01*
X0255311Y0141559D01*
X0255302Y0141508D01*
X0255289Y0141457D01*
X0255273Y0141407D01*
X0255254Y0141358D01*
X0255231Y0141311D01*
X0255205Y0141265D01*
X0255176Y0141222D01*
X0255144Y0141180D01*
X0255110Y0141141D01*
X0255072Y0141104D01*
X0255032Y0141070D01*
X0254990Y0141038D01*
X0254946Y0141010D01*
X0254900Y0140985D01*
X0254853Y0140963D01*
X0254804Y0140944D01*
X0253468Y0142691D02*
X0253362Y0142689D01*
X0253255Y0142684D01*
X0253149Y0142674D01*
X0253044Y0142661D01*
X0252939Y0142645D01*
X0252834Y0142624D01*
X0252731Y0142601D01*
X0252628Y0142573D01*
X0252526Y0142542D01*
X0252426Y0142507D01*
X0252326Y0142469D01*
X0252228Y0142428D01*
X0252132Y0142383D01*
X0251617Y0141664D02*
X0251619Y0141612D01*
X0251624Y0141559D01*
X0251633Y0141508D01*
X0251646Y0141457D01*
X0251662Y0141407D01*
X0251681Y0141358D01*
X0251704Y0141311D01*
X0251730Y0141265D01*
X0251759Y0141222D01*
X0251791Y0141180D01*
X0251825Y0141141D01*
X0251863Y0141104D01*
X0251903Y0141070D01*
X0251945Y0141038D01*
X0251989Y0141010D01*
X0252035Y0140985D01*
X0252082Y0140963D01*
X0252131Y0140944D01*
X0253468Y0140636D02*
X0253574Y0140638D01*
X0253681Y0140643D01*
X0253787Y0140653D01*
X0253892Y0140666D01*
X0253997Y0140682D01*
X0254102Y0140703D01*
X0254205Y0140726D01*
X0254308Y0140754D01*
X0254410Y0140785D01*
X0254510Y0140820D01*
X0254610Y0140858D01*
X0254708Y0140899D01*
X0254804Y0140944D01*
X0255318Y0144236D02*
X0255318Y0146291D01*
X0255318Y0147836D02*
X0255318Y0148864D01*
X0255316Y0148927D01*
X0255310Y0148990D01*
X0255300Y0149053D01*
X0255287Y0149115D01*
X0255270Y0149176D01*
X0255249Y0149235D01*
X0255224Y0149294D01*
X0255196Y0149350D01*
X0255164Y0149405D01*
X0255129Y0149458D01*
X0255091Y0149508D01*
X0255050Y0149557D01*
X0255006Y0149602D01*
X0254959Y0149645D01*
X0254910Y0149684D01*
X0254858Y0149721D01*
X0254804Y0149754D01*
X0254748Y0149784D01*
X0254691Y0149811D01*
X0254632Y0149834D01*
X0254571Y0149853D01*
X0254510Y0149868D01*
X0254448Y0149880D01*
X0254385Y0149888D01*
X0254322Y0149892D01*
X0254258Y0149892D01*
X0254195Y0149888D01*
X0254132Y0149880D01*
X0254070Y0149868D01*
X0254009Y0149853D01*
X0253948Y0149834D01*
X0253889Y0149811D01*
X0253832Y0149784D01*
X0253776Y0149754D01*
X0253722Y0149721D01*
X0253670Y0149684D01*
X0253621Y0149645D01*
X0253574Y0149602D01*
X0253530Y0149557D01*
X0253489Y0149508D01*
X0253451Y0149458D01*
X0253416Y0149405D01*
X0253384Y0149350D01*
X0253356Y0149294D01*
X0253331Y0149235D01*
X0253310Y0149176D01*
X0253293Y0149115D01*
X0253280Y0149053D01*
X0253270Y0148990D01*
X0253264Y0148927D01*
X0253262Y0148864D01*
X0253262Y0149069D02*
X0253262Y0148247D01*
X0253262Y0149069D02*
X0253260Y0149125D01*
X0253254Y0149181D01*
X0253245Y0149236D01*
X0253232Y0149291D01*
X0253215Y0149344D01*
X0253194Y0149396D01*
X0253170Y0149447D01*
X0253142Y0149496D01*
X0253112Y0149543D01*
X0253078Y0149588D01*
X0253041Y0149630D01*
X0253001Y0149670D01*
X0252959Y0149707D01*
X0252914Y0149741D01*
X0252867Y0149771D01*
X0252818Y0149799D01*
X0252767Y0149823D01*
X0252715Y0149844D01*
X0252662Y0149861D01*
X0252607Y0149874D01*
X0252552Y0149883D01*
X0252496Y0149889D01*
X0252440Y0149891D01*
X0252384Y0149889D01*
X0252328Y0149883D01*
X0252273Y0149874D01*
X0252218Y0149861D01*
X0252165Y0149844D01*
X0252113Y0149823D01*
X0252062Y0149799D01*
X0252013Y0149771D01*
X0251966Y0149741D01*
X0251921Y0149707D01*
X0251879Y0149670D01*
X0251839Y0149630D01*
X0251802Y0149588D01*
X0251768Y0149543D01*
X0251738Y0149496D01*
X0251710Y0149447D01*
X0251686Y0149396D01*
X0251665Y0149344D01*
X0251648Y0149291D01*
X0251635Y0149236D01*
X0251626Y0149181D01*
X0251620Y0149125D01*
X0251618Y0149069D01*
X0251618Y0147836D01*
X0253262Y0145983D02*
X0255318Y0144236D01*
X0252440Y0144236D02*
X0252376Y0144259D01*
X0252313Y0144285D01*
X0252252Y0144315D01*
X0252193Y0144348D01*
X0252136Y0144385D01*
X0252081Y0144425D01*
X0252029Y0144468D01*
X0251979Y0144514D01*
X0251931Y0144562D01*
X0251887Y0144613D01*
X0251845Y0144667D01*
X0251807Y0144723D01*
X0251772Y0144781D01*
X0251740Y0144841D01*
X0251712Y0144903D01*
X0251687Y0144966D01*
X0251666Y0145031D01*
X0251649Y0145097D01*
X0251635Y0145163D01*
X0251626Y0145230D01*
X0251620Y0145298D01*
X0251618Y0145366D01*
X0251620Y0145424D01*
X0251625Y0145482D01*
X0251634Y0145539D01*
X0251647Y0145596D01*
X0251663Y0145652D01*
X0251683Y0145707D01*
X0251706Y0145760D01*
X0251732Y0145812D01*
X0251762Y0145862D01*
X0251795Y0145910D01*
X0251830Y0145956D01*
X0251869Y0145999D01*
X0251910Y0146040D01*
X0251953Y0146079D01*
X0251999Y0146114D01*
X0252047Y0146147D01*
X0252097Y0146177D01*
X0252149Y0146203D01*
X0252202Y0146226D01*
X0252257Y0146246D01*
X0252313Y0146262D01*
X0252370Y0146275D01*
X0252427Y0146284D01*
X0252485Y0146289D01*
X0252543Y0146291D01*
X0252543Y0146292D02*
X0252605Y0146290D01*
X0252667Y0146284D01*
X0252728Y0146275D01*
X0252788Y0146261D01*
X0252848Y0146244D01*
X0252906Y0146223D01*
X0252963Y0146199D01*
X0253018Y0146171D01*
X0253072Y0146140D01*
X0253123Y0146105D01*
X0253172Y0146068D01*
X0253219Y0146027D01*
X0253263Y0145984D01*
X0253879Y0151470D02*
X0253879Y0153937D01*
X0254804Y0157263D02*
X0254708Y0157308D01*
X0254610Y0157349D01*
X0254510Y0157387D01*
X0254410Y0157422D01*
X0254308Y0157453D01*
X0254205Y0157481D01*
X0254102Y0157504D01*
X0253997Y0157525D01*
X0253892Y0157541D01*
X0253787Y0157554D01*
X0253681Y0157564D01*
X0253574Y0157569D01*
X0253468Y0157571D01*
X0253468Y0155516D02*
X0253362Y0155518D01*
X0253255Y0155523D01*
X0253149Y0155533D01*
X0253044Y0155546D01*
X0252939Y0155562D01*
X0252834Y0155583D01*
X0252731Y0155606D01*
X0252628Y0155634D01*
X0252526Y0155665D01*
X0252426Y0155700D01*
X0252326Y0155738D01*
X0252228Y0155779D01*
X0252132Y0155824D01*
X0251617Y0156544D02*
X0251619Y0156596D01*
X0251624Y0156649D01*
X0251633Y0156700D01*
X0251646Y0156751D01*
X0251662Y0156801D01*
X0251681Y0156850D01*
X0251704Y0156897D01*
X0251730Y0156943D01*
X0251759Y0156986D01*
X0251791Y0157028D01*
X0251825Y0157067D01*
X0251863Y0157104D01*
X0251903Y0157138D01*
X0251945Y0157170D01*
X0251989Y0157198D01*
X0252035Y0157223D01*
X0252082Y0157245D01*
X0252131Y0157264D01*
X0252440Y0157366D02*
X0254496Y0155721D01*
X0255318Y0156544D02*
X0255316Y0156596D01*
X0255311Y0156649D01*
X0255302Y0156700D01*
X0255289Y0156751D01*
X0255273Y0156801D01*
X0255254Y0156850D01*
X0255231Y0156897D01*
X0255205Y0156943D01*
X0255176Y0156986D01*
X0255144Y0157028D01*
X0255110Y0157067D01*
X0255072Y0157104D01*
X0255032Y0157138D01*
X0254990Y0157170D01*
X0254946Y0157198D01*
X0254900Y0157223D01*
X0254853Y0157245D01*
X0254804Y0157264D01*
X0255318Y0156544D02*
X0255316Y0156492D01*
X0255311Y0156439D01*
X0255302Y0156388D01*
X0255289Y0156337D01*
X0255273Y0156287D01*
X0255254Y0156238D01*
X0255231Y0156191D01*
X0255205Y0156145D01*
X0255176Y0156102D01*
X0255144Y0156060D01*
X0255110Y0156021D01*
X0255072Y0155984D01*
X0255032Y0155950D01*
X0254990Y0155918D01*
X0254946Y0155890D01*
X0254900Y0155865D01*
X0254853Y0155843D01*
X0254804Y0155824D01*
X0253468Y0157571D02*
X0253362Y0157569D01*
X0253255Y0157564D01*
X0253149Y0157554D01*
X0253044Y0157541D01*
X0252939Y0157525D01*
X0252834Y0157504D01*
X0252731Y0157481D01*
X0252628Y0157453D01*
X0252526Y0157422D01*
X0252426Y0157387D01*
X0252326Y0157349D01*
X0252228Y0157308D01*
X0252132Y0157263D01*
X0251617Y0156544D02*
X0251619Y0156492D01*
X0251624Y0156439D01*
X0251633Y0156388D01*
X0251646Y0156337D01*
X0251662Y0156287D01*
X0251681Y0156238D01*
X0251704Y0156191D01*
X0251730Y0156145D01*
X0251759Y0156102D01*
X0251791Y0156060D01*
X0251825Y0156021D01*
X0251863Y0155984D01*
X0251903Y0155950D01*
X0251945Y0155918D01*
X0251989Y0155890D01*
X0252035Y0155865D01*
X0252082Y0155843D01*
X0252131Y0155824D01*
X0253468Y0155516D02*
X0253574Y0155518D01*
X0253681Y0155523D01*
X0253787Y0155533D01*
X0253892Y0155546D01*
X0253997Y0155562D01*
X0254102Y0155583D01*
X0254205Y0155606D01*
X0254308Y0155634D01*
X0254410Y0155665D01*
X0254510Y0155700D01*
X0254610Y0155738D01*
X0254708Y0155779D01*
X0254804Y0155824D01*
X0254290Y0159116D02*
X0254353Y0159118D01*
X0254416Y0159124D01*
X0254479Y0159134D01*
X0254541Y0159147D01*
X0254602Y0159164D01*
X0254661Y0159185D01*
X0254720Y0159210D01*
X0254776Y0159238D01*
X0254831Y0159270D01*
X0254884Y0159305D01*
X0254934Y0159343D01*
X0254983Y0159384D01*
X0255028Y0159428D01*
X0255071Y0159475D01*
X0255110Y0159524D01*
X0255147Y0159576D01*
X0255180Y0159630D01*
X0255210Y0159686D01*
X0255237Y0159743D01*
X0255260Y0159802D01*
X0255279Y0159863D01*
X0255294Y0159924D01*
X0255306Y0159986D01*
X0255314Y0160049D01*
X0255318Y0160112D01*
X0255318Y0160176D01*
X0255314Y0160239D01*
X0255306Y0160302D01*
X0255294Y0160364D01*
X0255279Y0160425D01*
X0255260Y0160486D01*
X0255237Y0160545D01*
X0255210Y0160602D01*
X0255180Y0160658D01*
X0255147Y0160712D01*
X0255110Y0160764D01*
X0255071Y0160813D01*
X0255028Y0160860D01*
X0254983Y0160904D01*
X0254934Y0160945D01*
X0254884Y0160983D01*
X0254831Y0161018D01*
X0254776Y0161050D01*
X0254720Y0161078D01*
X0254661Y0161103D01*
X0254602Y0161124D01*
X0254541Y0161141D01*
X0254479Y0161154D01*
X0254416Y0161164D01*
X0254353Y0161170D01*
X0254290Y0161172D01*
X0254227Y0161170D01*
X0254164Y0161164D01*
X0254101Y0161154D01*
X0254039Y0161141D01*
X0253978Y0161124D01*
X0253919Y0161103D01*
X0253860Y0161078D01*
X0253804Y0161050D01*
X0253749Y0161018D01*
X0253696Y0160983D01*
X0253646Y0160945D01*
X0253597Y0160904D01*
X0253552Y0160860D01*
X0253509Y0160813D01*
X0253470Y0160764D01*
X0253433Y0160712D01*
X0253400Y0160658D01*
X0253370Y0160602D01*
X0253343Y0160545D01*
X0253320Y0160486D01*
X0253301Y0160425D01*
X0253286Y0160364D01*
X0253274Y0160302D01*
X0253266Y0160239D01*
X0253262Y0160176D01*
X0253262Y0160112D01*
X0253266Y0160049D01*
X0253274Y0159986D01*
X0253286Y0159924D01*
X0253301Y0159863D01*
X0253320Y0159802D01*
X0253343Y0159743D01*
X0253370Y0159686D01*
X0253400Y0159630D01*
X0253433Y0159576D01*
X0253470Y0159524D01*
X0253509Y0159475D01*
X0253552Y0159428D01*
X0253597Y0159384D01*
X0253646Y0159343D01*
X0253696Y0159305D01*
X0253749Y0159270D01*
X0253804Y0159238D01*
X0253860Y0159210D01*
X0253919Y0159185D01*
X0253978Y0159164D01*
X0254039Y0159147D01*
X0254101Y0159134D01*
X0254164Y0159124D01*
X0254227Y0159118D01*
X0254290Y0159116D01*
X0252440Y0159322D02*
X0252496Y0159324D01*
X0252552Y0159330D01*
X0252607Y0159339D01*
X0252662Y0159352D01*
X0252715Y0159369D01*
X0252767Y0159390D01*
X0252818Y0159414D01*
X0252867Y0159442D01*
X0252914Y0159472D01*
X0252959Y0159506D01*
X0253001Y0159543D01*
X0253041Y0159583D01*
X0253078Y0159625D01*
X0253112Y0159670D01*
X0253142Y0159717D01*
X0253170Y0159766D01*
X0253194Y0159817D01*
X0253215Y0159869D01*
X0253232Y0159922D01*
X0253245Y0159977D01*
X0253254Y0160032D01*
X0253260Y0160088D01*
X0253262Y0160144D01*
X0253260Y0160200D01*
X0253254Y0160256D01*
X0253245Y0160311D01*
X0253232Y0160366D01*
X0253215Y0160419D01*
X0253194Y0160471D01*
X0253170Y0160522D01*
X0253142Y0160571D01*
X0253112Y0160618D01*
X0253078Y0160663D01*
X0253041Y0160705D01*
X0253001Y0160745D01*
X0252959Y0160782D01*
X0252914Y0160816D01*
X0252867Y0160846D01*
X0252818Y0160874D01*
X0252767Y0160898D01*
X0252715Y0160919D01*
X0252662Y0160936D01*
X0252607Y0160949D01*
X0252552Y0160958D01*
X0252496Y0160964D01*
X0252440Y0160966D01*
X0252384Y0160964D01*
X0252328Y0160958D01*
X0252273Y0160949D01*
X0252218Y0160936D01*
X0252165Y0160919D01*
X0252113Y0160898D01*
X0252062Y0160874D01*
X0252013Y0160846D01*
X0251966Y0160816D01*
X0251921Y0160782D01*
X0251879Y0160745D01*
X0251839Y0160705D01*
X0251802Y0160663D01*
X0251768Y0160618D01*
X0251738Y0160571D01*
X0251710Y0160522D01*
X0251686Y0160471D01*
X0251665Y0160419D01*
X0251648Y0160366D01*
X0251635Y0160311D01*
X0251626Y0160256D01*
X0251620Y0160200D01*
X0251618Y0160144D01*
X0251620Y0160088D01*
X0251626Y0160032D01*
X0251635Y0159977D01*
X0251648Y0159922D01*
X0251665Y0159869D01*
X0251686Y0159817D01*
X0251710Y0159766D01*
X0251738Y0159717D01*
X0251768Y0159670D01*
X0251802Y0159625D01*
X0251839Y0159583D01*
X0251879Y0159543D01*
X0251921Y0159506D01*
X0251966Y0159472D01*
X0252013Y0159442D01*
X0252062Y0159414D01*
X0252113Y0159390D01*
X0252165Y0159369D01*
X0252218Y0159352D01*
X0252273Y0159339D01*
X0252328Y0159330D01*
X0252384Y0159324D01*
X0252440Y0159322D01*
X0253879Y0162750D02*
X0253879Y0165217D01*
X0255318Y0166796D02*
X0253262Y0168543D01*
X0251618Y0167926D02*
X0251620Y0167858D01*
X0251626Y0167790D01*
X0251635Y0167723D01*
X0251649Y0167657D01*
X0251666Y0167591D01*
X0251687Y0167526D01*
X0251712Y0167463D01*
X0251740Y0167401D01*
X0251772Y0167341D01*
X0251807Y0167283D01*
X0251845Y0167227D01*
X0251887Y0167173D01*
X0251931Y0167122D01*
X0251979Y0167074D01*
X0252029Y0167028D01*
X0252081Y0166985D01*
X0252136Y0166945D01*
X0252193Y0166908D01*
X0252252Y0166875D01*
X0252313Y0166845D01*
X0252376Y0166819D01*
X0252440Y0166796D01*
X0253263Y0168544D02*
X0253219Y0168587D01*
X0253172Y0168628D01*
X0253123Y0168665D01*
X0253072Y0168700D01*
X0253018Y0168731D01*
X0252963Y0168759D01*
X0252906Y0168783D01*
X0252848Y0168804D01*
X0252788Y0168821D01*
X0252728Y0168835D01*
X0252667Y0168844D01*
X0252605Y0168850D01*
X0252543Y0168852D01*
X0252543Y0168851D02*
X0252485Y0168849D01*
X0252427Y0168844D01*
X0252370Y0168835D01*
X0252313Y0168822D01*
X0252257Y0168806D01*
X0252202Y0168786D01*
X0252149Y0168763D01*
X0252097Y0168737D01*
X0252047Y0168707D01*
X0251999Y0168674D01*
X0251953Y0168639D01*
X0251910Y0168600D01*
X0251869Y0168559D01*
X0251830Y0168516D01*
X0251795Y0168470D01*
X0251762Y0168422D01*
X0251732Y0168372D01*
X0251706Y0168320D01*
X0251683Y0168267D01*
X0251663Y0168212D01*
X0251647Y0168156D01*
X0251634Y0168099D01*
X0251625Y0168042D01*
X0251620Y0167984D01*
X0251618Y0167926D01*
X0251618Y0170396D02*
X0251618Y0171629D01*
X0251620Y0171685D01*
X0251626Y0171741D01*
X0251635Y0171796D01*
X0251648Y0171851D01*
X0251665Y0171904D01*
X0251686Y0171956D01*
X0251710Y0172007D01*
X0251738Y0172056D01*
X0251768Y0172103D01*
X0251802Y0172148D01*
X0251839Y0172190D01*
X0251879Y0172230D01*
X0251921Y0172267D01*
X0251966Y0172301D01*
X0252013Y0172331D01*
X0252062Y0172359D01*
X0252113Y0172383D01*
X0252165Y0172404D01*
X0252218Y0172421D01*
X0252273Y0172434D01*
X0252328Y0172443D01*
X0252384Y0172449D01*
X0252440Y0172451D01*
X0252496Y0172449D01*
X0252552Y0172443D01*
X0252607Y0172434D01*
X0252662Y0172421D01*
X0252715Y0172404D01*
X0252767Y0172383D01*
X0252818Y0172359D01*
X0252867Y0172331D01*
X0252914Y0172301D01*
X0252959Y0172267D01*
X0253001Y0172230D01*
X0253041Y0172190D01*
X0253078Y0172148D01*
X0253112Y0172103D01*
X0253142Y0172056D01*
X0253170Y0172007D01*
X0253194Y0171956D01*
X0253215Y0171904D01*
X0253232Y0171851D01*
X0253245Y0171796D01*
X0253254Y0171741D01*
X0253260Y0171685D01*
X0253262Y0171629D01*
X0253262Y0170807D01*
X0253262Y0171423D02*
X0253264Y0171486D01*
X0253270Y0171549D01*
X0253280Y0171612D01*
X0253293Y0171674D01*
X0253310Y0171735D01*
X0253331Y0171794D01*
X0253356Y0171853D01*
X0253384Y0171909D01*
X0253416Y0171964D01*
X0253451Y0172017D01*
X0253489Y0172067D01*
X0253530Y0172116D01*
X0253574Y0172161D01*
X0253621Y0172204D01*
X0253670Y0172243D01*
X0253722Y0172280D01*
X0253776Y0172313D01*
X0253832Y0172343D01*
X0253889Y0172370D01*
X0253948Y0172393D01*
X0254009Y0172412D01*
X0254070Y0172427D01*
X0254132Y0172439D01*
X0254195Y0172447D01*
X0254258Y0172451D01*
X0254322Y0172451D01*
X0254385Y0172447D01*
X0254448Y0172439D01*
X0254510Y0172427D01*
X0254571Y0172412D01*
X0254632Y0172393D01*
X0254691Y0172370D01*
X0254748Y0172343D01*
X0254804Y0172313D01*
X0254858Y0172280D01*
X0254910Y0172243D01*
X0254959Y0172204D01*
X0255006Y0172161D01*
X0255050Y0172116D01*
X0255091Y0172067D01*
X0255129Y0172017D01*
X0255164Y0171964D01*
X0255196Y0171909D01*
X0255224Y0171853D01*
X0255249Y0171794D01*
X0255270Y0171735D01*
X0255287Y0171674D01*
X0255300Y0171612D01*
X0255310Y0171549D01*
X0255316Y0171486D01*
X0255318Y0171423D01*
X0255318Y0170396D01*
X0255318Y0168851D02*
X0255318Y0166796D01*
X0251618Y0138166D02*
X0251620Y0138098D01*
X0251626Y0138030D01*
X0251635Y0137963D01*
X0251649Y0137897D01*
X0251666Y0137831D01*
X0251687Y0137766D01*
X0251712Y0137703D01*
X0251740Y0137641D01*
X0251772Y0137581D01*
X0251807Y0137523D01*
X0251845Y0137467D01*
X0251887Y0137413D01*
X0251931Y0137362D01*
X0251979Y0137314D01*
X0252029Y0137268D01*
X0252081Y0137225D01*
X0252136Y0137185D01*
X0252193Y0137148D01*
X0252252Y0137115D01*
X0252313Y0137085D01*
X0252376Y0137059D01*
X0252440Y0137036D01*
X0251618Y0138166D02*
X0251620Y0138224D01*
X0251625Y0138282D01*
X0251634Y0138339D01*
X0251647Y0138396D01*
X0251663Y0138452D01*
X0251683Y0138507D01*
X0251706Y0138560D01*
X0251732Y0138612D01*
X0251762Y0138662D01*
X0251795Y0138710D01*
X0251830Y0138756D01*
X0251869Y0138799D01*
X0251910Y0138840D01*
X0251953Y0138879D01*
X0251999Y0138914D01*
X0252047Y0138947D01*
X0252097Y0138977D01*
X0252149Y0139003D01*
X0252202Y0139026D01*
X0252257Y0139046D01*
X0252313Y0139062D01*
X0252370Y0139075D01*
X0252427Y0139084D01*
X0252485Y0139089D01*
X0252543Y0139091D01*
D13*
X0225940Y0130980D02*
X0225940Y0178224D01*
X0170822Y0178224D01*
X0170822Y0130980D01*
X0225940Y0130980D01*
X0183814Y0098697D02*
X0183814Y0092398D01*
X0177515Y0092398D02*
X0177515Y0098697D01*
X0173972Y0100665D02*
X0167673Y0100665D01*
X0167673Y0094366D02*
X0173972Y0094366D01*
X0173578Y0086492D02*
X0179877Y0086492D01*
X0179877Y0080980D02*
X0173578Y0080980D01*
X0168066Y0080980D02*
X0161767Y0080980D01*
X0159917Y0076925D02*
X0159917Y0066925D01*
X0179917Y0066925D01*
X0179917Y0076925D01*
X0159917Y0076925D01*
X0154326Y0076925D02*
X0134326Y0076925D01*
X0134326Y0066925D01*
X0154326Y0066925D01*
X0154326Y0076925D01*
X0161767Y0086492D02*
X0168066Y0086492D01*
X0151924Y0096335D02*
X0151924Y0102634D01*
X0146413Y0102634D02*
X0146413Y0096335D01*
X0138932Y0100272D02*
X0135783Y0100272D01*
X0134208Y0106571D02*
X0140507Y0106571D01*
X0140507Y0112083D02*
X0134208Y0112083D01*
X0121610Y0121138D02*
X0121610Y0066020D01*
X0111767Y0066020D01*
X0096019Y0066020D02*
X0066491Y0066020D01*
X0066491Y0121138D02*
X0096019Y0121138D01*
X0111767Y0121138D02*
X0121610Y0121138D01*
X0121610Y0136886D02*
X0111767Y0136886D01*
X0121610Y0136886D02*
X0121610Y0192004D01*
X0111767Y0192004D01*
X0096019Y0192004D02*
X0066491Y0192004D01*
X0134208Y0167201D02*
X0140507Y0167201D01*
X0140507Y0161689D02*
X0134208Y0161689D01*
X0135783Y0155390D02*
X0138932Y0155390D01*
X0146413Y0157752D02*
X0146413Y0151453D01*
X0151924Y0151453D02*
X0151924Y0157752D01*
X0159798Y0161295D02*
X0159798Y0167594D01*
X0166098Y0167594D02*
X0166098Y0161295D01*
X0170822Y0178224D02*
X0170822Y0199878D01*
X0225940Y0199878D01*
X0225940Y0178224D01*
X0220035Y0182161D02*
X0220035Y0193972D01*
X0212161Y0193972D01*
X0212161Y0186098D01*
X0202318Y0186098D01*
X0202318Y0193972D01*
X0192476Y0193972D01*
X0192476Y0186098D01*
X0184602Y0186098D01*
X0184602Y0193972D01*
X0180665Y0193972D01*
X0180665Y0178224D01*
X0176728Y0178224D02*
X0176728Y0193972D01*
X0180665Y0193972D01*
X0096019Y0136886D02*
X0066491Y0136886D01*
X0169641Y0124287D02*
X0175940Y0124287D01*
X0175940Y0117988D02*
X0169641Y0117988D01*
X0186098Y0076925D02*
X0196098Y0076925D01*
X0196098Y0066925D01*
X0246098Y0066925D01*
X0246098Y0076925D01*
X0196098Y0076925D01*
X0186098Y0076925D02*
X0186098Y0066925D01*
X0196098Y0066925D01*
D14*
X0143263Y0094760D02*
X0143263Y0099878D01*
X0143263Y0094760D02*
X0139720Y0094760D01*
X0134995Y0094760D02*
X0131452Y0094760D01*
X0131452Y0099878D01*
X0131452Y0149878D02*
X0131452Y0154996D01*
X0131452Y0149878D02*
X0134995Y0149878D01*
X0139720Y0149878D02*
X0143263Y0149878D01*
X0143263Y0154996D01*
D15*
X0166798Y0112516D02*
X0166798Y0106138D01*
X0171129Y0112516D02*
X0174452Y0112516D01*
X0178783Y0112516D02*
X0178783Y0106138D01*
D16*
X0191350Y0098616D02*
X0191350Y0096416D01*
X0193800Y0096016D01*
X0194000Y0095316D01*
X0194150Y0094816D01*
X0194350Y0094416D01*
X0194700Y0093816D01*
X0193250Y0091816D01*
X0193650Y0091366D01*
X0194000Y0091016D01*
X0194450Y0090616D01*
X0194800Y0090316D01*
X0196850Y0091716D01*
X0198000Y0091116D01*
X0199400Y0095116D01*
X0198903Y0095364D01*
X0198470Y0095714D01*
X0198123Y0096148D01*
X0197876Y0096646D01*
X0197742Y0097185D01*
X0197726Y0097741D01*
X0197830Y0098287D01*
X0198048Y0098798D01*
X0198371Y0099251D01*
X0198783Y0099624D01*
X0199266Y0099900D01*
X0199796Y0100067D01*
X0200350Y0100116D01*
X0200885Y0100050D01*
X0201396Y0099876D01*
X0201861Y0099602D01*
X0202260Y0099239D01*
X0202577Y0098802D01*
X0202798Y0098310D01*
X0202914Y0097783D01*
X0202920Y0097243D01*
X0202816Y0096713D01*
X0202606Y0096216D01*
X0202299Y0095772D01*
X0201908Y0095400D01*
X0201450Y0095116D01*
X0203000Y0091216D01*
X0203600Y0091466D01*
X0204200Y0091866D01*
X0206200Y0090466D01*
X0206600Y0090816D01*
X0206950Y0091166D01*
X0207350Y0091616D01*
X0207700Y0092066D01*
X0206250Y0094166D01*
X0206600Y0094766D01*
X0206800Y0095366D01*
X0207000Y0096166D01*
X0209450Y0096616D01*
X0209450Y0097766D01*
X0209400Y0098316D01*
X0209350Y0098816D01*
X0206900Y0099266D01*
X0206700Y0099916D01*
X0206450Y0100466D01*
X0206100Y0101066D01*
X0206050Y0101166D01*
X0207450Y0103116D01*
X0207050Y0103616D01*
X0206550Y0104116D01*
X0206150Y0104466D01*
X0205800Y0104716D01*
X0203750Y0103266D01*
X0203300Y0103516D01*
X0202850Y0103716D01*
X0202400Y0103916D01*
X0201950Y0104016D01*
X0201500Y0106466D01*
X0200900Y0106516D01*
X0199750Y0106516D01*
X0199250Y0106466D01*
X0198850Y0104066D01*
X0198100Y0103816D01*
X0197600Y0103616D01*
X0196900Y0103216D01*
X0194900Y0104666D01*
X0194450Y0104316D01*
X0193950Y0103816D01*
X0193550Y0103366D01*
X0193300Y0103116D01*
X0194700Y0101066D01*
X0194400Y0100566D01*
X0194100Y0099916D01*
X0193950Y0099366D01*
X0193800Y0099016D01*
X0191350Y0098616D01*
X0191510Y0098642D02*
X0197982Y0098642D01*
X0197897Y0098443D02*
X0191350Y0098443D01*
X0191350Y0098245D02*
X0197822Y0098245D01*
X0197784Y0098046D02*
X0191350Y0098046D01*
X0191350Y0097848D02*
X0197747Y0097848D01*
X0197729Y0097649D02*
X0191350Y0097649D01*
X0191350Y0097451D02*
X0197735Y0097451D01*
X0197740Y0097252D02*
X0191350Y0097252D01*
X0191350Y0097054D02*
X0197775Y0097054D01*
X0197824Y0096855D02*
X0191350Y0096855D01*
X0191350Y0096657D02*
X0197873Y0096657D01*
X0197969Y0096458D02*
X0191350Y0096458D01*
X0192305Y0096260D02*
X0198067Y0096260D01*
X0198192Y0096061D02*
X0193520Y0096061D01*
X0193843Y0095863D02*
X0198351Y0095863D01*
X0198532Y0095664D02*
X0193900Y0095664D01*
X0193957Y0095466D02*
X0198777Y0095466D01*
X0199097Y0095267D02*
X0194014Y0095267D01*
X0194074Y0095069D02*
X0199383Y0095069D01*
X0199314Y0094870D02*
X0194133Y0094870D01*
X0194222Y0094672D02*
X0199244Y0094672D01*
X0199175Y0094473D02*
X0194321Y0094473D01*
X0194432Y0094275D02*
X0199105Y0094275D01*
X0199036Y0094076D02*
X0194548Y0094076D01*
X0194664Y0093878D02*
X0198966Y0093878D01*
X0198897Y0093679D02*
X0194601Y0093679D01*
X0194457Y0093481D02*
X0198827Y0093481D01*
X0198758Y0093282D02*
X0194313Y0093282D01*
X0194169Y0093084D02*
X0198688Y0093084D01*
X0198619Y0092885D02*
X0194025Y0092885D01*
X0193881Y0092687D02*
X0198549Y0092687D01*
X0198480Y0092488D02*
X0193737Y0092488D01*
X0193593Y0092290D02*
X0198411Y0092290D01*
X0198341Y0092091D02*
X0193449Y0092091D01*
X0193305Y0091893D02*
X0198272Y0091893D01*
X0198202Y0091694D02*
X0196891Y0091694D01*
X0196818Y0091694D02*
X0193358Y0091694D01*
X0193534Y0091496D02*
X0196527Y0091496D01*
X0196237Y0091297D02*
X0193718Y0091297D01*
X0193917Y0091099D02*
X0195946Y0091099D01*
X0195655Y0090900D02*
X0194130Y0090900D01*
X0194353Y0090702D02*
X0195365Y0090702D01*
X0195074Y0090503D02*
X0194581Y0090503D01*
X0195475Y0088482D02*
X0196253Y0088482D01*
X0196253Y0088483D02*
X0196296Y0088481D01*
X0196339Y0088475D01*
X0196381Y0088465D01*
X0196422Y0088451D01*
X0196461Y0088434D01*
X0196499Y0088413D01*
X0196534Y0088389D01*
X0196568Y0088361D01*
X0196598Y0088331D01*
X0196626Y0088297D01*
X0196650Y0088262D01*
X0196671Y0088224D01*
X0196688Y0088185D01*
X0196702Y0088144D01*
X0196712Y0088102D01*
X0196718Y0088059D01*
X0196720Y0088016D01*
X0196720Y0086616D01*
X0195475Y0086616D02*
X0195475Y0088482D01*
X0194290Y0087860D02*
X0194290Y0087549D01*
X0193045Y0087549D01*
X0193045Y0087860D02*
X0193045Y0087082D01*
X0193047Y0087041D01*
X0193052Y0087001D01*
X0193061Y0086961D01*
X0193073Y0086922D01*
X0193089Y0086885D01*
X0193108Y0086849D01*
X0193129Y0086814D01*
X0193154Y0086782D01*
X0193182Y0086752D01*
X0193212Y0086724D01*
X0193244Y0086699D01*
X0193279Y0086678D01*
X0193315Y0086659D01*
X0193352Y0086643D01*
X0193391Y0086631D01*
X0193431Y0086622D01*
X0193471Y0086617D01*
X0193512Y0086615D01*
X0193512Y0086616D02*
X0194290Y0086616D01*
X0194290Y0087860D02*
X0194288Y0087909D01*
X0194282Y0087957D01*
X0194273Y0088005D01*
X0194260Y0088052D01*
X0194243Y0088098D01*
X0194222Y0088142D01*
X0194198Y0088185D01*
X0194171Y0088226D01*
X0194141Y0088264D01*
X0194108Y0088300D01*
X0194072Y0088333D01*
X0194034Y0088363D01*
X0193993Y0088390D01*
X0193950Y0088414D01*
X0193906Y0088435D01*
X0193860Y0088452D01*
X0193813Y0088465D01*
X0193765Y0088474D01*
X0193717Y0088480D01*
X0193668Y0088482D01*
X0193619Y0088480D01*
X0193571Y0088474D01*
X0193523Y0088465D01*
X0193476Y0088452D01*
X0193430Y0088435D01*
X0193386Y0088414D01*
X0193343Y0088390D01*
X0193302Y0088363D01*
X0193264Y0088333D01*
X0193228Y0088300D01*
X0193195Y0088264D01*
X0193165Y0088226D01*
X0193138Y0088185D01*
X0193114Y0088142D01*
X0193093Y0088098D01*
X0193076Y0088052D01*
X0193063Y0088005D01*
X0193054Y0087957D01*
X0193048Y0087909D01*
X0193046Y0087860D01*
X0191963Y0088016D02*
X0191963Y0087082D01*
X0191961Y0087041D01*
X0191956Y0087001D01*
X0191947Y0086961D01*
X0191935Y0086922D01*
X0191919Y0086885D01*
X0191900Y0086849D01*
X0191879Y0086814D01*
X0191854Y0086782D01*
X0191826Y0086752D01*
X0191796Y0086724D01*
X0191764Y0086699D01*
X0191730Y0086678D01*
X0191693Y0086659D01*
X0191656Y0086643D01*
X0191617Y0086631D01*
X0191577Y0086622D01*
X0191537Y0086617D01*
X0191496Y0086615D01*
X0191496Y0086616D02*
X0190718Y0086616D01*
X0190718Y0085682D02*
X0190718Y0088482D01*
X0191496Y0088482D01*
X0191496Y0088483D02*
X0191539Y0088481D01*
X0191582Y0088475D01*
X0191624Y0088465D01*
X0191665Y0088451D01*
X0191704Y0088434D01*
X0191742Y0088413D01*
X0191777Y0088389D01*
X0191811Y0088361D01*
X0191841Y0088331D01*
X0191869Y0088297D01*
X0191893Y0088262D01*
X0191914Y0088224D01*
X0191931Y0088185D01*
X0191945Y0088144D01*
X0191955Y0088102D01*
X0191961Y0088059D01*
X0191963Y0088016D01*
X0189520Y0087860D02*
X0189520Y0087238D01*
X0189518Y0087189D01*
X0189512Y0087141D01*
X0189503Y0087093D01*
X0189490Y0087046D01*
X0189473Y0087000D01*
X0189452Y0086956D01*
X0189428Y0086913D01*
X0189401Y0086872D01*
X0189371Y0086834D01*
X0189338Y0086798D01*
X0189302Y0086765D01*
X0189264Y0086735D01*
X0189223Y0086708D01*
X0189180Y0086684D01*
X0189136Y0086663D01*
X0189090Y0086646D01*
X0189043Y0086633D01*
X0188995Y0086624D01*
X0188947Y0086618D01*
X0188898Y0086616D01*
X0188849Y0086618D01*
X0188801Y0086624D01*
X0188753Y0086633D01*
X0188706Y0086646D01*
X0188660Y0086663D01*
X0188616Y0086684D01*
X0188573Y0086708D01*
X0188532Y0086735D01*
X0188494Y0086765D01*
X0188458Y0086798D01*
X0188425Y0086834D01*
X0188395Y0086872D01*
X0188368Y0086913D01*
X0188344Y0086956D01*
X0188323Y0087000D01*
X0188306Y0087046D01*
X0188293Y0087093D01*
X0188284Y0087141D01*
X0188278Y0087189D01*
X0188276Y0087238D01*
X0188275Y0087238D02*
X0188275Y0087860D01*
X0188276Y0087860D02*
X0188278Y0087909D01*
X0188284Y0087957D01*
X0188293Y0088005D01*
X0188306Y0088052D01*
X0188323Y0088098D01*
X0188344Y0088142D01*
X0188368Y0088185D01*
X0188395Y0088226D01*
X0188425Y0088264D01*
X0188458Y0088300D01*
X0188494Y0088333D01*
X0188532Y0088363D01*
X0188573Y0088390D01*
X0188616Y0088414D01*
X0188660Y0088435D01*
X0188706Y0088452D01*
X0188753Y0088465D01*
X0188801Y0088474D01*
X0188849Y0088480D01*
X0188898Y0088482D01*
X0188947Y0088480D01*
X0188995Y0088474D01*
X0189043Y0088465D01*
X0189090Y0088452D01*
X0189136Y0088435D01*
X0189180Y0088414D01*
X0189223Y0088390D01*
X0189264Y0088363D01*
X0189302Y0088333D01*
X0189338Y0088300D01*
X0189371Y0088264D01*
X0189401Y0088226D01*
X0189428Y0088185D01*
X0189452Y0088142D01*
X0189473Y0088098D01*
X0189490Y0088052D01*
X0189503Y0088005D01*
X0189512Y0087957D01*
X0189518Y0087909D01*
X0189520Y0087860D01*
X0191695Y0084916D02*
X0191695Y0082116D01*
X0192940Y0082116D02*
X0192940Y0083516D01*
X0192938Y0083559D01*
X0192932Y0083602D01*
X0192922Y0083644D01*
X0192908Y0083685D01*
X0192891Y0083724D01*
X0192870Y0083762D01*
X0192846Y0083797D01*
X0192818Y0083831D01*
X0192788Y0083861D01*
X0192754Y0083889D01*
X0192719Y0083913D01*
X0192681Y0083934D01*
X0192642Y0083951D01*
X0192601Y0083965D01*
X0192559Y0083975D01*
X0192516Y0083981D01*
X0192473Y0083983D01*
X0192473Y0083982D02*
X0191695Y0083982D01*
X0194268Y0083982D02*
X0194890Y0083982D01*
X0194890Y0083983D02*
X0194931Y0083981D01*
X0194971Y0083976D01*
X0195011Y0083967D01*
X0195050Y0083955D01*
X0195087Y0083939D01*
X0195124Y0083920D01*
X0195158Y0083899D01*
X0195190Y0083874D01*
X0195220Y0083846D01*
X0195248Y0083816D01*
X0195273Y0083784D01*
X0195294Y0083750D01*
X0195313Y0083713D01*
X0195329Y0083676D01*
X0195341Y0083637D01*
X0195350Y0083597D01*
X0195355Y0083557D01*
X0195357Y0083516D01*
X0195357Y0082116D01*
X0194657Y0082116D01*
X0194612Y0082118D01*
X0194567Y0082123D01*
X0194523Y0082133D01*
X0194480Y0082145D01*
X0194438Y0082162D01*
X0194398Y0082182D01*
X0194359Y0082205D01*
X0194323Y0082231D01*
X0194289Y0082260D01*
X0194257Y0082292D01*
X0194228Y0082326D01*
X0194202Y0082362D01*
X0194179Y0082401D01*
X0194159Y0082441D01*
X0194142Y0082483D01*
X0194130Y0082526D01*
X0194120Y0082570D01*
X0194115Y0082615D01*
X0194113Y0082660D01*
X0194115Y0082705D01*
X0194120Y0082750D01*
X0194130Y0082794D01*
X0194142Y0082837D01*
X0194159Y0082879D01*
X0194179Y0082919D01*
X0194202Y0082958D01*
X0194228Y0082994D01*
X0194257Y0083028D01*
X0194289Y0083060D01*
X0194323Y0083089D01*
X0194359Y0083115D01*
X0194398Y0083138D01*
X0194438Y0083158D01*
X0194480Y0083175D01*
X0194523Y0083187D01*
X0194567Y0083197D01*
X0194612Y0083202D01*
X0194657Y0083204D01*
X0194657Y0083205D02*
X0195357Y0083205D01*
X0196660Y0083982D02*
X0196660Y0082116D01*
X0197593Y0083671D02*
X0197593Y0083982D01*
X0196660Y0083982D01*
X0198433Y0083516D02*
X0198433Y0082582D01*
X0198432Y0082582D02*
X0198434Y0082541D01*
X0198439Y0082501D01*
X0198448Y0082461D01*
X0198460Y0082422D01*
X0198476Y0082385D01*
X0198495Y0082349D01*
X0198516Y0082314D01*
X0198541Y0082282D01*
X0198569Y0082252D01*
X0198599Y0082224D01*
X0198631Y0082199D01*
X0198666Y0082178D01*
X0198702Y0082159D01*
X0198739Y0082143D01*
X0198778Y0082131D01*
X0198818Y0082122D01*
X0198858Y0082117D01*
X0198899Y0082115D01*
X0198899Y0082116D02*
X0199677Y0082116D01*
X0199677Y0084916D01*
X0199677Y0083982D02*
X0198899Y0083982D01*
X0198899Y0083983D02*
X0198858Y0083981D01*
X0198818Y0083976D01*
X0198778Y0083967D01*
X0198739Y0083955D01*
X0198702Y0083939D01*
X0198666Y0083920D01*
X0198631Y0083899D01*
X0198599Y0083874D01*
X0198569Y0083846D01*
X0198541Y0083816D01*
X0198516Y0083784D01*
X0198495Y0083750D01*
X0198476Y0083713D01*
X0198460Y0083676D01*
X0198448Y0083637D01*
X0198439Y0083597D01*
X0198434Y0083557D01*
X0198432Y0083516D01*
X0200834Y0083982D02*
X0201301Y0082116D01*
X0201768Y0083360D01*
X0202234Y0082116D01*
X0202701Y0083982D01*
X0203898Y0083982D02*
X0204520Y0083982D01*
X0204520Y0083983D02*
X0204561Y0083981D01*
X0204601Y0083976D01*
X0204641Y0083967D01*
X0204680Y0083955D01*
X0204717Y0083939D01*
X0204754Y0083920D01*
X0204788Y0083899D01*
X0204820Y0083874D01*
X0204850Y0083846D01*
X0204878Y0083816D01*
X0204903Y0083784D01*
X0204924Y0083750D01*
X0204943Y0083713D01*
X0204959Y0083676D01*
X0204971Y0083637D01*
X0204980Y0083597D01*
X0204985Y0083557D01*
X0204987Y0083516D01*
X0204987Y0082116D01*
X0204287Y0082116D01*
X0204242Y0082118D01*
X0204197Y0082123D01*
X0204153Y0082133D01*
X0204110Y0082145D01*
X0204068Y0082162D01*
X0204028Y0082182D01*
X0203989Y0082205D01*
X0203953Y0082231D01*
X0203919Y0082260D01*
X0203887Y0082292D01*
X0203858Y0082326D01*
X0203832Y0082362D01*
X0203809Y0082401D01*
X0203789Y0082441D01*
X0203772Y0082483D01*
X0203760Y0082526D01*
X0203750Y0082570D01*
X0203745Y0082615D01*
X0203743Y0082660D01*
X0203745Y0082705D01*
X0203750Y0082750D01*
X0203760Y0082794D01*
X0203772Y0082837D01*
X0203789Y0082879D01*
X0203809Y0082919D01*
X0203832Y0082958D01*
X0203858Y0082994D01*
X0203887Y0083028D01*
X0203919Y0083060D01*
X0203953Y0083089D01*
X0203989Y0083115D01*
X0204028Y0083138D01*
X0204068Y0083158D01*
X0204110Y0083175D01*
X0204153Y0083187D01*
X0204197Y0083197D01*
X0204242Y0083202D01*
X0204287Y0083204D01*
X0204287Y0083205D02*
X0204987Y0083205D01*
X0206290Y0083982D02*
X0206290Y0082116D01*
X0207223Y0083671D02*
X0207223Y0083982D01*
X0206290Y0083982D01*
X0208075Y0083360D02*
X0208075Y0082582D01*
X0208077Y0082541D01*
X0208082Y0082501D01*
X0208091Y0082461D01*
X0208103Y0082422D01*
X0208119Y0082385D01*
X0208138Y0082349D01*
X0208159Y0082314D01*
X0208184Y0082282D01*
X0208212Y0082252D01*
X0208242Y0082224D01*
X0208274Y0082199D01*
X0208309Y0082178D01*
X0208345Y0082159D01*
X0208382Y0082143D01*
X0208421Y0082131D01*
X0208461Y0082122D01*
X0208501Y0082117D01*
X0208542Y0082115D01*
X0208542Y0082116D02*
X0209320Y0082116D01*
X0209320Y0083049D02*
X0208075Y0083049D01*
X0208075Y0083360D02*
X0208077Y0083409D01*
X0208083Y0083457D01*
X0208092Y0083505D01*
X0208105Y0083552D01*
X0208122Y0083598D01*
X0208143Y0083642D01*
X0208167Y0083685D01*
X0208194Y0083726D01*
X0208224Y0083764D01*
X0208257Y0083800D01*
X0208293Y0083833D01*
X0208331Y0083863D01*
X0208372Y0083890D01*
X0208415Y0083914D01*
X0208459Y0083935D01*
X0208505Y0083952D01*
X0208552Y0083965D01*
X0208600Y0083974D01*
X0208648Y0083980D01*
X0208697Y0083982D01*
X0208746Y0083980D01*
X0208794Y0083974D01*
X0208842Y0083965D01*
X0208889Y0083952D01*
X0208935Y0083935D01*
X0208979Y0083914D01*
X0209022Y0083890D01*
X0209063Y0083863D01*
X0209101Y0083833D01*
X0209137Y0083800D01*
X0209170Y0083764D01*
X0209200Y0083726D01*
X0209227Y0083685D01*
X0209251Y0083642D01*
X0209272Y0083598D01*
X0209289Y0083552D01*
X0209302Y0083505D01*
X0209311Y0083457D01*
X0209317Y0083409D01*
X0209319Y0083360D01*
X0209320Y0083360D02*
X0209320Y0083049D01*
X0209527Y0086616D02*
X0208905Y0086616D01*
X0208905Y0086615D02*
X0208864Y0086617D01*
X0208824Y0086622D01*
X0208784Y0086631D01*
X0208745Y0086643D01*
X0208708Y0086659D01*
X0208672Y0086678D01*
X0208637Y0086699D01*
X0208605Y0086724D01*
X0208575Y0086752D01*
X0208547Y0086782D01*
X0208522Y0086814D01*
X0208501Y0086849D01*
X0208482Y0086885D01*
X0208466Y0086922D01*
X0208454Y0086961D01*
X0208445Y0087001D01*
X0208440Y0087041D01*
X0208438Y0087082D01*
X0208438Y0088016D01*
X0208440Y0088057D01*
X0208445Y0088097D01*
X0208454Y0088137D01*
X0208466Y0088176D01*
X0208482Y0088213D01*
X0208501Y0088250D01*
X0208522Y0088284D01*
X0208547Y0088316D01*
X0208575Y0088346D01*
X0208605Y0088374D01*
X0208637Y0088399D01*
X0208672Y0088420D01*
X0208708Y0088439D01*
X0208745Y0088455D01*
X0208784Y0088467D01*
X0208824Y0088476D01*
X0208864Y0088481D01*
X0208905Y0088483D01*
X0208905Y0088482D02*
X0209527Y0088482D01*
X0210505Y0087860D02*
X0210505Y0087082D01*
X0210507Y0087041D01*
X0210512Y0087001D01*
X0210521Y0086961D01*
X0210533Y0086922D01*
X0210549Y0086885D01*
X0210568Y0086849D01*
X0210589Y0086814D01*
X0210614Y0086782D01*
X0210642Y0086752D01*
X0210672Y0086724D01*
X0210704Y0086699D01*
X0210739Y0086678D01*
X0210775Y0086659D01*
X0210812Y0086643D01*
X0210851Y0086631D01*
X0210891Y0086622D01*
X0210931Y0086617D01*
X0210972Y0086615D01*
X0210972Y0086616D02*
X0211750Y0086616D01*
X0211750Y0087549D02*
X0210505Y0087549D01*
X0210505Y0087860D02*
X0210507Y0087909D01*
X0210513Y0087957D01*
X0210522Y0088005D01*
X0210535Y0088052D01*
X0210552Y0088098D01*
X0210573Y0088142D01*
X0210597Y0088185D01*
X0210624Y0088226D01*
X0210654Y0088264D01*
X0210687Y0088300D01*
X0210723Y0088333D01*
X0210761Y0088363D01*
X0210802Y0088390D01*
X0210845Y0088414D01*
X0210889Y0088435D01*
X0210935Y0088452D01*
X0210982Y0088465D01*
X0211030Y0088474D01*
X0211078Y0088480D01*
X0211127Y0088482D01*
X0211176Y0088480D01*
X0211224Y0088474D01*
X0211272Y0088465D01*
X0211319Y0088452D01*
X0211365Y0088435D01*
X0211409Y0088414D01*
X0211452Y0088390D01*
X0211493Y0088363D01*
X0211531Y0088333D01*
X0211567Y0088300D01*
X0211600Y0088264D01*
X0211630Y0088226D01*
X0211657Y0088185D01*
X0211681Y0088142D01*
X0211702Y0088098D01*
X0211719Y0088052D01*
X0211732Y0088005D01*
X0211741Y0087957D01*
X0211747Y0087909D01*
X0211749Y0087860D01*
X0211750Y0087860D02*
X0211750Y0087549D01*
X0207583Y0088171D02*
X0207583Y0088482D01*
X0206650Y0088482D01*
X0206650Y0086616D01*
X0205360Y0086616D02*
X0205360Y0088482D01*
X0204115Y0088482D02*
X0204115Y0087082D01*
X0204117Y0087041D01*
X0204122Y0087001D01*
X0204131Y0086961D01*
X0204143Y0086922D01*
X0204159Y0086885D01*
X0204178Y0086849D01*
X0204199Y0086814D01*
X0204224Y0086782D01*
X0204252Y0086752D01*
X0204282Y0086724D01*
X0204314Y0086699D01*
X0204349Y0086678D01*
X0204385Y0086659D01*
X0204422Y0086643D01*
X0204461Y0086631D01*
X0204501Y0086622D01*
X0204541Y0086617D01*
X0204582Y0086615D01*
X0204582Y0086616D02*
X0205360Y0086616D01*
X0202930Y0087238D02*
X0202930Y0087860D01*
X0202928Y0087909D01*
X0202922Y0087957D01*
X0202913Y0088005D01*
X0202900Y0088052D01*
X0202883Y0088098D01*
X0202862Y0088142D01*
X0202838Y0088185D01*
X0202811Y0088226D01*
X0202781Y0088264D01*
X0202748Y0088300D01*
X0202712Y0088333D01*
X0202674Y0088363D01*
X0202633Y0088390D01*
X0202590Y0088414D01*
X0202546Y0088435D01*
X0202500Y0088452D01*
X0202453Y0088465D01*
X0202405Y0088474D01*
X0202357Y0088480D01*
X0202308Y0088482D01*
X0202259Y0088480D01*
X0202211Y0088474D01*
X0202163Y0088465D01*
X0202116Y0088452D01*
X0202070Y0088435D01*
X0202026Y0088414D01*
X0201983Y0088390D01*
X0201942Y0088363D01*
X0201904Y0088333D01*
X0201868Y0088300D01*
X0201835Y0088264D01*
X0201805Y0088226D01*
X0201778Y0088185D01*
X0201754Y0088142D01*
X0201733Y0088098D01*
X0201716Y0088052D01*
X0201703Y0088005D01*
X0201694Y0087957D01*
X0201688Y0087909D01*
X0201686Y0087860D01*
X0201685Y0087860D02*
X0201685Y0087238D01*
X0201686Y0087238D02*
X0201688Y0087189D01*
X0201694Y0087141D01*
X0201703Y0087093D01*
X0201716Y0087046D01*
X0201733Y0087000D01*
X0201754Y0086956D01*
X0201778Y0086913D01*
X0201805Y0086872D01*
X0201835Y0086834D01*
X0201868Y0086798D01*
X0201904Y0086765D01*
X0201942Y0086735D01*
X0201983Y0086708D01*
X0202026Y0086684D01*
X0202070Y0086663D01*
X0202116Y0086646D01*
X0202163Y0086633D01*
X0202211Y0086624D01*
X0202259Y0086618D01*
X0202308Y0086616D01*
X0202357Y0086618D01*
X0202405Y0086624D01*
X0202453Y0086633D01*
X0202500Y0086646D01*
X0202546Y0086663D01*
X0202590Y0086684D01*
X0202633Y0086708D01*
X0202674Y0086735D01*
X0202712Y0086765D01*
X0202748Y0086798D01*
X0202781Y0086834D01*
X0202811Y0086872D01*
X0202838Y0086913D01*
X0202862Y0086956D01*
X0202883Y0087000D01*
X0202900Y0087046D01*
X0202913Y0087093D01*
X0202922Y0087141D01*
X0202928Y0087189D01*
X0202930Y0087238D01*
X0200356Y0087394D02*
X0199579Y0087705D01*
X0199578Y0087705D02*
X0199543Y0087721D01*
X0199510Y0087740D01*
X0199478Y0087763D01*
X0199449Y0087788D01*
X0199423Y0087816D01*
X0199399Y0087846D01*
X0199378Y0087879D01*
X0199361Y0087913D01*
X0199347Y0087949D01*
X0199336Y0087986D01*
X0199329Y0088024D01*
X0199325Y0088062D01*
X0199326Y0088101D01*
X0199329Y0088139D01*
X0199337Y0088177D01*
X0199348Y0088214D01*
X0199363Y0088249D01*
X0199381Y0088284D01*
X0199402Y0088316D01*
X0199426Y0088346D01*
X0199453Y0088374D01*
X0199482Y0088398D01*
X0199514Y0088420D01*
X0199548Y0088439D01*
X0199583Y0088455D01*
X0199619Y0088467D01*
X0199657Y0088476D01*
X0199695Y0088481D01*
X0199734Y0088482D01*
X0199346Y0086772D02*
X0199438Y0086741D01*
X0199531Y0086713D01*
X0199625Y0086689D01*
X0199719Y0086668D01*
X0199815Y0086650D01*
X0199911Y0086636D01*
X0200008Y0086626D01*
X0200104Y0086619D01*
X0200201Y0086616D01*
X0200240Y0086617D01*
X0200278Y0086622D01*
X0200316Y0086631D01*
X0200352Y0086643D01*
X0200387Y0086659D01*
X0200421Y0086678D01*
X0200453Y0086700D01*
X0200482Y0086724D01*
X0200509Y0086752D01*
X0200533Y0086782D01*
X0200554Y0086814D01*
X0200572Y0086849D01*
X0200587Y0086884D01*
X0200598Y0086921D01*
X0200606Y0086959D01*
X0200609Y0086997D01*
X0200610Y0087036D01*
X0200606Y0087074D01*
X0200599Y0087112D01*
X0200588Y0087149D01*
X0200574Y0087185D01*
X0200557Y0087219D01*
X0200536Y0087252D01*
X0200512Y0087282D01*
X0200486Y0087310D01*
X0200457Y0087335D01*
X0200425Y0087358D01*
X0200392Y0087377D01*
X0200357Y0087393D01*
X0200434Y0088327D02*
X0200361Y0088359D01*
X0200285Y0088386D01*
X0200209Y0088411D01*
X0200131Y0088432D01*
X0200053Y0088449D01*
X0199974Y0088463D01*
X0199894Y0088473D01*
X0199814Y0088480D01*
X0199734Y0088483D01*
X0198063Y0091297D02*
X0197652Y0091297D01*
X0197272Y0091496D02*
X0198133Y0091496D01*
X0202257Y0093084D02*
X0206997Y0093084D01*
X0206860Y0093282D02*
X0202178Y0093282D01*
X0202100Y0093481D02*
X0206723Y0093481D01*
X0206586Y0093679D02*
X0202021Y0093679D01*
X0201942Y0093878D02*
X0206449Y0093878D01*
X0206312Y0094076D02*
X0201863Y0094076D01*
X0201784Y0094275D02*
X0206313Y0094275D01*
X0206429Y0094473D02*
X0201705Y0094473D01*
X0201626Y0094672D02*
X0206545Y0094672D01*
X0206635Y0094870D02*
X0201547Y0094870D01*
X0201468Y0095069D02*
X0206701Y0095069D01*
X0206767Y0095267D02*
X0201694Y0095267D01*
X0201977Y0095466D02*
X0206825Y0095466D01*
X0206874Y0095664D02*
X0202186Y0095664D01*
X0202362Y0095863D02*
X0206924Y0095863D01*
X0206974Y0096061D02*
X0202499Y0096061D01*
X0202625Y0096260D02*
X0207512Y0096260D01*
X0208593Y0096458D02*
X0202708Y0096458D01*
X0202792Y0096657D02*
X0209450Y0096657D01*
X0209450Y0096855D02*
X0202844Y0096855D01*
X0202883Y0097054D02*
X0209450Y0097054D01*
X0209450Y0097252D02*
X0202920Y0097252D01*
X0202918Y0097451D02*
X0209450Y0097451D01*
X0209450Y0097649D02*
X0202916Y0097649D01*
X0202900Y0097848D02*
X0209442Y0097848D01*
X0209424Y0098046D02*
X0202856Y0098046D01*
X0202812Y0098245D02*
X0209406Y0098245D01*
X0209387Y0098443D02*
X0202738Y0098443D01*
X0202649Y0098642D02*
X0209367Y0098642D01*
X0209215Y0098840D02*
X0202549Y0098840D01*
X0202405Y0099039D02*
X0208134Y0099039D01*
X0207053Y0099238D02*
X0202261Y0099238D01*
X0202044Y0099436D02*
X0206847Y0099436D01*
X0206786Y0099635D02*
X0201806Y0099635D01*
X0201470Y0099833D02*
X0206725Y0099833D01*
X0206647Y0100032D02*
X0200940Y0100032D01*
X0199684Y0100032D02*
X0194153Y0100032D01*
X0194077Y0099833D02*
X0199148Y0099833D01*
X0198802Y0099635D02*
X0194023Y0099635D01*
X0193969Y0099436D02*
X0198576Y0099436D01*
X0198362Y0099238D02*
X0193895Y0099238D01*
X0193810Y0099039D02*
X0198220Y0099039D01*
X0198078Y0098840D02*
X0192726Y0098840D01*
X0194245Y0100230D02*
X0206557Y0100230D01*
X0206467Y0100429D02*
X0194336Y0100429D01*
X0194436Y0100627D02*
X0206356Y0100627D01*
X0206240Y0100826D02*
X0194556Y0100826D01*
X0194675Y0101024D02*
X0206124Y0101024D01*
X0206091Y0101223D02*
X0194593Y0101223D01*
X0194457Y0101421D02*
X0206233Y0101421D01*
X0206376Y0101620D02*
X0194321Y0101620D01*
X0194186Y0101818D02*
X0206518Y0101818D01*
X0206661Y0102017D02*
X0194050Y0102017D01*
X0193915Y0102215D02*
X0206803Y0102215D01*
X0206946Y0102414D02*
X0193779Y0102414D01*
X0193644Y0102612D02*
X0207088Y0102612D01*
X0207231Y0102811D02*
X0193508Y0102811D01*
X0193372Y0103009D02*
X0207373Y0103009D01*
X0207376Y0103208D02*
X0193392Y0103208D01*
X0193586Y0103406D02*
X0196637Y0103406D01*
X0196363Y0103605D02*
X0193762Y0103605D01*
X0193939Y0103803D02*
X0196089Y0103803D01*
X0195816Y0104002D02*
X0194136Y0104002D01*
X0194334Y0104200D02*
X0195542Y0104200D01*
X0195268Y0104399D02*
X0194556Y0104399D01*
X0194812Y0104597D02*
X0194994Y0104597D01*
X0197233Y0103406D02*
X0203497Y0103406D01*
X0203099Y0103605D02*
X0197580Y0103605D01*
X0198068Y0103803D02*
X0202653Y0103803D01*
X0202013Y0104002D02*
X0198658Y0104002D01*
X0198872Y0104200D02*
X0201916Y0104200D01*
X0201879Y0104399D02*
X0198905Y0104399D01*
X0198938Y0104597D02*
X0201843Y0104597D01*
X0201806Y0104796D02*
X0198971Y0104796D01*
X0199004Y0104994D02*
X0201770Y0104994D01*
X0201733Y0105193D02*
X0199038Y0105193D01*
X0199071Y0105391D02*
X0201697Y0105391D01*
X0201661Y0105590D02*
X0199104Y0105590D01*
X0199137Y0105788D02*
X0201624Y0105788D01*
X0201588Y0105987D02*
X0199170Y0105987D01*
X0199203Y0106185D02*
X0201551Y0106185D01*
X0201515Y0106384D02*
X0199236Y0106384D01*
X0203948Y0103406D02*
X0207217Y0103406D01*
X0207058Y0103605D02*
X0204229Y0103605D01*
X0204510Y0103803D02*
X0206862Y0103803D01*
X0206664Y0104002D02*
X0204790Y0104002D01*
X0205071Y0104200D02*
X0206453Y0104200D01*
X0206226Y0104399D02*
X0205352Y0104399D01*
X0205632Y0104597D02*
X0205965Y0104597D01*
X0207134Y0092885D02*
X0202336Y0092885D01*
X0202415Y0092687D02*
X0207271Y0092687D01*
X0207408Y0092488D02*
X0202494Y0092488D01*
X0202573Y0092290D02*
X0207545Y0092290D01*
X0207682Y0092091D02*
X0202652Y0092091D01*
X0202731Y0091893D02*
X0207565Y0091893D01*
X0207411Y0091694D02*
X0204445Y0091694D01*
X0204728Y0091496D02*
X0207243Y0091496D01*
X0207066Y0091297D02*
X0205012Y0091297D01*
X0205296Y0091099D02*
X0206882Y0091099D01*
X0206684Y0090900D02*
X0205579Y0090900D01*
X0205863Y0090702D02*
X0206469Y0090702D01*
X0206242Y0090503D02*
X0206146Y0090503D01*
X0203942Y0091694D02*
X0202810Y0091694D01*
X0202888Y0091496D02*
X0203644Y0091496D01*
X0203195Y0091297D02*
X0202967Y0091297D01*
M02*
