G75*
%MOIN*%
%OFA0B0*%
%FSLAX25Y25*%
%IPPOS*%
%LPD*%
%AMOC8*
5,1,8,0,0,1.08239X$1,22.5*
%
%ADD10C,0.00000*%
%ADD11C,0.00400*%
%ADD12C,0.00300*%
%ADD13C,0.00500*%
%ADD14C,0.00800*%
%ADD15C,0.00600*%
%ADD16C,0.00200*%
D10*
X0072397Y0058146D02*
X0253499Y0058146D01*
X0253689Y0058148D01*
X0253879Y0058155D01*
X0254069Y0058167D01*
X0254259Y0058183D01*
X0254448Y0058203D01*
X0254637Y0058229D01*
X0254825Y0058258D01*
X0255012Y0058293D01*
X0255198Y0058332D01*
X0255383Y0058375D01*
X0255568Y0058423D01*
X0255751Y0058475D01*
X0255932Y0058531D01*
X0256112Y0058592D01*
X0256291Y0058658D01*
X0256468Y0058727D01*
X0256644Y0058801D01*
X0256817Y0058879D01*
X0256989Y0058962D01*
X0257158Y0059048D01*
X0257326Y0059138D01*
X0257491Y0059233D01*
X0257654Y0059331D01*
X0257814Y0059434D01*
X0257972Y0059540D01*
X0258127Y0059650D01*
X0258280Y0059763D01*
X0258430Y0059881D01*
X0258576Y0060002D01*
X0258720Y0060126D01*
X0258861Y0060254D01*
X0258999Y0060385D01*
X0259134Y0060520D01*
X0259265Y0060658D01*
X0259393Y0060799D01*
X0259517Y0060943D01*
X0259638Y0061089D01*
X0259756Y0061239D01*
X0259869Y0061392D01*
X0259979Y0061547D01*
X0260085Y0061705D01*
X0260188Y0061865D01*
X0260286Y0062028D01*
X0260381Y0062193D01*
X0260471Y0062361D01*
X0260557Y0062530D01*
X0260640Y0062702D01*
X0260718Y0062875D01*
X0260792Y0063051D01*
X0260861Y0063228D01*
X0260927Y0063407D01*
X0260988Y0063587D01*
X0261044Y0063768D01*
X0261096Y0063951D01*
X0261144Y0064136D01*
X0261187Y0064321D01*
X0261226Y0064507D01*
X0261261Y0064694D01*
X0261290Y0064882D01*
X0261316Y0065071D01*
X0261336Y0065260D01*
X0261352Y0065450D01*
X0261364Y0065640D01*
X0261371Y0065830D01*
X0261373Y0066020D01*
X0261373Y0170350D01*
X0261371Y0170540D01*
X0261364Y0170730D01*
X0261352Y0170920D01*
X0261336Y0171110D01*
X0261316Y0171299D01*
X0261290Y0171488D01*
X0261261Y0171676D01*
X0261226Y0171863D01*
X0261187Y0172049D01*
X0261144Y0172234D01*
X0261096Y0172419D01*
X0261044Y0172602D01*
X0260988Y0172783D01*
X0260927Y0172963D01*
X0260861Y0173142D01*
X0260792Y0173319D01*
X0260718Y0173495D01*
X0260640Y0173668D01*
X0260557Y0173840D01*
X0260471Y0174009D01*
X0260381Y0174177D01*
X0260286Y0174342D01*
X0260188Y0174505D01*
X0260085Y0174665D01*
X0259979Y0174823D01*
X0259869Y0174978D01*
X0259756Y0175131D01*
X0259638Y0175281D01*
X0259517Y0175427D01*
X0259393Y0175571D01*
X0259265Y0175712D01*
X0259134Y0175850D01*
X0258999Y0175985D01*
X0258861Y0176116D01*
X0258720Y0176244D01*
X0258576Y0176368D01*
X0258430Y0176489D01*
X0258280Y0176607D01*
X0258127Y0176720D01*
X0257972Y0176830D01*
X0257814Y0176936D01*
X0257654Y0177039D01*
X0257491Y0177137D01*
X0257326Y0177232D01*
X0257158Y0177322D01*
X0256989Y0177408D01*
X0256817Y0177491D01*
X0256644Y0177569D01*
X0256468Y0177643D01*
X0256291Y0177712D01*
X0256112Y0177778D01*
X0255932Y0177839D01*
X0255751Y0177895D01*
X0255568Y0177947D01*
X0255383Y0177995D01*
X0255198Y0178038D01*
X0255012Y0178077D01*
X0254825Y0178112D01*
X0254637Y0178141D01*
X0254448Y0178167D01*
X0254259Y0178187D01*
X0254069Y0178203D01*
X0253879Y0178215D01*
X0253689Y0178222D01*
X0253499Y0178224D01*
X0172791Y0178224D01*
X0172601Y0178226D01*
X0172411Y0178233D01*
X0172221Y0178245D01*
X0172031Y0178261D01*
X0171842Y0178281D01*
X0171653Y0178307D01*
X0171465Y0178336D01*
X0171278Y0178371D01*
X0171092Y0178410D01*
X0170907Y0178453D01*
X0170722Y0178501D01*
X0170539Y0178553D01*
X0170358Y0178609D01*
X0170178Y0178670D01*
X0169999Y0178736D01*
X0169822Y0178805D01*
X0169646Y0178879D01*
X0169473Y0178957D01*
X0169301Y0179040D01*
X0169132Y0179126D01*
X0168964Y0179216D01*
X0168799Y0179311D01*
X0168636Y0179409D01*
X0168476Y0179512D01*
X0168318Y0179618D01*
X0168163Y0179728D01*
X0168010Y0179841D01*
X0167860Y0179959D01*
X0167714Y0180080D01*
X0167570Y0180204D01*
X0167429Y0180332D01*
X0167291Y0180463D01*
X0167156Y0180598D01*
X0167025Y0180736D01*
X0166897Y0180877D01*
X0166773Y0181021D01*
X0166652Y0181167D01*
X0166534Y0181317D01*
X0166421Y0181470D01*
X0166311Y0181625D01*
X0166205Y0181783D01*
X0166102Y0181943D01*
X0166004Y0182106D01*
X0165909Y0182271D01*
X0165819Y0182439D01*
X0165733Y0182608D01*
X0165650Y0182780D01*
X0165572Y0182953D01*
X0165498Y0183129D01*
X0165429Y0183306D01*
X0165363Y0183485D01*
X0165302Y0183665D01*
X0165246Y0183846D01*
X0165194Y0184029D01*
X0165146Y0184214D01*
X0165103Y0184399D01*
X0165064Y0184585D01*
X0165029Y0184772D01*
X0165000Y0184960D01*
X0164974Y0185149D01*
X0164954Y0185338D01*
X0164938Y0185528D01*
X0164926Y0185718D01*
X0164919Y0185908D01*
X0164917Y0186098D01*
X0164917Y0192004D01*
X0164915Y0192194D01*
X0164908Y0192384D01*
X0164896Y0192574D01*
X0164880Y0192764D01*
X0164860Y0192953D01*
X0164834Y0193142D01*
X0164805Y0193330D01*
X0164770Y0193517D01*
X0164731Y0193703D01*
X0164688Y0193888D01*
X0164640Y0194073D01*
X0164588Y0194256D01*
X0164532Y0194437D01*
X0164471Y0194617D01*
X0164405Y0194796D01*
X0164336Y0194973D01*
X0164262Y0195149D01*
X0164184Y0195322D01*
X0164101Y0195494D01*
X0164015Y0195663D01*
X0163925Y0195831D01*
X0163830Y0195996D01*
X0163732Y0196159D01*
X0163629Y0196319D01*
X0163523Y0196477D01*
X0163413Y0196632D01*
X0163300Y0196785D01*
X0163182Y0196935D01*
X0163061Y0197081D01*
X0162937Y0197225D01*
X0162809Y0197366D01*
X0162678Y0197504D01*
X0162543Y0197639D01*
X0162405Y0197770D01*
X0162264Y0197898D01*
X0162120Y0198022D01*
X0161974Y0198143D01*
X0161824Y0198261D01*
X0161671Y0198374D01*
X0161516Y0198484D01*
X0161358Y0198590D01*
X0161198Y0198693D01*
X0161035Y0198791D01*
X0160870Y0198886D01*
X0160702Y0198976D01*
X0160533Y0199062D01*
X0160361Y0199145D01*
X0160188Y0199223D01*
X0160012Y0199297D01*
X0159835Y0199366D01*
X0159656Y0199432D01*
X0159476Y0199493D01*
X0159295Y0199549D01*
X0159112Y0199601D01*
X0158927Y0199649D01*
X0158742Y0199692D01*
X0158556Y0199731D01*
X0158369Y0199766D01*
X0158181Y0199795D01*
X0157992Y0199821D01*
X0157803Y0199841D01*
X0157613Y0199857D01*
X0157423Y0199869D01*
X0157233Y0199876D01*
X0157043Y0199878D01*
X0072397Y0199878D01*
X0072207Y0199876D01*
X0072017Y0199869D01*
X0071827Y0199857D01*
X0071637Y0199841D01*
X0071448Y0199821D01*
X0071259Y0199795D01*
X0071071Y0199766D01*
X0070884Y0199731D01*
X0070698Y0199692D01*
X0070513Y0199649D01*
X0070328Y0199601D01*
X0070145Y0199549D01*
X0069964Y0199493D01*
X0069784Y0199432D01*
X0069605Y0199366D01*
X0069428Y0199297D01*
X0069252Y0199223D01*
X0069079Y0199145D01*
X0068907Y0199062D01*
X0068738Y0198976D01*
X0068570Y0198886D01*
X0068405Y0198791D01*
X0068242Y0198693D01*
X0068082Y0198590D01*
X0067924Y0198484D01*
X0067769Y0198374D01*
X0067616Y0198261D01*
X0067466Y0198143D01*
X0067320Y0198022D01*
X0067176Y0197898D01*
X0067035Y0197770D01*
X0066897Y0197639D01*
X0066762Y0197504D01*
X0066631Y0197366D01*
X0066503Y0197225D01*
X0066379Y0197081D01*
X0066258Y0196935D01*
X0066140Y0196785D01*
X0066027Y0196632D01*
X0065917Y0196477D01*
X0065811Y0196319D01*
X0065708Y0196159D01*
X0065610Y0195996D01*
X0065515Y0195831D01*
X0065425Y0195663D01*
X0065339Y0195494D01*
X0065256Y0195322D01*
X0065178Y0195149D01*
X0065104Y0194973D01*
X0065035Y0194796D01*
X0064969Y0194617D01*
X0064908Y0194437D01*
X0064852Y0194256D01*
X0064800Y0194073D01*
X0064752Y0193888D01*
X0064709Y0193703D01*
X0064670Y0193517D01*
X0064635Y0193330D01*
X0064606Y0193142D01*
X0064580Y0192953D01*
X0064560Y0192764D01*
X0064544Y0192574D01*
X0064532Y0192384D01*
X0064525Y0192194D01*
X0064523Y0192004D01*
X0064523Y0066020D01*
X0064525Y0065830D01*
X0064532Y0065640D01*
X0064544Y0065450D01*
X0064560Y0065260D01*
X0064580Y0065071D01*
X0064606Y0064882D01*
X0064635Y0064694D01*
X0064670Y0064507D01*
X0064709Y0064321D01*
X0064752Y0064136D01*
X0064800Y0063951D01*
X0064852Y0063768D01*
X0064908Y0063587D01*
X0064969Y0063407D01*
X0065035Y0063228D01*
X0065104Y0063051D01*
X0065178Y0062875D01*
X0065256Y0062702D01*
X0065339Y0062530D01*
X0065425Y0062361D01*
X0065515Y0062193D01*
X0065610Y0062028D01*
X0065708Y0061865D01*
X0065811Y0061705D01*
X0065917Y0061547D01*
X0066027Y0061392D01*
X0066140Y0061239D01*
X0066258Y0061089D01*
X0066379Y0060943D01*
X0066503Y0060799D01*
X0066631Y0060658D01*
X0066762Y0060520D01*
X0066897Y0060385D01*
X0067035Y0060254D01*
X0067176Y0060126D01*
X0067320Y0060002D01*
X0067466Y0059881D01*
X0067616Y0059763D01*
X0067769Y0059650D01*
X0067924Y0059540D01*
X0068082Y0059434D01*
X0068242Y0059331D01*
X0068405Y0059233D01*
X0068570Y0059138D01*
X0068738Y0059048D01*
X0068907Y0058962D01*
X0069079Y0058879D01*
X0069252Y0058801D01*
X0069428Y0058727D01*
X0069605Y0058658D01*
X0069784Y0058592D01*
X0069964Y0058531D01*
X0070145Y0058475D01*
X0070328Y0058423D01*
X0070513Y0058375D01*
X0070698Y0058332D01*
X0070884Y0058293D01*
X0071071Y0058258D01*
X0071259Y0058229D01*
X0071448Y0058203D01*
X0071637Y0058183D01*
X0071827Y0058167D01*
X0072017Y0058155D01*
X0072207Y0058148D01*
X0072397Y0058146D01*
D11*
X0201829Y0096299D02*
X0201829Y0098855D01*
X0201829Y0100544D02*
X0206429Y0102077D01*
X0201829Y0103610D01*
X0204896Y0098855D02*
X0205407Y0098855D01*
X0205407Y0098854D02*
X0205469Y0098852D01*
X0205530Y0098847D01*
X0205591Y0098837D01*
X0205652Y0098824D01*
X0205711Y0098808D01*
X0205769Y0098788D01*
X0205826Y0098764D01*
X0205882Y0098737D01*
X0205936Y0098707D01*
X0205988Y0098673D01*
X0206037Y0098637D01*
X0206085Y0098597D01*
X0206130Y0098555D01*
X0206172Y0098510D01*
X0206212Y0098462D01*
X0206248Y0098413D01*
X0206282Y0098361D01*
X0206312Y0098307D01*
X0206339Y0098251D01*
X0206363Y0098194D01*
X0206383Y0098136D01*
X0206399Y0098077D01*
X0206412Y0098016D01*
X0206422Y0097955D01*
X0206427Y0097894D01*
X0206429Y0097832D01*
X0206429Y0096299D01*
X0204896Y0098854D02*
X0204834Y0098852D01*
X0204773Y0098847D01*
X0204712Y0098837D01*
X0204651Y0098824D01*
X0204592Y0098808D01*
X0204534Y0098788D01*
X0204477Y0098764D01*
X0204421Y0098737D01*
X0204367Y0098707D01*
X0204315Y0098673D01*
X0204266Y0098637D01*
X0204218Y0098597D01*
X0204173Y0098555D01*
X0204131Y0098510D01*
X0204091Y0098462D01*
X0204055Y0098413D01*
X0204021Y0098361D01*
X0203991Y0098307D01*
X0203964Y0098251D01*
X0203940Y0098194D01*
X0203920Y0098136D01*
X0203904Y0098077D01*
X0203891Y0098016D01*
X0203881Y0097955D01*
X0203876Y0097894D01*
X0203874Y0097832D01*
X0203874Y0096299D01*
X0201829Y0096299D01*
X0209329Y0097580D02*
X0213163Y0097580D01*
X0213163Y0097579D02*
X0213218Y0097581D01*
X0213272Y0097587D01*
X0213326Y0097597D01*
X0213379Y0097610D01*
X0213431Y0097627D01*
X0213482Y0097648D01*
X0213531Y0097673D01*
X0213578Y0097701D01*
X0213623Y0097732D01*
X0213665Y0097766D01*
X0213705Y0097804D01*
X0213743Y0097844D01*
X0213777Y0097886D01*
X0213808Y0097931D01*
X0213836Y0097978D01*
X0213861Y0098027D01*
X0213882Y0098078D01*
X0213899Y0098130D01*
X0213912Y0098183D01*
X0213922Y0098237D01*
X0213928Y0098291D01*
X0213930Y0098346D01*
X0213929Y0098346D02*
X0213929Y0098602D01*
X0213163Y0100299D02*
X0211885Y0100299D01*
X0212396Y0100299D02*
X0212396Y0102344D01*
X0211885Y0102344D01*
X0211822Y0102342D01*
X0211759Y0102336D01*
X0211697Y0102327D01*
X0211636Y0102313D01*
X0211575Y0102296D01*
X0211516Y0102275D01*
X0211458Y0102250D01*
X0211401Y0102222D01*
X0211347Y0102191D01*
X0211295Y0102156D01*
X0211244Y0102118D01*
X0211196Y0102077D01*
X0211151Y0102033D01*
X0211109Y0101987D01*
X0211069Y0101938D01*
X0211033Y0101887D01*
X0211000Y0101833D01*
X0210970Y0101778D01*
X0210944Y0101720D01*
X0210921Y0101662D01*
X0210902Y0101602D01*
X0210887Y0101541D01*
X0210875Y0101479D01*
X0210867Y0101416D01*
X0210863Y0101353D01*
X0210863Y0101291D01*
X0210867Y0101228D01*
X0210875Y0101165D01*
X0210887Y0101103D01*
X0210902Y0101042D01*
X0210921Y0100982D01*
X0210944Y0100924D01*
X0210970Y0100866D01*
X0211000Y0100811D01*
X0211033Y0100757D01*
X0211069Y0100706D01*
X0211109Y0100657D01*
X0211151Y0100611D01*
X0211196Y0100567D01*
X0211244Y0100526D01*
X0211295Y0100488D01*
X0211347Y0100453D01*
X0211401Y0100422D01*
X0211458Y0100394D01*
X0211516Y0100369D01*
X0211575Y0100348D01*
X0211636Y0100331D01*
X0211697Y0100317D01*
X0211759Y0100308D01*
X0211822Y0100302D01*
X0211885Y0100300D01*
X0213163Y0100299D02*
X0213218Y0100301D01*
X0213272Y0100307D01*
X0213326Y0100317D01*
X0213379Y0100330D01*
X0213431Y0100347D01*
X0213482Y0100368D01*
X0213531Y0100393D01*
X0213578Y0100421D01*
X0213623Y0100452D01*
X0213665Y0100486D01*
X0213705Y0100524D01*
X0213743Y0100564D01*
X0213777Y0100606D01*
X0213808Y0100651D01*
X0213836Y0100698D01*
X0213861Y0100747D01*
X0213882Y0100798D01*
X0213899Y0100850D01*
X0213912Y0100903D01*
X0213922Y0100957D01*
X0213928Y0101011D01*
X0213930Y0101066D01*
X0213929Y0101066D02*
X0213929Y0102344D01*
X0213929Y0104376D02*
X0210863Y0104376D01*
X0210863Y0105909D01*
X0211374Y0105909D01*
X0210863Y0109923D02*
X0210863Y0111200D01*
X0210862Y0111200D02*
X0210864Y0111255D01*
X0210870Y0111309D01*
X0210880Y0111363D01*
X0210893Y0111416D01*
X0210910Y0111468D01*
X0210931Y0111519D01*
X0210956Y0111568D01*
X0210984Y0111615D01*
X0211015Y0111660D01*
X0211049Y0111702D01*
X0211087Y0111742D01*
X0211127Y0111780D01*
X0211169Y0111814D01*
X0211214Y0111845D01*
X0211261Y0111873D01*
X0211310Y0111898D01*
X0211361Y0111919D01*
X0211413Y0111936D01*
X0211466Y0111949D01*
X0211520Y0111959D01*
X0211574Y0111965D01*
X0211629Y0111967D01*
X0213163Y0111967D01*
X0213218Y0111965D01*
X0213272Y0111959D01*
X0213326Y0111949D01*
X0213379Y0111936D01*
X0213431Y0111919D01*
X0213482Y0111898D01*
X0213531Y0111873D01*
X0213578Y0111845D01*
X0213623Y0111814D01*
X0213665Y0111780D01*
X0213705Y0111742D01*
X0213743Y0111702D01*
X0213777Y0111660D01*
X0213808Y0111615D01*
X0213836Y0111568D01*
X0213861Y0111519D01*
X0213882Y0111468D01*
X0213899Y0111416D01*
X0213912Y0111363D01*
X0213922Y0111309D01*
X0213928Y0111255D01*
X0213930Y0111200D01*
X0213929Y0111200D02*
X0213929Y0109923D01*
X0215463Y0109923D02*
X0210863Y0109923D01*
X0209585Y0113644D02*
X0209585Y0113899D01*
X0209329Y0113899D01*
X0209329Y0113644D01*
X0209585Y0113644D01*
X0210863Y0113772D02*
X0213929Y0113772D01*
X0213929Y0115749D02*
X0210863Y0115749D01*
X0210863Y0117027D01*
X0210862Y0117027D02*
X0210864Y0117082D01*
X0210870Y0117136D01*
X0210880Y0117190D01*
X0210893Y0117243D01*
X0210910Y0117295D01*
X0210931Y0117346D01*
X0210956Y0117395D01*
X0210984Y0117442D01*
X0211015Y0117487D01*
X0211049Y0117529D01*
X0211087Y0117569D01*
X0211127Y0117607D01*
X0211169Y0117641D01*
X0211214Y0117672D01*
X0211261Y0117700D01*
X0211310Y0117725D01*
X0211361Y0117746D01*
X0211413Y0117763D01*
X0211466Y0117776D01*
X0211520Y0117786D01*
X0211574Y0117792D01*
X0211629Y0117794D01*
X0213929Y0117794D01*
X0210863Y0098602D02*
X0210863Y0097069D01*
X0211629Y0095444D02*
X0213929Y0095444D01*
X0213929Y0093399D02*
X0210863Y0093399D01*
X0210863Y0094677D01*
X0210862Y0094677D02*
X0210864Y0094732D01*
X0210870Y0094786D01*
X0210880Y0094840D01*
X0210893Y0094893D01*
X0210910Y0094945D01*
X0210931Y0094996D01*
X0210956Y0095045D01*
X0210984Y0095092D01*
X0211015Y0095137D01*
X0211049Y0095179D01*
X0211087Y0095219D01*
X0211127Y0095257D01*
X0211169Y0095291D01*
X0211214Y0095322D01*
X0211261Y0095350D01*
X0211310Y0095375D01*
X0211361Y0095396D01*
X0211413Y0095413D01*
X0211466Y0095426D01*
X0211520Y0095436D01*
X0211574Y0095442D01*
X0211629Y0095444D01*
X0211885Y0091394D02*
X0212396Y0091394D01*
X0212396Y0089349D01*
X0211885Y0089349D02*
X0213163Y0089349D01*
X0213218Y0089351D01*
X0213272Y0089357D01*
X0213326Y0089367D01*
X0213379Y0089380D01*
X0213431Y0089397D01*
X0213482Y0089418D01*
X0213531Y0089443D01*
X0213578Y0089471D01*
X0213623Y0089502D01*
X0213665Y0089536D01*
X0213705Y0089574D01*
X0213743Y0089614D01*
X0213777Y0089656D01*
X0213808Y0089701D01*
X0213836Y0089748D01*
X0213861Y0089797D01*
X0213882Y0089848D01*
X0213899Y0089900D01*
X0213912Y0089953D01*
X0213922Y0090007D01*
X0213928Y0090061D01*
X0213930Y0090116D01*
X0213929Y0090116D02*
X0213929Y0091394D01*
X0211885Y0091394D02*
X0211822Y0091392D01*
X0211759Y0091386D01*
X0211697Y0091377D01*
X0211636Y0091363D01*
X0211575Y0091346D01*
X0211516Y0091325D01*
X0211458Y0091300D01*
X0211401Y0091272D01*
X0211347Y0091241D01*
X0211295Y0091206D01*
X0211244Y0091168D01*
X0211196Y0091127D01*
X0211151Y0091083D01*
X0211109Y0091037D01*
X0211069Y0090988D01*
X0211033Y0090937D01*
X0211000Y0090883D01*
X0210970Y0090828D01*
X0210944Y0090770D01*
X0210921Y0090712D01*
X0210902Y0090652D01*
X0210887Y0090591D01*
X0210875Y0090529D01*
X0210867Y0090466D01*
X0210863Y0090403D01*
X0210863Y0090341D01*
X0210867Y0090278D01*
X0210875Y0090215D01*
X0210887Y0090153D01*
X0210902Y0090092D01*
X0210921Y0090032D01*
X0210944Y0089974D01*
X0210970Y0089916D01*
X0211000Y0089861D01*
X0211033Y0089807D01*
X0211069Y0089756D01*
X0211109Y0089707D01*
X0211151Y0089661D01*
X0211196Y0089617D01*
X0211244Y0089576D01*
X0211295Y0089538D01*
X0211347Y0089503D01*
X0211401Y0089472D01*
X0211458Y0089444D01*
X0211516Y0089419D01*
X0211575Y0089398D01*
X0211636Y0089381D01*
X0211697Y0089367D01*
X0211759Y0089358D01*
X0211822Y0089352D01*
X0211885Y0089350D01*
X0210863Y0087694D02*
X0210863Y0086671D01*
X0210862Y0086671D02*
X0210864Y0086616D01*
X0210870Y0086562D01*
X0210880Y0086508D01*
X0210893Y0086455D01*
X0210910Y0086403D01*
X0210931Y0086352D01*
X0210956Y0086303D01*
X0210984Y0086256D01*
X0211015Y0086211D01*
X0211049Y0086169D01*
X0211087Y0086129D01*
X0211127Y0086091D01*
X0211169Y0086057D01*
X0211214Y0086026D01*
X0211261Y0085998D01*
X0211310Y0085973D01*
X0211361Y0085952D01*
X0211413Y0085935D01*
X0211466Y0085922D01*
X0211520Y0085912D01*
X0211574Y0085906D01*
X0211629Y0085904D01*
X0211629Y0085905D02*
X0213163Y0085905D01*
X0213163Y0085904D02*
X0213218Y0085906D01*
X0213272Y0085912D01*
X0213326Y0085922D01*
X0213379Y0085935D01*
X0213431Y0085952D01*
X0213482Y0085973D01*
X0213531Y0085998D01*
X0213578Y0086026D01*
X0213623Y0086057D01*
X0213665Y0086091D01*
X0213705Y0086129D01*
X0213743Y0086169D01*
X0213777Y0086211D01*
X0213808Y0086256D01*
X0213836Y0086303D01*
X0213861Y0086352D01*
X0213882Y0086403D01*
X0213899Y0086455D01*
X0213912Y0086508D01*
X0213922Y0086562D01*
X0213928Y0086616D01*
X0213930Y0086671D01*
X0213929Y0086671D02*
X0213929Y0087694D01*
X0231357Y0139054D02*
X0231357Y0141610D01*
X0231357Y0143299D02*
X0235957Y0144832D01*
X0231357Y0146365D01*
X0231357Y0151732D02*
X0235957Y0150199D01*
X0234807Y0150582D02*
X0234807Y0152882D01*
X0235957Y0153265D02*
X0231357Y0151732D01*
X0232890Y0155060D02*
X0232890Y0156338D01*
X0232892Y0156393D01*
X0232898Y0156447D01*
X0232908Y0156501D01*
X0232921Y0156554D01*
X0232938Y0156606D01*
X0232959Y0156657D01*
X0232984Y0156706D01*
X0233012Y0156753D01*
X0233043Y0156798D01*
X0233077Y0156840D01*
X0233115Y0156880D01*
X0233155Y0156918D01*
X0233197Y0156952D01*
X0233242Y0156983D01*
X0233289Y0157011D01*
X0233338Y0157036D01*
X0233389Y0157057D01*
X0233441Y0157074D01*
X0233494Y0157087D01*
X0233548Y0157097D01*
X0233602Y0157103D01*
X0233657Y0157105D01*
X0233657Y0157104D02*
X0235957Y0157104D01*
X0235957Y0155060D02*
X0232890Y0155060D01*
X0232890Y0159342D02*
X0232890Y0160364D01*
X0232892Y0160419D01*
X0232898Y0160473D01*
X0232908Y0160527D01*
X0232921Y0160580D01*
X0232938Y0160632D01*
X0232959Y0160683D01*
X0232984Y0160732D01*
X0233012Y0160779D01*
X0233043Y0160824D01*
X0233077Y0160866D01*
X0233115Y0160906D01*
X0233155Y0160944D01*
X0233197Y0160978D01*
X0233242Y0161009D01*
X0233289Y0161037D01*
X0233338Y0161062D01*
X0233389Y0161083D01*
X0233441Y0161100D01*
X0233494Y0161113D01*
X0233548Y0161123D01*
X0233602Y0161129D01*
X0233657Y0161131D01*
X0235957Y0161131D01*
X0235957Y0159981D01*
X0235956Y0159981D02*
X0235954Y0159923D01*
X0235948Y0159864D01*
X0235939Y0159807D01*
X0235926Y0159750D01*
X0235909Y0159694D01*
X0235888Y0159639D01*
X0235864Y0159586D01*
X0235836Y0159534D01*
X0235805Y0159484D01*
X0235771Y0159437D01*
X0235734Y0159392D01*
X0235694Y0159349D01*
X0235651Y0159309D01*
X0235606Y0159272D01*
X0235559Y0159238D01*
X0235509Y0159207D01*
X0235457Y0159179D01*
X0235404Y0159155D01*
X0235349Y0159134D01*
X0235293Y0159117D01*
X0235236Y0159104D01*
X0235179Y0159095D01*
X0235120Y0159089D01*
X0235062Y0159087D01*
X0235004Y0159089D01*
X0234945Y0159095D01*
X0234888Y0159104D01*
X0234831Y0159117D01*
X0234775Y0159134D01*
X0234720Y0159155D01*
X0234667Y0159179D01*
X0234615Y0159207D01*
X0234565Y0159238D01*
X0234518Y0159272D01*
X0234473Y0159309D01*
X0234430Y0159349D01*
X0234390Y0159392D01*
X0234353Y0159437D01*
X0234319Y0159484D01*
X0234288Y0159534D01*
X0234260Y0159586D01*
X0234236Y0159639D01*
X0234215Y0159694D01*
X0234198Y0159750D01*
X0234185Y0159807D01*
X0234176Y0159864D01*
X0234170Y0159923D01*
X0234168Y0159981D01*
X0234168Y0161131D01*
X0235190Y0163219D02*
X0231357Y0163219D01*
X0233912Y0165560D02*
X0234935Y0165560D01*
X0234998Y0165562D01*
X0235061Y0165568D01*
X0235123Y0165577D01*
X0235184Y0165591D01*
X0235245Y0165608D01*
X0235304Y0165629D01*
X0235362Y0165654D01*
X0235419Y0165682D01*
X0235473Y0165713D01*
X0235525Y0165748D01*
X0235576Y0165786D01*
X0235624Y0165827D01*
X0235669Y0165871D01*
X0235711Y0165917D01*
X0235751Y0165966D01*
X0235787Y0166017D01*
X0235820Y0166071D01*
X0235850Y0166126D01*
X0235876Y0166184D01*
X0235899Y0166242D01*
X0235918Y0166302D01*
X0235933Y0166363D01*
X0235945Y0166425D01*
X0235953Y0166488D01*
X0235957Y0166551D01*
X0235957Y0166613D01*
X0235953Y0166676D01*
X0235945Y0166739D01*
X0235933Y0166801D01*
X0235918Y0166862D01*
X0235899Y0166922D01*
X0235876Y0166980D01*
X0235850Y0167038D01*
X0235820Y0167093D01*
X0235787Y0167147D01*
X0235751Y0167198D01*
X0235711Y0167247D01*
X0235669Y0167293D01*
X0235624Y0167337D01*
X0235576Y0167378D01*
X0235525Y0167416D01*
X0235473Y0167451D01*
X0235419Y0167482D01*
X0235362Y0167510D01*
X0235304Y0167535D01*
X0235245Y0167556D01*
X0235184Y0167573D01*
X0235123Y0167587D01*
X0235061Y0167596D01*
X0234998Y0167602D01*
X0234935Y0167604D01*
X0233912Y0167604D01*
X0233849Y0167602D01*
X0233786Y0167596D01*
X0233724Y0167587D01*
X0233663Y0167573D01*
X0233602Y0167556D01*
X0233543Y0167535D01*
X0233485Y0167510D01*
X0233428Y0167482D01*
X0233374Y0167451D01*
X0233322Y0167416D01*
X0233271Y0167378D01*
X0233223Y0167337D01*
X0233178Y0167293D01*
X0233136Y0167247D01*
X0233096Y0167198D01*
X0233060Y0167147D01*
X0233027Y0167093D01*
X0232997Y0167038D01*
X0232971Y0166980D01*
X0232948Y0166922D01*
X0232929Y0166862D01*
X0232914Y0166801D01*
X0232902Y0166739D01*
X0232894Y0166676D01*
X0232890Y0166613D01*
X0232890Y0166551D01*
X0232894Y0166488D01*
X0232902Y0166425D01*
X0232914Y0166363D01*
X0232929Y0166302D01*
X0232948Y0166242D01*
X0232971Y0166184D01*
X0232997Y0166126D01*
X0233027Y0166071D01*
X0233060Y0166017D01*
X0233096Y0165966D01*
X0233136Y0165917D01*
X0233178Y0165871D01*
X0233223Y0165827D01*
X0233271Y0165786D01*
X0233322Y0165748D01*
X0233374Y0165713D01*
X0233428Y0165682D01*
X0233485Y0165654D01*
X0233543Y0165629D01*
X0233602Y0165608D01*
X0233663Y0165591D01*
X0233724Y0165577D01*
X0233786Y0165568D01*
X0233849Y0165562D01*
X0233912Y0165560D01*
X0235957Y0163985D02*
X0235955Y0163930D01*
X0235949Y0163876D01*
X0235939Y0163822D01*
X0235926Y0163769D01*
X0235909Y0163717D01*
X0235888Y0163666D01*
X0235863Y0163617D01*
X0235835Y0163570D01*
X0235804Y0163525D01*
X0235770Y0163483D01*
X0235732Y0163443D01*
X0235692Y0163405D01*
X0235650Y0163371D01*
X0235605Y0163340D01*
X0235558Y0163312D01*
X0235509Y0163287D01*
X0235458Y0163266D01*
X0235406Y0163249D01*
X0235353Y0163236D01*
X0235299Y0163226D01*
X0235245Y0163220D01*
X0235190Y0163218D01*
X0238857Y0163232D02*
X0242690Y0163232D01*
X0242690Y0163231D02*
X0242745Y0163233D01*
X0242799Y0163239D01*
X0242853Y0163249D01*
X0242906Y0163262D01*
X0242958Y0163279D01*
X0243009Y0163300D01*
X0243058Y0163325D01*
X0243105Y0163353D01*
X0243150Y0163384D01*
X0243192Y0163418D01*
X0243232Y0163456D01*
X0243270Y0163496D01*
X0243304Y0163538D01*
X0243335Y0163583D01*
X0243363Y0163630D01*
X0243388Y0163679D01*
X0243409Y0163730D01*
X0243426Y0163782D01*
X0243439Y0163835D01*
X0243449Y0163889D01*
X0243455Y0163943D01*
X0243457Y0163998D01*
X0242690Y0165573D02*
X0241412Y0165573D01*
X0241923Y0165573D02*
X0241923Y0167617D01*
X0241412Y0167617D01*
X0241349Y0167615D01*
X0241286Y0167609D01*
X0241224Y0167600D01*
X0241163Y0167586D01*
X0241102Y0167569D01*
X0241043Y0167548D01*
X0240985Y0167523D01*
X0240928Y0167495D01*
X0240874Y0167464D01*
X0240822Y0167429D01*
X0240771Y0167391D01*
X0240723Y0167350D01*
X0240678Y0167306D01*
X0240636Y0167260D01*
X0240596Y0167211D01*
X0240560Y0167160D01*
X0240527Y0167106D01*
X0240497Y0167051D01*
X0240471Y0166993D01*
X0240448Y0166935D01*
X0240429Y0166875D01*
X0240414Y0166814D01*
X0240402Y0166752D01*
X0240394Y0166689D01*
X0240390Y0166626D01*
X0240390Y0166564D01*
X0240394Y0166501D01*
X0240402Y0166438D01*
X0240414Y0166376D01*
X0240429Y0166315D01*
X0240448Y0166255D01*
X0240471Y0166197D01*
X0240497Y0166139D01*
X0240527Y0166084D01*
X0240560Y0166030D01*
X0240596Y0165979D01*
X0240636Y0165930D01*
X0240678Y0165884D01*
X0240723Y0165840D01*
X0240771Y0165799D01*
X0240822Y0165761D01*
X0240874Y0165726D01*
X0240928Y0165695D01*
X0240985Y0165667D01*
X0241043Y0165642D01*
X0241102Y0165621D01*
X0241163Y0165604D01*
X0241224Y0165590D01*
X0241286Y0165581D01*
X0241349Y0165575D01*
X0241412Y0165573D01*
X0242690Y0165573D02*
X0242745Y0165575D01*
X0242799Y0165581D01*
X0242853Y0165591D01*
X0242906Y0165604D01*
X0242958Y0165621D01*
X0243009Y0165642D01*
X0243058Y0165667D01*
X0243105Y0165695D01*
X0243150Y0165726D01*
X0243192Y0165760D01*
X0243232Y0165798D01*
X0243270Y0165838D01*
X0243304Y0165880D01*
X0243335Y0165925D01*
X0243363Y0165972D01*
X0243388Y0166021D01*
X0243409Y0166072D01*
X0243426Y0166124D01*
X0243439Y0166177D01*
X0243449Y0166231D01*
X0243455Y0166285D01*
X0243457Y0166340D01*
X0243457Y0167617D01*
X0243457Y0169649D02*
X0240390Y0169649D01*
X0240390Y0171182D01*
X0240901Y0171182D01*
X0237490Y0170714D02*
X0237490Y0169692D01*
X0237490Y0170714D02*
X0237488Y0170769D01*
X0237482Y0170823D01*
X0237472Y0170877D01*
X0237459Y0170930D01*
X0237442Y0170982D01*
X0237421Y0171033D01*
X0237396Y0171082D01*
X0237368Y0171129D01*
X0237337Y0171174D01*
X0237303Y0171216D01*
X0237265Y0171256D01*
X0237225Y0171294D01*
X0237183Y0171328D01*
X0237138Y0171359D01*
X0237091Y0171387D01*
X0237042Y0171412D01*
X0236991Y0171433D01*
X0236939Y0171450D01*
X0236886Y0171463D01*
X0236832Y0171473D01*
X0236778Y0171479D01*
X0236723Y0171481D01*
X0232890Y0171481D01*
X0232890Y0170203D01*
X0232892Y0170148D01*
X0232898Y0170094D01*
X0232908Y0170040D01*
X0232921Y0169987D01*
X0232938Y0169935D01*
X0232959Y0169884D01*
X0232984Y0169835D01*
X0233012Y0169788D01*
X0233043Y0169743D01*
X0233077Y0169701D01*
X0233115Y0169661D01*
X0233155Y0169623D01*
X0233197Y0169589D01*
X0233242Y0169558D01*
X0233289Y0169530D01*
X0233338Y0169505D01*
X0233389Y0169484D01*
X0233441Y0169467D01*
X0233494Y0169454D01*
X0233548Y0169444D01*
X0233602Y0169438D01*
X0233657Y0169436D01*
X0233657Y0169437D02*
X0235190Y0169437D01*
X0235190Y0169436D02*
X0235245Y0169438D01*
X0235299Y0169444D01*
X0235353Y0169454D01*
X0235406Y0169467D01*
X0235458Y0169484D01*
X0235509Y0169505D01*
X0235558Y0169530D01*
X0235605Y0169558D01*
X0235650Y0169589D01*
X0235692Y0169623D01*
X0235732Y0169661D01*
X0235770Y0169701D01*
X0235804Y0169743D01*
X0235835Y0169788D01*
X0235863Y0169835D01*
X0235888Y0169884D01*
X0235909Y0169935D01*
X0235926Y0169987D01*
X0235939Y0170040D01*
X0235949Y0170094D01*
X0235955Y0170148D01*
X0235957Y0170203D01*
X0235957Y0171481D01*
X0238857Y0160832D02*
X0242690Y0160832D01*
X0242690Y0160831D02*
X0242745Y0160833D01*
X0242799Y0160839D01*
X0242853Y0160849D01*
X0242906Y0160862D01*
X0242958Y0160879D01*
X0243009Y0160900D01*
X0243058Y0160925D01*
X0243105Y0160953D01*
X0243150Y0160984D01*
X0243192Y0161018D01*
X0243232Y0161056D01*
X0243270Y0161096D01*
X0243304Y0161138D01*
X0243335Y0161183D01*
X0243363Y0161230D01*
X0243388Y0161279D01*
X0243409Y0161330D01*
X0243426Y0161382D01*
X0243439Y0161435D01*
X0243449Y0161489D01*
X0243455Y0161543D01*
X0243457Y0161598D01*
X0242435Y0158917D02*
X0241412Y0158917D01*
X0241349Y0158915D01*
X0241286Y0158909D01*
X0241224Y0158900D01*
X0241163Y0158886D01*
X0241102Y0158869D01*
X0241043Y0158848D01*
X0240985Y0158823D01*
X0240928Y0158795D01*
X0240874Y0158764D01*
X0240822Y0158729D01*
X0240771Y0158691D01*
X0240723Y0158650D01*
X0240678Y0158606D01*
X0240636Y0158560D01*
X0240596Y0158511D01*
X0240560Y0158460D01*
X0240527Y0158406D01*
X0240497Y0158351D01*
X0240471Y0158293D01*
X0240448Y0158235D01*
X0240429Y0158175D01*
X0240414Y0158114D01*
X0240402Y0158052D01*
X0240394Y0157989D01*
X0240390Y0157926D01*
X0240390Y0157864D01*
X0240394Y0157801D01*
X0240402Y0157738D01*
X0240414Y0157676D01*
X0240429Y0157615D01*
X0240448Y0157555D01*
X0240471Y0157497D01*
X0240497Y0157439D01*
X0240527Y0157384D01*
X0240560Y0157330D01*
X0240596Y0157279D01*
X0240636Y0157230D01*
X0240678Y0157184D01*
X0240723Y0157140D01*
X0240771Y0157099D01*
X0240822Y0157061D01*
X0240874Y0157026D01*
X0240928Y0156995D01*
X0240985Y0156967D01*
X0241043Y0156942D01*
X0241102Y0156921D01*
X0241163Y0156904D01*
X0241224Y0156890D01*
X0241286Y0156881D01*
X0241349Y0156875D01*
X0241412Y0156873D01*
X0242435Y0156873D01*
X0242498Y0156875D01*
X0242561Y0156881D01*
X0242623Y0156890D01*
X0242684Y0156904D01*
X0242745Y0156921D01*
X0242804Y0156942D01*
X0242862Y0156967D01*
X0242919Y0156995D01*
X0242973Y0157026D01*
X0243025Y0157061D01*
X0243076Y0157099D01*
X0243124Y0157140D01*
X0243169Y0157184D01*
X0243211Y0157230D01*
X0243251Y0157279D01*
X0243287Y0157330D01*
X0243320Y0157384D01*
X0243350Y0157439D01*
X0243376Y0157497D01*
X0243399Y0157555D01*
X0243418Y0157615D01*
X0243433Y0157676D01*
X0243445Y0157738D01*
X0243453Y0157801D01*
X0243457Y0157864D01*
X0243457Y0157926D01*
X0243453Y0157989D01*
X0243445Y0158052D01*
X0243433Y0158114D01*
X0243418Y0158175D01*
X0243399Y0158235D01*
X0243376Y0158293D01*
X0243350Y0158351D01*
X0243320Y0158406D01*
X0243287Y0158460D01*
X0243251Y0158511D01*
X0243211Y0158560D01*
X0243169Y0158606D01*
X0243124Y0158650D01*
X0243076Y0158691D01*
X0243025Y0158729D01*
X0242973Y0158764D01*
X0242919Y0158795D01*
X0242862Y0158823D01*
X0242804Y0158848D01*
X0242745Y0158869D01*
X0242684Y0158886D01*
X0242623Y0158900D01*
X0242561Y0158909D01*
X0242498Y0158915D01*
X0242435Y0158917D01*
X0240901Y0155432D02*
X0240390Y0155432D01*
X0240390Y0153899D01*
X0243457Y0153899D01*
X0243457Y0152025D02*
X0243457Y0151770D01*
X0243455Y0151715D01*
X0243449Y0151661D01*
X0243439Y0151607D01*
X0243426Y0151554D01*
X0243409Y0151502D01*
X0243388Y0151451D01*
X0243363Y0151402D01*
X0243335Y0151355D01*
X0243304Y0151310D01*
X0243270Y0151268D01*
X0243232Y0151228D01*
X0243192Y0151190D01*
X0243150Y0151156D01*
X0243105Y0151125D01*
X0243058Y0151097D01*
X0243009Y0151072D01*
X0242958Y0151051D01*
X0242906Y0151034D01*
X0242853Y0151021D01*
X0242799Y0151011D01*
X0242745Y0151005D01*
X0242690Y0151003D01*
X0238857Y0151003D01*
X0240390Y0150492D02*
X0240390Y0152025D01*
X0241157Y0148867D02*
X0243457Y0148867D01*
X0243457Y0146823D02*
X0240390Y0146823D01*
X0240390Y0148101D01*
X0240392Y0148156D01*
X0240398Y0148210D01*
X0240408Y0148264D01*
X0240421Y0148317D01*
X0240438Y0148369D01*
X0240459Y0148420D01*
X0240484Y0148469D01*
X0240512Y0148516D01*
X0240543Y0148561D01*
X0240577Y0148603D01*
X0240615Y0148643D01*
X0240655Y0148681D01*
X0240697Y0148715D01*
X0240742Y0148746D01*
X0240789Y0148774D01*
X0240838Y0148799D01*
X0240889Y0148820D01*
X0240941Y0148837D01*
X0240994Y0148850D01*
X0241048Y0148860D01*
X0241102Y0148866D01*
X0241157Y0148868D01*
X0241412Y0144817D02*
X0242435Y0144817D01*
X0242498Y0144815D01*
X0242561Y0144809D01*
X0242623Y0144800D01*
X0242684Y0144786D01*
X0242745Y0144769D01*
X0242804Y0144748D01*
X0242862Y0144723D01*
X0242919Y0144695D01*
X0242973Y0144664D01*
X0243025Y0144629D01*
X0243076Y0144591D01*
X0243124Y0144550D01*
X0243169Y0144506D01*
X0243211Y0144460D01*
X0243251Y0144411D01*
X0243287Y0144360D01*
X0243320Y0144306D01*
X0243350Y0144251D01*
X0243376Y0144193D01*
X0243399Y0144135D01*
X0243418Y0144075D01*
X0243433Y0144014D01*
X0243445Y0143952D01*
X0243453Y0143889D01*
X0243457Y0143826D01*
X0243457Y0143764D01*
X0243453Y0143701D01*
X0243445Y0143638D01*
X0243433Y0143576D01*
X0243418Y0143515D01*
X0243399Y0143455D01*
X0243376Y0143397D01*
X0243350Y0143339D01*
X0243320Y0143284D01*
X0243287Y0143230D01*
X0243251Y0143179D01*
X0243211Y0143130D01*
X0243169Y0143084D01*
X0243124Y0143040D01*
X0243076Y0142999D01*
X0243025Y0142961D01*
X0242973Y0142926D01*
X0242919Y0142895D01*
X0242862Y0142867D01*
X0242804Y0142842D01*
X0242745Y0142821D01*
X0242684Y0142804D01*
X0242623Y0142790D01*
X0242561Y0142781D01*
X0242498Y0142775D01*
X0242435Y0142773D01*
X0241412Y0142773D01*
X0241349Y0142775D01*
X0241286Y0142781D01*
X0241224Y0142790D01*
X0241163Y0142804D01*
X0241102Y0142821D01*
X0241043Y0142842D01*
X0240985Y0142867D01*
X0240928Y0142895D01*
X0240874Y0142926D01*
X0240822Y0142961D01*
X0240771Y0142999D01*
X0240723Y0143040D01*
X0240678Y0143084D01*
X0240636Y0143130D01*
X0240596Y0143179D01*
X0240560Y0143230D01*
X0240527Y0143284D01*
X0240497Y0143339D01*
X0240471Y0143397D01*
X0240448Y0143455D01*
X0240429Y0143515D01*
X0240414Y0143576D01*
X0240402Y0143638D01*
X0240394Y0143701D01*
X0240390Y0143764D01*
X0240390Y0143826D01*
X0240394Y0143889D01*
X0240402Y0143952D01*
X0240414Y0144014D01*
X0240429Y0144075D01*
X0240448Y0144135D01*
X0240471Y0144193D01*
X0240497Y0144251D01*
X0240527Y0144306D01*
X0240560Y0144360D01*
X0240596Y0144411D01*
X0240636Y0144460D01*
X0240678Y0144506D01*
X0240723Y0144550D01*
X0240771Y0144591D01*
X0240822Y0144629D01*
X0240874Y0144664D01*
X0240928Y0144695D01*
X0240985Y0144723D01*
X0241043Y0144748D01*
X0241102Y0144769D01*
X0241163Y0144786D01*
X0241224Y0144800D01*
X0241286Y0144809D01*
X0241349Y0144815D01*
X0241412Y0144817D01*
X0243457Y0141099D02*
X0243457Y0140077D01*
X0243455Y0140015D01*
X0243450Y0139954D01*
X0243440Y0139893D01*
X0243427Y0139832D01*
X0243411Y0139773D01*
X0243391Y0139715D01*
X0243367Y0139658D01*
X0243340Y0139602D01*
X0243310Y0139548D01*
X0243276Y0139496D01*
X0243240Y0139447D01*
X0243200Y0139399D01*
X0243158Y0139354D01*
X0243113Y0139312D01*
X0243065Y0139272D01*
X0243016Y0139236D01*
X0242964Y0139202D01*
X0242910Y0139172D01*
X0242854Y0139145D01*
X0242797Y0139121D01*
X0242739Y0139101D01*
X0242680Y0139085D01*
X0242619Y0139072D01*
X0242558Y0139062D01*
X0242497Y0139057D01*
X0242435Y0139055D01*
X0242435Y0139054D02*
X0239879Y0139054D01*
X0239879Y0139055D02*
X0239817Y0139057D01*
X0239756Y0139062D01*
X0239695Y0139072D01*
X0239634Y0139085D01*
X0239575Y0139101D01*
X0239517Y0139121D01*
X0239460Y0139145D01*
X0239404Y0139172D01*
X0239350Y0139202D01*
X0239298Y0139236D01*
X0239249Y0139272D01*
X0239201Y0139312D01*
X0239156Y0139354D01*
X0239114Y0139399D01*
X0239075Y0139447D01*
X0239038Y0139496D01*
X0239004Y0139548D01*
X0238974Y0139602D01*
X0238947Y0139658D01*
X0238923Y0139715D01*
X0238903Y0139773D01*
X0238887Y0139832D01*
X0238874Y0139893D01*
X0238864Y0139954D01*
X0238859Y0140015D01*
X0238857Y0140077D01*
X0238857Y0141099D01*
X0235957Y0140588D02*
X0235957Y0139054D01*
X0235957Y0140588D02*
X0235955Y0140650D01*
X0235950Y0140711D01*
X0235940Y0140772D01*
X0235927Y0140833D01*
X0235911Y0140892D01*
X0235891Y0140950D01*
X0235867Y0141007D01*
X0235840Y0141063D01*
X0235810Y0141117D01*
X0235776Y0141169D01*
X0235740Y0141218D01*
X0235700Y0141266D01*
X0235658Y0141311D01*
X0235613Y0141353D01*
X0235565Y0141393D01*
X0235516Y0141429D01*
X0235464Y0141463D01*
X0235410Y0141493D01*
X0235354Y0141520D01*
X0235297Y0141544D01*
X0235239Y0141564D01*
X0235180Y0141580D01*
X0235119Y0141593D01*
X0235058Y0141603D01*
X0234997Y0141608D01*
X0234935Y0141610D01*
X0234423Y0141610D01*
X0234361Y0141608D01*
X0234300Y0141603D01*
X0234239Y0141593D01*
X0234178Y0141580D01*
X0234119Y0141564D01*
X0234061Y0141544D01*
X0234004Y0141520D01*
X0233948Y0141493D01*
X0233894Y0141463D01*
X0233842Y0141429D01*
X0233793Y0141393D01*
X0233745Y0141353D01*
X0233700Y0141311D01*
X0233658Y0141266D01*
X0233618Y0141218D01*
X0233582Y0141169D01*
X0233548Y0141117D01*
X0233518Y0141063D01*
X0233491Y0141007D01*
X0233467Y0140950D01*
X0233447Y0140892D01*
X0233431Y0140833D01*
X0233418Y0140772D01*
X0233408Y0140711D01*
X0233403Y0140650D01*
X0233401Y0140588D01*
X0233401Y0139054D01*
X0231357Y0139054D01*
D12*
X0253586Y0131353D02*
X0253586Y0130119D01*
X0253587Y0131353D02*
X0253589Y0131409D01*
X0253595Y0131465D01*
X0253604Y0131520D01*
X0253617Y0131575D01*
X0253634Y0131628D01*
X0253655Y0131680D01*
X0253679Y0131731D01*
X0253707Y0131780D01*
X0253737Y0131827D01*
X0253771Y0131872D01*
X0253808Y0131914D01*
X0253848Y0131954D01*
X0253890Y0131991D01*
X0253935Y0132025D01*
X0253982Y0132055D01*
X0254031Y0132083D01*
X0254082Y0132107D01*
X0254134Y0132128D01*
X0254187Y0132145D01*
X0254242Y0132158D01*
X0254297Y0132167D01*
X0254353Y0132173D01*
X0254409Y0132175D01*
X0254465Y0132173D01*
X0254521Y0132167D01*
X0254576Y0132158D01*
X0254631Y0132145D01*
X0254684Y0132128D01*
X0254736Y0132107D01*
X0254787Y0132083D01*
X0254836Y0132055D01*
X0254883Y0132025D01*
X0254928Y0131991D01*
X0254970Y0131954D01*
X0255010Y0131914D01*
X0255047Y0131872D01*
X0255081Y0131827D01*
X0255111Y0131780D01*
X0255139Y0131731D01*
X0255163Y0131680D01*
X0255184Y0131628D01*
X0255201Y0131575D01*
X0255214Y0131520D01*
X0255223Y0131465D01*
X0255229Y0131409D01*
X0255231Y0131353D01*
X0255231Y0130530D01*
X0255231Y0131147D02*
X0255233Y0131210D01*
X0255239Y0131273D01*
X0255249Y0131336D01*
X0255262Y0131398D01*
X0255279Y0131459D01*
X0255300Y0131518D01*
X0255325Y0131577D01*
X0255353Y0131633D01*
X0255385Y0131688D01*
X0255420Y0131741D01*
X0255458Y0131791D01*
X0255499Y0131840D01*
X0255543Y0131885D01*
X0255590Y0131928D01*
X0255639Y0131967D01*
X0255691Y0132004D01*
X0255745Y0132037D01*
X0255801Y0132067D01*
X0255858Y0132094D01*
X0255917Y0132117D01*
X0255978Y0132136D01*
X0256039Y0132151D01*
X0256101Y0132163D01*
X0256164Y0132171D01*
X0256227Y0132175D01*
X0256291Y0132175D01*
X0256354Y0132171D01*
X0256417Y0132163D01*
X0256479Y0132151D01*
X0256540Y0132136D01*
X0256601Y0132117D01*
X0256660Y0132094D01*
X0256717Y0132067D01*
X0256773Y0132037D01*
X0256827Y0132004D01*
X0256879Y0131967D01*
X0256928Y0131928D01*
X0256975Y0131885D01*
X0257019Y0131840D01*
X0257060Y0131791D01*
X0257098Y0131741D01*
X0257133Y0131688D01*
X0257165Y0131633D01*
X0257193Y0131577D01*
X0257218Y0131518D01*
X0257239Y0131459D01*
X0257256Y0131398D01*
X0257269Y0131336D01*
X0257279Y0131273D01*
X0257285Y0131210D01*
X0257287Y0131147D01*
X0257286Y0131147D02*
X0257286Y0130119D01*
X0257286Y0128575D02*
X0257286Y0126519D01*
X0255231Y0128266D01*
X0253587Y0127650D02*
X0253589Y0127582D01*
X0253595Y0127514D01*
X0253604Y0127447D01*
X0253618Y0127381D01*
X0253635Y0127315D01*
X0253656Y0127250D01*
X0253681Y0127187D01*
X0253709Y0127125D01*
X0253741Y0127065D01*
X0253776Y0127007D01*
X0253814Y0126951D01*
X0253856Y0126897D01*
X0253900Y0126846D01*
X0253948Y0126798D01*
X0253998Y0126752D01*
X0254050Y0126709D01*
X0254105Y0126669D01*
X0254162Y0126632D01*
X0254221Y0126599D01*
X0254282Y0126569D01*
X0254345Y0126543D01*
X0254409Y0126520D01*
X0255231Y0128267D02*
X0255187Y0128310D01*
X0255140Y0128351D01*
X0255091Y0128388D01*
X0255040Y0128423D01*
X0254986Y0128454D01*
X0254931Y0128482D01*
X0254874Y0128506D01*
X0254816Y0128527D01*
X0254756Y0128544D01*
X0254696Y0128558D01*
X0254635Y0128567D01*
X0254573Y0128573D01*
X0254511Y0128575D01*
X0254453Y0128573D01*
X0254395Y0128568D01*
X0254338Y0128559D01*
X0254281Y0128546D01*
X0254225Y0128530D01*
X0254170Y0128510D01*
X0254117Y0128487D01*
X0254065Y0128461D01*
X0254015Y0128431D01*
X0253967Y0128398D01*
X0253921Y0128363D01*
X0253878Y0128324D01*
X0253837Y0128283D01*
X0253798Y0128240D01*
X0253763Y0128194D01*
X0253730Y0128146D01*
X0253700Y0128096D01*
X0253674Y0128044D01*
X0253651Y0127991D01*
X0253631Y0127936D01*
X0253615Y0127880D01*
X0253602Y0127823D01*
X0253593Y0127766D01*
X0253588Y0127708D01*
X0253586Y0127650D01*
X0255436Y0122919D02*
X0255542Y0122921D01*
X0255649Y0122926D01*
X0255755Y0122936D01*
X0255860Y0122949D01*
X0255965Y0122965D01*
X0256070Y0122986D01*
X0256173Y0123009D01*
X0256276Y0123037D01*
X0256378Y0123068D01*
X0256478Y0123103D01*
X0256578Y0123141D01*
X0256676Y0123182D01*
X0256772Y0123227D01*
X0256464Y0123125D02*
X0254409Y0124769D01*
X0254100Y0124667D02*
X0254051Y0124648D01*
X0254004Y0124626D01*
X0253958Y0124601D01*
X0253914Y0124573D01*
X0253872Y0124541D01*
X0253832Y0124507D01*
X0253794Y0124470D01*
X0253760Y0124431D01*
X0253728Y0124389D01*
X0253699Y0124346D01*
X0253673Y0124300D01*
X0253650Y0124253D01*
X0253631Y0124204D01*
X0253615Y0124154D01*
X0253602Y0124103D01*
X0253593Y0124052D01*
X0253588Y0123999D01*
X0253586Y0123947D01*
X0253588Y0123895D01*
X0253593Y0123842D01*
X0253602Y0123791D01*
X0253615Y0123740D01*
X0253631Y0123690D01*
X0253650Y0123641D01*
X0253673Y0123594D01*
X0253699Y0123548D01*
X0253728Y0123505D01*
X0253760Y0123463D01*
X0253794Y0123424D01*
X0253832Y0123387D01*
X0253872Y0123353D01*
X0253914Y0123321D01*
X0253958Y0123293D01*
X0254004Y0123268D01*
X0254051Y0123246D01*
X0254100Y0123227D01*
X0254100Y0124667D02*
X0254196Y0124712D01*
X0254294Y0124753D01*
X0254394Y0124791D01*
X0254494Y0124826D01*
X0254596Y0124857D01*
X0254699Y0124885D01*
X0254802Y0124908D01*
X0254907Y0124929D01*
X0255012Y0124945D01*
X0255117Y0124958D01*
X0255223Y0124968D01*
X0255330Y0124973D01*
X0255436Y0124975D01*
X0255436Y0122919D02*
X0255330Y0122921D01*
X0255223Y0122926D01*
X0255117Y0122936D01*
X0255012Y0122949D01*
X0254907Y0122965D01*
X0254802Y0122986D01*
X0254699Y0123009D01*
X0254596Y0123037D01*
X0254494Y0123068D01*
X0254394Y0123103D01*
X0254294Y0123141D01*
X0254196Y0123182D01*
X0254100Y0123227D01*
X0255436Y0124975D02*
X0255542Y0124973D01*
X0255649Y0124968D01*
X0255755Y0124958D01*
X0255860Y0124945D01*
X0255965Y0124929D01*
X0256070Y0124908D01*
X0256173Y0124885D01*
X0256276Y0124857D01*
X0256378Y0124826D01*
X0256478Y0124791D01*
X0256578Y0124753D01*
X0256676Y0124712D01*
X0256772Y0124667D01*
X0256773Y0124667D02*
X0256822Y0124648D01*
X0256869Y0124626D01*
X0256915Y0124601D01*
X0256959Y0124573D01*
X0257001Y0124541D01*
X0257041Y0124507D01*
X0257079Y0124470D01*
X0257113Y0124431D01*
X0257145Y0124389D01*
X0257174Y0124346D01*
X0257200Y0124300D01*
X0257223Y0124253D01*
X0257242Y0124204D01*
X0257258Y0124154D01*
X0257271Y0124103D01*
X0257280Y0124052D01*
X0257285Y0123999D01*
X0257287Y0123947D01*
X0257285Y0123895D01*
X0257280Y0123842D01*
X0257271Y0123791D01*
X0257258Y0123740D01*
X0257242Y0123690D01*
X0257223Y0123641D01*
X0257200Y0123594D01*
X0257174Y0123548D01*
X0257145Y0123505D01*
X0257113Y0123463D01*
X0257079Y0123424D01*
X0257041Y0123387D01*
X0257001Y0123353D01*
X0256959Y0123321D01*
X0256915Y0123293D01*
X0256869Y0123268D01*
X0256822Y0123246D01*
X0256773Y0123227D01*
X0257286Y0121375D02*
X0257286Y0119319D01*
X0255231Y0121067D01*
X0253587Y0120450D02*
X0253589Y0120382D01*
X0253595Y0120314D01*
X0253604Y0120247D01*
X0253618Y0120181D01*
X0253635Y0120115D01*
X0253656Y0120050D01*
X0253681Y0119987D01*
X0253709Y0119925D01*
X0253741Y0119865D01*
X0253776Y0119807D01*
X0253814Y0119751D01*
X0253856Y0119697D01*
X0253900Y0119646D01*
X0253948Y0119598D01*
X0253998Y0119552D01*
X0254050Y0119509D01*
X0254105Y0119469D01*
X0254162Y0119432D01*
X0254221Y0119399D01*
X0254282Y0119369D01*
X0254345Y0119343D01*
X0254409Y0119320D01*
X0255231Y0121067D02*
X0255187Y0121110D01*
X0255140Y0121151D01*
X0255091Y0121188D01*
X0255040Y0121223D01*
X0254986Y0121254D01*
X0254931Y0121282D01*
X0254874Y0121306D01*
X0254816Y0121327D01*
X0254756Y0121344D01*
X0254696Y0121358D01*
X0254635Y0121367D01*
X0254573Y0121373D01*
X0254511Y0121375D01*
X0254453Y0121373D01*
X0254395Y0121368D01*
X0254338Y0121359D01*
X0254281Y0121346D01*
X0254225Y0121330D01*
X0254170Y0121310D01*
X0254117Y0121287D01*
X0254065Y0121261D01*
X0254015Y0121231D01*
X0253967Y0121198D01*
X0253921Y0121163D01*
X0253878Y0121124D01*
X0253837Y0121083D01*
X0253798Y0121040D01*
X0253763Y0120994D01*
X0253730Y0120946D01*
X0253700Y0120896D01*
X0253674Y0120844D01*
X0253651Y0120791D01*
X0253631Y0120736D01*
X0253615Y0120680D01*
X0253602Y0120623D01*
X0253593Y0120566D01*
X0253588Y0120508D01*
X0253586Y0120450D01*
X0255847Y0133754D02*
X0255847Y0136220D01*
X0256772Y0139547D02*
X0256676Y0139592D01*
X0256578Y0139633D01*
X0256478Y0139671D01*
X0256378Y0139706D01*
X0256276Y0139737D01*
X0256173Y0139765D01*
X0256070Y0139788D01*
X0255965Y0139809D01*
X0255860Y0139825D01*
X0255755Y0139838D01*
X0255649Y0139848D01*
X0255542Y0139853D01*
X0255436Y0139855D01*
X0255436Y0137799D02*
X0255330Y0137801D01*
X0255223Y0137806D01*
X0255117Y0137816D01*
X0255012Y0137829D01*
X0254907Y0137845D01*
X0254802Y0137866D01*
X0254699Y0137889D01*
X0254596Y0137917D01*
X0254494Y0137948D01*
X0254394Y0137983D01*
X0254294Y0138021D01*
X0254196Y0138062D01*
X0254100Y0138107D01*
X0253586Y0138827D02*
X0253588Y0138879D01*
X0253593Y0138932D01*
X0253602Y0138983D01*
X0253615Y0139034D01*
X0253631Y0139084D01*
X0253650Y0139133D01*
X0253673Y0139180D01*
X0253699Y0139226D01*
X0253728Y0139269D01*
X0253760Y0139311D01*
X0253794Y0139350D01*
X0253832Y0139387D01*
X0253872Y0139421D01*
X0253914Y0139453D01*
X0253958Y0139481D01*
X0254004Y0139506D01*
X0254051Y0139528D01*
X0254100Y0139547D01*
X0254409Y0139649D02*
X0256464Y0138005D01*
X0257287Y0138827D02*
X0257285Y0138879D01*
X0257280Y0138932D01*
X0257271Y0138983D01*
X0257258Y0139034D01*
X0257242Y0139084D01*
X0257223Y0139133D01*
X0257200Y0139180D01*
X0257174Y0139226D01*
X0257145Y0139269D01*
X0257113Y0139311D01*
X0257079Y0139350D01*
X0257041Y0139387D01*
X0257001Y0139421D01*
X0256959Y0139453D01*
X0256915Y0139481D01*
X0256869Y0139506D01*
X0256822Y0139528D01*
X0256773Y0139547D01*
X0257287Y0138827D02*
X0257285Y0138775D01*
X0257280Y0138722D01*
X0257271Y0138671D01*
X0257258Y0138620D01*
X0257242Y0138570D01*
X0257223Y0138521D01*
X0257200Y0138474D01*
X0257174Y0138428D01*
X0257145Y0138385D01*
X0257113Y0138343D01*
X0257079Y0138304D01*
X0257041Y0138267D01*
X0257001Y0138233D01*
X0256959Y0138201D01*
X0256915Y0138173D01*
X0256869Y0138148D01*
X0256822Y0138126D01*
X0256773Y0138107D01*
X0255436Y0139855D02*
X0255330Y0139853D01*
X0255223Y0139848D01*
X0255117Y0139838D01*
X0255012Y0139825D01*
X0254907Y0139809D01*
X0254802Y0139788D01*
X0254699Y0139765D01*
X0254596Y0139737D01*
X0254494Y0139706D01*
X0254394Y0139671D01*
X0254294Y0139633D01*
X0254196Y0139592D01*
X0254100Y0139547D01*
X0253586Y0138827D02*
X0253588Y0138775D01*
X0253593Y0138722D01*
X0253602Y0138671D01*
X0253615Y0138620D01*
X0253631Y0138570D01*
X0253650Y0138521D01*
X0253673Y0138474D01*
X0253699Y0138428D01*
X0253728Y0138385D01*
X0253760Y0138343D01*
X0253794Y0138304D01*
X0253832Y0138267D01*
X0253872Y0138233D01*
X0253914Y0138201D01*
X0253958Y0138173D01*
X0254004Y0138148D01*
X0254051Y0138126D01*
X0254100Y0138107D01*
X0255436Y0137799D02*
X0255542Y0137801D01*
X0255649Y0137806D01*
X0255755Y0137816D01*
X0255860Y0137829D01*
X0255965Y0137845D01*
X0256070Y0137866D01*
X0256173Y0137889D01*
X0256276Y0137917D01*
X0256378Y0137948D01*
X0256478Y0137983D01*
X0256578Y0138021D01*
X0256676Y0138062D01*
X0256772Y0138107D01*
X0256259Y0141399D02*
X0256322Y0141401D01*
X0256385Y0141407D01*
X0256448Y0141417D01*
X0256510Y0141430D01*
X0256571Y0141447D01*
X0256630Y0141468D01*
X0256689Y0141493D01*
X0256745Y0141521D01*
X0256800Y0141553D01*
X0256853Y0141588D01*
X0256903Y0141626D01*
X0256952Y0141667D01*
X0256997Y0141711D01*
X0257040Y0141758D01*
X0257079Y0141807D01*
X0257116Y0141859D01*
X0257149Y0141913D01*
X0257179Y0141969D01*
X0257206Y0142026D01*
X0257229Y0142085D01*
X0257248Y0142146D01*
X0257263Y0142207D01*
X0257275Y0142269D01*
X0257283Y0142332D01*
X0257287Y0142395D01*
X0257287Y0142459D01*
X0257283Y0142522D01*
X0257275Y0142585D01*
X0257263Y0142647D01*
X0257248Y0142708D01*
X0257229Y0142769D01*
X0257206Y0142828D01*
X0257179Y0142885D01*
X0257149Y0142941D01*
X0257116Y0142995D01*
X0257079Y0143047D01*
X0257040Y0143096D01*
X0256997Y0143143D01*
X0256952Y0143187D01*
X0256903Y0143228D01*
X0256853Y0143266D01*
X0256800Y0143301D01*
X0256745Y0143333D01*
X0256689Y0143361D01*
X0256630Y0143386D01*
X0256571Y0143407D01*
X0256510Y0143424D01*
X0256448Y0143437D01*
X0256385Y0143447D01*
X0256322Y0143453D01*
X0256259Y0143455D01*
X0256196Y0143453D01*
X0256133Y0143447D01*
X0256070Y0143437D01*
X0256008Y0143424D01*
X0255947Y0143407D01*
X0255888Y0143386D01*
X0255829Y0143361D01*
X0255773Y0143333D01*
X0255718Y0143301D01*
X0255665Y0143266D01*
X0255615Y0143228D01*
X0255566Y0143187D01*
X0255521Y0143143D01*
X0255478Y0143096D01*
X0255439Y0143047D01*
X0255402Y0142995D01*
X0255369Y0142941D01*
X0255339Y0142885D01*
X0255312Y0142828D01*
X0255289Y0142769D01*
X0255270Y0142708D01*
X0255255Y0142647D01*
X0255243Y0142585D01*
X0255235Y0142522D01*
X0255231Y0142459D01*
X0255231Y0142395D01*
X0255235Y0142332D01*
X0255243Y0142269D01*
X0255255Y0142207D01*
X0255270Y0142146D01*
X0255289Y0142085D01*
X0255312Y0142026D01*
X0255339Y0141969D01*
X0255369Y0141913D01*
X0255402Y0141859D01*
X0255439Y0141807D01*
X0255478Y0141758D01*
X0255521Y0141711D01*
X0255566Y0141667D01*
X0255615Y0141626D01*
X0255665Y0141588D01*
X0255718Y0141553D01*
X0255773Y0141521D01*
X0255829Y0141493D01*
X0255888Y0141468D01*
X0255947Y0141447D01*
X0256008Y0141430D01*
X0256070Y0141417D01*
X0256133Y0141407D01*
X0256196Y0141401D01*
X0256259Y0141399D01*
X0254409Y0141605D02*
X0254465Y0141607D01*
X0254521Y0141613D01*
X0254576Y0141622D01*
X0254631Y0141635D01*
X0254684Y0141652D01*
X0254736Y0141673D01*
X0254787Y0141697D01*
X0254836Y0141725D01*
X0254883Y0141755D01*
X0254928Y0141789D01*
X0254970Y0141826D01*
X0255010Y0141866D01*
X0255047Y0141908D01*
X0255081Y0141953D01*
X0255111Y0142000D01*
X0255139Y0142049D01*
X0255163Y0142100D01*
X0255184Y0142152D01*
X0255201Y0142205D01*
X0255214Y0142260D01*
X0255223Y0142315D01*
X0255229Y0142371D01*
X0255231Y0142427D01*
X0255229Y0142483D01*
X0255223Y0142539D01*
X0255214Y0142594D01*
X0255201Y0142649D01*
X0255184Y0142702D01*
X0255163Y0142754D01*
X0255139Y0142805D01*
X0255111Y0142854D01*
X0255081Y0142901D01*
X0255047Y0142946D01*
X0255010Y0142988D01*
X0254970Y0143028D01*
X0254928Y0143065D01*
X0254883Y0143099D01*
X0254836Y0143129D01*
X0254787Y0143157D01*
X0254736Y0143181D01*
X0254684Y0143202D01*
X0254631Y0143219D01*
X0254576Y0143232D01*
X0254521Y0143241D01*
X0254465Y0143247D01*
X0254409Y0143249D01*
X0254353Y0143247D01*
X0254297Y0143241D01*
X0254242Y0143232D01*
X0254187Y0143219D01*
X0254134Y0143202D01*
X0254082Y0143181D01*
X0254031Y0143157D01*
X0253982Y0143129D01*
X0253935Y0143099D01*
X0253890Y0143065D01*
X0253848Y0143028D01*
X0253808Y0142988D01*
X0253771Y0142946D01*
X0253737Y0142901D01*
X0253707Y0142854D01*
X0253679Y0142805D01*
X0253655Y0142754D01*
X0253634Y0142702D01*
X0253617Y0142649D01*
X0253604Y0142594D01*
X0253595Y0142539D01*
X0253589Y0142483D01*
X0253587Y0142427D01*
X0253589Y0142371D01*
X0253595Y0142315D01*
X0253604Y0142260D01*
X0253617Y0142205D01*
X0253634Y0142152D01*
X0253655Y0142100D01*
X0253679Y0142049D01*
X0253707Y0142000D01*
X0253737Y0141953D01*
X0253771Y0141908D01*
X0253808Y0141866D01*
X0253848Y0141826D01*
X0253890Y0141789D01*
X0253935Y0141755D01*
X0253982Y0141725D01*
X0254031Y0141697D01*
X0254082Y0141673D01*
X0254134Y0141652D01*
X0254187Y0141635D01*
X0254242Y0141622D01*
X0254297Y0141613D01*
X0254353Y0141607D01*
X0254409Y0141605D01*
X0255847Y0145034D02*
X0255847Y0147500D01*
X0257286Y0149079D02*
X0255231Y0150826D01*
X0253587Y0150210D02*
X0253589Y0150142D01*
X0253595Y0150074D01*
X0253604Y0150007D01*
X0253618Y0149941D01*
X0253635Y0149875D01*
X0253656Y0149810D01*
X0253681Y0149747D01*
X0253709Y0149685D01*
X0253741Y0149625D01*
X0253776Y0149567D01*
X0253814Y0149511D01*
X0253856Y0149457D01*
X0253900Y0149406D01*
X0253948Y0149358D01*
X0253998Y0149312D01*
X0254050Y0149269D01*
X0254105Y0149229D01*
X0254162Y0149192D01*
X0254221Y0149159D01*
X0254282Y0149129D01*
X0254345Y0149103D01*
X0254409Y0149080D01*
X0255231Y0150827D02*
X0255187Y0150870D01*
X0255140Y0150911D01*
X0255091Y0150948D01*
X0255040Y0150983D01*
X0254986Y0151014D01*
X0254931Y0151042D01*
X0254874Y0151066D01*
X0254816Y0151087D01*
X0254756Y0151104D01*
X0254696Y0151118D01*
X0254635Y0151127D01*
X0254573Y0151133D01*
X0254511Y0151135D01*
X0254453Y0151133D01*
X0254395Y0151128D01*
X0254338Y0151119D01*
X0254281Y0151106D01*
X0254225Y0151090D01*
X0254170Y0151070D01*
X0254117Y0151047D01*
X0254065Y0151021D01*
X0254015Y0150991D01*
X0253967Y0150958D01*
X0253921Y0150923D01*
X0253878Y0150884D01*
X0253837Y0150843D01*
X0253798Y0150800D01*
X0253763Y0150754D01*
X0253730Y0150706D01*
X0253700Y0150656D01*
X0253674Y0150604D01*
X0253651Y0150551D01*
X0253631Y0150496D01*
X0253615Y0150440D01*
X0253602Y0150383D01*
X0253593Y0150326D01*
X0253588Y0150268D01*
X0253586Y0150210D01*
X0253586Y0152679D02*
X0253586Y0153913D01*
X0253587Y0153913D02*
X0253589Y0153969D01*
X0253595Y0154025D01*
X0253604Y0154080D01*
X0253617Y0154135D01*
X0253634Y0154188D01*
X0253655Y0154240D01*
X0253679Y0154291D01*
X0253707Y0154340D01*
X0253737Y0154387D01*
X0253771Y0154432D01*
X0253808Y0154474D01*
X0253848Y0154514D01*
X0253890Y0154551D01*
X0253935Y0154585D01*
X0253982Y0154615D01*
X0254031Y0154643D01*
X0254082Y0154667D01*
X0254134Y0154688D01*
X0254187Y0154705D01*
X0254242Y0154718D01*
X0254297Y0154727D01*
X0254353Y0154733D01*
X0254409Y0154735D01*
X0254465Y0154733D01*
X0254521Y0154727D01*
X0254576Y0154718D01*
X0254631Y0154705D01*
X0254684Y0154688D01*
X0254736Y0154667D01*
X0254787Y0154643D01*
X0254836Y0154615D01*
X0254883Y0154585D01*
X0254928Y0154551D01*
X0254970Y0154514D01*
X0255010Y0154474D01*
X0255047Y0154432D01*
X0255081Y0154387D01*
X0255111Y0154340D01*
X0255139Y0154291D01*
X0255163Y0154240D01*
X0255184Y0154188D01*
X0255201Y0154135D01*
X0255214Y0154080D01*
X0255223Y0154025D01*
X0255229Y0153969D01*
X0255231Y0153913D01*
X0255231Y0153090D01*
X0255231Y0153707D02*
X0255233Y0153770D01*
X0255239Y0153833D01*
X0255249Y0153896D01*
X0255262Y0153958D01*
X0255279Y0154019D01*
X0255300Y0154078D01*
X0255325Y0154137D01*
X0255353Y0154193D01*
X0255385Y0154248D01*
X0255420Y0154301D01*
X0255458Y0154351D01*
X0255499Y0154400D01*
X0255543Y0154445D01*
X0255590Y0154488D01*
X0255639Y0154527D01*
X0255691Y0154564D01*
X0255745Y0154597D01*
X0255801Y0154627D01*
X0255858Y0154654D01*
X0255917Y0154677D01*
X0255978Y0154696D01*
X0256039Y0154711D01*
X0256101Y0154723D01*
X0256164Y0154731D01*
X0256227Y0154735D01*
X0256291Y0154735D01*
X0256354Y0154731D01*
X0256417Y0154723D01*
X0256479Y0154711D01*
X0256540Y0154696D01*
X0256601Y0154677D01*
X0256660Y0154654D01*
X0256717Y0154627D01*
X0256773Y0154597D01*
X0256827Y0154564D01*
X0256879Y0154527D01*
X0256928Y0154488D01*
X0256975Y0154445D01*
X0257019Y0154400D01*
X0257060Y0154351D01*
X0257098Y0154301D01*
X0257133Y0154248D01*
X0257165Y0154193D01*
X0257193Y0154137D01*
X0257218Y0154078D01*
X0257239Y0154019D01*
X0257256Y0153958D01*
X0257269Y0153896D01*
X0257279Y0153833D01*
X0257285Y0153770D01*
X0257287Y0153707D01*
X0257286Y0153707D02*
X0257286Y0152679D01*
X0257286Y0151135D02*
X0257286Y0149079D01*
X0199475Y0101303D02*
X0199475Y0099247D01*
X0199475Y0100275D02*
X0195775Y0100275D01*
X0196598Y0099247D01*
X0196803Y0097583D02*
X0198448Y0097583D01*
X0198510Y0097581D01*
X0198572Y0097576D01*
X0198633Y0097566D01*
X0198694Y0097553D01*
X0198754Y0097536D01*
X0198813Y0097516D01*
X0198870Y0097492D01*
X0198926Y0097465D01*
X0198980Y0097435D01*
X0199032Y0097401D01*
X0199082Y0097364D01*
X0199130Y0097324D01*
X0199175Y0097282D01*
X0199217Y0097237D01*
X0199257Y0097189D01*
X0199294Y0097139D01*
X0199328Y0097087D01*
X0199358Y0097033D01*
X0199385Y0096977D01*
X0199409Y0096920D01*
X0199429Y0096861D01*
X0199446Y0096801D01*
X0199459Y0096740D01*
X0199469Y0096679D01*
X0199474Y0096617D01*
X0199476Y0096555D01*
X0199475Y0096555D02*
X0199475Y0095527D01*
X0195775Y0095527D01*
X0195775Y0096555D01*
X0195777Y0096617D01*
X0195782Y0096679D01*
X0195792Y0096740D01*
X0195805Y0096801D01*
X0195822Y0096861D01*
X0195842Y0096920D01*
X0195866Y0096977D01*
X0195893Y0097033D01*
X0195923Y0097087D01*
X0195957Y0097139D01*
X0195994Y0097189D01*
X0196034Y0097237D01*
X0196076Y0097282D01*
X0196121Y0097324D01*
X0196169Y0097364D01*
X0196219Y0097401D01*
X0196271Y0097435D01*
X0196325Y0097465D01*
X0196381Y0097492D01*
X0196438Y0097516D01*
X0196497Y0097536D01*
X0196557Y0097553D01*
X0196618Y0097566D01*
X0196679Y0097576D01*
X0196741Y0097581D01*
X0196803Y0097583D01*
X0197348Y0065834D02*
X0198581Y0065834D01*
X0197348Y0065834D02*
X0197292Y0065832D01*
X0197236Y0065826D01*
X0197181Y0065817D01*
X0197126Y0065804D01*
X0197073Y0065787D01*
X0197021Y0065766D01*
X0196970Y0065742D01*
X0196921Y0065714D01*
X0196874Y0065684D01*
X0196829Y0065650D01*
X0196787Y0065613D01*
X0196747Y0065573D01*
X0196710Y0065531D01*
X0196676Y0065486D01*
X0196646Y0065439D01*
X0196618Y0065390D01*
X0196594Y0065339D01*
X0196573Y0065287D01*
X0196556Y0065234D01*
X0196543Y0065179D01*
X0196534Y0065124D01*
X0196528Y0065068D01*
X0196526Y0065012D01*
X0196525Y0065012D02*
X0196525Y0062956D01*
X0196526Y0062956D02*
X0196528Y0062900D01*
X0196534Y0062844D01*
X0196543Y0062789D01*
X0196556Y0062734D01*
X0196573Y0062681D01*
X0196594Y0062629D01*
X0196618Y0062578D01*
X0196646Y0062529D01*
X0196676Y0062482D01*
X0196710Y0062437D01*
X0196747Y0062395D01*
X0196787Y0062355D01*
X0196829Y0062318D01*
X0196874Y0062284D01*
X0196921Y0062254D01*
X0196970Y0062226D01*
X0197021Y0062202D01*
X0197073Y0062181D01*
X0197126Y0062164D01*
X0197181Y0062151D01*
X0197236Y0062142D01*
X0197292Y0062136D01*
X0197348Y0062134D01*
X0198581Y0062134D01*
X0198581Y0064190D01*
X0197964Y0064190D01*
X0194861Y0064806D02*
X0194861Y0063162D01*
X0194859Y0063099D01*
X0194853Y0063036D01*
X0194843Y0062973D01*
X0194830Y0062911D01*
X0194813Y0062850D01*
X0194792Y0062791D01*
X0194767Y0062732D01*
X0194739Y0062676D01*
X0194707Y0062621D01*
X0194672Y0062568D01*
X0194634Y0062518D01*
X0194593Y0062469D01*
X0194549Y0062424D01*
X0194502Y0062381D01*
X0194453Y0062342D01*
X0194401Y0062305D01*
X0194347Y0062272D01*
X0194291Y0062242D01*
X0194234Y0062215D01*
X0194175Y0062192D01*
X0194114Y0062173D01*
X0194053Y0062158D01*
X0193991Y0062146D01*
X0193928Y0062138D01*
X0193865Y0062134D01*
X0193801Y0062134D01*
X0193738Y0062138D01*
X0193675Y0062146D01*
X0193613Y0062158D01*
X0193552Y0062173D01*
X0193491Y0062192D01*
X0193432Y0062215D01*
X0193375Y0062242D01*
X0193319Y0062272D01*
X0193265Y0062305D01*
X0193213Y0062342D01*
X0193164Y0062381D01*
X0193117Y0062424D01*
X0193073Y0062469D01*
X0193032Y0062518D01*
X0192994Y0062568D01*
X0192959Y0062621D01*
X0192927Y0062676D01*
X0192899Y0062732D01*
X0192874Y0062791D01*
X0192853Y0062850D01*
X0192836Y0062911D01*
X0192823Y0062973D01*
X0192813Y0063036D01*
X0192807Y0063099D01*
X0192805Y0063162D01*
X0192805Y0064806D01*
X0192807Y0064869D01*
X0192813Y0064932D01*
X0192823Y0064995D01*
X0192836Y0065057D01*
X0192853Y0065118D01*
X0192874Y0065177D01*
X0192899Y0065236D01*
X0192927Y0065292D01*
X0192959Y0065347D01*
X0192994Y0065400D01*
X0193032Y0065450D01*
X0193073Y0065499D01*
X0193117Y0065544D01*
X0193164Y0065587D01*
X0193213Y0065626D01*
X0193265Y0065663D01*
X0193319Y0065696D01*
X0193375Y0065726D01*
X0193432Y0065753D01*
X0193491Y0065776D01*
X0193552Y0065795D01*
X0193613Y0065810D01*
X0193675Y0065822D01*
X0193738Y0065830D01*
X0193801Y0065834D01*
X0193865Y0065834D01*
X0193928Y0065830D01*
X0193991Y0065822D01*
X0194053Y0065810D01*
X0194114Y0065795D01*
X0194175Y0065776D01*
X0194234Y0065753D01*
X0194291Y0065726D01*
X0194347Y0065696D01*
X0194401Y0065663D01*
X0194453Y0065626D01*
X0194502Y0065587D01*
X0194549Y0065544D01*
X0194593Y0065499D01*
X0194634Y0065450D01*
X0194672Y0065400D01*
X0194707Y0065347D01*
X0194739Y0065292D01*
X0194767Y0065236D01*
X0194792Y0065177D01*
X0194813Y0065118D01*
X0194830Y0065057D01*
X0194843Y0064995D01*
X0194853Y0064932D01*
X0194859Y0064869D01*
X0194861Y0064806D01*
X0191283Y0062134D02*
X0190461Y0063779D01*
X0190256Y0063779D02*
X0189228Y0063779D01*
X0190256Y0063778D02*
X0190319Y0063780D01*
X0190382Y0063786D01*
X0190445Y0063796D01*
X0190507Y0063809D01*
X0190568Y0063826D01*
X0190627Y0063847D01*
X0190686Y0063872D01*
X0190742Y0063900D01*
X0190797Y0063932D01*
X0190850Y0063967D01*
X0190900Y0064005D01*
X0190949Y0064046D01*
X0190994Y0064090D01*
X0191037Y0064137D01*
X0191076Y0064186D01*
X0191113Y0064238D01*
X0191146Y0064292D01*
X0191176Y0064348D01*
X0191203Y0064405D01*
X0191226Y0064464D01*
X0191245Y0064525D01*
X0191260Y0064586D01*
X0191272Y0064648D01*
X0191280Y0064711D01*
X0191284Y0064774D01*
X0191284Y0064838D01*
X0191280Y0064901D01*
X0191272Y0064964D01*
X0191260Y0065026D01*
X0191245Y0065087D01*
X0191226Y0065148D01*
X0191203Y0065207D01*
X0191176Y0065264D01*
X0191146Y0065320D01*
X0191113Y0065374D01*
X0191076Y0065426D01*
X0191037Y0065475D01*
X0190994Y0065522D01*
X0190949Y0065566D01*
X0190900Y0065607D01*
X0190850Y0065645D01*
X0190797Y0065680D01*
X0190742Y0065712D01*
X0190686Y0065740D01*
X0190627Y0065765D01*
X0190568Y0065786D01*
X0190507Y0065803D01*
X0190445Y0065816D01*
X0190382Y0065826D01*
X0190319Y0065832D01*
X0190256Y0065834D01*
X0189228Y0065834D01*
X0189228Y0062134D01*
X0186685Y0063779D02*
X0185657Y0063779D01*
X0186685Y0063778D02*
X0186748Y0063780D01*
X0186811Y0063786D01*
X0186874Y0063796D01*
X0186936Y0063809D01*
X0186997Y0063826D01*
X0187056Y0063847D01*
X0187115Y0063872D01*
X0187171Y0063900D01*
X0187226Y0063932D01*
X0187279Y0063967D01*
X0187329Y0064005D01*
X0187378Y0064046D01*
X0187423Y0064090D01*
X0187466Y0064137D01*
X0187505Y0064186D01*
X0187542Y0064238D01*
X0187575Y0064292D01*
X0187605Y0064348D01*
X0187632Y0064405D01*
X0187655Y0064464D01*
X0187674Y0064525D01*
X0187689Y0064586D01*
X0187701Y0064648D01*
X0187709Y0064711D01*
X0187713Y0064774D01*
X0187713Y0064838D01*
X0187709Y0064901D01*
X0187701Y0064964D01*
X0187689Y0065026D01*
X0187674Y0065087D01*
X0187655Y0065148D01*
X0187632Y0065207D01*
X0187605Y0065264D01*
X0187575Y0065320D01*
X0187542Y0065374D01*
X0187505Y0065426D01*
X0187466Y0065475D01*
X0187423Y0065522D01*
X0187378Y0065566D01*
X0187329Y0065607D01*
X0187279Y0065645D01*
X0187226Y0065680D01*
X0187171Y0065712D01*
X0187115Y0065740D01*
X0187056Y0065765D01*
X0186997Y0065786D01*
X0186936Y0065803D01*
X0186874Y0065816D01*
X0186811Y0065826D01*
X0186748Y0065832D01*
X0186685Y0065834D01*
X0185657Y0065834D01*
X0185657Y0062134D01*
X0172510Y0065775D02*
X0170455Y0065775D01*
X0171483Y0065775D02*
X0171483Y0062075D01*
X0169150Y0063103D02*
X0169150Y0064747D01*
X0169151Y0064747D02*
X0169149Y0064810D01*
X0169143Y0064873D01*
X0169133Y0064936D01*
X0169120Y0064998D01*
X0169103Y0065059D01*
X0169082Y0065118D01*
X0169057Y0065177D01*
X0169029Y0065233D01*
X0168997Y0065288D01*
X0168962Y0065341D01*
X0168924Y0065391D01*
X0168883Y0065440D01*
X0168839Y0065485D01*
X0168792Y0065528D01*
X0168743Y0065567D01*
X0168691Y0065604D01*
X0168637Y0065637D01*
X0168581Y0065667D01*
X0168524Y0065694D01*
X0168465Y0065717D01*
X0168404Y0065736D01*
X0168343Y0065751D01*
X0168281Y0065763D01*
X0168218Y0065771D01*
X0168155Y0065775D01*
X0168091Y0065775D01*
X0168028Y0065771D01*
X0167965Y0065763D01*
X0167903Y0065751D01*
X0167842Y0065736D01*
X0167781Y0065717D01*
X0167722Y0065694D01*
X0167665Y0065667D01*
X0167609Y0065637D01*
X0167555Y0065604D01*
X0167503Y0065567D01*
X0167454Y0065528D01*
X0167407Y0065485D01*
X0167363Y0065440D01*
X0167322Y0065391D01*
X0167284Y0065341D01*
X0167249Y0065288D01*
X0167217Y0065233D01*
X0167189Y0065177D01*
X0167164Y0065118D01*
X0167143Y0065059D01*
X0167126Y0064998D01*
X0167113Y0064936D01*
X0167103Y0064873D01*
X0167097Y0064810D01*
X0167095Y0064747D01*
X0167095Y0063103D01*
X0167097Y0063040D01*
X0167103Y0062977D01*
X0167113Y0062914D01*
X0167126Y0062852D01*
X0167143Y0062791D01*
X0167164Y0062732D01*
X0167189Y0062673D01*
X0167217Y0062617D01*
X0167249Y0062562D01*
X0167284Y0062509D01*
X0167322Y0062459D01*
X0167363Y0062410D01*
X0167407Y0062365D01*
X0167454Y0062322D01*
X0167503Y0062283D01*
X0167555Y0062246D01*
X0167609Y0062213D01*
X0167665Y0062183D01*
X0167722Y0062156D01*
X0167781Y0062133D01*
X0167842Y0062114D01*
X0167903Y0062099D01*
X0167965Y0062087D01*
X0168028Y0062079D01*
X0168091Y0062075D01*
X0168155Y0062075D01*
X0168218Y0062079D01*
X0168281Y0062087D01*
X0168343Y0062099D01*
X0168404Y0062114D01*
X0168465Y0062133D01*
X0168524Y0062156D01*
X0168581Y0062183D01*
X0168637Y0062213D01*
X0168691Y0062246D01*
X0168743Y0062283D01*
X0168792Y0062322D01*
X0168839Y0062365D01*
X0168883Y0062410D01*
X0168924Y0062459D01*
X0168962Y0062509D01*
X0168997Y0062562D01*
X0169029Y0062617D01*
X0169057Y0062673D01*
X0169082Y0062732D01*
X0169103Y0062791D01*
X0169120Y0062852D01*
X0169133Y0062914D01*
X0169143Y0062977D01*
X0169149Y0063040D01*
X0169151Y0063103D01*
X0165550Y0063103D02*
X0165550Y0064747D01*
X0165551Y0064747D02*
X0165549Y0064810D01*
X0165543Y0064873D01*
X0165533Y0064936D01*
X0165520Y0064998D01*
X0165503Y0065059D01*
X0165482Y0065118D01*
X0165457Y0065177D01*
X0165429Y0065233D01*
X0165397Y0065288D01*
X0165362Y0065341D01*
X0165324Y0065391D01*
X0165283Y0065440D01*
X0165239Y0065485D01*
X0165192Y0065528D01*
X0165143Y0065567D01*
X0165091Y0065604D01*
X0165037Y0065637D01*
X0164981Y0065667D01*
X0164924Y0065694D01*
X0164865Y0065717D01*
X0164804Y0065736D01*
X0164743Y0065751D01*
X0164681Y0065763D01*
X0164618Y0065771D01*
X0164555Y0065775D01*
X0164491Y0065775D01*
X0164428Y0065771D01*
X0164365Y0065763D01*
X0164303Y0065751D01*
X0164242Y0065736D01*
X0164181Y0065717D01*
X0164122Y0065694D01*
X0164065Y0065667D01*
X0164009Y0065637D01*
X0163955Y0065604D01*
X0163903Y0065567D01*
X0163854Y0065528D01*
X0163807Y0065485D01*
X0163763Y0065440D01*
X0163722Y0065391D01*
X0163684Y0065341D01*
X0163649Y0065288D01*
X0163617Y0065233D01*
X0163589Y0065177D01*
X0163564Y0065118D01*
X0163543Y0065059D01*
X0163526Y0064998D01*
X0163513Y0064936D01*
X0163503Y0064873D01*
X0163497Y0064810D01*
X0163495Y0064747D01*
X0163495Y0063103D01*
X0163497Y0063040D01*
X0163503Y0062977D01*
X0163513Y0062914D01*
X0163526Y0062852D01*
X0163543Y0062791D01*
X0163564Y0062732D01*
X0163589Y0062673D01*
X0163617Y0062617D01*
X0163649Y0062562D01*
X0163684Y0062509D01*
X0163722Y0062459D01*
X0163763Y0062410D01*
X0163807Y0062365D01*
X0163854Y0062322D01*
X0163903Y0062283D01*
X0163955Y0062246D01*
X0164009Y0062213D01*
X0164065Y0062183D01*
X0164122Y0062156D01*
X0164181Y0062133D01*
X0164242Y0062114D01*
X0164303Y0062099D01*
X0164365Y0062087D01*
X0164428Y0062079D01*
X0164491Y0062075D01*
X0164555Y0062075D01*
X0164618Y0062079D01*
X0164681Y0062087D01*
X0164743Y0062099D01*
X0164804Y0062114D01*
X0164865Y0062133D01*
X0164924Y0062156D01*
X0164981Y0062183D01*
X0165037Y0062213D01*
X0165091Y0062246D01*
X0165143Y0062283D01*
X0165192Y0062322D01*
X0165239Y0062365D01*
X0165283Y0062410D01*
X0165324Y0062459D01*
X0165362Y0062509D01*
X0165397Y0062562D01*
X0165429Y0062617D01*
X0165457Y0062673D01*
X0165482Y0062732D01*
X0165503Y0062791D01*
X0165520Y0062852D01*
X0165533Y0062914D01*
X0165543Y0062977D01*
X0165549Y0063040D01*
X0165551Y0063103D01*
X0161094Y0062075D02*
X0161157Y0062077D01*
X0161220Y0062083D01*
X0161283Y0062093D01*
X0161345Y0062106D01*
X0161406Y0062123D01*
X0161465Y0062144D01*
X0161524Y0062169D01*
X0161580Y0062197D01*
X0161635Y0062229D01*
X0161688Y0062264D01*
X0161738Y0062302D01*
X0161787Y0062343D01*
X0161832Y0062387D01*
X0161875Y0062434D01*
X0161914Y0062483D01*
X0161951Y0062535D01*
X0161984Y0062589D01*
X0162014Y0062645D01*
X0162041Y0062702D01*
X0162064Y0062761D01*
X0162083Y0062822D01*
X0162098Y0062883D01*
X0162110Y0062945D01*
X0162118Y0063008D01*
X0162122Y0063071D01*
X0162122Y0063135D01*
X0162118Y0063198D01*
X0162110Y0063261D01*
X0162098Y0063323D01*
X0162083Y0063384D01*
X0162064Y0063445D01*
X0162041Y0063504D01*
X0162014Y0063561D01*
X0161984Y0063617D01*
X0161951Y0063671D01*
X0161914Y0063723D01*
X0161875Y0063772D01*
X0161832Y0063819D01*
X0161787Y0063863D01*
X0161738Y0063904D01*
X0161688Y0063942D01*
X0161635Y0063977D01*
X0161580Y0064009D01*
X0161524Y0064037D01*
X0161465Y0064062D01*
X0161406Y0064083D01*
X0161345Y0064100D01*
X0161283Y0064113D01*
X0161220Y0064123D01*
X0161157Y0064129D01*
X0161094Y0064131D01*
X0160067Y0064131D01*
X0161094Y0064131D02*
X0161150Y0064133D01*
X0161206Y0064139D01*
X0161261Y0064148D01*
X0161316Y0064161D01*
X0161369Y0064178D01*
X0161421Y0064199D01*
X0161472Y0064223D01*
X0161521Y0064251D01*
X0161568Y0064281D01*
X0161613Y0064315D01*
X0161655Y0064352D01*
X0161695Y0064392D01*
X0161732Y0064434D01*
X0161766Y0064479D01*
X0161796Y0064526D01*
X0161824Y0064575D01*
X0161848Y0064626D01*
X0161869Y0064678D01*
X0161886Y0064731D01*
X0161899Y0064786D01*
X0161908Y0064841D01*
X0161914Y0064897D01*
X0161916Y0064953D01*
X0161914Y0065009D01*
X0161908Y0065065D01*
X0161899Y0065120D01*
X0161886Y0065175D01*
X0161869Y0065228D01*
X0161848Y0065280D01*
X0161824Y0065331D01*
X0161796Y0065380D01*
X0161766Y0065427D01*
X0161732Y0065472D01*
X0161695Y0065514D01*
X0161655Y0065554D01*
X0161613Y0065591D01*
X0161568Y0065625D01*
X0161521Y0065655D01*
X0161472Y0065683D01*
X0161421Y0065707D01*
X0161369Y0065728D01*
X0161316Y0065745D01*
X0161261Y0065758D01*
X0161206Y0065767D01*
X0161150Y0065773D01*
X0161094Y0065775D01*
X0160067Y0065775D01*
X0160067Y0062075D01*
X0161094Y0062075D01*
X0149469Y0065775D02*
X0147414Y0065775D01*
X0148441Y0065775D02*
X0148441Y0062075D01*
X0146305Y0062075D02*
X0144660Y0062075D01*
X0144660Y0065775D01*
X0146305Y0065775D01*
X0145894Y0064131D02*
X0144660Y0064131D01*
X0142698Y0063617D02*
X0141567Y0064234D01*
X0141979Y0065775D02*
X0142055Y0065773D01*
X0142131Y0065767D01*
X0142207Y0065758D01*
X0142282Y0065745D01*
X0142357Y0065728D01*
X0142430Y0065707D01*
X0142503Y0065683D01*
X0142574Y0065656D01*
X0142643Y0065624D01*
X0142712Y0065590D01*
X0142778Y0065552D01*
X0142842Y0065511D01*
X0142904Y0065467D01*
X0141567Y0064234D02*
X0141521Y0064263D01*
X0141478Y0064295D01*
X0141436Y0064329D01*
X0141397Y0064367D01*
X0141360Y0064406D01*
X0141326Y0064448D01*
X0141294Y0064493D01*
X0141266Y0064539D01*
X0141241Y0064587D01*
X0141218Y0064636D01*
X0141200Y0064687D01*
X0141184Y0064739D01*
X0141172Y0064791D01*
X0141163Y0064845D01*
X0141158Y0064899D01*
X0141156Y0064953D01*
X0141157Y0064953D02*
X0141159Y0065009D01*
X0141165Y0065065D01*
X0141174Y0065120D01*
X0141187Y0065175D01*
X0141204Y0065228D01*
X0141225Y0065280D01*
X0141249Y0065331D01*
X0141277Y0065380D01*
X0141307Y0065427D01*
X0141341Y0065472D01*
X0141378Y0065514D01*
X0141418Y0065554D01*
X0141460Y0065591D01*
X0141505Y0065625D01*
X0141552Y0065655D01*
X0141601Y0065683D01*
X0141652Y0065707D01*
X0141704Y0065728D01*
X0141757Y0065745D01*
X0141812Y0065758D01*
X0141867Y0065767D01*
X0141923Y0065773D01*
X0141979Y0065775D01*
X0141054Y0062589D02*
X0141112Y0062533D01*
X0141172Y0062480D01*
X0141235Y0062429D01*
X0141301Y0062382D01*
X0141368Y0062338D01*
X0141438Y0062297D01*
X0141509Y0062259D01*
X0141582Y0062225D01*
X0141656Y0062194D01*
X0141732Y0062166D01*
X0141809Y0062142D01*
X0141887Y0062122D01*
X0141966Y0062105D01*
X0142046Y0062092D01*
X0142126Y0062082D01*
X0142206Y0062077D01*
X0142287Y0062075D01*
X0142343Y0062077D01*
X0142399Y0062083D01*
X0142454Y0062092D01*
X0142509Y0062105D01*
X0142562Y0062122D01*
X0142614Y0062143D01*
X0142665Y0062167D01*
X0142714Y0062195D01*
X0142761Y0062225D01*
X0142806Y0062259D01*
X0142848Y0062296D01*
X0142888Y0062336D01*
X0142925Y0062378D01*
X0142959Y0062423D01*
X0142989Y0062470D01*
X0143017Y0062519D01*
X0143041Y0062570D01*
X0143062Y0062622D01*
X0143079Y0062675D01*
X0143092Y0062730D01*
X0143101Y0062785D01*
X0143107Y0062841D01*
X0143109Y0062897D01*
X0143107Y0062951D01*
X0143102Y0063005D01*
X0143093Y0063059D01*
X0143081Y0063111D01*
X0143065Y0063163D01*
X0143047Y0063214D01*
X0143024Y0063263D01*
X0142999Y0063311D01*
X0142971Y0063357D01*
X0142939Y0063402D01*
X0142905Y0063444D01*
X0142868Y0063483D01*
X0142829Y0063521D01*
X0142787Y0063555D01*
X0142744Y0063587D01*
X0142698Y0063616D01*
X0139825Y0062075D02*
X0138180Y0062075D01*
X0138180Y0065775D01*
X0139825Y0065775D01*
X0139414Y0064131D02*
X0138180Y0064131D01*
X0135709Y0063720D02*
X0136532Y0062075D01*
X0135504Y0063720D02*
X0134476Y0063720D01*
X0135504Y0063719D02*
X0135567Y0063721D01*
X0135630Y0063727D01*
X0135693Y0063737D01*
X0135755Y0063750D01*
X0135816Y0063767D01*
X0135875Y0063788D01*
X0135934Y0063813D01*
X0135990Y0063841D01*
X0136045Y0063873D01*
X0136098Y0063908D01*
X0136148Y0063946D01*
X0136197Y0063987D01*
X0136242Y0064031D01*
X0136285Y0064078D01*
X0136324Y0064127D01*
X0136361Y0064179D01*
X0136394Y0064233D01*
X0136424Y0064289D01*
X0136451Y0064346D01*
X0136474Y0064405D01*
X0136493Y0064466D01*
X0136508Y0064527D01*
X0136520Y0064589D01*
X0136528Y0064652D01*
X0136532Y0064715D01*
X0136532Y0064779D01*
X0136528Y0064842D01*
X0136520Y0064905D01*
X0136508Y0064967D01*
X0136493Y0065028D01*
X0136474Y0065089D01*
X0136451Y0065148D01*
X0136424Y0065205D01*
X0136394Y0065261D01*
X0136361Y0065315D01*
X0136324Y0065367D01*
X0136285Y0065416D01*
X0136242Y0065463D01*
X0136197Y0065507D01*
X0136148Y0065548D01*
X0136098Y0065586D01*
X0136045Y0065621D01*
X0135990Y0065653D01*
X0135934Y0065681D01*
X0135875Y0065706D01*
X0135816Y0065727D01*
X0135755Y0065744D01*
X0135693Y0065757D01*
X0135630Y0065767D01*
X0135567Y0065773D01*
X0135504Y0065775D01*
X0134476Y0065775D01*
X0134476Y0062075D01*
D13*
X0134326Y0066925D02*
X0134326Y0076925D01*
X0154326Y0076925D01*
X0154326Y0066925D01*
X0134326Y0066925D01*
X0121610Y0066020D02*
X0111767Y0066020D01*
X0121610Y0066020D02*
X0121610Y0121138D01*
X0111767Y0121138D01*
X0096019Y0121138D02*
X0066491Y0121138D01*
X0066491Y0136886D02*
X0096019Y0136886D01*
X0111767Y0136886D02*
X0121610Y0136886D01*
X0121610Y0192004D01*
X0111767Y0192004D01*
X0096019Y0192004D02*
X0066491Y0192004D01*
X0134208Y0167201D02*
X0140507Y0167201D01*
X0140507Y0161689D02*
X0134208Y0161689D01*
X0135783Y0155390D02*
X0138932Y0155390D01*
X0146413Y0157752D02*
X0146413Y0151453D01*
X0151924Y0151453D02*
X0151924Y0157752D01*
X0159798Y0161295D02*
X0159798Y0167594D01*
X0166098Y0167594D02*
X0166098Y0161295D01*
X0170822Y0178224D02*
X0225940Y0178224D01*
X0225940Y0199878D01*
X0170822Y0199878D01*
X0170822Y0178224D01*
X0170822Y0130980D01*
X0225940Y0130980D01*
X0225940Y0178224D01*
X0220035Y0182161D02*
X0220035Y0193972D01*
X0212161Y0193972D01*
X0212161Y0186098D01*
X0202318Y0186098D01*
X0202318Y0193972D01*
X0192476Y0193972D01*
X0192476Y0186098D01*
X0184602Y0186098D01*
X0184602Y0193972D01*
X0180665Y0193972D01*
X0180665Y0178224D01*
X0176728Y0178224D02*
X0176728Y0193972D01*
X0180665Y0193972D01*
X0175940Y0124287D02*
X0169641Y0124287D01*
X0169641Y0117988D02*
X0175940Y0117988D01*
X0173972Y0100665D02*
X0167673Y0100665D01*
X0167673Y0094366D02*
X0173972Y0094366D01*
X0177515Y0092398D02*
X0177515Y0098697D01*
X0183814Y0098697D02*
X0183814Y0092398D01*
X0186570Y0089642D02*
X0188539Y0089642D01*
X0186570Y0089642D02*
X0186570Y0099484D01*
X0194444Y0099484D01*
X0194444Y0089642D01*
X0192476Y0089642D01*
X0194444Y0099484D02*
X0194444Y0101453D01*
X0192476Y0101453D01*
X0188539Y0101453D02*
X0186570Y0101453D01*
X0186570Y0099484D01*
X0179877Y0086492D02*
X0173578Y0086492D01*
X0168066Y0086492D02*
X0161767Y0086492D01*
X0161767Y0080980D02*
X0168066Y0080980D01*
X0173578Y0080980D02*
X0179877Y0080980D01*
X0179917Y0076925D02*
X0159917Y0076925D01*
X0159917Y0066925D01*
X0179917Y0066925D01*
X0179917Y0076925D01*
X0186098Y0076925D02*
X0196098Y0076925D01*
X0196098Y0066925D01*
X0246098Y0066925D01*
X0246098Y0076925D01*
X0196098Y0076925D01*
X0186098Y0076925D02*
X0186098Y0066925D01*
X0196098Y0066925D01*
X0151924Y0096335D02*
X0151924Y0102634D01*
X0146413Y0102634D02*
X0146413Y0096335D01*
X0138932Y0100272D02*
X0135783Y0100272D01*
X0134208Y0106571D02*
X0140507Y0106571D01*
X0140507Y0112083D02*
X0134208Y0112083D01*
X0096019Y0066020D02*
X0066491Y0066020D01*
D14*
X0131452Y0094760D02*
X0131452Y0099878D01*
X0131452Y0094760D02*
X0134995Y0094760D01*
X0139720Y0094760D02*
X0143263Y0094760D01*
X0143263Y0099878D01*
X0143263Y0149878D02*
X0139720Y0149878D01*
X0143263Y0149878D02*
X0143263Y0154996D01*
X0134995Y0149878D02*
X0131452Y0149878D01*
X0131452Y0154996D01*
D15*
X0166798Y0112516D02*
X0166798Y0106138D01*
X0171129Y0112516D02*
X0174452Y0112516D01*
X0178783Y0112516D02*
X0178783Y0106138D01*
D16*
X0152233Y0170698D02*
X0151455Y0170698D01*
X0151414Y0170700D01*
X0151374Y0170705D01*
X0151334Y0170714D01*
X0151295Y0170726D01*
X0151258Y0170742D01*
X0151222Y0170761D01*
X0151187Y0170782D01*
X0151155Y0170807D01*
X0151125Y0170835D01*
X0151097Y0170865D01*
X0151072Y0170897D01*
X0151051Y0170932D01*
X0151032Y0170968D01*
X0151016Y0171005D01*
X0151004Y0171044D01*
X0150995Y0171084D01*
X0150990Y0171124D01*
X0150988Y0171165D01*
X0150989Y0171165D02*
X0150989Y0171943D01*
X0150989Y0171632D02*
X0152233Y0171632D01*
X0152233Y0171943D01*
X0152231Y0171992D01*
X0152225Y0172040D01*
X0152216Y0172088D01*
X0152203Y0172135D01*
X0152186Y0172181D01*
X0152165Y0172225D01*
X0152141Y0172268D01*
X0152114Y0172309D01*
X0152084Y0172347D01*
X0152051Y0172383D01*
X0152015Y0172416D01*
X0151977Y0172446D01*
X0151936Y0172473D01*
X0151893Y0172497D01*
X0151849Y0172518D01*
X0151803Y0172535D01*
X0151756Y0172548D01*
X0151708Y0172557D01*
X0151660Y0172563D01*
X0151611Y0172565D01*
X0151562Y0172563D01*
X0151514Y0172557D01*
X0151466Y0172548D01*
X0151419Y0172535D01*
X0151373Y0172518D01*
X0151329Y0172497D01*
X0151286Y0172473D01*
X0151245Y0172446D01*
X0151207Y0172416D01*
X0151171Y0172383D01*
X0151138Y0172347D01*
X0151108Y0172309D01*
X0151081Y0172268D01*
X0151057Y0172225D01*
X0151036Y0172181D01*
X0151019Y0172135D01*
X0151006Y0172088D01*
X0150997Y0172040D01*
X0150991Y0171992D01*
X0150989Y0171943D01*
X0150136Y0172254D02*
X0150136Y0172565D01*
X0149203Y0172565D01*
X0149203Y0170698D01*
X0147900Y0170698D02*
X0147900Y0172098D01*
X0147900Y0171787D02*
X0147200Y0171787D01*
X0147901Y0172098D02*
X0147899Y0172139D01*
X0147894Y0172179D01*
X0147885Y0172219D01*
X0147873Y0172258D01*
X0147857Y0172295D01*
X0147838Y0172332D01*
X0147817Y0172366D01*
X0147792Y0172398D01*
X0147764Y0172428D01*
X0147734Y0172456D01*
X0147702Y0172481D01*
X0147668Y0172502D01*
X0147631Y0172521D01*
X0147594Y0172537D01*
X0147555Y0172549D01*
X0147515Y0172558D01*
X0147475Y0172563D01*
X0147434Y0172565D01*
X0146811Y0172565D01*
X0145614Y0172565D02*
X0145148Y0170698D01*
X0144681Y0171943D01*
X0144214Y0170698D01*
X0143748Y0172565D01*
X0142590Y0172565D02*
X0141813Y0172565D01*
X0141772Y0172563D01*
X0141732Y0172558D01*
X0141692Y0172549D01*
X0141653Y0172537D01*
X0141616Y0172521D01*
X0141580Y0172502D01*
X0141545Y0172481D01*
X0141513Y0172456D01*
X0141483Y0172428D01*
X0141455Y0172398D01*
X0141430Y0172366D01*
X0141409Y0172332D01*
X0141390Y0172295D01*
X0141374Y0172258D01*
X0141362Y0172219D01*
X0141353Y0172179D01*
X0141348Y0172139D01*
X0141346Y0172098D01*
X0141346Y0171165D01*
X0141348Y0171124D01*
X0141353Y0171084D01*
X0141362Y0171044D01*
X0141374Y0171005D01*
X0141390Y0170968D01*
X0141409Y0170932D01*
X0141430Y0170897D01*
X0141455Y0170865D01*
X0141483Y0170835D01*
X0141513Y0170807D01*
X0141545Y0170782D01*
X0141580Y0170761D01*
X0141616Y0170742D01*
X0141653Y0170726D01*
X0141692Y0170714D01*
X0141732Y0170705D01*
X0141772Y0170700D01*
X0141813Y0170698D01*
X0142590Y0170698D01*
X0142590Y0173498D01*
X0143347Y0176910D02*
X0143274Y0176942D01*
X0143198Y0176969D01*
X0143122Y0176994D01*
X0143044Y0177015D01*
X0142966Y0177032D01*
X0142887Y0177046D01*
X0142807Y0177056D01*
X0142727Y0177063D01*
X0142647Y0177066D01*
X0142648Y0177065D02*
X0142609Y0177064D01*
X0142571Y0177059D01*
X0142533Y0177050D01*
X0142497Y0177038D01*
X0142462Y0177022D01*
X0142428Y0177003D01*
X0142396Y0176981D01*
X0142367Y0176957D01*
X0142340Y0176929D01*
X0142316Y0176899D01*
X0142295Y0176867D01*
X0142277Y0176832D01*
X0142262Y0176797D01*
X0142251Y0176760D01*
X0142243Y0176722D01*
X0142240Y0176684D01*
X0142239Y0176645D01*
X0142243Y0176607D01*
X0142250Y0176569D01*
X0142261Y0176532D01*
X0142275Y0176496D01*
X0142292Y0176462D01*
X0142313Y0176429D01*
X0142337Y0176399D01*
X0142363Y0176371D01*
X0142392Y0176346D01*
X0142424Y0176323D01*
X0142457Y0176304D01*
X0142492Y0176288D01*
X0142492Y0176287D02*
X0143270Y0175976D01*
X0143305Y0175960D01*
X0143338Y0175941D01*
X0143370Y0175918D01*
X0143399Y0175893D01*
X0143425Y0175865D01*
X0143449Y0175835D01*
X0143470Y0175802D01*
X0143487Y0175768D01*
X0143501Y0175732D01*
X0143512Y0175695D01*
X0143519Y0175657D01*
X0143523Y0175619D01*
X0143522Y0175580D01*
X0143519Y0175542D01*
X0143511Y0175504D01*
X0143500Y0175467D01*
X0143485Y0175432D01*
X0143467Y0175397D01*
X0143446Y0175365D01*
X0143422Y0175335D01*
X0143395Y0175307D01*
X0143366Y0175283D01*
X0143334Y0175261D01*
X0143300Y0175242D01*
X0143265Y0175226D01*
X0143229Y0175214D01*
X0143191Y0175205D01*
X0143153Y0175200D01*
X0143114Y0175199D01*
X0144599Y0175821D02*
X0144599Y0176443D01*
X0144601Y0176492D01*
X0144607Y0176540D01*
X0144616Y0176588D01*
X0144629Y0176635D01*
X0144646Y0176681D01*
X0144667Y0176725D01*
X0144691Y0176768D01*
X0144718Y0176809D01*
X0144748Y0176847D01*
X0144781Y0176883D01*
X0144817Y0176916D01*
X0144855Y0176946D01*
X0144896Y0176973D01*
X0144939Y0176997D01*
X0144983Y0177018D01*
X0145029Y0177035D01*
X0145076Y0177048D01*
X0145124Y0177057D01*
X0145172Y0177063D01*
X0145221Y0177065D01*
X0145270Y0177063D01*
X0145318Y0177057D01*
X0145366Y0177048D01*
X0145413Y0177035D01*
X0145459Y0177018D01*
X0145503Y0176997D01*
X0145546Y0176973D01*
X0145587Y0176946D01*
X0145625Y0176916D01*
X0145661Y0176883D01*
X0145694Y0176847D01*
X0145724Y0176809D01*
X0145751Y0176768D01*
X0145775Y0176725D01*
X0145796Y0176681D01*
X0145813Y0176635D01*
X0145826Y0176588D01*
X0145835Y0176540D01*
X0145841Y0176492D01*
X0145843Y0176443D01*
X0145843Y0175821D01*
X0145841Y0175772D01*
X0145835Y0175724D01*
X0145826Y0175676D01*
X0145813Y0175629D01*
X0145796Y0175583D01*
X0145775Y0175539D01*
X0145751Y0175496D01*
X0145724Y0175455D01*
X0145694Y0175417D01*
X0145661Y0175381D01*
X0145625Y0175348D01*
X0145587Y0175318D01*
X0145546Y0175291D01*
X0145503Y0175267D01*
X0145459Y0175246D01*
X0145413Y0175229D01*
X0145366Y0175216D01*
X0145318Y0175207D01*
X0145270Y0175201D01*
X0145221Y0175199D01*
X0145172Y0175201D01*
X0145124Y0175207D01*
X0145076Y0175216D01*
X0145029Y0175229D01*
X0144983Y0175246D01*
X0144939Y0175267D01*
X0144896Y0175291D01*
X0144855Y0175318D01*
X0144817Y0175348D01*
X0144781Y0175381D01*
X0144748Y0175417D01*
X0144718Y0175455D01*
X0144691Y0175496D01*
X0144667Y0175539D01*
X0144646Y0175583D01*
X0144629Y0175629D01*
X0144616Y0175676D01*
X0144607Y0175724D01*
X0144601Y0175772D01*
X0144599Y0175821D01*
X0147029Y0175665D02*
X0147029Y0177065D01*
X0148273Y0177065D02*
X0148273Y0175198D01*
X0147495Y0175198D01*
X0147454Y0175200D01*
X0147414Y0175205D01*
X0147374Y0175214D01*
X0147335Y0175226D01*
X0147298Y0175242D01*
X0147262Y0175261D01*
X0147227Y0175282D01*
X0147195Y0175307D01*
X0147165Y0175335D01*
X0147137Y0175365D01*
X0147112Y0175397D01*
X0147091Y0175432D01*
X0147072Y0175468D01*
X0147056Y0175505D01*
X0147044Y0175544D01*
X0147035Y0175584D01*
X0147030Y0175624D01*
X0147028Y0175665D01*
X0149563Y0175198D02*
X0149563Y0177065D01*
X0150496Y0177065D01*
X0150496Y0176754D01*
X0151352Y0176598D02*
X0151352Y0175665D01*
X0151351Y0175665D02*
X0151353Y0175624D01*
X0151358Y0175584D01*
X0151367Y0175544D01*
X0151379Y0175505D01*
X0151395Y0175468D01*
X0151414Y0175432D01*
X0151435Y0175397D01*
X0151460Y0175365D01*
X0151488Y0175335D01*
X0151518Y0175307D01*
X0151550Y0175282D01*
X0151585Y0175261D01*
X0151621Y0175242D01*
X0151658Y0175226D01*
X0151697Y0175214D01*
X0151737Y0175205D01*
X0151777Y0175200D01*
X0151818Y0175198D01*
X0152440Y0175198D01*
X0153419Y0175665D02*
X0153419Y0176443D01*
X0153419Y0176132D02*
X0154663Y0176132D01*
X0154663Y0176443D01*
X0154661Y0176492D01*
X0154655Y0176540D01*
X0154646Y0176588D01*
X0154633Y0176635D01*
X0154616Y0176681D01*
X0154595Y0176725D01*
X0154571Y0176768D01*
X0154544Y0176809D01*
X0154514Y0176847D01*
X0154481Y0176883D01*
X0154445Y0176916D01*
X0154407Y0176946D01*
X0154366Y0176973D01*
X0154323Y0176997D01*
X0154279Y0177018D01*
X0154233Y0177035D01*
X0154186Y0177048D01*
X0154138Y0177057D01*
X0154090Y0177063D01*
X0154041Y0177065D01*
X0153992Y0177063D01*
X0153944Y0177057D01*
X0153896Y0177048D01*
X0153849Y0177035D01*
X0153803Y0177018D01*
X0153759Y0176997D01*
X0153716Y0176973D01*
X0153675Y0176946D01*
X0153637Y0176916D01*
X0153601Y0176883D01*
X0153568Y0176847D01*
X0153538Y0176809D01*
X0153511Y0176768D01*
X0153487Y0176725D01*
X0153466Y0176681D01*
X0153449Y0176635D01*
X0153436Y0176588D01*
X0153427Y0176540D01*
X0153421Y0176492D01*
X0153419Y0176443D01*
X0153418Y0175665D02*
X0153420Y0175624D01*
X0153425Y0175584D01*
X0153434Y0175544D01*
X0153446Y0175505D01*
X0153462Y0175468D01*
X0153481Y0175432D01*
X0153502Y0175397D01*
X0153527Y0175365D01*
X0153555Y0175335D01*
X0153585Y0175307D01*
X0153617Y0175282D01*
X0153652Y0175261D01*
X0153688Y0175242D01*
X0153725Y0175226D01*
X0153764Y0175214D01*
X0153804Y0175205D01*
X0153844Y0175200D01*
X0153885Y0175198D01*
X0154663Y0175198D01*
X0152440Y0177065D02*
X0151818Y0177065D01*
X0151777Y0177063D01*
X0151737Y0177058D01*
X0151697Y0177049D01*
X0151658Y0177037D01*
X0151621Y0177021D01*
X0151585Y0177002D01*
X0151550Y0176981D01*
X0151518Y0176956D01*
X0151488Y0176928D01*
X0151460Y0176898D01*
X0151435Y0176866D01*
X0151414Y0176832D01*
X0151395Y0176795D01*
X0151379Y0176758D01*
X0151367Y0176719D01*
X0151358Y0176679D01*
X0151353Y0176639D01*
X0151351Y0176598D01*
X0149113Y0179048D02*
X0149513Y0179398D01*
X0149863Y0179748D01*
X0150263Y0180198D01*
X0150613Y0180648D01*
X0149163Y0182748D01*
X0149513Y0183348D01*
X0149713Y0183948D01*
X0149913Y0184748D01*
X0152363Y0185198D01*
X0152363Y0186348D01*
X0152313Y0186898D01*
X0152263Y0187398D01*
X0149813Y0187848D01*
X0149613Y0188498D01*
X0149363Y0189048D01*
X0149013Y0189648D01*
X0148963Y0189748D01*
X0150363Y0191698D01*
X0149963Y0192198D01*
X0149463Y0192698D01*
X0149063Y0193048D01*
X0148713Y0193298D01*
X0146663Y0191848D01*
X0146213Y0192098D01*
X0145763Y0192298D01*
X0145313Y0192498D01*
X0144863Y0192598D01*
X0144413Y0195048D01*
X0143813Y0195098D01*
X0142663Y0195098D01*
X0142163Y0195048D01*
X0141763Y0192648D01*
X0141013Y0192398D01*
X0140513Y0192198D01*
X0139813Y0191798D01*
X0137813Y0193248D01*
X0137363Y0192898D01*
X0136863Y0192398D01*
X0136463Y0191948D01*
X0136213Y0191698D01*
X0137613Y0189648D01*
X0137313Y0189148D01*
X0137013Y0188498D01*
X0136863Y0187948D01*
X0136713Y0187598D01*
X0134263Y0187198D01*
X0134263Y0184998D01*
X0136713Y0184598D01*
X0136913Y0183898D01*
X0137063Y0183398D01*
X0137263Y0182998D01*
X0137613Y0182398D01*
X0136163Y0180398D01*
X0136563Y0179948D01*
X0136913Y0179598D01*
X0137363Y0179198D01*
X0137713Y0178898D01*
X0139763Y0180298D01*
X0140913Y0179698D01*
X0142313Y0183698D01*
X0141816Y0183947D01*
X0141384Y0184297D01*
X0141036Y0184730D01*
X0140790Y0185229D01*
X0140655Y0185768D01*
X0140640Y0186324D01*
X0140744Y0186870D01*
X0140962Y0187381D01*
X0141285Y0187834D01*
X0141697Y0188207D01*
X0142179Y0188483D01*
X0142709Y0188649D01*
X0143263Y0188698D01*
X0143799Y0188633D01*
X0144310Y0188459D01*
X0144775Y0188185D01*
X0145174Y0187822D01*
X0145491Y0187385D01*
X0145712Y0186892D01*
X0145827Y0186365D01*
X0145834Y0185826D01*
X0145729Y0185296D01*
X0145519Y0184799D01*
X0145213Y0184355D01*
X0144822Y0183983D01*
X0144363Y0183698D01*
X0145913Y0179798D01*
X0146513Y0180048D01*
X0147113Y0180448D01*
X0149113Y0179048D01*
X0149329Y0179238D02*
X0148843Y0179238D01*
X0148559Y0179436D02*
X0149551Y0179436D01*
X0149749Y0179635D02*
X0148276Y0179635D01*
X0147992Y0179833D02*
X0149938Y0179833D01*
X0150115Y0180032D02*
X0147709Y0180032D01*
X0147425Y0180230D02*
X0150288Y0180230D01*
X0150442Y0180429D02*
X0147141Y0180429D01*
X0147083Y0180429D02*
X0145663Y0180429D01*
X0145584Y0180627D02*
X0150597Y0180627D01*
X0150491Y0180826D02*
X0145505Y0180826D01*
X0145426Y0181024D02*
X0150354Y0181024D01*
X0150217Y0181223D02*
X0145347Y0181223D01*
X0145268Y0181421D02*
X0150079Y0181421D01*
X0149942Y0181620D02*
X0145189Y0181620D01*
X0145110Y0181818D02*
X0149805Y0181818D01*
X0149668Y0182017D02*
X0145031Y0182017D01*
X0144953Y0182215D02*
X0149531Y0182215D01*
X0149394Y0182414D02*
X0144874Y0182414D01*
X0144795Y0182612D02*
X0149257Y0182612D01*
X0149199Y0182811D02*
X0144716Y0182811D01*
X0144637Y0183009D02*
X0149315Y0183009D01*
X0149431Y0183208D02*
X0144558Y0183208D01*
X0144479Y0183406D02*
X0149532Y0183406D01*
X0149599Y0183605D02*
X0144400Y0183605D01*
X0144532Y0183803D02*
X0149665Y0183803D01*
X0149726Y0184002D02*
X0144842Y0184002D01*
X0145050Y0184200D02*
X0149776Y0184200D01*
X0149826Y0184399D02*
X0145243Y0184399D01*
X0145380Y0184597D02*
X0149875Y0184597D01*
X0150171Y0184796D02*
X0145517Y0184796D01*
X0145602Y0184994D02*
X0151252Y0184994D01*
X0152333Y0185193D02*
X0145686Y0185193D01*
X0145748Y0185391D02*
X0152363Y0185391D01*
X0152363Y0185590D02*
X0145787Y0185590D01*
X0145826Y0185788D02*
X0152363Y0185788D01*
X0152363Y0185987D02*
X0145832Y0185987D01*
X0145829Y0186185D02*
X0152363Y0186185D01*
X0152360Y0186384D02*
X0145823Y0186384D01*
X0145780Y0186582D02*
X0152342Y0186582D01*
X0152324Y0186781D02*
X0145736Y0186781D01*
X0145672Y0186980D02*
X0152305Y0186980D01*
X0152285Y0187178D02*
X0145583Y0187178D01*
X0145494Y0187377D02*
X0152265Y0187377D01*
X0151301Y0187575D02*
X0145353Y0187575D01*
X0145209Y0187774D02*
X0150221Y0187774D01*
X0149775Y0187972D02*
X0145008Y0187972D01*
X0144790Y0188171D02*
X0149714Y0188171D01*
X0149653Y0188369D02*
X0144462Y0188369D01*
X0143990Y0188568D02*
X0149582Y0188568D01*
X0149491Y0188766D02*
X0137137Y0188766D01*
X0137228Y0188965D02*
X0149401Y0188965D01*
X0149296Y0189163D02*
X0137322Y0189163D01*
X0137441Y0189362D02*
X0149180Y0189362D01*
X0149065Y0189560D02*
X0137560Y0189560D01*
X0137538Y0189759D02*
X0148970Y0189759D01*
X0149113Y0189957D02*
X0137402Y0189957D01*
X0137267Y0190156D02*
X0149255Y0190156D01*
X0149398Y0190354D02*
X0137131Y0190354D01*
X0136995Y0190553D02*
X0149541Y0190553D01*
X0149683Y0190751D02*
X0136860Y0190751D01*
X0136724Y0190950D02*
X0149826Y0190950D01*
X0149968Y0191148D02*
X0136589Y0191148D01*
X0136453Y0191347D02*
X0150111Y0191347D01*
X0150253Y0191545D02*
X0136318Y0191545D01*
X0136258Y0191744D02*
X0150327Y0191744D01*
X0150168Y0191942D02*
X0146796Y0191942D01*
X0146494Y0191942D02*
X0140065Y0191942D01*
X0140412Y0192141D02*
X0146118Y0192141D01*
X0145671Y0192339D02*
X0140865Y0192339D01*
X0141431Y0192538D02*
X0145136Y0192538D01*
X0144838Y0192736D02*
X0141778Y0192736D01*
X0141811Y0192935D02*
X0144801Y0192935D01*
X0144765Y0193133D02*
X0141844Y0193133D01*
X0141877Y0193332D02*
X0144728Y0193332D01*
X0144692Y0193530D02*
X0141910Y0193530D01*
X0141943Y0193729D02*
X0144655Y0193729D01*
X0144619Y0193927D02*
X0141976Y0193927D01*
X0142009Y0194126D02*
X0144583Y0194126D01*
X0144546Y0194324D02*
X0142042Y0194324D01*
X0142075Y0194523D02*
X0144510Y0194523D01*
X0144473Y0194721D02*
X0142109Y0194721D01*
X0142142Y0194920D02*
X0144437Y0194920D01*
X0147076Y0192141D02*
X0150009Y0192141D01*
X0149822Y0192339D02*
X0147357Y0192339D01*
X0147638Y0192538D02*
X0149624Y0192538D01*
X0149420Y0192736D02*
X0147918Y0192736D01*
X0148199Y0192935D02*
X0149193Y0192935D01*
X0148944Y0193133D02*
X0148480Y0193133D01*
X0142449Y0188568D02*
X0137045Y0188568D01*
X0136978Y0188369D02*
X0141980Y0188369D01*
X0141657Y0188171D02*
X0136924Y0188171D01*
X0136870Y0187972D02*
X0141437Y0187972D01*
X0141242Y0187774D02*
X0136788Y0187774D01*
X0136570Y0187575D02*
X0141100Y0187575D01*
X0140960Y0187377D02*
X0135354Y0187377D01*
X0134263Y0187178D02*
X0140875Y0187178D01*
X0140790Y0186980D02*
X0134263Y0186980D01*
X0134263Y0186781D02*
X0140727Y0186781D01*
X0140689Y0186582D02*
X0134263Y0186582D01*
X0134263Y0186384D02*
X0140651Y0186384D01*
X0140644Y0186185D02*
X0134263Y0186185D01*
X0134263Y0185987D02*
X0140649Y0185987D01*
X0140655Y0185788D02*
X0134263Y0185788D01*
X0134263Y0185590D02*
X0140700Y0185590D01*
X0140749Y0185391D02*
X0134263Y0185391D01*
X0134263Y0185193D02*
X0140807Y0185193D01*
X0140905Y0184994D02*
X0134288Y0184994D01*
X0135504Y0184796D02*
X0141004Y0184796D01*
X0141143Y0184597D02*
X0136713Y0184597D01*
X0136770Y0184399D02*
X0141302Y0184399D01*
X0141503Y0184200D02*
X0136827Y0184200D01*
X0136884Y0184002D02*
X0141748Y0184002D01*
X0142103Y0183803D02*
X0136942Y0183803D01*
X0137001Y0183605D02*
X0142280Y0183605D01*
X0142211Y0183406D02*
X0137061Y0183406D01*
X0137158Y0183208D02*
X0142141Y0183208D01*
X0142072Y0183009D02*
X0137258Y0183009D01*
X0137373Y0182811D02*
X0142002Y0182811D01*
X0141933Y0182612D02*
X0137488Y0182612D01*
X0137604Y0182414D02*
X0141863Y0182414D01*
X0141794Y0182215D02*
X0137480Y0182215D01*
X0137336Y0182017D02*
X0141724Y0182017D01*
X0141655Y0181818D02*
X0137192Y0181818D01*
X0137048Y0181620D02*
X0141586Y0181620D01*
X0141516Y0181421D02*
X0136905Y0181421D01*
X0136761Y0181223D02*
X0141447Y0181223D01*
X0141377Y0181024D02*
X0136617Y0181024D01*
X0136473Y0180826D02*
X0141308Y0180826D01*
X0141238Y0180627D02*
X0136329Y0180627D01*
X0136185Y0180429D02*
X0141169Y0180429D01*
X0141099Y0180230D02*
X0139894Y0180230D01*
X0139663Y0180230D02*
X0136313Y0180230D01*
X0136489Y0180032D02*
X0139372Y0180032D01*
X0139082Y0179833D02*
X0136678Y0179833D01*
X0136877Y0179635D02*
X0138791Y0179635D01*
X0138500Y0179436D02*
X0137096Y0179436D01*
X0137319Y0179238D02*
X0138210Y0179238D01*
X0137919Y0179039D02*
X0137549Y0179039D01*
X0138389Y0177065D02*
X0139167Y0177065D01*
X0139210Y0177063D01*
X0139253Y0177057D01*
X0139295Y0177047D01*
X0139336Y0177033D01*
X0139375Y0177016D01*
X0139413Y0176995D01*
X0139448Y0176971D01*
X0139482Y0176943D01*
X0139512Y0176913D01*
X0139540Y0176879D01*
X0139564Y0176844D01*
X0139585Y0176806D01*
X0139602Y0176767D01*
X0139616Y0176726D01*
X0139626Y0176684D01*
X0139632Y0176641D01*
X0139634Y0176598D01*
X0139633Y0176598D02*
X0139633Y0175198D01*
X0138389Y0175198D02*
X0138389Y0177065D01*
X0137203Y0176443D02*
X0137203Y0176132D01*
X0135959Y0176132D01*
X0135959Y0176443D02*
X0135959Y0175665D01*
X0135958Y0175665D02*
X0135960Y0175624D01*
X0135965Y0175584D01*
X0135974Y0175544D01*
X0135986Y0175505D01*
X0136002Y0175468D01*
X0136021Y0175432D01*
X0136042Y0175397D01*
X0136067Y0175365D01*
X0136095Y0175335D01*
X0136125Y0175307D01*
X0136157Y0175282D01*
X0136192Y0175261D01*
X0136228Y0175242D01*
X0136265Y0175226D01*
X0136304Y0175214D01*
X0136344Y0175205D01*
X0136384Y0175200D01*
X0136425Y0175198D01*
X0137203Y0175198D01*
X0137203Y0176443D02*
X0137201Y0176492D01*
X0137195Y0176540D01*
X0137186Y0176588D01*
X0137173Y0176635D01*
X0137156Y0176681D01*
X0137135Y0176725D01*
X0137111Y0176768D01*
X0137084Y0176809D01*
X0137054Y0176847D01*
X0137021Y0176883D01*
X0136985Y0176916D01*
X0136947Y0176946D01*
X0136906Y0176973D01*
X0136863Y0176997D01*
X0136819Y0177018D01*
X0136773Y0177035D01*
X0136726Y0177048D01*
X0136678Y0177057D01*
X0136630Y0177063D01*
X0136581Y0177065D01*
X0136532Y0177063D01*
X0136484Y0177057D01*
X0136436Y0177048D01*
X0136389Y0177035D01*
X0136343Y0177018D01*
X0136299Y0176997D01*
X0136256Y0176973D01*
X0136215Y0176946D01*
X0136177Y0176916D01*
X0136141Y0176883D01*
X0136108Y0176847D01*
X0136078Y0176809D01*
X0136051Y0176768D01*
X0136027Y0176725D01*
X0136006Y0176681D01*
X0135989Y0176635D01*
X0135976Y0176588D01*
X0135967Y0176540D01*
X0135961Y0176492D01*
X0135959Y0176443D01*
X0134876Y0176598D02*
X0134876Y0175665D01*
X0134874Y0175624D01*
X0134869Y0175584D01*
X0134860Y0175544D01*
X0134848Y0175505D01*
X0134832Y0175468D01*
X0134813Y0175432D01*
X0134792Y0175397D01*
X0134767Y0175365D01*
X0134739Y0175335D01*
X0134709Y0175307D01*
X0134677Y0175282D01*
X0134643Y0175261D01*
X0134606Y0175242D01*
X0134569Y0175226D01*
X0134530Y0175214D01*
X0134490Y0175205D01*
X0134450Y0175200D01*
X0134409Y0175198D01*
X0133632Y0175198D01*
X0133632Y0174265D02*
X0133632Y0177065D01*
X0134409Y0177065D01*
X0134452Y0177063D01*
X0134495Y0177057D01*
X0134537Y0177047D01*
X0134578Y0177033D01*
X0134617Y0177016D01*
X0134655Y0176995D01*
X0134690Y0176971D01*
X0134724Y0176943D01*
X0134754Y0176913D01*
X0134782Y0176879D01*
X0134806Y0176844D01*
X0134827Y0176806D01*
X0134844Y0176767D01*
X0134858Y0176726D01*
X0134868Y0176684D01*
X0134874Y0176641D01*
X0134876Y0176598D01*
X0132433Y0176443D02*
X0132433Y0175821D01*
X0132431Y0175772D01*
X0132425Y0175724D01*
X0132416Y0175676D01*
X0132403Y0175629D01*
X0132386Y0175583D01*
X0132365Y0175539D01*
X0132341Y0175496D01*
X0132314Y0175455D01*
X0132284Y0175417D01*
X0132251Y0175381D01*
X0132215Y0175348D01*
X0132177Y0175318D01*
X0132136Y0175291D01*
X0132093Y0175267D01*
X0132049Y0175246D01*
X0132003Y0175229D01*
X0131956Y0175216D01*
X0131908Y0175207D01*
X0131860Y0175201D01*
X0131811Y0175199D01*
X0131762Y0175201D01*
X0131714Y0175207D01*
X0131666Y0175216D01*
X0131619Y0175229D01*
X0131573Y0175246D01*
X0131529Y0175267D01*
X0131486Y0175291D01*
X0131445Y0175318D01*
X0131407Y0175348D01*
X0131371Y0175381D01*
X0131338Y0175417D01*
X0131308Y0175455D01*
X0131281Y0175496D01*
X0131257Y0175539D01*
X0131236Y0175583D01*
X0131219Y0175629D01*
X0131206Y0175676D01*
X0131197Y0175724D01*
X0131191Y0175772D01*
X0131189Y0175821D01*
X0131189Y0176443D01*
X0131191Y0176492D01*
X0131197Y0176540D01*
X0131206Y0176588D01*
X0131219Y0176635D01*
X0131236Y0176681D01*
X0131257Y0176725D01*
X0131281Y0176768D01*
X0131308Y0176809D01*
X0131338Y0176847D01*
X0131371Y0176883D01*
X0131407Y0176916D01*
X0131445Y0176946D01*
X0131486Y0176973D01*
X0131529Y0176997D01*
X0131573Y0177018D01*
X0131619Y0177035D01*
X0131666Y0177048D01*
X0131714Y0177057D01*
X0131762Y0177063D01*
X0131811Y0177065D01*
X0131860Y0177063D01*
X0131908Y0177057D01*
X0131956Y0177048D01*
X0132003Y0177035D01*
X0132049Y0177018D01*
X0132093Y0176997D01*
X0132136Y0176973D01*
X0132177Y0176946D01*
X0132215Y0176916D01*
X0132251Y0176883D01*
X0132284Y0176847D01*
X0132314Y0176809D01*
X0132341Y0176768D01*
X0132365Y0176725D01*
X0132386Y0176681D01*
X0132403Y0176635D01*
X0132416Y0176588D01*
X0132425Y0176540D01*
X0132431Y0176492D01*
X0132433Y0176443D01*
X0134609Y0173498D02*
X0134609Y0170698D01*
X0135853Y0170698D02*
X0135853Y0172098D01*
X0135854Y0172098D02*
X0135852Y0172141D01*
X0135846Y0172184D01*
X0135836Y0172226D01*
X0135822Y0172267D01*
X0135805Y0172306D01*
X0135784Y0172344D01*
X0135760Y0172379D01*
X0135732Y0172413D01*
X0135702Y0172443D01*
X0135668Y0172471D01*
X0135633Y0172495D01*
X0135595Y0172516D01*
X0135556Y0172533D01*
X0135515Y0172547D01*
X0135473Y0172557D01*
X0135430Y0172563D01*
X0135387Y0172565D01*
X0134609Y0172565D01*
X0137182Y0172565D02*
X0137804Y0172565D01*
X0137845Y0172563D01*
X0137885Y0172558D01*
X0137925Y0172549D01*
X0137964Y0172537D01*
X0138001Y0172521D01*
X0138038Y0172502D01*
X0138072Y0172481D01*
X0138104Y0172456D01*
X0138134Y0172428D01*
X0138162Y0172398D01*
X0138187Y0172366D01*
X0138208Y0172332D01*
X0138227Y0172295D01*
X0138243Y0172258D01*
X0138255Y0172219D01*
X0138264Y0172179D01*
X0138269Y0172139D01*
X0138271Y0172098D01*
X0138270Y0172098D02*
X0138270Y0170698D01*
X0137570Y0170698D01*
X0137570Y0170699D02*
X0137525Y0170701D01*
X0137480Y0170706D01*
X0137436Y0170716D01*
X0137393Y0170728D01*
X0137351Y0170745D01*
X0137311Y0170765D01*
X0137272Y0170788D01*
X0137236Y0170814D01*
X0137202Y0170843D01*
X0137170Y0170875D01*
X0137141Y0170909D01*
X0137115Y0170945D01*
X0137092Y0170984D01*
X0137072Y0171024D01*
X0137055Y0171066D01*
X0137043Y0171109D01*
X0137033Y0171153D01*
X0137028Y0171198D01*
X0137026Y0171243D01*
X0137028Y0171288D01*
X0137033Y0171333D01*
X0137043Y0171377D01*
X0137055Y0171420D01*
X0137072Y0171462D01*
X0137092Y0171502D01*
X0137115Y0171541D01*
X0137141Y0171577D01*
X0137170Y0171611D01*
X0137202Y0171643D01*
X0137236Y0171672D01*
X0137272Y0171698D01*
X0137311Y0171721D01*
X0137351Y0171741D01*
X0137393Y0171758D01*
X0137436Y0171770D01*
X0137480Y0171780D01*
X0137525Y0171785D01*
X0137570Y0171787D01*
X0138270Y0171787D01*
X0139573Y0172565D02*
X0140506Y0172565D01*
X0140506Y0172254D01*
X0139573Y0172565D02*
X0139573Y0170698D01*
X0147200Y0170698D02*
X0147900Y0170698D01*
X0147200Y0170699D02*
X0147155Y0170701D01*
X0147110Y0170706D01*
X0147066Y0170716D01*
X0147023Y0170728D01*
X0146981Y0170745D01*
X0146941Y0170765D01*
X0146902Y0170788D01*
X0146866Y0170814D01*
X0146832Y0170843D01*
X0146800Y0170875D01*
X0146771Y0170909D01*
X0146745Y0170945D01*
X0146722Y0170984D01*
X0146702Y0171024D01*
X0146685Y0171066D01*
X0146673Y0171109D01*
X0146663Y0171153D01*
X0146658Y0171198D01*
X0146656Y0171243D01*
X0146658Y0171288D01*
X0146663Y0171333D01*
X0146673Y0171377D01*
X0146685Y0171420D01*
X0146702Y0171462D01*
X0146722Y0171502D01*
X0146745Y0171541D01*
X0146771Y0171577D01*
X0146800Y0171611D01*
X0146832Y0171643D01*
X0146866Y0171672D01*
X0146902Y0171698D01*
X0146941Y0171721D01*
X0146981Y0171741D01*
X0147023Y0171758D01*
X0147066Y0171770D01*
X0147110Y0171780D01*
X0147155Y0171785D01*
X0147200Y0171787D01*
X0143114Y0175198D02*
X0143017Y0175201D01*
X0142921Y0175208D01*
X0142824Y0175218D01*
X0142728Y0175232D01*
X0142632Y0175250D01*
X0142538Y0175271D01*
X0142444Y0175295D01*
X0142351Y0175323D01*
X0142259Y0175354D01*
X0140960Y0179833D02*
X0140655Y0179833D01*
X0141030Y0180032D02*
X0140274Y0180032D01*
X0145741Y0180230D02*
X0146786Y0180230D01*
X0146473Y0180032D02*
X0145820Y0180032D01*
X0145899Y0179833D02*
X0145996Y0179833D01*
X0139615Y0191942D02*
X0136457Y0191942D01*
X0136634Y0192141D02*
X0139341Y0192141D01*
X0139067Y0192339D02*
X0136811Y0192339D01*
X0137002Y0192538D02*
X0138793Y0192538D01*
X0138519Y0192736D02*
X0137201Y0192736D01*
X0137410Y0192935D02*
X0138246Y0192935D01*
X0137972Y0193133D02*
X0137665Y0193133D01*
M02*
