%
M48
M72
T01C0.01378
T02C0.03622
T03C0.03937
T04C0.09055
T05C0.11811
%
T01
X170822Y170350
X164917Y170350
X168854Y162476
X182633Y158539
X182633Y166413
X194444Y168382
X202318Y168382
X214129Y166413
X214129Y158539
X214129Y150665
X214129Y142791
X202318Y140823
X194444Y140823
X182633Y142791
X182633Y150665
X168854Y144760
X171291Y135480
X168854Y127043
X178696Y127043
X180665Y121138
X186570Y130980
X222003Y130980
X245625Y148697
X227909Y174287
X117673Y85705
X134523Y98146
X136098Y101295
X135310Y104445
X149169Y91610
X162948Y97516
X151137Y79799
X157043Y73894
X139326Y79799
X186570Y91610
X225940Y66020
X251531Y67988
X249562Y87673
X149169Y146728
X136570Y153421
X133342Y153177
X136176Y156965
X117673Y156571
X76334Y190035
X68460Y134917
T02
X114562Y79799
X114562Y89642
X114562Y97516
X114562Y107358
X114562Y150665
X114562Y160508
X114562Y168382
X114562Y178224
T03
X139326Y71925
X149326Y71925
X164917Y71925
X174917Y71925
X191098Y71925
X201098Y71925
X211098Y71925
X221098Y71925
X231098Y71925
X241098Y71925
X247200Y97516
X223972Y97516
X235783Y116020
T04
X103893Y67713
X103893Y119445
X103893Y138579
X103893Y190311
T05
X135389Y129012
X241688Y129012
M30
