G75*
%MOIN*%
%OFA0B0*%
%FSLAX25Y25*%
%IPPOS*%
%LPD*%
%AMOC8*
5,1,8,0,0,1.08239X$1,22.5*
%
%ADD10C,0.00000*%
%ADD11R,0.07000X0.07000*%
%ADD12C,0.07000*%
%ADD13C,0.13055*%
%ADD14C,0.05433*%
%ADD15C,0.11811*%
%ADD16C,0.02775*%
%ADD17C,0.02578*%
%ADD18C,0.01600*%
%ADD19C,0.00600*%
%ADD20C,0.15811*%
%ADD21C,0.01000*%
%ADD22C,0.04724*%
%ADD23C,0.04000*%
D10*
X0010226Y0002294D02*
X0191329Y0002294D01*
X0191329Y0002295D02*
X0191519Y0002297D01*
X0191709Y0002304D01*
X0191899Y0002316D01*
X0192089Y0002332D01*
X0192278Y0002352D01*
X0192467Y0002378D01*
X0192655Y0002407D01*
X0192842Y0002442D01*
X0193028Y0002481D01*
X0193213Y0002524D01*
X0193398Y0002572D01*
X0193581Y0002624D01*
X0193762Y0002680D01*
X0193942Y0002741D01*
X0194121Y0002807D01*
X0194298Y0002876D01*
X0194474Y0002950D01*
X0194647Y0003028D01*
X0194819Y0003111D01*
X0194988Y0003197D01*
X0195156Y0003287D01*
X0195321Y0003382D01*
X0195484Y0003480D01*
X0195644Y0003583D01*
X0195802Y0003689D01*
X0195957Y0003799D01*
X0196110Y0003912D01*
X0196260Y0004030D01*
X0196406Y0004151D01*
X0196550Y0004275D01*
X0196691Y0004403D01*
X0196829Y0004534D01*
X0196964Y0004669D01*
X0197095Y0004807D01*
X0197223Y0004948D01*
X0197347Y0005092D01*
X0197468Y0005238D01*
X0197586Y0005388D01*
X0197699Y0005541D01*
X0197809Y0005696D01*
X0197915Y0005854D01*
X0198018Y0006014D01*
X0198116Y0006177D01*
X0198211Y0006342D01*
X0198301Y0006510D01*
X0198387Y0006679D01*
X0198470Y0006851D01*
X0198548Y0007024D01*
X0198622Y0007200D01*
X0198691Y0007377D01*
X0198757Y0007556D01*
X0198818Y0007736D01*
X0198874Y0007917D01*
X0198926Y0008100D01*
X0198974Y0008285D01*
X0199017Y0008470D01*
X0199056Y0008656D01*
X0199091Y0008843D01*
X0199120Y0009031D01*
X0199146Y0009220D01*
X0199166Y0009409D01*
X0199182Y0009599D01*
X0199194Y0009789D01*
X0199201Y0009979D01*
X0199203Y0010169D01*
X0199203Y0114499D01*
X0199201Y0114689D01*
X0199194Y0114879D01*
X0199182Y0115069D01*
X0199166Y0115259D01*
X0199146Y0115448D01*
X0199120Y0115637D01*
X0199091Y0115825D01*
X0199056Y0116012D01*
X0199017Y0116198D01*
X0198974Y0116383D01*
X0198926Y0116568D01*
X0198874Y0116751D01*
X0198818Y0116932D01*
X0198757Y0117112D01*
X0198691Y0117291D01*
X0198622Y0117468D01*
X0198548Y0117644D01*
X0198470Y0117817D01*
X0198387Y0117989D01*
X0198301Y0118158D01*
X0198211Y0118326D01*
X0198116Y0118491D01*
X0198018Y0118654D01*
X0197915Y0118814D01*
X0197809Y0118972D01*
X0197699Y0119127D01*
X0197586Y0119280D01*
X0197468Y0119430D01*
X0197347Y0119576D01*
X0197223Y0119720D01*
X0197095Y0119861D01*
X0196964Y0119999D01*
X0196829Y0120134D01*
X0196691Y0120265D01*
X0196550Y0120393D01*
X0196406Y0120517D01*
X0196260Y0120638D01*
X0196110Y0120756D01*
X0195957Y0120869D01*
X0195802Y0120979D01*
X0195644Y0121085D01*
X0195484Y0121188D01*
X0195321Y0121286D01*
X0195156Y0121381D01*
X0194988Y0121471D01*
X0194819Y0121557D01*
X0194647Y0121640D01*
X0194474Y0121718D01*
X0194298Y0121792D01*
X0194121Y0121861D01*
X0193942Y0121927D01*
X0193762Y0121988D01*
X0193581Y0122044D01*
X0193398Y0122096D01*
X0193213Y0122144D01*
X0193028Y0122187D01*
X0192842Y0122226D01*
X0192655Y0122261D01*
X0192467Y0122290D01*
X0192278Y0122316D01*
X0192089Y0122336D01*
X0191899Y0122352D01*
X0191709Y0122364D01*
X0191519Y0122371D01*
X0191329Y0122373D01*
X0110620Y0122373D01*
X0110430Y0122375D01*
X0110240Y0122382D01*
X0110050Y0122394D01*
X0109860Y0122410D01*
X0109671Y0122430D01*
X0109482Y0122456D01*
X0109294Y0122485D01*
X0109107Y0122520D01*
X0108921Y0122559D01*
X0108736Y0122602D01*
X0108551Y0122650D01*
X0108368Y0122702D01*
X0108187Y0122758D01*
X0108007Y0122819D01*
X0107828Y0122885D01*
X0107651Y0122954D01*
X0107475Y0123028D01*
X0107302Y0123106D01*
X0107130Y0123189D01*
X0106961Y0123275D01*
X0106793Y0123365D01*
X0106628Y0123460D01*
X0106465Y0123558D01*
X0106305Y0123661D01*
X0106147Y0123767D01*
X0105992Y0123877D01*
X0105839Y0123990D01*
X0105689Y0124108D01*
X0105543Y0124229D01*
X0105399Y0124353D01*
X0105258Y0124481D01*
X0105120Y0124612D01*
X0104985Y0124747D01*
X0104854Y0124885D01*
X0104726Y0125026D01*
X0104602Y0125170D01*
X0104481Y0125316D01*
X0104363Y0125466D01*
X0104250Y0125619D01*
X0104140Y0125774D01*
X0104034Y0125932D01*
X0103931Y0126092D01*
X0103833Y0126255D01*
X0103738Y0126420D01*
X0103648Y0126588D01*
X0103562Y0126757D01*
X0103479Y0126929D01*
X0103401Y0127102D01*
X0103327Y0127278D01*
X0103258Y0127455D01*
X0103192Y0127634D01*
X0103131Y0127814D01*
X0103075Y0127995D01*
X0103023Y0128178D01*
X0102975Y0128363D01*
X0102932Y0128548D01*
X0102893Y0128734D01*
X0102858Y0128921D01*
X0102829Y0129109D01*
X0102803Y0129298D01*
X0102783Y0129487D01*
X0102767Y0129677D01*
X0102755Y0129867D01*
X0102748Y0130057D01*
X0102746Y0130247D01*
X0102746Y0136153D01*
X0102744Y0136343D01*
X0102737Y0136533D01*
X0102725Y0136723D01*
X0102709Y0136913D01*
X0102689Y0137102D01*
X0102663Y0137291D01*
X0102634Y0137479D01*
X0102599Y0137666D01*
X0102560Y0137852D01*
X0102517Y0138037D01*
X0102469Y0138222D01*
X0102417Y0138405D01*
X0102361Y0138586D01*
X0102300Y0138766D01*
X0102234Y0138945D01*
X0102165Y0139122D01*
X0102091Y0139298D01*
X0102013Y0139471D01*
X0101930Y0139643D01*
X0101844Y0139812D01*
X0101754Y0139980D01*
X0101659Y0140145D01*
X0101561Y0140308D01*
X0101458Y0140468D01*
X0101352Y0140626D01*
X0101242Y0140781D01*
X0101129Y0140934D01*
X0101011Y0141084D01*
X0100890Y0141230D01*
X0100766Y0141374D01*
X0100638Y0141515D01*
X0100507Y0141653D01*
X0100372Y0141788D01*
X0100234Y0141919D01*
X0100093Y0142047D01*
X0099949Y0142171D01*
X0099803Y0142292D01*
X0099653Y0142410D01*
X0099500Y0142523D01*
X0099345Y0142633D01*
X0099187Y0142739D01*
X0099027Y0142842D01*
X0098864Y0142940D01*
X0098699Y0143035D01*
X0098531Y0143125D01*
X0098362Y0143211D01*
X0098190Y0143294D01*
X0098017Y0143372D01*
X0097841Y0143446D01*
X0097664Y0143515D01*
X0097485Y0143581D01*
X0097305Y0143642D01*
X0097124Y0143698D01*
X0096941Y0143750D01*
X0096756Y0143798D01*
X0096571Y0143841D01*
X0096385Y0143880D01*
X0096198Y0143915D01*
X0096010Y0143944D01*
X0095821Y0143970D01*
X0095632Y0143990D01*
X0095442Y0144006D01*
X0095252Y0144018D01*
X0095062Y0144025D01*
X0094872Y0144027D01*
X0010226Y0144027D01*
X0010036Y0144025D01*
X0009846Y0144018D01*
X0009656Y0144006D01*
X0009466Y0143990D01*
X0009277Y0143970D01*
X0009088Y0143944D01*
X0008900Y0143915D01*
X0008713Y0143880D01*
X0008527Y0143841D01*
X0008342Y0143798D01*
X0008157Y0143750D01*
X0007974Y0143698D01*
X0007793Y0143642D01*
X0007613Y0143581D01*
X0007434Y0143515D01*
X0007257Y0143446D01*
X0007081Y0143372D01*
X0006908Y0143294D01*
X0006736Y0143211D01*
X0006567Y0143125D01*
X0006399Y0143035D01*
X0006234Y0142940D01*
X0006071Y0142842D01*
X0005911Y0142739D01*
X0005753Y0142633D01*
X0005598Y0142523D01*
X0005445Y0142410D01*
X0005295Y0142292D01*
X0005149Y0142171D01*
X0005005Y0142047D01*
X0004864Y0141919D01*
X0004726Y0141788D01*
X0004591Y0141653D01*
X0004460Y0141515D01*
X0004332Y0141374D01*
X0004208Y0141230D01*
X0004087Y0141084D01*
X0003969Y0140934D01*
X0003856Y0140781D01*
X0003746Y0140626D01*
X0003640Y0140468D01*
X0003537Y0140308D01*
X0003439Y0140145D01*
X0003344Y0139980D01*
X0003254Y0139812D01*
X0003168Y0139643D01*
X0003085Y0139471D01*
X0003007Y0139298D01*
X0002933Y0139122D01*
X0002864Y0138945D01*
X0002798Y0138766D01*
X0002737Y0138586D01*
X0002681Y0138405D01*
X0002629Y0138222D01*
X0002581Y0138037D01*
X0002538Y0137852D01*
X0002499Y0137666D01*
X0002464Y0137479D01*
X0002435Y0137291D01*
X0002409Y0137102D01*
X0002389Y0136913D01*
X0002373Y0136723D01*
X0002361Y0136533D01*
X0002354Y0136343D01*
X0002352Y0136153D01*
X0002352Y0010169D01*
X0002354Y0009979D01*
X0002361Y0009789D01*
X0002373Y0009599D01*
X0002389Y0009409D01*
X0002409Y0009220D01*
X0002435Y0009031D01*
X0002464Y0008843D01*
X0002499Y0008656D01*
X0002538Y0008470D01*
X0002581Y0008285D01*
X0002629Y0008100D01*
X0002681Y0007917D01*
X0002737Y0007736D01*
X0002798Y0007556D01*
X0002864Y0007377D01*
X0002933Y0007200D01*
X0003007Y0007024D01*
X0003085Y0006851D01*
X0003168Y0006679D01*
X0003254Y0006510D01*
X0003344Y0006342D01*
X0003439Y0006177D01*
X0003537Y0006014D01*
X0003640Y0005854D01*
X0003746Y0005696D01*
X0003856Y0005541D01*
X0003969Y0005388D01*
X0004087Y0005238D01*
X0004208Y0005092D01*
X0004332Y0004948D01*
X0004460Y0004807D01*
X0004591Y0004669D01*
X0004726Y0004534D01*
X0004864Y0004403D01*
X0005005Y0004275D01*
X0005149Y0004151D01*
X0005295Y0004030D01*
X0005445Y0003912D01*
X0005598Y0003799D01*
X0005753Y0003689D01*
X0005911Y0003583D01*
X0006071Y0003480D01*
X0006234Y0003382D01*
X0006399Y0003287D01*
X0006567Y0003197D01*
X0006736Y0003111D01*
X0006908Y0003028D01*
X0007081Y0002950D01*
X0007257Y0002876D01*
X0007434Y0002807D01*
X0007613Y0002741D01*
X0007793Y0002680D01*
X0007974Y0002624D01*
X0008157Y0002572D01*
X0008342Y0002524D01*
X0008527Y0002481D01*
X0008713Y0002442D01*
X0008900Y0002407D01*
X0009088Y0002378D01*
X0009277Y0002352D01*
X0009466Y0002332D01*
X0009656Y0002316D01*
X0009846Y0002304D01*
X0010036Y0002297D01*
X0010226Y0002295D01*
D11*
X0128927Y0016074D03*
D12*
X0138927Y0016074D03*
X0148927Y0016074D03*
X0158927Y0016074D03*
X0168927Y0016074D03*
X0178927Y0016074D03*
X0112746Y0016074D03*
X0102746Y0016074D03*
X0087156Y0016074D03*
X0077156Y0016074D03*
D13*
X0041722Y0011861D03*
X0041722Y0063594D03*
X0041722Y0082728D03*
X0041722Y0134460D03*
D14*
X0052392Y0122373D03*
X0052392Y0112531D03*
X0052392Y0104657D03*
X0052392Y0094814D03*
X0052392Y0051507D03*
X0052392Y0041665D03*
X0052392Y0033791D03*
X0052392Y0023948D03*
D15*
X0134085Y0047570D03*
X0154085Y0047570D03*
D16*
X0094872Y0110562D03*
D17*
X0106683Y0106625D03*
X0108652Y0114499D03*
X0120463Y0110562D03*
X0132274Y0112531D03*
X0140148Y0112531D03*
X0151959Y0110562D03*
X0151959Y0102688D03*
X0151959Y0094814D03*
X0151959Y0086940D03*
X0140148Y0084972D03*
X0132274Y0084972D03*
X0120463Y0086940D03*
X0120463Y0094814D03*
X0120463Y0102688D03*
X0106683Y0094814D03*
X0106683Y0083003D03*
X0108652Y0075129D03*
X0116526Y0071192D03*
X0124400Y0075129D03*
X0118494Y0065287D03*
X0100778Y0041665D03*
X0086998Y0035759D03*
X0072352Y0042294D03*
X0068415Y0042294D03*
X0068415Y0046231D03*
X0055502Y0029854D03*
X0039754Y0033791D03*
X0022037Y0018043D03*
X0037785Y0049539D03*
X0077156Y0023948D03*
X0088967Y0023948D03*
X0094872Y0018043D03*
X0118494Y0031822D03*
X0163770Y0010169D03*
X0189360Y0012137D03*
X0187392Y0031822D03*
X0173612Y0043633D03*
X0159833Y0075129D03*
X0165738Y0118436D03*
X0086998Y0090877D03*
X0070384Y0097326D03*
X0067313Y0100720D03*
X0067313Y0104657D03*
X0055502Y0100720D03*
X0039754Y0104657D03*
X0016132Y0090877D03*
X0027943Y0128279D03*
D18*
X0094872Y0110562D02*
X0096841Y0110562D01*
X0116526Y0090877D01*
X0116526Y0071192D01*
D19*
X0005578Y0005520D02*
X0004369Y0007184D01*
X0003733Y0009140D01*
X0003652Y0010169D01*
X0003652Y0136153D01*
X0003733Y0137181D01*
X0004369Y0139137D01*
X0005578Y0140801D01*
X0007242Y0142010D01*
X0009198Y0142646D01*
X0010226Y0142727D01*
X0053533Y0142727D01*
X0053533Y0125815D01*
X0053111Y0125990D01*
X0051672Y0125990D01*
X0050343Y0125439D01*
X0049326Y0124422D01*
X0048775Y0123093D01*
X0048775Y0122858D01*
X0043201Y0117284D01*
X0042759Y0116218D01*
X0042759Y0092269D01*
X0043201Y0091203D01*
X0044990Y0089413D01*
X0043200Y0090155D01*
X0040245Y0090155D01*
X0037515Y0089024D01*
X0035426Y0086935D01*
X0034295Y0084205D01*
X0034295Y0081250D01*
X0035426Y0078520D01*
X0037515Y0076431D01*
X0040245Y0075300D01*
X0043200Y0075300D01*
X0045930Y0076431D01*
X0048019Y0078520D01*
X0049150Y0081250D01*
X0049150Y0084205D01*
X0048408Y0085996D01*
X0049492Y0084912D01*
X0049492Y0053722D01*
X0049326Y0053556D01*
X0048775Y0052226D01*
X0048775Y0051992D01*
X0043201Y0046418D01*
X0042759Y0045352D01*
X0042759Y0021403D01*
X0043201Y0020337D01*
X0044991Y0018547D01*
X0043200Y0019289D01*
X0040245Y0019289D01*
X0037515Y0018158D01*
X0035426Y0016069D01*
X0034295Y0013339D01*
X0034295Y0010384D01*
X0035426Y0007654D01*
X0037515Y0005565D01*
X0040245Y0004434D01*
X0043200Y0004434D01*
X0045930Y0005565D01*
X0048019Y0007654D01*
X0049150Y0010384D01*
X0049150Y0013339D01*
X0048408Y0015129D01*
X0049106Y0014431D01*
X0049922Y0013616D01*
X0050988Y0013174D01*
X0063953Y0013174D01*
X0065019Y0013616D01*
X0078357Y0026954D01*
X0103323Y0026954D01*
X0104389Y0027395D01*
X0105205Y0028211D01*
X0121436Y0044442D01*
X0122310Y0044805D01*
X0123228Y0045722D01*
X0123725Y0046921D01*
X0123725Y0048219D01*
X0123228Y0049418D01*
X0122310Y0050336D01*
X0121111Y0050832D01*
X0119814Y0050832D01*
X0118615Y0050336D01*
X0117697Y0049418D01*
X0117335Y0048544D01*
X0101545Y0032754D01*
X0076579Y0032754D01*
X0075513Y0032312D01*
X0074697Y0031496D01*
X0062175Y0018974D01*
X0052766Y0018974D01*
X0051222Y0020518D01*
X0051672Y0020331D01*
X0053111Y0020331D01*
X0054440Y0020882D01*
X0055458Y0021899D01*
X0056008Y0023229D01*
X0056008Y0024667D01*
X0055458Y0025997D01*
X0054440Y0027014D01*
X0053111Y0027565D01*
X0051672Y0027565D01*
X0050343Y0027014D01*
X0049326Y0025997D01*
X0048775Y0024667D01*
X0048775Y0023229D01*
X0048962Y0022779D01*
X0048559Y0023181D01*
X0048559Y0043574D01*
X0052876Y0047891D01*
X0053111Y0047891D01*
X0054440Y0048441D01*
X0055458Y0049458D01*
X0056008Y0050788D01*
X0056008Y0052226D01*
X0055458Y0053556D01*
X0055292Y0053722D01*
X0055292Y0086690D01*
X0054850Y0087756D01*
X0051222Y0091384D01*
X0051672Y0091198D01*
X0053111Y0091198D01*
X0054440Y0091748D01*
X0055458Y0092766D01*
X0056008Y0094095D01*
X0056008Y0095534D01*
X0055458Y0096863D01*
X0054440Y0097880D01*
X0053111Y0098431D01*
X0051672Y0098431D01*
X0050343Y0097880D01*
X0049326Y0096863D01*
X0048775Y0095534D01*
X0048775Y0094095D01*
X0048962Y0093645D01*
X0048559Y0094047D01*
X0048559Y0114440D01*
X0052876Y0118757D01*
X0053111Y0118757D01*
X0054440Y0119307D01*
X0055238Y0120105D01*
X0194660Y0120105D01*
X0195977Y0119148D01*
X0197186Y0117484D01*
X0197822Y0115528D01*
X0197903Y0114499D01*
X0197903Y0010168D01*
X0197822Y0009140D01*
X0197186Y0007184D01*
X0195977Y0005520D01*
X0194313Y0004311D01*
X0192357Y0003675D01*
X0191329Y0003594D01*
X0010226Y0003594D01*
X0009198Y0003675D01*
X0007242Y0004311D01*
X0005578Y0005520D01*
X0005898Y0005287D02*
X0038185Y0005287D01*
X0037194Y0005886D02*
X0005312Y0005886D01*
X0004877Y0006484D02*
X0036596Y0006484D01*
X0035997Y0007083D02*
X0004443Y0007083D01*
X0004207Y0007681D02*
X0035414Y0007681D01*
X0035167Y0008280D02*
X0004013Y0008280D01*
X0003818Y0008878D02*
X0034919Y0008878D01*
X0034671Y0009477D02*
X0003707Y0009477D01*
X0003660Y0010075D02*
X0034423Y0010075D01*
X0034295Y0010674D02*
X0003652Y0010674D01*
X0003652Y0011272D02*
X0034295Y0011272D01*
X0034295Y0011871D02*
X0003652Y0011871D01*
X0003652Y0012469D02*
X0034295Y0012469D01*
X0034295Y0013068D02*
X0003652Y0013068D01*
X0003652Y0013666D02*
X0034430Y0013666D01*
X0034678Y0014265D02*
X0003652Y0014265D01*
X0003652Y0014863D02*
X0034926Y0014863D01*
X0035174Y0015462D02*
X0003652Y0015462D01*
X0003652Y0016060D02*
X0035422Y0016060D01*
X0036016Y0016659D02*
X0003652Y0016659D01*
X0003652Y0017257D02*
X0036614Y0017257D01*
X0037213Y0017856D02*
X0003652Y0017856D01*
X0003652Y0018454D02*
X0038230Y0018454D01*
X0039675Y0019053D02*
X0003652Y0019053D01*
X0003652Y0019651D02*
X0043886Y0019651D01*
X0043770Y0019053D02*
X0044485Y0019053D01*
X0043288Y0020250D02*
X0003652Y0020250D01*
X0003652Y0020848D02*
X0042989Y0020848D01*
X0042759Y0021447D02*
X0003652Y0021447D01*
X0003652Y0022045D02*
X0042759Y0022045D01*
X0042759Y0022644D02*
X0003652Y0022644D01*
X0003652Y0023242D02*
X0042759Y0023242D01*
X0042759Y0023841D02*
X0003652Y0023841D01*
X0003652Y0024439D02*
X0042759Y0024439D01*
X0042759Y0025038D02*
X0003652Y0025038D01*
X0003652Y0025636D02*
X0042759Y0025636D01*
X0042759Y0026235D02*
X0003652Y0026235D01*
X0003652Y0026833D02*
X0042759Y0026833D01*
X0042759Y0027432D02*
X0003652Y0027432D01*
X0003652Y0028030D02*
X0042759Y0028030D01*
X0042759Y0028629D02*
X0003652Y0028629D01*
X0003652Y0029227D02*
X0042759Y0029227D01*
X0042759Y0029826D02*
X0003652Y0029826D01*
X0003652Y0030425D02*
X0042759Y0030425D01*
X0042759Y0031023D02*
X0003652Y0031023D01*
X0003652Y0031622D02*
X0042759Y0031622D01*
X0042759Y0032220D02*
X0003652Y0032220D01*
X0003652Y0032819D02*
X0042759Y0032819D01*
X0042759Y0033417D02*
X0003652Y0033417D01*
X0003652Y0034016D02*
X0042759Y0034016D01*
X0042759Y0034614D02*
X0003652Y0034614D01*
X0003652Y0035213D02*
X0042759Y0035213D01*
X0042759Y0035811D02*
X0003652Y0035811D01*
X0003652Y0036410D02*
X0042759Y0036410D01*
X0042759Y0037008D02*
X0003652Y0037008D01*
X0003652Y0037607D02*
X0042759Y0037607D01*
X0042759Y0038205D02*
X0003652Y0038205D01*
X0003652Y0038804D02*
X0042759Y0038804D01*
X0042759Y0039402D02*
X0003652Y0039402D01*
X0003652Y0040001D02*
X0042759Y0040001D01*
X0042759Y0040599D02*
X0003652Y0040599D01*
X0003652Y0041198D02*
X0042759Y0041198D01*
X0042759Y0041796D02*
X0003652Y0041796D01*
X0003652Y0042395D02*
X0042759Y0042395D01*
X0042759Y0042993D02*
X0003652Y0042993D01*
X0003652Y0043592D02*
X0042759Y0043592D01*
X0042759Y0044190D02*
X0003652Y0044190D01*
X0003652Y0044789D02*
X0042759Y0044789D01*
X0042774Y0045387D02*
X0003652Y0045387D01*
X0003652Y0045986D02*
X0043022Y0045986D01*
X0043368Y0046584D02*
X0003652Y0046584D01*
X0003652Y0047183D02*
X0043966Y0047183D01*
X0044565Y0047781D02*
X0003652Y0047781D01*
X0003652Y0048380D02*
X0045163Y0048380D01*
X0045762Y0048978D02*
X0003652Y0048978D01*
X0003652Y0049577D02*
X0046360Y0049577D01*
X0046959Y0050175D02*
X0003652Y0050175D01*
X0003652Y0050774D02*
X0047557Y0050774D01*
X0048156Y0051372D02*
X0003652Y0051372D01*
X0003652Y0051971D02*
X0048754Y0051971D01*
X0048917Y0052569D02*
X0003652Y0052569D01*
X0003652Y0053168D02*
X0049165Y0053168D01*
X0049492Y0053766D02*
X0003652Y0053766D01*
X0003652Y0054365D02*
X0049492Y0054365D01*
X0049492Y0054963D02*
X0003652Y0054963D01*
X0003652Y0055562D02*
X0049492Y0055562D01*
X0049492Y0056161D02*
X0003652Y0056161D01*
X0003652Y0056759D02*
X0038814Y0056759D01*
X0037515Y0057297D02*
X0040245Y0056166D01*
X0043200Y0056166D01*
X0045930Y0057297D01*
X0048019Y0059386D01*
X0049150Y0062116D01*
X0049150Y0065071D01*
X0048019Y0067801D01*
X0045930Y0069890D01*
X0043200Y0071021D01*
X0040245Y0071021D01*
X0037515Y0069890D01*
X0035426Y0067801D01*
X0034295Y0065071D01*
X0034295Y0062116D01*
X0035426Y0059386D01*
X0037515Y0057297D01*
X0037454Y0057358D02*
X0003652Y0057358D01*
X0003652Y0057956D02*
X0036856Y0057956D01*
X0036257Y0058555D02*
X0003652Y0058555D01*
X0003652Y0059153D02*
X0035659Y0059153D01*
X0035274Y0059752D02*
X0003652Y0059752D01*
X0003652Y0060350D02*
X0035026Y0060350D01*
X0034779Y0060949D02*
X0003652Y0060949D01*
X0003652Y0061547D02*
X0034531Y0061547D01*
X0034295Y0062146D02*
X0003652Y0062146D01*
X0003652Y0062744D02*
X0034295Y0062744D01*
X0034295Y0063343D02*
X0003652Y0063343D01*
X0003652Y0063941D02*
X0034295Y0063941D01*
X0034295Y0064540D02*
X0003652Y0064540D01*
X0003652Y0065138D02*
X0034323Y0065138D01*
X0034571Y0065737D02*
X0003652Y0065737D01*
X0003652Y0066335D02*
X0034818Y0066335D01*
X0035066Y0066934D02*
X0003652Y0066934D01*
X0003652Y0067532D02*
X0035314Y0067532D01*
X0035755Y0068131D02*
X0003652Y0068131D01*
X0003652Y0068729D02*
X0036354Y0068729D01*
X0036952Y0069328D02*
X0003652Y0069328D01*
X0003652Y0069926D02*
X0037602Y0069926D01*
X0039046Y0070525D02*
X0003652Y0070525D01*
X0003652Y0071123D02*
X0049492Y0071123D01*
X0049492Y0070525D02*
X0044398Y0070525D01*
X0045843Y0069926D02*
X0049492Y0069926D01*
X0049492Y0069328D02*
X0046493Y0069328D01*
X0047091Y0068729D02*
X0049492Y0068729D01*
X0049492Y0068131D02*
X0047690Y0068131D01*
X0048131Y0067532D02*
X0049492Y0067532D01*
X0049492Y0066934D02*
X0048378Y0066934D01*
X0048626Y0066335D02*
X0049492Y0066335D01*
X0049492Y0065737D02*
X0048874Y0065737D01*
X0049122Y0065138D02*
X0049492Y0065138D01*
X0049492Y0064540D02*
X0049150Y0064540D01*
X0049150Y0063941D02*
X0049492Y0063941D01*
X0049492Y0063343D02*
X0049150Y0063343D01*
X0049150Y0062744D02*
X0049492Y0062744D01*
X0049492Y0062146D02*
X0049150Y0062146D01*
X0048914Y0061547D02*
X0049492Y0061547D01*
X0049492Y0060949D02*
X0048666Y0060949D01*
X0048418Y0060350D02*
X0049492Y0060350D01*
X0049492Y0059752D02*
X0048170Y0059752D01*
X0047786Y0059153D02*
X0049492Y0059153D01*
X0049492Y0058555D02*
X0047187Y0058555D01*
X0046589Y0057956D02*
X0049492Y0057956D01*
X0049492Y0057358D02*
X0045990Y0057358D01*
X0044631Y0056759D02*
X0049492Y0056759D01*
X0055292Y0056759D02*
X0197903Y0056759D01*
X0197903Y0056161D02*
X0055292Y0056161D01*
X0055292Y0055562D02*
X0197903Y0055562D01*
X0197903Y0054963D02*
X0055292Y0054963D01*
X0055292Y0054365D02*
X0132705Y0054365D01*
X0132731Y0054376D02*
X0130230Y0053340D01*
X0128315Y0051425D01*
X0127279Y0048924D01*
X0127279Y0046216D01*
X0128315Y0043715D01*
X0130230Y0041801D01*
X0132731Y0040765D01*
X0135438Y0040765D01*
X0137940Y0041801D01*
X0139854Y0043715D01*
X0140890Y0046216D01*
X0140890Y0048924D01*
X0139854Y0051425D01*
X0137940Y0053340D01*
X0135438Y0054376D01*
X0132731Y0054376D01*
X0131260Y0053766D02*
X0055292Y0053766D01*
X0055618Y0053168D02*
X0130058Y0053168D01*
X0129460Y0052569D02*
X0055866Y0052569D01*
X0056008Y0051971D02*
X0128861Y0051971D01*
X0128293Y0051372D02*
X0056008Y0051372D01*
X0056003Y0050774D02*
X0119673Y0050774D01*
X0118454Y0050175D02*
X0055755Y0050175D01*
X0055507Y0049577D02*
X0117856Y0049577D01*
X0117515Y0048978D02*
X0054978Y0048978D01*
X0054292Y0048380D02*
X0117171Y0048380D01*
X0116573Y0047781D02*
X0052767Y0047781D01*
X0052169Y0047183D02*
X0115974Y0047183D01*
X0115376Y0046584D02*
X0051570Y0046584D01*
X0050972Y0045986D02*
X0114777Y0045986D01*
X0114179Y0045387D02*
X0050373Y0045387D01*
X0050484Y0044789D02*
X0049775Y0044789D01*
X0050343Y0044731D02*
X0049326Y0043713D01*
X0048775Y0042384D01*
X0048775Y0040945D01*
X0049326Y0039616D01*
X0050343Y0038599D01*
X0051672Y0038048D01*
X0053111Y0038048D01*
X0054440Y0038599D01*
X0055458Y0039616D01*
X0056008Y0040945D01*
X0056008Y0042384D01*
X0055458Y0043713D01*
X0054440Y0044731D01*
X0053111Y0045281D01*
X0051672Y0045281D01*
X0050343Y0044731D01*
X0049803Y0044190D02*
X0049176Y0044190D01*
X0049276Y0043592D02*
X0048578Y0043592D01*
X0048559Y0042993D02*
X0049028Y0042993D01*
X0048780Y0042395D02*
X0048559Y0042395D01*
X0048559Y0041796D02*
X0048775Y0041796D01*
X0048775Y0041198D02*
X0048559Y0041198D01*
X0048559Y0040599D02*
X0048918Y0040599D01*
X0049166Y0040001D02*
X0048559Y0040001D01*
X0048559Y0039402D02*
X0049540Y0039402D01*
X0050138Y0038804D02*
X0048559Y0038804D01*
X0048559Y0038205D02*
X0051293Y0038205D01*
X0051672Y0037407D02*
X0050343Y0036856D01*
X0049326Y0035839D01*
X0048775Y0034510D01*
X0048775Y0033071D01*
X0049326Y0031742D01*
X0050343Y0030725D01*
X0051672Y0030174D01*
X0053111Y0030174D01*
X0054440Y0030725D01*
X0055458Y0031742D01*
X0056008Y0033071D01*
X0056008Y0034510D01*
X0055458Y0035839D01*
X0054440Y0036856D01*
X0053111Y0037407D01*
X0051672Y0037407D01*
X0050709Y0037008D02*
X0048559Y0037008D01*
X0048559Y0036410D02*
X0049896Y0036410D01*
X0049314Y0035811D02*
X0048559Y0035811D01*
X0048559Y0035213D02*
X0049066Y0035213D01*
X0048818Y0034614D02*
X0048559Y0034614D01*
X0048559Y0034016D02*
X0048775Y0034016D01*
X0048775Y0033417D02*
X0048559Y0033417D01*
X0048559Y0032819D02*
X0048880Y0032819D01*
X0049128Y0032220D02*
X0048559Y0032220D01*
X0048559Y0031622D02*
X0049446Y0031622D01*
X0050045Y0031023D02*
X0048559Y0031023D01*
X0048559Y0030425D02*
X0051068Y0030425D01*
X0048559Y0029826D02*
X0073027Y0029826D01*
X0073625Y0030425D02*
X0053716Y0030425D01*
X0054739Y0031023D02*
X0074224Y0031023D01*
X0074822Y0031622D02*
X0055337Y0031622D01*
X0055656Y0032220D02*
X0075421Y0032220D01*
X0072428Y0029227D02*
X0048559Y0029227D01*
X0048559Y0028629D02*
X0071830Y0028629D01*
X0071231Y0028030D02*
X0048559Y0028030D01*
X0048559Y0027432D02*
X0051352Y0027432D01*
X0050163Y0026833D02*
X0048559Y0026833D01*
X0048559Y0026235D02*
X0049564Y0026235D01*
X0049177Y0025636D02*
X0048559Y0025636D01*
X0048559Y0025038D02*
X0048929Y0025038D01*
X0048775Y0024439D02*
X0048559Y0024439D01*
X0048559Y0023841D02*
X0048775Y0023841D01*
X0048775Y0023242D02*
X0048559Y0023242D01*
X0051490Y0020250D02*
X0063451Y0020250D01*
X0064049Y0020848D02*
X0054359Y0020848D01*
X0055005Y0021447D02*
X0064648Y0021447D01*
X0065246Y0022045D02*
X0055518Y0022045D01*
X0055766Y0022644D02*
X0065845Y0022644D01*
X0066443Y0023242D02*
X0056008Y0023242D01*
X0056008Y0023841D02*
X0067042Y0023841D01*
X0067640Y0024439D02*
X0056008Y0024439D01*
X0055855Y0025038D02*
X0068239Y0025038D01*
X0068837Y0025636D02*
X0055607Y0025636D01*
X0055219Y0026235D02*
X0069436Y0026235D01*
X0070034Y0026833D02*
X0054621Y0026833D01*
X0053431Y0027432D02*
X0070633Y0027432D01*
X0075244Y0023841D02*
X0197903Y0023841D01*
X0197903Y0024439D02*
X0075843Y0024439D01*
X0076441Y0025038D02*
X0197903Y0025038D01*
X0197903Y0025636D02*
X0077040Y0025636D01*
X0077638Y0026235D02*
X0197903Y0026235D01*
X0197903Y0026833D02*
X0078237Y0026833D01*
X0074646Y0023242D02*
X0197903Y0023242D01*
X0197903Y0022644D02*
X0074047Y0022644D01*
X0073449Y0022045D02*
X0197903Y0022045D01*
X0197903Y0021447D02*
X0072850Y0021447D01*
X0072252Y0020848D02*
X0086616Y0020848D01*
X0086778Y0020874D02*
X0086031Y0020756D01*
X0085313Y0020522D01*
X0084640Y0020179D01*
X0084029Y0019735D01*
X0083494Y0019201D01*
X0083050Y0018590D01*
X0082707Y0017917D01*
X0082474Y0017198D01*
X0082356Y0016452D01*
X0082355Y0016374D01*
X0086855Y0016374D01*
X0086855Y0015774D01*
X0082356Y0015774D01*
X0082356Y0015696D01*
X0082474Y0014950D01*
X0082707Y0014231D01*
X0083050Y0013558D01*
X0083494Y0012947D01*
X0084029Y0012413D01*
X0084640Y0011969D01*
X0085313Y0011626D01*
X0086031Y0011392D01*
X0086778Y0011274D01*
X0086856Y0011274D01*
X0086856Y0015774D01*
X0087455Y0015774D01*
X0087455Y0011274D01*
X0087533Y0011274D01*
X0088280Y0011392D01*
X0088998Y0011626D01*
X0089671Y0011969D01*
X0090282Y0012413D01*
X0090817Y0012947D01*
X0091261Y0013558D01*
X0091604Y0014231D01*
X0091837Y0014950D01*
X0091955Y0015696D01*
X0091955Y0015774D01*
X0087456Y0015774D01*
X0087456Y0016374D01*
X0091955Y0016374D01*
X0091955Y0016452D01*
X0091837Y0017198D01*
X0091604Y0017917D01*
X0091261Y0018590D01*
X0090817Y0019201D01*
X0090282Y0019735D01*
X0089671Y0020179D01*
X0088998Y0020522D01*
X0088280Y0020756D01*
X0087533Y0020874D01*
X0087455Y0020874D01*
X0087455Y0016374D01*
X0086856Y0016374D01*
X0086856Y0020874D01*
X0086778Y0020874D01*
X0086856Y0020848D02*
X0087455Y0020848D01*
X0087695Y0020848D02*
X0112206Y0020848D01*
X0112368Y0020874D02*
X0111622Y0020756D01*
X0110903Y0020522D01*
X0110230Y0020179D01*
X0109619Y0019735D01*
X0109085Y0019201D01*
X0108641Y0018590D01*
X0108298Y0017917D01*
X0108064Y0017198D01*
X0107946Y0016452D01*
X0107946Y0016374D01*
X0112446Y0016374D01*
X0112446Y0015774D01*
X0107946Y0015774D01*
X0107946Y0015696D01*
X0108064Y0014950D01*
X0108298Y0014231D01*
X0108641Y0013558D01*
X0109085Y0012947D01*
X0109619Y0012413D01*
X0110230Y0011969D01*
X0110903Y0011626D01*
X0111622Y0011392D01*
X0112368Y0011274D01*
X0112446Y0011274D01*
X0112446Y0015774D01*
X0113046Y0015774D01*
X0113046Y0011274D01*
X0113124Y0011274D01*
X0113870Y0011392D01*
X0114589Y0011626D01*
X0115262Y0011969D01*
X0115873Y0012413D01*
X0116407Y0012947D01*
X0116851Y0013558D01*
X0117194Y0014231D01*
X0117428Y0014950D01*
X0117546Y0015696D01*
X0117546Y0015774D01*
X0113046Y0015774D01*
X0113046Y0016374D01*
X0112446Y0016374D01*
X0112446Y0020874D01*
X0112368Y0020874D01*
X0112446Y0020848D02*
X0113046Y0020848D01*
X0113046Y0020874D02*
X0113046Y0016374D01*
X0117546Y0016374D01*
X0117546Y0016452D01*
X0117428Y0017198D01*
X0117194Y0017917D01*
X0116851Y0018590D01*
X0116407Y0019201D01*
X0115873Y0019735D01*
X0115262Y0020179D01*
X0114589Y0020522D01*
X0113870Y0020756D01*
X0113124Y0020874D01*
X0113046Y0020874D01*
X0113286Y0020848D02*
X0125160Y0020848D01*
X0125256Y0020874D02*
X0124925Y0020785D01*
X0124629Y0020614D01*
X0124387Y0020372D01*
X0124216Y0020076D01*
X0124127Y0019745D01*
X0124127Y0016374D01*
X0128627Y0016374D01*
X0128627Y0015774D01*
X0124127Y0015774D01*
X0124127Y0012403D01*
X0124216Y0012072D01*
X0124387Y0011776D01*
X0124629Y0011534D01*
X0124925Y0011363D01*
X0125256Y0011274D01*
X0128627Y0011274D01*
X0128627Y0015774D01*
X0129227Y0015774D01*
X0129227Y0011274D01*
X0132598Y0011274D01*
X0132929Y0011363D01*
X0133225Y0011534D01*
X0133467Y0011776D01*
X0133639Y0012072D01*
X0133727Y0012403D01*
X0133727Y0015774D01*
X0129227Y0015774D01*
X0129227Y0016374D01*
X0128627Y0016374D01*
X0128627Y0020874D01*
X0125256Y0020874D01*
X0124316Y0020250D02*
X0115123Y0020250D01*
X0115957Y0019651D02*
X0124127Y0019651D01*
X0124127Y0019053D02*
X0116515Y0019053D01*
X0116920Y0018454D02*
X0124127Y0018454D01*
X0124127Y0017856D02*
X0117214Y0017856D01*
X0117409Y0017257D02*
X0124127Y0017257D01*
X0124127Y0016659D02*
X0117513Y0016659D01*
X0117509Y0015462D02*
X0124127Y0015462D01*
X0124127Y0014863D02*
X0117400Y0014863D01*
X0117205Y0014265D02*
X0124127Y0014265D01*
X0124127Y0013666D02*
X0116906Y0013666D01*
X0116495Y0013068D02*
X0124127Y0013068D01*
X0124127Y0012469D02*
X0115929Y0012469D01*
X0115069Y0011871D02*
X0124332Y0011871D01*
X0128627Y0011871D02*
X0129227Y0011871D01*
X0129227Y0012469D02*
X0128627Y0012469D01*
X0128627Y0013068D02*
X0129227Y0013068D01*
X0129227Y0013666D02*
X0128627Y0013666D01*
X0128627Y0014265D02*
X0129227Y0014265D01*
X0129227Y0014863D02*
X0128627Y0014863D01*
X0128627Y0015462D02*
X0129227Y0015462D01*
X0129227Y0016060D02*
X0134527Y0016060D01*
X0134527Y0015462D02*
X0133727Y0015462D01*
X0133727Y0014863D02*
X0134666Y0014863D01*
X0134527Y0015199D02*
X0135197Y0013582D01*
X0136435Y0012344D01*
X0138052Y0011674D01*
X0139802Y0011674D01*
X0141420Y0012344D01*
X0142657Y0013582D01*
X0143327Y0015199D01*
X0143327Y0016949D01*
X0142657Y0018566D01*
X0141420Y0019804D01*
X0139802Y0020474D01*
X0138052Y0020474D01*
X0136435Y0019804D01*
X0135197Y0018566D01*
X0134527Y0016949D01*
X0134527Y0015199D01*
X0134914Y0014265D02*
X0133727Y0014265D01*
X0133727Y0013666D02*
X0135162Y0013666D01*
X0135711Y0013068D02*
X0133727Y0013068D01*
X0133727Y0012469D02*
X0136309Y0012469D01*
X0137577Y0011871D02*
X0133522Y0011871D01*
X0133727Y0016374D02*
X0129227Y0016374D01*
X0129227Y0020874D01*
X0132598Y0020874D01*
X0132929Y0020785D01*
X0133225Y0020614D01*
X0133467Y0020372D01*
X0133639Y0020076D01*
X0133727Y0019745D01*
X0133727Y0016374D01*
X0133727Y0016659D02*
X0134527Y0016659D01*
X0134655Y0017257D02*
X0133727Y0017257D01*
X0133727Y0017856D02*
X0134903Y0017856D01*
X0135151Y0018454D02*
X0133727Y0018454D01*
X0133727Y0019053D02*
X0135683Y0019053D01*
X0136282Y0019651D02*
X0133727Y0019651D01*
X0133538Y0020250D02*
X0137511Y0020250D01*
X0140344Y0020250D02*
X0147511Y0020250D01*
X0148052Y0020474D02*
X0146435Y0019804D01*
X0145197Y0018566D01*
X0144527Y0016949D01*
X0144527Y0015199D01*
X0145197Y0013582D01*
X0146435Y0012344D01*
X0148052Y0011674D01*
X0149802Y0011674D01*
X0151420Y0012344D01*
X0152657Y0013582D01*
X0153327Y0015199D01*
X0153327Y0016949D01*
X0152657Y0018566D01*
X0151420Y0019804D01*
X0149802Y0020474D01*
X0148052Y0020474D01*
X0146282Y0019651D02*
X0141572Y0019651D01*
X0142171Y0019053D02*
X0145683Y0019053D01*
X0145151Y0018454D02*
X0142704Y0018454D01*
X0142952Y0017856D02*
X0144903Y0017856D01*
X0144655Y0017257D02*
X0143200Y0017257D01*
X0143327Y0016659D02*
X0144527Y0016659D01*
X0144527Y0016060D02*
X0143327Y0016060D01*
X0143327Y0015462D02*
X0144527Y0015462D01*
X0144666Y0014863D02*
X0143188Y0014863D01*
X0142940Y0014265D02*
X0144914Y0014265D01*
X0145162Y0013666D02*
X0142692Y0013666D01*
X0142143Y0013068D02*
X0145711Y0013068D01*
X0146309Y0012469D02*
X0141545Y0012469D01*
X0140277Y0011871D02*
X0147577Y0011871D01*
X0150277Y0011871D02*
X0157577Y0011871D01*
X0158052Y0011674D02*
X0159802Y0011674D01*
X0161420Y0012344D01*
X0162657Y0013582D01*
X0163327Y0015199D01*
X0163327Y0016949D01*
X0162657Y0018566D01*
X0161420Y0019804D01*
X0159802Y0020474D01*
X0158052Y0020474D01*
X0156435Y0019804D01*
X0155197Y0018566D01*
X0154527Y0016949D01*
X0154527Y0015199D01*
X0155197Y0013582D01*
X0156435Y0012344D01*
X0158052Y0011674D01*
X0156309Y0012469D02*
X0151545Y0012469D01*
X0152143Y0013068D02*
X0155711Y0013068D01*
X0155162Y0013666D02*
X0152692Y0013666D01*
X0152940Y0014265D02*
X0154914Y0014265D01*
X0154666Y0014863D02*
X0153188Y0014863D01*
X0153327Y0015462D02*
X0154527Y0015462D01*
X0154527Y0016060D02*
X0153327Y0016060D01*
X0153327Y0016659D02*
X0154527Y0016659D01*
X0154655Y0017257D02*
X0153200Y0017257D01*
X0152952Y0017856D02*
X0154903Y0017856D01*
X0155151Y0018454D02*
X0152704Y0018454D01*
X0152171Y0019053D02*
X0155683Y0019053D01*
X0156282Y0019651D02*
X0151572Y0019651D01*
X0150344Y0020250D02*
X0157511Y0020250D01*
X0160344Y0020250D02*
X0167511Y0020250D01*
X0168052Y0020474D02*
X0166435Y0019804D01*
X0165197Y0018566D01*
X0164527Y0016949D01*
X0164527Y0015199D01*
X0165197Y0013582D01*
X0166435Y0012344D01*
X0168052Y0011674D01*
X0169802Y0011674D01*
X0171420Y0012344D01*
X0172657Y0013582D01*
X0173327Y0015199D01*
X0173327Y0016949D01*
X0172657Y0018566D01*
X0171420Y0019804D01*
X0169802Y0020474D01*
X0168052Y0020474D01*
X0166282Y0019651D02*
X0161572Y0019651D01*
X0162171Y0019053D02*
X0165683Y0019053D01*
X0165151Y0018454D02*
X0162704Y0018454D01*
X0162952Y0017856D02*
X0164903Y0017856D01*
X0164655Y0017257D02*
X0163200Y0017257D01*
X0163327Y0016659D02*
X0164527Y0016659D01*
X0164527Y0016060D02*
X0163327Y0016060D01*
X0163327Y0015462D02*
X0164527Y0015462D01*
X0164666Y0014863D02*
X0163188Y0014863D01*
X0162940Y0014265D02*
X0164914Y0014265D01*
X0165162Y0013666D02*
X0162692Y0013666D01*
X0162143Y0013068D02*
X0165711Y0013068D01*
X0166309Y0012469D02*
X0161545Y0012469D01*
X0160277Y0011871D02*
X0167577Y0011871D01*
X0170277Y0011871D02*
X0177577Y0011871D01*
X0178052Y0011674D02*
X0179802Y0011674D01*
X0181420Y0012344D01*
X0182657Y0013582D01*
X0183327Y0015199D01*
X0183327Y0016949D01*
X0182657Y0018566D01*
X0181420Y0019804D01*
X0179802Y0020474D01*
X0178052Y0020474D01*
X0176435Y0019804D01*
X0175197Y0018566D01*
X0174527Y0016949D01*
X0174527Y0015199D01*
X0175197Y0013582D01*
X0176435Y0012344D01*
X0178052Y0011674D01*
X0176309Y0012469D02*
X0171545Y0012469D01*
X0172143Y0013068D02*
X0175711Y0013068D01*
X0175162Y0013666D02*
X0172692Y0013666D01*
X0172940Y0014265D02*
X0174914Y0014265D01*
X0174666Y0014863D02*
X0173188Y0014863D01*
X0173327Y0015462D02*
X0174527Y0015462D01*
X0174527Y0016060D02*
X0173327Y0016060D01*
X0173327Y0016659D02*
X0174527Y0016659D01*
X0174655Y0017257D02*
X0173200Y0017257D01*
X0172952Y0017856D02*
X0174903Y0017856D01*
X0175151Y0018454D02*
X0172704Y0018454D01*
X0172171Y0019053D02*
X0175683Y0019053D01*
X0176282Y0019651D02*
X0171572Y0019651D01*
X0170344Y0020250D02*
X0177511Y0020250D01*
X0180344Y0020250D02*
X0197903Y0020250D01*
X0197903Y0020848D02*
X0132694Y0020848D01*
X0129227Y0020848D02*
X0128627Y0020848D01*
X0128627Y0020250D02*
X0129227Y0020250D01*
X0129227Y0019651D02*
X0128627Y0019651D01*
X0128627Y0019053D02*
X0129227Y0019053D01*
X0129227Y0018454D02*
X0128627Y0018454D01*
X0128627Y0017856D02*
X0129227Y0017856D01*
X0129227Y0017257D02*
X0128627Y0017257D01*
X0128627Y0016659D02*
X0129227Y0016659D01*
X0128627Y0016060D02*
X0113046Y0016060D01*
X0113046Y0015462D02*
X0112446Y0015462D01*
X0112446Y0016060D02*
X0107146Y0016060D01*
X0107146Y0015462D02*
X0107983Y0015462D01*
X0108092Y0014863D02*
X0107007Y0014863D01*
X0107146Y0015199D02*
X0106476Y0013582D01*
X0105238Y0012344D01*
X0103621Y0011674D01*
X0101871Y0011674D01*
X0100254Y0012344D01*
X0099016Y0013582D01*
X0098346Y0015199D01*
X0098346Y0016949D01*
X0099016Y0018566D01*
X0100254Y0019804D01*
X0101871Y0020474D01*
X0103621Y0020474D01*
X0105238Y0019804D01*
X0106476Y0018566D01*
X0107146Y0016949D01*
X0107146Y0015199D01*
X0106759Y0014265D02*
X0108287Y0014265D01*
X0108586Y0013666D02*
X0106511Y0013666D01*
X0105962Y0013068D02*
X0108997Y0013068D01*
X0109563Y0012469D02*
X0105364Y0012469D01*
X0104096Y0011871D02*
X0110423Y0011871D01*
X0112446Y0011871D02*
X0113046Y0011871D01*
X0113046Y0012469D02*
X0112446Y0012469D01*
X0112446Y0013068D02*
X0113046Y0013068D01*
X0113046Y0013666D02*
X0112446Y0013666D01*
X0112446Y0014265D02*
X0113046Y0014265D01*
X0113046Y0014863D02*
X0112446Y0014863D01*
X0112446Y0016659D02*
X0113046Y0016659D01*
X0113046Y0017257D02*
X0112446Y0017257D01*
X0112446Y0017856D02*
X0113046Y0017856D01*
X0113046Y0018454D02*
X0112446Y0018454D01*
X0112446Y0019053D02*
X0113046Y0019053D01*
X0113046Y0019651D02*
X0112446Y0019651D01*
X0112446Y0020250D02*
X0113046Y0020250D01*
X0110369Y0020250D02*
X0104162Y0020250D01*
X0105391Y0019651D02*
X0109535Y0019651D01*
X0108977Y0019053D02*
X0105990Y0019053D01*
X0106523Y0018454D02*
X0108572Y0018454D01*
X0108278Y0017856D02*
X0106771Y0017856D01*
X0107018Y0017257D02*
X0108084Y0017257D01*
X0107979Y0016659D02*
X0107146Y0016659D01*
X0101330Y0020250D02*
X0089533Y0020250D01*
X0090366Y0019651D02*
X0100101Y0019651D01*
X0099502Y0019053D02*
X0090924Y0019053D01*
X0091330Y0018454D02*
X0098969Y0018454D01*
X0098722Y0017856D02*
X0091624Y0017856D01*
X0091818Y0017257D02*
X0098474Y0017257D01*
X0098346Y0016659D02*
X0091923Y0016659D01*
X0091918Y0015462D02*
X0098346Y0015462D01*
X0098346Y0016060D02*
X0087456Y0016060D01*
X0087455Y0015462D02*
X0086856Y0015462D01*
X0086855Y0016060D02*
X0081555Y0016060D01*
X0081555Y0015462D02*
X0082393Y0015462D01*
X0082502Y0014863D02*
X0081416Y0014863D01*
X0081555Y0015199D02*
X0080886Y0013582D01*
X0079648Y0012344D01*
X0078031Y0011674D01*
X0076280Y0011674D01*
X0074663Y0012344D01*
X0073425Y0013582D01*
X0072756Y0015199D01*
X0072756Y0016949D01*
X0073425Y0018566D01*
X0074663Y0019804D01*
X0076280Y0020474D01*
X0078031Y0020474D01*
X0079648Y0019804D01*
X0080886Y0018566D01*
X0081555Y0016949D01*
X0081555Y0015199D01*
X0081169Y0014265D02*
X0082696Y0014265D01*
X0082995Y0013666D02*
X0080921Y0013666D01*
X0080372Y0013068D02*
X0083407Y0013068D01*
X0083972Y0012469D02*
X0079773Y0012469D01*
X0078505Y0011871D02*
X0084832Y0011871D01*
X0086856Y0011871D02*
X0087455Y0011871D01*
X0087455Y0012469D02*
X0086856Y0012469D01*
X0086856Y0013068D02*
X0087455Y0013068D01*
X0087455Y0013666D02*
X0086856Y0013666D01*
X0086856Y0014265D02*
X0087455Y0014265D01*
X0087455Y0014863D02*
X0086856Y0014863D01*
X0086856Y0016659D02*
X0087455Y0016659D01*
X0087455Y0017257D02*
X0086856Y0017257D01*
X0086856Y0017856D02*
X0087455Y0017856D01*
X0087455Y0018454D02*
X0086856Y0018454D01*
X0086856Y0019053D02*
X0087455Y0019053D01*
X0087455Y0019651D02*
X0086856Y0019651D01*
X0086856Y0020250D02*
X0087455Y0020250D01*
X0084778Y0020250D02*
X0078572Y0020250D01*
X0079801Y0019651D02*
X0083945Y0019651D01*
X0083387Y0019053D02*
X0080399Y0019053D01*
X0080932Y0018454D02*
X0082981Y0018454D01*
X0082687Y0017856D02*
X0081180Y0017856D01*
X0081428Y0017257D02*
X0082493Y0017257D01*
X0082388Y0016659D02*
X0081555Y0016659D01*
X0075739Y0020250D02*
X0071653Y0020250D01*
X0071055Y0019651D02*
X0074510Y0019651D01*
X0073912Y0019053D02*
X0070456Y0019053D01*
X0069857Y0018454D02*
X0073379Y0018454D01*
X0073131Y0017856D02*
X0069259Y0017856D01*
X0068660Y0017257D02*
X0072883Y0017257D01*
X0072756Y0016659D02*
X0068062Y0016659D01*
X0067463Y0016060D02*
X0072756Y0016060D01*
X0072756Y0015462D02*
X0066865Y0015462D01*
X0066266Y0014863D02*
X0072895Y0014863D01*
X0073142Y0014265D02*
X0065668Y0014265D01*
X0065069Y0013666D02*
X0073390Y0013666D01*
X0073939Y0013068D02*
X0049150Y0013068D01*
X0049150Y0012469D02*
X0074538Y0012469D01*
X0075806Y0011871D02*
X0049150Y0011871D01*
X0049150Y0011272D02*
X0197903Y0011272D01*
X0197903Y0010674D02*
X0049150Y0010674D01*
X0049022Y0010075D02*
X0197895Y0010075D01*
X0197848Y0009477D02*
X0048774Y0009477D01*
X0048526Y0008878D02*
X0197737Y0008878D01*
X0197542Y0008280D02*
X0048278Y0008280D01*
X0048030Y0007681D02*
X0197348Y0007681D01*
X0197113Y0007083D02*
X0047448Y0007083D01*
X0046849Y0006484D02*
X0196678Y0006484D01*
X0196243Y0005886D02*
X0046251Y0005886D01*
X0045260Y0005287D02*
X0195657Y0005287D01*
X0194833Y0004689D02*
X0043815Y0004689D01*
X0039630Y0004689D02*
X0006722Y0004689D01*
X0007922Y0004090D02*
X0193633Y0004090D01*
X0197903Y0011871D02*
X0180277Y0011871D01*
X0181545Y0012469D02*
X0197903Y0012469D01*
X0197903Y0013068D02*
X0182143Y0013068D01*
X0182692Y0013666D02*
X0197903Y0013666D01*
X0197903Y0014265D02*
X0182940Y0014265D01*
X0183188Y0014863D02*
X0197903Y0014863D01*
X0197903Y0015462D02*
X0183327Y0015462D01*
X0183327Y0016060D02*
X0197903Y0016060D01*
X0197903Y0016659D02*
X0183327Y0016659D01*
X0183200Y0017257D02*
X0197903Y0017257D01*
X0197903Y0017856D02*
X0182952Y0017856D01*
X0182704Y0018454D02*
X0197903Y0018454D01*
X0197903Y0019053D02*
X0182171Y0019053D01*
X0181572Y0019651D02*
X0197903Y0019651D01*
X0197903Y0027432D02*
X0104426Y0027432D01*
X0105024Y0028030D02*
X0197903Y0028030D01*
X0197903Y0028629D02*
X0105623Y0028629D01*
X0105205Y0028211D02*
X0105205Y0028211D01*
X0106221Y0029227D02*
X0197903Y0029227D01*
X0197903Y0029826D02*
X0106820Y0029826D01*
X0107418Y0030425D02*
X0197903Y0030425D01*
X0197903Y0031023D02*
X0108017Y0031023D01*
X0108615Y0031622D02*
X0197903Y0031622D01*
X0197903Y0032220D02*
X0109214Y0032220D01*
X0109812Y0032819D02*
X0197903Y0032819D01*
X0197903Y0033417D02*
X0110411Y0033417D01*
X0111009Y0034016D02*
X0197903Y0034016D01*
X0197903Y0034614D02*
X0111608Y0034614D01*
X0112206Y0035213D02*
X0197903Y0035213D01*
X0197903Y0035811D02*
X0112805Y0035811D01*
X0113403Y0036410D02*
X0197903Y0036410D01*
X0197903Y0037008D02*
X0114002Y0037008D01*
X0114600Y0037607D02*
X0197903Y0037607D01*
X0197903Y0038205D02*
X0115199Y0038205D01*
X0115797Y0038804D02*
X0197903Y0038804D01*
X0197903Y0039402D02*
X0116396Y0039402D01*
X0116994Y0040001D02*
X0197903Y0040001D01*
X0197903Y0040599D02*
X0155909Y0040599D01*
X0155493Y0040488D02*
X0156406Y0040732D01*
X0157278Y0041094D01*
X0158096Y0041566D01*
X0158846Y0042141D01*
X0159514Y0042809D01*
X0160089Y0043558D01*
X0160561Y0044376D01*
X0160922Y0045249D01*
X0161167Y0046161D01*
X0161290Y0047098D01*
X0161290Y0047270D01*
X0154385Y0047270D01*
X0154385Y0047870D01*
X0161290Y0047870D01*
X0161290Y0048042D01*
X0161167Y0048979D01*
X0160922Y0049891D01*
X0160561Y0050764D01*
X0160089Y0051582D01*
X0159514Y0052331D01*
X0158846Y0052999D01*
X0158096Y0053574D01*
X0157278Y0054046D01*
X0156406Y0054408D01*
X0155493Y0054652D01*
X0154557Y0054776D01*
X0154385Y0054776D01*
X0154385Y0047870D01*
X0153785Y0047870D01*
X0153785Y0054776D01*
X0153612Y0054776D01*
X0152676Y0054652D01*
X0151764Y0054408D01*
X0150891Y0054046D01*
X0150073Y0053574D01*
X0149324Y0052999D01*
X0148656Y0052331D01*
X0148081Y0051582D01*
X0147608Y0050764D01*
X0147247Y0049891D01*
X0147002Y0048979D01*
X0146879Y0048042D01*
X0146879Y0047870D01*
X0153785Y0047870D01*
X0153785Y0047270D01*
X0154385Y0047270D01*
X0154385Y0040365D01*
X0154557Y0040365D01*
X0155493Y0040488D01*
X0154385Y0040599D02*
X0153785Y0040599D01*
X0153785Y0040365D02*
X0153785Y0047270D01*
X0146879Y0047270D01*
X0146879Y0047098D01*
X0147002Y0046161D01*
X0147247Y0045249D01*
X0147608Y0044376D01*
X0148081Y0043558D01*
X0148656Y0042809D01*
X0149324Y0042141D01*
X0150073Y0041566D01*
X0150891Y0041094D01*
X0151764Y0040732D01*
X0152676Y0040488D01*
X0153612Y0040365D01*
X0153785Y0040365D01*
X0153785Y0041198D02*
X0154385Y0041198D01*
X0154385Y0041796D02*
X0153785Y0041796D01*
X0153785Y0042395D02*
X0154385Y0042395D01*
X0154385Y0042993D02*
X0153785Y0042993D01*
X0153785Y0043592D02*
X0154385Y0043592D01*
X0154385Y0044190D02*
X0153785Y0044190D01*
X0153785Y0044789D02*
X0154385Y0044789D01*
X0154385Y0045387D02*
X0153785Y0045387D01*
X0153785Y0045986D02*
X0154385Y0045986D01*
X0154385Y0046584D02*
X0153785Y0046584D01*
X0153785Y0047183D02*
X0154385Y0047183D01*
X0154385Y0047781D02*
X0197903Y0047781D01*
X0197903Y0047183D02*
X0161290Y0047183D01*
X0161223Y0046584D02*
X0197903Y0046584D01*
X0197903Y0045986D02*
X0161120Y0045986D01*
X0160959Y0045387D02*
X0197903Y0045387D01*
X0197903Y0044789D02*
X0160732Y0044789D01*
X0160454Y0044190D02*
X0197903Y0044190D01*
X0197903Y0043592D02*
X0160108Y0043592D01*
X0159655Y0042993D02*
X0197903Y0042993D01*
X0197903Y0042395D02*
X0159099Y0042395D01*
X0158396Y0041796D02*
X0197903Y0041796D01*
X0197903Y0041198D02*
X0157458Y0041198D01*
X0152260Y0040599D02*
X0117593Y0040599D01*
X0118191Y0041198D02*
X0131685Y0041198D01*
X0130240Y0041796D02*
X0118790Y0041796D01*
X0119388Y0042395D02*
X0129636Y0042395D01*
X0129037Y0042993D02*
X0119987Y0042993D01*
X0120585Y0043592D02*
X0128438Y0043592D01*
X0128118Y0044190D02*
X0121184Y0044190D01*
X0122273Y0044789D02*
X0127870Y0044789D01*
X0127623Y0045387D02*
X0122893Y0045387D01*
X0123337Y0045986D02*
X0127375Y0045986D01*
X0127279Y0046584D02*
X0123585Y0046584D01*
X0123725Y0047183D02*
X0127279Y0047183D01*
X0127279Y0047781D02*
X0123725Y0047781D01*
X0123658Y0048380D02*
X0127279Y0048380D01*
X0127302Y0048978D02*
X0123410Y0048978D01*
X0123069Y0049577D02*
X0127550Y0049577D01*
X0127798Y0050175D02*
X0122471Y0050175D01*
X0121252Y0050774D02*
X0128045Y0050774D01*
X0135464Y0054365D02*
X0151660Y0054365D01*
X0150406Y0053766D02*
X0136909Y0053766D01*
X0138111Y0053168D02*
X0149544Y0053168D01*
X0148894Y0052569D02*
X0138710Y0052569D01*
X0139308Y0051971D02*
X0148379Y0051971D01*
X0147960Y0051372D02*
X0139876Y0051372D01*
X0140124Y0050774D02*
X0147614Y0050774D01*
X0147365Y0050175D02*
X0140372Y0050175D01*
X0140620Y0049577D02*
X0147163Y0049577D01*
X0147002Y0048978D02*
X0140868Y0048978D01*
X0140890Y0048380D02*
X0146924Y0048380D01*
X0146879Y0047183D02*
X0140890Y0047183D01*
X0140890Y0047781D02*
X0153785Y0047781D01*
X0153785Y0048380D02*
X0154385Y0048380D01*
X0154385Y0048978D02*
X0153785Y0048978D01*
X0153785Y0049577D02*
X0154385Y0049577D01*
X0154385Y0050175D02*
X0153785Y0050175D01*
X0153785Y0050774D02*
X0154385Y0050774D01*
X0154385Y0051372D02*
X0153785Y0051372D01*
X0153785Y0051971D02*
X0154385Y0051971D01*
X0154385Y0052569D02*
X0153785Y0052569D01*
X0153785Y0053168D02*
X0154385Y0053168D01*
X0154385Y0053766D02*
X0153785Y0053766D01*
X0153785Y0054365D02*
X0154385Y0054365D01*
X0156509Y0054365D02*
X0197903Y0054365D01*
X0197903Y0053766D02*
X0157763Y0053766D01*
X0158626Y0053168D02*
X0197903Y0053168D01*
X0197903Y0052569D02*
X0159275Y0052569D01*
X0159790Y0051971D02*
X0197903Y0051971D01*
X0197903Y0051372D02*
X0160210Y0051372D01*
X0160555Y0050774D02*
X0197903Y0050774D01*
X0197903Y0050175D02*
X0160805Y0050175D01*
X0161007Y0049577D02*
X0197903Y0049577D01*
X0197903Y0048978D02*
X0161167Y0048978D01*
X0161246Y0048380D02*
X0197903Y0048380D01*
X0197903Y0057358D02*
X0055292Y0057358D01*
X0055292Y0057956D02*
X0197903Y0057956D01*
X0197903Y0058555D02*
X0055292Y0058555D01*
X0055292Y0059153D02*
X0197903Y0059153D01*
X0197903Y0059752D02*
X0055292Y0059752D01*
X0055292Y0060350D02*
X0197903Y0060350D01*
X0197903Y0060949D02*
X0055292Y0060949D01*
X0055292Y0061547D02*
X0197903Y0061547D01*
X0197903Y0062146D02*
X0055292Y0062146D01*
X0055292Y0062744D02*
X0197903Y0062744D01*
X0197903Y0063343D02*
X0055292Y0063343D01*
X0055292Y0063941D02*
X0197903Y0063941D01*
X0197903Y0064540D02*
X0055292Y0064540D01*
X0055292Y0065138D02*
X0197903Y0065138D01*
X0197903Y0065737D02*
X0055292Y0065737D01*
X0055292Y0066335D02*
X0197903Y0066335D01*
X0197903Y0066934D02*
X0055292Y0066934D01*
X0055292Y0067532D02*
X0197903Y0067532D01*
X0197903Y0068131D02*
X0055292Y0068131D01*
X0055292Y0068729D02*
X0197903Y0068729D01*
X0197903Y0069328D02*
X0117757Y0069328D01*
X0117432Y0069003D02*
X0115619Y0069003D01*
X0114337Y0070285D01*
X0114337Y0072099D01*
X0114826Y0072588D01*
X0114826Y0090173D01*
X0096272Y0108727D01*
X0095820Y0108275D01*
X0093925Y0108275D01*
X0092585Y0109615D01*
X0092585Y0111510D01*
X0093925Y0112850D01*
X0095820Y0112850D01*
X0096407Y0112262D01*
X0097545Y0112262D01*
X0098541Y0111266D01*
X0118226Y0091581D01*
X0118226Y0072588D01*
X0118715Y0072099D01*
X0118715Y0070285D01*
X0117432Y0069003D01*
X0118355Y0069926D02*
X0197903Y0069926D01*
X0197903Y0070525D02*
X0118715Y0070525D01*
X0118715Y0071123D02*
X0197903Y0071123D01*
X0197903Y0071722D02*
X0118715Y0071722D01*
X0118493Y0072320D02*
X0197903Y0072320D01*
X0197903Y0072919D02*
X0118226Y0072919D01*
X0118226Y0073517D02*
X0197903Y0073517D01*
X0197903Y0074116D02*
X0118226Y0074116D01*
X0118226Y0074714D02*
X0197903Y0074714D01*
X0197903Y0075313D02*
X0118226Y0075313D01*
X0118226Y0075911D02*
X0197903Y0075911D01*
X0197903Y0076510D02*
X0118226Y0076510D01*
X0118226Y0077108D02*
X0197903Y0077108D01*
X0197903Y0077707D02*
X0118226Y0077707D01*
X0118226Y0078305D02*
X0197903Y0078305D01*
X0197903Y0078904D02*
X0118226Y0078904D01*
X0118226Y0079502D02*
X0197903Y0079502D01*
X0197903Y0080101D02*
X0118226Y0080101D01*
X0118226Y0080699D02*
X0197903Y0080699D01*
X0197903Y0081298D02*
X0118226Y0081298D01*
X0118226Y0081896D02*
X0197903Y0081896D01*
X0197903Y0082495D02*
X0118226Y0082495D01*
X0118226Y0083094D02*
X0197903Y0083094D01*
X0197903Y0083692D02*
X0118226Y0083692D01*
X0118226Y0084291D02*
X0197903Y0084291D01*
X0197903Y0084889D02*
X0118226Y0084889D01*
X0118226Y0085488D02*
X0197903Y0085488D01*
X0197903Y0086086D02*
X0118226Y0086086D01*
X0118226Y0086685D02*
X0197903Y0086685D01*
X0197903Y0087283D02*
X0118226Y0087283D01*
X0118226Y0087882D02*
X0197903Y0087882D01*
X0197903Y0088480D02*
X0118226Y0088480D01*
X0118226Y0089079D02*
X0197903Y0089079D01*
X0197903Y0089677D02*
X0118226Y0089677D01*
X0118226Y0090276D02*
X0197903Y0090276D01*
X0197903Y0090874D02*
X0118226Y0090874D01*
X0118226Y0091473D02*
X0197903Y0091473D01*
X0197903Y0092071D02*
X0117736Y0092071D01*
X0117137Y0092670D02*
X0197903Y0092670D01*
X0197903Y0093268D02*
X0116539Y0093268D01*
X0115940Y0093867D02*
X0197903Y0093867D01*
X0197903Y0094465D02*
X0115342Y0094465D01*
X0114743Y0095064D02*
X0197903Y0095064D01*
X0197903Y0095662D02*
X0114145Y0095662D01*
X0113546Y0096261D02*
X0197903Y0096261D01*
X0197903Y0096859D02*
X0112948Y0096859D01*
X0112349Y0097458D02*
X0197903Y0097458D01*
X0197903Y0098056D02*
X0111751Y0098056D01*
X0111152Y0098655D02*
X0197903Y0098655D01*
X0197903Y0099253D02*
X0110554Y0099253D01*
X0109955Y0099852D02*
X0197903Y0099852D01*
X0197903Y0100450D02*
X0109357Y0100450D01*
X0108758Y0101049D02*
X0197903Y0101049D01*
X0197903Y0101647D02*
X0108160Y0101647D01*
X0107561Y0102246D02*
X0197903Y0102246D01*
X0197903Y0102844D02*
X0106963Y0102844D01*
X0106364Y0103443D02*
X0197903Y0103443D01*
X0197903Y0104041D02*
X0105765Y0104041D01*
X0105167Y0104640D02*
X0197903Y0104640D01*
X0197903Y0105238D02*
X0104568Y0105238D01*
X0103970Y0105837D02*
X0197903Y0105837D01*
X0197903Y0106435D02*
X0103371Y0106435D01*
X0102773Y0107034D02*
X0197903Y0107034D01*
X0197903Y0107632D02*
X0102174Y0107632D01*
X0101576Y0108231D02*
X0197903Y0108231D01*
X0197903Y0108830D02*
X0100977Y0108830D01*
X0100379Y0109428D02*
X0197903Y0109428D01*
X0197903Y0110027D02*
X0099780Y0110027D01*
X0099182Y0110625D02*
X0197903Y0110625D01*
X0197903Y0111224D02*
X0098583Y0111224D01*
X0097985Y0111822D02*
X0197903Y0111822D01*
X0197903Y0112421D02*
X0096249Y0112421D01*
X0093496Y0112421D02*
X0056008Y0112421D01*
X0056008Y0113019D02*
X0197903Y0113019D01*
X0197903Y0113618D02*
X0055856Y0113618D01*
X0056008Y0113250D02*
X0055458Y0114579D01*
X0054440Y0115597D01*
X0053111Y0116147D01*
X0051672Y0116147D01*
X0050343Y0115597D01*
X0049326Y0114579D01*
X0048775Y0113250D01*
X0048775Y0111811D01*
X0049326Y0110482D01*
X0050343Y0109465D01*
X0051672Y0108914D01*
X0053111Y0108914D01*
X0054440Y0109465D01*
X0055458Y0110482D01*
X0056008Y0111811D01*
X0056008Y0113250D01*
X0055608Y0114216D02*
X0197903Y0114216D01*
X0197878Y0114815D02*
X0055222Y0114815D01*
X0054624Y0115413D02*
X0197831Y0115413D01*
X0197665Y0116012D02*
X0053438Y0116012D01*
X0051345Y0116012D02*
X0050131Y0116012D01*
X0050160Y0115413D02*
X0049533Y0115413D01*
X0049561Y0114815D02*
X0048934Y0114815D01*
X0049175Y0114216D02*
X0048559Y0114216D01*
X0048559Y0113618D02*
X0048927Y0113618D01*
X0048775Y0113019D02*
X0048559Y0113019D01*
X0048559Y0112421D02*
X0048775Y0112421D01*
X0048775Y0111822D02*
X0048559Y0111822D01*
X0048559Y0111224D02*
X0049019Y0111224D01*
X0049267Y0110625D02*
X0048559Y0110625D01*
X0048559Y0110027D02*
X0049781Y0110027D01*
X0050432Y0109428D02*
X0048559Y0109428D01*
X0048559Y0108830D02*
X0093370Y0108830D01*
X0092771Y0109428D02*
X0054352Y0109428D01*
X0055002Y0110027D02*
X0092585Y0110027D01*
X0092585Y0110625D02*
X0055517Y0110625D01*
X0055765Y0111224D02*
X0092585Y0111224D01*
X0092897Y0111822D02*
X0056008Y0111822D01*
X0054440Y0107723D02*
X0053111Y0108273D01*
X0051672Y0108273D01*
X0050343Y0107723D01*
X0049326Y0106705D01*
X0048775Y0105376D01*
X0048775Y0103937D01*
X0049326Y0102608D01*
X0050343Y0101591D01*
X0051672Y0101040D01*
X0053111Y0101040D01*
X0054440Y0101591D01*
X0055458Y0102608D01*
X0056008Y0103937D01*
X0056008Y0105376D01*
X0055458Y0106705D01*
X0054440Y0107723D01*
X0054530Y0107632D02*
X0097366Y0107632D01*
X0097965Y0107034D02*
X0055129Y0107034D01*
X0055569Y0106435D02*
X0098563Y0106435D01*
X0099162Y0105837D02*
X0055817Y0105837D01*
X0056008Y0105238D02*
X0099760Y0105238D01*
X0100359Y0104640D02*
X0056008Y0104640D01*
X0056008Y0104041D02*
X0100957Y0104041D01*
X0101556Y0103443D02*
X0055803Y0103443D01*
X0055556Y0102844D02*
X0102154Y0102844D01*
X0102753Y0102246D02*
X0055095Y0102246D01*
X0054497Y0101647D02*
X0103351Y0101647D01*
X0103950Y0101049D02*
X0053132Y0101049D01*
X0051651Y0101049D02*
X0048559Y0101049D01*
X0048559Y0101647D02*
X0050286Y0101647D01*
X0049688Y0102246D02*
X0048559Y0102246D01*
X0048559Y0102844D02*
X0049228Y0102844D01*
X0048980Y0103443D02*
X0048559Y0103443D01*
X0048559Y0104041D02*
X0048775Y0104041D01*
X0048775Y0104640D02*
X0048559Y0104640D01*
X0048559Y0105238D02*
X0048775Y0105238D01*
X0048966Y0105837D02*
X0048559Y0105837D01*
X0048559Y0106435D02*
X0049214Y0106435D01*
X0049654Y0107034D02*
X0048559Y0107034D01*
X0048559Y0107632D02*
X0050253Y0107632D01*
X0051570Y0108231D02*
X0048559Y0108231D01*
X0053213Y0108231D02*
X0096768Y0108231D01*
X0104548Y0100450D02*
X0048559Y0100450D01*
X0048559Y0099852D02*
X0105147Y0099852D01*
X0105745Y0099253D02*
X0048559Y0099253D01*
X0048559Y0098655D02*
X0106344Y0098655D01*
X0106942Y0098056D02*
X0054015Y0098056D01*
X0054863Y0097458D02*
X0107541Y0097458D01*
X0107590Y0097003D02*
X0105776Y0097003D01*
X0104494Y0095721D01*
X0104494Y0093907D01*
X0105283Y0093118D01*
X0105283Y0084699D01*
X0104494Y0083910D01*
X0104494Y0082096D01*
X0105776Y0080814D01*
X0107590Y0080814D01*
X0108872Y0082096D01*
X0108872Y0083910D01*
X0108083Y0084699D01*
X0108083Y0093118D01*
X0108872Y0093907D01*
X0108872Y0095721D01*
X0107590Y0097003D01*
X0107734Y0096859D02*
X0108139Y0096859D01*
X0108332Y0096261D02*
X0108738Y0096261D01*
X0108872Y0095662D02*
X0109336Y0095662D01*
X0108872Y0095064D02*
X0109935Y0095064D01*
X0110533Y0094465D02*
X0108872Y0094465D01*
X0108831Y0093867D02*
X0111132Y0093867D01*
X0111730Y0093268D02*
X0108233Y0093268D01*
X0108083Y0092670D02*
X0112329Y0092670D01*
X0112927Y0092071D02*
X0108083Y0092071D01*
X0108083Y0091473D02*
X0113526Y0091473D01*
X0114124Y0090874D02*
X0108083Y0090874D01*
X0108083Y0090276D02*
X0114723Y0090276D01*
X0114826Y0089677D02*
X0108083Y0089677D01*
X0108083Y0089079D02*
X0114826Y0089079D01*
X0114826Y0088480D02*
X0108083Y0088480D01*
X0108083Y0087882D02*
X0114826Y0087882D01*
X0114826Y0087283D02*
X0108083Y0087283D01*
X0108083Y0086685D02*
X0114826Y0086685D01*
X0114826Y0086086D02*
X0108083Y0086086D01*
X0108083Y0085488D02*
X0114826Y0085488D01*
X0114826Y0084889D02*
X0108083Y0084889D01*
X0108491Y0084291D02*
X0114826Y0084291D01*
X0114826Y0083692D02*
X0108872Y0083692D01*
X0108872Y0083094D02*
X0114826Y0083094D01*
X0114826Y0082495D02*
X0108872Y0082495D01*
X0108672Y0081896D02*
X0114826Y0081896D01*
X0114826Y0081298D02*
X0108074Y0081298D01*
X0105293Y0081298D02*
X0055292Y0081298D01*
X0055292Y0081896D02*
X0104694Y0081896D01*
X0104494Y0082495D02*
X0055292Y0082495D01*
X0055292Y0083094D02*
X0104494Y0083094D01*
X0104494Y0083692D02*
X0055292Y0083692D01*
X0055292Y0084291D02*
X0104875Y0084291D01*
X0105283Y0084889D02*
X0055292Y0084889D01*
X0055292Y0085488D02*
X0105283Y0085488D01*
X0105283Y0086086D02*
X0055292Y0086086D01*
X0055292Y0086685D02*
X0105283Y0086685D01*
X0105283Y0087283D02*
X0055046Y0087283D01*
X0054725Y0087882D02*
X0105283Y0087882D01*
X0105283Y0088480D02*
X0054126Y0088480D01*
X0053528Y0089079D02*
X0105283Y0089079D01*
X0105283Y0089677D02*
X0052929Y0089677D01*
X0052331Y0090276D02*
X0105283Y0090276D01*
X0105283Y0090874D02*
X0051732Y0090874D01*
X0053775Y0091473D02*
X0105283Y0091473D01*
X0105283Y0092071D02*
X0054763Y0092071D01*
X0055362Y0092670D02*
X0105283Y0092670D01*
X0105133Y0093268D02*
X0055666Y0093268D01*
X0055914Y0093867D02*
X0104535Y0093867D01*
X0104494Y0094465D02*
X0056008Y0094465D01*
X0056008Y0095064D02*
X0104494Y0095064D01*
X0104494Y0095662D02*
X0055955Y0095662D01*
X0055707Y0096261D02*
X0105034Y0096261D01*
X0105633Y0096859D02*
X0055459Y0096859D01*
X0050768Y0098056D02*
X0048559Y0098056D01*
X0048559Y0097458D02*
X0049921Y0097458D01*
X0049324Y0096859D02*
X0048559Y0096859D01*
X0048559Y0096261D02*
X0049076Y0096261D01*
X0048829Y0095662D02*
X0048559Y0095662D01*
X0048559Y0095064D02*
X0048775Y0095064D01*
X0048775Y0094465D02*
X0048559Y0094465D01*
X0048740Y0093867D02*
X0048870Y0093867D01*
X0044727Y0089677D02*
X0044354Y0089677D01*
X0044128Y0090276D02*
X0003652Y0090276D01*
X0003652Y0090874D02*
X0043530Y0090874D01*
X0043089Y0091473D02*
X0003652Y0091473D01*
X0003652Y0092071D02*
X0042841Y0092071D01*
X0042759Y0092670D02*
X0003652Y0092670D01*
X0003652Y0093268D02*
X0042759Y0093268D01*
X0042759Y0093867D02*
X0003652Y0093867D01*
X0003652Y0094465D02*
X0042759Y0094465D01*
X0042759Y0095064D02*
X0003652Y0095064D01*
X0003652Y0095662D02*
X0042759Y0095662D01*
X0042759Y0096261D02*
X0003652Y0096261D01*
X0003652Y0096859D02*
X0042759Y0096859D01*
X0042759Y0097458D02*
X0003652Y0097458D01*
X0003652Y0098056D02*
X0042759Y0098056D01*
X0042759Y0098655D02*
X0003652Y0098655D01*
X0003652Y0099253D02*
X0042759Y0099253D01*
X0042759Y0099852D02*
X0003652Y0099852D01*
X0003652Y0100450D02*
X0042759Y0100450D01*
X0042759Y0101049D02*
X0003652Y0101049D01*
X0003652Y0101647D02*
X0042759Y0101647D01*
X0042759Y0102246D02*
X0003652Y0102246D01*
X0003652Y0102844D02*
X0042759Y0102844D01*
X0042759Y0103443D02*
X0003652Y0103443D01*
X0003652Y0104041D02*
X0042759Y0104041D01*
X0042759Y0104640D02*
X0003652Y0104640D01*
X0003652Y0105238D02*
X0042759Y0105238D01*
X0042759Y0105837D02*
X0003652Y0105837D01*
X0003652Y0106435D02*
X0042759Y0106435D01*
X0042759Y0107034D02*
X0003652Y0107034D01*
X0003652Y0107632D02*
X0042759Y0107632D01*
X0042759Y0108231D02*
X0003652Y0108231D01*
X0003652Y0108830D02*
X0042759Y0108830D01*
X0042759Y0109428D02*
X0003652Y0109428D01*
X0003652Y0110027D02*
X0042759Y0110027D01*
X0042759Y0110625D02*
X0003652Y0110625D01*
X0003652Y0111224D02*
X0042759Y0111224D01*
X0042759Y0111822D02*
X0003652Y0111822D01*
X0003652Y0112421D02*
X0042759Y0112421D01*
X0042759Y0113019D02*
X0003652Y0113019D01*
X0003652Y0113618D02*
X0042759Y0113618D01*
X0042759Y0114216D02*
X0003652Y0114216D01*
X0003652Y0114815D02*
X0042759Y0114815D01*
X0042759Y0115413D02*
X0003652Y0115413D01*
X0003652Y0116012D02*
X0042759Y0116012D01*
X0042922Y0116610D02*
X0003652Y0116610D01*
X0003652Y0117209D02*
X0043170Y0117209D01*
X0043724Y0117807D02*
X0003652Y0117807D01*
X0003652Y0118406D02*
X0044323Y0118406D01*
X0044921Y0119004D02*
X0003652Y0119004D01*
X0003652Y0119603D02*
X0045520Y0119603D01*
X0046119Y0120201D02*
X0003652Y0120201D01*
X0003652Y0120800D02*
X0046717Y0120800D01*
X0047316Y0121398D02*
X0003652Y0121398D01*
X0003652Y0121997D02*
X0047914Y0121997D01*
X0048513Y0122595D02*
X0003652Y0122595D01*
X0003652Y0123194D02*
X0048817Y0123194D01*
X0049065Y0123792D02*
X0003652Y0123792D01*
X0003652Y0124391D02*
X0049313Y0124391D01*
X0049893Y0124989D02*
X0003652Y0124989D01*
X0003652Y0125588D02*
X0050702Y0125588D01*
X0053533Y0126186D02*
X0003652Y0126186D01*
X0003652Y0126785D02*
X0053533Y0126785D01*
X0053533Y0127383D02*
X0044047Y0127383D01*
X0043200Y0127032D02*
X0045930Y0128163D01*
X0048019Y0130252D01*
X0049150Y0132982D01*
X0049150Y0135937D01*
X0048019Y0138667D01*
X0045930Y0140757D01*
X0043200Y0141887D01*
X0040245Y0141887D01*
X0037515Y0140757D01*
X0035426Y0138667D01*
X0034295Y0135937D01*
X0034295Y0132982D01*
X0035426Y0130252D01*
X0037515Y0128163D01*
X0040245Y0127032D01*
X0043200Y0127032D01*
X0045492Y0127982D02*
X0053533Y0127982D01*
X0053533Y0128580D02*
X0046347Y0128580D01*
X0046946Y0129179D02*
X0053533Y0129179D01*
X0053533Y0129777D02*
X0047544Y0129777D01*
X0048070Y0130376D02*
X0053533Y0130376D01*
X0053533Y0130974D02*
X0048318Y0130974D01*
X0048566Y0131573D02*
X0053533Y0131573D01*
X0053533Y0132171D02*
X0048814Y0132171D01*
X0049062Y0132770D02*
X0053533Y0132770D01*
X0053533Y0133368D02*
X0049150Y0133368D01*
X0049150Y0133967D02*
X0053533Y0133967D01*
X0053533Y0134565D02*
X0049150Y0134565D01*
X0049150Y0135164D02*
X0053533Y0135164D01*
X0053533Y0135763D02*
X0049150Y0135763D01*
X0048974Y0136361D02*
X0053533Y0136361D01*
X0053533Y0136960D02*
X0048727Y0136960D01*
X0048479Y0137558D02*
X0053533Y0137558D01*
X0053533Y0138157D02*
X0048231Y0138157D01*
X0047931Y0138755D02*
X0053533Y0138755D01*
X0053533Y0139354D02*
X0047333Y0139354D01*
X0046734Y0139952D02*
X0053533Y0139952D01*
X0053533Y0140551D02*
X0046136Y0140551D01*
X0044982Y0141149D02*
X0053533Y0141149D01*
X0053533Y0141748D02*
X0043537Y0141748D01*
X0039908Y0141748D02*
X0006880Y0141748D01*
X0006057Y0141149D02*
X0038463Y0141149D01*
X0037309Y0140551D02*
X0005396Y0140551D01*
X0004961Y0139952D02*
X0036711Y0139952D01*
X0036112Y0139354D02*
X0004526Y0139354D01*
X0004245Y0138755D02*
X0035514Y0138755D01*
X0035214Y0138157D02*
X0004050Y0138157D01*
X0003856Y0137558D02*
X0034966Y0137558D01*
X0034718Y0136960D02*
X0003716Y0136960D01*
X0003669Y0136361D02*
X0034470Y0136361D01*
X0034295Y0135763D02*
X0003652Y0135763D01*
X0003652Y0135164D02*
X0034295Y0135164D01*
X0034295Y0134565D02*
X0003652Y0134565D01*
X0003652Y0133967D02*
X0034295Y0133967D01*
X0034295Y0133368D02*
X0003652Y0133368D01*
X0003652Y0132770D02*
X0034383Y0132770D01*
X0034631Y0132171D02*
X0003652Y0132171D01*
X0003652Y0131573D02*
X0034879Y0131573D01*
X0035127Y0130974D02*
X0003652Y0130974D01*
X0003652Y0130376D02*
X0035375Y0130376D01*
X0035901Y0129777D02*
X0003652Y0129777D01*
X0003652Y0129179D02*
X0036499Y0129179D01*
X0037098Y0128580D02*
X0003652Y0128580D01*
X0003652Y0127982D02*
X0037953Y0127982D01*
X0039397Y0127383D02*
X0003652Y0127383D01*
X0008276Y0142346D02*
X0053533Y0142346D01*
X0054736Y0119603D02*
X0195351Y0119603D01*
X0196082Y0119004D02*
X0053709Y0119004D01*
X0052525Y0118406D02*
X0196516Y0118406D01*
X0196951Y0117807D02*
X0051927Y0117807D01*
X0051328Y0117209D02*
X0197276Y0117209D01*
X0197470Y0116610D02*
X0050730Y0116610D01*
X0039091Y0089677D02*
X0003652Y0089677D01*
X0003652Y0089079D02*
X0037646Y0089079D01*
X0036971Y0088480D02*
X0003652Y0088480D01*
X0003652Y0087882D02*
X0036372Y0087882D01*
X0035774Y0087283D02*
X0003652Y0087283D01*
X0003652Y0086685D02*
X0035322Y0086685D01*
X0035074Y0086086D02*
X0003652Y0086086D01*
X0003652Y0085488D02*
X0034826Y0085488D01*
X0034578Y0084889D02*
X0003652Y0084889D01*
X0003652Y0084291D02*
X0034330Y0084291D01*
X0034295Y0083692D02*
X0003652Y0083692D01*
X0003652Y0083094D02*
X0034295Y0083094D01*
X0034295Y0082495D02*
X0003652Y0082495D01*
X0003652Y0081896D02*
X0034295Y0081896D01*
X0034295Y0081298D02*
X0003652Y0081298D01*
X0003652Y0080699D02*
X0034523Y0080699D01*
X0034771Y0080101D02*
X0003652Y0080101D01*
X0003652Y0079502D02*
X0035019Y0079502D01*
X0035267Y0078904D02*
X0003652Y0078904D01*
X0003652Y0078305D02*
X0035640Y0078305D01*
X0036239Y0077707D02*
X0003652Y0077707D01*
X0003652Y0077108D02*
X0036837Y0077108D01*
X0037436Y0076510D02*
X0003652Y0076510D01*
X0003652Y0075911D02*
X0038769Y0075911D01*
X0040214Y0075313D02*
X0003652Y0075313D01*
X0003652Y0074714D02*
X0049492Y0074714D01*
X0049492Y0074116D02*
X0003652Y0074116D01*
X0003652Y0073517D02*
X0049492Y0073517D01*
X0049492Y0072919D02*
X0003652Y0072919D01*
X0003652Y0072320D02*
X0049492Y0072320D01*
X0049492Y0071722D02*
X0003652Y0071722D01*
X0043231Y0075313D02*
X0049492Y0075313D01*
X0049492Y0075911D02*
X0044676Y0075911D01*
X0046009Y0076510D02*
X0049492Y0076510D01*
X0049492Y0077108D02*
X0046607Y0077108D01*
X0047206Y0077707D02*
X0049492Y0077707D01*
X0049492Y0078305D02*
X0047804Y0078305D01*
X0048178Y0078904D02*
X0049492Y0078904D01*
X0049492Y0079502D02*
X0048426Y0079502D01*
X0048674Y0080101D02*
X0049492Y0080101D01*
X0049492Y0080699D02*
X0048922Y0080699D01*
X0049150Y0081298D02*
X0049492Y0081298D01*
X0049492Y0081896D02*
X0049150Y0081896D01*
X0049150Y0082495D02*
X0049492Y0082495D01*
X0049492Y0083094D02*
X0049150Y0083094D01*
X0049150Y0083692D02*
X0049492Y0083692D01*
X0049492Y0084291D02*
X0049115Y0084291D01*
X0048867Y0084889D02*
X0049492Y0084889D01*
X0048916Y0085488D02*
X0048619Y0085488D01*
X0055292Y0080699D02*
X0114826Y0080699D01*
X0114826Y0080101D02*
X0055292Y0080101D01*
X0055292Y0079502D02*
X0114826Y0079502D01*
X0114826Y0078904D02*
X0055292Y0078904D01*
X0055292Y0078305D02*
X0114826Y0078305D01*
X0114826Y0077707D02*
X0055292Y0077707D01*
X0055292Y0077108D02*
X0114826Y0077108D01*
X0114826Y0076510D02*
X0055292Y0076510D01*
X0055292Y0075911D02*
X0114826Y0075911D01*
X0114826Y0075313D02*
X0055292Y0075313D01*
X0055292Y0074714D02*
X0114826Y0074714D01*
X0114826Y0074116D02*
X0055292Y0074116D01*
X0055292Y0073517D02*
X0114826Y0073517D01*
X0114826Y0072919D02*
X0055292Y0072919D01*
X0055292Y0072320D02*
X0114558Y0072320D01*
X0114337Y0071722D02*
X0055292Y0071722D01*
X0055292Y0071123D02*
X0114337Y0071123D01*
X0114337Y0070525D02*
X0055292Y0070525D01*
X0055292Y0069926D02*
X0114696Y0069926D01*
X0115294Y0069328D02*
X0055292Y0069328D01*
X0054300Y0044789D02*
X0113580Y0044789D01*
X0112982Y0044190D02*
X0054981Y0044190D01*
X0055508Y0043592D02*
X0112383Y0043592D01*
X0111785Y0042993D02*
X0055756Y0042993D01*
X0056004Y0042395D02*
X0111186Y0042395D01*
X0110588Y0041796D02*
X0056008Y0041796D01*
X0056008Y0041198D02*
X0109989Y0041198D01*
X0109391Y0040599D02*
X0055865Y0040599D01*
X0055617Y0040001D02*
X0108792Y0040001D01*
X0108194Y0039402D02*
X0055244Y0039402D01*
X0054645Y0038804D02*
X0107595Y0038804D01*
X0106996Y0038205D02*
X0053490Y0038205D01*
X0054074Y0037008D02*
X0105799Y0037008D01*
X0105201Y0036410D02*
X0054887Y0036410D01*
X0055469Y0035811D02*
X0104602Y0035811D01*
X0104004Y0035213D02*
X0055717Y0035213D01*
X0055965Y0034614D02*
X0103405Y0034614D01*
X0102807Y0034016D02*
X0056008Y0034016D01*
X0056008Y0033417D02*
X0102208Y0033417D01*
X0101610Y0032819D02*
X0055904Y0032819D01*
X0048559Y0037607D02*
X0106398Y0037607D01*
X0136484Y0041198D02*
X0150711Y0041198D01*
X0149773Y0041796D02*
X0137929Y0041796D01*
X0138534Y0042395D02*
X0149070Y0042395D01*
X0148514Y0042993D02*
X0139132Y0042993D01*
X0139731Y0043592D02*
X0148061Y0043592D01*
X0147716Y0044190D02*
X0140051Y0044190D01*
X0140299Y0044789D02*
X0147437Y0044789D01*
X0147210Y0045387D02*
X0140547Y0045387D01*
X0140795Y0045986D02*
X0147049Y0045986D01*
X0146947Y0046584D02*
X0140890Y0046584D01*
X0098485Y0014863D02*
X0091809Y0014863D01*
X0091615Y0014265D02*
X0098733Y0014265D01*
X0098981Y0013666D02*
X0091316Y0013666D01*
X0090904Y0013068D02*
X0099530Y0013068D01*
X0100128Y0012469D02*
X0090339Y0012469D01*
X0089479Y0011871D02*
X0101396Y0011871D01*
X0062852Y0019651D02*
X0052089Y0019651D01*
X0052687Y0019053D02*
X0062254Y0019053D01*
X0049872Y0013666D02*
X0049014Y0013666D01*
X0048766Y0014265D02*
X0049273Y0014265D01*
X0049106Y0014431D02*
X0049106Y0014431D01*
X0048675Y0014863D02*
X0048519Y0014863D01*
D20*
X0073219Y0073161D03*
X0179518Y0073161D03*
D21*
X0106683Y0083003D02*
X0106683Y0094814D01*
D22*
X0120463Y0047570D03*
D23*
X0102746Y0029854D01*
X0077156Y0029854D01*
X0063376Y0016074D01*
X0051565Y0016074D01*
X0045659Y0021980D01*
X0045659Y0044775D01*
X0052392Y0051507D01*
X0052392Y0086113D01*
X0045659Y0092846D01*
X0045659Y0115641D01*
X0052392Y0122373D01*
M02*
