G75*
%MOIN*%
%OFA0B0*%
%FSLAX25Y25*%
%IPPOS*%
%LPD*%
%AMOC8*
5,1,8,0,0,1.08239X$1,22.5*
%
%ADD10C,0.00000*%
%ADD11C,0.00400*%
%ADD12C,0.00300*%
%ADD13C,0.00500*%
%ADD14C,0.00800*%
%ADD15C,0.00600*%
D10*
X0010226Y0002294D02*
X0191329Y0002294D01*
X0191329Y0002295D02*
X0191519Y0002297D01*
X0191709Y0002304D01*
X0191899Y0002316D01*
X0192089Y0002332D01*
X0192278Y0002352D01*
X0192467Y0002378D01*
X0192655Y0002407D01*
X0192842Y0002442D01*
X0193028Y0002481D01*
X0193213Y0002524D01*
X0193398Y0002572D01*
X0193581Y0002624D01*
X0193762Y0002680D01*
X0193942Y0002741D01*
X0194121Y0002807D01*
X0194298Y0002876D01*
X0194474Y0002950D01*
X0194647Y0003028D01*
X0194819Y0003111D01*
X0194988Y0003197D01*
X0195156Y0003287D01*
X0195321Y0003382D01*
X0195484Y0003480D01*
X0195644Y0003583D01*
X0195802Y0003689D01*
X0195957Y0003799D01*
X0196110Y0003912D01*
X0196260Y0004030D01*
X0196406Y0004151D01*
X0196550Y0004275D01*
X0196691Y0004403D01*
X0196829Y0004534D01*
X0196964Y0004669D01*
X0197095Y0004807D01*
X0197223Y0004948D01*
X0197347Y0005092D01*
X0197468Y0005238D01*
X0197586Y0005388D01*
X0197699Y0005541D01*
X0197809Y0005696D01*
X0197915Y0005854D01*
X0198018Y0006014D01*
X0198116Y0006177D01*
X0198211Y0006342D01*
X0198301Y0006510D01*
X0198387Y0006679D01*
X0198470Y0006851D01*
X0198548Y0007024D01*
X0198622Y0007200D01*
X0198691Y0007377D01*
X0198757Y0007556D01*
X0198818Y0007736D01*
X0198874Y0007917D01*
X0198926Y0008100D01*
X0198974Y0008285D01*
X0199017Y0008470D01*
X0199056Y0008656D01*
X0199091Y0008843D01*
X0199120Y0009031D01*
X0199146Y0009220D01*
X0199166Y0009409D01*
X0199182Y0009599D01*
X0199194Y0009789D01*
X0199201Y0009979D01*
X0199203Y0010169D01*
X0199203Y0114499D01*
X0199201Y0114689D01*
X0199194Y0114879D01*
X0199182Y0115069D01*
X0199166Y0115259D01*
X0199146Y0115448D01*
X0199120Y0115637D01*
X0199091Y0115825D01*
X0199056Y0116012D01*
X0199017Y0116198D01*
X0198974Y0116383D01*
X0198926Y0116568D01*
X0198874Y0116751D01*
X0198818Y0116932D01*
X0198757Y0117112D01*
X0198691Y0117291D01*
X0198622Y0117468D01*
X0198548Y0117644D01*
X0198470Y0117817D01*
X0198387Y0117989D01*
X0198301Y0118158D01*
X0198211Y0118326D01*
X0198116Y0118491D01*
X0198018Y0118654D01*
X0197915Y0118814D01*
X0197809Y0118972D01*
X0197699Y0119127D01*
X0197586Y0119280D01*
X0197468Y0119430D01*
X0197347Y0119576D01*
X0197223Y0119720D01*
X0197095Y0119861D01*
X0196964Y0119999D01*
X0196829Y0120134D01*
X0196691Y0120265D01*
X0196550Y0120393D01*
X0196406Y0120517D01*
X0196260Y0120638D01*
X0196110Y0120756D01*
X0195957Y0120869D01*
X0195802Y0120979D01*
X0195644Y0121085D01*
X0195484Y0121188D01*
X0195321Y0121286D01*
X0195156Y0121381D01*
X0194988Y0121471D01*
X0194819Y0121557D01*
X0194647Y0121640D01*
X0194474Y0121718D01*
X0194298Y0121792D01*
X0194121Y0121861D01*
X0193942Y0121927D01*
X0193762Y0121988D01*
X0193581Y0122044D01*
X0193398Y0122096D01*
X0193213Y0122144D01*
X0193028Y0122187D01*
X0192842Y0122226D01*
X0192655Y0122261D01*
X0192467Y0122290D01*
X0192278Y0122316D01*
X0192089Y0122336D01*
X0191899Y0122352D01*
X0191709Y0122364D01*
X0191519Y0122371D01*
X0191329Y0122373D01*
X0110620Y0122373D01*
X0110430Y0122375D01*
X0110240Y0122382D01*
X0110050Y0122394D01*
X0109860Y0122410D01*
X0109671Y0122430D01*
X0109482Y0122456D01*
X0109294Y0122485D01*
X0109107Y0122520D01*
X0108921Y0122559D01*
X0108736Y0122602D01*
X0108551Y0122650D01*
X0108368Y0122702D01*
X0108187Y0122758D01*
X0108007Y0122819D01*
X0107828Y0122885D01*
X0107651Y0122954D01*
X0107475Y0123028D01*
X0107302Y0123106D01*
X0107130Y0123189D01*
X0106961Y0123275D01*
X0106793Y0123365D01*
X0106628Y0123460D01*
X0106465Y0123558D01*
X0106305Y0123661D01*
X0106147Y0123767D01*
X0105992Y0123877D01*
X0105839Y0123990D01*
X0105689Y0124108D01*
X0105543Y0124229D01*
X0105399Y0124353D01*
X0105258Y0124481D01*
X0105120Y0124612D01*
X0104985Y0124747D01*
X0104854Y0124885D01*
X0104726Y0125026D01*
X0104602Y0125170D01*
X0104481Y0125316D01*
X0104363Y0125466D01*
X0104250Y0125619D01*
X0104140Y0125774D01*
X0104034Y0125932D01*
X0103931Y0126092D01*
X0103833Y0126255D01*
X0103738Y0126420D01*
X0103648Y0126588D01*
X0103562Y0126757D01*
X0103479Y0126929D01*
X0103401Y0127102D01*
X0103327Y0127278D01*
X0103258Y0127455D01*
X0103192Y0127634D01*
X0103131Y0127814D01*
X0103075Y0127995D01*
X0103023Y0128178D01*
X0102975Y0128363D01*
X0102932Y0128548D01*
X0102893Y0128734D01*
X0102858Y0128921D01*
X0102829Y0129109D01*
X0102803Y0129298D01*
X0102783Y0129487D01*
X0102767Y0129677D01*
X0102755Y0129867D01*
X0102748Y0130057D01*
X0102746Y0130247D01*
X0102746Y0136153D01*
X0102744Y0136343D01*
X0102737Y0136533D01*
X0102725Y0136723D01*
X0102709Y0136913D01*
X0102689Y0137102D01*
X0102663Y0137291D01*
X0102634Y0137479D01*
X0102599Y0137666D01*
X0102560Y0137852D01*
X0102517Y0138037D01*
X0102469Y0138222D01*
X0102417Y0138405D01*
X0102361Y0138586D01*
X0102300Y0138766D01*
X0102234Y0138945D01*
X0102165Y0139122D01*
X0102091Y0139298D01*
X0102013Y0139471D01*
X0101930Y0139643D01*
X0101844Y0139812D01*
X0101754Y0139980D01*
X0101659Y0140145D01*
X0101561Y0140308D01*
X0101458Y0140468D01*
X0101352Y0140626D01*
X0101242Y0140781D01*
X0101129Y0140934D01*
X0101011Y0141084D01*
X0100890Y0141230D01*
X0100766Y0141374D01*
X0100638Y0141515D01*
X0100507Y0141653D01*
X0100372Y0141788D01*
X0100234Y0141919D01*
X0100093Y0142047D01*
X0099949Y0142171D01*
X0099803Y0142292D01*
X0099653Y0142410D01*
X0099500Y0142523D01*
X0099345Y0142633D01*
X0099187Y0142739D01*
X0099027Y0142842D01*
X0098864Y0142940D01*
X0098699Y0143035D01*
X0098531Y0143125D01*
X0098362Y0143211D01*
X0098190Y0143294D01*
X0098017Y0143372D01*
X0097841Y0143446D01*
X0097664Y0143515D01*
X0097485Y0143581D01*
X0097305Y0143642D01*
X0097124Y0143698D01*
X0096941Y0143750D01*
X0096756Y0143798D01*
X0096571Y0143841D01*
X0096385Y0143880D01*
X0096198Y0143915D01*
X0096010Y0143944D01*
X0095821Y0143970D01*
X0095632Y0143990D01*
X0095442Y0144006D01*
X0095252Y0144018D01*
X0095062Y0144025D01*
X0094872Y0144027D01*
X0010226Y0144027D01*
X0010036Y0144025D01*
X0009846Y0144018D01*
X0009656Y0144006D01*
X0009466Y0143990D01*
X0009277Y0143970D01*
X0009088Y0143944D01*
X0008900Y0143915D01*
X0008713Y0143880D01*
X0008527Y0143841D01*
X0008342Y0143798D01*
X0008157Y0143750D01*
X0007974Y0143698D01*
X0007793Y0143642D01*
X0007613Y0143581D01*
X0007434Y0143515D01*
X0007257Y0143446D01*
X0007081Y0143372D01*
X0006908Y0143294D01*
X0006736Y0143211D01*
X0006567Y0143125D01*
X0006399Y0143035D01*
X0006234Y0142940D01*
X0006071Y0142842D01*
X0005911Y0142739D01*
X0005753Y0142633D01*
X0005598Y0142523D01*
X0005445Y0142410D01*
X0005295Y0142292D01*
X0005149Y0142171D01*
X0005005Y0142047D01*
X0004864Y0141919D01*
X0004726Y0141788D01*
X0004591Y0141653D01*
X0004460Y0141515D01*
X0004332Y0141374D01*
X0004208Y0141230D01*
X0004087Y0141084D01*
X0003969Y0140934D01*
X0003856Y0140781D01*
X0003746Y0140626D01*
X0003640Y0140468D01*
X0003537Y0140308D01*
X0003439Y0140145D01*
X0003344Y0139980D01*
X0003254Y0139812D01*
X0003168Y0139643D01*
X0003085Y0139471D01*
X0003007Y0139298D01*
X0002933Y0139122D01*
X0002864Y0138945D01*
X0002798Y0138766D01*
X0002737Y0138586D01*
X0002681Y0138405D01*
X0002629Y0138222D01*
X0002581Y0138037D01*
X0002538Y0137852D01*
X0002499Y0137666D01*
X0002464Y0137479D01*
X0002435Y0137291D01*
X0002409Y0137102D01*
X0002389Y0136913D01*
X0002373Y0136723D01*
X0002361Y0136533D01*
X0002354Y0136343D01*
X0002352Y0136153D01*
X0002352Y0010169D01*
X0002354Y0009979D01*
X0002361Y0009789D01*
X0002373Y0009599D01*
X0002389Y0009409D01*
X0002409Y0009220D01*
X0002435Y0009031D01*
X0002464Y0008843D01*
X0002499Y0008656D01*
X0002538Y0008470D01*
X0002581Y0008285D01*
X0002629Y0008100D01*
X0002681Y0007917D01*
X0002737Y0007736D01*
X0002798Y0007556D01*
X0002864Y0007377D01*
X0002933Y0007200D01*
X0003007Y0007024D01*
X0003085Y0006851D01*
X0003168Y0006679D01*
X0003254Y0006510D01*
X0003344Y0006342D01*
X0003439Y0006177D01*
X0003537Y0006014D01*
X0003640Y0005854D01*
X0003746Y0005696D01*
X0003856Y0005541D01*
X0003969Y0005388D01*
X0004087Y0005238D01*
X0004208Y0005092D01*
X0004332Y0004948D01*
X0004460Y0004807D01*
X0004591Y0004669D01*
X0004726Y0004534D01*
X0004864Y0004403D01*
X0005005Y0004275D01*
X0005149Y0004151D01*
X0005295Y0004030D01*
X0005445Y0003912D01*
X0005598Y0003799D01*
X0005753Y0003689D01*
X0005911Y0003583D01*
X0006071Y0003480D01*
X0006234Y0003382D01*
X0006399Y0003287D01*
X0006567Y0003197D01*
X0006736Y0003111D01*
X0006908Y0003028D01*
X0007081Y0002950D01*
X0007257Y0002876D01*
X0007434Y0002807D01*
X0007613Y0002741D01*
X0007793Y0002680D01*
X0007974Y0002624D01*
X0008157Y0002572D01*
X0008342Y0002524D01*
X0008527Y0002481D01*
X0008713Y0002442D01*
X0008900Y0002407D01*
X0009088Y0002378D01*
X0009277Y0002352D01*
X0009466Y0002332D01*
X0009656Y0002316D01*
X0009846Y0002304D01*
X0010036Y0002297D01*
X0010226Y0002295D01*
D11*
X0170781Y0032022D02*
X0170781Y0034578D01*
X0170781Y0036266D02*
X0175381Y0037800D01*
X0170781Y0039333D01*
X0173847Y0034578D02*
X0174358Y0034578D01*
X0174358Y0034577D02*
X0174420Y0034575D01*
X0174481Y0034570D01*
X0174542Y0034560D01*
X0174603Y0034547D01*
X0174662Y0034531D01*
X0174720Y0034511D01*
X0174777Y0034487D01*
X0174833Y0034460D01*
X0174887Y0034430D01*
X0174939Y0034396D01*
X0174988Y0034360D01*
X0175036Y0034320D01*
X0175081Y0034278D01*
X0175123Y0034233D01*
X0175163Y0034185D01*
X0175199Y0034136D01*
X0175233Y0034084D01*
X0175263Y0034030D01*
X0175290Y0033974D01*
X0175314Y0033917D01*
X0175334Y0033859D01*
X0175350Y0033800D01*
X0175363Y0033739D01*
X0175373Y0033678D01*
X0175378Y0033617D01*
X0175380Y0033555D01*
X0175381Y0033555D02*
X0175381Y0032022D01*
X0173847Y0034577D02*
X0173785Y0034575D01*
X0173724Y0034570D01*
X0173663Y0034560D01*
X0173602Y0034547D01*
X0173543Y0034531D01*
X0173485Y0034511D01*
X0173428Y0034487D01*
X0173372Y0034460D01*
X0173318Y0034430D01*
X0173266Y0034396D01*
X0173217Y0034360D01*
X0173169Y0034320D01*
X0173124Y0034278D01*
X0173082Y0034233D01*
X0173042Y0034185D01*
X0173006Y0034136D01*
X0172972Y0034084D01*
X0172942Y0034030D01*
X0172915Y0033974D01*
X0172891Y0033917D01*
X0172871Y0033859D01*
X0172855Y0033800D01*
X0172842Y0033739D01*
X0172832Y0033678D01*
X0172827Y0033617D01*
X0172825Y0033555D01*
X0172825Y0032022D01*
X0170781Y0032022D01*
X0180997Y0035183D02*
X0180997Y0036461D01*
X0180999Y0036524D01*
X0181005Y0036587D01*
X0181014Y0036649D01*
X0181028Y0036710D01*
X0181045Y0036771D01*
X0181066Y0036830D01*
X0181091Y0036888D01*
X0181119Y0036945D01*
X0181150Y0036999D01*
X0181185Y0037051D01*
X0181223Y0037102D01*
X0181264Y0037150D01*
X0181308Y0037195D01*
X0181354Y0037237D01*
X0181403Y0037277D01*
X0181454Y0037313D01*
X0181508Y0037346D01*
X0181563Y0037376D01*
X0181621Y0037402D01*
X0181679Y0037425D01*
X0181739Y0037444D01*
X0181800Y0037459D01*
X0181862Y0037471D01*
X0181925Y0037479D01*
X0181988Y0037483D01*
X0182050Y0037483D01*
X0182113Y0037479D01*
X0182176Y0037471D01*
X0182238Y0037459D01*
X0182299Y0037444D01*
X0182359Y0037425D01*
X0182417Y0037402D01*
X0182475Y0037376D01*
X0182530Y0037346D01*
X0182584Y0037313D01*
X0182635Y0037277D01*
X0182684Y0037237D01*
X0182730Y0037195D01*
X0182774Y0037150D01*
X0182815Y0037102D01*
X0182853Y0037051D01*
X0182888Y0036999D01*
X0182919Y0036945D01*
X0182947Y0036888D01*
X0182972Y0036830D01*
X0182993Y0036771D01*
X0183010Y0036710D01*
X0183024Y0036649D01*
X0183033Y0036587D01*
X0183039Y0036524D01*
X0183041Y0036461D01*
X0183042Y0036461D02*
X0183042Y0035183D01*
X0183041Y0036461D02*
X0183043Y0036531D01*
X0183049Y0036602D01*
X0183058Y0036671D01*
X0183072Y0036740D01*
X0183089Y0036809D01*
X0183110Y0036876D01*
X0183135Y0036942D01*
X0183163Y0037006D01*
X0183195Y0037069D01*
X0183230Y0037130D01*
X0183269Y0037189D01*
X0183310Y0037246D01*
X0183355Y0037300D01*
X0183403Y0037352D01*
X0183453Y0037401D01*
X0183507Y0037448D01*
X0183562Y0037491D01*
X0183620Y0037531D01*
X0183680Y0037568D01*
X0183742Y0037601D01*
X0183806Y0037631D01*
X0183871Y0037658D01*
X0183937Y0037681D01*
X0184005Y0037700D01*
X0184074Y0037715D01*
X0184143Y0037727D01*
X0184213Y0037735D01*
X0184284Y0037739D01*
X0184354Y0037739D01*
X0184425Y0037735D01*
X0184495Y0037727D01*
X0184564Y0037715D01*
X0184633Y0037700D01*
X0184701Y0037681D01*
X0184767Y0037658D01*
X0184832Y0037631D01*
X0184896Y0037601D01*
X0184958Y0037568D01*
X0185018Y0037531D01*
X0185076Y0037491D01*
X0185131Y0037448D01*
X0185185Y0037401D01*
X0185235Y0037352D01*
X0185283Y0037300D01*
X0185328Y0037246D01*
X0185369Y0037189D01*
X0185408Y0037130D01*
X0185443Y0037069D01*
X0185475Y0037006D01*
X0185503Y0036942D01*
X0185528Y0036876D01*
X0185549Y0036809D01*
X0185566Y0036740D01*
X0185580Y0036671D01*
X0185589Y0036602D01*
X0185595Y0036531D01*
X0185597Y0036461D01*
X0185597Y0035183D01*
X0180997Y0035183D01*
X0182913Y0031255D02*
X0182879Y0031201D01*
X0182842Y0031150D01*
X0182802Y0031101D01*
X0182759Y0031054D01*
X0182713Y0031011D01*
X0182665Y0030970D01*
X0182614Y0030932D01*
X0182561Y0030897D01*
X0182506Y0030865D01*
X0182449Y0030837D01*
X0182391Y0030813D01*
X0182331Y0030792D01*
X0182270Y0030775D01*
X0182208Y0030761D01*
X0182145Y0030752D01*
X0182082Y0030746D01*
X0182019Y0030744D01*
X0182019Y0030745D02*
X0181957Y0030747D01*
X0181896Y0030752D01*
X0181835Y0030762D01*
X0181774Y0030775D01*
X0181715Y0030791D01*
X0181657Y0030811D01*
X0181600Y0030835D01*
X0181544Y0030862D01*
X0181490Y0030892D01*
X0181438Y0030926D01*
X0181389Y0030962D01*
X0181341Y0031002D01*
X0181296Y0031044D01*
X0181254Y0031089D01*
X0181214Y0031137D01*
X0181178Y0031186D01*
X0181144Y0031238D01*
X0181114Y0031292D01*
X0181087Y0031348D01*
X0181063Y0031405D01*
X0181043Y0031463D01*
X0181027Y0031522D01*
X0181014Y0031583D01*
X0181004Y0031644D01*
X0180999Y0031705D01*
X0180997Y0031767D01*
X0180999Y0031849D01*
X0181004Y0031931D01*
X0181013Y0032013D01*
X0181025Y0032094D01*
X0181041Y0032175D01*
X0181060Y0032255D01*
X0181083Y0032334D01*
X0181109Y0032412D01*
X0181138Y0032489D01*
X0181171Y0032564D01*
X0181207Y0032638D01*
X0181245Y0032711D01*
X0181287Y0032782D01*
X0181332Y0032850D01*
X0181380Y0032917D01*
X0184958Y0030617D02*
X0185021Y0030681D01*
X0185080Y0030749D01*
X0185137Y0030818D01*
X0185191Y0030890D01*
X0185242Y0030964D01*
X0185290Y0031040D01*
X0185334Y0031117D01*
X0185375Y0031197D01*
X0185413Y0031278D01*
X0185448Y0031361D01*
X0185479Y0031445D01*
X0185506Y0031531D01*
X0185530Y0031617D01*
X0185551Y0031705D01*
X0185567Y0031793D01*
X0185580Y0031882D01*
X0185590Y0031971D01*
X0185595Y0032060D01*
X0185597Y0032150D01*
X0185595Y0032212D01*
X0185590Y0032273D01*
X0185580Y0032334D01*
X0185567Y0032395D01*
X0185551Y0032454D01*
X0185531Y0032512D01*
X0185507Y0032569D01*
X0185480Y0032625D01*
X0185450Y0032679D01*
X0185416Y0032731D01*
X0185380Y0032780D01*
X0185340Y0032828D01*
X0185298Y0032873D01*
X0185253Y0032915D01*
X0185205Y0032955D01*
X0185156Y0032991D01*
X0185104Y0033025D01*
X0185050Y0033055D01*
X0184994Y0033082D01*
X0184937Y0033106D01*
X0184879Y0033126D01*
X0184820Y0033142D01*
X0184759Y0033155D01*
X0184698Y0033165D01*
X0184637Y0033170D01*
X0184575Y0033172D01*
X0183681Y0032661D02*
X0182914Y0031255D01*
X0183681Y0032661D02*
X0183715Y0032715D01*
X0183752Y0032766D01*
X0183792Y0032815D01*
X0183835Y0032862D01*
X0183881Y0032905D01*
X0183929Y0032946D01*
X0183980Y0032984D01*
X0184033Y0033019D01*
X0184088Y0033051D01*
X0184145Y0033079D01*
X0184203Y0033103D01*
X0184263Y0033124D01*
X0184324Y0033141D01*
X0184386Y0033155D01*
X0184449Y0033164D01*
X0184512Y0033170D01*
X0184575Y0033172D01*
X0184319Y0028672D02*
X0180997Y0028672D01*
X0180997Y0026117D02*
X0184319Y0026117D01*
X0184319Y0026116D02*
X0184389Y0026118D01*
X0184460Y0026124D01*
X0184529Y0026133D01*
X0184598Y0026147D01*
X0184667Y0026164D01*
X0184734Y0026185D01*
X0184800Y0026210D01*
X0184864Y0026238D01*
X0184927Y0026270D01*
X0184988Y0026305D01*
X0185047Y0026344D01*
X0185104Y0026385D01*
X0185158Y0026430D01*
X0185210Y0026478D01*
X0185259Y0026528D01*
X0185306Y0026582D01*
X0185349Y0026637D01*
X0185389Y0026695D01*
X0185426Y0026755D01*
X0185459Y0026817D01*
X0185489Y0026881D01*
X0185516Y0026946D01*
X0185539Y0027012D01*
X0185558Y0027080D01*
X0185573Y0027149D01*
X0185585Y0027218D01*
X0185593Y0027288D01*
X0185597Y0027359D01*
X0185597Y0027429D01*
X0185593Y0027500D01*
X0185585Y0027570D01*
X0185573Y0027639D01*
X0185558Y0027708D01*
X0185539Y0027776D01*
X0185516Y0027842D01*
X0185489Y0027907D01*
X0185459Y0027971D01*
X0185426Y0028033D01*
X0185389Y0028093D01*
X0185349Y0028151D01*
X0185306Y0028206D01*
X0185259Y0028260D01*
X0185210Y0028310D01*
X0185158Y0028358D01*
X0185104Y0028403D01*
X0185047Y0028444D01*
X0184988Y0028483D01*
X0184927Y0028518D01*
X0184864Y0028550D01*
X0184800Y0028578D01*
X0184734Y0028603D01*
X0184667Y0028624D01*
X0184598Y0028641D01*
X0184529Y0028655D01*
X0184460Y0028664D01*
X0184389Y0028670D01*
X0184319Y0028672D01*
X0188497Y0028161D02*
X0188497Y0027139D01*
X0188499Y0027077D01*
X0188504Y0027016D01*
X0188514Y0026955D01*
X0188527Y0026894D01*
X0188543Y0026835D01*
X0188563Y0026777D01*
X0188587Y0026720D01*
X0188614Y0026664D01*
X0188644Y0026610D01*
X0188678Y0026558D01*
X0188715Y0026509D01*
X0188754Y0026461D01*
X0188796Y0026416D01*
X0188841Y0026374D01*
X0188889Y0026334D01*
X0188938Y0026298D01*
X0188990Y0026264D01*
X0189044Y0026234D01*
X0189100Y0026207D01*
X0189157Y0026183D01*
X0189215Y0026163D01*
X0189274Y0026147D01*
X0189335Y0026134D01*
X0189396Y0026124D01*
X0189457Y0026119D01*
X0189519Y0026117D01*
X0192075Y0026117D01*
X0192137Y0026119D01*
X0192198Y0026124D01*
X0192259Y0026134D01*
X0192320Y0026147D01*
X0192379Y0026163D01*
X0192437Y0026183D01*
X0192494Y0026207D01*
X0192550Y0026234D01*
X0192604Y0026264D01*
X0192656Y0026298D01*
X0192705Y0026334D01*
X0192753Y0026374D01*
X0192798Y0026416D01*
X0192840Y0026461D01*
X0192880Y0026509D01*
X0192916Y0026558D01*
X0192950Y0026610D01*
X0192980Y0026664D01*
X0193007Y0026720D01*
X0193031Y0026777D01*
X0193051Y0026835D01*
X0193067Y0026894D01*
X0193080Y0026955D01*
X0193090Y0027016D01*
X0193095Y0027077D01*
X0193097Y0027139D01*
X0193097Y0028161D01*
X0192075Y0029835D02*
X0191053Y0029835D01*
X0190990Y0029837D01*
X0190927Y0029843D01*
X0190865Y0029852D01*
X0190804Y0029866D01*
X0190743Y0029883D01*
X0190684Y0029904D01*
X0190626Y0029929D01*
X0190569Y0029957D01*
X0190515Y0029988D01*
X0190463Y0030023D01*
X0190412Y0030061D01*
X0190364Y0030102D01*
X0190319Y0030146D01*
X0190277Y0030192D01*
X0190237Y0030241D01*
X0190201Y0030292D01*
X0190168Y0030346D01*
X0190138Y0030401D01*
X0190112Y0030459D01*
X0190089Y0030517D01*
X0190070Y0030577D01*
X0190055Y0030638D01*
X0190043Y0030700D01*
X0190035Y0030763D01*
X0190031Y0030826D01*
X0190031Y0030888D01*
X0190035Y0030951D01*
X0190043Y0031014D01*
X0190055Y0031076D01*
X0190070Y0031137D01*
X0190089Y0031197D01*
X0190112Y0031255D01*
X0190138Y0031313D01*
X0190168Y0031368D01*
X0190201Y0031422D01*
X0190237Y0031473D01*
X0190277Y0031522D01*
X0190319Y0031568D01*
X0190364Y0031612D01*
X0190412Y0031653D01*
X0190463Y0031691D01*
X0190515Y0031726D01*
X0190569Y0031757D01*
X0190626Y0031785D01*
X0190684Y0031810D01*
X0190743Y0031831D01*
X0190804Y0031848D01*
X0190865Y0031862D01*
X0190927Y0031871D01*
X0190990Y0031877D01*
X0191053Y0031879D01*
X0191053Y0031880D02*
X0192075Y0031880D01*
X0192075Y0031879D02*
X0192138Y0031877D01*
X0192201Y0031871D01*
X0192263Y0031862D01*
X0192324Y0031848D01*
X0192385Y0031831D01*
X0192444Y0031810D01*
X0192502Y0031785D01*
X0192559Y0031757D01*
X0192613Y0031726D01*
X0192665Y0031691D01*
X0192716Y0031653D01*
X0192764Y0031612D01*
X0192809Y0031568D01*
X0192851Y0031522D01*
X0192891Y0031473D01*
X0192927Y0031422D01*
X0192960Y0031368D01*
X0192990Y0031313D01*
X0193016Y0031255D01*
X0193039Y0031197D01*
X0193058Y0031137D01*
X0193073Y0031076D01*
X0193085Y0031014D01*
X0193093Y0030951D01*
X0193097Y0030888D01*
X0193097Y0030826D01*
X0193093Y0030763D01*
X0193085Y0030700D01*
X0193073Y0030638D01*
X0193058Y0030577D01*
X0193039Y0030517D01*
X0193016Y0030459D01*
X0192990Y0030401D01*
X0192960Y0030346D01*
X0192927Y0030292D01*
X0192891Y0030241D01*
X0192851Y0030192D01*
X0192809Y0030146D01*
X0192764Y0030102D01*
X0192716Y0030061D01*
X0192665Y0030023D01*
X0192613Y0029988D01*
X0192559Y0029957D01*
X0192502Y0029929D01*
X0192444Y0029904D01*
X0192385Y0029883D01*
X0192324Y0029866D01*
X0192263Y0029852D01*
X0192201Y0029843D01*
X0192138Y0029837D01*
X0192075Y0029835D01*
X0193097Y0033885D02*
X0190031Y0033885D01*
X0190031Y0035163D01*
X0190030Y0035163D02*
X0190032Y0035218D01*
X0190038Y0035272D01*
X0190048Y0035326D01*
X0190061Y0035379D01*
X0190078Y0035431D01*
X0190099Y0035482D01*
X0190124Y0035531D01*
X0190152Y0035578D01*
X0190183Y0035623D01*
X0190217Y0035665D01*
X0190255Y0035705D01*
X0190295Y0035743D01*
X0190337Y0035777D01*
X0190382Y0035808D01*
X0190429Y0035836D01*
X0190478Y0035861D01*
X0190529Y0035882D01*
X0190581Y0035899D01*
X0190634Y0035912D01*
X0190688Y0035922D01*
X0190742Y0035928D01*
X0190797Y0035930D01*
X0193097Y0035930D01*
X0192331Y0038065D02*
X0188497Y0038065D01*
X0190031Y0037554D02*
X0190031Y0039088D01*
X0190031Y0040961D02*
X0190031Y0042495D01*
X0190542Y0042495D01*
X0191053Y0043935D02*
X0192075Y0043935D01*
X0192138Y0043937D01*
X0192201Y0043943D01*
X0192263Y0043952D01*
X0192324Y0043966D01*
X0192385Y0043983D01*
X0192444Y0044004D01*
X0192502Y0044029D01*
X0192559Y0044057D01*
X0192613Y0044088D01*
X0192665Y0044123D01*
X0192716Y0044161D01*
X0192764Y0044202D01*
X0192809Y0044246D01*
X0192851Y0044292D01*
X0192891Y0044341D01*
X0192927Y0044392D01*
X0192960Y0044446D01*
X0192990Y0044501D01*
X0193016Y0044559D01*
X0193039Y0044617D01*
X0193058Y0044677D01*
X0193073Y0044738D01*
X0193085Y0044800D01*
X0193093Y0044863D01*
X0193097Y0044926D01*
X0193097Y0044988D01*
X0193093Y0045051D01*
X0193085Y0045114D01*
X0193073Y0045176D01*
X0193058Y0045237D01*
X0193039Y0045297D01*
X0193016Y0045355D01*
X0192990Y0045413D01*
X0192960Y0045468D01*
X0192927Y0045522D01*
X0192891Y0045573D01*
X0192851Y0045622D01*
X0192809Y0045668D01*
X0192764Y0045712D01*
X0192716Y0045753D01*
X0192665Y0045791D01*
X0192613Y0045826D01*
X0192559Y0045857D01*
X0192502Y0045885D01*
X0192444Y0045910D01*
X0192385Y0045931D01*
X0192324Y0045948D01*
X0192263Y0045962D01*
X0192201Y0045971D01*
X0192138Y0045977D01*
X0192075Y0045979D01*
X0192075Y0045980D02*
X0191053Y0045980D01*
X0191053Y0045979D02*
X0190990Y0045977D01*
X0190927Y0045971D01*
X0190865Y0045962D01*
X0190804Y0045948D01*
X0190743Y0045931D01*
X0190684Y0045910D01*
X0190626Y0045885D01*
X0190569Y0045857D01*
X0190515Y0045826D01*
X0190463Y0045791D01*
X0190412Y0045753D01*
X0190364Y0045712D01*
X0190319Y0045668D01*
X0190277Y0045622D01*
X0190237Y0045573D01*
X0190201Y0045522D01*
X0190168Y0045468D01*
X0190138Y0045413D01*
X0190112Y0045355D01*
X0190089Y0045297D01*
X0190070Y0045237D01*
X0190055Y0045176D01*
X0190043Y0045114D01*
X0190035Y0045051D01*
X0190031Y0044988D01*
X0190031Y0044926D01*
X0190035Y0044863D01*
X0190043Y0044800D01*
X0190055Y0044738D01*
X0190070Y0044677D01*
X0190089Y0044617D01*
X0190112Y0044559D01*
X0190138Y0044501D01*
X0190168Y0044446D01*
X0190201Y0044392D01*
X0190237Y0044341D01*
X0190277Y0044292D01*
X0190319Y0044246D01*
X0190364Y0044202D01*
X0190412Y0044161D01*
X0190463Y0044123D01*
X0190515Y0044088D01*
X0190569Y0044057D01*
X0190626Y0044029D01*
X0190684Y0044004D01*
X0190743Y0043983D01*
X0190804Y0043966D01*
X0190865Y0043952D01*
X0190927Y0043943D01*
X0190990Y0043937D01*
X0191053Y0043935D01*
X0190031Y0040961D02*
X0193097Y0040961D01*
X0193097Y0039088D02*
X0193097Y0038832D01*
X0193098Y0038832D02*
X0193096Y0038777D01*
X0193090Y0038723D01*
X0193080Y0038669D01*
X0193067Y0038616D01*
X0193050Y0038564D01*
X0193029Y0038513D01*
X0193004Y0038464D01*
X0192976Y0038417D01*
X0192945Y0038372D01*
X0192911Y0038330D01*
X0192873Y0038290D01*
X0192833Y0038252D01*
X0192791Y0038218D01*
X0192746Y0038187D01*
X0192699Y0038159D01*
X0192650Y0038134D01*
X0192599Y0038113D01*
X0192547Y0038096D01*
X0192494Y0038083D01*
X0192440Y0038073D01*
X0192386Y0038067D01*
X0192331Y0038065D01*
X0185597Y0041611D02*
X0180997Y0043144D01*
X0185597Y0044678D01*
X0184447Y0044294D02*
X0184447Y0041994D01*
X0185597Y0046472D02*
X0182531Y0046472D01*
X0182531Y0047750D01*
X0182530Y0047750D02*
X0182532Y0047805D01*
X0182538Y0047859D01*
X0182548Y0047913D01*
X0182561Y0047966D01*
X0182578Y0048018D01*
X0182599Y0048069D01*
X0182624Y0048118D01*
X0182652Y0048165D01*
X0182683Y0048210D01*
X0182717Y0048252D01*
X0182755Y0048292D01*
X0182795Y0048330D01*
X0182837Y0048364D01*
X0182882Y0048395D01*
X0182929Y0048423D01*
X0182978Y0048448D01*
X0183029Y0048469D01*
X0183081Y0048486D01*
X0183134Y0048499D01*
X0183188Y0048509D01*
X0183242Y0048515D01*
X0183297Y0048517D01*
X0183297Y0048516D02*
X0185597Y0048516D01*
X0185597Y0051393D02*
X0185597Y0052543D01*
X0183297Y0052543D01*
X0183808Y0052543D02*
X0183808Y0051393D01*
X0183297Y0052544D02*
X0183242Y0052542D01*
X0183188Y0052536D01*
X0183134Y0052526D01*
X0183081Y0052513D01*
X0183029Y0052496D01*
X0182978Y0052475D01*
X0182929Y0052450D01*
X0182882Y0052422D01*
X0182837Y0052391D01*
X0182795Y0052357D01*
X0182755Y0052319D01*
X0182717Y0052279D01*
X0182683Y0052237D01*
X0182652Y0052192D01*
X0182624Y0052145D01*
X0182599Y0052096D01*
X0182578Y0052045D01*
X0182561Y0051993D01*
X0182548Y0051940D01*
X0182538Y0051886D01*
X0182532Y0051832D01*
X0182530Y0051777D01*
X0182531Y0051777D02*
X0182531Y0050754D01*
X0183809Y0051393D02*
X0183811Y0051335D01*
X0183817Y0051276D01*
X0183826Y0051219D01*
X0183839Y0051162D01*
X0183856Y0051106D01*
X0183877Y0051051D01*
X0183901Y0050998D01*
X0183929Y0050946D01*
X0183960Y0050896D01*
X0183994Y0050849D01*
X0184031Y0050804D01*
X0184071Y0050761D01*
X0184114Y0050721D01*
X0184159Y0050684D01*
X0184206Y0050650D01*
X0184256Y0050619D01*
X0184308Y0050591D01*
X0184361Y0050567D01*
X0184416Y0050546D01*
X0184472Y0050529D01*
X0184529Y0050516D01*
X0184586Y0050507D01*
X0184645Y0050501D01*
X0184703Y0050499D01*
X0184761Y0050501D01*
X0184820Y0050507D01*
X0184877Y0050516D01*
X0184934Y0050529D01*
X0184990Y0050546D01*
X0185045Y0050567D01*
X0185098Y0050591D01*
X0185150Y0050619D01*
X0185200Y0050650D01*
X0185247Y0050684D01*
X0185292Y0050721D01*
X0185335Y0050761D01*
X0185375Y0050804D01*
X0185412Y0050849D01*
X0185446Y0050896D01*
X0185477Y0050946D01*
X0185505Y0050998D01*
X0185529Y0051051D01*
X0185550Y0051106D01*
X0185567Y0051162D01*
X0185580Y0051219D01*
X0185589Y0051276D01*
X0185595Y0051335D01*
X0185597Y0051393D01*
X0188497Y0050294D02*
X0192331Y0050294D01*
X0192386Y0050296D01*
X0192440Y0050302D01*
X0192494Y0050312D01*
X0192547Y0050325D01*
X0192599Y0050342D01*
X0192650Y0050363D01*
X0192699Y0050388D01*
X0192746Y0050416D01*
X0192791Y0050447D01*
X0192833Y0050481D01*
X0192873Y0050519D01*
X0192911Y0050559D01*
X0192945Y0050601D01*
X0192976Y0050646D01*
X0193004Y0050693D01*
X0193029Y0050742D01*
X0193050Y0050793D01*
X0193067Y0050845D01*
X0193080Y0050898D01*
X0193090Y0050952D01*
X0193096Y0051006D01*
X0193098Y0051061D01*
X0192331Y0052635D02*
X0191053Y0052635D01*
X0191564Y0052635D02*
X0191564Y0054680D01*
X0191053Y0054680D01*
X0191053Y0054679D02*
X0190990Y0054677D01*
X0190927Y0054671D01*
X0190865Y0054662D01*
X0190804Y0054648D01*
X0190743Y0054631D01*
X0190684Y0054610D01*
X0190626Y0054585D01*
X0190569Y0054557D01*
X0190515Y0054526D01*
X0190463Y0054491D01*
X0190412Y0054453D01*
X0190364Y0054412D01*
X0190319Y0054368D01*
X0190277Y0054322D01*
X0190237Y0054273D01*
X0190201Y0054222D01*
X0190168Y0054168D01*
X0190138Y0054113D01*
X0190112Y0054055D01*
X0190089Y0053997D01*
X0190070Y0053937D01*
X0190055Y0053876D01*
X0190043Y0053814D01*
X0190035Y0053751D01*
X0190031Y0053688D01*
X0190031Y0053626D01*
X0190035Y0053563D01*
X0190043Y0053500D01*
X0190055Y0053438D01*
X0190070Y0053377D01*
X0190089Y0053317D01*
X0190112Y0053259D01*
X0190138Y0053201D01*
X0190168Y0053146D01*
X0190201Y0053092D01*
X0190237Y0053041D01*
X0190277Y0052992D01*
X0190319Y0052946D01*
X0190364Y0052902D01*
X0190412Y0052861D01*
X0190463Y0052823D01*
X0190515Y0052788D01*
X0190569Y0052757D01*
X0190626Y0052729D01*
X0190684Y0052704D01*
X0190743Y0052683D01*
X0190804Y0052666D01*
X0190865Y0052652D01*
X0190927Y0052643D01*
X0190990Y0052637D01*
X0191053Y0052635D01*
X0192331Y0052635D02*
X0192386Y0052637D01*
X0192440Y0052643D01*
X0192494Y0052653D01*
X0192547Y0052666D01*
X0192599Y0052683D01*
X0192650Y0052704D01*
X0192699Y0052729D01*
X0192746Y0052757D01*
X0192791Y0052788D01*
X0192833Y0052822D01*
X0192873Y0052860D01*
X0192911Y0052900D01*
X0192945Y0052942D01*
X0192976Y0052987D01*
X0193004Y0053034D01*
X0193029Y0053083D01*
X0193050Y0053134D01*
X0193067Y0053186D01*
X0193080Y0053239D01*
X0193090Y0053293D01*
X0193096Y0053347D01*
X0193098Y0053402D01*
X0193097Y0053402D02*
X0193097Y0054680D01*
X0193097Y0056711D02*
X0190031Y0056711D01*
X0190031Y0058245D01*
X0190542Y0058245D01*
X0187131Y0061104D02*
X0187131Y0062127D01*
X0187129Y0062182D01*
X0187123Y0062236D01*
X0187113Y0062290D01*
X0187100Y0062343D01*
X0187083Y0062395D01*
X0187062Y0062446D01*
X0187037Y0062495D01*
X0187009Y0062542D01*
X0186978Y0062587D01*
X0186944Y0062629D01*
X0186906Y0062669D01*
X0186866Y0062707D01*
X0186824Y0062741D01*
X0186779Y0062772D01*
X0186732Y0062800D01*
X0186683Y0062825D01*
X0186632Y0062846D01*
X0186580Y0062863D01*
X0186527Y0062876D01*
X0186473Y0062886D01*
X0186419Y0062892D01*
X0186364Y0062894D01*
X0186364Y0062893D02*
X0182531Y0062893D01*
X0182531Y0061616D01*
X0182530Y0061616D02*
X0182532Y0061561D01*
X0182538Y0061507D01*
X0182548Y0061453D01*
X0182561Y0061400D01*
X0182578Y0061348D01*
X0182599Y0061297D01*
X0182624Y0061248D01*
X0182652Y0061201D01*
X0182683Y0061156D01*
X0182717Y0061114D01*
X0182755Y0061074D01*
X0182795Y0061036D01*
X0182837Y0061002D01*
X0182882Y0060971D01*
X0182929Y0060943D01*
X0182978Y0060918D01*
X0183029Y0060897D01*
X0183081Y0060880D01*
X0183134Y0060867D01*
X0183188Y0060857D01*
X0183242Y0060851D01*
X0183297Y0060849D01*
X0184831Y0060849D01*
X0184886Y0060851D01*
X0184940Y0060857D01*
X0184994Y0060867D01*
X0185047Y0060880D01*
X0185099Y0060897D01*
X0185150Y0060918D01*
X0185199Y0060943D01*
X0185246Y0060971D01*
X0185291Y0061002D01*
X0185333Y0061036D01*
X0185373Y0061074D01*
X0185411Y0061114D01*
X0185445Y0061156D01*
X0185476Y0061201D01*
X0185504Y0061248D01*
X0185529Y0061297D01*
X0185550Y0061348D01*
X0185567Y0061400D01*
X0185580Y0061453D01*
X0185590Y0061507D01*
X0185596Y0061561D01*
X0185598Y0061616D01*
X0185597Y0061616D02*
X0185597Y0062893D01*
X0184575Y0059016D02*
X0183553Y0059016D01*
X0183490Y0059014D01*
X0183427Y0059008D01*
X0183365Y0058999D01*
X0183304Y0058985D01*
X0183243Y0058968D01*
X0183184Y0058947D01*
X0183126Y0058922D01*
X0183069Y0058894D01*
X0183015Y0058863D01*
X0182963Y0058828D01*
X0182912Y0058790D01*
X0182864Y0058749D01*
X0182819Y0058705D01*
X0182777Y0058659D01*
X0182737Y0058610D01*
X0182701Y0058559D01*
X0182668Y0058505D01*
X0182638Y0058450D01*
X0182612Y0058392D01*
X0182589Y0058334D01*
X0182570Y0058274D01*
X0182555Y0058213D01*
X0182543Y0058151D01*
X0182535Y0058088D01*
X0182531Y0058025D01*
X0182531Y0057963D01*
X0182535Y0057900D01*
X0182543Y0057837D01*
X0182555Y0057775D01*
X0182570Y0057714D01*
X0182589Y0057654D01*
X0182612Y0057596D01*
X0182638Y0057538D01*
X0182668Y0057483D01*
X0182701Y0057429D01*
X0182737Y0057378D01*
X0182777Y0057329D01*
X0182819Y0057283D01*
X0182864Y0057239D01*
X0182912Y0057198D01*
X0182963Y0057160D01*
X0183015Y0057125D01*
X0183069Y0057094D01*
X0183126Y0057066D01*
X0183184Y0057041D01*
X0183243Y0057020D01*
X0183304Y0057003D01*
X0183365Y0056989D01*
X0183427Y0056980D01*
X0183490Y0056974D01*
X0183553Y0056972D01*
X0184575Y0056972D01*
X0184638Y0056974D01*
X0184701Y0056980D01*
X0184763Y0056989D01*
X0184824Y0057003D01*
X0184885Y0057020D01*
X0184944Y0057041D01*
X0185002Y0057066D01*
X0185059Y0057094D01*
X0185113Y0057125D01*
X0185165Y0057160D01*
X0185216Y0057198D01*
X0185264Y0057239D01*
X0185309Y0057283D01*
X0185351Y0057329D01*
X0185391Y0057378D01*
X0185427Y0057429D01*
X0185460Y0057483D01*
X0185490Y0057538D01*
X0185516Y0057596D01*
X0185539Y0057654D01*
X0185558Y0057714D01*
X0185573Y0057775D01*
X0185585Y0057837D01*
X0185593Y0057900D01*
X0185597Y0057963D01*
X0185597Y0058025D01*
X0185593Y0058088D01*
X0185585Y0058151D01*
X0185573Y0058213D01*
X0185558Y0058274D01*
X0185539Y0058334D01*
X0185516Y0058392D01*
X0185490Y0058450D01*
X0185460Y0058505D01*
X0185427Y0058559D01*
X0185391Y0058610D01*
X0185351Y0058659D01*
X0185309Y0058705D01*
X0185264Y0058749D01*
X0185216Y0058790D01*
X0185165Y0058828D01*
X0185113Y0058863D01*
X0185059Y0058894D01*
X0185002Y0058922D01*
X0184944Y0058947D01*
X0184885Y0058968D01*
X0184824Y0058985D01*
X0184763Y0058999D01*
X0184701Y0059008D01*
X0184638Y0059014D01*
X0184575Y0059016D01*
X0185598Y0055398D02*
X0185596Y0055343D01*
X0185590Y0055289D01*
X0185580Y0055235D01*
X0185567Y0055182D01*
X0185550Y0055130D01*
X0185529Y0055079D01*
X0185504Y0055030D01*
X0185476Y0054983D01*
X0185445Y0054938D01*
X0185411Y0054896D01*
X0185373Y0054856D01*
X0185333Y0054818D01*
X0185291Y0054784D01*
X0185246Y0054753D01*
X0185199Y0054725D01*
X0185150Y0054700D01*
X0185099Y0054679D01*
X0185047Y0054662D01*
X0184994Y0054649D01*
X0184940Y0054639D01*
X0184886Y0054633D01*
X0184831Y0054631D01*
X0180997Y0054631D01*
X0175381Y0054263D02*
X0175381Y0052729D01*
X0175380Y0052729D02*
X0175378Y0052667D01*
X0175373Y0052606D01*
X0175363Y0052545D01*
X0175350Y0052484D01*
X0175334Y0052425D01*
X0175314Y0052367D01*
X0175290Y0052310D01*
X0175263Y0052254D01*
X0175233Y0052200D01*
X0175199Y0052148D01*
X0175163Y0052099D01*
X0175123Y0052051D01*
X0175081Y0052006D01*
X0175036Y0051964D01*
X0174988Y0051924D01*
X0174939Y0051888D01*
X0174887Y0051854D01*
X0174833Y0051824D01*
X0174777Y0051797D01*
X0174720Y0051773D01*
X0174662Y0051753D01*
X0174603Y0051737D01*
X0174542Y0051724D01*
X0174481Y0051714D01*
X0174420Y0051709D01*
X0174358Y0051707D01*
X0171803Y0051707D01*
X0171741Y0051709D01*
X0171680Y0051714D01*
X0171619Y0051724D01*
X0171558Y0051737D01*
X0171499Y0051753D01*
X0171441Y0051773D01*
X0171384Y0051797D01*
X0171328Y0051824D01*
X0171274Y0051854D01*
X0171222Y0051888D01*
X0171173Y0051924D01*
X0171125Y0051964D01*
X0171080Y0052006D01*
X0171038Y0052051D01*
X0170999Y0052099D01*
X0170962Y0052148D01*
X0170928Y0052200D01*
X0170898Y0052254D01*
X0170871Y0052310D01*
X0170847Y0052367D01*
X0170827Y0052425D01*
X0170811Y0052484D01*
X0170798Y0052545D01*
X0170788Y0052606D01*
X0170783Y0052667D01*
X0170781Y0052729D01*
X0170781Y0054263D01*
X0172825Y0054263D02*
X0175381Y0054263D01*
X0172825Y0054263D02*
X0172825Y0053496D01*
X0170781Y0056507D02*
X0175381Y0059063D01*
X0170781Y0059063D01*
X0170781Y0061307D02*
X0170781Y0062585D01*
X0170780Y0062585D02*
X0170782Y0062654D01*
X0170787Y0062723D01*
X0170797Y0062792D01*
X0170810Y0062860D01*
X0170827Y0062927D01*
X0170847Y0062993D01*
X0170871Y0063058D01*
X0170898Y0063122D01*
X0170929Y0063184D01*
X0170963Y0063244D01*
X0171000Y0063302D01*
X0171041Y0063358D01*
X0171084Y0063412D01*
X0171130Y0063464D01*
X0171179Y0063513D01*
X0171231Y0063559D01*
X0171285Y0063602D01*
X0171341Y0063643D01*
X0171399Y0063680D01*
X0171459Y0063714D01*
X0171521Y0063745D01*
X0171585Y0063772D01*
X0171650Y0063796D01*
X0171716Y0063816D01*
X0171783Y0063833D01*
X0171851Y0063846D01*
X0171920Y0063856D01*
X0171989Y0063861D01*
X0172058Y0063863D01*
X0174103Y0063863D01*
X0174172Y0063861D01*
X0174241Y0063856D01*
X0174310Y0063846D01*
X0174378Y0063833D01*
X0174445Y0063816D01*
X0174511Y0063796D01*
X0174576Y0063772D01*
X0174640Y0063745D01*
X0174702Y0063714D01*
X0174762Y0063680D01*
X0174820Y0063643D01*
X0174876Y0063602D01*
X0174930Y0063559D01*
X0174982Y0063513D01*
X0175031Y0063464D01*
X0175077Y0063412D01*
X0175120Y0063358D01*
X0175161Y0063302D01*
X0175198Y0063244D01*
X0175232Y0063184D01*
X0175263Y0063122D01*
X0175290Y0063058D01*
X0175314Y0062993D01*
X0175334Y0062927D01*
X0175351Y0062860D01*
X0175364Y0062792D01*
X0175374Y0062723D01*
X0175379Y0062654D01*
X0175381Y0062585D01*
X0175381Y0061307D01*
X0170781Y0061307D01*
X0170781Y0056507D02*
X0175381Y0056507D01*
X0188497Y0047894D02*
X0192331Y0047894D01*
X0192386Y0047896D01*
X0192440Y0047902D01*
X0192494Y0047912D01*
X0192547Y0047925D01*
X0192599Y0047942D01*
X0192650Y0047963D01*
X0192699Y0047988D01*
X0192746Y0048016D01*
X0192791Y0048047D01*
X0192833Y0048081D01*
X0192873Y0048119D01*
X0192911Y0048159D01*
X0192945Y0048201D01*
X0192976Y0048246D01*
X0193004Y0048293D01*
X0193029Y0048342D01*
X0193050Y0048393D01*
X0193067Y0048445D01*
X0193080Y0048498D01*
X0193090Y0048552D01*
X0193096Y0048606D01*
X0193098Y0048661D01*
D12*
X0193147Y0081185D02*
X0193147Y0083240D01*
X0192633Y0086532D02*
X0192537Y0086577D01*
X0192439Y0086618D01*
X0192339Y0086656D01*
X0192239Y0086691D01*
X0192137Y0086722D01*
X0192034Y0086750D01*
X0191931Y0086773D01*
X0191826Y0086794D01*
X0191721Y0086810D01*
X0191616Y0086823D01*
X0191510Y0086833D01*
X0191403Y0086838D01*
X0191297Y0086840D01*
X0191297Y0084785D02*
X0191191Y0084787D01*
X0191084Y0084792D01*
X0190978Y0084802D01*
X0190873Y0084815D01*
X0190768Y0084831D01*
X0190663Y0084852D01*
X0190560Y0084875D01*
X0190457Y0084903D01*
X0190355Y0084934D01*
X0190255Y0084969D01*
X0190155Y0085007D01*
X0190057Y0085048D01*
X0189961Y0085093D01*
X0189447Y0085812D02*
X0189449Y0085864D01*
X0189454Y0085917D01*
X0189463Y0085968D01*
X0189476Y0086019D01*
X0189492Y0086069D01*
X0189511Y0086118D01*
X0189534Y0086165D01*
X0189560Y0086211D01*
X0189589Y0086254D01*
X0189621Y0086296D01*
X0189655Y0086335D01*
X0189693Y0086372D01*
X0189733Y0086406D01*
X0189775Y0086438D01*
X0189819Y0086466D01*
X0189865Y0086491D01*
X0189912Y0086513D01*
X0189961Y0086532D01*
X0190269Y0086635D02*
X0192325Y0084990D01*
X0193148Y0085812D02*
X0193146Y0085864D01*
X0193141Y0085917D01*
X0193132Y0085968D01*
X0193119Y0086019D01*
X0193103Y0086069D01*
X0193084Y0086118D01*
X0193061Y0086165D01*
X0193035Y0086211D01*
X0193006Y0086254D01*
X0192974Y0086296D01*
X0192940Y0086335D01*
X0192902Y0086372D01*
X0192862Y0086406D01*
X0192820Y0086438D01*
X0192776Y0086466D01*
X0192730Y0086491D01*
X0192683Y0086513D01*
X0192634Y0086532D01*
X0193148Y0085812D02*
X0193146Y0085760D01*
X0193141Y0085707D01*
X0193132Y0085656D01*
X0193119Y0085605D01*
X0193103Y0085555D01*
X0193084Y0085506D01*
X0193061Y0085459D01*
X0193035Y0085413D01*
X0193006Y0085370D01*
X0192974Y0085328D01*
X0192940Y0085289D01*
X0192902Y0085252D01*
X0192862Y0085218D01*
X0192820Y0085186D01*
X0192776Y0085158D01*
X0192730Y0085133D01*
X0192683Y0085111D01*
X0192634Y0085092D01*
X0191297Y0086840D02*
X0191191Y0086838D01*
X0191084Y0086833D01*
X0190978Y0086823D01*
X0190873Y0086810D01*
X0190768Y0086794D01*
X0190663Y0086773D01*
X0190560Y0086750D01*
X0190457Y0086722D01*
X0190355Y0086691D01*
X0190255Y0086656D01*
X0190155Y0086618D01*
X0190057Y0086577D01*
X0189961Y0086532D01*
X0189447Y0085812D02*
X0189449Y0085760D01*
X0189454Y0085707D01*
X0189463Y0085656D01*
X0189476Y0085605D01*
X0189492Y0085555D01*
X0189511Y0085506D01*
X0189534Y0085459D01*
X0189560Y0085413D01*
X0189589Y0085370D01*
X0189621Y0085328D01*
X0189655Y0085289D01*
X0189693Y0085252D01*
X0189733Y0085218D01*
X0189775Y0085186D01*
X0189819Y0085158D01*
X0189865Y0085133D01*
X0189912Y0085111D01*
X0189961Y0085092D01*
X0191092Y0082932D02*
X0193147Y0081185D01*
X0190270Y0081185D02*
X0190206Y0081208D01*
X0190143Y0081234D01*
X0190082Y0081264D01*
X0190023Y0081297D01*
X0189966Y0081334D01*
X0189911Y0081374D01*
X0189859Y0081417D01*
X0189809Y0081463D01*
X0189761Y0081511D01*
X0189717Y0081562D01*
X0189675Y0081616D01*
X0189637Y0081672D01*
X0189602Y0081730D01*
X0189570Y0081790D01*
X0189542Y0081852D01*
X0189517Y0081915D01*
X0189496Y0081980D01*
X0189479Y0082046D01*
X0189465Y0082112D01*
X0189456Y0082179D01*
X0189450Y0082247D01*
X0189448Y0082315D01*
X0189447Y0082315D02*
X0189449Y0082373D01*
X0189454Y0082431D01*
X0189463Y0082488D01*
X0189476Y0082545D01*
X0189492Y0082601D01*
X0189512Y0082656D01*
X0189535Y0082709D01*
X0189561Y0082761D01*
X0189591Y0082811D01*
X0189624Y0082859D01*
X0189659Y0082905D01*
X0189698Y0082948D01*
X0189739Y0082989D01*
X0189782Y0083028D01*
X0189828Y0083063D01*
X0189876Y0083096D01*
X0189926Y0083126D01*
X0189978Y0083152D01*
X0190031Y0083175D01*
X0190086Y0083195D01*
X0190142Y0083211D01*
X0190199Y0083224D01*
X0190256Y0083233D01*
X0190314Y0083238D01*
X0190372Y0083240D01*
X0190372Y0083241D02*
X0190434Y0083239D01*
X0190496Y0083233D01*
X0190557Y0083224D01*
X0190617Y0083210D01*
X0190677Y0083193D01*
X0190735Y0083172D01*
X0190792Y0083148D01*
X0190847Y0083120D01*
X0190901Y0083089D01*
X0190952Y0083054D01*
X0191001Y0083017D01*
X0191048Y0082976D01*
X0191092Y0082933D01*
X0191297Y0084785D02*
X0191403Y0084787D01*
X0191510Y0084792D01*
X0191616Y0084802D01*
X0191721Y0084815D01*
X0191826Y0084831D01*
X0191931Y0084852D01*
X0192034Y0084875D01*
X0192137Y0084903D01*
X0192239Y0084934D01*
X0192339Y0084969D01*
X0192439Y0085007D01*
X0192537Y0085048D01*
X0192633Y0085093D01*
X0193147Y0088385D02*
X0193147Y0090440D01*
X0193147Y0091985D02*
X0193147Y0093012D01*
X0193145Y0093075D01*
X0193139Y0093138D01*
X0193129Y0093201D01*
X0193116Y0093263D01*
X0193099Y0093324D01*
X0193078Y0093383D01*
X0193053Y0093442D01*
X0193025Y0093498D01*
X0192993Y0093553D01*
X0192958Y0093606D01*
X0192920Y0093656D01*
X0192879Y0093705D01*
X0192835Y0093750D01*
X0192788Y0093793D01*
X0192739Y0093832D01*
X0192687Y0093869D01*
X0192633Y0093902D01*
X0192577Y0093932D01*
X0192520Y0093959D01*
X0192461Y0093982D01*
X0192400Y0094001D01*
X0192339Y0094016D01*
X0192277Y0094028D01*
X0192214Y0094036D01*
X0192151Y0094040D01*
X0192087Y0094040D01*
X0192024Y0094036D01*
X0191961Y0094028D01*
X0191899Y0094016D01*
X0191838Y0094001D01*
X0191777Y0093982D01*
X0191718Y0093959D01*
X0191661Y0093932D01*
X0191605Y0093902D01*
X0191551Y0093869D01*
X0191499Y0093832D01*
X0191450Y0093793D01*
X0191403Y0093750D01*
X0191359Y0093705D01*
X0191318Y0093656D01*
X0191280Y0093606D01*
X0191245Y0093553D01*
X0191213Y0093498D01*
X0191185Y0093442D01*
X0191160Y0093383D01*
X0191139Y0093324D01*
X0191122Y0093263D01*
X0191109Y0093201D01*
X0191099Y0093138D01*
X0191093Y0093075D01*
X0191091Y0093012D01*
X0191092Y0093218D02*
X0191092Y0092396D01*
X0191091Y0093218D02*
X0191089Y0093274D01*
X0191083Y0093330D01*
X0191074Y0093385D01*
X0191061Y0093440D01*
X0191044Y0093493D01*
X0191023Y0093545D01*
X0190999Y0093596D01*
X0190971Y0093645D01*
X0190941Y0093692D01*
X0190907Y0093737D01*
X0190870Y0093779D01*
X0190830Y0093819D01*
X0190788Y0093856D01*
X0190743Y0093890D01*
X0190696Y0093920D01*
X0190647Y0093948D01*
X0190596Y0093972D01*
X0190544Y0093993D01*
X0190491Y0094010D01*
X0190436Y0094023D01*
X0190381Y0094032D01*
X0190325Y0094038D01*
X0190269Y0094040D01*
X0190213Y0094038D01*
X0190157Y0094032D01*
X0190102Y0094023D01*
X0190047Y0094010D01*
X0189994Y0093993D01*
X0189942Y0093972D01*
X0189891Y0093948D01*
X0189842Y0093920D01*
X0189795Y0093890D01*
X0189750Y0093856D01*
X0189708Y0093819D01*
X0189668Y0093779D01*
X0189631Y0093737D01*
X0189597Y0093692D01*
X0189567Y0093645D01*
X0189539Y0093596D01*
X0189515Y0093545D01*
X0189494Y0093493D01*
X0189477Y0093440D01*
X0189464Y0093385D01*
X0189455Y0093330D01*
X0189449Y0093274D01*
X0189447Y0093218D01*
X0189447Y0091985D01*
X0191092Y0090132D02*
X0193147Y0088385D01*
X0190270Y0088385D02*
X0190206Y0088408D01*
X0190143Y0088434D01*
X0190082Y0088464D01*
X0190023Y0088497D01*
X0189966Y0088534D01*
X0189911Y0088574D01*
X0189859Y0088617D01*
X0189809Y0088663D01*
X0189761Y0088711D01*
X0189717Y0088762D01*
X0189675Y0088816D01*
X0189637Y0088872D01*
X0189602Y0088930D01*
X0189570Y0088990D01*
X0189542Y0089052D01*
X0189517Y0089115D01*
X0189496Y0089180D01*
X0189479Y0089246D01*
X0189465Y0089312D01*
X0189456Y0089379D01*
X0189450Y0089447D01*
X0189448Y0089515D01*
X0189447Y0089515D02*
X0189449Y0089573D01*
X0189454Y0089631D01*
X0189463Y0089688D01*
X0189476Y0089745D01*
X0189492Y0089801D01*
X0189512Y0089856D01*
X0189535Y0089909D01*
X0189561Y0089961D01*
X0189591Y0090011D01*
X0189624Y0090059D01*
X0189659Y0090105D01*
X0189698Y0090148D01*
X0189739Y0090189D01*
X0189782Y0090228D01*
X0189828Y0090263D01*
X0189876Y0090296D01*
X0189926Y0090326D01*
X0189978Y0090352D01*
X0190031Y0090375D01*
X0190086Y0090395D01*
X0190142Y0090411D01*
X0190199Y0090424D01*
X0190256Y0090433D01*
X0190314Y0090438D01*
X0190372Y0090440D01*
X0190372Y0090441D02*
X0190434Y0090439D01*
X0190496Y0090433D01*
X0190557Y0090424D01*
X0190617Y0090410D01*
X0190677Y0090393D01*
X0190735Y0090372D01*
X0190792Y0090348D01*
X0190847Y0090320D01*
X0190901Y0090289D01*
X0190952Y0090254D01*
X0191001Y0090217D01*
X0191048Y0090176D01*
X0191092Y0090133D01*
X0191708Y0095619D02*
X0191708Y0098086D01*
X0192633Y0101412D02*
X0192537Y0101457D01*
X0192439Y0101498D01*
X0192339Y0101536D01*
X0192239Y0101571D01*
X0192137Y0101602D01*
X0192034Y0101630D01*
X0191931Y0101653D01*
X0191826Y0101674D01*
X0191721Y0101690D01*
X0191616Y0101703D01*
X0191510Y0101713D01*
X0191403Y0101718D01*
X0191297Y0101720D01*
X0191297Y0099665D02*
X0191191Y0099667D01*
X0191084Y0099672D01*
X0190978Y0099682D01*
X0190873Y0099695D01*
X0190768Y0099711D01*
X0190663Y0099732D01*
X0190560Y0099755D01*
X0190457Y0099783D01*
X0190355Y0099814D01*
X0190255Y0099849D01*
X0190155Y0099887D01*
X0190057Y0099928D01*
X0189961Y0099973D01*
X0189447Y0100692D02*
X0189449Y0100744D01*
X0189454Y0100797D01*
X0189463Y0100848D01*
X0189476Y0100899D01*
X0189492Y0100949D01*
X0189511Y0100998D01*
X0189534Y0101045D01*
X0189560Y0101091D01*
X0189589Y0101134D01*
X0189621Y0101176D01*
X0189655Y0101215D01*
X0189693Y0101252D01*
X0189733Y0101286D01*
X0189775Y0101318D01*
X0189819Y0101346D01*
X0189865Y0101371D01*
X0189912Y0101393D01*
X0189961Y0101412D01*
X0190269Y0101515D02*
X0192325Y0099870D01*
X0193148Y0100692D02*
X0193146Y0100744D01*
X0193141Y0100797D01*
X0193132Y0100848D01*
X0193119Y0100899D01*
X0193103Y0100949D01*
X0193084Y0100998D01*
X0193061Y0101045D01*
X0193035Y0101091D01*
X0193006Y0101134D01*
X0192974Y0101176D01*
X0192940Y0101215D01*
X0192902Y0101252D01*
X0192862Y0101286D01*
X0192820Y0101318D01*
X0192776Y0101346D01*
X0192730Y0101371D01*
X0192683Y0101393D01*
X0192634Y0101412D01*
X0193148Y0100692D02*
X0193146Y0100640D01*
X0193141Y0100587D01*
X0193132Y0100536D01*
X0193119Y0100485D01*
X0193103Y0100435D01*
X0193084Y0100386D01*
X0193061Y0100339D01*
X0193035Y0100293D01*
X0193006Y0100250D01*
X0192974Y0100208D01*
X0192940Y0100169D01*
X0192902Y0100132D01*
X0192862Y0100098D01*
X0192820Y0100066D01*
X0192776Y0100038D01*
X0192730Y0100013D01*
X0192683Y0099991D01*
X0192634Y0099972D01*
X0191297Y0101720D02*
X0191191Y0101718D01*
X0191084Y0101713D01*
X0190978Y0101703D01*
X0190873Y0101690D01*
X0190768Y0101674D01*
X0190663Y0101653D01*
X0190560Y0101630D01*
X0190457Y0101602D01*
X0190355Y0101571D01*
X0190255Y0101536D01*
X0190155Y0101498D01*
X0190057Y0101457D01*
X0189961Y0101412D01*
X0189447Y0100692D02*
X0189449Y0100640D01*
X0189454Y0100587D01*
X0189463Y0100536D01*
X0189476Y0100485D01*
X0189492Y0100435D01*
X0189511Y0100386D01*
X0189534Y0100339D01*
X0189560Y0100293D01*
X0189589Y0100250D01*
X0189621Y0100208D01*
X0189655Y0100169D01*
X0189693Y0100132D01*
X0189733Y0100098D01*
X0189775Y0100066D01*
X0189819Y0100038D01*
X0189865Y0100013D01*
X0189912Y0099991D01*
X0189961Y0099972D01*
X0191297Y0099665D02*
X0191403Y0099667D01*
X0191510Y0099672D01*
X0191616Y0099682D01*
X0191721Y0099695D01*
X0191826Y0099711D01*
X0191931Y0099732D01*
X0192034Y0099755D01*
X0192137Y0099783D01*
X0192239Y0099814D01*
X0192339Y0099849D01*
X0192439Y0099887D01*
X0192537Y0099928D01*
X0192633Y0099973D01*
X0189858Y0103265D02*
X0189447Y0103265D01*
X0189447Y0105320D01*
X0193147Y0104292D01*
X0191708Y0106899D02*
X0191708Y0109366D01*
X0190269Y0110945D02*
X0189447Y0111972D01*
X0193147Y0111972D01*
X0193147Y0110945D02*
X0193147Y0113000D01*
X0193147Y0115572D02*
X0189447Y0116600D01*
X0189447Y0114545D01*
X0189858Y0114545D01*
X0136410Y0009983D02*
X0135177Y0009983D01*
X0135121Y0009981D01*
X0135065Y0009975D01*
X0135010Y0009966D01*
X0134955Y0009953D01*
X0134902Y0009936D01*
X0134850Y0009915D01*
X0134799Y0009891D01*
X0134750Y0009863D01*
X0134703Y0009833D01*
X0134658Y0009799D01*
X0134616Y0009762D01*
X0134576Y0009722D01*
X0134539Y0009680D01*
X0134505Y0009635D01*
X0134475Y0009588D01*
X0134447Y0009539D01*
X0134423Y0009488D01*
X0134402Y0009436D01*
X0134385Y0009383D01*
X0134372Y0009328D01*
X0134363Y0009273D01*
X0134357Y0009217D01*
X0134355Y0009161D01*
X0134355Y0007105D01*
X0134357Y0007049D01*
X0134363Y0006993D01*
X0134372Y0006938D01*
X0134385Y0006883D01*
X0134402Y0006830D01*
X0134423Y0006778D01*
X0134447Y0006727D01*
X0134475Y0006678D01*
X0134505Y0006631D01*
X0134539Y0006586D01*
X0134576Y0006544D01*
X0134616Y0006504D01*
X0134658Y0006467D01*
X0134703Y0006433D01*
X0134750Y0006403D01*
X0134799Y0006375D01*
X0134850Y0006351D01*
X0134902Y0006330D01*
X0134955Y0006313D01*
X0135010Y0006300D01*
X0135065Y0006291D01*
X0135121Y0006285D01*
X0135177Y0006283D01*
X0136410Y0006283D01*
X0136410Y0008339D01*
X0135794Y0008339D01*
X0132690Y0008955D02*
X0132690Y0007311D01*
X0132691Y0007311D02*
X0132689Y0007248D01*
X0132683Y0007185D01*
X0132673Y0007122D01*
X0132660Y0007060D01*
X0132643Y0006999D01*
X0132622Y0006940D01*
X0132597Y0006881D01*
X0132569Y0006825D01*
X0132537Y0006770D01*
X0132502Y0006717D01*
X0132464Y0006667D01*
X0132423Y0006618D01*
X0132379Y0006573D01*
X0132332Y0006530D01*
X0132283Y0006491D01*
X0132231Y0006454D01*
X0132177Y0006421D01*
X0132121Y0006391D01*
X0132064Y0006364D01*
X0132005Y0006341D01*
X0131944Y0006322D01*
X0131883Y0006307D01*
X0131821Y0006295D01*
X0131758Y0006287D01*
X0131695Y0006283D01*
X0131631Y0006283D01*
X0131568Y0006287D01*
X0131505Y0006295D01*
X0131443Y0006307D01*
X0131382Y0006322D01*
X0131321Y0006341D01*
X0131262Y0006364D01*
X0131205Y0006391D01*
X0131149Y0006421D01*
X0131095Y0006454D01*
X0131043Y0006491D01*
X0130994Y0006530D01*
X0130947Y0006573D01*
X0130903Y0006618D01*
X0130862Y0006667D01*
X0130824Y0006717D01*
X0130789Y0006770D01*
X0130757Y0006825D01*
X0130729Y0006881D01*
X0130704Y0006940D01*
X0130683Y0006999D01*
X0130666Y0007060D01*
X0130653Y0007122D01*
X0130643Y0007185D01*
X0130637Y0007248D01*
X0130635Y0007311D01*
X0130635Y0008955D01*
X0130637Y0009018D01*
X0130643Y0009081D01*
X0130653Y0009144D01*
X0130666Y0009206D01*
X0130683Y0009267D01*
X0130704Y0009326D01*
X0130729Y0009385D01*
X0130757Y0009441D01*
X0130789Y0009496D01*
X0130824Y0009549D01*
X0130862Y0009599D01*
X0130903Y0009648D01*
X0130947Y0009693D01*
X0130994Y0009736D01*
X0131043Y0009775D01*
X0131095Y0009812D01*
X0131149Y0009845D01*
X0131205Y0009875D01*
X0131262Y0009902D01*
X0131321Y0009925D01*
X0131382Y0009944D01*
X0131443Y0009959D01*
X0131505Y0009971D01*
X0131568Y0009979D01*
X0131631Y0009983D01*
X0131695Y0009983D01*
X0131758Y0009979D01*
X0131821Y0009971D01*
X0131883Y0009959D01*
X0131944Y0009944D01*
X0132005Y0009925D01*
X0132064Y0009902D01*
X0132121Y0009875D01*
X0132177Y0009845D01*
X0132231Y0009812D01*
X0132283Y0009775D01*
X0132332Y0009736D01*
X0132379Y0009693D01*
X0132423Y0009648D01*
X0132464Y0009599D01*
X0132502Y0009549D01*
X0132537Y0009496D01*
X0132569Y0009441D01*
X0132597Y0009385D01*
X0132622Y0009326D01*
X0132643Y0009267D01*
X0132660Y0009206D01*
X0132673Y0009144D01*
X0132683Y0009081D01*
X0132689Y0009018D01*
X0132691Y0008955D01*
X0129113Y0006283D02*
X0128291Y0007928D01*
X0128085Y0007928D02*
X0127057Y0007928D01*
X0128085Y0007927D02*
X0128148Y0007929D01*
X0128211Y0007935D01*
X0128274Y0007945D01*
X0128336Y0007958D01*
X0128397Y0007975D01*
X0128456Y0007996D01*
X0128515Y0008021D01*
X0128571Y0008049D01*
X0128626Y0008081D01*
X0128679Y0008116D01*
X0128729Y0008154D01*
X0128778Y0008195D01*
X0128823Y0008239D01*
X0128866Y0008286D01*
X0128905Y0008335D01*
X0128942Y0008387D01*
X0128975Y0008441D01*
X0129005Y0008497D01*
X0129032Y0008554D01*
X0129055Y0008613D01*
X0129074Y0008674D01*
X0129089Y0008735D01*
X0129101Y0008797D01*
X0129109Y0008860D01*
X0129113Y0008923D01*
X0129113Y0008987D01*
X0129109Y0009050D01*
X0129101Y0009113D01*
X0129089Y0009175D01*
X0129074Y0009236D01*
X0129055Y0009297D01*
X0129032Y0009356D01*
X0129005Y0009413D01*
X0128975Y0009469D01*
X0128942Y0009523D01*
X0128905Y0009575D01*
X0128866Y0009624D01*
X0128823Y0009671D01*
X0128778Y0009715D01*
X0128729Y0009756D01*
X0128679Y0009794D01*
X0128626Y0009829D01*
X0128571Y0009861D01*
X0128515Y0009889D01*
X0128456Y0009914D01*
X0128397Y0009935D01*
X0128336Y0009952D01*
X0128274Y0009965D01*
X0128211Y0009975D01*
X0128148Y0009981D01*
X0128085Y0009983D01*
X0127057Y0009983D01*
X0127057Y0006283D01*
X0124514Y0007928D02*
X0123487Y0007928D01*
X0124514Y0007927D02*
X0124577Y0007929D01*
X0124640Y0007935D01*
X0124703Y0007945D01*
X0124765Y0007958D01*
X0124826Y0007975D01*
X0124885Y0007996D01*
X0124944Y0008021D01*
X0125000Y0008049D01*
X0125055Y0008081D01*
X0125108Y0008116D01*
X0125158Y0008154D01*
X0125207Y0008195D01*
X0125252Y0008239D01*
X0125295Y0008286D01*
X0125334Y0008335D01*
X0125371Y0008387D01*
X0125404Y0008441D01*
X0125434Y0008497D01*
X0125461Y0008554D01*
X0125484Y0008613D01*
X0125503Y0008674D01*
X0125518Y0008735D01*
X0125530Y0008797D01*
X0125538Y0008860D01*
X0125542Y0008923D01*
X0125542Y0008987D01*
X0125538Y0009050D01*
X0125530Y0009113D01*
X0125518Y0009175D01*
X0125503Y0009236D01*
X0125484Y0009297D01*
X0125461Y0009356D01*
X0125434Y0009413D01*
X0125404Y0009469D01*
X0125371Y0009523D01*
X0125334Y0009575D01*
X0125295Y0009624D01*
X0125252Y0009671D01*
X0125207Y0009715D01*
X0125158Y0009756D01*
X0125108Y0009794D01*
X0125055Y0009829D01*
X0125000Y0009861D01*
X0124944Y0009889D01*
X0124885Y0009914D01*
X0124826Y0009935D01*
X0124765Y0009952D01*
X0124703Y0009965D01*
X0124640Y0009975D01*
X0124577Y0009981D01*
X0124514Y0009983D01*
X0123487Y0009983D01*
X0123487Y0006283D01*
X0110340Y0009924D02*
X0108284Y0009924D01*
X0109312Y0009924D02*
X0109312Y0006224D01*
X0106980Y0007252D02*
X0106980Y0008896D01*
X0106978Y0008959D01*
X0106972Y0009022D01*
X0106962Y0009085D01*
X0106949Y0009147D01*
X0106932Y0009208D01*
X0106911Y0009267D01*
X0106886Y0009326D01*
X0106858Y0009382D01*
X0106826Y0009437D01*
X0106791Y0009490D01*
X0106753Y0009540D01*
X0106712Y0009589D01*
X0106668Y0009634D01*
X0106621Y0009677D01*
X0106572Y0009716D01*
X0106520Y0009753D01*
X0106466Y0009786D01*
X0106410Y0009816D01*
X0106353Y0009843D01*
X0106294Y0009866D01*
X0106233Y0009885D01*
X0106172Y0009900D01*
X0106110Y0009912D01*
X0106047Y0009920D01*
X0105984Y0009924D01*
X0105920Y0009924D01*
X0105857Y0009920D01*
X0105794Y0009912D01*
X0105732Y0009900D01*
X0105671Y0009885D01*
X0105610Y0009866D01*
X0105551Y0009843D01*
X0105494Y0009816D01*
X0105438Y0009786D01*
X0105384Y0009753D01*
X0105332Y0009716D01*
X0105283Y0009677D01*
X0105236Y0009634D01*
X0105192Y0009589D01*
X0105151Y0009540D01*
X0105113Y0009490D01*
X0105078Y0009437D01*
X0105046Y0009382D01*
X0105018Y0009326D01*
X0104993Y0009267D01*
X0104972Y0009208D01*
X0104955Y0009147D01*
X0104942Y0009085D01*
X0104932Y0009022D01*
X0104926Y0008959D01*
X0104924Y0008896D01*
X0104924Y0007252D01*
X0104926Y0007189D01*
X0104932Y0007126D01*
X0104942Y0007063D01*
X0104955Y0007001D01*
X0104972Y0006940D01*
X0104993Y0006881D01*
X0105018Y0006822D01*
X0105046Y0006766D01*
X0105078Y0006711D01*
X0105113Y0006658D01*
X0105151Y0006608D01*
X0105192Y0006559D01*
X0105236Y0006514D01*
X0105283Y0006471D01*
X0105332Y0006432D01*
X0105384Y0006395D01*
X0105438Y0006362D01*
X0105494Y0006332D01*
X0105551Y0006305D01*
X0105610Y0006282D01*
X0105671Y0006263D01*
X0105732Y0006248D01*
X0105794Y0006236D01*
X0105857Y0006228D01*
X0105920Y0006224D01*
X0105984Y0006224D01*
X0106047Y0006228D01*
X0106110Y0006236D01*
X0106172Y0006248D01*
X0106233Y0006263D01*
X0106294Y0006282D01*
X0106353Y0006305D01*
X0106410Y0006332D01*
X0106466Y0006362D01*
X0106520Y0006395D01*
X0106572Y0006432D01*
X0106621Y0006471D01*
X0106668Y0006514D01*
X0106712Y0006559D01*
X0106753Y0006608D01*
X0106791Y0006658D01*
X0106826Y0006711D01*
X0106858Y0006766D01*
X0106886Y0006822D01*
X0106911Y0006881D01*
X0106932Y0006940D01*
X0106949Y0007001D01*
X0106962Y0007063D01*
X0106972Y0007126D01*
X0106978Y0007189D01*
X0106980Y0007252D01*
X0103380Y0007252D02*
X0103380Y0008896D01*
X0103378Y0008959D01*
X0103372Y0009022D01*
X0103362Y0009085D01*
X0103349Y0009147D01*
X0103332Y0009208D01*
X0103311Y0009267D01*
X0103286Y0009326D01*
X0103258Y0009382D01*
X0103226Y0009437D01*
X0103191Y0009490D01*
X0103153Y0009540D01*
X0103112Y0009589D01*
X0103068Y0009634D01*
X0103021Y0009677D01*
X0102972Y0009716D01*
X0102920Y0009753D01*
X0102866Y0009786D01*
X0102810Y0009816D01*
X0102753Y0009843D01*
X0102694Y0009866D01*
X0102633Y0009885D01*
X0102572Y0009900D01*
X0102510Y0009912D01*
X0102447Y0009920D01*
X0102384Y0009924D01*
X0102320Y0009924D01*
X0102257Y0009920D01*
X0102194Y0009912D01*
X0102132Y0009900D01*
X0102071Y0009885D01*
X0102010Y0009866D01*
X0101951Y0009843D01*
X0101894Y0009816D01*
X0101838Y0009786D01*
X0101784Y0009753D01*
X0101732Y0009716D01*
X0101683Y0009677D01*
X0101636Y0009634D01*
X0101592Y0009589D01*
X0101551Y0009540D01*
X0101513Y0009490D01*
X0101478Y0009437D01*
X0101446Y0009382D01*
X0101418Y0009326D01*
X0101393Y0009267D01*
X0101372Y0009208D01*
X0101355Y0009147D01*
X0101342Y0009085D01*
X0101332Y0009022D01*
X0101326Y0008959D01*
X0101324Y0008896D01*
X0101324Y0007252D01*
X0101326Y0007189D01*
X0101332Y0007126D01*
X0101342Y0007063D01*
X0101355Y0007001D01*
X0101372Y0006940D01*
X0101393Y0006881D01*
X0101418Y0006822D01*
X0101446Y0006766D01*
X0101478Y0006711D01*
X0101513Y0006658D01*
X0101551Y0006608D01*
X0101592Y0006559D01*
X0101636Y0006514D01*
X0101683Y0006471D01*
X0101732Y0006432D01*
X0101784Y0006395D01*
X0101838Y0006362D01*
X0101894Y0006332D01*
X0101951Y0006305D01*
X0102010Y0006282D01*
X0102071Y0006263D01*
X0102132Y0006248D01*
X0102194Y0006236D01*
X0102257Y0006228D01*
X0102320Y0006224D01*
X0102384Y0006224D01*
X0102447Y0006228D01*
X0102510Y0006236D01*
X0102572Y0006248D01*
X0102633Y0006263D01*
X0102694Y0006282D01*
X0102753Y0006305D01*
X0102810Y0006332D01*
X0102866Y0006362D01*
X0102920Y0006395D01*
X0102972Y0006432D01*
X0103021Y0006471D01*
X0103068Y0006514D01*
X0103112Y0006559D01*
X0103153Y0006608D01*
X0103191Y0006658D01*
X0103226Y0006711D01*
X0103258Y0006766D01*
X0103286Y0006822D01*
X0103311Y0006881D01*
X0103332Y0006940D01*
X0103349Y0007001D01*
X0103362Y0007063D01*
X0103372Y0007126D01*
X0103378Y0007189D01*
X0103380Y0007252D01*
X0098924Y0006224D02*
X0098987Y0006226D01*
X0099050Y0006232D01*
X0099113Y0006242D01*
X0099175Y0006255D01*
X0099236Y0006272D01*
X0099295Y0006293D01*
X0099354Y0006318D01*
X0099410Y0006346D01*
X0099465Y0006378D01*
X0099518Y0006413D01*
X0099568Y0006451D01*
X0099617Y0006492D01*
X0099662Y0006536D01*
X0099705Y0006583D01*
X0099744Y0006632D01*
X0099781Y0006684D01*
X0099814Y0006738D01*
X0099844Y0006794D01*
X0099871Y0006851D01*
X0099894Y0006910D01*
X0099913Y0006971D01*
X0099928Y0007032D01*
X0099940Y0007094D01*
X0099948Y0007157D01*
X0099952Y0007220D01*
X0099952Y0007284D01*
X0099948Y0007347D01*
X0099940Y0007410D01*
X0099928Y0007472D01*
X0099913Y0007533D01*
X0099894Y0007594D01*
X0099871Y0007653D01*
X0099844Y0007710D01*
X0099814Y0007766D01*
X0099781Y0007820D01*
X0099744Y0007872D01*
X0099705Y0007921D01*
X0099662Y0007968D01*
X0099617Y0008012D01*
X0099568Y0008053D01*
X0099518Y0008091D01*
X0099465Y0008126D01*
X0099410Y0008158D01*
X0099354Y0008186D01*
X0099295Y0008211D01*
X0099236Y0008232D01*
X0099175Y0008249D01*
X0099113Y0008262D01*
X0099050Y0008272D01*
X0098987Y0008278D01*
X0098924Y0008280D01*
X0097896Y0008280D01*
X0098924Y0008280D02*
X0098980Y0008282D01*
X0099036Y0008288D01*
X0099091Y0008297D01*
X0099146Y0008310D01*
X0099199Y0008327D01*
X0099251Y0008348D01*
X0099302Y0008372D01*
X0099351Y0008400D01*
X0099398Y0008430D01*
X0099443Y0008464D01*
X0099485Y0008501D01*
X0099525Y0008541D01*
X0099562Y0008583D01*
X0099596Y0008628D01*
X0099626Y0008675D01*
X0099654Y0008724D01*
X0099678Y0008775D01*
X0099699Y0008827D01*
X0099716Y0008880D01*
X0099729Y0008935D01*
X0099738Y0008990D01*
X0099744Y0009046D01*
X0099746Y0009102D01*
X0099744Y0009158D01*
X0099738Y0009214D01*
X0099729Y0009269D01*
X0099716Y0009324D01*
X0099699Y0009377D01*
X0099678Y0009429D01*
X0099654Y0009480D01*
X0099626Y0009529D01*
X0099596Y0009576D01*
X0099562Y0009621D01*
X0099525Y0009663D01*
X0099485Y0009703D01*
X0099443Y0009740D01*
X0099398Y0009774D01*
X0099351Y0009804D01*
X0099302Y0009832D01*
X0099251Y0009856D01*
X0099199Y0009877D01*
X0099146Y0009894D01*
X0099091Y0009907D01*
X0099036Y0009916D01*
X0098980Y0009922D01*
X0098924Y0009924D01*
X0097896Y0009924D01*
X0097896Y0006224D01*
X0098924Y0006224D01*
X0087299Y0009924D02*
X0085243Y0009924D01*
X0086271Y0009924D02*
X0086271Y0006224D01*
X0084134Y0006224D02*
X0082490Y0006224D01*
X0082490Y0009924D01*
X0084134Y0009924D01*
X0083723Y0008280D02*
X0082490Y0008280D01*
X0080527Y0007766D02*
X0079397Y0008382D01*
X0079808Y0009924D02*
X0079884Y0009922D01*
X0079960Y0009916D01*
X0080036Y0009907D01*
X0080111Y0009894D01*
X0080186Y0009877D01*
X0080259Y0009856D01*
X0080332Y0009832D01*
X0080403Y0009805D01*
X0080472Y0009773D01*
X0080541Y0009739D01*
X0080607Y0009701D01*
X0080671Y0009660D01*
X0080733Y0009616D01*
X0079397Y0008383D02*
X0079351Y0008412D01*
X0079308Y0008444D01*
X0079266Y0008478D01*
X0079227Y0008516D01*
X0079190Y0008555D01*
X0079156Y0008597D01*
X0079124Y0008642D01*
X0079096Y0008688D01*
X0079071Y0008736D01*
X0079048Y0008785D01*
X0079030Y0008836D01*
X0079014Y0008888D01*
X0079002Y0008940D01*
X0078993Y0008994D01*
X0078988Y0009048D01*
X0078986Y0009102D01*
X0078988Y0009158D01*
X0078994Y0009214D01*
X0079003Y0009269D01*
X0079016Y0009324D01*
X0079033Y0009377D01*
X0079054Y0009429D01*
X0079078Y0009480D01*
X0079106Y0009529D01*
X0079136Y0009576D01*
X0079170Y0009621D01*
X0079207Y0009663D01*
X0079247Y0009703D01*
X0079289Y0009740D01*
X0079334Y0009774D01*
X0079381Y0009804D01*
X0079430Y0009832D01*
X0079481Y0009856D01*
X0079533Y0009877D01*
X0079586Y0009894D01*
X0079641Y0009907D01*
X0079696Y0009916D01*
X0079752Y0009922D01*
X0079808Y0009924D01*
X0078883Y0006738D02*
X0078941Y0006682D01*
X0079001Y0006629D01*
X0079064Y0006578D01*
X0079130Y0006531D01*
X0079197Y0006487D01*
X0079267Y0006446D01*
X0079338Y0006408D01*
X0079411Y0006374D01*
X0079485Y0006343D01*
X0079561Y0006315D01*
X0079638Y0006291D01*
X0079716Y0006271D01*
X0079795Y0006254D01*
X0079875Y0006241D01*
X0079955Y0006231D01*
X0080035Y0006226D01*
X0080116Y0006224D01*
X0080172Y0006226D01*
X0080228Y0006232D01*
X0080283Y0006241D01*
X0080338Y0006254D01*
X0080391Y0006271D01*
X0080443Y0006292D01*
X0080494Y0006316D01*
X0080543Y0006344D01*
X0080590Y0006374D01*
X0080635Y0006408D01*
X0080677Y0006445D01*
X0080717Y0006485D01*
X0080754Y0006527D01*
X0080788Y0006572D01*
X0080818Y0006619D01*
X0080846Y0006668D01*
X0080870Y0006719D01*
X0080891Y0006771D01*
X0080908Y0006824D01*
X0080921Y0006879D01*
X0080930Y0006934D01*
X0080936Y0006990D01*
X0080938Y0007046D01*
X0080936Y0007100D01*
X0080931Y0007154D01*
X0080922Y0007208D01*
X0080910Y0007260D01*
X0080894Y0007312D01*
X0080876Y0007363D01*
X0080853Y0007412D01*
X0080828Y0007460D01*
X0080800Y0007506D01*
X0080768Y0007551D01*
X0080734Y0007593D01*
X0080697Y0007632D01*
X0080658Y0007670D01*
X0080616Y0007704D01*
X0080573Y0007736D01*
X0080527Y0007765D01*
X0077654Y0006224D02*
X0076010Y0006224D01*
X0076010Y0009924D01*
X0077654Y0009924D01*
X0077243Y0008280D02*
X0076010Y0008280D01*
X0073539Y0007868D02*
X0074361Y0006224D01*
X0073333Y0007868D02*
X0072306Y0007868D01*
X0073333Y0007868D02*
X0073396Y0007870D01*
X0073459Y0007876D01*
X0073522Y0007886D01*
X0073584Y0007899D01*
X0073645Y0007916D01*
X0073704Y0007937D01*
X0073763Y0007962D01*
X0073819Y0007990D01*
X0073874Y0008022D01*
X0073927Y0008057D01*
X0073977Y0008095D01*
X0074026Y0008136D01*
X0074071Y0008180D01*
X0074114Y0008227D01*
X0074153Y0008276D01*
X0074190Y0008328D01*
X0074223Y0008382D01*
X0074253Y0008438D01*
X0074280Y0008495D01*
X0074303Y0008554D01*
X0074322Y0008615D01*
X0074337Y0008676D01*
X0074349Y0008738D01*
X0074357Y0008801D01*
X0074361Y0008864D01*
X0074361Y0008928D01*
X0074357Y0008991D01*
X0074349Y0009054D01*
X0074337Y0009116D01*
X0074322Y0009177D01*
X0074303Y0009238D01*
X0074280Y0009297D01*
X0074253Y0009354D01*
X0074223Y0009410D01*
X0074190Y0009464D01*
X0074153Y0009516D01*
X0074114Y0009565D01*
X0074071Y0009612D01*
X0074026Y0009656D01*
X0073977Y0009697D01*
X0073927Y0009735D01*
X0073874Y0009770D01*
X0073819Y0009802D01*
X0073763Y0009830D01*
X0073704Y0009855D01*
X0073645Y0009876D01*
X0073584Y0009893D01*
X0073522Y0009906D01*
X0073459Y0009916D01*
X0073396Y0009922D01*
X0073333Y0009924D01*
X0072306Y0009924D01*
X0072306Y0006224D01*
D13*
X0072156Y0011074D02*
X0072156Y0021074D01*
X0092156Y0021074D01*
X0092156Y0011074D01*
X0072156Y0011074D01*
X0059439Y0010169D02*
X0049596Y0010169D01*
X0059439Y0010169D02*
X0059439Y0065287D01*
X0049596Y0065287D01*
X0033848Y0065287D02*
X0004321Y0065287D01*
X0004321Y0081035D02*
X0033848Y0081035D01*
X0049596Y0081035D02*
X0059439Y0081035D01*
X0059439Y0136153D01*
X0049596Y0136153D01*
X0033848Y0136153D02*
X0004321Y0136153D01*
X0072037Y0111350D02*
X0078337Y0111350D01*
X0078337Y0105838D02*
X0072037Y0105838D01*
X0073612Y0099539D02*
X0076762Y0099539D01*
X0084242Y0101901D02*
X0084242Y0095602D01*
X0089754Y0095602D02*
X0089754Y0101901D01*
X0097628Y0105444D02*
X0097628Y0111743D01*
X0103927Y0111743D02*
X0103927Y0105444D01*
X0108652Y0122373D02*
X0163770Y0122373D01*
X0163770Y0144027D01*
X0108652Y0144027D01*
X0108652Y0122373D01*
X0108652Y0075129D01*
X0163770Y0075129D01*
X0163770Y0122373D01*
X0157864Y0126310D02*
X0157864Y0138121D01*
X0149990Y0138121D01*
X0149990Y0130247D01*
X0140148Y0130247D01*
X0140148Y0138121D01*
X0130305Y0138121D01*
X0130305Y0130247D01*
X0122431Y0130247D01*
X0122431Y0138121D01*
X0118494Y0138121D01*
X0118494Y0122373D01*
X0114557Y0122373D02*
X0114557Y0138121D01*
X0118494Y0138121D01*
X0113770Y0068436D02*
X0107470Y0068436D01*
X0107470Y0062137D02*
X0113770Y0062137D01*
X0126368Y0067570D02*
X0169675Y0067570D01*
X0169675Y0027570D01*
X0126368Y0027570D01*
X0126368Y0067570D01*
X0111801Y0044814D02*
X0105502Y0044814D01*
X0105502Y0038515D02*
X0111801Y0038515D01*
X0115344Y0036546D02*
X0115344Y0042846D01*
X0121644Y0042846D02*
X0121644Y0036546D01*
X0117707Y0030641D02*
X0111407Y0030641D01*
X0105896Y0030641D02*
X0099596Y0030641D01*
X0099596Y0025129D02*
X0105896Y0025129D01*
X0111407Y0025129D02*
X0117707Y0025129D01*
X0117746Y0021074D02*
X0097746Y0021074D01*
X0097746Y0011074D01*
X0117746Y0011074D01*
X0117746Y0021074D01*
X0123927Y0021074D02*
X0133927Y0021074D01*
X0133927Y0011074D01*
X0183927Y0011074D01*
X0183927Y0021074D01*
X0133927Y0021074D01*
X0123927Y0021074D02*
X0123927Y0011074D01*
X0133927Y0011074D01*
X0089754Y0040483D02*
X0089754Y0046783D01*
X0084242Y0046783D02*
X0084242Y0040483D01*
X0076762Y0044420D02*
X0073612Y0044420D01*
X0072037Y0050720D02*
X0078337Y0050720D01*
X0078337Y0056231D02*
X0072037Y0056231D01*
X0033848Y0010169D02*
X0004321Y0010169D01*
D14*
X0069281Y0038909D02*
X0069281Y0044027D01*
X0069281Y0038909D02*
X0072825Y0038909D01*
X0077549Y0038909D02*
X0081093Y0038909D01*
X0081093Y0044027D01*
X0081093Y0094027D02*
X0077549Y0094027D01*
X0081093Y0094027D02*
X0081093Y0099145D01*
X0072825Y0094027D02*
X0069281Y0094027D01*
X0069281Y0099145D01*
D15*
X0104628Y0056665D02*
X0104628Y0050287D01*
X0108959Y0056665D02*
X0112281Y0056665D01*
X0116612Y0056665D02*
X0116612Y0050287D01*
M02*
