G75*
%MOIN*%
%OFA0B0*%
%FSLAX25Y25*%
%IPPOS*%
%LPD*%
%AMOC8*
5,1,8,0,0,1.08239X$1,22.5*
%
%ADD10C,0.00000*%
%ADD11C,0.00984*%
%ADD12C,0.00787*%
%ADD13R,0.02756X0.02756*%
%ADD14R,0.01575X0.03150*%
%ADD15R,0.03150X0.01575*%
%ADD16R,0.05709X0.05709*%
%ADD17C,0.00689*%
D10*
X0010226Y0002294D02*
X0191329Y0002294D01*
X0191329Y0002295D02*
X0191519Y0002297D01*
X0191709Y0002304D01*
X0191899Y0002316D01*
X0192089Y0002332D01*
X0192278Y0002352D01*
X0192467Y0002378D01*
X0192655Y0002407D01*
X0192842Y0002442D01*
X0193028Y0002481D01*
X0193213Y0002524D01*
X0193398Y0002572D01*
X0193581Y0002624D01*
X0193762Y0002680D01*
X0193942Y0002741D01*
X0194121Y0002807D01*
X0194298Y0002876D01*
X0194474Y0002950D01*
X0194647Y0003028D01*
X0194819Y0003111D01*
X0194988Y0003197D01*
X0195156Y0003287D01*
X0195321Y0003382D01*
X0195484Y0003480D01*
X0195644Y0003583D01*
X0195802Y0003689D01*
X0195957Y0003799D01*
X0196110Y0003912D01*
X0196260Y0004030D01*
X0196406Y0004151D01*
X0196550Y0004275D01*
X0196691Y0004403D01*
X0196829Y0004534D01*
X0196964Y0004669D01*
X0197095Y0004807D01*
X0197223Y0004948D01*
X0197347Y0005092D01*
X0197468Y0005238D01*
X0197586Y0005388D01*
X0197699Y0005541D01*
X0197809Y0005696D01*
X0197915Y0005854D01*
X0198018Y0006014D01*
X0198116Y0006177D01*
X0198211Y0006342D01*
X0198301Y0006510D01*
X0198387Y0006679D01*
X0198470Y0006851D01*
X0198548Y0007024D01*
X0198622Y0007200D01*
X0198691Y0007377D01*
X0198757Y0007556D01*
X0198818Y0007736D01*
X0198874Y0007917D01*
X0198926Y0008100D01*
X0198974Y0008285D01*
X0199017Y0008470D01*
X0199056Y0008656D01*
X0199091Y0008843D01*
X0199120Y0009031D01*
X0199146Y0009220D01*
X0199166Y0009409D01*
X0199182Y0009599D01*
X0199194Y0009789D01*
X0199201Y0009979D01*
X0199203Y0010169D01*
X0199203Y0114499D01*
X0199201Y0114689D01*
X0199194Y0114879D01*
X0199182Y0115069D01*
X0199166Y0115259D01*
X0199146Y0115448D01*
X0199120Y0115637D01*
X0199091Y0115825D01*
X0199056Y0116012D01*
X0199017Y0116198D01*
X0198974Y0116383D01*
X0198926Y0116568D01*
X0198874Y0116751D01*
X0198818Y0116932D01*
X0198757Y0117112D01*
X0198691Y0117291D01*
X0198622Y0117468D01*
X0198548Y0117644D01*
X0198470Y0117817D01*
X0198387Y0117989D01*
X0198301Y0118158D01*
X0198211Y0118326D01*
X0198116Y0118491D01*
X0198018Y0118654D01*
X0197915Y0118814D01*
X0197809Y0118972D01*
X0197699Y0119127D01*
X0197586Y0119280D01*
X0197468Y0119430D01*
X0197347Y0119576D01*
X0197223Y0119720D01*
X0197095Y0119861D01*
X0196964Y0119999D01*
X0196829Y0120134D01*
X0196691Y0120265D01*
X0196550Y0120393D01*
X0196406Y0120517D01*
X0196260Y0120638D01*
X0196110Y0120756D01*
X0195957Y0120869D01*
X0195802Y0120979D01*
X0195644Y0121085D01*
X0195484Y0121188D01*
X0195321Y0121286D01*
X0195156Y0121381D01*
X0194988Y0121471D01*
X0194819Y0121557D01*
X0194647Y0121640D01*
X0194474Y0121718D01*
X0194298Y0121792D01*
X0194121Y0121861D01*
X0193942Y0121927D01*
X0193762Y0121988D01*
X0193581Y0122044D01*
X0193398Y0122096D01*
X0193213Y0122144D01*
X0193028Y0122187D01*
X0192842Y0122226D01*
X0192655Y0122261D01*
X0192467Y0122290D01*
X0192278Y0122316D01*
X0192089Y0122336D01*
X0191899Y0122352D01*
X0191709Y0122364D01*
X0191519Y0122371D01*
X0191329Y0122373D01*
X0110620Y0122373D01*
X0110430Y0122375D01*
X0110240Y0122382D01*
X0110050Y0122394D01*
X0109860Y0122410D01*
X0109671Y0122430D01*
X0109482Y0122456D01*
X0109294Y0122485D01*
X0109107Y0122520D01*
X0108921Y0122559D01*
X0108736Y0122602D01*
X0108551Y0122650D01*
X0108368Y0122702D01*
X0108187Y0122758D01*
X0108007Y0122819D01*
X0107828Y0122885D01*
X0107651Y0122954D01*
X0107475Y0123028D01*
X0107302Y0123106D01*
X0107130Y0123189D01*
X0106961Y0123275D01*
X0106793Y0123365D01*
X0106628Y0123460D01*
X0106465Y0123558D01*
X0106305Y0123661D01*
X0106147Y0123767D01*
X0105992Y0123877D01*
X0105839Y0123990D01*
X0105689Y0124108D01*
X0105543Y0124229D01*
X0105399Y0124353D01*
X0105258Y0124481D01*
X0105120Y0124612D01*
X0104985Y0124747D01*
X0104854Y0124885D01*
X0104726Y0125026D01*
X0104602Y0125170D01*
X0104481Y0125316D01*
X0104363Y0125466D01*
X0104250Y0125619D01*
X0104140Y0125774D01*
X0104034Y0125932D01*
X0103931Y0126092D01*
X0103833Y0126255D01*
X0103738Y0126420D01*
X0103648Y0126588D01*
X0103562Y0126757D01*
X0103479Y0126929D01*
X0103401Y0127102D01*
X0103327Y0127278D01*
X0103258Y0127455D01*
X0103192Y0127634D01*
X0103131Y0127814D01*
X0103075Y0127995D01*
X0103023Y0128178D01*
X0102975Y0128363D01*
X0102932Y0128548D01*
X0102893Y0128734D01*
X0102858Y0128921D01*
X0102829Y0129109D01*
X0102803Y0129298D01*
X0102783Y0129487D01*
X0102767Y0129677D01*
X0102755Y0129867D01*
X0102748Y0130057D01*
X0102746Y0130247D01*
X0102746Y0136153D01*
X0102744Y0136343D01*
X0102737Y0136533D01*
X0102725Y0136723D01*
X0102709Y0136913D01*
X0102689Y0137102D01*
X0102663Y0137291D01*
X0102634Y0137479D01*
X0102599Y0137666D01*
X0102560Y0137852D01*
X0102517Y0138037D01*
X0102469Y0138222D01*
X0102417Y0138405D01*
X0102361Y0138586D01*
X0102300Y0138766D01*
X0102234Y0138945D01*
X0102165Y0139122D01*
X0102091Y0139298D01*
X0102013Y0139471D01*
X0101930Y0139643D01*
X0101844Y0139812D01*
X0101754Y0139980D01*
X0101659Y0140145D01*
X0101561Y0140308D01*
X0101458Y0140468D01*
X0101352Y0140626D01*
X0101242Y0140781D01*
X0101129Y0140934D01*
X0101011Y0141084D01*
X0100890Y0141230D01*
X0100766Y0141374D01*
X0100638Y0141515D01*
X0100507Y0141653D01*
X0100372Y0141788D01*
X0100234Y0141919D01*
X0100093Y0142047D01*
X0099949Y0142171D01*
X0099803Y0142292D01*
X0099653Y0142410D01*
X0099500Y0142523D01*
X0099345Y0142633D01*
X0099187Y0142739D01*
X0099027Y0142842D01*
X0098864Y0142940D01*
X0098699Y0143035D01*
X0098531Y0143125D01*
X0098362Y0143211D01*
X0098190Y0143294D01*
X0098017Y0143372D01*
X0097841Y0143446D01*
X0097664Y0143515D01*
X0097485Y0143581D01*
X0097305Y0143642D01*
X0097124Y0143698D01*
X0096941Y0143750D01*
X0096756Y0143798D01*
X0096571Y0143841D01*
X0096385Y0143880D01*
X0096198Y0143915D01*
X0096010Y0143944D01*
X0095821Y0143970D01*
X0095632Y0143990D01*
X0095442Y0144006D01*
X0095252Y0144018D01*
X0095062Y0144025D01*
X0094872Y0144027D01*
X0010226Y0144027D01*
X0010036Y0144025D01*
X0009846Y0144018D01*
X0009656Y0144006D01*
X0009466Y0143990D01*
X0009277Y0143970D01*
X0009088Y0143944D01*
X0008900Y0143915D01*
X0008713Y0143880D01*
X0008527Y0143841D01*
X0008342Y0143798D01*
X0008157Y0143750D01*
X0007974Y0143698D01*
X0007793Y0143642D01*
X0007613Y0143581D01*
X0007434Y0143515D01*
X0007257Y0143446D01*
X0007081Y0143372D01*
X0006908Y0143294D01*
X0006736Y0143211D01*
X0006567Y0143125D01*
X0006399Y0143035D01*
X0006234Y0142940D01*
X0006071Y0142842D01*
X0005911Y0142739D01*
X0005753Y0142633D01*
X0005598Y0142523D01*
X0005445Y0142410D01*
X0005295Y0142292D01*
X0005149Y0142171D01*
X0005005Y0142047D01*
X0004864Y0141919D01*
X0004726Y0141788D01*
X0004591Y0141653D01*
X0004460Y0141515D01*
X0004332Y0141374D01*
X0004208Y0141230D01*
X0004087Y0141084D01*
X0003969Y0140934D01*
X0003856Y0140781D01*
X0003746Y0140626D01*
X0003640Y0140468D01*
X0003537Y0140308D01*
X0003439Y0140145D01*
X0003344Y0139980D01*
X0003254Y0139812D01*
X0003168Y0139643D01*
X0003085Y0139471D01*
X0003007Y0139298D01*
X0002933Y0139122D01*
X0002864Y0138945D01*
X0002798Y0138766D01*
X0002737Y0138586D01*
X0002681Y0138405D01*
X0002629Y0138222D01*
X0002581Y0138037D01*
X0002538Y0137852D01*
X0002499Y0137666D01*
X0002464Y0137479D01*
X0002435Y0137291D01*
X0002409Y0137102D01*
X0002389Y0136913D01*
X0002373Y0136723D01*
X0002361Y0136533D01*
X0002354Y0136343D01*
X0002352Y0136153D01*
X0002352Y0010169D01*
X0002354Y0009979D01*
X0002361Y0009789D01*
X0002373Y0009599D01*
X0002389Y0009409D01*
X0002409Y0009220D01*
X0002435Y0009031D01*
X0002464Y0008843D01*
X0002499Y0008656D01*
X0002538Y0008470D01*
X0002581Y0008285D01*
X0002629Y0008100D01*
X0002681Y0007917D01*
X0002737Y0007736D01*
X0002798Y0007556D01*
X0002864Y0007377D01*
X0002933Y0007200D01*
X0003007Y0007024D01*
X0003085Y0006851D01*
X0003168Y0006679D01*
X0003254Y0006510D01*
X0003344Y0006342D01*
X0003439Y0006177D01*
X0003537Y0006014D01*
X0003640Y0005854D01*
X0003746Y0005696D01*
X0003856Y0005541D01*
X0003969Y0005388D01*
X0004087Y0005238D01*
X0004208Y0005092D01*
X0004332Y0004948D01*
X0004460Y0004807D01*
X0004591Y0004669D01*
X0004726Y0004534D01*
X0004864Y0004403D01*
X0005005Y0004275D01*
X0005149Y0004151D01*
X0005295Y0004030D01*
X0005445Y0003912D01*
X0005598Y0003799D01*
X0005753Y0003689D01*
X0005911Y0003583D01*
X0006071Y0003480D01*
X0006234Y0003382D01*
X0006399Y0003287D01*
X0006567Y0003197D01*
X0006736Y0003111D01*
X0006908Y0003028D01*
X0007081Y0002950D01*
X0007257Y0002876D01*
X0007434Y0002807D01*
X0007613Y0002741D01*
X0007793Y0002680D01*
X0007974Y0002624D01*
X0008157Y0002572D01*
X0008342Y0002524D01*
X0008527Y0002481D01*
X0008713Y0002442D01*
X0008900Y0002407D01*
X0009088Y0002378D01*
X0009277Y0002352D01*
X0009466Y0002332D01*
X0009656Y0002316D01*
X0009846Y0002304D01*
X0010036Y0002297D01*
X0010226Y0002295D01*
D11*
X0070365Y0055149D02*
X0073317Y0055149D01*
X0073317Y0051803D01*
X0070365Y0051803D01*
X0070365Y0055149D01*
X0070365Y0052738D02*
X0073317Y0052738D01*
X0073317Y0053673D02*
X0070365Y0053673D01*
X0070365Y0054608D02*
X0073317Y0054608D01*
X0077057Y0055149D02*
X0080009Y0055149D01*
X0080009Y0051803D01*
X0077057Y0051803D01*
X0077057Y0055149D01*
X0077057Y0052738D02*
X0080009Y0052738D01*
X0080009Y0053673D02*
X0077057Y0053673D01*
X0077057Y0054608D02*
X0080009Y0054608D01*
X0088671Y0048456D02*
X0088671Y0045504D01*
X0085325Y0045504D01*
X0085325Y0048456D01*
X0088671Y0048456D01*
X0088671Y0046439D02*
X0085325Y0046439D01*
X0085325Y0047374D02*
X0088671Y0047374D01*
X0088671Y0048309D02*
X0085325Y0048309D01*
X0088671Y0041763D02*
X0088671Y0038811D01*
X0085325Y0038811D01*
X0085325Y0041763D01*
X0088671Y0041763D01*
X0088671Y0039746D02*
X0085325Y0039746D01*
X0085325Y0040681D02*
X0088671Y0040681D01*
X0088671Y0041616D02*
X0085325Y0041616D01*
X0103829Y0043338D02*
X0106781Y0043338D01*
X0106781Y0039992D01*
X0103829Y0039992D01*
X0103829Y0043338D01*
X0103829Y0040927D02*
X0106781Y0040927D01*
X0106781Y0041862D02*
X0103829Y0041862D01*
X0103829Y0042797D02*
X0106781Y0042797D01*
X0110522Y0043338D02*
X0113474Y0043338D01*
X0113474Y0039992D01*
X0110522Y0039992D01*
X0110522Y0043338D01*
X0110522Y0040927D02*
X0113474Y0040927D01*
X0113474Y0041862D02*
X0110522Y0041862D01*
X0110522Y0042797D02*
X0113474Y0042797D01*
X0116821Y0041567D02*
X0116821Y0044519D01*
X0120167Y0044519D01*
X0120167Y0041567D01*
X0116821Y0041567D01*
X0116821Y0042502D02*
X0120167Y0042502D01*
X0120167Y0043437D02*
X0116821Y0043437D01*
X0116821Y0044372D02*
X0120167Y0044372D01*
X0116821Y0037826D02*
X0116821Y0034874D01*
X0116821Y0037826D02*
X0120167Y0037826D01*
X0120167Y0034874D01*
X0116821Y0034874D01*
X0116821Y0035809D02*
X0120167Y0035809D01*
X0120167Y0036744D02*
X0116821Y0036744D01*
X0116821Y0037679D02*
X0120167Y0037679D01*
X0119380Y0029558D02*
X0116428Y0029558D01*
X0119380Y0029558D02*
X0119380Y0026212D01*
X0116428Y0026212D01*
X0116428Y0029558D01*
X0116428Y0027147D02*
X0119380Y0027147D01*
X0119380Y0028082D02*
X0116428Y0028082D01*
X0116428Y0029017D02*
X0119380Y0029017D01*
X0112687Y0029558D02*
X0109735Y0029558D01*
X0112687Y0029558D02*
X0112687Y0026212D01*
X0109735Y0026212D01*
X0109735Y0029558D01*
X0109735Y0027147D02*
X0112687Y0027147D01*
X0112687Y0028082D02*
X0109735Y0028082D01*
X0109735Y0029017D02*
X0112687Y0029017D01*
X0107569Y0026212D02*
X0104617Y0026212D01*
X0104617Y0029558D01*
X0107569Y0029558D01*
X0107569Y0026212D01*
X0107569Y0027147D02*
X0104617Y0027147D01*
X0104617Y0028082D02*
X0107569Y0028082D01*
X0107569Y0029017D02*
X0104617Y0029017D01*
X0100876Y0026212D02*
X0097924Y0026212D01*
X0097924Y0029558D01*
X0100876Y0029558D01*
X0100876Y0026212D01*
X0100876Y0027147D02*
X0097924Y0027147D01*
X0097924Y0028082D02*
X0100876Y0028082D01*
X0100876Y0029017D02*
X0097924Y0029017D01*
X0105798Y0063614D02*
X0108750Y0063614D01*
X0105798Y0063614D02*
X0105798Y0066960D01*
X0108750Y0066960D01*
X0108750Y0063614D01*
X0108750Y0064549D02*
X0105798Y0064549D01*
X0105798Y0065484D02*
X0108750Y0065484D01*
X0108750Y0066419D02*
X0105798Y0066419D01*
X0112491Y0063614D02*
X0115443Y0063614D01*
X0112491Y0063614D02*
X0112491Y0066960D01*
X0115443Y0066960D01*
X0115443Y0063614D01*
X0115443Y0064549D02*
X0112491Y0064549D01*
X0112491Y0065484D02*
X0115443Y0065484D01*
X0115443Y0066419D02*
X0112491Y0066419D01*
X0088671Y0093929D02*
X0088671Y0096881D01*
X0088671Y0093929D02*
X0085325Y0093929D01*
X0085325Y0096881D01*
X0088671Y0096881D01*
X0088671Y0094864D02*
X0085325Y0094864D01*
X0085325Y0095799D02*
X0088671Y0095799D01*
X0088671Y0096734D02*
X0085325Y0096734D01*
X0088671Y0100622D02*
X0088671Y0103574D01*
X0088671Y0100622D02*
X0085325Y0100622D01*
X0085325Y0103574D01*
X0088671Y0103574D01*
X0088671Y0101557D02*
X0085325Y0101557D01*
X0085325Y0102492D02*
X0088671Y0102492D01*
X0088671Y0103427D02*
X0085325Y0103427D01*
X0080009Y0110267D02*
X0077057Y0110267D01*
X0080009Y0110267D02*
X0080009Y0106921D01*
X0077057Y0106921D01*
X0077057Y0110267D01*
X0077057Y0107856D02*
X0080009Y0107856D01*
X0080009Y0108791D02*
X0077057Y0108791D01*
X0077057Y0109726D02*
X0080009Y0109726D01*
X0073317Y0110267D02*
X0070365Y0110267D01*
X0073317Y0110267D02*
X0073317Y0106921D01*
X0070365Y0106921D01*
X0070365Y0110267D01*
X0070365Y0107856D02*
X0073317Y0107856D01*
X0073317Y0108791D02*
X0070365Y0108791D01*
X0070365Y0109726D02*
X0073317Y0109726D01*
X0099105Y0110464D02*
X0099105Y0113416D01*
X0102451Y0113416D01*
X0102451Y0110464D01*
X0099105Y0110464D01*
X0099105Y0111399D02*
X0102451Y0111399D01*
X0102451Y0112334D02*
X0099105Y0112334D01*
X0099105Y0113269D02*
X0102451Y0113269D01*
X0099105Y0106723D02*
X0099105Y0103771D01*
X0099105Y0106723D02*
X0102451Y0106723D01*
X0102451Y0103771D01*
X0099105Y0103771D01*
X0099105Y0104706D02*
X0102451Y0104706D01*
X0102451Y0105641D02*
X0099105Y0105641D01*
X0099105Y0106576D02*
X0102451Y0106576D01*
D12*
X0080109Y0102491D02*
X0077745Y0102491D01*
X0080109Y0102491D02*
X0080109Y0099735D01*
X0077745Y0099735D01*
X0077745Y0102491D01*
X0077745Y0100483D02*
X0080109Y0100483D01*
X0080109Y0101231D02*
X0077745Y0101231D01*
X0077745Y0101979D02*
X0080109Y0101979D01*
X0072629Y0102491D02*
X0070265Y0102491D01*
X0072629Y0102491D02*
X0072629Y0099735D01*
X0070265Y0099735D01*
X0070265Y0102491D01*
X0070265Y0100483D02*
X0072629Y0100483D01*
X0072629Y0101231D02*
X0070265Y0101231D01*
X0070265Y0101979D02*
X0072629Y0101979D01*
X0074005Y0093830D02*
X0076369Y0093830D01*
X0076369Y0091074D01*
X0074005Y0091074D01*
X0074005Y0093830D01*
X0074005Y0091822D02*
X0076369Y0091822D01*
X0076369Y0092570D02*
X0074005Y0092570D01*
X0074005Y0093318D02*
X0076369Y0093318D01*
X0077745Y0047373D02*
X0080109Y0047373D01*
X0080109Y0044617D01*
X0077745Y0044617D01*
X0077745Y0047373D01*
X0077745Y0045365D02*
X0080109Y0045365D01*
X0080109Y0046113D02*
X0077745Y0046113D01*
X0077745Y0046861D02*
X0080109Y0046861D01*
X0072629Y0047373D02*
X0070265Y0047373D01*
X0072629Y0047373D02*
X0072629Y0044617D01*
X0070265Y0044617D01*
X0070265Y0047373D01*
X0070265Y0045365D02*
X0072629Y0045365D01*
X0072629Y0046113D02*
X0070265Y0046113D01*
X0070265Y0046861D02*
X0072629Y0046861D01*
X0074005Y0038712D02*
X0076369Y0038712D01*
X0076369Y0035956D01*
X0074005Y0035956D01*
X0074005Y0038712D01*
X0074005Y0036704D02*
X0076369Y0036704D01*
X0076369Y0037452D02*
X0074005Y0037452D01*
X0074005Y0038200D02*
X0076369Y0038200D01*
D13*
X0112785Y0079263D03*
X0159636Y0079263D03*
X0159636Y0118239D03*
X0112785Y0118239D03*
D14*
X0117313Y0118043D03*
X0120463Y0118043D03*
X0123612Y0118043D03*
X0126762Y0118043D03*
X0129911Y0118043D03*
X0133061Y0118043D03*
X0136211Y0118043D03*
X0139360Y0118043D03*
X0142510Y0118043D03*
X0145659Y0118043D03*
X0148809Y0118043D03*
X0151959Y0118043D03*
X0155108Y0118043D03*
X0155108Y0079460D03*
X0151959Y0079460D03*
X0148809Y0079460D03*
X0145659Y0079460D03*
X0142510Y0079460D03*
X0139360Y0079460D03*
X0136211Y0079460D03*
X0133061Y0079460D03*
X0129911Y0079460D03*
X0126762Y0079460D03*
X0123612Y0079460D03*
X0120463Y0079460D03*
X0117313Y0079460D03*
D15*
X0112982Y0083003D03*
X0112982Y0086153D03*
X0112982Y0089302D03*
X0112982Y0092452D03*
X0112982Y0095602D03*
X0112982Y0098751D03*
X0112982Y0101901D03*
X0112982Y0105050D03*
X0112982Y0108200D03*
X0112982Y0111350D03*
X0112982Y0114499D03*
X0159439Y0114499D03*
X0159439Y0111350D03*
X0159439Y0108200D03*
X0159439Y0105050D03*
X0159439Y0101901D03*
X0159439Y0098751D03*
X0159439Y0095602D03*
X0159439Y0092452D03*
X0159439Y0089302D03*
X0159439Y0086153D03*
X0159439Y0083003D03*
D16*
X0144085Y0090877D03*
X0136211Y0090877D03*
X0128337Y0090877D03*
X0128337Y0098751D03*
X0136211Y0098751D03*
X0144085Y0098751D03*
X0144085Y0106625D03*
X0136211Y0106625D03*
X0128337Y0106625D03*
D17*
X0115394Y0056576D02*
X0113326Y0056576D01*
X0113326Y0059824D01*
X0115394Y0059824D01*
X0115394Y0056576D01*
X0115394Y0057231D02*
X0113326Y0057231D01*
X0113326Y0057886D02*
X0115394Y0057886D01*
X0115394Y0058541D02*
X0113326Y0058541D01*
X0113326Y0059196D02*
X0115394Y0059196D01*
X0107914Y0056576D02*
X0105846Y0056576D01*
X0105846Y0059824D01*
X0107914Y0059824D01*
X0107914Y0056576D01*
X0107914Y0057231D02*
X0105846Y0057231D01*
X0105846Y0057886D02*
X0107914Y0057886D01*
X0107914Y0058541D02*
X0105846Y0058541D01*
X0105846Y0059196D02*
X0107914Y0059196D01*
X0107914Y0046733D02*
X0105846Y0046733D01*
X0105846Y0049981D01*
X0107914Y0049981D01*
X0107914Y0046733D01*
X0107914Y0047388D02*
X0105846Y0047388D01*
X0105846Y0048043D02*
X0107914Y0048043D01*
X0107914Y0048698D02*
X0105846Y0048698D01*
X0105846Y0049353D02*
X0107914Y0049353D01*
X0109586Y0046733D02*
X0111654Y0046733D01*
X0109586Y0046733D02*
X0109586Y0049981D01*
X0111654Y0049981D01*
X0111654Y0046733D01*
X0111654Y0047388D02*
X0109586Y0047388D01*
X0109586Y0048043D02*
X0111654Y0048043D01*
X0111654Y0048698D02*
X0109586Y0048698D01*
X0109586Y0049353D02*
X0111654Y0049353D01*
X0113326Y0046733D02*
X0115394Y0046733D01*
X0113326Y0046733D02*
X0113326Y0049981D01*
X0115394Y0049981D01*
X0115394Y0046733D01*
X0115394Y0047388D02*
X0113326Y0047388D01*
X0113326Y0048043D02*
X0115394Y0048043D01*
X0115394Y0048698D02*
X0113326Y0048698D01*
X0113326Y0049353D02*
X0115394Y0049353D01*
M02*
