G75*
%MOIN*%
%OFA0B0*%
%FSLAX25Y25*%
%IPPOS*%
%LPD*%
%AMOC8*
5,1,8,0,0,1.08239X$1,22.5*
%
%ADD10C,0.00000*%
%ADD11C,0.01388*%
%ADD12C,0.01171*%
%ADD13R,0.03156X0.03156*%
%ADD14R,0.01975X0.03550*%
%ADD15R,0.03550X0.01975*%
%ADD16R,0.06109X0.06109*%
%ADD17R,0.07400X0.07400*%
%ADD18C,0.07400*%
%ADD19C,0.13455*%
%ADD20C,0.05833*%
%ADD21C,0.12211*%
%ADD22C,0.01105*%
D10*
X0010226Y0002294D02*
X0191329Y0002294D01*
X0191329Y0002295D02*
X0191519Y0002297D01*
X0191709Y0002304D01*
X0191899Y0002316D01*
X0192089Y0002332D01*
X0192278Y0002352D01*
X0192467Y0002378D01*
X0192655Y0002407D01*
X0192842Y0002442D01*
X0193028Y0002481D01*
X0193213Y0002524D01*
X0193398Y0002572D01*
X0193581Y0002624D01*
X0193762Y0002680D01*
X0193942Y0002741D01*
X0194121Y0002807D01*
X0194298Y0002876D01*
X0194474Y0002950D01*
X0194647Y0003028D01*
X0194819Y0003111D01*
X0194988Y0003197D01*
X0195156Y0003287D01*
X0195321Y0003382D01*
X0195484Y0003480D01*
X0195644Y0003583D01*
X0195802Y0003689D01*
X0195957Y0003799D01*
X0196110Y0003912D01*
X0196260Y0004030D01*
X0196406Y0004151D01*
X0196550Y0004275D01*
X0196691Y0004403D01*
X0196829Y0004534D01*
X0196964Y0004669D01*
X0197095Y0004807D01*
X0197223Y0004948D01*
X0197347Y0005092D01*
X0197468Y0005238D01*
X0197586Y0005388D01*
X0197699Y0005541D01*
X0197809Y0005696D01*
X0197915Y0005854D01*
X0198018Y0006014D01*
X0198116Y0006177D01*
X0198211Y0006342D01*
X0198301Y0006510D01*
X0198387Y0006679D01*
X0198470Y0006851D01*
X0198548Y0007024D01*
X0198622Y0007200D01*
X0198691Y0007377D01*
X0198757Y0007556D01*
X0198818Y0007736D01*
X0198874Y0007917D01*
X0198926Y0008100D01*
X0198974Y0008285D01*
X0199017Y0008470D01*
X0199056Y0008656D01*
X0199091Y0008843D01*
X0199120Y0009031D01*
X0199146Y0009220D01*
X0199166Y0009409D01*
X0199182Y0009599D01*
X0199194Y0009789D01*
X0199201Y0009979D01*
X0199203Y0010169D01*
X0199203Y0114499D01*
X0199201Y0114689D01*
X0199194Y0114879D01*
X0199182Y0115069D01*
X0199166Y0115259D01*
X0199146Y0115448D01*
X0199120Y0115637D01*
X0199091Y0115825D01*
X0199056Y0116012D01*
X0199017Y0116198D01*
X0198974Y0116383D01*
X0198926Y0116568D01*
X0198874Y0116751D01*
X0198818Y0116932D01*
X0198757Y0117112D01*
X0198691Y0117291D01*
X0198622Y0117468D01*
X0198548Y0117644D01*
X0198470Y0117817D01*
X0198387Y0117989D01*
X0198301Y0118158D01*
X0198211Y0118326D01*
X0198116Y0118491D01*
X0198018Y0118654D01*
X0197915Y0118814D01*
X0197809Y0118972D01*
X0197699Y0119127D01*
X0197586Y0119280D01*
X0197468Y0119430D01*
X0197347Y0119576D01*
X0197223Y0119720D01*
X0197095Y0119861D01*
X0196964Y0119999D01*
X0196829Y0120134D01*
X0196691Y0120265D01*
X0196550Y0120393D01*
X0196406Y0120517D01*
X0196260Y0120638D01*
X0196110Y0120756D01*
X0195957Y0120869D01*
X0195802Y0120979D01*
X0195644Y0121085D01*
X0195484Y0121188D01*
X0195321Y0121286D01*
X0195156Y0121381D01*
X0194988Y0121471D01*
X0194819Y0121557D01*
X0194647Y0121640D01*
X0194474Y0121718D01*
X0194298Y0121792D01*
X0194121Y0121861D01*
X0193942Y0121927D01*
X0193762Y0121988D01*
X0193581Y0122044D01*
X0193398Y0122096D01*
X0193213Y0122144D01*
X0193028Y0122187D01*
X0192842Y0122226D01*
X0192655Y0122261D01*
X0192467Y0122290D01*
X0192278Y0122316D01*
X0192089Y0122336D01*
X0191899Y0122352D01*
X0191709Y0122364D01*
X0191519Y0122371D01*
X0191329Y0122373D01*
X0110620Y0122373D01*
X0110430Y0122375D01*
X0110240Y0122382D01*
X0110050Y0122394D01*
X0109860Y0122410D01*
X0109671Y0122430D01*
X0109482Y0122456D01*
X0109294Y0122485D01*
X0109107Y0122520D01*
X0108921Y0122559D01*
X0108736Y0122602D01*
X0108551Y0122650D01*
X0108368Y0122702D01*
X0108187Y0122758D01*
X0108007Y0122819D01*
X0107828Y0122885D01*
X0107651Y0122954D01*
X0107475Y0123028D01*
X0107302Y0123106D01*
X0107130Y0123189D01*
X0106961Y0123275D01*
X0106793Y0123365D01*
X0106628Y0123460D01*
X0106465Y0123558D01*
X0106305Y0123661D01*
X0106147Y0123767D01*
X0105992Y0123877D01*
X0105839Y0123990D01*
X0105689Y0124108D01*
X0105543Y0124229D01*
X0105399Y0124353D01*
X0105258Y0124481D01*
X0105120Y0124612D01*
X0104985Y0124747D01*
X0104854Y0124885D01*
X0104726Y0125026D01*
X0104602Y0125170D01*
X0104481Y0125316D01*
X0104363Y0125466D01*
X0104250Y0125619D01*
X0104140Y0125774D01*
X0104034Y0125932D01*
X0103931Y0126092D01*
X0103833Y0126255D01*
X0103738Y0126420D01*
X0103648Y0126588D01*
X0103562Y0126757D01*
X0103479Y0126929D01*
X0103401Y0127102D01*
X0103327Y0127278D01*
X0103258Y0127455D01*
X0103192Y0127634D01*
X0103131Y0127814D01*
X0103075Y0127995D01*
X0103023Y0128178D01*
X0102975Y0128363D01*
X0102932Y0128548D01*
X0102893Y0128734D01*
X0102858Y0128921D01*
X0102829Y0129109D01*
X0102803Y0129298D01*
X0102783Y0129487D01*
X0102767Y0129677D01*
X0102755Y0129867D01*
X0102748Y0130057D01*
X0102746Y0130247D01*
X0102746Y0136153D01*
X0102744Y0136343D01*
X0102737Y0136533D01*
X0102725Y0136723D01*
X0102709Y0136913D01*
X0102689Y0137102D01*
X0102663Y0137291D01*
X0102634Y0137479D01*
X0102599Y0137666D01*
X0102560Y0137852D01*
X0102517Y0138037D01*
X0102469Y0138222D01*
X0102417Y0138405D01*
X0102361Y0138586D01*
X0102300Y0138766D01*
X0102234Y0138945D01*
X0102165Y0139122D01*
X0102091Y0139298D01*
X0102013Y0139471D01*
X0101930Y0139643D01*
X0101844Y0139812D01*
X0101754Y0139980D01*
X0101659Y0140145D01*
X0101561Y0140308D01*
X0101458Y0140468D01*
X0101352Y0140626D01*
X0101242Y0140781D01*
X0101129Y0140934D01*
X0101011Y0141084D01*
X0100890Y0141230D01*
X0100766Y0141374D01*
X0100638Y0141515D01*
X0100507Y0141653D01*
X0100372Y0141788D01*
X0100234Y0141919D01*
X0100093Y0142047D01*
X0099949Y0142171D01*
X0099803Y0142292D01*
X0099653Y0142410D01*
X0099500Y0142523D01*
X0099345Y0142633D01*
X0099187Y0142739D01*
X0099027Y0142842D01*
X0098864Y0142940D01*
X0098699Y0143035D01*
X0098531Y0143125D01*
X0098362Y0143211D01*
X0098190Y0143294D01*
X0098017Y0143372D01*
X0097841Y0143446D01*
X0097664Y0143515D01*
X0097485Y0143581D01*
X0097305Y0143642D01*
X0097124Y0143698D01*
X0096941Y0143750D01*
X0096756Y0143798D01*
X0096571Y0143841D01*
X0096385Y0143880D01*
X0096198Y0143915D01*
X0096010Y0143944D01*
X0095821Y0143970D01*
X0095632Y0143990D01*
X0095442Y0144006D01*
X0095252Y0144018D01*
X0095062Y0144025D01*
X0094872Y0144027D01*
X0010226Y0144027D01*
X0010036Y0144025D01*
X0009846Y0144018D01*
X0009656Y0144006D01*
X0009466Y0143990D01*
X0009277Y0143970D01*
X0009088Y0143944D01*
X0008900Y0143915D01*
X0008713Y0143880D01*
X0008527Y0143841D01*
X0008342Y0143798D01*
X0008157Y0143750D01*
X0007974Y0143698D01*
X0007793Y0143642D01*
X0007613Y0143581D01*
X0007434Y0143515D01*
X0007257Y0143446D01*
X0007081Y0143372D01*
X0006908Y0143294D01*
X0006736Y0143211D01*
X0006567Y0143125D01*
X0006399Y0143035D01*
X0006234Y0142940D01*
X0006071Y0142842D01*
X0005911Y0142739D01*
X0005753Y0142633D01*
X0005598Y0142523D01*
X0005445Y0142410D01*
X0005295Y0142292D01*
X0005149Y0142171D01*
X0005005Y0142047D01*
X0004864Y0141919D01*
X0004726Y0141788D01*
X0004591Y0141653D01*
X0004460Y0141515D01*
X0004332Y0141374D01*
X0004208Y0141230D01*
X0004087Y0141084D01*
X0003969Y0140934D01*
X0003856Y0140781D01*
X0003746Y0140626D01*
X0003640Y0140468D01*
X0003537Y0140308D01*
X0003439Y0140145D01*
X0003344Y0139980D01*
X0003254Y0139812D01*
X0003168Y0139643D01*
X0003085Y0139471D01*
X0003007Y0139298D01*
X0002933Y0139122D01*
X0002864Y0138945D01*
X0002798Y0138766D01*
X0002737Y0138586D01*
X0002681Y0138405D01*
X0002629Y0138222D01*
X0002581Y0138037D01*
X0002538Y0137852D01*
X0002499Y0137666D01*
X0002464Y0137479D01*
X0002435Y0137291D01*
X0002409Y0137102D01*
X0002389Y0136913D01*
X0002373Y0136723D01*
X0002361Y0136533D01*
X0002354Y0136343D01*
X0002352Y0136153D01*
X0002352Y0010169D01*
X0002354Y0009979D01*
X0002361Y0009789D01*
X0002373Y0009599D01*
X0002389Y0009409D01*
X0002409Y0009220D01*
X0002435Y0009031D01*
X0002464Y0008843D01*
X0002499Y0008656D01*
X0002538Y0008470D01*
X0002581Y0008285D01*
X0002629Y0008100D01*
X0002681Y0007917D01*
X0002737Y0007736D01*
X0002798Y0007556D01*
X0002864Y0007377D01*
X0002933Y0007200D01*
X0003007Y0007024D01*
X0003085Y0006851D01*
X0003168Y0006679D01*
X0003254Y0006510D01*
X0003344Y0006342D01*
X0003439Y0006177D01*
X0003537Y0006014D01*
X0003640Y0005854D01*
X0003746Y0005696D01*
X0003856Y0005541D01*
X0003969Y0005388D01*
X0004087Y0005238D01*
X0004208Y0005092D01*
X0004332Y0004948D01*
X0004460Y0004807D01*
X0004591Y0004669D01*
X0004726Y0004534D01*
X0004864Y0004403D01*
X0005005Y0004275D01*
X0005149Y0004151D01*
X0005295Y0004030D01*
X0005445Y0003912D01*
X0005598Y0003799D01*
X0005753Y0003689D01*
X0005911Y0003583D01*
X0006071Y0003480D01*
X0006234Y0003382D01*
X0006399Y0003287D01*
X0006567Y0003197D01*
X0006736Y0003111D01*
X0006908Y0003028D01*
X0007081Y0002950D01*
X0007257Y0002876D01*
X0007434Y0002807D01*
X0007613Y0002741D01*
X0007793Y0002680D01*
X0007974Y0002624D01*
X0008157Y0002572D01*
X0008342Y0002524D01*
X0008527Y0002481D01*
X0008713Y0002442D01*
X0008900Y0002407D01*
X0009088Y0002378D01*
X0009277Y0002352D01*
X0009466Y0002332D01*
X0009656Y0002316D01*
X0009846Y0002304D01*
X0010036Y0002297D01*
X0010226Y0002295D01*
D11*
X0070367Y0055147D02*
X0073315Y0055147D01*
X0073315Y0051805D01*
X0070367Y0051805D01*
X0070367Y0055147D01*
X0070367Y0053124D02*
X0073315Y0053124D01*
X0073315Y0054443D02*
X0070367Y0054443D01*
X0077059Y0055147D02*
X0080007Y0055147D01*
X0080007Y0051805D01*
X0077059Y0051805D01*
X0077059Y0055147D01*
X0077059Y0053124D02*
X0080007Y0053124D01*
X0080007Y0054443D02*
X0077059Y0054443D01*
X0088669Y0048454D02*
X0088669Y0045506D01*
X0085327Y0045506D01*
X0085327Y0048454D01*
X0088669Y0048454D01*
X0088669Y0046825D02*
X0085327Y0046825D01*
X0085327Y0048144D02*
X0088669Y0048144D01*
X0088669Y0041761D02*
X0088669Y0038813D01*
X0085327Y0038813D01*
X0085327Y0041761D01*
X0088669Y0041761D01*
X0088669Y0040132D02*
X0085327Y0040132D01*
X0085327Y0041451D02*
X0088669Y0041451D01*
X0103831Y0043336D02*
X0106779Y0043336D01*
X0106779Y0039994D01*
X0103831Y0039994D01*
X0103831Y0043336D01*
X0103831Y0041313D02*
X0106779Y0041313D01*
X0106779Y0042632D02*
X0103831Y0042632D01*
X0110524Y0043336D02*
X0113472Y0043336D01*
X0113472Y0039994D01*
X0110524Y0039994D01*
X0110524Y0043336D01*
X0110524Y0041313D02*
X0113472Y0041313D01*
X0113472Y0042632D02*
X0110524Y0042632D01*
X0116823Y0041569D02*
X0116823Y0044517D01*
X0120165Y0044517D01*
X0120165Y0041569D01*
X0116823Y0041569D01*
X0116823Y0042888D02*
X0120165Y0042888D01*
X0120165Y0044207D02*
X0116823Y0044207D01*
X0116823Y0037824D02*
X0116823Y0034876D01*
X0116823Y0037824D02*
X0120165Y0037824D01*
X0120165Y0034876D01*
X0116823Y0034876D01*
X0116823Y0036195D02*
X0120165Y0036195D01*
X0120165Y0037514D02*
X0116823Y0037514D01*
X0116430Y0029556D02*
X0119378Y0029556D01*
X0119378Y0026214D01*
X0116430Y0026214D01*
X0116430Y0029556D01*
X0116430Y0027533D02*
X0119378Y0027533D01*
X0119378Y0028852D02*
X0116430Y0028852D01*
X0112685Y0029556D02*
X0109737Y0029556D01*
X0112685Y0029556D02*
X0112685Y0026214D01*
X0109737Y0026214D01*
X0109737Y0029556D01*
X0109737Y0027533D02*
X0112685Y0027533D01*
X0112685Y0028852D02*
X0109737Y0028852D01*
X0107567Y0026214D02*
X0104619Y0026214D01*
X0104619Y0029556D01*
X0107567Y0029556D01*
X0107567Y0026214D01*
X0107567Y0027533D02*
X0104619Y0027533D01*
X0104619Y0028852D02*
X0107567Y0028852D01*
X0100874Y0026214D02*
X0097926Y0026214D01*
X0097926Y0029556D01*
X0100874Y0029556D01*
X0100874Y0026214D01*
X0100874Y0027533D02*
X0097926Y0027533D01*
X0097926Y0028852D02*
X0100874Y0028852D01*
X0105800Y0063616D02*
X0108748Y0063616D01*
X0105800Y0063616D02*
X0105800Y0066958D01*
X0108748Y0066958D01*
X0108748Y0063616D01*
X0108748Y0064935D02*
X0105800Y0064935D01*
X0105800Y0066254D02*
X0108748Y0066254D01*
X0112493Y0063616D02*
X0115441Y0063616D01*
X0112493Y0063616D02*
X0112493Y0066958D01*
X0115441Y0066958D01*
X0115441Y0063616D01*
X0115441Y0064935D02*
X0112493Y0064935D01*
X0112493Y0066254D02*
X0115441Y0066254D01*
X0088669Y0093931D02*
X0088669Y0096879D01*
X0088669Y0093931D02*
X0085327Y0093931D01*
X0085327Y0096879D01*
X0088669Y0096879D01*
X0088669Y0095250D02*
X0085327Y0095250D01*
X0085327Y0096569D02*
X0088669Y0096569D01*
X0088669Y0100624D02*
X0088669Y0103572D01*
X0088669Y0100624D02*
X0085327Y0100624D01*
X0085327Y0103572D01*
X0088669Y0103572D01*
X0088669Y0101943D02*
X0085327Y0101943D01*
X0085327Y0103262D02*
X0088669Y0103262D01*
X0080007Y0110265D02*
X0077059Y0110265D01*
X0080007Y0110265D02*
X0080007Y0106923D01*
X0077059Y0106923D01*
X0077059Y0110265D01*
X0077059Y0108242D02*
X0080007Y0108242D01*
X0080007Y0109561D02*
X0077059Y0109561D01*
X0073315Y0110265D02*
X0070367Y0110265D01*
X0073315Y0110265D02*
X0073315Y0106923D01*
X0070367Y0106923D01*
X0070367Y0110265D01*
X0070367Y0108242D02*
X0073315Y0108242D01*
X0073315Y0109561D02*
X0070367Y0109561D01*
X0099107Y0110466D02*
X0099107Y0113414D01*
X0102449Y0113414D01*
X0102449Y0110466D01*
X0099107Y0110466D01*
X0099107Y0111785D02*
X0102449Y0111785D01*
X0102449Y0113104D02*
X0099107Y0113104D01*
X0099107Y0106721D02*
X0099107Y0103773D01*
X0099107Y0106721D02*
X0102449Y0106721D01*
X0102449Y0103773D01*
X0099107Y0103773D01*
X0099107Y0105092D02*
X0102449Y0105092D01*
X0102449Y0106411D02*
X0099107Y0106411D01*
D12*
X0080117Y0102499D02*
X0077737Y0102499D01*
X0080117Y0102499D02*
X0080117Y0099727D01*
X0077737Y0099727D01*
X0077737Y0102499D01*
X0077737Y0100839D02*
X0080117Y0100839D01*
X0080117Y0101951D02*
X0077737Y0101951D01*
X0072637Y0102499D02*
X0070257Y0102499D01*
X0072637Y0102499D02*
X0072637Y0099727D01*
X0070257Y0099727D01*
X0070257Y0102499D01*
X0070257Y0100839D02*
X0072637Y0100839D01*
X0072637Y0101951D02*
X0070257Y0101951D01*
X0073997Y0093838D02*
X0076377Y0093838D01*
X0076377Y0091066D01*
X0073997Y0091066D01*
X0073997Y0093838D01*
X0073997Y0092178D02*
X0076377Y0092178D01*
X0076377Y0093290D02*
X0073997Y0093290D01*
X0072637Y0047381D02*
X0070257Y0047381D01*
X0072637Y0047381D02*
X0072637Y0044609D01*
X0070257Y0044609D01*
X0070257Y0047381D01*
X0070257Y0045721D02*
X0072637Y0045721D01*
X0072637Y0046833D02*
X0070257Y0046833D01*
X0077737Y0047381D02*
X0080117Y0047381D01*
X0080117Y0044609D01*
X0077737Y0044609D01*
X0077737Y0047381D01*
X0077737Y0045721D02*
X0080117Y0045721D01*
X0080117Y0046833D02*
X0077737Y0046833D01*
X0076377Y0038720D02*
X0073997Y0038720D01*
X0076377Y0038720D02*
X0076377Y0035948D01*
X0073997Y0035948D01*
X0073997Y0038720D01*
X0073997Y0037060D02*
X0076377Y0037060D01*
X0076377Y0038172D02*
X0073997Y0038172D01*
D13*
X0112785Y0079263D03*
X0159636Y0079263D03*
X0159636Y0118239D03*
X0112785Y0118239D03*
D14*
X0117313Y0118043D03*
X0120463Y0118043D03*
X0123612Y0118043D03*
X0126762Y0118043D03*
X0129911Y0118043D03*
X0133061Y0118043D03*
X0136211Y0118043D03*
X0139360Y0118043D03*
X0142510Y0118043D03*
X0145659Y0118043D03*
X0148809Y0118043D03*
X0151959Y0118043D03*
X0155108Y0118043D03*
X0155108Y0079460D03*
X0151959Y0079460D03*
X0148809Y0079460D03*
X0145659Y0079460D03*
X0142510Y0079460D03*
X0139360Y0079460D03*
X0136211Y0079460D03*
X0133061Y0079460D03*
X0129911Y0079460D03*
X0126762Y0079460D03*
X0123612Y0079460D03*
X0120463Y0079460D03*
X0117313Y0079460D03*
D15*
X0112982Y0083003D03*
X0112982Y0086153D03*
X0112982Y0089302D03*
X0112982Y0092452D03*
X0112982Y0095602D03*
X0112982Y0098751D03*
X0112982Y0101901D03*
X0112982Y0105050D03*
X0112982Y0108200D03*
X0112982Y0111350D03*
X0112982Y0114499D03*
X0159439Y0114499D03*
X0159439Y0111350D03*
X0159439Y0108200D03*
X0159439Y0105050D03*
X0159439Y0101901D03*
X0159439Y0098751D03*
X0159439Y0095602D03*
X0159439Y0092452D03*
X0159439Y0089302D03*
X0159439Y0086153D03*
X0159439Y0083003D03*
D16*
X0144085Y0090877D03*
X0136211Y0090877D03*
X0128337Y0090877D03*
X0128337Y0098751D03*
X0136211Y0098751D03*
X0144085Y0098751D03*
X0144085Y0106625D03*
X0136211Y0106625D03*
X0128337Y0106625D03*
D17*
X0128927Y0016074D03*
D18*
X0138927Y0016074D03*
X0148927Y0016074D03*
X0158927Y0016074D03*
X0168927Y0016074D03*
X0178927Y0016074D03*
X0112746Y0016074D03*
X0102746Y0016074D03*
X0087156Y0016074D03*
X0077156Y0016074D03*
D19*
X0041722Y0011861D03*
X0041722Y0063594D03*
X0041722Y0082728D03*
X0041722Y0134460D03*
D20*
X0052392Y0122373D03*
X0052392Y0112531D03*
X0052392Y0104657D03*
X0052392Y0094814D03*
X0052392Y0051507D03*
X0052392Y0041665D03*
X0052392Y0033791D03*
X0052392Y0023948D03*
D21*
X0134085Y0047570D03*
X0154085Y0047570D03*
D22*
X0115386Y0046741D02*
X0113334Y0046741D01*
X0113334Y0049973D01*
X0115386Y0049973D01*
X0115386Y0046741D01*
X0115386Y0047791D02*
X0113334Y0047791D01*
X0113334Y0048841D02*
X0115386Y0048841D01*
X0115386Y0049891D02*
X0113334Y0049891D01*
X0111646Y0046741D02*
X0109594Y0046741D01*
X0109594Y0049973D01*
X0111646Y0049973D01*
X0111646Y0046741D01*
X0111646Y0047791D02*
X0109594Y0047791D01*
X0109594Y0048841D02*
X0111646Y0048841D01*
X0111646Y0049891D02*
X0109594Y0049891D01*
X0107906Y0046741D02*
X0105854Y0046741D01*
X0105854Y0049973D01*
X0107906Y0049973D01*
X0107906Y0046741D01*
X0107906Y0047791D02*
X0105854Y0047791D01*
X0105854Y0048841D02*
X0107906Y0048841D01*
X0107906Y0049891D02*
X0105854Y0049891D01*
X0105854Y0056584D02*
X0107906Y0056584D01*
X0105854Y0056584D02*
X0105854Y0059816D01*
X0107906Y0059816D01*
X0107906Y0056584D01*
X0107906Y0057634D02*
X0105854Y0057634D01*
X0105854Y0058684D02*
X0107906Y0058684D01*
X0107906Y0059734D02*
X0105854Y0059734D01*
X0113334Y0056584D02*
X0115386Y0056584D01*
X0113334Y0056584D02*
X0113334Y0059816D01*
X0115386Y0059816D01*
X0115386Y0056584D01*
X0115386Y0057634D02*
X0113334Y0057634D01*
X0113334Y0058684D02*
X0115386Y0058684D01*
X0115386Y0059734D02*
X0113334Y0059734D01*
M02*
