%
M48
M72
T01C0.01378
T02C0.01575
T03C0.03150
T04C0.03622
T05C0.03937
T06C0.07874
T07C0.09055
T08C0.11811
%
T01
X22037Y18043
X39754Y33791
X55502Y29854
X68415Y42294
X72352Y42294
X68415Y46231
X86998Y35759
X100778Y41665
X124400Y35759
X94872Y18043
X88967Y23948
X77156Y23948
X37785Y49539
X16132Y90877
X39754Y104657
X55502Y100720
X67313Y100720
X70384Y97326
X67313Y104657
X86998Y90877
X106683Y88909
X109120Y79629
X106683Y71192
X116526Y71192
X124400Y75129
X132274Y84972
X140148Y84972
X151959Y86940
X151959Y94814
X151959Y102688
X151959Y110562
X140148Y112531
X132274Y112531
X120463Y110562
X120463Y102688
X120463Y94814
X120463Y86940
X106683Y106625
X108652Y114499
X165738Y118436
X159833Y75129
X118494Y65287
X173612Y43633
X187392Y31822
X189360Y12137
X163770Y10169
X27943Y128279
T02
X94872Y110562
T03
X120463Y47570
T04
X52392Y23948
X52392Y33791
X52392Y41665
X52392Y51507
X52392Y94814
X52392Y104657
X52392Y112531
X52392Y122373
T05
X77156Y16074
X87156Y16074
X102746Y16074
X112746Y16074
X128927Y16074
X138927Y16074
X148927Y16074
X158927Y16074
X168927Y16074
X178927Y16074
T06
X154085Y47570
X134085Y47570
T07
X41722Y11861
X41722Y63594
X41722Y82728
X41722Y134460
T08
X73219Y73161
X179518Y73161
M30
