G75*
%MOIN*%
%OFA0B0*%
%FSLAX25Y25*%
%IPPOS*%
%LPD*%
%AMOC8*
5,1,8,0,0,1.08239X$1,22.5*
%
%ADD10C,0.00000*%
%ADD11C,0.00400*%
%ADD12C,0.00300*%
%ADD13C,0.00500*%
%ADD14C,0.00800*%
D10*
X0086176Y0058146D02*
X0267279Y0058146D01*
X0267469Y0058148D01*
X0267659Y0058155D01*
X0267849Y0058167D01*
X0268039Y0058183D01*
X0268228Y0058203D01*
X0268417Y0058229D01*
X0268605Y0058258D01*
X0268792Y0058293D01*
X0268978Y0058332D01*
X0269163Y0058375D01*
X0269348Y0058423D01*
X0269531Y0058475D01*
X0269712Y0058531D01*
X0269892Y0058592D01*
X0270071Y0058658D01*
X0270248Y0058727D01*
X0270424Y0058801D01*
X0270597Y0058879D01*
X0270769Y0058962D01*
X0270938Y0059048D01*
X0271106Y0059138D01*
X0271271Y0059233D01*
X0271434Y0059331D01*
X0271594Y0059434D01*
X0271752Y0059540D01*
X0271907Y0059650D01*
X0272060Y0059763D01*
X0272210Y0059881D01*
X0272356Y0060002D01*
X0272500Y0060126D01*
X0272641Y0060254D01*
X0272779Y0060385D01*
X0272914Y0060520D01*
X0273045Y0060658D01*
X0273173Y0060799D01*
X0273297Y0060943D01*
X0273418Y0061089D01*
X0273536Y0061239D01*
X0273649Y0061392D01*
X0273759Y0061547D01*
X0273865Y0061705D01*
X0273968Y0061865D01*
X0274066Y0062028D01*
X0274161Y0062193D01*
X0274251Y0062361D01*
X0274337Y0062530D01*
X0274420Y0062702D01*
X0274498Y0062875D01*
X0274572Y0063051D01*
X0274641Y0063228D01*
X0274707Y0063407D01*
X0274768Y0063587D01*
X0274824Y0063768D01*
X0274876Y0063951D01*
X0274924Y0064136D01*
X0274967Y0064321D01*
X0275006Y0064507D01*
X0275041Y0064694D01*
X0275070Y0064882D01*
X0275096Y0065071D01*
X0275116Y0065260D01*
X0275132Y0065450D01*
X0275144Y0065640D01*
X0275151Y0065830D01*
X0275153Y0066020D01*
X0275153Y0170350D01*
X0275151Y0170540D01*
X0275144Y0170730D01*
X0275132Y0170920D01*
X0275116Y0171110D01*
X0275096Y0171299D01*
X0275070Y0171488D01*
X0275041Y0171676D01*
X0275006Y0171863D01*
X0274967Y0172049D01*
X0274924Y0172234D01*
X0274876Y0172419D01*
X0274824Y0172602D01*
X0274768Y0172783D01*
X0274707Y0172963D01*
X0274641Y0173142D01*
X0274572Y0173319D01*
X0274498Y0173495D01*
X0274420Y0173668D01*
X0274337Y0173840D01*
X0274251Y0174009D01*
X0274161Y0174177D01*
X0274066Y0174342D01*
X0273968Y0174505D01*
X0273865Y0174665D01*
X0273759Y0174823D01*
X0273649Y0174978D01*
X0273536Y0175131D01*
X0273418Y0175281D01*
X0273297Y0175427D01*
X0273173Y0175571D01*
X0273045Y0175712D01*
X0272914Y0175850D01*
X0272779Y0175985D01*
X0272641Y0176116D01*
X0272500Y0176244D01*
X0272356Y0176368D01*
X0272210Y0176489D01*
X0272060Y0176607D01*
X0271907Y0176720D01*
X0271752Y0176830D01*
X0271594Y0176936D01*
X0271434Y0177039D01*
X0271271Y0177137D01*
X0271106Y0177232D01*
X0270938Y0177322D01*
X0270769Y0177408D01*
X0270597Y0177491D01*
X0270424Y0177569D01*
X0270248Y0177643D01*
X0270071Y0177712D01*
X0269892Y0177778D01*
X0269712Y0177839D01*
X0269531Y0177895D01*
X0269348Y0177947D01*
X0269163Y0177995D01*
X0268978Y0178038D01*
X0268792Y0178077D01*
X0268605Y0178112D01*
X0268417Y0178141D01*
X0268228Y0178167D01*
X0268039Y0178187D01*
X0267849Y0178203D01*
X0267659Y0178215D01*
X0267469Y0178222D01*
X0267279Y0178224D01*
X0186570Y0178224D01*
X0186380Y0178226D01*
X0186190Y0178233D01*
X0186000Y0178245D01*
X0185810Y0178261D01*
X0185621Y0178281D01*
X0185432Y0178307D01*
X0185244Y0178336D01*
X0185057Y0178371D01*
X0184871Y0178410D01*
X0184686Y0178453D01*
X0184501Y0178501D01*
X0184318Y0178553D01*
X0184137Y0178609D01*
X0183957Y0178670D01*
X0183778Y0178736D01*
X0183601Y0178805D01*
X0183425Y0178879D01*
X0183252Y0178957D01*
X0183080Y0179040D01*
X0182911Y0179126D01*
X0182743Y0179216D01*
X0182578Y0179311D01*
X0182415Y0179409D01*
X0182255Y0179512D01*
X0182097Y0179618D01*
X0181942Y0179728D01*
X0181789Y0179841D01*
X0181639Y0179959D01*
X0181493Y0180080D01*
X0181349Y0180204D01*
X0181208Y0180332D01*
X0181070Y0180463D01*
X0180935Y0180598D01*
X0180804Y0180736D01*
X0180676Y0180877D01*
X0180552Y0181021D01*
X0180431Y0181167D01*
X0180313Y0181317D01*
X0180200Y0181470D01*
X0180090Y0181625D01*
X0179984Y0181783D01*
X0179881Y0181943D01*
X0179783Y0182106D01*
X0179688Y0182271D01*
X0179598Y0182439D01*
X0179512Y0182608D01*
X0179429Y0182780D01*
X0179351Y0182953D01*
X0179277Y0183129D01*
X0179208Y0183306D01*
X0179142Y0183485D01*
X0179081Y0183665D01*
X0179025Y0183846D01*
X0178973Y0184029D01*
X0178925Y0184214D01*
X0178882Y0184399D01*
X0178843Y0184585D01*
X0178808Y0184772D01*
X0178779Y0184960D01*
X0178753Y0185149D01*
X0178733Y0185338D01*
X0178717Y0185528D01*
X0178705Y0185718D01*
X0178698Y0185908D01*
X0178696Y0186098D01*
X0178696Y0192004D01*
X0178694Y0192194D01*
X0178687Y0192384D01*
X0178675Y0192574D01*
X0178659Y0192764D01*
X0178639Y0192953D01*
X0178613Y0193142D01*
X0178584Y0193330D01*
X0178549Y0193517D01*
X0178510Y0193703D01*
X0178467Y0193888D01*
X0178419Y0194073D01*
X0178367Y0194256D01*
X0178311Y0194437D01*
X0178250Y0194617D01*
X0178184Y0194796D01*
X0178115Y0194973D01*
X0178041Y0195149D01*
X0177963Y0195322D01*
X0177880Y0195494D01*
X0177794Y0195663D01*
X0177704Y0195831D01*
X0177609Y0195996D01*
X0177511Y0196159D01*
X0177408Y0196319D01*
X0177302Y0196477D01*
X0177192Y0196632D01*
X0177079Y0196785D01*
X0176961Y0196935D01*
X0176840Y0197081D01*
X0176716Y0197225D01*
X0176588Y0197366D01*
X0176457Y0197504D01*
X0176322Y0197639D01*
X0176184Y0197770D01*
X0176043Y0197898D01*
X0175899Y0198022D01*
X0175753Y0198143D01*
X0175603Y0198261D01*
X0175450Y0198374D01*
X0175295Y0198484D01*
X0175137Y0198590D01*
X0174977Y0198693D01*
X0174814Y0198791D01*
X0174649Y0198886D01*
X0174481Y0198976D01*
X0174312Y0199062D01*
X0174140Y0199145D01*
X0173967Y0199223D01*
X0173791Y0199297D01*
X0173614Y0199366D01*
X0173435Y0199432D01*
X0173255Y0199493D01*
X0173074Y0199549D01*
X0172891Y0199601D01*
X0172706Y0199649D01*
X0172521Y0199692D01*
X0172335Y0199731D01*
X0172148Y0199766D01*
X0171960Y0199795D01*
X0171771Y0199821D01*
X0171582Y0199841D01*
X0171392Y0199857D01*
X0171202Y0199869D01*
X0171012Y0199876D01*
X0170822Y0199878D01*
X0086176Y0199878D01*
X0085986Y0199876D01*
X0085796Y0199869D01*
X0085606Y0199857D01*
X0085416Y0199841D01*
X0085227Y0199821D01*
X0085038Y0199795D01*
X0084850Y0199766D01*
X0084663Y0199731D01*
X0084477Y0199692D01*
X0084292Y0199649D01*
X0084107Y0199601D01*
X0083924Y0199549D01*
X0083743Y0199493D01*
X0083563Y0199432D01*
X0083384Y0199366D01*
X0083207Y0199297D01*
X0083031Y0199223D01*
X0082858Y0199145D01*
X0082686Y0199062D01*
X0082517Y0198976D01*
X0082349Y0198886D01*
X0082184Y0198791D01*
X0082021Y0198693D01*
X0081861Y0198590D01*
X0081703Y0198484D01*
X0081548Y0198374D01*
X0081395Y0198261D01*
X0081245Y0198143D01*
X0081099Y0198022D01*
X0080955Y0197898D01*
X0080814Y0197770D01*
X0080676Y0197639D01*
X0080541Y0197504D01*
X0080410Y0197366D01*
X0080282Y0197225D01*
X0080158Y0197081D01*
X0080037Y0196935D01*
X0079919Y0196785D01*
X0079806Y0196632D01*
X0079696Y0196477D01*
X0079590Y0196319D01*
X0079487Y0196159D01*
X0079389Y0195996D01*
X0079294Y0195831D01*
X0079204Y0195663D01*
X0079118Y0195494D01*
X0079035Y0195322D01*
X0078957Y0195149D01*
X0078883Y0194973D01*
X0078814Y0194796D01*
X0078748Y0194617D01*
X0078687Y0194437D01*
X0078631Y0194256D01*
X0078579Y0194073D01*
X0078531Y0193888D01*
X0078488Y0193703D01*
X0078449Y0193517D01*
X0078414Y0193330D01*
X0078385Y0193142D01*
X0078359Y0192953D01*
X0078339Y0192764D01*
X0078323Y0192574D01*
X0078311Y0192384D01*
X0078304Y0192194D01*
X0078302Y0192004D01*
X0078302Y0066020D01*
X0078304Y0065830D01*
X0078311Y0065640D01*
X0078323Y0065450D01*
X0078339Y0065260D01*
X0078359Y0065071D01*
X0078385Y0064882D01*
X0078414Y0064694D01*
X0078449Y0064507D01*
X0078488Y0064321D01*
X0078531Y0064136D01*
X0078579Y0063951D01*
X0078631Y0063768D01*
X0078687Y0063587D01*
X0078748Y0063407D01*
X0078814Y0063228D01*
X0078883Y0063051D01*
X0078957Y0062875D01*
X0079035Y0062702D01*
X0079118Y0062530D01*
X0079204Y0062361D01*
X0079294Y0062193D01*
X0079389Y0062028D01*
X0079487Y0061865D01*
X0079590Y0061705D01*
X0079696Y0061547D01*
X0079806Y0061392D01*
X0079919Y0061239D01*
X0080037Y0061089D01*
X0080158Y0060943D01*
X0080282Y0060799D01*
X0080410Y0060658D01*
X0080541Y0060520D01*
X0080676Y0060385D01*
X0080814Y0060254D01*
X0080955Y0060126D01*
X0081099Y0060002D01*
X0081245Y0059881D01*
X0081395Y0059763D01*
X0081548Y0059650D01*
X0081703Y0059540D01*
X0081861Y0059434D01*
X0082021Y0059331D01*
X0082184Y0059233D01*
X0082349Y0059138D01*
X0082517Y0059048D01*
X0082686Y0058962D01*
X0082858Y0058879D01*
X0083031Y0058801D01*
X0083207Y0058727D01*
X0083384Y0058658D01*
X0083563Y0058592D01*
X0083743Y0058531D01*
X0083924Y0058475D01*
X0084107Y0058423D01*
X0084292Y0058375D01*
X0084477Y0058332D01*
X0084663Y0058293D01*
X0084850Y0058258D01*
X0085038Y0058229D01*
X0085227Y0058203D01*
X0085416Y0058183D01*
X0085606Y0058167D01*
X0085796Y0058155D01*
X0085986Y0058148D01*
X0086176Y0058146D01*
D11*
X0086452Y0079999D02*
X0084408Y0079999D01*
X0084408Y0084599D01*
X0090321Y0082555D02*
X0090368Y0082602D01*
X0090412Y0082652D01*
X0090454Y0082704D01*
X0090493Y0082758D01*
X0090528Y0082814D01*
X0090561Y0082872D01*
X0090591Y0082932D01*
X0090617Y0082993D01*
X0090640Y0083056D01*
X0090659Y0083120D01*
X0090675Y0083184D01*
X0090688Y0083250D01*
X0090697Y0083316D01*
X0090702Y0083382D01*
X0090704Y0083449D01*
X0090321Y0082555D02*
X0088149Y0079999D01*
X0090705Y0079999D01*
X0088150Y0083577D02*
X0088175Y0083647D01*
X0088203Y0083716D01*
X0088234Y0083783D01*
X0088269Y0083849D01*
X0088307Y0083912D01*
X0088349Y0083974D01*
X0088393Y0084034D01*
X0088440Y0084091D01*
X0088490Y0084146D01*
X0088543Y0084198D01*
X0088599Y0084248D01*
X0088657Y0084294D01*
X0088717Y0084338D01*
X0088779Y0084379D01*
X0088843Y0084416D01*
X0088909Y0084450D01*
X0088977Y0084481D01*
X0089046Y0084508D01*
X0089116Y0084532D01*
X0089187Y0084553D01*
X0089260Y0084569D01*
X0089333Y0084582D01*
X0089407Y0084592D01*
X0089481Y0084597D01*
X0089555Y0084599D01*
X0089622Y0084597D01*
X0089689Y0084591D01*
X0089755Y0084582D01*
X0089820Y0084568D01*
X0089885Y0084551D01*
X0089948Y0084530D01*
X0090010Y0084505D01*
X0090071Y0084477D01*
X0090130Y0084445D01*
X0090187Y0084410D01*
X0090242Y0084371D01*
X0090294Y0084330D01*
X0090344Y0084285D01*
X0090391Y0084238D01*
X0090436Y0084188D01*
X0090477Y0084136D01*
X0090516Y0084081D01*
X0090551Y0084024D01*
X0090583Y0083965D01*
X0090611Y0083904D01*
X0090636Y0083842D01*
X0090657Y0083779D01*
X0090674Y0083714D01*
X0090688Y0083649D01*
X0090697Y0083583D01*
X0090703Y0083516D01*
X0090705Y0083449D01*
X0120747Y0085905D02*
X0125347Y0088971D01*
X0125347Y0090660D02*
X0125347Y0091938D01*
X0125345Y0092008D01*
X0125339Y0092079D01*
X0125330Y0092148D01*
X0125316Y0092217D01*
X0125299Y0092286D01*
X0125278Y0092353D01*
X0125253Y0092419D01*
X0125225Y0092483D01*
X0125193Y0092546D01*
X0125158Y0092607D01*
X0125119Y0092666D01*
X0125078Y0092723D01*
X0125033Y0092777D01*
X0124985Y0092829D01*
X0124935Y0092878D01*
X0124881Y0092925D01*
X0124826Y0092968D01*
X0124768Y0093008D01*
X0124708Y0093045D01*
X0124646Y0093078D01*
X0124582Y0093108D01*
X0124517Y0093135D01*
X0124451Y0093158D01*
X0124383Y0093177D01*
X0124314Y0093192D01*
X0124245Y0093204D01*
X0124175Y0093212D01*
X0124104Y0093216D01*
X0124034Y0093216D01*
X0123963Y0093212D01*
X0123893Y0093204D01*
X0123824Y0093192D01*
X0123755Y0093177D01*
X0123687Y0093158D01*
X0123621Y0093135D01*
X0123556Y0093108D01*
X0123492Y0093078D01*
X0123430Y0093045D01*
X0123370Y0093008D01*
X0123312Y0092968D01*
X0123257Y0092925D01*
X0123203Y0092878D01*
X0123153Y0092829D01*
X0123105Y0092777D01*
X0123060Y0092723D01*
X0123019Y0092666D01*
X0122980Y0092607D01*
X0122945Y0092546D01*
X0122913Y0092483D01*
X0122885Y0092419D01*
X0122860Y0092353D01*
X0122839Y0092286D01*
X0122822Y0092217D01*
X0122808Y0092148D01*
X0122799Y0092079D01*
X0122793Y0092008D01*
X0122791Y0091938D01*
X0122791Y0092194D02*
X0122791Y0091171D01*
X0122791Y0092194D02*
X0122789Y0092257D01*
X0122783Y0092320D01*
X0122774Y0092382D01*
X0122760Y0092443D01*
X0122743Y0092504D01*
X0122722Y0092563D01*
X0122697Y0092621D01*
X0122669Y0092678D01*
X0122638Y0092732D01*
X0122603Y0092784D01*
X0122565Y0092835D01*
X0122524Y0092883D01*
X0122480Y0092928D01*
X0122434Y0092970D01*
X0122385Y0093010D01*
X0122334Y0093046D01*
X0122280Y0093079D01*
X0122225Y0093109D01*
X0122167Y0093135D01*
X0122109Y0093158D01*
X0122049Y0093177D01*
X0121988Y0093192D01*
X0121926Y0093204D01*
X0121863Y0093212D01*
X0121800Y0093216D01*
X0121738Y0093216D01*
X0121675Y0093212D01*
X0121612Y0093204D01*
X0121550Y0093192D01*
X0121489Y0093177D01*
X0121429Y0093158D01*
X0121371Y0093135D01*
X0121313Y0093109D01*
X0121258Y0093079D01*
X0121204Y0093046D01*
X0121153Y0093010D01*
X0121104Y0092970D01*
X0121058Y0092928D01*
X0121014Y0092883D01*
X0120973Y0092835D01*
X0120935Y0092784D01*
X0120900Y0092732D01*
X0120869Y0092678D01*
X0120841Y0092621D01*
X0120816Y0092563D01*
X0120795Y0092504D01*
X0120778Y0092443D01*
X0120764Y0092382D01*
X0120755Y0092320D01*
X0120749Y0092257D01*
X0120747Y0092194D01*
X0120747Y0090660D01*
X0120747Y0088971D02*
X0125347Y0085905D01*
X0190507Y0095547D02*
X0206255Y0095547D01*
X0206255Y0115232D01*
X0194444Y0129012D01*
X0170822Y0129012D01*
X0125347Y0137086D02*
X0120747Y0140152D01*
X0120747Y0137086D02*
X0125347Y0140152D01*
X0125347Y0141841D02*
X0125347Y0144397D01*
X0125347Y0141841D02*
X0122791Y0144014D01*
X0120747Y0143247D02*
X0120749Y0143173D01*
X0120754Y0143099D01*
X0120764Y0143025D01*
X0120777Y0142952D01*
X0120793Y0142879D01*
X0120814Y0142808D01*
X0120838Y0142738D01*
X0120865Y0142669D01*
X0120896Y0142601D01*
X0120930Y0142535D01*
X0120967Y0142471D01*
X0121008Y0142409D01*
X0121052Y0142348D01*
X0121098Y0142291D01*
X0121148Y0142235D01*
X0121200Y0142182D01*
X0121255Y0142132D01*
X0121312Y0142085D01*
X0121372Y0142041D01*
X0121434Y0141999D01*
X0121497Y0141961D01*
X0121563Y0141926D01*
X0121630Y0141895D01*
X0121699Y0141867D01*
X0121769Y0141842D01*
X0122791Y0144014D02*
X0122744Y0144061D01*
X0122694Y0144105D01*
X0122642Y0144147D01*
X0122588Y0144186D01*
X0122532Y0144221D01*
X0122474Y0144254D01*
X0122414Y0144284D01*
X0122353Y0144310D01*
X0122290Y0144333D01*
X0122226Y0144352D01*
X0122162Y0144368D01*
X0122096Y0144381D01*
X0122030Y0144390D01*
X0121964Y0144395D01*
X0121897Y0144397D01*
X0121830Y0144395D01*
X0121763Y0144389D01*
X0121697Y0144380D01*
X0121632Y0144366D01*
X0121567Y0144349D01*
X0121504Y0144328D01*
X0121442Y0144303D01*
X0121381Y0144275D01*
X0121322Y0144243D01*
X0121265Y0144208D01*
X0121210Y0144169D01*
X0121158Y0144128D01*
X0121108Y0144083D01*
X0121061Y0144036D01*
X0121016Y0143986D01*
X0120975Y0143934D01*
X0120936Y0143879D01*
X0120901Y0143822D01*
X0120869Y0143763D01*
X0120841Y0143702D01*
X0120816Y0143640D01*
X0120795Y0143577D01*
X0120778Y0143512D01*
X0120764Y0143447D01*
X0120755Y0143381D01*
X0120749Y0143314D01*
X0120747Y0143247D01*
X0092673Y0174487D02*
X0090118Y0174487D01*
X0091395Y0174487D02*
X0091395Y0179087D01*
X0090118Y0178065D01*
X0086376Y0179087D02*
X0086376Y0174487D01*
X0088421Y0174487D01*
X0237951Y0111136D02*
X0237951Y0108580D01*
X0237953Y0108518D01*
X0237958Y0108457D01*
X0237968Y0108396D01*
X0237981Y0108335D01*
X0237997Y0108276D01*
X0238017Y0108218D01*
X0238041Y0108161D01*
X0238068Y0108105D01*
X0238098Y0108051D01*
X0238132Y0107999D01*
X0238168Y0107950D01*
X0238208Y0107902D01*
X0238250Y0107857D01*
X0238295Y0107815D01*
X0238343Y0107775D01*
X0238392Y0107739D01*
X0238444Y0107705D01*
X0238498Y0107675D01*
X0238554Y0107648D01*
X0238611Y0107624D01*
X0238669Y0107604D01*
X0238728Y0107588D01*
X0238789Y0107575D01*
X0238850Y0107565D01*
X0238911Y0107560D01*
X0238973Y0107558D01*
X0240507Y0107558D01*
X0240507Y0110114D01*
X0239740Y0110114D01*
X0237951Y0111136D02*
X0237953Y0111198D01*
X0237958Y0111259D01*
X0237968Y0111320D01*
X0237981Y0111381D01*
X0237997Y0111440D01*
X0238017Y0111498D01*
X0238041Y0111555D01*
X0238068Y0111611D01*
X0238098Y0111665D01*
X0238132Y0111717D01*
X0238168Y0111766D01*
X0238208Y0111814D01*
X0238250Y0111859D01*
X0238295Y0111901D01*
X0238343Y0111940D01*
X0238392Y0111977D01*
X0238444Y0112011D01*
X0238498Y0112041D01*
X0238554Y0112068D01*
X0238611Y0112092D01*
X0238669Y0112112D01*
X0238728Y0112128D01*
X0238789Y0112141D01*
X0238850Y0112151D01*
X0238911Y0112156D01*
X0238973Y0112158D01*
X0240507Y0112158D01*
X0242751Y0112158D02*
X0245307Y0107558D01*
X0245307Y0112158D01*
X0247551Y0112158D02*
X0248829Y0112158D01*
X0248898Y0112156D01*
X0248967Y0112151D01*
X0249036Y0112141D01*
X0249104Y0112128D01*
X0249171Y0112111D01*
X0249237Y0112091D01*
X0249302Y0112067D01*
X0249366Y0112040D01*
X0249428Y0112009D01*
X0249488Y0111975D01*
X0249546Y0111938D01*
X0249602Y0111897D01*
X0249656Y0111854D01*
X0249708Y0111808D01*
X0249757Y0111759D01*
X0249803Y0111707D01*
X0249846Y0111653D01*
X0249887Y0111597D01*
X0249924Y0111539D01*
X0249958Y0111479D01*
X0249989Y0111417D01*
X0250016Y0111353D01*
X0250040Y0111288D01*
X0250060Y0111222D01*
X0250077Y0111155D01*
X0250090Y0111087D01*
X0250100Y0111018D01*
X0250105Y0110949D01*
X0250107Y0110880D01*
X0250107Y0108836D01*
X0250105Y0108767D01*
X0250100Y0108698D01*
X0250090Y0108629D01*
X0250077Y0108561D01*
X0250060Y0108494D01*
X0250040Y0108428D01*
X0250016Y0108363D01*
X0249989Y0108299D01*
X0249958Y0108237D01*
X0249924Y0108177D01*
X0249887Y0108119D01*
X0249846Y0108063D01*
X0249803Y0108009D01*
X0249757Y0107957D01*
X0249708Y0107908D01*
X0249656Y0107862D01*
X0249602Y0107819D01*
X0249546Y0107778D01*
X0249488Y0107741D01*
X0249428Y0107707D01*
X0249366Y0107676D01*
X0249302Y0107649D01*
X0249237Y0107625D01*
X0249171Y0107605D01*
X0249104Y0107588D01*
X0249036Y0107575D01*
X0248967Y0107565D01*
X0248898Y0107560D01*
X0248829Y0107558D01*
X0247551Y0107558D01*
X0247551Y0112158D01*
X0242751Y0112158D02*
X0242751Y0107558D01*
X0240507Y0100347D02*
X0237951Y0100347D01*
X0237951Y0098303D01*
X0239485Y0098303D01*
X0239547Y0098301D01*
X0239608Y0098296D01*
X0239669Y0098286D01*
X0239730Y0098273D01*
X0239789Y0098257D01*
X0239847Y0098237D01*
X0239904Y0098213D01*
X0239960Y0098186D01*
X0240014Y0098156D01*
X0240066Y0098122D01*
X0240115Y0098086D01*
X0240163Y0098046D01*
X0240208Y0098004D01*
X0240250Y0097959D01*
X0240290Y0097911D01*
X0240326Y0097862D01*
X0240360Y0097810D01*
X0240390Y0097756D01*
X0240417Y0097700D01*
X0240441Y0097643D01*
X0240461Y0097585D01*
X0240477Y0097526D01*
X0240490Y0097465D01*
X0240500Y0097404D01*
X0240505Y0097343D01*
X0240507Y0097281D01*
X0240507Y0096769D01*
X0240505Y0096707D01*
X0240500Y0096646D01*
X0240490Y0096585D01*
X0240477Y0096524D01*
X0240461Y0096465D01*
X0240441Y0096407D01*
X0240417Y0096350D01*
X0240390Y0096294D01*
X0240360Y0096240D01*
X0240326Y0096188D01*
X0240290Y0096139D01*
X0240250Y0096091D01*
X0240208Y0096046D01*
X0240163Y0096004D01*
X0240115Y0095964D01*
X0240066Y0095928D01*
X0240014Y0095894D01*
X0239960Y0095864D01*
X0239904Y0095837D01*
X0239847Y0095813D01*
X0239789Y0095793D01*
X0239730Y0095777D01*
X0239669Y0095764D01*
X0239608Y0095754D01*
X0239547Y0095749D01*
X0239485Y0095747D01*
X0237951Y0095747D01*
X0242496Y0097536D02*
X0245562Y0097536D01*
X0247551Y0095747D02*
X0250107Y0095747D01*
X0252051Y0096769D02*
X0254607Y0096769D01*
X0253840Y0095747D02*
X0253840Y0097792D01*
X0252051Y0096769D02*
X0253073Y0100347D01*
X0256296Y0100347D02*
X0257829Y0095747D01*
X0259362Y0100347D01*
X0260397Y0100145D02*
X0260397Y0097845D01*
X0261547Y0097462D02*
X0256947Y0098995D01*
X0261547Y0100529D01*
X0261547Y0102323D02*
X0258481Y0102323D01*
X0258481Y0103601D01*
X0258480Y0103601D02*
X0258482Y0103656D01*
X0258488Y0103710D01*
X0258498Y0103764D01*
X0258511Y0103817D01*
X0258528Y0103869D01*
X0258549Y0103920D01*
X0258574Y0103969D01*
X0258602Y0104016D01*
X0258633Y0104061D01*
X0258667Y0104103D01*
X0258705Y0104143D01*
X0258745Y0104181D01*
X0258787Y0104215D01*
X0258832Y0104246D01*
X0258879Y0104274D01*
X0258928Y0104299D01*
X0258979Y0104320D01*
X0259031Y0104337D01*
X0259084Y0104350D01*
X0259138Y0104360D01*
X0259192Y0104366D01*
X0259247Y0104368D01*
X0261547Y0104368D01*
X0264447Y0103745D02*
X0268281Y0103745D01*
X0268336Y0103747D01*
X0268390Y0103753D01*
X0268444Y0103763D01*
X0268497Y0103776D01*
X0268549Y0103793D01*
X0268600Y0103814D01*
X0268649Y0103839D01*
X0268696Y0103867D01*
X0268741Y0103898D01*
X0268783Y0103932D01*
X0268823Y0103970D01*
X0268861Y0104010D01*
X0268895Y0104052D01*
X0268926Y0104097D01*
X0268954Y0104144D01*
X0268979Y0104193D01*
X0269000Y0104244D01*
X0269017Y0104296D01*
X0269030Y0104349D01*
X0269040Y0104403D01*
X0269046Y0104457D01*
X0269048Y0104512D01*
X0268281Y0106145D02*
X0264447Y0106145D01*
X0261547Y0107244D02*
X0261547Y0108394D01*
X0259247Y0108394D01*
X0259758Y0108394D02*
X0259758Y0107244D01*
X0259247Y0108395D02*
X0259192Y0108393D01*
X0259138Y0108387D01*
X0259084Y0108377D01*
X0259031Y0108364D01*
X0258979Y0108347D01*
X0258928Y0108326D01*
X0258879Y0108301D01*
X0258832Y0108273D01*
X0258787Y0108242D01*
X0258745Y0108208D01*
X0258705Y0108170D01*
X0258667Y0108130D01*
X0258633Y0108088D01*
X0258602Y0108043D01*
X0258574Y0107996D01*
X0258549Y0107947D01*
X0258528Y0107896D01*
X0258511Y0107844D01*
X0258498Y0107791D01*
X0258488Y0107737D01*
X0258482Y0107683D01*
X0258480Y0107628D01*
X0258481Y0107628D02*
X0258481Y0106606D01*
X0259759Y0107244D02*
X0259761Y0107186D01*
X0259767Y0107127D01*
X0259776Y0107070D01*
X0259789Y0107013D01*
X0259806Y0106957D01*
X0259827Y0106902D01*
X0259851Y0106849D01*
X0259879Y0106797D01*
X0259910Y0106747D01*
X0259944Y0106700D01*
X0259981Y0106655D01*
X0260021Y0106612D01*
X0260064Y0106572D01*
X0260109Y0106535D01*
X0260156Y0106501D01*
X0260206Y0106470D01*
X0260258Y0106442D01*
X0260311Y0106418D01*
X0260366Y0106397D01*
X0260422Y0106380D01*
X0260479Y0106367D01*
X0260536Y0106358D01*
X0260595Y0106352D01*
X0260653Y0106350D01*
X0260711Y0106352D01*
X0260770Y0106358D01*
X0260827Y0106367D01*
X0260884Y0106380D01*
X0260940Y0106397D01*
X0260995Y0106418D01*
X0261048Y0106442D01*
X0261100Y0106470D01*
X0261150Y0106501D01*
X0261197Y0106535D01*
X0261242Y0106572D01*
X0261285Y0106612D01*
X0261325Y0106655D01*
X0261362Y0106700D01*
X0261396Y0106747D01*
X0261427Y0106797D01*
X0261455Y0106849D01*
X0261479Y0106902D01*
X0261500Y0106957D01*
X0261517Y0107013D01*
X0261530Y0107070D01*
X0261539Y0107127D01*
X0261545Y0107186D01*
X0261547Y0107244D01*
X0260781Y0110482D02*
X0256947Y0110482D01*
X0259503Y0112823D02*
X0260525Y0112823D01*
X0260588Y0112825D01*
X0260651Y0112831D01*
X0260713Y0112840D01*
X0260774Y0112854D01*
X0260835Y0112871D01*
X0260894Y0112892D01*
X0260952Y0112917D01*
X0261009Y0112945D01*
X0261063Y0112976D01*
X0261115Y0113011D01*
X0261166Y0113049D01*
X0261214Y0113090D01*
X0261259Y0113134D01*
X0261301Y0113180D01*
X0261341Y0113229D01*
X0261377Y0113280D01*
X0261410Y0113334D01*
X0261440Y0113389D01*
X0261466Y0113447D01*
X0261489Y0113505D01*
X0261508Y0113565D01*
X0261523Y0113626D01*
X0261535Y0113688D01*
X0261543Y0113751D01*
X0261547Y0113814D01*
X0261547Y0113876D01*
X0261543Y0113939D01*
X0261535Y0114002D01*
X0261523Y0114064D01*
X0261508Y0114125D01*
X0261489Y0114185D01*
X0261466Y0114243D01*
X0261440Y0114301D01*
X0261410Y0114356D01*
X0261377Y0114410D01*
X0261341Y0114461D01*
X0261301Y0114510D01*
X0261259Y0114556D01*
X0261214Y0114600D01*
X0261166Y0114641D01*
X0261115Y0114679D01*
X0261063Y0114714D01*
X0261009Y0114745D01*
X0260952Y0114773D01*
X0260894Y0114798D01*
X0260835Y0114819D01*
X0260774Y0114836D01*
X0260713Y0114850D01*
X0260651Y0114859D01*
X0260588Y0114865D01*
X0260525Y0114867D01*
X0260525Y0114868D02*
X0259503Y0114868D01*
X0259503Y0114867D02*
X0259440Y0114865D01*
X0259377Y0114859D01*
X0259315Y0114850D01*
X0259254Y0114836D01*
X0259193Y0114819D01*
X0259134Y0114798D01*
X0259076Y0114773D01*
X0259019Y0114745D01*
X0258965Y0114714D01*
X0258913Y0114679D01*
X0258862Y0114641D01*
X0258814Y0114600D01*
X0258769Y0114556D01*
X0258727Y0114510D01*
X0258687Y0114461D01*
X0258651Y0114410D01*
X0258618Y0114356D01*
X0258588Y0114301D01*
X0258562Y0114243D01*
X0258539Y0114185D01*
X0258520Y0114125D01*
X0258505Y0114064D01*
X0258493Y0114002D01*
X0258485Y0113939D01*
X0258481Y0113876D01*
X0258481Y0113814D01*
X0258485Y0113751D01*
X0258493Y0113688D01*
X0258505Y0113626D01*
X0258520Y0113565D01*
X0258539Y0113505D01*
X0258562Y0113447D01*
X0258588Y0113389D01*
X0258618Y0113334D01*
X0258651Y0113280D01*
X0258687Y0113229D01*
X0258727Y0113180D01*
X0258769Y0113134D01*
X0258814Y0113090D01*
X0258862Y0113049D01*
X0258913Y0113011D01*
X0258965Y0112976D01*
X0259019Y0112945D01*
X0259076Y0112917D01*
X0259134Y0112892D01*
X0259193Y0112871D01*
X0259254Y0112854D01*
X0259315Y0112840D01*
X0259377Y0112831D01*
X0259440Y0112825D01*
X0259503Y0112823D01*
X0261548Y0111249D02*
X0261546Y0111194D01*
X0261540Y0111140D01*
X0261530Y0111086D01*
X0261517Y0111033D01*
X0261500Y0110981D01*
X0261479Y0110930D01*
X0261454Y0110881D01*
X0261426Y0110834D01*
X0261395Y0110789D01*
X0261361Y0110747D01*
X0261323Y0110707D01*
X0261283Y0110669D01*
X0261241Y0110635D01*
X0261196Y0110604D01*
X0261149Y0110576D01*
X0261100Y0110551D01*
X0261049Y0110530D01*
X0260997Y0110513D01*
X0260944Y0110500D01*
X0260890Y0110490D01*
X0260836Y0110484D01*
X0260781Y0110482D01*
X0265981Y0112562D02*
X0265981Y0114096D01*
X0266492Y0114096D01*
X0265981Y0112562D02*
X0269047Y0112562D01*
X0269047Y0110531D02*
X0269047Y0109253D01*
X0269048Y0109253D02*
X0269046Y0109198D01*
X0269040Y0109144D01*
X0269030Y0109090D01*
X0269017Y0109037D01*
X0269000Y0108985D01*
X0268979Y0108934D01*
X0268954Y0108885D01*
X0268926Y0108838D01*
X0268895Y0108793D01*
X0268861Y0108751D01*
X0268823Y0108711D01*
X0268783Y0108673D01*
X0268741Y0108639D01*
X0268696Y0108608D01*
X0268649Y0108580D01*
X0268600Y0108555D01*
X0268549Y0108534D01*
X0268497Y0108517D01*
X0268444Y0108504D01*
X0268390Y0108494D01*
X0268336Y0108488D01*
X0268281Y0108486D01*
X0267003Y0108486D01*
X0267514Y0108486D02*
X0267514Y0110531D01*
X0267003Y0110531D01*
X0266940Y0110529D01*
X0266877Y0110523D01*
X0266815Y0110514D01*
X0266754Y0110500D01*
X0266693Y0110483D01*
X0266634Y0110462D01*
X0266576Y0110437D01*
X0266519Y0110409D01*
X0266465Y0110378D01*
X0266413Y0110343D01*
X0266362Y0110305D01*
X0266314Y0110264D01*
X0266269Y0110220D01*
X0266227Y0110174D01*
X0266187Y0110125D01*
X0266151Y0110074D01*
X0266118Y0110020D01*
X0266088Y0109965D01*
X0266062Y0109907D01*
X0266039Y0109849D01*
X0266020Y0109789D01*
X0266005Y0109728D01*
X0265993Y0109666D01*
X0265985Y0109603D01*
X0265981Y0109540D01*
X0265981Y0109478D01*
X0265985Y0109415D01*
X0265993Y0109352D01*
X0266005Y0109290D01*
X0266020Y0109229D01*
X0266039Y0109169D01*
X0266062Y0109111D01*
X0266088Y0109053D01*
X0266118Y0108998D01*
X0266151Y0108944D01*
X0266187Y0108893D01*
X0266227Y0108844D01*
X0266269Y0108798D01*
X0266314Y0108754D01*
X0266362Y0108713D01*
X0266413Y0108675D01*
X0266465Y0108640D01*
X0266519Y0108609D01*
X0266576Y0108581D01*
X0266634Y0108556D01*
X0266693Y0108535D01*
X0266754Y0108518D01*
X0266815Y0108504D01*
X0266877Y0108495D01*
X0266940Y0108489D01*
X0267003Y0108487D01*
X0269048Y0106912D02*
X0269046Y0106857D01*
X0269040Y0106803D01*
X0269030Y0106749D01*
X0269017Y0106696D01*
X0269000Y0106644D01*
X0268979Y0106593D01*
X0268954Y0106544D01*
X0268926Y0106497D01*
X0268895Y0106452D01*
X0268861Y0106410D01*
X0268823Y0106370D01*
X0268783Y0106332D01*
X0268741Y0106298D01*
X0268696Y0106267D01*
X0268649Y0106239D01*
X0268600Y0106214D01*
X0268549Y0106193D01*
X0268497Y0106176D01*
X0268444Y0106163D01*
X0268390Y0106153D01*
X0268336Y0106147D01*
X0268281Y0106145D01*
X0268025Y0101831D02*
X0267003Y0101831D01*
X0266940Y0101829D01*
X0266877Y0101823D01*
X0266815Y0101814D01*
X0266754Y0101800D01*
X0266693Y0101783D01*
X0266634Y0101762D01*
X0266576Y0101737D01*
X0266519Y0101709D01*
X0266465Y0101678D01*
X0266413Y0101643D01*
X0266362Y0101605D01*
X0266314Y0101564D01*
X0266269Y0101520D01*
X0266227Y0101474D01*
X0266187Y0101425D01*
X0266151Y0101374D01*
X0266118Y0101320D01*
X0266088Y0101265D01*
X0266062Y0101207D01*
X0266039Y0101149D01*
X0266020Y0101089D01*
X0266005Y0101028D01*
X0265993Y0100966D01*
X0265985Y0100903D01*
X0265981Y0100840D01*
X0265981Y0100778D01*
X0265985Y0100715D01*
X0265993Y0100652D01*
X0266005Y0100590D01*
X0266020Y0100529D01*
X0266039Y0100469D01*
X0266062Y0100411D01*
X0266088Y0100353D01*
X0266118Y0100298D01*
X0266151Y0100244D01*
X0266187Y0100193D01*
X0266227Y0100144D01*
X0266269Y0100098D01*
X0266314Y0100054D01*
X0266362Y0100013D01*
X0266413Y0099975D01*
X0266465Y0099940D01*
X0266519Y0099909D01*
X0266576Y0099881D01*
X0266634Y0099856D01*
X0266693Y0099835D01*
X0266754Y0099818D01*
X0266815Y0099804D01*
X0266877Y0099795D01*
X0266940Y0099789D01*
X0267003Y0099787D01*
X0267003Y0099786D02*
X0268025Y0099786D01*
X0268025Y0099787D02*
X0268088Y0099789D01*
X0268151Y0099795D01*
X0268213Y0099804D01*
X0268274Y0099818D01*
X0268335Y0099835D01*
X0268394Y0099856D01*
X0268452Y0099881D01*
X0268509Y0099909D01*
X0268563Y0099940D01*
X0268615Y0099975D01*
X0268666Y0100013D01*
X0268714Y0100054D01*
X0268759Y0100098D01*
X0268801Y0100144D01*
X0268841Y0100193D01*
X0268877Y0100244D01*
X0268910Y0100298D01*
X0268940Y0100353D01*
X0268966Y0100411D01*
X0268989Y0100469D01*
X0269008Y0100529D01*
X0269023Y0100590D01*
X0269035Y0100652D01*
X0269043Y0100715D01*
X0269047Y0100778D01*
X0269047Y0100840D01*
X0269043Y0100903D01*
X0269035Y0100966D01*
X0269023Y0101028D01*
X0269008Y0101089D01*
X0268989Y0101149D01*
X0268966Y0101207D01*
X0268940Y0101265D01*
X0268910Y0101320D01*
X0268877Y0101374D01*
X0268841Y0101425D01*
X0268801Y0101474D01*
X0268759Y0101520D01*
X0268714Y0101564D01*
X0268666Y0101605D01*
X0268615Y0101643D01*
X0268563Y0101678D01*
X0268509Y0101709D01*
X0268452Y0101737D01*
X0268394Y0101762D01*
X0268335Y0101783D01*
X0268274Y0101800D01*
X0268213Y0101814D01*
X0268151Y0101823D01*
X0268088Y0101829D01*
X0268025Y0101831D01*
X0266492Y0098346D02*
X0265981Y0098346D01*
X0265981Y0096812D01*
X0269047Y0096812D01*
X0269047Y0094939D02*
X0269047Y0094683D01*
X0269048Y0094683D02*
X0269046Y0094628D01*
X0269040Y0094574D01*
X0269030Y0094520D01*
X0269017Y0094467D01*
X0269000Y0094415D01*
X0268979Y0094364D01*
X0268954Y0094315D01*
X0268926Y0094268D01*
X0268895Y0094223D01*
X0268861Y0094181D01*
X0268823Y0094141D01*
X0268783Y0094103D01*
X0268741Y0094069D01*
X0268696Y0094038D01*
X0268649Y0094010D01*
X0268600Y0093985D01*
X0268549Y0093964D01*
X0268497Y0093947D01*
X0268444Y0093934D01*
X0268390Y0093924D01*
X0268336Y0093918D01*
X0268281Y0093916D01*
X0268281Y0093917D02*
X0264447Y0093917D01*
X0265981Y0093406D02*
X0265981Y0094939D01*
X0266747Y0091781D02*
X0269047Y0091781D01*
X0269047Y0089736D02*
X0265981Y0089736D01*
X0265981Y0091014D01*
X0265980Y0091014D02*
X0265982Y0091069D01*
X0265988Y0091123D01*
X0265998Y0091177D01*
X0266011Y0091230D01*
X0266028Y0091282D01*
X0266049Y0091333D01*
X0266074Y0091382D01*
X0266102Y0091429D01*
X0266133Y0091474D01*
X0266167Y0091516D01*
X0266205Y0091556D01*
X0266245Y0091594D01*
X0266287Y0091628D01*
X0266332Y0091659D01*
X0266379Y0091687D01*
X0266428Y0091712D01*
X0266479Y0091733D01*
X0266531Y0091750D01*
X0266584Y0091763D01*
X0266638Y0091773D01*
X0266692Y0091779D01*
X0266747Y0091781D01*
X0267003Y0087731D02*
X0268025Y0087731D01*
X0268088Y0087729D01*
X0268151Y0087723D01*
X0268213Y0087714D01*
X0268274Y0087700D01*
X0268335Y0087683D01*
X0268394Y0087662D01*
X0268452Y0087637D01*
X0268509Y0087609D01*
X0268563Y0087578D01*
X0268615Y0087543D01*
X0268666Y0087505D01*
X0268714Y0087464D01*
X0268759Y0087420D01*
X0268801Y0087374D01*
X0268841Y0087325D01*
X0268877Y0087274D01*
X0268910Y0087220D01*
X0268940Y0087165D01*
X0268966Y0087107D01*
X0268989Y0087049D01*
X0269008Y0086989D01*
X0269023Y0086928D01*
X0269035Y0086866D01*
X0269043Y0086803D01*
X0269047Y0086740D01*
X0269047Y0086678D01*
X0269043Y0086615D01*
X0269035Y0086552D01*
X0269023Y0086490D01*
X0269008Y0086429D01*
X0268989Y0086369D01*
X0268966Y0086311D01*
X0268940Y0086253D01*
X0268910Y0086198D01*
X0268877Y0086144D01*
X0268841Y0086093D01*
X0268801Y0086044D01*
X0268759Y0085998D01*
X0268714Y0085954D01*
X0268666Y0085913D01*
X0268615Y0085875D01*
X0268563Y0085840D01*
X0268509Y0085809D01*
X0268452Y0085781D01*
X0268394Y0085756D01*
X0268335Y0085735D01*
X0268274Y0085718D01*
X0268213Y0085704D01*
X0268151Y0085695D01*
X0268088Y0085689D01*
X0268025Y0085687D01*
X0268025Y0085686D02*
X0267003Y0085686D01*
X0267003Y0085687D02*
X0266940Y0085689D01*
X0266877Y0085695D01*
X0266815Y0085704D01*
X0266754Y0085718D01*
X0266693Y0085735D01*
X0266634Y0085756D01*
X0266576Y0085781D01*
X0266519Y0085809D01*
X0266465Y0085840D01*
X0266413Y0085875D01*
X0266362Y0085913D01*
X0266314Y0085954D01*
X0266269Y0085998D01*
X0266227Y0086044D01*
X0266187Y0086093D01*
X0266151Y0086144D01*
X0266118Y0086198D01*
X0266088Y0086253D01*
X0266062Y0086311D01*
X0266039Y0086369D01*
X0266020Y0086429D01*
X0266005Y0086490D01*
X0265993Y0086552D01*
X0265985Y0086615D01*
X0265981Y0086678D01*
X0265981Y0086740D01*
X0265985Y0086803D01*
X0265993Y0086866D01*
X0266005Y0086928D01*
X0266020Y0086989D01*
X0266039Y0087049D01*
X0266062Y0087107D01*
X0266088Y0087165D01*
X0266118Y0087220D01*
X0266151Y0087274D01*
X0266187Y0087325D01*
X0266227Y0087374D01*
X0266269Y0087420D01*
X0266314Y0087464D01*
X0266362Y0087505D01*
X0266413Y0087543D01*
X0266465Y0087578D01*
X0266519Y0087609D01*
X0266576Y0087637D01*
X0266634Y0087662D01*
X0266693Y0087683D01*
X0266754Y0087700D01*
X0266815Y0087714D01*
X0266877Y0087723D01*
X0266940Y0087729D01*
X0267003Y0087731D01*
X0269047Y0084012D02*
X0269047Y0082990D01*
X0269045Y0082928D01*
X0269040Y0082867D01*
X0269030Y0082806D01*
X0269017Y0082745D01*
X0269001Y0082686D01*
X0268981Y0082628D01*
X0268957Y0082571D01*
X0268930Y0082515D01*
X0268900Y0082461D01*
X0268866Y0082409D01*
X0268830Y0082360D01*
X0268790Y0082312D01*
X0268748Y0082267D01*
X0268703Y0082225D01*
X0268655Y0082185D01*
X0268606Y0082149D01*
X0268554Y0082115D01*
X0268500Y0082085D01*
X0268444Y0082058D01*
X0268387Y0082034D01*
X0268329Y0082014D01*
X0268270Y0081998D01*
X0268209Y0081985D01*
X0268148Y0081975D01*
X0268087Y0081970D01*
X0268025Y0081968D01*
X0265470Y0081968D01*
X0265408Y0081970D01*
X0265347Y0081975D01*
X0265286Y0081985D01*
X0265225Y0081998D01*
X0265166Y0082014D01*
X0265108Y0082034D01*
X0265051Y0082058D01*
X0264995Y0082085D01*
X0264941Y0082115D01*
X0264889Y0082149D01*
X0264840Y0082185D01*
X0264792Y0082225D01*
X0264747Y0082267D01*
X0264705Y0082312D01*
X0264666Y0082360D01*
X0264629Y0082409D01*
X0264595Y0082461D01*
X0264565Y0082515D01*
X0264538Y0082571D01*
X0264514Y0082628D01*
X0264494Y0082686D01*
X0264478Y0082745D01*
X0264465Y0082806D01*
X0264455Y0082867D01*
X0264450Y0082928D01*
X0264448Y0082990D01*
X0264447Y0082990D02*
X0264447Y0084012D01*
X0260270Y0084523D02*
X0256947Y0084523D01*
X0256947Y0081968D02*
X0260270Y0081968D01*
X0260270Y0081967D02*
X0260340Y0081969D01*
X0260411Y0081975D01*
X0260480Y0081984D01*
X0260549Y0081998D01*
X0260618Y0082015D01*
X0260685Y0082036D01*
X0260751Y0082061D01*
X0260815Y0082089D01*
X0260878Y0082121D01*
X0260939Y0082156D01*
X0260998Y0082195D01*
X0261055Y0082236D01*
X0261109Y0082281D01*
X0261161Y0082329D01*
X0261210Y0082379D01*
X0261257Y0082433D01*
X0261300Y0082488D01*
X0261340Y0082546D01*
X0261377Y0082606D01*
X0261410Y0082668D01*
X0261440Y0082732D01*
X0261467Y0082797D01*
X0261490Y0082863D01*
X0261509Y0082931D01*
X0261524Y0083000D01*
X0261536Y0083069D01*
X0261544Y0083139D01*
X0261548Y0083210D01*
X0261548Y0083280D01*
X0261544Y0083351D01*
X0261536Y0083421D01*
X0261524Y0083490D01*
X0261509Y0083559D01*
X0261490Y0083627D01*
X0261467Y0083693D01*
X0261440Y0083758D01*
X0261410Y0083822D01*
X0261377Y0083884D01*
X0261340Y0083944D01*
X0261300Y0084002D01*
X0261257Y0084057D01*
X0261210Y0084111D01*
X0261161Y0084161D01*
X0261109Y0084209D01*
X0261055Y0084254D01*
X0260998Y0084295D01*
X0260939Y0084334D01*
X0260878Y0084369D01*
X0260815Y0084401D01*
X0260751Y0084429D01*
X0260685Y0084454D01*
X0260618Y0084475D01*
X0260549Y0084492D01*
X0260480Y0084506D01*
X0260411Y0084515D01*
X0260340Y0084521D01*
X0260270Y0084523D01*
X0258864Y0087107D02*
X0259631Y0088512D01*
X0261547Y0088001D02*
X0261545Y0087911D01*
X0261540Y0087822D01*
X0261530Y0087733D01*
X0261517Y0087644D01*
X0261501Y0087556D01*
X0261480Y0087468D01*
X0261456Y0087382D01*
X0261429Y0087296D01*
X0261398Y0087212D01*
X0261363Y0087129D01*
X0261325Y0087048D01*
X0261284Y0086968D01*
X0261240Y0086891D01*
X0261192Y0086815D01*
X0261141Y0086741D01*
X0261087Y0086669D01*
X0261030Y0086600D01*
X0260971Y0086532D01*
X0260908Y0086468D01*
X0259631Y0088512D02*
X0259665Y0088566D01*
X0259702Y0088617D01*
X0259742Y0088666D01*
X0259785Y0088713D01*
X0259831Y0088756D01*
X0259879Y0088797D01*
X0259930Y0088835D01*
X0259983Y0088870D01*
X0260038Y0088902D01*
X0260095Y0088930D01*
X0260153Y0088954D01*
X0260213Y0088975D01*
X0260274Y0088992D01*
X0260336Y0089006D01*
X0260399Y0089015D01*
X0260462Y0089021D01*
X0260525Y0089023D01*
X0260587Y0089021D01*
X0260648Y0089016D01*
X0260709Y0089006D01*
X0260770Y0088993D01*
X0260829Y0088977D01*
X0260887Y0088957D01*
X0260944Y0088933D01*
X0261000Y0088906D01*
X0261054Y0088876D01*
X0261106Y0088842D01*
X0261155Y0088806D01*
X0261203Y0088766D01*
X0261248Y0088724D01*
X0261290Y0088679D01*
X0261330Y0088631D01*
X0261366Y0088582D01*
X0261400Y0088530D01*
X0261430Y0088476D01*
X0261457Y0088420D01*
X0261481Y0088363D01*
X0261501Y0088305D01*
X0261517Y0088246D01*
X0261530Y0088185D01*
X0261540Y0088124D01*
X0261545Y0088063D01*
X0261547Y0088001D01*
X0257330Y0088768D02*
X0257282Y0088701D01*
X0257237Y0088633D01*
X0257195Y0088562D01*
X0257157Y0088489D01*
X0257121Y0088415D01*
X0257088Y0088340D01*
X0257059Y0088263D01*
X0257033Y0088185D01*
X0257010Y0088106D01*
X0256991Y0088026D01*
X0256975Y0087945D01*
X0256963Y0087864D01*
X0256954Y0087782D01*
X0256949Y0087700D01*
X0256947Y0087618D01*
X0256948Y0087618D02*
X0256950Y0087556D01*
X0256955Y0087495D01*
X0256965Y0087434D01*
X0256978Y0087373D01*
X0256994Y0087314D01*
X0257014Y0087256D01*
X0257038Y0087199D01*
X0257065Y0087143D01*
X0257095Y0087089D01*
X0257129Y0087037D01*
X0257165Y0086988D01*
X0257205Y0086940D01*
X0257247Y0086895D01*
X0257292Y0086853D01*
X0257340Y0086813D01*
X0257389Y0086777D01*
X0257441Y0086743D01*
X0257495Y0086713D01*
X0257551Y0086686D01*
X0257608Y0086662D01*
X0257666Y0086642D01*
X0257725Y0086626D01*
X0257786Y0086613D01*
X0257847Y0086603D01*
X0257908Y0086598D01*
X0257970Y0086596D01*
X0258033Y0086598D01*
X0258096Y0086604D01*
X0258159Y0086613D01*
X0258221Y0086627D01*
X0258282Y0086644D01*
X0258342Y0086665D01*
X0258400Y0086689D01*
X0258457Y0086717D01*
X0258512Y0086749D01*
X0258565Y0086784D01*
X0258616Y0086822D01*
X0258664Y0086863D01*
X0258710Y0086906D01*
X0258753Y0086953D01*
X0258793Y0087002D01*
X0258830Y0087053D01*
X0258864Y0087107D01*
X0258992Y0091034D02*
X0258992Y0092312D01*
X0258990Y0092375D01*
X0258984Y0092438D01*
X0258975Y0092500D01*
X0258961Y0092561D01*
X0258944Y0092622D01*
X0258923Y0092681D01*
X0258898Y0092739D01*
X0258870Y0092796D01*
X0258839Y0092850D01*
X0258804Y0092902D01*
X0258766Y0092953D01*
X0258725Y0093001D01*
X0258681Y0093046D01*
X0258635Y0093088D01*
X0258586Y0093128D01*
X0258535Y0093164D01*
X0258481Y0093197D01*
X0258426Y0093227D01*
X0258368Y0093253D01*
X0258310Y0093276D01*
X0258250Y0093295D01*
X0258189Y0093310D01*
X0258127Y0093322D01*
X0258064Y0093330D01*
X0258001Y0093334D01*
X0257939Y0093334D01*
X0257876Y0093330D01*
X0257813Y0093322D01*
X0257751Y0093310D01*
X0257690Y0093295D01*
X0257630Y0093276D01*
X0257572Y0093253D01*
X0257514Y0093227D01*
X0257459Y0093197D01*
X0257405Y0093164D01*
X0257354Y0093128D01*
X0257305Y0093088D01*
X0257259Y0093046D01*
X0257215Y0093001D01*
X0257174Y0092953D01*
X0257136Y0092902D01*
X0257101Y0092850D01*
X0257070Y0092796D01*
X0257042Y0092739D01*
X0257017Y0092681D01*
X0256996Y0092622D01*
X0256979Y0092561D01*
X0256965Y0092500D01*
X0256956Y0092438D01*
X0256950Y0092375D01*
X0256948Y0092312D01*
X0256947Y0092312D02*
X0256947Y0091034D01*
X0261547Y0091034D01*
X0261547Y0092312D01*
X0261548Y0092312D02*
X0261546Y0092382D01*
X0261540Y0092453D01*
X0261531Y0092522D01*
X0261517Y0092591D01*
X0261500Y0092660D01*
X0261479Y0092727D01*
X0261454Y0092793D01*
X0261426Y0092857D01*
X0261394Y0092920D01*
X0261359Y0092981D01*
X0261320Y0093040D01*
X0261279Y0093097D01*
X0261234Y0093151D01*
X0261186Y0093203D01*
X0261136Y0093252D01*
X0261082Y0093299D01*
X0261027Y0093342D01*
X0260969Y0093382D01*
X0260909Y0093419D01*
X0260847Y0093452D01*
X0260783Y0093482D01*
X0260718Y0093509D01*
X0260652Y0093532D01*
X0260584Y0093551D01*
X0260515Y0093566D01*
X0260446Y0093578D01*
X0260376Y0093586D01*
X0260305Y0093590D01*
X0260235Y0093590D01*
X0260164Y0093586D01*
X0260094Y0093578D01*
X0260025Y0093566D01*
X0259956Y0093551D01*
X0259888Y0093532D01*
X0259822Y0093509D01*
X0259757Y0093482D01*
X0259693Y0093452D01*
X0259631Y0093419D01*
X0259571Y0093382D01*
X0259513Y0093342D01*
X0259458Y0093299D01*
X0259404Y0093252D01*
X0259354Y0093203D01*
X0259306Y0093151D01*
X0259261Y0093097D01*
X0259220Y0093040D01*
X0259181Y0092981D01*
X0259146Y0092920D01*
X0259114Y0092857D01*
X0259086Y0092793D01*
X0259061Y0092727D01*
X0259040Y0092660D01*
X0259023Y0092591D01*
X0259009Y0092522D01*
X0259000Y0092453D01*
X0258994Y0092382D01*
X0258992Y0092312D01*
X0249723Y0098303D02*
X0247551Y0095747D01*
X0247552Y0099325D02*
X0247577Y0099395D01*
X0247605Y0099464D01*
X0247636Y0099531D01*
X0247671Y0099597D01*
X0247709Y0099660D01*
X0247751Y0099722D01*
X0247795Y0099782D01*
X0247842Y0099839D01*
X0247892Y0099894D01*
X0247945Y0099946D01*
X0248001Y0099996D01*
X0248059Y0100042D01*
X0248119Y0100086D01*
X0248181Y0100127D01*
X0248245Y0100164D01*
X0248311Y0100198D01*
X0248379Y0100229D01*
X0248448Y0100256D01*
X0248518Y0100280D01*
X0248589Y0100301D01*
X0248662Y0100317D01*
X0248735Y0100330D01*
X0248809Y0100340D01*
X0248883Y0100345D01*
X0248957Y0100347D01*
X0249024Y0100345D01*
X0249091Y0100339D01*
X0249157Y0100330D01*
X0249222Y0100316D01*
X0249287Y0100299D01*
X0249350Y0100278D01*
X0249412Y0100253D01*
X0249473Y0100225D01*
X0249532Y0100193D01*
X0249589Y0100158D01*
X0249644Y0100119D01*
X0249696Y0100078D01*
X0249746Y0100033D01*
X0249793Y0099986D01*
X0249838Y0099936D01*
X0249879Y0099884D01*
X0249918Y0099829D01*
X0249953Y0099772D01*
X0249985Y0099713D01*
X0250013Y0099652D01*
X0250038Y0099590D01*
X0250059Y0099527D01*
X0250076Y0099462D01*
X0250090Y0099397D01*
X0250099Y0099331D01*
X0250105Y0099264D01*
X0250107Y0099197D01*
X0250105Y0099130D01*
X0250100Y0099064D01*
X0250091Y0098998D01*
X0250078Y0098932D01*
X0250062Y0098868D01*
X0250043Y0098804D01*
X0250020Y0098741D01*
X0249994Y0098680D01*
X0249964Y0098620D01*
X0249931Y0098562D01*
X0249896Y0098506D01*
X0249857Y0098452D01*
X0249815Y0098400D01*
X0249771Y0098350D01*
X0249724Y0098303D01*
X0259247Y0116700D02*
X0260781Y0116700D01*
X0260836Y0116702D01*
X0260890Y0116708D01*
X0260944Y0116718D01*
X0260997Y0116731D01*
X0261049Y0116748D01*
X0261100Y0116769D01*
X0261149Y0116794D01*
X0261196Y0116822D01*
X0261241Y0116853D01*
X0261283Y0116887D01*
X0261323Y0116925D01*
X0261361Y0116965D01*
X0261395Y0117007D01*
X0261426Y0117052D01*
X0261454Y0117099D01*
X0261479Y0117148D01*
X0261500Y0117199D01*
X0261517Y0117251D01*
X0261530Y0117304D01*
X0261540Y0117358D01*
X0261546Y0117412D01*
X0261548Y0117467D01*
X0261547Y0117467D02*
X0261547Y0118744D01*
X0262314Y0118744D02*
X0258481Y0118744D01*
X0258481Y0117467D01*
X0258480Y0117467D02*
X0258482Y0117412D01*
X0258488Y0117358D01*
X0258498Y0117304D01*
X0258511Y0117251D01*
X0258528Y0117199D01*
X0258549Y0117148D01*
X0258574Y0117099D01*
X0258602Y0117052D01*
X0258633Y0117007D01*
X0258667Y0116965D01*
X0258705Y0116925D01*
X0258745Y0116887D01*
X0258787Y0116853D01*
X0258832Y0116822D01*
X0258879Y0116794D01*
X0258928Y0116769D01*
X0258979Y0116748D01*
X0259031Y0116731D01*
X0259084Y0116718D01*
X0259138Y0116708D01*
X0259192Y0116702D01*
X0259247Y0116700D01*
X0262314Y0118745D02*
X0262369Y0118743D01*
X0262423Y0118737D01*
X0262477Y0118727D01*
X0262530Y0118714D01*
X0262582Y0118697D01*
X0262633Y0118676D01*
X0262682Y0118651D01*
X0262729Y0118623D01*
X0262774Y0118592D01*
X0262816Y0118558D01*
X0262856Y0118520D01*
X0262894Y0118480D01*
X0262928Y0118438D01*
X0262959Y0118393D01*
X0262987Y0118346D01*
X0263012Y0118297D01*
X0263033Y0118246D01*
X0263050Y0118194D01*
X0263063Y0118141D01*
X0263073Y0118087D01*
X0263079Y0118033D01*
X0263081Y0117978D01*
X0263081Y0116956D01*
X0264447Y0117981D02*
X0264447Y0120536D01*
X0266492Y0119514D02*
X0266492Y0117981D01*
X0264447Y0117981D01*
X0266492Y0119514D02*
X0266494Y0119576D01*
X0266499Y0119637D01*
X0266509Y0119698D01*
X0266522Y0119759D01*
X0266538Y0119818D01*
X0266558Y0119876D01*
X0266582Y0119933D01*
X0266609Y0119989D01*
X0266639Y0120043D01*
X0266673Y0120095D01*
X0266709Y0120144D01*
X0266749Y0120192D01*
X0266791Y0120237D01*
X0266836Y0120279D01*
X0266884Y0120319D01*
X0266933Y0120355D01*
X0266985Y0120389D01*
X0267039Y0120419D01*
X0267095Y0120446D01*
X0267152Y0120470D01*
X0267210Y0120490D01*
X0267269Y0120506D01*
X0267330Y0120519D01*
X0267391Y0120529D01*
X0267452Y0120534D01*
X0267514Y0120536D01*
X0268025Y0120536D01*
X0268087Y0120534D01*
X0268148Y0120529D01*
X0268209Y0120519D01*
X0268270Y0120506D01*
X0268329Y0120490D01*
X0268387Y0120470D01*
X0268444Y0120446D01*
X0268500Y0120419D01*
X0268554Y0120389D01*
X0268606Y0120355D01*
X0268655Y0120319D01*
X0268703Y0120279D01*
X0268748Y0120237D01*
X0268790Y0120192D01*
X0268830Y0120144D01*
X0268866Y0120095D01*
X0268900Y0120043D01*
X0268930Y0119989D01*
X0268957Y0119933D01*
X0268981Y0119876D01*
X0269001Y0119818D01*
X0269017Y0119759D01*
X0269030Y0119698D01*
X0269040Y0119637D01*
X0269045Y0119576D01*
X0269047Y0119514D01*
X0269047Y0117981D01*
X0267258Y0122525D02*
X0267258Y0125592D01*
X0269047Y0127581D02*
X0269047Y0130136D01*
X0268025Y0132081D02*
X0264447Y0133103D01*
X0267003Y0133870D02*
X0269047Y0133870D01*
X0268025Y0134636D02*
X0268025Y0132081D01*
X0266492Y0129753D02*
X0269047Y0127581D01*
X0265470Y0127581D02*
X0265400Y0127606D01*
X0265331Y0127634D01*
X0265264Y0127665D01*
X0265198Y0127700D01*
X0265135Y0127738D01*
X0265073Y0127780D01*
X0265013Y0127824D01*
X0264956Y0127871D01*
X0264901Y0127921D01*
X0264849Y0127974D01*
X0264799Y0128030D01*
X0264753Y0128087D01*
X0264709Y0128148D01*
X0264668Y0128210D01*
X0264631Y0128274D01*
X0264597Y0128340D01*
X0264566Y0128408D01*
X0264539Y0128477D01*
X0264515Y0128547D01*
X0264494Y0128618D01*
X0264478Y0128691D01*
X0264465Y0128764D01*
X0264455Y0128838D01*
X0264450Y0128912D01*
X0264448Y0128986D01*
X0264447Y0128986D02*
X0264449Y0129053D01*
X0264455Y0129120D01*
X0264464Y0129186D01*
X0264478Y0129251D01*
X0264495Y0129316D01*
X0264516Y0129379D01*
X0264541Y0129441D01*
X0264569Y0129502D01*
X0264601Y0129561D01*
X0264636Y0129618D01*
X0264675Y0129673D01*
X0264716Y0129725D01*
X0264761Y0129775D01*
X0264808Y0129822D01*
X0264858Y0129867D01*
X0264910Y0129908D01*
X0264965Y0129947D01*
X0265022Y0129982D01*
X0265081Y0130014D01*
X0265142Y0130042D01*
X0265204Y0130067D01*
X0265267Y0130088D01*
X0265332Y0130105D01*
X0265397Y0130119D01*
X0265463Y0130128D01*
X0265530Y0130134D01*
X0265597Y0130136D01*
X0265664Y0130134D01*
X0265730Y0130129D01*
X0265796Y0130120D01*
X0265862Y0130107D01*
X0265926Y0130091D01*
X0265990Y0130072D01*
X0266053Y0130049D01*
X0266114Y0130023D01*
X0266174Y0129993D01*
X0266232Y0129960D01*
X0266288Y0129925D01*
X0266342Y0129886D01*
X0266394Y0129844D01*
X0266444Y0129800D01*
X0266491Y0129753D01*
X0264447Y0136325D02*
X0269047Y0137858D01*
X0264447Y0139392D01*
D12*
X0265397Y0138166D02*
X0265399Y0138224D01*
X0265404Y0138282D01*
X0265413Y0138339D01*
X0265426Y0138396D01*
X0265442Y0138452D01*
X0265462Y0138507D01*
X0265485Y0138560D01*
X0265511Y0138612D01*
X0265541Y0138662D01*
X0265574Y0138710D01*
X0265609Y0138756D01*
X0265648Y0138799D01*
X0265689Y0138840D01*
X0265732Y0138879D01*
X0265778Y0138914D01*
X0265826Y0138947D01*
X0265876Y0138977D01*
X0265928Y0139003D01*
X0265981Y0139026D01*
X0266036Y0139046D01*
X0266092Y0139062D01*
X0266149Y0139075D01*
X0266206Y0139084D01*
X0266264Y0139089D01*
X0266322Y0139091D01*
X0267042Y0138783D02*
X0269097Y0137036D01*
X0269097Y0139091D01*
X0268583Y0142383D02*
X0268487Y0142428D01*
X0268389Y0142469D01*
X0268289Y0142507D01*
X0268189Y0142542D01*
X0268087Y0142573D01*
X0267984Y0142601D01*
X0267881Y0142624D01*
X0267776Y0142645D01*
X0267671Y0142661D01*
X0267566Y0142674D01*
X0267460Y0142684D01*
X0267353Y0142689D01*
X0267247Y0142691D01*
X0267247Y0140636D02*
X0267141Y0140638D01*
X0267034Y0140643D01*
X0266928Y0140653D01*
X0266823Y0140666D01*
X0266718Y0140682D01*
X0266613Y0140703D01*
X0266510Y0140726D01*
X0266407Y0140754D01*
X0266305Y0140785D01*
X0266205Y0140820D01*
X0266105Y0140858D01*
X0266007Y0140899D01*
X0265911Y0140944D01*
X0265397Y0141664D02*
X0265399Y0141716D01*
X0265404Y0141769D01*
X0265413Y0141820D01*
X0265426Y0141871D01*
X0265442Y0141921D01*
X0265461Y0141970D01*
X0265484Y0142017D01*
X0265510Y0142063D01*
X0265539Y0142106D01*
X0265571Y0142148D01*
X0265605Y0142187D01*
X0265643Y0142224D01*
X0265683Y0142258D01*
X0265725Y0142290D01*
X0265769Y0142318D01*
X0265815Y0142343D01*
X0265862Y0142365D01*
X0265911Y0142384D01*
X0266220Y0142486D02*
X0268275Y0140841D01*
X0269098Y0141664D02*
X0269096Y0141716D01*
X0269091Y0141769D01*
X0269082Y0141820D01*
X0269069Y0141871D01*
X0269053Y0141921D01*
X0269034Y0141970D01*
X0269011Y0142017D01*
X0268985Y0142063D01*
X0268956Y0142106D01*
X0268924Y0142148D01*
X0268890Y0142187D01*
X0268852Y0142224D01*
X0268812Y0142258D01*
X0268770Y0142290D01*
X0268726Y0142318D01*
X0268680Y0142343D01*
X0268633Y0142365D01*
X0268584Y0142384D01*
X0269098Y0141664D02*
X0269096Y0141612D01*
X0269091Y0141559D01*
X0269082Y0141508D01*
X0269069Y0141457D01*
X0269053Y0141407D01*
X0269034Y0141358D01*
X0269011Y0141311D01*
X0268985Y0141265D01*
X0268956Y0141222D01*
X0268924Y0141180D01*
X0268890Y0141141D01*
X0268852Y0141104D01*
X0268812Y0141070D01*
X0268770Y0141038D01*
X0268726Y0141010D01*
X0268680Y0140985D01*
X0268633Y0140963D01*
X0268584Y0140944D01*
X0267247Y0142691D02*
X0267141Y0142689D01*
X0267034Y0142684D01*
X0266928Y0142674D01*
X0266823Y0142661D01*
X0266718Y0142645D01*
X0266613Y0142624D01*
X0266510Y0142601D01*
X0266407Y0142573D01*
X0266305Y0142542D01*
X0266205Y0142507D01*
X0266105Y0142469D01*
X0266007Y0142428D01*
X0265911Y0142383D01*
X0265397Y0141664D02*
X0265399Y0141612D01*
X0265404Y0141559D01*
X0265413Y0141508D01*
X0265426Y0141457D01*
X0265442Y0141407D01*
X0265461Y0141358D01*
X0265484Y0141311D01*
X0265510Y0141265D01*
X0265539Y0141222D01*
X0265571Y0141180D01*
X0265605Y0141141D01*
X0265643Y0141104D01*
X0265683Y0141070D01*
X0265725Y0141038D01*
X0265769Y0141010D01*
X0265815Y0140985D01*
X0265862Y0140963D01*
X0265911Y0140944D01*
X0267247Y0140636D02*
X0267353Y0140638D01*
X0267460Y0140643D01*
X0267566Y0140653D01*
X0267671Y0140666D01*
X0267776Y0140682D01*
X0267881Y0140703D01*
X0267984Y0140726D01*
X0268087Y0140754D01*
X0268189Y0140785D01*
X0268289Y0140820D01*
X0268389Y0140858D01*
X0268487Y0140899D01*
X0268583Y0140944D01*
X0269097Y0144236D02*
X0269097Y0146291D01*
X0269097Y0147836D02*
X0269097Y0148864D01*
X0269098Y0148864D02*
X0269096Y0148927D01*
X0269090Y0148990D01*
X0269080Y0149053D01*
X0269067Y0149115D01*
X0269050Y0149176D01*
X0269029Y0149235D01*
X0269004Y0149294D01*
X0268976Y0149350D01*
X0268944Y0149405D01*
X0268909Y0149458D01*
X0268871Y0149508D01*
X0268830Y0149557D01*
X0268786Y0149602D01*
X0268739Y0149645D01*
X0268690Y0149684D01*
X0268638Y0149721D01*
X0268584Y0149754D01*
X0268528Y0149784D01*
X0268471Y0149811D01*
X0268412Y0149834D01*
X0268351Y0149853D01*
X0268290Y0149868D01*
X0268228Y0149880D01*
X0268165Y0149888D01*
X0268102Y0149892D01*
X0268038Y0149892D01*
X0267975Y0149888D01*
X0267912Y0149880D01*
X0267850Y0149868D01*
X0267789Y0149853D01*
X0267728Y0149834D01*
X0267669Y0149811D01*
X0267612Y0149784D01*
X0267556Y0149754D01*
X0267502Y0149721D01*
X0267450Y0149684D01*
X0267401Y0149645D01*
X0267354Y0149602D01*
X0267310Y0149557D01*
X0267269Y0149508D01*
X0267231Y0149458D01*
X0267196Y0149405D01*
X0267164Y0149350D01*
X0267136Y0149294D01*
X0267111Y0149235D01*
X0267090Y0149176D01*
X0267073Y0149115D01*
X0267060Y0149053D01*
X0267050Y0148990D01*
X0267044Y0148927D01*
X0267042Y0148864D01*
X0267042Y0149069D02*
X0267042Y0148247D01*
X0267042Y0149069D02*
X0267040Y0149125D01*
X0267034Y0149181D01*
X0267025Y0149236D01*
X0267012Y0149291D01*
X0266995Y0149344D01*
X0266974Y0149396D01*
X0266950Y0149447D01*
X0266922Y0149496D01*
X0266892Y0149543D01*
X0266858Y0149588D01*
X0266821Y0149630D01*
X0266781Y0149670D01*
X0266739Y0149707D01*
X0266694Y0149741D01*
X0266647Y0149771D01*
X0266598Y0149799D01*
X0266547Y0149823D01*
X0266495Y0149844D01*
X0266442Y0149861D01*
X0266387Y0149874D01*
X0266332Y0149883D01*
X0266276Y0149889D01*
X0266220Y0149891D01*
X0266164Y0149889D01*
X0266108Y0149883D01*
X0266053Y0149874D01*
X0265998Y0149861D01*
X0265945Y0149844D01*
X0265893Y0149823D01*
X0265842Y0149799D01*
X0265793Y0149771D01*
X0265746Y0149741D01*
X0265701Y0149707D01*
X0265659Y0149670D01*
X0265619Y0149630D01*
X0265582Y0149588D01*
X0265548Y0149543D01*
X0265518Y0149496D01*
X0265490Y0149447D01*
X0265466Y0149396D01*
X0265445Y0149344D01*
X0265428Y0149291D01*
X0265415Y0149236D01*
X0265406Y0149181D01*
X0265400Y0149125D01*
X0265398Y0149069D01*
X0265397Y0149069D02*
X0265397Y0147836D01*
X0267042Y0145983D02*
X0269097Y0144236D01*
X0266220Y0144236D02*
X0266156Y0144259D01*
X0266093Y0144285D01*
X0266032Y0144315D01*
X0265973Y0144348D01*
X0265916Y0144385D01*
X0265861Y0144425D01*
X0265809Y0144468D01*
X0265759Y0144514D01*
X0265711Y0144562D01*
X0265667Y0144613D01*
X0265625Y0144667D01*
X0265587Y0144723D01*
X0265552Y0144781D01*
X0265520Y0144841D01*
X0265492Y0144903D01*
X0265467Y0144966D01*
X0265446Y0145031D01*
X0265429Y0145097D01*
X0265415Y0145163D01*
X0265406Y0145230D01*
X0265400Y0145298D01*
X0265398Y0145366D01*
X0265397Y0145366D02*
X0265399Y0145424D01*
X0265404Y0145482D01*
X0265413Y0145539D01*
X0265426Y0145596D01*
X0265442Y0145652D01*
X0265462Y0145707D01*
X0265485Y0145760D01*
X0265511Y0145812D01*
X0265541Y0145862D01*
X0265574Y0145910D01*
X0265609Y0145956D01*
X0265648Y0145999D01*
X0265689Y0146040D01*
X0265732Y0146079D01*
X0265778Y0146114D01*
X0265826Y0146147D01*
X0265876Y0146177D01*
X0265928Y0146203D01*
X0265981Y0146226D01*
X0266036Y0146246D01*
X0266092Y0146262D01*
X0266149Y0146275D01*
X0266206Y0146284D01*
X0266264Y0146289D01*
X0266322Y0146291D01*
X0266322Y0146292D02*
X0266384Y0146290D01*
X0266446Y0146284D01*
X0266507Y0146275D01*
X0266567Y0146261D01*
X0266627Y0146244D01*
X0266685Y0146223D01*
X0266742Y0146199D01*
X0266797Y0146171D01*
X0266851Y0146140D01*
X0266902Y0146105D01*
X0266951Y0146068D01*
X0266998Y0146027D01*
X0267042Y0145984D01*
X0267658Y0151470D02*
X0267658Y0153937D01*
X0268583Y0157263D02*
X0268487Y0157308D01*
X0268389Y0157349D01*
X0268289Y0157387D01*
X0268189Y0157422D01*
X0268087Y0157453D01*
X0267984Y0157481D01*
X0267881Y0157504D01*
X0267776Y0157525D01*
X0267671Y0157541D01*
X0267566Y0157554D01*
X0267460Y0157564D01*
X0267353Y0157569D01*
X0267247Y0157571D01*
X0267247Y0155516D02*
X0267141Y0155518D01*
X0267034Y0155523D01*
X0266928Y0155533D01*
X0266823Y0155546D01*
X0266718Y0155562D01*
X0266613Y0155583D01*
X0266510Y0155606D01*
X0266407Y0155634D01*
X0266305Y0155665D01*
X0266205Y0155700D01*
X0266105Y0155738D01*
X0266007Y0155779D01*
X0265911Y0155824D01*
X0265397Y0156544D02*
X0265399Y0156596D01*
X0265404Y0156649D01*
X0265413Y0156700D01*
X0265426Y0156751D01*
X0265442Y0156801D01*
X0265461Y0156850D01*
X0265484Y0156897D01*
X0265510Y0156943D01*
X0265539Y0156986D01*
X0265571Y0157028D01*
X0265605Y0157067D01*
X0265643Y0157104D01*
X0265683Y0157138D01*
X0265725Y0157170D01*
X0265769Y0157198D01*
X0265815Y0157223D01*
X0265862Y0157245D01*
X0265911Y0157264D01*
X0266220Y0157366D02*
X0268275Y0155721D01*
X0269098Y0156544D02*
X0269096Y0156596D01*
X0269091Y0156649D01*
X0269082Y0156700D01*
X0269069Y0156751D01*
X0269053Y0156801D01*
X0269034Y0156850D01*
X0269011Y0156897D01*
X0268985Y0156943D01*
X0268956Y0156986D01*
X0268924Y0157028D01*
X0268890Y0157067D01*
X0268852Y0157104D01*
X0268812Y0157138D01*
X0268770Y0157170D01*
X0268726Y0157198D01*
X0268680Y0157223D01*
X0268633Y0157245D01*
X0268584Y0157264D01*
X0269098Y0156544D02*
X0269096Y0156492D01*
X0269091Y0156439D01*
X0269082Y0156388D01*
X0269069Y0156337D01*
X0269053Y0156287D01*
X0269034Y0156238D01*
X0269011Y0156191D01*
X0268985Y0156145D01*
X0268956Y0156102D01*
X0268924Y0156060D01*
X0268890Y0156021D01*
X0268852Y0155984D01*
X0268812Y0155950D01*
X0268770Y0155918D01*
X0268726Y0155890D01*
X0268680Y0155865D01*
X0268633Y0155843D01*
X0268584Y0155824D01*
X0267247Y0157571D02*
X0267141Y0157569D01*
X0267034Y0157564D01*
X0266928Y0157554D01*
X0266823Y0157541D01*
X0266718Y0157525D01*
X0266613Y0157504D01*
X0266510Y0157481D01*
X0266407Y0157453D01*
X0266305Y0157422D01*
X0266205Y0157387D01*
X0266105Y0157349D01*
X0266007Y0157308D01*
X0265911Y0157263D01*
X0265397Y0156544D02*
X0265399Y0156492D01*
X0265404Y0156439D01*
X0265413Y0156388D01*
X0265426Y0156337D01*
X0265442Y0156287D01*
X0265461Y0156238D01*
X0265484Y0156191D01*
X0265510Y0156145D01*
X0265539Y0156102D01*
X0265571Y0156060D01*
X0265605Y0156021D01*
X0265643Y0155984D01*
X0265683Y0155950D01*
X0265725Y0155918D01*
X0265769Y0155890D01*
X0265815Y0155865D01*
X0265862Y0155843D01*
X0265911Y0155824D01*
X0267247Y0155516D02*
X0267353Y0155518D01*
X0267460Y0155523D01*
X0267566Y0155533D01*
X0267671Y0155546D01*
X0267776Y0155562D01*
X0267881Y0155583D01*
X0267984Y0155606D01*
X0268087Y0155634D01*
X0268189Y0155665D01*
X0268289Y0155700D01*
X0268389Y0155738D01*
X0268487Y0155779D01*
X0268583Y0155824D01*
X0268070Y0159116D02*
X0268133Y0159118D01*
X0268196Y0159124D01*
X0268259Y0159134D01*
X0268321Y0159147D01*
X0268382Y0159164D01*
X0268441Y0159185D01*
X0268500Y0159210D01*
X0268556Y0159238D01*
X0268611Y0159270D01*
X0268664Y0159305D01*
X0268714Y0159343D01*
X0268763Y0159384D01*
X0268808Y0159428D01*
X0268851Y0159475D01*
X0268890Y0159524D01*
X0268927Y0159576D01*
X0268960Y0159630D01*
X0268990Y0159686D01*
X0269017Y0159743D01*
X0269040Y0159802D01*
X0269059Y0159863D01*
X0269074Y0159924D01*
X0269086Y0159986D01*
X0269094Y0160049D01*
X0269098Y0160112D01*
X0269098Y0160176D01*
X0269094Y0160239D01*
X0269086Y0160302D01*
X0269074Y0160364D01*
X0269059Y0160425D01*
X0269040Y0160486D01*
X0269017Y0160545D01*
X0268990Y0160602D01*
X0268960Y0160658D01*
X0268927Y0160712D01*
X0268890Y0160764D01*
X0268851Y0160813D01*
X0268808Y0160860D01*
X0268763Y0160904D01*
X0268714Y0160945D01*
X0268664Y0160983D01*
X0268611Y0161018D01*
X0268556Y0161050D01*
X0268500Y0161078D01*
X0268441Y0161103D01*
X0268382Y0161124D01*
X0268321Y0161141D01*
X0268259Y0161154D01*
X0268196Y0161164D01*
X0268133Y0161170D01*
X0268070Y0161172D01*
X0268007Y0161170D01*
X0267944Y0161164D01*
X0267881Y0161154D01*
X0267819Y0161141D01*
X0267758Y0161124D01*
X0267699Y0161103D01*
X0267640Y0161078D01*
X0267584Y0161050D01*
X0267529Y0161018D01*
X0267476Y0160983D01*
X0267426Y0160945D01*
X0267377Y0160904D01*
X0267332Y0160860D01*
X0267289Y0160813D01*
X0267250Y0160764D01*
X0267213Y0160712D01*
X0267180Y0160658D01*
X0267150Y0160602D01*
X0267123Y0160545D01*
X0267100Y0160486D01*
X0267081Y0160425D01*
X0267066Y0160364D01*
X0267054Y0160302D01*
X0267046Y0160239D01*
X0267042Y0160176D01*
X0267042Y0160112D01*
X0267046Y0160049D01*
X0267054Y0159986D01*
X0267066Y0159924D01*
X0267081Y0159863D01*
X0267100Y0159802D01*
X0267123Y0159743D01*
X0267150Y0159686D01*
X0267180Y0159630D01*
X0267213Y0159576D01*
X0267250Y0159524D01*
X0267289Y0159475D01*
X0267332Y0159428D01*
X0267377Y0159384D01*
X0267426Y0159343D01*
X0267476Y0159305D01*
X0267529Y0159270D01*
X0267584Y0159238D01*
X0267640Y0159210D01*
X0267699Y0159185D01*
X0267758Y0159164D01*
X0267819Y0159147D01*
X0267881Y0159134D01*
X0267944Y0159124D01*
X0268007Y0159118D01*
X0268070Y0159116D01*
X0266220Y0159322D02*
X0266276Y0159324D01*
X0266332Y0159330D01*
X0266387Y0159339D01*
X0266442Y0159352D01*
X0266495Y0159369D01*
X0266547Y0159390D01*
X0266598Y0159414D01*
X0266647Y0159442D01*
X0266694Y0159472D01*
X0266739Y0159506D01*
X0266781Y0159543D01*
X0266821Y0159583D01*
X0266858Y0159625D01*
X0266892Y0159670D01*
X0266922Y0159717D01*
X0266950Y0159766D01*
X0266974Y0159817D01*
X0266995Y0159869D01*
X0267012Y0159922D01*
X0267025Y0159977D01*
X0267034Y0160032D01*
X0267040Y0160088D01*
X0267042Y0160144D01*
X0267040Y0160200D01*
X0267034Y0160256D01*
X0267025Y0160311D01*
X0267012Y0160366D01*
X0266995Y0160419D01*
X0266974Y0160471D01*
X0266950Y0160522D01*
X0266922Y0160571D01*
X0266892Y0160618D01*
X0266858Y0160663D01*
X0266821Y0160705D01*
X0266781Y0160745D01*
X0266739Y0160782D01*
X0266694Y0160816D01*
X0266647Y0160846D01*
X0266598Y0160874D01*
X0266547Y0160898D01*
X0266495Y0160919D01*
X0266442Y0160936D01*
X0266387Y0160949D01*
X0266332Y0160958D01*
X0266276Y0160964D01*
X0266220Y0160966D01*
X0266164Y0160964D01*
X0266108Y0160958D01*
X0266053Y0160949D01*
X0265998Y0160936D01*
X0265945Y0160919D01*
X0265893Y0160898D01*
X0265842Y0160874D01*
X0265793Y0160846D01*
X0265746Y0160816D01*
X0265701Y0160782D01*
X0265659Y0160745D01*
X0265619Y0160705D01*
X0265582Y0160663D01*
X0265548Y0160618D01*
X0265518Y0160571D01*
X0265490Y0160522D01*
X0265466Y0160471D01*
X0265445Y0160419D01*
X0265428Y0160366D01*
X0265415Y0160311D01*
X0265406Y0160256D01*
X0265400Y0160200D01*
X0265398Y0160144D01*
X0265400Y0160088D01*
X0265406Y0160032D01*
X0265415Y0159977D01*
X0265428Y0159922D01*
X0265445Y0159869D01*
X0265466Y0159817D01*
X0265490Y0159766D01*
X0265518Y0159717D01*
X0265548Y0159670D01*
X0265582Y0159625D01*
X0265619Y0159583D01*
X0265659Y0159543D01*
X0265701Y0159506D01*
X0265746Y0159472D01*
X0265793Y0159442D01*
X0265842Y0159414D01*
X0265893Y0159390D01*
X0265945Y0159369D01*
X0265998Y0159352D01*
X0266053Y0159339D01*
X0266108Y0159330D01*
X0266164Y0159324D01*
X0266220Y0159322D01*
X0267658Y0162750D02*
X0267658Y0165217D01*
X0268583Y0168543D02*
X0268487Y0168588D01*
X0268389Y0168629D01*
X0268289Y0168667D01*
X0268189Y0168702D01*
X0268087Y0168733D01*
X0267984Y0168761D01*
X0267881Y0168784D01*
X0267776Y0168805D01*
X0267671Y0168821D01*
X0267566Y0168834D01*
X0267460Y0168844D01*
X0267353Y0168849D01*
X0267247Y0168851D01*
X0267247Y0166796D02*
X0267141Y0166798D01*
X0267034Y0166803D01*
X0266928Y0166813D01*
X0266823Y0166826D01*
X0266718Y0166842D01*
X0266613Y0166863D01*
X0266510Y0166886D01*
X0266407Y0166914D01*
X0266305Y0166945D01*
X0266205Y0166980D01*
X0266105Y0167018D01*
X0266007Y0167059D01*
X0265911Y0167104D01*
X0265397Y0167824D02*
X0265399Y0167876D01*
X0265404Y0167929D01*
X0265413Y0167980D01*
X0265426Y0168031D01*
X0265442Y0168081D01*
X0265461Y0168130D01*
X0265484Y0168177D01*
X0265510Y0168223D01*
X0265539Y0168266D01*
X0265571Y0168308D01*
X0265605Y0168347D01*
X0265643Y0168384D01*
X0265683Y0168418D01*
X0265725Y0168450D01*
X0265769Y0168478D01*
X0265815Y0168503D01*
X0265862Y0168525D01*
X0265911Y0168544D01*
X0266220Y0168646D02*
X0268275Y0167001D01*
X0269098Y0167824D02*
X0269096Y0167876D01*
X0269091Y0167929D01*
X0269082Y0167980D01*
X0269069Y0168031D01*
X0269053Y0168081D01*
X0269034Y0168130D01*
X0269011Y0168177D01*
X0268985Y0168223D01*
X0268956Y0168266D01*
X0268924Y0168308D01*
X0268890Y0168347D01*
X0268852Y0168384D01*
X0268812Y0168418D01*
X0268770Y0168450D01*
X0268726Y0168478D01*
X0268680Y0168503D01*
X0268633Y0168525D01*
X0268584Y0168544D01*
X0269098Y0167824D02*
X0269096Y0167772D01*
X0269091Y0167719D01*
X0269082Y0167668D01*
X0269069Y0167617D01*
X0269053Y0167567D01*
X0269034Y0167518D01*
X0269011Y0167471D01*
X0268985Y0167425D01*
X0268956Y0167382D01*
X0268924Y0167340D01*
X0268890Y0167301D01*
X0268852Y0167264D01*
X0268812Y0167230D01*
X0268770Y0167198D01*
X0268726Y0167170D01*
X0268680Y0167145D01*
X0268633Y0167123D01*
X0268584Y0167104D01*
X0267247Y0168851D02*
X0267141Y0168849D01*
X0267034Y0168844D01*
X0266928Y0168834D01*
X0266823Y0168821D01*
X0266718Y0168805D01*
X0266613Y0168784D01*
X0266510Y0168761D01*
X0266407Y0168733D01*
X0266305Y0168702D01*
X0266205Y0168667D01*
X0266105Y0168629D01*
X0266007Y0168588D01*
X0265911Y0168543D01*
X0265397Y0167824D02*
X0265399Y0167772D01*
X0265404Y0167719D01*
X0265413Y0167668D01*
X0265426Y0167617D01*
X0265442Y0167567D01*
X0265461Y0167518D01*
X0265484Y0167471D01*
X0265510Y0167425D01*
X0265539Y0167382D01*
X0265571Y0167340D01*
X0265605Y0167301D01*
X0265643Y0167264D01*
X0265683Y0167230D01*
X0265725Y0167198D01*
X0265769Y0167170D01*
X0265815Y0167145D01*
X0265862Y0167123D01*
X0265911Y0167104D01*
X0267247Y0166796D02*
X0267353Y0166798D01*
X0267460Y0166803D01*
X0267566Y0166813D01*
X0267671Y0166826D01*
X0267776Y0166842D01*
X0267881Y0166863D01*
X0267984Y0166886D01*
X0268087Y0166914D01*
X0268189Y0166945D01*
X0268289Y0166980D01*
X0268389Y0167018D01*
X0268487Y0167059D01*
X0268583Y0167104D01*
X0266631Y0170396D02*
X0266425Y0170396D01*
X0266631Y0170396D02*
X0266687Y0170398D01*
X0266743Y0170404D01*
X0266798Y0170413D01*
X0266853Y0170426D01*
X0266906Y0170443D01*
X0266958Y0170464D01*
X0267009Y0170488D01*
X0267058Y0170516D01*
X0267105Y0170546D01*
X0267150Y0170580D01*
X0267192Y0170617D01*
X0267232Y0170657D01*
X0267269Y0170699D01*
X0267303Y0170744D01*
X0267333Y0170791D01*
X0267361Y0170840D01*
X0267385Y0170891D01*
X0267406Y0170943D01*
X0267423Y0170996D01*
X0267436Y0171051D01*
X0267445Y0171106D01*
X0267451Y0171162D01*
X0267453Y0171218D01*
X0267453Y0172451D01*
X0266425Y0172451D01*
X0266362Y0172449D01*
X0266299Y0172443D01*
X0266236Y0172433D01*
X0266174Y0172420D01*
X0266113Y0172403D01*
X0266054Y0172382D01*
X0265995Y0172357D01*
X0265939Y0172329D01*
X0265884Y0172297D01*
X0265831Y0172262D01*
X0265781Y0172224D01*
X0265732Y0172183D01*
X0265687Y0172139D01*
X0265644Y0172092D01*
X0265605Y0172043D01*
X0265568Y0171991D01*
X0265535Y0171937D01*
X0265505Y0171881D01*
X0265478Y0171824D01*
X0265455Y0171765D01*
X0265436Y0171704D01*
X0265421Y0171643D01*
X0265409Y0171581D01*
X0265401Y0171518D01*
X0265397Y0171455D01*
X0265397Y0171391D01*
X0265401Y0171328D01*
X0265409Y0171265D01*
X0265421Y0171203D01*
X0265436Y0171142D01*
X0265455Y0171081D01*
X0265478Y0171022D01*
X0265505Y0170965D01*
X0265535Y0170909D01*
X0265568Y0170855D01*
X0265605Y0170803D01*
X0265644Y0170754D01*
X0265687Y0170707D01*
X0265732Y0170663D01*
X0265781Y0170622D01*
X0265831Y0170584D01*
X0265884Y0170549D01*
X0265939Y0170517D01*
X0265995Y0170489D01*
X0266054Y0170464D01*
X0266113Y0170443D01*
X0266174Y0170426D01*
X0266236Y0170413D01*
X0266299Y0170403D01*
X0266362Y0170397D01*
X0266425Y0170395D01*
X0267453Y0172451D02*
X0267531Y0172449D01*
X0267609Y0172444D01*
X0267687Y0172434D01*
X0267764Y0172421D01*
X0267841Y0172405D01*
X0267916Y0172384D01*
X0267991Y0172361D01*
X0268064Y0172333D01*
X0268136Y0172302D01*
X0268206Y0172268D01*
X0268275Y0172231D01*
X0268342Y0172190D01*
X0268407Y0172146D01*
X0268469Y0172099D01*
X0268530Y0172049D01*
X0268587Y0171997D01*
X0268643Y0171941D01*
X0268695Y0171884D01*
X0268745Y0171823D01*
X0268792Y0171761D01*
X0268836Y0171696D01*
X0268877Y0171629D01*
X0268914Y0171560D01*
X0268948Y0171490D01*
X0268979Y0171418D01*
X0269007Y0171345D01*
X0269030Y0171270D01*
X0269051Y0171195D01*
X0269067Y0171118D01*
X0269080Y0171041D01*
X0269090Y0170963D01*
X0269095Y0170885D01*
X0269097Y0170807D01*
X0265398Y0138166D02*
X0265400Y0138098D01*
X0265406Y0138030D01*
X0265415Y0137963D01*
X0265429Y0137897D01*
X0265446Y0137831D01*
X0265467Y0137766D01*
X0265492Y0137703D01*
X0265520Y0137641D01*
X0265552Y0137581D01*
X0265587Y0137523D01*
X0265625Y0137467D01*
X0265667Y0137413D01*
X0265711Y0137362D01*
X0265759Y0137314D01*
X0265809Y0137268D01*
X0265861Y0137225D01*
X0265916Y0137185D01*
X0265973Y0137148D01*
X0266032Y0137115D01*
X0266093Y0137085D01*
X0266156Y0137059D01*
X0266220Y0137036D01*
X0267042Y0138784D02*
X0266998Y0138827D01*
X0266951Y0138868D01*
X0266902Y0138905D01*
X0266851Y0138940D01*
X0266797Y0138971D01*
X0266742Y0138999D01*
X0266685Y0139023D01*
X0266627Y0139044D01*
X0266567Y0139061D01*
X0266507Y0139075D01*
X0266446Y0139084D01*
X0266384Y0139090D01*
X0266322Y0139092D01*
X0212361Y0065834D02*
X0211127Y0065834D01*
X0211071Y0065832D01*
X0211015Y0065826D01*
X0210960Y0065817D01*
X0210905Y0065804D01*
X0210852Y0065787D01*
X0210800Y0065766D01*
X0210749Y0065742D01*
X0210700Y0065714D01*
X0210653Y0065684D01*
X0210608Y0065650D01*
X0210566Y0065613D01*
X0210526Y0065573D01*
X0210489Y0065531D01*
X0210455Y0065486D01*
X0210425Y0065439D01*
X0210397Y0065390D01*
X0210373Y0065339D01*
X0210352Y0065287D01*
X0210335Y0065234D01*
X0210322Y0065179D01*
X0210313Y0065124D01*
X0210307Y0065068D01*
X0210305Y0065012D01*
X0210305Y0062956D01*
X0210307Y0062900D01*
X0210313Y0062844D01*
X0210322Y0062789D01*
X0210335Y0062734D01*
X0210352Y0062681D01*
X0210373Y0062629D01*
X0210397Y0062578D01*
X0210425Y0062529D01*
X0210455Y0062482D01*
X0210489Y0062437D01*
X0210526Y0062395D01*
X0210566Y0062355D01*
X0210608Y0062318D01*
X0210653Y0062284D01*
X0210700Y0062254D01*
X0210749Y0062226D01*
X0210800Y0062202D01*
X0210852Y0062181D01*
X0210905Y0062164D01*
X0210960Y0062151D01*
X0211015Y0062142D01*
X0211071Y0062136D01*
X0211127Y0062134D01*
X0212361Y0062134D01*
X0212361Y0064190D01*
X0211744Y0064190D01*
X0208641Y0064806D02*
X0208641Y0063162D01*
X0208639Y0063099D01*
X0208633Y0063036D01*
X0208623Y0062973D01*
X0208610Y0062911D01*
X0208593Y0062850D01*
X0208572Y0062791D01*
X0208547Y0062732D01*
X0208519Y0062676D01*
X0208487Y0062621D01*
X0208452Y0062568D01*
X0208414Y0062518D01*
X0208373Y0062469D01*
X0208329Y0062424D01*
X0208282Y0062381D01*
X0208233Y0062342D01*
X0208181Y0062305D01*
X0208127Y0062272D01*
X0208071Y0062242D01*
X0208014Y0062215D01*
X0207955Y0062192D01*
X0207894Y0062173D01*
X0207833Y0062158D01*
X0207771Y0062146D01*
X0207708Y0062138D01*
X0207645Y0062134D01*
X0207581Y0062134D01*
X0207518Y0062138D01*
X0207455Y0062146D01*
X0207393Y0062158D01*
X0207332Y0062173D01*
X0207271Y0062192D01*
X0207212Y0062215D01*
X0207155Y0062242D01*
X0207099Y0062272D01*
X0207045Y0062305D01*
X0206993Y0062342D01*
X0206944Y0062381D01*
X0206897Y0062424D01*
X0206853Y0062469D01*
X0206812Y0062518D01*
X0206774Y0062568D01*
X0206739Y0062621D01*
X0206707Y0062676D01*
X0206679Y0062732D01*
X0206654Y0062791D01*
X0206633Y0062850D01*
X0206616Y0062911D01*
X0206603Y0062973D01*
X0206593Y0063036D01*
X0206587Y0063099D01*
X0206585Y0063162D01*
X0206585Y0064806D01*
X0206587Y0064869D01*
X0206593Y0064932D01*
X0206603Y0064995D01*
X0206616Y0065057D01*
X0206633Y0065118D01*
X0206654Y0065177D01*
X0206679Y0065236D01*
X0206707Y0065292D01*
X0206739Y0065347D01*
X0206774Y0065400D01*
X0206812Y0065450D01*
X0206853Y0065499D01*
X0206897Y0065544D01*
X0206944Y0065587D01*
X0206993Y0065626D01*
X0207045Y0065663D01*
X0207099Y0065696D01*
X0207155Y0065726D01*
X0207212Y0065753D01*
X0207271Y0065776D01*
X0207332Y0065795D01*
X0207393Y0065810D01*
X0207455Y0065822D01*
X0207518Y0065830D01*
X0207581Y0065834D01*
X0207645Y0065834D01*
X0207708Y0065830D01*
X0207771Y0065822D01*
X0207833Y0065810D01*
X0207894Y0065795D01*
X0207955Y0065776D01*
X0208014Y0065753D01*
X0208071Y0065726D01*
X0208127Y0065696D01*
X0208181Y0065663D01*
X0208233Y0065626D01*
X0208282Y0065587D01*
X0208329Y0065544D01*
X0208373Y0065499D01*
X0208414Y0065450D01*
X0208452Y0065400D01*
X0208487Y0065347D01*
X0208519Y0065292D01*
X0208547Y0065236D01*
X0208572Y0065177D01*
X0208593Y0065118D01*
X0208610Y0065057D01*
X0208623Y0064995D01*
X0208633Y0064932D01*
X0208639Y0064869D01*
X0208641Y0064806D01*
X0205063Y0062134D02*
X0204241Y0063779D01*
X0204035Y0063779D02*
X0203007Y0063779D01*
X0204035Y0063778D02*
X0204098Y0063780D01*
X0204161Y0063786D01*
X0204224Y0063796D01*
X0204286Y0063809D01*
X0204347Y0063826D01*
X0204406Y0063847D01*
X0204465Y0063872D01*
X0204521Y0063900D01*
X0204576Y0063932D01*
X0204629Y0063967D01*
X0204679Y0064005D01*
X0204728Y0064046D01*
X0204773Y0064090D01*
X0204816Y0064137D01*
X0204855Y0064186D01*
X0204892Y0064238D01*
X0204925Y0064292D01*
X0204955Y0064348D01*
X0204982Y0064405D01*
X0205005Y0064464D01*
X0205024Y0064525D01*
X0205039Y0064586D01*
X0205051Y0064648D01*
X0205059Y0064711D01*
X0205063Y0064774D01*
X0205063Y0064838D01*
X0205059Y0064901D01*
X0205051Y0064964D01*
X0205039Y0065026D01*
X0205024Y0065087D01*
X0205005Y0065148D01*
X0204982Y0065207D01*
X0204955Y0065264D01*
X0204925Y0065320D01*
X0204892Y0065374D01*
X0204855Y0065426D01*
X0204816Y0065475D01*
X0204773Y0065522D01*
X0204728Y0065566D01*
X0204679Y0065607D01*
X0204629Y0065645D01*
X0204576Y0065680D01*
X0204521Y0065712D01*
X0204465Y0065740D01*
X0204406Y0065765D01*
X0204347Y0065786D01*
X0204286Y0065803D01*
X0204224Y0065816D01*
X0204161Y0065826D01*
X0204098Y0065832D01*
X0204035Y0065834D01*
X0203007Y0065834D01*
X0203007Y0062134D01*
X0200464Y0063779D02*
X0199437Y0063779D01*
X0200464Y0063778D02*
X0200527Y0063780D01*
X0200590Y0063786D01*
X0200653Y0063796D01*
X0200715Y0063809D01*
X0200776Y0063826D01*
X0200835Y0063847D01*
X0200894Y0063872D01*
X0200950Y0063900D01*
X0201005Y0063932D01*
X0201058Y0063967D01*
X0201108Y0064005D01*
X0201157Y0064046D01*
X0201202Y0064090D01*
X0201245Y0064137D01*
X0201284Y0064186D01*
X0201321Y0064238D01*
X0201354Y0064292D01*
X0201384Y0064348D01*
X0201411Y0064405D01*
X0201434Y0064464D01*
X0201453Y0064525D01*
X0201468Y0064586D01*
X0201480Y0064648D01*
X0201488Y0064711D01*
X0201492Y0064774D01*
X0201492Y0064838D01*
X0201488Y0064901D01*
X0201480Y0064964D01*
X0201468Y0065026D01*
X0201453Y0065087D01*
X0201434Y0065148D01*
X0201411Y0065207D01*
X0201384Y0065264D01*
X0201354Y0065320D01*
X0201321Y0065374D01*
X0201284Y0065426D01*
X0201245Y0065475D01*
X0201202Y0065522D01*
X0201157Y0065566D01*
X0201108Y0065607D01*
X0201058Y0065645D01*
X0201005Y0065680D01*
X0200950Y0065712D01*
X0200894Y0065740D01*
X0200835Y0065765D01*
X0200776Y0065786D01*
X0200715Y0065803D01*
X0200653Y0065816D01*
X0200590Y0065826D01*
X0200527Y0065832D01*
X0200464Y0065834D01*
X0199437Y0065834D01*
X0199437Y0062134D01*
X0186290Y0065775D02*
X0184234Y0065775D01*
X0185262Y0065775D02*
X0185262Y0062075D01*
X0182930Y0063103D02*
X0182930Y0064747D01*
X0182928Y0064810D01*
X0182922Y0064873D01*
X0182912Y0064936D01*
X0182899Y0064998D01*
X0182882Y0065059D01*
X0182861Y0065118D01*
X0182836Y0065177D01*
X0182808Y0065233D01*
X0182776Y0065288D01*
X0182741Y0065341D01*
X0182703Y0065391D01*
X0182662Y0065440D01*
X0182618Y0065485D01*
X0182571Y0065528D01*
X0182522Y0065567D01*
X0182470Y0065604D01*
X0182416Y0065637D01*
X0182360Y0065667D01*
X0182303Y0065694D01*
X0182244Y0065717D01*
X0182183Y0065736D01*
X0182122Y0065751D01*
X0182060Y0065763D01*
X0181997Y0065771D01*
X0181934Y0065775D01*
X0181870Y0065775D01*
X0181807Y0065771D01*
X0181744Y0065763D01*
X0181682Y0065751D01*
X0181621Y0065736D01*
X0181560Y0065717D01*
X0181501Y0065694D01*
X0181444Y0065667D01*
X0181388Y0065637D01*
X0181334Y0065604D01*
X0181282Y0065567D01*
X0181233Y0065528D01*
X0181186Y0065485D01*
X0181142Y0065440D01*
X0181101Y0065391D01*
X0181063Y0065341D01*
X0181028Y0065288D01*
X0180996Y0065233D01*
X0180968Y0065177D01*
X0180943Y0065118D01*
X0180922Y0065059D01*
X0180905Y0064998D01*
X0180892Y0064936D01*
X0180882Y0064873D01*
X0180876Y0064810D01*
X0180874Y0064747D01*
X0180874Y0063103D01*
X0180876Y0063040D01*
X0180882Y0062977D01*
X0180892Y0062914D01*
X0180905Y0062852D01*
X0180922Y0062791D01*
X0180943Y0062732D01*
X0180968Y0062673D01*
X0180996Y0062617D01*
X0181028Y0062562D01*
X0181063Y0062509D01*
X0181101Y0062459D01*
X0181142Y0062410D01*
X0181186Y0062365D01*
X0181233Y0062322D01*
X0181282Y0062283D01*
X0181334Y0062246D01*
X0181388Y0062213D01*
X0181444Y0062183D01*
X0181501Y0062156D01*
X0181560Y0062133D01*
X0181621Y0062114D01*
X0181682Y0062099D01*
X0181744Y0062087D01*
X0181807Y0062079D01*
X0181870Y0062075D01*
X0181934Y0062075D01*
X0181997Y0062079D01*
X0182060Y0062087D01*
X0182122Y0062099D01*
X0182183Y0062114D01*
X0182244Y0062133D01*
X0182303Y0062156D01*
X0182360Y0062183D01*
X0182416Y0062213D01*
X0182470Y0062246D01*
X0182522Y0062283D01*
X0182571Y0062322D01*
X0182618Y0062365D01*
X0182662Y0062410D01*
X0182703Y0062459D01*
X0182741Y0062509D01*
X0182776Y0062562D01*
X0182808Y0062617D01*
X0182836Y0062673D01*
X0182861Y0062732D01*
X0182882Y0062791D01*
X0182899Y0062852D01*
X0182912Y0062914D01*
X0182922Y0062977D01*
X0182928Y0063040D01*
X0182930Y0063103D01*
X0179330Y0063103D02*
X0179330Y0064747D01*
X0179328Y0064810D01*
X0179322Y0064873D01*
X0179312Y0064936D01*
X0179299Y0064998D01*
X0179282Y0065059D01*
X0179261Y0065118D01*
X0179236Y0065177D01*
X0179208Y0065233D01*
X0179176Y0065288D01*
X0179141Y0065341D01*
X0179103Y0065391D01*
X0179062Y0065440D01*
X0179018Y0065485D01*
X0178971Y0065528D01*
X0178922Y0065567D01*
X0178870Y0065604D01*
X0178816Y0065637D01*
X0178760Y0065667D01*
X0178703Y0065694D01*
X0178644Y0065717D01*
X0178583Y0065736D01*
X0178522Y0065751D01*
X0178460Y0065763D01*
X0178397Y0065771D01*
X0178334Y0065775D01*
X0178270Y0065775D01*
X0178207Y0065771D01*
X0178144Y0065763D01*
X0178082Y0065751D01*
X0178021Y0065736D01*
X0177960Y0065717D01*
X0177901Y0065694D01*
X0177844Y0065667D01*
X0177788Y0065637D01*
X0177734Y0065604D01*
X0177682Y0065567D01*
X0177633Y0065528D01*
X0177586Y0065485D01*
X0177542Y0065440D01*
X0177501Y0065391D01*
X0177463Y0065341D01*
X0177428Y0065288D01*
X0177396Y0065233D01*
X0177368Y0065177D01*
X0177343Y0065118D01*
X0177322Y0065059D01*
X0177305Y0064998D01*
X0177292Y0064936D01*
X0177282Y0064873D01*
X0177276Y0064810D01*
X0177274Y0064747D01*
X0177274Y0063103D01*
X0177276Y0063040D01*
X0177282Y0062977D01*
X0177292Y0062914D01*
X0177305Y0062852D01*
X0177322Y0062791D01*
X0177343Y0062732D01*
X0177368Y0062673D01*
X0177396Y0062617D01*
X0177428Y0062562D01*
X0177463Y0062509D01*
X0177501Y0062459D01*
X0177542Y0062410D01*
X0177586Y0062365D01*
X0177633Y0062322D01*
X0177682Y0062283D01*
X0177734Y0062246D01*
X0177788Y0062213D01*
X0177844Y0062183D01*
X0177901Y0062156D01*
X0177960Y0062133D01*
X0178021Y0062114D01*
X0178082Y0062099D01*
X0178144Y0062087D01*
X0178207Y0062079D01*
X0178270Y0062075D01*
X0178334Y0062075D01*
X0178397Y0062079D01*
X0178460Y0062087D01*
X0178522Y0062099D01*
X0178583Y0062114D01*
X0178644Y0062133D01*
X0178703Y0062156D01*
X0178760Y0062183D01*
X0178816Y0062213D01*
X0178870Y0062246D01*
X0178922Y0062283D01*
X0178971Y0062322D01*
X0179018Y0062365D01*
X0179062Y0062410D01*
X0179103Y0062459D01*
X0179141Y0062509D01*
X0179176Y0062562D01*
X0179208Y0062617D01*
X0179236Y0062673D01*
X0179261Y0062732D01*
X0179282Y0062791D01*
X0179299Y0062852D01*
X0179312Y0062914D01*
X0179322Y0062977D01*
X0179328Y0063040D01*
X0179330Y0063103D01*
X0174874Y0062075D02*
X0174937Y0062077D01*
X0175000Y0062083D01*
X0175063Y0062093D01*
X0175125Y0062106D01*
X0175186Y0062123D01*
X0175245Y0062144D01*
X0175304Y0062169D01*
X0175360Y0062197D01*
X0175415Y0062229D01*
X0175468Y0062264D01*
X0175518Y0062302D01*
X0175567Y0062343D01*
X0175612Y0062387D01*
X0175655Y0062434D01*
X0175694Y0062483D01*
X0175731Y0062535D01*
X0175764Y0062589D01*
X0175794Y0062645D01*
X0175821Y0062702D01*
X0175844Y0062761D01*
X0175863Y0062822D01*
X0175878Y0062883D01*
X0175890Y0062945D01*
X0175898Y0063008D01*
X0175902Y0063071D01*
X0175902Y0063135D01*
X0175898Y0063198D01*
X0175890Y0063261D01*
X0175878Y0063323D01*
X0175863Y0063384D01*
X0175844Y0063445D01*
X0175821Y0063504D01*
X0175794Y0063561D01*
X0175764Y0063617D01*
X0175731Y0063671D01*
X0175694Y0063723D01*
X0175655Y0063772D01*
X0175612Y0063819D01*
X0175567Y0063863D01*
X0175518Y0063904D01*
X0175468Y0063942D01*
X0175415Y0063977D01*
X0175360Y0064009D01*
X0175304Y0064037D01*
X0175245Y0064062D01*
X0175186Y0064083D01*
X0175125Y0064100D01*
X0175063Y0064113D01*
X0175000Y0064123D01*
X0174937Y0064129D01*
X0174874Y0064131D01*
X0173846Y0064131D01*
X0174874Y0064131D02*
X0174930Y0064133D01*
X0174986Y0064139D01*
X0175041Y0064148D01*
X0175096Y0064161D01*
X0175149Y0064178D01*
X0175201Y0064199D01*
X0175252Y0064223D01*
X0175301Y0064251D01*
X0175348Y0064281D01*
X0175393Y0064315D01*
X0175435Y0064352D01*
X0175475Y0064392D01*
X0175512Y0064434D01*
X0175546Y0064479D01*
X0175576Y0064526D01*
X0175604Y0064575D01*
X0175628Y0064626D01*
X0175649Y0064678D01*
X0175666Y0064731D01*
X0175679Y0064786D01*
X0175688Y0064841D01*
X0175694Y0064897D01*
X0175696Y0064953D01*
X0175694Y0065009D01*
X0175688Y0065065D01*
X0175679Y0065120D01*
X0175666Y0065175D01*
X0175649Y0065228D01*
X0175628Y0065280D01*
X0175604Y0065331D01*
X0175576Y0065380D01*
X0175546Y0065427D01*
X0175512Y0065472D01*
X0175475Y0065514D01*
X0175435Y0065554D01*
X0175393Y0065591D01*
X0175348Y0065625D01*
X0175301Y0065655D01*
X0175252Y0065683D01*
X0175201Y0065707D01*
X0175149Y0065728D01*
X0175096Y0065745D01*
X0175041Y0065758D01*
X0174986Y0065767D01*
X0174930Y0065773D01*
X0174874Y0065775D01*
X0173846Y0065775D01*
X0173846Y0062075D01*
X0174874Y0062075D01*
X0163249Y0065775D02*
X0161193Y0065775D01*
X0162221Y0065775D02*
X0162221Y0062075D01*
X0160084Y0062075D02*
X0158440Y0062075D01*
X0158440Y0065775D01*
X0160084Y0065775D01*
X0159673Y0064131D02*
X0158440Y0064131D01*
X0156478Y0063617D02*
X0155347Y0064234D01*
X0155758Y0065775D02*
X0155834Y0065773D01*
X0155910Y0065767D01*
X0155986Y0065758D01*
X0156061Y0065745D01*
X0156136Y0065728D01*
X0156209Y0065707D01*
X0156282Y0065683D01*
X0156353Y0065656D01*
X0156422Y0065624D01*
X0156491Y0065590D01*
X0156557Y0065552D01*
X0156621Y0065511D01*
X0156683Y0065467D01*
X0155347Y0064234D02*
X0155301Y0064263D01*
X0155258Y0064295D01*
X0155216Y0064329D01*
X0155177Y0064367D01*
X0155140Y0064406D01*
X0155106Y0064448D01*
X0155074Y0064493D01*
X0155046Y0064539D01*
X0155021Y0064587D01*
X0154998Y0064636D01*
X0154980Y0064687D01*
X0154964Y0064739D01*
X0154952Y0064791D01*
X0154943Y0064845D01*
X0154938Y0064899D01*
X0154936Y0064953D01*
X0154938Y0065009D01*
X0154944Y0065065D01*
X0154953Y0065120D01*
X0154966Y0065175D01*
X0154983Y0065228D01*
X0155004Y0065280D01*
X0155028Y0065331D01*
X0155056Y0065380D01*
X0155086Y0065427D01*
X0155120Y0065472D01*
X0155157Y0065514D01*
X0155197Y0065554D01*
X0155239Y0065591D01*
X0155284Y0065625D01*
X0155331Y0065655D01*
X0155380Y0065683D01*
X0155431Y0065707D01*
X0155483Y0065728D01*
X0155536Y0065745D01*
X0155591Y0065758D01*
X0155646Y0065767D01*
X0155702Y0065773D01*
X0155758Y0065775D01*
X0154833Y0062589D02*
X0154891Y0062533D01*
X0154951Y0062480D01*
X0155014Y0062429D01*
X0155080Y0062382D01*
X0155147Y0062338D01*
X0155217Y0062297D01*
X0155288Y0062259D01*
X0155361Y0062225D01*
X0155435Y0062194D01*
X0155511Y0062166D01*
X0155588Y0062142D01*
X0155666Y0062122D01*
X0155745Y0062105D01*
X0155825Y0062092D01*
X0155905Y0062082D01*
X0155985Y0062077D01*
X0156066Y0062075D01*
X0156122Y0062077D01*
X0156178Y0062083D01*
X0156233Y0062092D01*
X0156288Y0062105D01*
X0156341Y0062122D01*
X0156393Y0062143D01*
X0156444Y0062167D01*
X0156493Y0062195D01*
X0156540Y0062225D01*
X0156585Y0062259D01*
X0156627Y0062296D01*
X0156667Y0062336D01*
X0156704Y0062378D01*
X0156738Y0062423D01*
X0156768Y0062470D01*
X0156796Y0062519D01*
X0156820Y0062570D01*
X0156841Y0062622D01*
X0156858Y0062675D01*
X0156871Y0062730D01*
X0156880Y0062785D01*
X0156886Y0062841D01*
X0156888Y0062897D01*
X0156889Y0062897D02*
X0156887Y0062951D01*
X0156882Y0063005D01*
X0156873Y0063059D01*
X0156861Y0063111D01*
X0156845Y0063163D01*
X0156827Y0063214D01*
X0156804Y0063263D01*
X0156779Y0063311D01*
X0156751Y0063357D01*
X0156719Y0063402D01*
X0156685Y0063444D01*
X0156648Y0063483D01*
X0156609Y0063521D01*
X0156567Y0063555D01*
X0156524Y0063587D01*
X0156478Y0063616D01*
X0153604Y0062075D02*
X0151960Y0062075D01*
X0151960Y0065775D01*
X0153604Y0065775D01*
X0153193Y0064131D02*
X0151960Y0064131D01*
X0149489Y0063720D02*
X0150311Y0062075D01*
X0149283Y0063720D02*
X0148256Y0063720D01*
X0149283Y0063719D02*
X0149346Y0063721D01*
X0149409Y0063727D01*
X0149472Y0063737D01*
X0149534Y0063750D01*
X0149595Y0063767D01*
X0149654Y0063788D01*
X0149713Y0063813D01*
X0149769Y0063841D01*
X0149824Y0063873D01*
X0149877Y0063908D01*
X0149927Y0063946D01*
X0149976Y0063987D01*
X0150021Y0064031D01*
X0150064Y0064078D01*
X0150103Y0064127D01*
X0150140Y0064179D01*
X0150173Y0064233D01*
X0150203Y0064289D01*
X0150230Y0064346D01*
X0150253Y0064405D01*
X0150272Y0064466D01*
X0150287Y0064527D01*
X0150299Y0064589D01*
X0150307Y0064652D01*
X0150311Y0064715D01*
X0150311Y0064779D01*
X0150307Y0064842D01*
X0150299Y0064905D01*
X0150287Y0064967D01*
X0150272Y0065028D01*
X0150253Y0065089D01*
X0150230Y0065148D01*
X0150203Y0065205D01*
X0150173Y0065261D01*
X0150140Y0065315D01*
X0150103Y0065367D01*
X0150064Y0065416D01*
X0150021Y0065463D01*
X0149976Y0065507D01*
X0149927Y0065548D01*
X0149877Y0065586D01*
X0149824Y0065621D01*
X0149769Y0065653D01*
X0149713Y0065681D01*
X0149654Y0065706D01*
X0149595Y0065727D01*
X0149534Y0065744D01*
X0149472Y0065757D01*
X0149409Y0065767D01*
X0149346Y0065773D01*
X0149283Y0065775D01*
X0148256Y0065775D01*
X0148256Y0062075D01*
D13*
X0148106Y0066925D02*
X0148106Y0076925D01*
X0168106Y0076925D01*
X0168106Y0066925D01*
X0148106Y0066925D01*
X0154287Y0080587D02*
X0154287Y0086886D01*
X0159798Y0086886D02*
X0159798Y0080587D01*
X0162161Y0080587D02*
X0162161Y0086886D01*
X0167673Y0086886D02*
X0167673Y0080587D01*
X0173696Y0076925D02*
X0173696Y0066925D01*
X0193696Y0066925D01*
X0193696Y0076925D01*
X0173696Y0076925D01*
X0179877Y0082555D02*
X0179877Y0088854D01*
X0185389Y0088854D02*
X0185389Y0082555D01*
X0192476Y0087673D02*
X0200350Y0087673D01*
X0203499Y0084917D02*
X0197200Y0084917D01*
X0197200Y0078618D02*
X0203499Y0078618D01*
X0199877Y0076925D02*
X0209877Y0076925D01*
X0209877Y0066925D01*
X0259877Y0066925D01*
X0259877Y0076925D01*
X0209877Y0076925D01*
X0199877Y0076925D02*
X0199877Y0066925D01*
X0209877Y0066925D01*
X0210192Y0092594D02*
X0214129Y0092594D01*
X0214129Y0114248D01*
X0234995Y0114248D01*
X0234995Y0092594D01*
X0214129Y0092594D01*
X0210192Y0092594D02*
X0210192Y0114248D01*
X0214129Y0114248D01*
X0197594Y0108539D02*
X0191295Y0108539D01*
X0190507Y0109327D02*
X0174759Y0109327D01*
X0170035Y0106571D02*
X0170035Y0100272D01*
X0171216Y0100272D02*
X0178302Y0100272D01*
X0178302Y0092004D01*
X0177515Y0092004D01*
X0179877Y0094366D02*
X0179877Y0100665D01*
X0178302Y0100272D02*
X0178302Y0103028D01*
X0177515Y0103028D01*
X0172003Y0103028D02*
X0171216Y0103028D01*
X0171216Y0100272D01*
X0171216Y0092004D01*
X0172003Y0092004D01*
X0163736Y0100272D02*
X0163736Y0106571D01*
X0162161Y0106571D02*
X0162161Y0100272D01*
X0155861Y0100272D02*
X0155861Y0106571D01*
X0153893Y0102634D02*
X0153893Y0096335D01*
X0148381Y0096335D02*
X0148381Y0102634D01*
X0142476Y0106571D02*
X0136176Y0106571D01*
X0136176Y0112083D02*
X0142476Y0112083D01*
X0140901Y0100272D02*
X0137751Y0100272D01*
X0174759Y0129012D02*
X0190507Y0129012D01*
X0184602Y0130980D02*
X0239720Y0130980D01*
X0239720Y0178224D01*
X0184602Y0178224D01*
X0184602Y0130980D01*
X0153893Y0151453D02*
X0153893Y0157752D01*
X0148381Y0157752D02*
X0148381Y0151453D01*
X0140901Y0155390D02*
X0137751Y0155390D01*
X0136176Y0161689D02*
X0142476Y0161689D01*
X0142476Y0167201D02*
X0136176Y0167201D01*
X0175547Y0169563D02*
X0175547Y0163264D01*
X0181846Y0163264D02*
X0181846Y0169563D01*
X0184602Y0178224D02*
X0184602Y0199878D01*
X0239720Y0199878D01*
X0239720Y0178224D01*
X0233814Y0182161D02*
X0233814Y0193972D01*
X0225940Y0193972D01*
X0225940Y0186098D01*
X0216098Y0186098D01*
X0216098Y0193972D01*
X0206255Y0193972D01*
X0206255Y0186098D01*
X0198381Y0186098D01*
X0198381Y0193972D01*
X0194444Y0193972D01*
X0194444Y0178224D01*
X0190507Y0178224D02*
X0190507Y0193972D01*
X0194444Y0193972D01*
X0191295Y0102240D02*
X0197594Y0102240D01*
X0200350Y0099484D02*
X0192476Y0099484D01*
X0191596Y0100272D02*
X0191598Y0100331D01*
X0191604Y0100389D01*
X0191614Y0100447D01*
X0191627Y0100504D01*
X0191645Y0100561D01*
X0191666Y0100616D01*
X0191691Y0100669D01*
X0191719Y0100720D01*
X0191750Y0100770D01*
X0191785Y0100817D01*
X0191823Y0100862D01*
X0191864Y0100905D01*
X0191908Y0100944D01*
X0191954Y0100980D01*
X0192002Y0101014D01*
X0192053Y0101044D01*
X0192106Y0101070D01*
X0192160Y0101093D01*
X0192215Y0101112D01*
X0192272Y0101128D01*
X0192330Y0101140D01*
X0192388Y0101148D01*
X0192447Y0101152D01*
X0192505Y0101152D01*
X0192564Y0101148D01*
X0192622Y0101140D01*
X0192680Y0101128D01*
X0192737Y0101112D01*
X0192792Y0101093D01*
X0192846Y0101070D01*
X0192899Y0101044D01*
X0192950Y0101014D01*
X0192998Y0100980D01*
X0193044Y0100944D01*
X0193088Y0100905D01*
X0193129Y0100862D01*
X0193167Y0100817D01*
X0193202Y0100770D01*
X0193233Y0100720D01*
X0193261Y0100669D01*
X0193286Y0100616D01*
X0193307Y0100561D01*
X0193325Y0100504D01*
X0193338Y0100447D01*
X0193348Y0100389D01*
X0193354Y0100331D01*
X0193356Y0100272D01*
X0193354Y0100213D01*
X0193348Y0100155D01*
X0193338Y0100097D01*
X0193325Y0100040D01*
X0193307Y0099983D01*
X0193286Y0099928D01*
X0193261Y0099875D01*
X0193233Y0099824D01*
X0193202Y0099774D01*
X0193167Y0099727D01*
X0193129Y0099682D01*
X0193088Y0099639D01*
X0193044Y0099600D01*
X0192998Y0099564D01*
X0192950Y0099530D01*
X0192899Y0099500D01*
X0192846Y0099474D01*
X0192792Y0099451D01*
X0192737Y0099432D01*
X0192680Y0099416D01*
X0192622Y0099404D01*
X0192564Y0099396D01*
X0192505Y0099392D01*
X0192447Y0099392D01*
X0192388Y0099396D01*
X0192330Y0099404D01*
X0192272Y0099416D01*
X0192215Y0099432D01*
X0192160Y0099451D01*
X0192106Y0099474D01*
X0192053Y0099500D01*
X0192002Y0099530D01*
X0191954Y0099564D01*
X0191908Y0099600D01*
X0191864Y0099639D01*
X0191823Y0099682D01*
X0191785Y0099727D01*
X0191750Y0099774D01*
X0191719Y0099824D01*
X0191691Y0099875D01*
X0191666Y0099928D01*
X0191645Y0099983D01*
X0191627Y0100040D01*
X0191614Y0100097D01*
X0191604Y0100155D01*
X0191598Y0100213D01*
X0191596Y0100272D01*
X0185389Y0100665D02*
X0185389Y0094366D01*
D14*
X0145232Y0094760D02*
X0145232Y0099878D01*
X0145232Y0094760D02*
X0141688Y0094760D01*
X0136964Y0094760D02*
X0133421Y0094760D01*
X0133421Y0099878D01*
X0133421Y0149878D02*
X0133421Y0154996D01*
X0133421Y0149878D02*
X0136964Y0149878D01*
X0141688Y0149878D02*
X0145232Y0149878D01*
X0145232Y0154996D01*
M02*
