%
M48
M72
T01C0.01378
T02C0.03937
T03C0.07874
T04C0.11811
%
T01
X184602Y170350
X196413Y166413
X196413Y158539
X196413Y150665
X196413Y142791
X194444Y138854
X185070Y135480
X174759Y138854
X164917Y130980
X151137Y146728
X134523Y153177
X131452Y156571
X131452Y160508
X119641Y164445
X146806Y161689
X172791Y162476
X208224Y168382
X216098Y168382
X227909Y166413
X227909Y158539
X227909Y150665
X227909Y142791
X216098Y140823
X208224Y140823
X200350Y130980
X196413Y130980
X204287Y121138
X186570Y103421
X186570Y93579
X194444Y85705
X175547Y87280
X170822Y89642
X160980Y95547
X166885Y98303
X151137Y91610
X145232Y97516
X136491Y98146
X132554Y98146
X132554Y102083
X147190Y105400
X159011Y109327
X166885Y109838
X131452Y75862
X101924Y93579
X241688Y174287
X259405Y148697
X235783Y130980
X263342Y87673
X265310Y67988
X239720Y66020
X82239Y134917
X90113Y190035
T02
X103893Y84917
X92476Y103421
X115704Y103421
X153106Y71925
X163106Y71925
X178696Y71925
X188696Y71925
X204877Y71925
X214877Y71925
X224877Y71925
X234877Y71925
X244877Y71925
X254877Y71925
X115704Y154602
X92476Y154602
X103893Y136098
T03
X229877Y89484
X229877Y109484
T04
X255468Y129012
X149169Y129012
M30
