G75*
%MOIN*%
%OFA0B0*%
%FSLAX25Y25*%
%IPPOS*%
%LPD*%
%AMOC8*
5,1,8,0,0,1.08239X$1,22.5*
%
%ADD10C,0.00000*%
%ADD11R,0.07000X0.07000*%
%ADD12C,0.07000*%
%ADD13C,0.11811*%
%ADD14C,0.01811*%
%ADD15C,0.08661*%
%ADD16C,0.02578*%
%ADD17C,0.01000*%
%ADD18C,0.02400*%
%ADD19C,0.00600*%
%ADD20C,0.15811*%
%ADD21C,0.05906*%
D10*
X0086176Y0058146D02*
X0267279Y0058146D01*
X0267469Y0058148D01*
X0267659Y0058155D01*
X0267849Y0058167D01*
X0268039Y0058183D01*
X0268228Y0058203D01*
X0268417Y0058229D01*
X0268605Y0058258D01*
X0268792Y0058293D01*
X0268978Y0058332D01*
X0269163Y0058375D01*
X0269348Y0058423D01*
X0269531Y0058475D01*
X0269712Y0058531D01*
X0269892Y0058592D01*
X0270071Y0058658D01*
X0270248Y0058727D01*
X0270424Y0058801D01*
X0270597Y0058879D01*
X0270769Y0058962D01*
X0270938Y0059048D01*
X0271106Y0059138D01*
X0271271Y0059233D01*
X0271434Y0059331D01*
X0271594Y0059434D01*
X0271752Y0059540D01*
X0271907Y0059650D01*
X0272060Y0059763D01*
X0272210Y0059881D01*
X0272356Y0060002D01*
X0272500Y0060126D01*
X0272641Y0060254D01*
X0272779Y0060385D01*
X0272914Y0060520D01*
X0273045Y0060658D01*
X0273173Y0060799D01*
X0273297Y0060943D01*
X0273418Y0061089D01*
X0273536Y0061239D01*
X0273649Y0061392D01*
X0273759Y0061547D01*
X0273865Y0061705D01*
X0273968Y0061865D01*
X0274066Y0062028D01*
X0274161Y0062193D01*
X0274251Y0062361D01*
X0274337Y0062530D01*
X0274420Y0062702D01*
X0274498Y0062875D01*
X0274572Y0063051D01*
X0274641Y0063228D01*
X0274707Y0063407D01*
X0274768Y0063587D01*
X0274824Y0063768D01*
X0274876Y0063951D01*
X0274924Y0064136D01*
X0274967Y0064321D01*
X0275006Y0064507D01*
X0275041Y0064694D01*
X0275070Y0064882D01*
X0275096Y0065071D01*
X0275116Y0065260D01*
X0275132Y0065450D01*
X0275144Y0065640D01*
X0275151Y0065830D01*
X0275153Y0066020D01*
X0275153Y0170350D01*
X0275151Y0170540D01*
X0275144Y0170730D01*
X0275132Y0170920D01*
X0275116Y0171110D01*
X0275096Y0171299D01*
X0275070Y0171488D01*
X0275041Y0171676D01*
X0275006Y0171863D01*
X0274967Y0172049D01*
X0274924Y0172234D01*
X0274876Y0172419D01*
X0274824Y0172602D01*
X0274768Y0172783D01*
X0274707Y0172963D01*
X0274641Y0173142D01*
X0274572Y0173319D01*
X0274498Y0173495D01*
X0274420Y0173668D01*
X0274337Y0173840D01*
X0274251Y0174009D01*
X0274161Y0174177D01*
X0274066Y0174342D01*
X0273968Y0174505D01*
X0273865Y0174665D01*
X0273759Y0174823D01*
X0273649Y0174978D01*
X0273536Y0175131D01*
X0273418Y0175281D01*
X0273297Y0175427D01*
X0273173Y0175571D01*
X0273045Y0175712D01*
X0272914Y0175850D01*
X0272779Y0175985D01*
X0272641Y0176116D01*
X0272500Y0176244D01*
X0272356Y0176368D01*
X0272210Y0176489D01*
X0272060Y0176607D01*
X0271907Y0176720D01*
X0271752Y0176830D01*
X0271594Y0176936D01*
X0271434Y0177039D01*
X0271271Y0177137D01*
X0271106Y0177232D01*
X0270938Y0177322D01*
X0270769Y0177408D01*
X0270597Y0177491D01*
X0270424Y0177569D01*
X0270248Y0177643D01*
X0270071Y0177712D01*
X0269892Y0177778D01*
X0269712Y0177839D01*
X0269531Y0177895D01*
X0269348Y0177947D01*
X0269163Y0177995D01*
X0268978Y0178038D01*
X0268792Y0178077D01*
X0268605Y0178112D01*
X0268417Y0178141D01*
X0268228Y0178167D01*
X0268039Y0178187D01*
X0267849Y0178203D01*
X0267659Y0178215D01*
X0267469Y0178222D01*
X0267279Y0178224D01*
X0186570Y0178224D01*
X0186380Y0178226D01*
X0186190Y0178233D01*
X0186000Y0178245D01*
X0185810Y0178261D01*
X0185621Y0178281D01*
X0185432Y0178307D01*
X0185244Y0178336D01*
X0185057Y0178371D01*
X0184871Y0178410D01*
X0184686Y0178453D01*
X0184501Y0178501D01*
X0184318Y0178553D01*
X0184137Y0178609D01*
X0183957Y0178670D01*
X0183778Y0178736D01*
X0183601Y0178805D01*
X0183425Y0178879D01*
X0183252Y0178957D01*
X0183080Y0179040D01*
X0182911Y0179126D01*
X0182743Y0179216D01*
X0182578Y0179311D01*
X0182415Y0179409D01*
X0182255Y0179512D01*
X0182097Y0179618D01*
X0181942Y0179728D01*
X0181789Y0179841D01*
X0181639Y0179959D01*
X0181493Y0180080D01*
X0181349Y0180204D01*
X0181208Y0180332D01*
X0181070Y0180463D01*
X0180935Y0180598D01*
X0180804Y0180736D01*
X0180676Y0180877D01*
X0180552Y0181021D01*
X0180431Y0181167D01*
X0180313Y0181317D01*
X0180200Y0181470D01*
X0180090Y0181625D01*
X0179984Y0181783D01*
X0179881Y0181943D01*
X0179783Y0182106D01*
X0179688Y0182271D01*
X0179598Y0182439D01*
X0179512Y0182608D01*
X0179429Y0182780D01*
X0179351Y0182953D01*
X0179277Y0183129D01*
X0179208Y0183306D01*
X0179142Y0183485D01*
X0179081Y0183665D01*
X0179025Y0183846D01*
X0178973Y0184029D01*
X0178925Y0184214D01*
X0178882Y0184399D01*
X0178843Y0184585D01*
X0178808Y0184772D01*
X0178779Y0184960D01*
X0178753Y0185149D01*
X0178733Y0185338D01*
X0178717Y0185528D01*
X0178705Y0185718D01*
X0178698Y0185908D01*
X0178696Y0186098D01*
X0178696Y0192004D01*
X0178694Y0192194D01*
X0178687Y0192384D01*
X0178675Y0192574D01*
X0178659Y0192764D01*
X0178639Y0192953D01*
X0178613Y0193142D01*
X0178584Y0193330D01*
X0178549Y0193517D01*
X0178510Y0193703D01*
X0178467Y0193888D01*
X0178419Y0194073D01*
X0178367Y0194256D01*
X0178311Y0194437D01*
X0178250Y0194617D01*
X0178184Y0194796D01*
X0178115Y0194973D01*
X0178041Y0195149D01*
X0177963Y0195322D01*
X0177880Y0195494D01*
X0177794Y0195663D01*
X0177704Y0195831D01*
X0177609Y0195996D01*
X0177511Y0196159D01*
X0177408Y0196319D01*
X0177302Y0196477D01*
X0177192Y0196632D01*
X0177079Y0196785D01*
X0176961Y0196935D01*
X0176840Y0197081D01*
X0176716Y0197225D01*
X0176588Y0197366D01*
X0176457Y0197504D01*
X0176322Y0197639D01*
X0176184Y0197770D01*
X0176043Y0197898D01*
X0175899Y0198022D01*
X0175753Y0198143D01*
X0175603Y0198261D01*
X0175450Y0198374D01*
X0175295Y0198484D01*
X0175137Y0198590D01*
X0174977Y0198693D01*
X0174814Y0198791D01*
X0174649Y0198886D01*
X0174481Y0198976D01*
X0174312Y0199062D01*
X0174140Y0199145D01*
X0173967Y0199223D01*
X0173791Y0199297D01*
X0173614Y0199366D01*
X0173435Y0199432D01*
X0173255Y0199493D01*
X0173074Y0199549D01*
X0172891Y0199601D01*
X0172706Y0199649D01*
X0172521Y0199692D01*
X0172335Y0199731D01*
X0172148Y0199766D01*
X0171960Y0199795D01*
X0171771Y0199821D01*
X0171582Y0199841D01*
X0171392Y0199857D01*
X0171202Y0199869D01*
X0171012Y0199876D01*
X0170822Y0199878D01*
X0086176Y0199878D01*
X0085986Y0199876D01*
X0085796Y0199869D01*
X0085606Y0199857D01*
X0085416Y0199841D01*
X0085227Y0199821D01*
X0085038Y0199795D01*
X0084850Y0199766D01*
X0084663Y0199731D01*
X0084477Y0199692D01*
X0084292Y0199649D01*
X0084107Y0199601D01*
X0083924Y0199549D01*
X0083743Y0199493D01*
X0083563Y0199432D01*
X0083384Y0199366D01*
X0083207Y0199297D01*
X0083031Y0199223D01*
X0082858Y0199145D01*
X0082686Y0199062D01*
X0082517Y0198976D01*
X0082349Y0198886D01*
X0082184Y0198791D01*
X0082021Y0198693D01*
X0081861Y0198590D01*
X0081703Y0198484D01*
X0081548Y0198374D01*
X0081395Y0198261D01*
X0081245Y0198143D01*
X0081099Y0198022D01*
X0080955Y0197898D01*
X0080814Y0197770D01*
X0080676Y0197639D01*
X0080541Y0197504D01*
X0080410Y0197366D01*
X0080282Y0197225D01*
X0080158Y0197081D01*
X0080037Y0196935D01*
X0079919Y0196785D01*
X0079806Y0196632D01*
X0079696Y0196477D01*
X0079590Y0196319D01*
X0079487Y0196159D01*
X0079389Y0195996D01*
X0079294Y0195831D01*
X0079204Y0195663D01*
X0079118Y0195494D01*
X0079035Y0195322D01*
X0078957Y0195149D01*
X0078883Y0194973D01*
X0078814Y0194796D01*
X0078748Y0194617D01*
X0078687Y0194437D01*
X0078631Y0194256D01*
X0078579Y0194073D01*
X0078531Y0193888D01*
X0078488Y0193703D01*
X0078449Y0193517D01*
X0078414Y0193330D01*
X0078385Y0193142D01*
X0078359Y0192953D01*
X0078339Y0192764D01*
X0078323Y0192574D01*
X0078311Y0192384D01*
X0078304Y0192194D01*
X0078302Y0192004D01*
X0078302Y0066020D01*
X0078304Y0065830D01*
X0078311Y0065640D01*
X0078323Y0065450D01*
X0078339Y0065260D01*
X0078359Y0065071D01*
X0078385Y0064882D01*
X0078414Y0064694D01*
X0078449Y0064507D01*
X0078488Y0064321D01*
X0078531Y0064136D01*
X0078579Y0063951D01*
X0078631Y0063768D01*
X0078687Y0063587D01*
X0078748Y0063407D01*
X0078814Y0063228D01*
X0078883Y0063051D01*
X0078957Y0062875D01*
X0079035Y0062702D01*
X0079118Y0062530D01*
X0079204Y0062361D01*
X0079294Y0062193D01*
X0079389Y0062028D01*
X0079487Y0061865D01*
X0079590Y0061705D01*
X0079696Y0061547D01*
X0079806Y0061392D01*
X0079919Y0061239D01*
X0080037Y0061089D01*
X0080158Y0060943D01*
X0080282Y0060799D01*
X0080410Y0060658D01*
X0080541Y0060520D01*
X0080676Y0060385D01*
X0080814Y0060254D01*
X0080955Y0060126D01*
X0081099Y0060002D01*
X0081245Y0059881D01*
X0081395Y0059763D01*
X0081548Y0059650D01*
X0081703Y0059540D01*
X0081861Y0059434D01*
X0082021Y0059331D01*
X0082184Y0059233D01*
X0082349Y0059138D01*
X0082517Y0059048D01*
X0082686Y0058962D01*
X0082858Y0058879D01*
X0083031Y0058801D01*
X0083207Y0058727D01*
X0083384Y0058658D01*
X0083563Y0058592D01*
X0083743Y0058531D01*
X0083924Y0058475D01*
X0084107Y0058423D01*
X0084292Y0058375D01*
X0084477Y0058332D01*
X0084663Y0058293D01*
X0084850Y0058258D01*
X0085038Y0058229D01*
X0085227Y0058203D01*
X0085416Y0058183D01*
X0085606Y0058167D01*
X0085796Y0058155D01*
X0085986Y0058148D01*
X0086176Y0058146D01*
D11*
X0204877Y0071925D03*
D12*
X0214877Y0071925D03*
X0224877Y0071925D03*
X0234877Y0071925D03*
X0244877Y0071925D03*
X0254877Y0071925D03*
X0188696Y0071925D03*
X0178696Y0071925D03*
X0163106Y0071925D03*
X0153106Y0071925D03*
D13*
X0229877Y0089484D03*
X0229877Y0109484D03*
D14*
X0143539Y0112398D02*
X0143539Y0119642D01*
X0143539Y0112398D02*
X0123303Y0112398D01*
X0123303Y0119642D01*
X0143539Y0119642D01*
X0143539Y0114118D02*
X0123303Y0114118D01*
X0123303Y0115838D02*
X0143539Y0115838D01*
X0143539Y0117558D02*
X0123303Y0117558D01*
X0123303Y0119278D02*
X0143539Y0119278D01*
X0143539Y0138382D02*
X0143539Y0145626D01*
X0143539Y0138382D02*
X0123303Y0138382D01*
X0123303Y0145626D01*
X0143539Y0145626D01*
X0143539Y0140102D02*
X0123303Y0140102D01*
X0123303Y0141822D02*
X0143539Y0141822D01*
X0143539Y0143542D02*
X0123303Y0143542D01*
X0123303Y0145262D02*
X0143539Y0145262D01*
X0143539Y0167516D02*
X0143539Y0174760D01*
X0143539Y0167516D02*
X0123303Y0167516D01*
X0123303Y0174760D01*
X0143539Y0174760D01*
X0143539Y0169236D02*
X0123303Y0169236D01*
X0123303Y0170956D02*
X0143539Y0170956D01*
X0143539Y0172676D02*
X0123303Y0172676D01*
X0123303Y0174396D02*
X0143539Y0174396D01*
X0143539Y0090508D02*
X0143539Y0083264D01*
X0123303Y0083264D01*
X0123303Y0090508D01*
X0143539Y0090508D01*
X0143539Y0084984D02*
X0123303Y0084984D01*
X0123303Y0086704D02*
X0143539Y0086704D01*
X0143539Y0088424D02*
X0123303Y0088424D01*
X0123303Y0090144D02*
X0143539Y0090144D01*
D15*
X0115704Y0099091D02*
X0115704Y0107752D01*
X0092476Y0107752D02*
X0092476Y0099091D01*
X0099562Y0084917D02*
X0108224Y0084917D01*
X0108224Y0136098D02*
X0099562Y0136098D01*
X0092476Y0150272D02*
X0092476Y0158933D01*
X0115704Y0158933D02*
X0115704Y0150272D01*
D16*
X0131452Y0156571D03*
X0131452Y0160508D03*
X0134523Y0153177D03*
X0146806Y0161689D03*
X0151137Y0146728D03*
X0174759Y0138854D03*
X0185070Y0135480D03*
X0194444Y0138854D03*
X0196413Y0142791D03*
X0196413Y0150665D03*
X0196413Y0158539D03*
X0196413Y0166413D03*
X0184602Y0170350D03*
X0172791Y0162476D03*
X0208224Y0168382D03*
X0216098Y0168382D03*
X0227909Y0166413D03*
X0227909Y0158539D03*
X0227909Y0150665D03*
X0227909Y0142791D03*
X0216098Y0140823D03*
X0208224Y0140823D03*
X0200350Y0130980D03*
X0196413Y0130980D03*
X0204287Y0121138D03*
X0186570Y0103421D03*
X0186570Y0093579D03*
X0194444Y0085705D03*
X0175547Y0087280D03*
X0170822Y0089642D03*
X0160980Y0095547D03*
X0166885Y0098303D03*
X0151137Y0091610D03*
X0145232Y0097516D03*
X0136491Y0098146D03*
X0132554Y0098146D03*
X0132554Y0102083D03*
X0147190Y0105400D03*
X0159011Y0109327D03*
X0166885Y0109838D03*
X0164917Y0130980D03*
X0119641Y0164445D03*
X0090113Y0190035D03*
X0082239Y0134917D03*
X0101924Y0093579D03*
X0131452Y0075862D03*
X0235783Y0130980D03*
X0259405Y0148697D03*
X0241688Y0174287D03*
X0263342Y0087673D03*
X0265310Y0067988D03*
X0239720Y0066020D03*
D17*
X0186570Y0093579D02*
X0184602Y0095547D01*
X0160980Y0095547D01*
X0147190Y0099474D02*
X0145232Y0097516D01*
X0147190Y0099474D02*
X0147190Y0105400D01*
X0166885Y0109838D02*
X0167396Y0109327D01*
X0180665Y0109327D01*
X0186570Y0103421D01*
X0196413Y0130980D02*
X0164917Y0130980D01*
X0174759Y0138854D02*
X0194444Y0138854D01*
D18*
X0172791Y0162476D02*
X0159011Y0148697D01*
X0159011Y0109327D01*
D19*
X0083192Y0060162D02*
X0081528Y0061371D01*
X0080319Y0063035D01*
X0079683Y0064991D01*
X0079602Y0066020D01*
X0079602Y0192004D01*
X0079683Y0193032D01*
X0080319Y0194988D01*
X0081528Y0196652D01*
X0083192Y0197861D01*
X0085148Y0198497D01*
X0086176Y0198578D01*
X0129484Y0198578D01*
X0129484Y0176565D01*
X0122555Y0176565D01*
X0121497Y0175508D01*
X0121497Y0166768D01*
X0122549Y0165715D01*
X0119434Y0162600D01*
X0118667Y0163367D01*
X0116744Y0164164D01*
X0114664Y0164164D01*
X0112741Y0163367D01*
X0111270Y0161896D01*
X0110473Y0159974D01*
X0110473Y0149231D01*
X0111270Y0147309D01*
X0112741Y0145837D01*
X0114664Y0145041D01*
X0116744Y0145041D01*
X0118667Y0145837D01*
X0120138Y0147309D01*
X0120935Y0149231D01*
X0120935Y0153203D01*
X0133442Y0165710D01*
X0144287Y0165710D01*
X0145344Y0166768D01*
X0145344Y0175508D01*
X0144896Y0175956D01*
X0270610Y0175956D01*
X0271927Y0174999D01*
X0273136Y0173335D01*
X0273772Y0171379D01*
X0273853Y0170350D01*
X0273853Y0066020D01*
X0273772Y0064991D01*
X0273136Y0063035D01*
X0271927Y0061371D01*
X0270263Y0060162D01*
X0268307Y0059527D01*
X0267279Y0059446D01*
X0086176Y0059446D01*
X0085148Y0059527D01*
X0083192Y0060162D01*
X0082672Y0060540D02*
X0270783Y0060540D01*
X0271607Y0061138D02*
X0081849Y0061138D01*
X0081262Y0061737D02*
X0272193Y0061737D01*
X0272628Y0062335D02*
X0080827Y0062335D01*
X0080393Y0062934D02*
X0273063Y0062934D01*
X0273298Y0063532D02*
X0080157Y0063532D01*
X0079963Y0064131D02*
X0273492Y0064131D01*
X0273687Y0064729D02*
X0079768Y0064729D01*
X0079657Y0065328D02*
X0273798Y0065328D01*
X0273845Y0065926D02*
X0079610Y0065926D01*
X0079602Y0066525D02*
X0273853Y0066525D01*
X0273853Y0067123D02*
X0079602Y0067123D01*
X0079602Y0067722D02*
X0151756Y0067722D01*
X0152230Y0067525D02*
X0153981Y0067525D01*
X0155598Y0068195D01*
X0156836Y0069433D01*
X0157506Y0071050D01*
X0157506Y0072800D01*
X0156836Y0074418D01*
X0155598Y0075655D01*
X0154895Y0075946D01*
X0160474Y0075946D01*
X0159979Y0075586D01*
X0159444Y0075052D01*
X0159000Y0074441D01*
X0158657Y0073768D01*
X0158424Y0073049D01*
X0158306Y0072303D01*
X0158306Y0072225D01*
X0162806Y0072225D01*
X0162806Y0071625D01*
X0163406Y0071625D01*
X0163406Y0072225D01*
X0167906Y0072225D01*
X0167906Y0072303D01*
X0167787Y0073049D01*
X0167554Y0073768D01*
X0167211Y0074441D01*
X0166767Y0075052D01*
X0166233Y0075586D01*
X0165737Y0075946D01*
X0176907Y0075946D01*
X0176204Y0075655D01*
X0174966Y0074418D01*
X0174296Y0072800D01*
X0174296Y0071050D01*
X0174966Y0069433D01*
X0176204Y0068195D01*
X0177821Y0067525D01*
X0179571Y0067525D01*
X0181189Y0068195D01*
X0182426Y0069433D01*
X0183096Y0071050D01*
X0183096Y0072800D01*
X0182426Y0074418D01*
X0181189Y0075655D01*
X0180486Y0075946D01*
X0186065Y0075946D01*
X0185569Y0075586D01*
X0185035Y0075052D01*
X0184591Y0074441D01*
X0184248Y0073768D01*
X0184014Y0073049D01*
X0183896Y0072303D01*
X0183896Y0072225D01*
X0188396Y0072225D01*
X0188396Y0071625D01*
X0188996Y0071625D01*
X0188996Y0067125D01*
X0189074Y0067125D01*
X0189820Y0067243D01*
X0190539Y0067477D01*
X0191212Y0067820D01*
X0191823Y0068264D01*
X0192357Y0068798D01*
X0192801Y0069409D01*
X0193144Y0070083D01*
X0193378Y0070801D01*
X0193496Y0071547D01*
X0193496Y0071625D01*
X0188996Y0071625D01*
X0188996Y0072225D01*
X0193496Y0072225D01*
X0193496Y0072303D01*
X0193378Y0073049D01*
X0193144Y0073768D01*
X0192801Y0074441D01*
X0192357Y0075052D01*
X0191823Y0075586D01*
X0191328Y0075946D01*
X0200177Y0075946D01*
X0200166Y0075927D01*
X0200077Y0075596D01*
X0200077Y0072225D01*
X0204577Y0072225D01*
X0204577Y0071625D01*
X0205177Y0071625D01*
X0205177Y0067125D01*
X0208548Y0067125D01*
X0208879Y0067214D01*
X0209175Y0067385D01*
X0209417Y0067627D01*
X0209589Y0067923D01*
X0209677Y0068254D01*
X0209677Y0071625D01*
X0205177Y0071625D01*
X0205177Y0072225D01*
X0209677Y0072225D01*
X0209677Y0075596D01*
X0209589Y0075927D01*
X0209577Y0075946D01*
X0213088Y0075946D01*
X0212385Y0075655D01*
X0211147Y0074418D01*
X0210477Y0072800D01*
X0210477Y0071050D01*
X0211147Y0069433D01*
X0212385Y0068195D01*
X0214002Y0067525D01*
X0215752Y0067525D01*
X0217370Y0068195D01*
X0218607Y0069433D01*
X0219277Y0071050D01*
X0219277Y0072800D01*
X0218607Y0074418D01*
X0217370Y0075655D01*
X0216667Y0075946D01*
X0220959Y0075946D01*
X0222375Y0076533D01*
X0223458Y0077617D01*
X0228521Y0082680D01*
X0228524Y0082679D01*
X0231231Y0082679D01*
X0233732Y0083715D01*
X0235647Y0085629D01*
X0236683Y0088131D01*
X0236683Y0090838D01*
X0235647Y0093339D01*
X0233732Y0095254D01*
X0231231Y0096290D01*
X0228524Y0096290D01*
X0226022Y0095254D01*
X0224108Y0093339D01*
X0223072Y0090838D01*
X0223072Y0088131D01*
X0223073Y0088128D01*
X0218596Y0083652D01*
X0145344Y0083652D01*
X0145344Y0091256D01*
X0144287Y0092313D01*
X0122555Y0092313D01*
X0121497Y0091256D01*
X0121497Y0082516D01*
X0122549Y0081463D01*
X0120801Y0079715D01*
X0109333Y0079715D01*
X0111187Y0080483D01*
X0112658Y0081954D01*
X0113454Y0083877D01*
X0113454Y0085958D01*
X0112658Y0087880D01*
X0111187Y0089352D01*
X0109264Y0090148D01*
X0098522Y0090148D01*
X0096599Y0089352D01*
X0095128Y0087880D01*
X0094332Y0085958D01*
X0094332Y0083877D01*
X0094953Y0082377D01*
X0088061Y0089269D01*
X0088061Y0096108D01*
X0089513Y0094656D01*
X0091435Y0093860D01*
X0093516Y0093860D01*
X0095439Y0094656D01*
X0096910Y0096128D01*
X0097706Y0098050D01*
X0097706Y0108792D01*
X0096910Y0110715D01*
X0095439Y0112186D01*
X0093516Y0112983D01*
X0091435Y0112983D01*
X0089513Y0112186D01*
X0088061Y0110734D01*
X0088061Y0111668D01*
X0097615Y0121222D01*
X0117258Y0121222D01*
X0118674Y0121809D01*
X0119758Y0122892D01*
X0119758Y0122892D01*
X0133442Y0136576D01*
X0144287Y0136576D01*
X0145344Y0137634D01*
X0145344Y0146374D01*
X0144287Y0147431D01*
X0122555Y0147431D01*
X0121497Y0146374D01*
X0121497Y0137634D01*
X0122549Y0136581D01*
X0114896Y0128928D01*
X0095253Y0128928D01*
X0093837Y0128341D01*
X0092753Y0127257D01*
X0082026Y0116530D01*
X0080942Y0115446D01*
X0080355Y0114030D01*
X0080355Y0086907D01*
X0080942Y0085491D01*
X0092753Y0073680D01*
X0093837Y0072596D01*
X0095253Y0072009D01*
X0123163Y0072009D01*
X0124579Y0072596D01*
X0125663Y0073680D01*
X0133421Y0081437D01*
X0137241Y0077617D01*
X0138325Y0076533D01*
X0139741Y0075946D01*
X0151316Y0075946D01*
X0150613Y0075655D01*
X0149375Y0074418D01*
X0148706Y0072800D01*
X0148706Y0071050D01*
X0149375Y0069433D01*
X0150613Y0068195D01*
X0152230Y0067525D01*
X0150488Y0068320D02*
X0079602Y0068320D01*
X0079602Y0068919D02*
X0149889Y0068919D01*
X0149340Y0069517D02*
X0079602Y0069517D01*
X0079602Y0070116D02*
X0149092Y0070116D01*
X0148845Y0070714D02*
X0079602Y0070714D01*
X0079602Y0071313D02*
X0148706Y0071313D01*
X0148706Y0071911D02*
X0079602Y0071911D01*
X0079602Y0072510D02*
X0094044Y0072510D01*
X0093324Y0073108D02*
X0079602Y0073108D01*
X0079602Y0073707D02*
X0092726Y0073707D01*
X0092127Y0074305D02*
X0079602Y0074305D01*
X0079602Y0074904D02*
X0091529Y0074904D01*
X0090930Y0075502D02*
X0079602Y0075502D01*
X0079602Y0076101D02*
X0090332Y0076101D01*
X0089733Y0076700D02*
X0079602Y0076700D01*
X0079602Y0077298D02*
X0089135Y0077298D01*
X0088536Y0077897D02*
X0079602Y0077897D01*
X0079602Y0078495D02*
X0087937Y0078495D01*
X0087339Y0079094D02*
X0079602Y0079094D01*
X0079602Y0079692D02*
X0086740Y0079692D01*
X0086142Y0080291D02*
X0079602Y0080291D01*
X0079602Y0080889D02*
X0085543Y0080889D01*
X0084945Y0081488D02*
X0079602Y0081488D01*
X0079602Y0082086D02*
X0084346Y0082086D01*
X0083748Y0082685D02*
X0079602Y0082685D01*
X0079602Y0083283D02*
X0083149Y0083283D01*
X0082551Y0083882D02*
X0079602Y0083882D01*
X0079602Y0084480D02*
X0081952Y0084480D01*
X0081354Y0085079D02*
X0079602Y0085079D01*
X0079602Y0085677D02*
X0080865Y0085677D01*
X0080617Y0086276D02*
X0079602Y0086276D01*
X0079602Y0086874D02*
X0080369Y0086874D01*
X0080355Y0087473D02*
X0079602Y0087473D01*
X0079602Y0088071D02*
X0080355Y0088071D01*
X0080355Y0088670D02*
X0079602Y0088670D01*
X0079602Y0089268D02*
X0080355Y0089268D01*
X0080355Y0089867D02*
X0079602Y0089867D01*
X0079602Y0090465D02*
X0080355Y0090465D01*
X0080355Y0091064D02*
X0079602Y0091064D01*
X0079602Y0091662D02*
X0080355Y0091662D01*
X0080355Y0092261D02*
X0079602Y0092261D01*
X0079602Y0092859D02*
X0080355Y0092859D01*
X0080355Y0093458D02*
X0079602Y0093458D01*
X0079602Y0094056D02*
X0080355Y0094056D01*
X0080355Y0094655D02*
X0079602Y0094655D01*
X0079602Y0095253D02*
X0080355Y0095253D01*
X0080355Y0095852D02*
X0079602Y0095852D01*
X0079602Y0096450D02*
X0080355Y0096450D01*
X0080355Y0097049D02*
X0079602Y0097049D01*
X0079602Y0097647D02*
X0080355Y0097647D01*
X0080355Y0098246D02*
X0079602Y0098246D01*
X0079602Y0098844D02*
X0080355Y0098844D01*
X0080355Y0099443D02*
X0079602Y0099443D01*
X0079602Y0100041D02*
X0080355Y0100041D01*
X0080355Y0100640D02*
X0079602Y0100640D01*
X0079602Y0101238D02*
X0080355Y0101238D01*
X0080355Y0101837D02*
X0079602Y0101837D01*
X0079602Y0102436D02*
X0080355Y0102436D01*
X0080355Y0103034D02*
X0079602Y0103034D01*
X0079602Y0103633D02*
X0080355Y0103633D01*
X0080355Y0104231D02*
X0079602Y0104231D01*
X0079602Y0104830D02*
X0080355Y0104830D01*
X0080355Y0105428D02*
X0079602Y0105428D01*
X0079602Y0106027D02*
X0080355Y0106027D01*
X0080355Y0106625D02*
X0079602Y0106625D01*
X0079602Y0107224D02*
X0080355Y0107224D01*
X0080355Y0107822D02*
X0079602Y0107822D01*
X0079602Y0108421D02*
X0080355Y0108421D01*
X0080355Y0109019D02*
X0079602Y0109019D01*
X0079602Y0109618D02*
X0080355Y0109618D01*
X0080355Y0110216D02*
X0079602Y0110216D01*
X0079602Y0110815D02*
X0080355Y0110815D01*
X0080355Y0111413D02*
X0079602Y0111413D01*
X0079602Y0112012D02*
X0080355Y0112012D01*
X0080355Y0112610D02*
X0079602Y0112610D01*
X0079602Y0113209D02*
X0080355Y0113209D01*
X0080355Y0113807D02*
X0079602Y0113807D01*
X0079602Y0114406D02*
X0080511Y0114406D01*
X0080759Y0115004D02*
X0079602Y0115004D01*
X0079602Y0115603D02*
X0081098Y0115603D01*
X0081697Y0116201D02*
X0079602Y0116201D01*
X0079602Y0116800D02*
X0082295Y0116800D01*
X0082894Y0117398D02*
X0079602Y0117398D01*
X0079602Y0117997D02*
X0083492Y0117997D01*
X0084091Y0118595D02*
X0079602Y0118595D01*
X0079602Y0119194D02*
X0084689Y0119194D01*
X0085288Y0119792D02*
X0079602Y0119792D01*
X0079602Y0120391D02*
X0085886Y0120391D01*
X0086485Y0120989D02*
X0079602Y0120989D01*
X0079602Y0121588D02*
X0087083Y0121588D01*
X0087682Y0122186D02*
X0079602Y0122186D01*
X0079602Y0122785D02*
X0088280Y0122785D01*
X0088879Y0123383D02*
X0079602Y0123383D01*
X0079602Y0123982D02*
X0089477Y0123982D01*
X0090076Y0124580D02*
X0079602Y0124580D01*
X0079602Y0125179D02*
X0090674Y0125179D01*
X0091273Y0125777D02*
X0079602Y0125777D01*
X0079602Y0126376D02*
X0091872Y0126376D01*
X0092470Y0126974D02*
X0079602Y0126974D01*
X0079602Y0127573D02*
X0093069Y0127573D01*
X0092753Y0127257D02*
X0092753Y0127257D01*
X0093667Y0128171D02*
X0079602Y0128171D01*
X0079602Y0128770D02*
X0094872Y0128770D01*
X0096599Y0131664D02*
X0098522Y0130868D01*
X0109264Y0130868D01*
X0111187Y0131664D01*
X0112658Y0133135D01*
X0113454Y0135058D01*
X0113454Y0137139D01*
X0112658Y0139061D01*
X0111187Y0140533D01*
X0109264Y0141329D01*
X0098522Y0141329D01*
X0096599Y0140533D01*
X0095128Y0139061D01*
X0094332Y0137139D01*
X0094332Y0135058D01*
X0095128Y0133135D01*
X0096599Y0131664D01*
X0096501Y0131763D02*
X0079602Y0131763D01*
X0079602Y0132361D02*
X0095902Y0132361D01*
X0095304Y0132960D02*
X0079602Y0132960D01*
X0079602Y0133558D02*
X0094953Y0133558D01*
X0094705Y0134157D02*
X0079602Y0134157D01*
X0079602Y0134755D02*
X0094457Y0134755D01*
X0094332Y0135354D02*
X0079602Y0135354D01*
X0079602Y0135952D02*
X0094332Y0135952D01*
X0094332Y0136551D02*
X0079602Y0136551D01*
X0079602Y0137149D02*
X0094336Y0137149D01*
X0094584Y0137748D02*
X0079602Y0137748D01*
X0079602Y0138346D02*
X0094832Y0138346D01*
X0095080Y0138945D02*
X0079602Y0138945D01*
X0079602Y0139543D02*
X0095610Y0139543D01*
X0096208Y0140142D02*
X0079602Y0140142D01*
X0079602Y0140740D02*
X0097100Y0140740D01*
X0094693Y0145528D02*
X0113487Y0145528D01*
X0112451Y0146127D02*
X0095728Y0146127D01*
X0095439Y0145837D02*
X0096910Y0147309D01*
X0097706Y0149231D01*
X0097706Y0159974D01*
X0096910Y0161896D01*
X0095439Y0163367D01*
X0093516Y0164164D01*
X0091435Y0164164D01*
X0089513Y0163367D01*
X0088041Y0161896D01*
X0087245Y0159974D01*
X0087245Y0149231D01*
X0088041Y0147309D01*
X0089513Y0145837D01*
X0091435Y0145041D01*
X0093516Y0145041D01*
X0095439Y0145837D01*
X0096327Y0146725D02*
X0111853Y0146725D01*
X0111263Y0147324D02*
X0096916Y0147324D01*
X0097164Y0147922D02*
X0111015Y0147922D01*
X0110768Y0148521D02*
X0097412Y0148521D01*
X0097660Y0149119D02*
X0110520Y0149119D01*
X0110473Y0149718D02*
X0097706Y0149718D01*
X0097706Y0150316D02*
X0110473Y0150316D01*
X0110473Y0150915D02*
X0097706Y0150915D01*
X0097706Y0151513D02*
X0110473Y0151513D01*
X0110473Y0152112D02*
X0097706Y0152112D01*
X0097706Y0152710D02*
X0110473Y0152710D01*
X0110473Y0153309D02*
X0097706Y0153309D01*
X0097706Y0153907D02*
X0110473Y0153907D01*
X0110473Y0154506D02*
X0097706Y0154506D01*
X0097706Y0155105D02*
X0110473Y0155105D01*
X0110473Y0155703D02*
X0097706Y0155703D01*
X0097706Y0156302D02*
X0110473Y0156302D01*
X0110473Y0156900D02*
X0097706Y0156900D01*
X0097706Y0157499D02*
X0110473Y0157499D01*
X0110473Y0158097D02*
X0097706Y0158097D01*
X0097706Y0158696D02*
X0110473Y0158696D01*
X0110473Y0159294D02*
X0097706Y0159294D01*
X0097706Y0159893D02*
X0110473Y0159893D01*
X0110688Y0160491D02*
X0097492Y0160491D01*
X0097244Y0161090D02*
X0110936Y0161090D01*
X0111184Y0161688D02*
X0096996Y0161688D01*
X0096519Y0162287D02*
X0111660Y0162287D01*
X0112259Y0162885D02*
X0095921Y0162885D01*
X0095158Y0163484D02*
X0113022Y0163484D01*
X0114467Y0164082D02*
X0093713Y0164082D01*
X0091238Y0164082D02*
X0079602Y0164082D01*
X0079602Y0163484D02*
X0089793Y0163484D01*
X0089030Y0162885D02*
X0079602Y0162885D01*
X0079602Y0162287D02*
X0088432Y0162287D01*
X0087955Y0161688D02*
X0079602Y0161688D01*
X0079602Y0161090D02*
X0087707Y0161090D01*
X0087459Y0160491D02*
X0079602Y0160491D01*
X0079602Y0159893D02*
X0087245Y0159893D01*
X0087245Y0159294D02*
X0079602Y0159294D01*
X0079602Y0158696D02*
X0087245Y0158696D01*
X0087245Y0158097D02*
X0079602Y0158097D01*
X0079602Y0157499D02*
X0087245Y0157499D01*
X0087245Y0156900D02*
X0079602Y0156900D01*
X0079602Y0156302D02*
X0087245Y0156302D01*
X0087245Y0155703D02*
X0079602Y0155703D01*
X0079602Y0155105D02*
X0087245Y0155105D01*
X0087245Y0154506D02*
X0079602Y0154506D01*
X0079602Y0153907D02*
X0087245Y0153907D01*
X0087245Y0153309D02*
X0079602Y0153309D01*
X0079602Y0152710D02*
X0087245Y0152710D01*
X0087245Y0152112D02*
X0079602Y0152112D01*
X0079602Y0151513D02*
X0087245Y0151513D01*
X0087245Y0150915D02*
X0079602Y0150915D01*
X0079602Y0150316D02*
X0087245Y0150316D01*
X0087245Y0149718D02*
X0079602Y0149718D01*
X0079602Y0149119D02*
X0087291Y0149119D01*
X0087539Y0148521D02*
X0079602Y0148521D01*
X0079602Y0147922D02*
X0087787Y0147922D01*
X0088035Y0147324D02*
X0079602Y0147324D01*
X0079602Y0146725D02*
X0088625Y0146725D01*
X0089223Y0146127D02*
X0079602Y0146127D01*
X0079602Y0145528D02*
X0090259Y0145528D01*
X0079602Y0144930D02*
X0121497Y0144930D01*
X0121497Y0145528D02*
X0117921Y0145528D01*
X0118957Y0146127D02*
X0121497Y0146127D01*
X0121848Y0146725D02*
X0119555Y0146725D01*
X0120145Y0147324D02*
X0122447Y0147324D01*
X0120393Y0147922D02*
X0156911Y0147922D01*
X0156911Y0147324D02*
X0144394Y0147324D01*
X0144993Y0146725D02*
X0156911Y0146725D01*
X0156911Y0146127D02*
X0145344Y0146127D01*
X0145344Y0145528D02*
X0156911Y0145528D01*
X0156911Y0144930D02*
X0145344Y0144930D01*
X0145344Y0144331D02*
X0156911Y0144331D01*
X0156911Y0143733D02*
X0145344Y0143733D01*
X0145344Y0143134D02*
X0156911Y0143134D01*
X0156911Y0142536D02*
X0145344Y0142536D01*
X0145344Y0141937D02*
X0156911Y0141937D01*
X0156911Y0141339D02*
X0145344Y0141339D01*
X0145344Y0140740D02*
X0156911Y0140740D01*
X0156911Y0140142D02*
X0145344Y0140142D01*
X0145344Y0139543D02*
X0156911Y0139543D01*
X0156911Y0138945D02*
X0145344Y0138945D01*
X0145344Y0138346D02*
X0156911Y0138346D01*
X0156911Y0137748D02*
X0145344Y0137748D01*
X0144859Y0137149D02*
X0156911Y0137149D01*
X0156911Y0136551D02*
X0133416Y0136551D01*
X0132817Y0135952D02*
X0156911Y0135952D01*
X0156911Y0135354D02*
X0132219Y0135354D01*
X0131620Y0134755D02*
X0156911Y0134755D01*
X0156911Y0134157D02*
X0131022Y0134157D01*
X0130423Y0133558D02*
X0156911Y0133558D01*
X0156911Y0132960D02*
X0129825Y0132960D01*
X0129226Y0132361D02*
X0156911Y0132361D01*
X0156911Y0131763D02*
X0128628Y0131763D01*
X0128029Y0131164D02*
X0156911Y0131164D01*
X0156911Y0130566D02*
X0127431Y0130566D01*
X0126832Y0129967D02*
X0156911Y0129967D01*
X0156911Y0129369D02*
X0126234Y0129369D01*
X0125635Y0128770D02*
X0156911Y0128770D01*
X0156911Y0128171D02*
X0125037Y0128171D01*
X0124438Y0127573D02*
X0156911Y0127573D01*
X0156911Y0126974D02*
X0123840Y0126974D01*
X0123241Y0126376D02*
X0156911Y0126376D01*
X0156911Y0125777D02*
X0122643Y0125777D01*
X0122044Y0125179D02*
X0156911Y0125179D01*
X0156911Y0124580D02*
X0121446Y0124580D01*
X0120847Y0123982D02*
X0156911Y0123982D01*
X0156911Y0123383D02*
X0120249Y0123383D01*
X0119650Y0122785D02*
X0156911Y0122785D01*
X0156911Y0122186D02*
X0119052Y0122186D01*
X0118141Y0121588D02*
X0156911Y0121588D01*
X0156911Y0120989D02*
X0144744Y0120989D01*
X0144287Y0121447D02*
X0122555Y0121447D01*
X0121497Y0120390D01*
X0121497Y0111650D01*
X0122549Y0110597D01*
X0120879Y0108927D01*
X0120138Y0110715D01*
X0118667Y0112186D01*
X0116744Y0112983D01*
X0114664Y0112983D01*
X0112741Y0112186D01*
X0111270Y0110715D01*
X0110473Y0108792D01*
X0110473Y0098050D01*
X0111270Y0096128D01*
X0112741Y0094656D01*
X0114664Y0093860D01*
X0116744Y0093860D01*
X0118667Y0094656D01*
X0120138Y0096128D01*
X0120935Y0098050D01*
X0120935Y0099569D01*
X0121588Y0099569D01*
X0123005Y0100155D01*
X0124088Y0101239D01*
X0133442Y0110592D01*
X0144287Y0110592D01*
X0145344Y0111650D01*
X0145344Y0120390D01*
X0144287Y0121447D01*
X0145343Y0120391D02*
X0156911Y0120391D01*
X0156911Y0119792D02*
X0145344Y0119792D01*
X0145344Y0119194D02*
X0156911Y0119194D01*
X0156911Y0118595D02*
X0145344Y0118595D01*
X0145344Y0117997D02*
X0156911Y0117997D01*
X0156911Y0117398D02*
X0145344Y0117398D01*
X0145344Y0116800D02*
X0156911Y0116800D01*
X0156911Y0116201D02*
X0145344Y0116201D01*
X0145344Y0115603D02*
X0156911Y0115603D01*
X0156911Y0115004D02*
X0145344Y0115004D01*
X0145344Y0114406D02*
X0156911Y0114406D01*
X0156911Y0113807D02*
X0145344Y0113807D01*
X0145344Y0113209D02*
X0156911Y0113209D01*
X0156911Y0112610D02*
X0145344Y0112610D01*
X0145344Y0112012D02*
X0156911Y0112012D01*
X0156911Y0111413D02*
X0145108Y0111413D01*
X0144509Y0110815D02*
X0156911Y0110815D01*
X0156911Y0110322D02*
X0156822Y0110233D01*
X0156822Y0108420D01*
X0158104Y0107138D01*
X0159918Y0107138D01*
X0161200Y0108420D01*
X0161200Y0110233D01*
X0161111Y0110322D01*
X0161111Y0147827D01*
X0173571Y0160287D01*
X0173697Y0160287D01*
X0174980Y0161570D01*
X0174980Y0163383D01*
X0173697Y0164665D01*
X0171884Y0164665D01*
X0170602Y0163383D01*
X0170602Y0163257D01*
X0156911Y0149567D01*
X0156911Y0110322D01*
X0156822Y0110216D02*
X0133066Y0110216D01*
X0132467Y0109618D02*
X0156822Y0109618D01*
X0156822Y0109019D02*
X0131869Y0109019D01*
X0131270Y0108421D02*
X0156822Y0108421D01*
X0157420Y0107822D02*
X0130672Y0107822D01*
X0130073Y0107224D02*
X0145917Y0107224D01*
X0146283Y0107589D02*
X0145001Y0106307D01*
X0145001Y0104494D01*
X0145790Y0103705D01*
X0145790Y0100054D01*
X0145441Y0099705D01*
X0144325Y0099705D01*
X0143043Y0098422D01*
X0143043Y0096609D01*
X0144325Y0095327D01*
X0146138Y0095327D01*
X0147421Y0096609D01*
X0147421Y0097725D01*
X0148590Y0098894D01*
X0148590Y0103705D01*
X0149379Y0104494D01*
X0149379Y0106307D01*
X0148096Y0107589D01*
X0146283Y0107589D01*
X0145319Y0106625D02*
X0129475Y0106625D01*
X0128876Y0106027D02*
X0145001Y0106027D01*
X0145001Y0105428D02*
X0128278Y0105428D01*
X0127679Y0104830D02*
X0145001Y0104830D01*
X0145263Y0104231D02*
X0127081Y0104231D01*
X0126482Y0103633D02*
X0145790Y0103633D01*
X0145790Y0103034D02*
X0125884Y0103034D01*
X0125285Y0102436D02*
X0145790Y0102436D01*
X0145790Y0101837D02*
X0124686Y0101837D01*
X0124088Y0101238D02*
X0145790Y0101238D01*
X0145790Y0100640D02*
X0123489Y0100640D01*
X0122730Y0100041D02*
X0145777Y0100041D01*
X0144063Y0099443D02*
X0120935Y0099443D01*
X0120935Y0098844D02*
X0143465Y0098844D01*
X0143043Y0098246D02*
X0120935Y0098246D01*
X0120768Y0097647D02*
X0143043Y0097647D01*
X0143043Y0097049D02*
X0120520Y0097049D01*
X0120272Y0096450D02*
X0143201Y0096450D01*
X0143800Y0095852D02*
X0119863Y0095852D01*
X0119264Y0095253D02*
X0158791Y0095253D01*
X0158791Y0094655D02*
X0118664Y0094655D01*
X0117219Y0094056D02*
X0159375Y0094056D01*
X0158791Y0094641D02*
X0160073Y0093358D01*
X0161886Y0093358D01*
X0162675Y0094147D01*
X0184022Y0094147D01*
X0184381Y0093788D01*
X0184381Y0092672D01*
X0185663Y0091390D01*
X0187477Y0091390D01*
X0188759Y0092672D01*
X0188759Y0094485D01*
X0187477Y0095768D01*
X0186361Y0095768D01*
X0185182Y0096947D01*
X0162675Y0096947D01*
X0161886Y0097736D01*
X0160073Y0097736D01*
X0158791Y0096454D01*
X0158791Y0094641D01*
X0158791Y0095852D02*
X0146663Y0095852D01*
X0147262Y0096450D02*
X0158791Y0096450D01*
X0159386Y0097049D02*
X0147421Y0097049D01*
X0147421Y0097647D02*
X0159984Y0097647D01*
X0161975Y0097647D02*
X0273853Y0097647D01*
X0273853Y0097049D02*
X0162574Y0097049D01*
X0162584Y0094056D02*
X0184113Y0094056D01*
X0184381Y0093458D02*
X0161986Y0093458D01*
X0159973Y0093458D02*
X0088061Y0093458D01*
X0088061Y0094056D02*
X0090961Y0094056D01*
X0089516Y0094655D02*
X0088061Y0094655D01*
X0088061Y0095253D02*
X0088915Y0095253D01*
X0088317Y0095852D02*
X0088061Y0095852D01*
X0088061Y0092859D02*
X0184381Y0092859D01*
X0184792Y0092261D02*
X0144339Y0092261D01*
X0144938Y0091662D02*
X0185391Y0091662D01*
X0187749Y0091662D02*
X0223413Y0091662D01*
X0223165Y0091064D02*
X0145344Y0091064D01*
X0145344Y0090465D02*
X0223072Y0090465D01*
X0223072Y0089867D02*
X0145344Y0089867D01*
X0145344Y0089268D02*
X0223072Y0089268D01*
X0223072Y0088670D02*
X0145344Y0088670D01*
X0145344Y0088071D02*
X0223016Y0088071D01*
X0222417Y0087473D02*
X0145344Y0087473D01*
X0145344Y0086874D02*
X0221819Y0086874D01*
X0221220Y0086276D02*
X0145344Y0086276D01*
X0145344Y0085677D02*
X0220622Y0085677D01*
X0220023Y0085079D02*
X0145344Y0085079D01*
X0145344Y0084480D02*
X0219425Y0084480D01*
X0218826Y0083882D02*
X0145344Y0083882D01*
X0136363Y0078495D02*
X0130478Y0078495D01*
X0129880Y0077897D02*
X0136961Y0077897D01*
X0137560Y0077298D02*
X0129281Y0077298D01*
X0128683Y0076700D02*
X0138158Y0076700D01*
X0139368Y0076101D02*
X0128084Y0076101D01*
X0127486Y0075502D02*
X0150460Y0075502D01*
X0149862Y0074904D02*
X0126887Y0074904D01*
X0126289Y0074305D02*
X0149329Y0074305D01*
X0149081Y0073707D02*
X0125690Y0073707D01*
X0125092Y0073108D02*
X0148833Y0073108D01*
X0148706Y0072510D02*
X0124372Y0072510D01*
X0121377Y0080291D02*
X0110722Y0080291D01*
X0111593Y0080889D02*
X0121975Y0080889D01*
X0122525Y0081488D02*
X0112191Y0081488D01*
X0112713Y0082086D02*
X0121927Y0082086D01*
X0121497Y0082685D02*
X0112961Y0082685D01*
X0113208Y0083283D02*
X0121497Y0083283D01*
X0121497Y0083882D02*
X0113454Y0083882D01*
X0113454Y0084480D02*
X0121497Y0084480D01*
X0121497Y0085079D02*
X0113454Y0085079D01*
X0113454Y0085677D02*
X0121497Y0085677D01*
X0121497Y0086276D02*
X0113323Y0086276D01*
X0113075Y0086874D02*
X0121497Y0086874D01*
X0121497Y0087473D02*
X0112827Y0087473D01*
X0112467Y0088071D02*
X0121497Y0088071D01*
X0121497Y0088670D02*
X0111869Y0088670D01*
X0111270Y0089268D02*
X0121497Y0089268D01*
X0121497Y0089867D02*
X0109943Y0089867D01*
X0112744Y0094655D02*
X0095435Y0094655D01*
X0096036Y0095253D02*
X0112144Y0095253D01*
X0111545Y0095852D02*
X0096634Y0095852D01*
X0097044Y0096450D02*
X0111136Y0096450D01*
X0110888Y0097049D02*
X0097292Y0097049D01*
X0097540Y0097647D02*
X0110640Y0097647D01*
X0110473Y0098246D02*
X0097706Y0098246D01*
X0097706Y0098844D02*
X0110473Y0098844D01*
X0110473Y0099443D02*
X0097706Y0099443D01*
X0097706Y0100041D02*
X0110473Y0100041D01*
X0110473Y0100640D02*
X0097706Y0100640D01*
X0097706Y0101238D02*
X0110473Y0101238D01*
X0110473Y0101837D02*
X0097706Y0101837D01*
X0097706Y0102436D02*
X0110473Y0102436D01*
X0110473Y0103034D02*
X0097706Y0103034D01*
X0097706Y0103633D02*
X0110473Y0103633D01*
X0110473Y0104231D02*
X0097706Y0104231D01*
X0097706Y0104830D02*
X0110473Y0104830D01*
X0110473Y0105428D02*
X0097706Y0105428D01*
X0097706Y0106027D02*
X0110473Y0106027D01*
X0110473Y0106625D02*
X0097706Y0106625D01*
X0097706Y0107224D02*
X0110473Y0107224D01*
X0110473Y0107822D02*
X0097706Y0107822D01*
X0097706Y0108421D02*
X0110473Y0108421D01*
X0110567Y0109019D02*
X0097612Y0109019D01*
X0097365Y0109618D02*
X0110815Y0109618D01*
X0111063Y0110216D02*
X0097117Y0110216D01*
X0096810Y0110815D02*
X0111369Y0110815D01*
X0111968Y0111413D02*
X0096212Y0111413D01*
X0095613Y0112012D02*
X0112566Y0112012D01*
X0113764Y0112610D02*
X0094415Y0112610D01*
X0091996Y0115603D02*
X0121497Y0115603D01*
X0121497Y0116201D02*
X0092594Y0116201D01*
X0093193Y0116800D02*
X0121497Y0116800D01*
X0121497Y0117398D02*
X0093791Y0117398D01*
X0094390Y0117997D02*
X0121497Y0117997D01*
X0121497Y0118595D02*
X0094988Y0118595D01*
X0095587Y0119194D02*
X0121497Y0119194D01*
X0121497Y0119792D02*
X0096185Y0119792D01*
X0096784Y0120391D02*
X0121498Y0120391D01*
X0122097Y0120989D02*
X0097382Y0120989D01*
X0091397Y0115004D02*
X0121497Y0115004D01*
X0121497Y0114406D02*
X0090799Y0114406D01*
X0090200Y0113807D02*
X0121497Y0113807D01*
X0121497Y0113209D02*
X0089602Y0113209D01*
X0089003Y0112610D02*
X0090536Y0112610D01*
X0089338Y0112012D02*
X0088404Y0112012D01*
X0088740Y0111413D02*
X0088061Y0111413D01*
X0088061Y0110815D02*
X0088141Y0110815D01*
X0093991Y0094056D02*
X0114189Y0094056D01*
X0121497Y0091064D02*
X0088061Y0091064D01*
X0088061Y0091662D02*
X0121903Y0091662D01*
X0122502Y0092261D02*
X0088061Y0092261D01*
X0088061Y0090465D02*
X0121497Y0090465D01*
X0132872Y0080889D02*
X0133969Y0080889D01*
X0134567Y0080291D02*
X0132274Y0080291D01*
X0131675Y0079692D02*
X0135166Y0079692D01*
X0135764Y0079094D02*
X0131077Y0079094D01*
X0155751Y0075502D02*
X0159895Y0075502D01*
X0159337Y0074904D02*
X0156349Y0074904D01*
X0156882Y0074305D02*
X0158931Y0074305D01*
X0158638Y0073707D02*
X0157130Y0073707D01*
X0157378Y0073108D02*
X0158443Y0073108D01*
X0158338Y0072510D02*
X0157506Y0072510D01*
X0157506Y0071911D02*
X0162806Y0071911D01*
X0162806Y0071625D02*
X0158306Y0071625D01*
X0158306Y0071547D01*
X0158424Y0070801D01*
X0158657Y0070083D01*
X0159000Y0069409D01*
X0159444Y0068798D01*
X0159979Y0068264D01*
X0160590Y0067820D01*
X0161263Y0067477D01*
X0161982Y0067243D01*
X0162728Y0067125D01*
X0162806Y0067125D01*
X0162806Y0071625D01*
X0162806Y0071313D02*
X0163406Y0071313D01*
X0163406Y0071625D02*
X0163406Y0067125D01*
X0163483Y0067125D01*
X0164230Y0067243D01*
X0164948Y0067477D01*
X0165621Y0067820D01*
X0166233Y0068264D01*
X0166767Y0068798D01*
X0167211Y0069409D01*
X0167554Y0070083D01*
X0167787Y0070801D01*
X0167906Y0071547D01*
X0167906Y0071625D01*
X0163406Y0071625D01*
X0163406Y0071911D02*
X0174296Y0071911D01*
X0174296Y0071313D02*
X0167868Y0071313D01*
X0167759Y0070714D02*
X0174435Y0070714D01*
X0174683Y0070116D02*
X0167565Y0070116D01*
X0167266Y0069517D02*
X0174931Y0069517D01*
X0175480Y0068919D02*
X0166854Y0068919D01*
X0166289Y0068320D02*
X0176078Y0068320D01*
X0177346Y0067722D02*
X0165429Y0067722D01*
X0163406Y0067722D02*
X0162806Y0067722D01*
X0162806Y0068320D02*
X0163406Y0068320D01*
X0163406Y0068919D02*
X0162806Y0068919D01*
X0162806Y0069517D02*
X0163406Y0069517D01*
X0163406Y0070116D02*
X0162806Y0070116D01*
X0162806Y0070714D02*
X0163406Y0070714D01*
X0160782Y0067722D02*
X0154456Y0067722D01*
X0155723Y0068320D02*
X0159922Y0068320D01*
X0159357Y0068919D02*
X0156322Y0068919D01*
X0156871Y0069517D02*
X0158945Y0069517D01*
X0158646Y0070116D02*
X0157119Y0070116D01*
X0157367Y0070714D02*
X0158452Y0070714D01*
X0158343Y0071313D02*
X0157506Y0071313D01*
X0166316Y0075502D02*
X0176051Y0075502D01*
X0175452Y0074904D02*
X0166874Y0074904D01*
X0167280Y0074305D02*
X0174920Y0074305D01*
X0174672Y0073707D02*
X0167574Y0073707D01*
X0167768Y0073108D02*
X0174424Y0073108D01*
X0174296Y0072510D02*
X0167873Y0072510D01*
X0180046Y0067722D02*
X0186373Y0067722D01*
X0186180Y0067820D02*
X0186854Y0067477D01*
X0187572Y0067243D01*
X0188318Y0067125D01*
X0188396Y0067125D01*
X0188396Y0071625D01*
X0183896Y0071625D01*
X0183896Y0071547D01*
X0184014Y0070801D01*
X0184248Y0070083D01*
X0184591Y0069409D01*
X0185035Y0068798D01*
X0185569Y0068264D01*
X0186180Y0067820D01*
X0185513Y0068320D02*
X0181314Y0068320D01*
X0181912Y0068919D02*
X0184947Y0068919D01*
X0184536Y0069517D02*
X0182461Y0069517D01*
X0182709Y0070116D02*
X0184237Y0070116D01*
X0184043Y0070714D02*
X0182957Y0070714D01*
X0183096Y0071313D02*
X0183933Y0071313D01*
X0183096Y0071911D02*
X0188396Y0071911D01*
X0188396Y0071313D02*
X0188996Y0071313D01*
X0188996Y0071911D02*
X0204577Y0071911D01*
X0204577Y0071625D02*
X0200077Y0071625D01*
X0200077Y0068254D01*
X0200166Y0067923D01*
X0200337Y0067627D01*
X0200579Y0067385D01*
X0200875Y0067214D01*
X0201206Y0067125D01*
X0204577Y0067125D01*
X0204577Y0071625D01*
X0204577Y0071313D02*
X0205177Y0071313D01*
X0205177Y0071911D02*
X0210477Y0071911D01*
X0210477Y0071313D02*
X0209677Y0071313D01*
X0209677Y0070714D02*
X0210616Y0070714D01*
X0210864Y0070116D02*
X0209677Y0070116D01*
X0209677Y0069517D02*
X0211112Y0069517D01*
X0211661Y0068919D02*
X0209677Y0068919D01*
X0209677Y0068320D02*
X0212260Y0068320D01*
X0213527Y0067722D02*
X0209472Y0067722D01*
X0205177Y0067722D02*
X0204577Y0067722D01*
X0204577Y0068320D02*
X0205177Y0068320D01*
X0205177Y0068919D02*
X0204577Y0068919D01*
X0204577Y0069517D02*
X0205177Y0069517D01*
X0205177Y0070116D02*
X0204577Y0070116D01*
X0204577Y0070714D02*
X0205177Y0070714D01*
X0209677Y0072510D02*
X0210477Y0072510D01*
X0210605Y0073108D02*
X0209677Y0073108D01*
X0209677Y0073707D02*
X0210853Y0073707D01*
X0211101Y0074305D02*
X0209677Y0074305D01*
X0209677Y0074904D02*
X0211633Y0074904D01*
X0212232Y0075502D02*
X0209677Y0075502D01*
X0217522Y0075502D02*
X0222232Y0075502D01*
X0222385Y0075655D02*
X0221147Y0074418D01*
X0220477Y0072800D01*
X0220477Y0071050D01*
X0221147Y0069433D01*
X0222385Y0068195D01*
X0224002Y0067525D01*
X0225752Y0067525D01*
X0227370Y0068195D01*
X0228607Y0069433D01*
X0229277Y0071050D01*
X0229277Y0072800D01*
X0228607Y0074418D01*
X0227370Y0075655D01*
X0225752Y0076325D01*
X0224002Y0076325D01*
X0222385Y0075655D01*
X0222541Y0076700D02*
X0273853Y0076700D01*
X0273853Y0077298D02*
X0223140Y0077298D01*
X0223458Y0077617D02*
X0223458Y0077617D01*
X0223738Y0077897D02*
X0273853Y0077897D01*
X0273853Y0078495D02*
X0224337Y0078495D01*
X0224935Y0079094D02*
X0273853Y0079094D01*
X0273853Y0079692D02*
X0225534Y0079692D01*
X0226132Y0080291D02*
X0273853Y0080291D01*
X0273853Y0080889D02*
X0226731Y0080889D01*
X0227329Y0081488D02*
X0273853Y0081488D01*
X0273853Y0082086D02*
X0227928Y0082086D01*
X0231245Y0082685D02*
X0273853Y0082685D01*
X0273853Y0083283D02*
X0232690Y0083283D01*
X0233899Y0083882D02*
X0273853Y0083882D01*
X0273853Y0084480D02*
X0234498Y0084480D01*
X0235096Y0085079D02*
X0273853Y0085079D01*
X0273853Y0085677D02*
X0235667Y0085677D01*
X0235914Y0086276D02*
X0273853Y0086276D01*
X0273853Y0086874D02*
X0236162Y0086874D01*
X0236410Y0087473D02*
X0273853Y0087473D01*
X0273853Y0088071D02*
X0236658Y0088071D01*
X0236683Y0088670D02*
X0273853Y0088670D01*
X0273853Y0089268D02*
X0236683Y0089268D01*
X0236683Y0089867D02*
X0273853Y0089867D01*
X0273853Y0090465D02*
X0236683Y0090465D01*
X0236589Y0091064D02*
X0273853Y0091064D01*
X0273853Y0091662D02*
X0236341Y0091662D01*
X0236093Y0092261D02*
X0273853Y0092261D01*
X0273853Y0092859D02*
X0235845Y0092859D01*
X0235528Y0093458D02*
X0273853Y0093458D01*
X0273853Y0094056D02*
X0234930Y0094056D01*
X0234331Y0094655D02*
X0273853Y0094655D01*
X0273853Y0095253D02*
X0233733Y0095253D01*
X0232288Y0095852D02*
X0273853Y0095852D01*
X0273853Y0096450D02*
X0185678Y0096450D01*
X0186277Y0095852D02*
X0227466Y0095852D01*
X0226022Y0095253D02*
X0187991Y0095253D01*
X0188590Y0094655D02*
X0225423Y0094655D01*
X0224825Y0094056D02*
X0188759Y0094056D01*
X0188759Y0093458D02*
X0224226Y0093458D01*
X0223909Y0092859D02*
X0188759Y0092859D01*
X0188348Y0092261D02*
X0223661Y0092261D01*
X0227556Y0102646D02*
X0228468Y0102402D01*
X0229405Y0102279D01*
X0229577Y0102279D01*
X0229577Y0109184D01*
X0222672Y0109184D01*
X0222672Y0109012D01*
X0222795Y0108076D01*
X0223039Y0107163D01*
X0223401Y0106290D01*
X0223873Y0105472D01*
X0224448Y0104723D01*
X0225116Y0104055D01*
X0225865Y0103480D01*
X0226683Y0103008D01*
X0227556Y0102646D01*
X0228344Y0102436D02*
X0188680Y0102436D01*
X0188759Y0102515D02*
X0187477Y0101232D01*
X0185663Y0101232D01*
X0184381Y0102515D01*
X0184381Y0103630D01*
X0180085Y0107927D01*
X0168070Y0107927D01*
X0167792Y0107649D01*
X0165978Y0107649D01*
X0164696Y0108931D01*
X0164696Y0110744D01*
X0165978Y0112027D01*
X0167792Y0112027D01*
X0169074Y0110744D01*
X0169074Y0110727D01*
X0181245Y0110727D01*
X0182065Y0109907D01*
X0186361Y0105610D01*
X0187477Y0105610D01*
X0188759Y0104328D01*
X0188759Y0102515D01*
X0188759Y0103034D02*
X0226638Y0103034D01*
X0225667Y0103633D02*
X0188759Y0103633D01*
X0188759Y0104231D02*
X0224940Y0104231D01*
X0224367Y0104830D02*
X0188258Y0104830D01*
X0187659Y0105428D02*
X0223907Y0105428D01*
X0223553Y0106027D02*
X0185945Y0106027D01*
X0185346Y0106625D02*
X0223262Y0106625D01*
X0223023Y0107224D02*
X0184748Y0107224D01*
X0184149Y0107822D02*
X0222863Y0107822D01*
X0222750Y0108421D02*
X0183551Y0108421D01*
X0182952Y0109019D02*
X0222672Y0109019D01*
X0222672Y0109784D02*
X0229577Y0109784D01*
X0229577Y0109184D01*
X0230177Y0109184D01*
X0230177Y0102279D01*
X0230350Y0102279D01*
X0231286Y0102402D01*
X0232198Y0102646D01*
X0233071Y0103008D01*
X0233889Y0103480D01*
X0234638Y0104055D01*
X0235306Y0104723D01*
X0235881Y0105472D01*
X0236354Y0106290D01*
X0236715Y0107163D01*
X0236959Y0108076D01*
X0237083Y0109012D01*
X0237083Y0109184D01*
X0230177Y0109184D01*
X0230177Y0109784D01*
X0229577Y0109784D01*
X0229577Y0116690D01*
X0229405Y0116690D01*
X0228468Y0116566D01*
X0227556Y0116322D01*
X0226683Y0115961D01*
X0225865Y0115488D01*
X0225116Y0114913D01*
X0224448Y0114245D01*
X0223873Y0113496D01*
X0223401Y0112678D01*
X0223039Y0111805D01*
X0222795Y0110893D01*
X0222672Y0109957D01*
X0222672Y0109784D01*
X0222706Y0110216D02*
X0181755Y0110216D01*
X0182354Y0109618D02*
X0229577Y0109618D01*
X0229577Y0110216D02*
X0230177Y0110216D01*
X0230177Y0109784D02*
X0230177Y0116690D01*
X0230350Y0116690D01*
X0231286Y0116566D01*
X0232198Y0116322D01*
X0233071Y0115961D01*
X0233889Y0115488D01*
X0234638Y0114913D01*
X0235306Y0114245D01*
X0235881Y0113496D01*
X0236354Y0112678D01*
X0236715Y0111805D01*
X0236959Y0110893D01*
X0237083Y0109957D01*
X0237083Y0109784D01*
X0230177Y0109784D01*
X0230177Y0109618D02*
X0273853Y0109618D01*
X0273853Y0110216D02*
X0237049Y0110216D01*
X0236970Y0110815D02*
X0273853Y0110815D01*
X0273853Y0111413D02*
X0236820Y0111413D01*
X0236630Y0112012D02*
X0273853Y0112012D01*
X0273853Y0112610D02*
X0236382Y0112610D01*
X0236047Y0113209D02*
X0273853Y0113209D01*
X0273853Y0113807D02*
X0235642Y0113807D01*
X0235146Y0114406D02*
X0273853Y0114406D01*
X0273853Y0115004D02*
X0234520Y0115004D01*
X0233691Y0115603D02*
X0273853Y0115603D01*
X0273853Y0116201D02*
X0232490Y0116201D01*
X0230177Y0116201D02*
X0229577Y0116201D01*
X0229577Y0115603D02*
X0230177Y0115603D01*
X0230177Y0115004D02*
X0229577Y0115004D01*
X0229577Y0114406D02*
X0230177Y0114406D01*
X0230177Y0113807D02*
X0229577Y0113807D01*
X0229577Y0113209D02*
X0230177Y0113209D01*
X0230177Y0112610D02*
X0229577Y0112610D01*
X0229577Y0112012D02*
X0230177Y0112012D01*
X0230177Y0111413D02*
X0229577Y0111413D01*
X0229577Y0110815D02*
X0230177Y0110815D01*
X0230177Y0109019D02*
X0229577Y0109019D01*
X0229577Y0108421D02*
X0230177Y0108421D01*
X0230177Y0107822D02*
X0229577Y0107822D01*
X0229577Y0107224D02*
X0230177Y0107224D01*
X0230177Y0106625D02*
X0229577Y0106625D01*
X0229577Y0106027D02*
X0230177Y0106027D01*
X0230177Y0105428D02*
X0229577Y0105428D01*
X0229577Y0104830D02*
X0230177Y0104830D01*
X0230177Y0104231D02*
X0229577Y0104231D01*
X0229577Y0103633D02*
X0230177Y0103633D01*
X0230177Y0103034D02*
X0229577Y0103034D01*
X0229577Y0102436D02*
X0230177Y0102436D01*
X0231411Y0102436D02*
X0273853Y0102436D01*
X0273853Y0103034D02*
X0233116Y0103034D01*
X0234087Y0103633D02*
X0273853Y0103633D01*
X0273853Y0104231D02*
X0234814Y0104231D01*
X0235388Y0104830D02*
X0273853Y0104830D01*
X0273853Y0105428D02*
X0235847Y0105428D01*
X0236201Y0106027D02*
X0273853Y0106027D01*
X0273853Y0106625D02*
X0236492Y0106625D01*
X0236731Y0107224D02*
X0273853Y0107224D01*
X0273853Y0107822D02*
X0236892Y0107822D01*
X0237005Y0108421D02*
X0273853Y0108421D01*
X0273853Y0109019D02*
X0237083Y0109019D01*
X0226064Y0115603D02*
X0161111Y0115603D01*
X0161111Y0116201D02*
X0227265Y0116201D01*
X0225235Y0115004D02*
X0161111Y0115004D01*
X0161111Y0114406D02*
X0224609Y0114406D01*
X0224112Y0113807D02*
X0161111Y0113807D01*
X0161111Y0113209D02*
X0223707Y0113209D01*
X0223373Y0112610D02*
X0161111Y0112610D01*
X0161111Y0112012D02*
X0165963Y0112012D01*
X0165365Y0111413D02*
X0161111Y0111413D01*
X0161111Y0110815D02*
X0164766Y0110815D01*
X0164696Y0110216D02*
X0161200Y0110216D01*
X0161200Y0109618D02*
X0164696Y0109618D01*
X0164696Y0109019D02*
X0161200Y0109019D01*
X0161200Y0108421D02*
X0165207Y0108421D01*
X0165805Y0107822D02*
X0160602Y0107822D01*
X0160004Y0107224D02*
X0180788Y0107224D01*
X0180189Y0107822D02*
X0167965Y0107822D01*
X0169004Y0110815D02*
X0222785Y0110815D01*
X0222934Y0111413D02*
X0168405Y0111413D01*
X0167807Y0112012D02*
X0223125Y0112012D01*
X0198602Y0130074D02*
X0197319Y0128791D01*
X0195506Y0128791D01*
X0194717Y0129580D01*
X0166612Y0129580D01*
X0165823Y0128791D01*
X0164010Y0128791D01*
X0162728Y0130074D01*
X0162728Y0131887D01*
X0164010Y0133169D01*
X0165823Y0133169D01*
X0166612Y0132380D01*
X0194717Y0132380D01*
X0195506Y0133169D01*
X0197319Y0133169D01*
X0198602Y0131887D01*
X0198602Y0130074D01*
X0198495Y0129967D02*
X0273853Y0129967D01*
X0273853Y0129369D02*
X0197897Y0129369D01*
X0198602Y0130566D02*
X0273853Y0130566D01*
X0273853Y0131164D02*
X0198602Y0131164D01*
X0198602Y0131763D02*
X0273853Y0131763D01*
X0273853Y0132361D02*
X0198128Y0132361D01*
X0197529Y0132960D02*
X0273853Y0132960D01*
X0273853Y0133558D02*
X0161111Y0133558D01*
X0161111Y0132960D02*
X0163800Y0132960D01*
X0163202Y0132361D02*
X0161111Y0132361D01*
X0161111Y0131763D02*
X0162728Y0131763D01*
X0162728Y0131164D02*
X0161111Y0131164D01*
X0161111Y0130566D02*
X0162728Y0130566D01*
X0162834Y0129967D02*
X0161111Y0129967D01*
X0161111Y0129369D02*
X0163433Y0129369D01*
X0161111Y0128770D02*
X0273853Y0128770D01*
X0273853Y0128171D02*
X0161111Y0128171D01*
X0161111Y0127573D02*
X0273853Y0127573D01*
X0273853Y0126974D02*
X0161111Y0126974D01*
X0161111Y0126376D02*
X0273853Y0126376D01*
X0273853Y0125777D02*
X0161111Y0125777D01*
X0161111Y0125179D02*
X0273853Y0125179D01*
X0273853Y0124580D02*
X0161111Y0124580D01*
X0161111Y0123982D02*
X0273853Y0123982D01*
X0273853Y0123383D02*
X0161111Y0123383D01*
X0161111Y0122785D02*
X0273853Y0122785D01*
X0273853Y0122186D02*
X0161111Y0122186D01*
X0161111Y0121588D02*
X0273853Y0121588D01*
X0273853Y0120989D02*
X0161111Y0120989D01*
X0161111Y0120391D02*
X0273853Y0120391D01*
X0273853Y0119792D02*
X0161111Y0119792D01*
X0161111Y0119194D02*
X0273853Y0119194D01*
X0273853Y0118595D02*
X0161111Y0118595D01*
X0161111Y0117997D02*
X0273853Y0117997D01*
X0273853Y0117398D02*
X0161111Y0117398D01*
X0161111Y0116800D02*
X0273853Y0116800D01*
X0273853Y0101837D02*
X0188082Y0101837D01*
X0187483Y0101238D02*
X0273853Y0101238D01*
X0273853Y0100640D02*
X0148590Y0100640D01*
X0148590Y0101238D02*
X0185657Y0101238D01*
X0185059Y0101837D02*
X0148590Y0101837D01*
X0148590Y0102436D02*
X0184460Y0102436D01*
X0184381Y0103034D02*
X0148590Y0103034D01*
X0148590Y0103633D02*
X0184379Y0103633D01*
X0183780Y0104231D02*
X0149116Y0104231D01*
X0149379Y0104830D02*
X0183182Y0104830D01*
X0182583Y0105428D02*
X0149379Y0105428D01*
X0149379Y0106027D02*
X0181985Y0106027D01*
X0181386Y0106625D02*
X0149060Y0106625D01*
X0148462Y0107224D02*
X0158019Y0107224D01*
X0148590Y0100041D02*
X0273853Y0100041D01*
X0273853Y0099443D02*
X0148590Y0099443D01*
X0148540Y0098844D02*
X0273853Y0098844D01*
X0273853Y0098246D02*
X0147942Y0098246D01*
X0122168Y0110216D02*
X0120345Y0110216D01*
X0120593Y0109618D02*
X0121570Y0109618D01*
X0120971Y0109019D02*
X0120841Y0109019D01*
X0120039Y0110815D02*
X0122332Y0110815D01*
X0121734Y0111413D02*
X0119440Y0111413D01*
X0118842Y0112012D02*
X0121497Y0112012D01*
X0121497Y0112610D02*
X0117644Y0112610D01*
X0115337Y0129369D02*
X0079602Y0129369D01*
X0079602Y0129967D02*
X0115935Y0129967D01*
X0116534Y0130566D02*
X0079602Y0130566D01*
X0079602Y0131164D02*
X0097806Y0131164D01*
X0109980Y0131164D02*
X0117132Y0131164D01*
X0117731Y0131763D02*
X0111285Y0131763D01*
X0111884Y0132361D02*
X0118329Y0132361D01*
X0118928Y0132960D02*
X0112482Y0132960D01*
X0112833Y0133558D02*
X0119526Y0133558D01*
X0120125Y0134157D02*
X0113081Y0134157D01*
X0113329Y0134755D02*
X0120723Y0134755D01*
X0121322Y0135354D02*
X0113454Y0135354D01*
X0113454Y0135952D02*
X0121920Y0135952D01*
X0122519Y0136551D02*
X0113454Y0136551D01*
X0113450Y0137149D02*
X0121982Y0137149D01*
X0121497Y0137748D02*
X0113202Y0137748D01*
X0112954Y0138346D02*
X0121497Y0138346D01*
X0121497Y0138945D02*
X0112706Y0138945D01*
X0112176Y0139543D02*
X0121497Y0139543D01*
X0121497Y0140142D02*
X0111578Y0140142D01*
X0110686Y0140740D02*
X0121497Y0140740D01*
X0121497Y0141339D02*
X0079602Y0141339D01*
X0079602Y0141937D02*
X0121497Y0141937D01*
X0121497Y0142536D02*
X0079602Y0142536D01*
X0079602Y0143134D02*
X0121497Y0143134D01*
X0121497Y0143733D02*
X0079602Y0143733D01*
X0079602Y0144331D02*
X0121497Y0144331D01*
X0120640Y0148521D02*
X0156911Y0148521D01*
X0156911Y0149119D02*
X0120888Y0149119D01*
X0120935Y0149718D02*
X0157062Y0149718D01*
X0157661Y0150316D02*
X0120935Y0150316D01*
X0120935Y0150915D02*
X0158259Y0150915D01*
X0158858Y0151513D02*
X0120935Y0151513D01*
X0120935Y0152112D02*
X0159456Y0152112D01*
X0160055Y0152710D02*
X0120935Y0152710D01*
X0121040Y0153309D02*
X0160653Y0153309D01*
X0161252Y0153907D02*
X0121639Y0153907D01*
X0122237Y0154506D02*
X0161850Y0154506D01*
X0162449Y0155105D02*
X0122836Y0155105D01*
X0123434Y0155703D02*
X0163047Y0155703D01*
X0163646Y0156302D02*
X0124033Y0156302D01*
X0124631Y0156900D02*
X0164244Y0156900D01*
X0164843Y0157499D02*
X0125230Y0157499D01*
X0125828Y0158097D02*
X0165441Y0158097D01*
X0166040Y0158696D02*
X0126427Y0158696D01*
X0127025Y0159294D02*
X0166638Y0159294D01*
X0167237Y0159893D02*
X0127624Y0159893D01*
X0128222Y0160491D02*
X0167836Y0160491D01*
X0168434Y0161090D02*
X0128821Y0161090D01*
X0129420Y0161688D02*
X0169033Y0161688D01*
X0169631Y0162287D02*
X0130018Y0162287D01*
X0130617Y0162885D02*
X0170230Y0162885D01*
X0170702Y0163484D02*
X0131215Y0163484D01*
X0131814Y0164082D02*
X0171301Y0164082D01*
X0174280Y0164082D02*
X0273853Y0164082D01*
X0273853Y0163484D02*
X0174879Y0163484D01*
X0174980Y0162885D02*
X0273853Y0162885D01*
X0273853Y0162287D02*
X0174980Y0162287D01*
X0174980Y0161688D02*
X0273853Y0161688D01*
X0273853Y0161090D02*
X0174500Y0161090D01*
X0173901Y0160491D02*
X0273853Y0160491D01*
X0273853Y0159893D02*
X0173177Y0159893D01*
X0172578Y0159294D02*
X0273853Y0159294D01*
X0273853Y0158696D02*
X0171980Y0158696D01*
X0171381Y0158097D02*
X0273853Y0158097D01*
X0273853Y0157499D02*
X0170783Y0157499D01*
X0170184Y0156900D02*
X0273853Y0156900D01*
X0273853Y0156302D02*
X0169586Y0156302D01*
X0168987Y0155703D02*
X0273853Y0155703D01*
X0273853Y0155105D02*
X0168389Y0155105D01*
X0167790Y0154506D02*
X0273853Y0154506D01*
X0273853Y0153907D02*
X0167192Y0153907D01*
X0166593Y0153309D02*
X0273853Y0153309D01*
X0273853Y0152710D02*
X0165995Y0152710D01*
X0165396Y0152112D02*
X0273853Y0152112D01*
X0273853Y0151513D02*
X0164798Y0151513D01*
X0164199Y0150915D02*
X0273853Y0150915D01*
X0273853Y0150316D02*
X0163601Y0150316D01*
X0163002Y0149718D02*
X0273853Y0149718D01*
X0273853Y0149119D02*
X0162403Y0149119D01*
X0161805Y0148521D02*
X0273853Y0148521D01*
X0273853Y0147922D02*
X0161206Y0147922D01*
X0161111Y0147324D02*
X0273853Y0147324D01*
X0273853Y0146725D02*
X0161111Y0146725D01*
X0161111Y0146127D02*
X0273853Y0146127D01*
X0273853Y0145528D02*
X0161111Y0145528D01*
X0161111Y0144930D02*
X0273853Y0144930D01*
X0273853Y0144331D02*
X0161111Y0144331D01*
X0161111Y0143733D02*
X0273853Y0143733D01*
X0273853Y0143134D02*
X0161111Y0143134D01*
X0161111Y0142536D02*
X0273853Y0142536D01*
X0273853Y0141937D02*
X0161111Y0141937D01*
X0161111Y0141339D02*
X0273853Y0141339D01*
X0273853Y0140740D02*
X0195654Y0140740D01*
X0195351Y0141043D02*
X0193537Y0141043D01*
X0192748Y0140254D01*
X0176455Y0140254D01*
X0175666Y0141043D01*
X0173852Y0141043D01*
X0172570Y0139761D01*
X0172570Y0137948D01*
X0173852Y0136665D01*
X0175666Y0136665D01*
X0176455Y0137454D01*
X0192748Y0137454D01*
X0193537Y0136665D01*
X0195351Y0136665D01*
X0196633Y0137948D01*
X0196633Y0139761D01*
X0195351Y0141043D01*
X0196252Y0140142D02*
X0273853Y0140142D01*
X0273853Y0139543D02*
X0196633Y0139543D01*
X0196633Y0138945D02*
X0273853Y0138945D01*
X0273853Y0138346D02*
X0196633Y0138346D01*
X0196433Y0137748D02*
X0273853Y0137748D01*
X0273853Y0137149D02*
X0195835Y0137149D01*
X0193054Y0137149D02*
X0176150Y0137149D01*
X0173369Y0137149D02*
X0161111Y0137149D01*
X0161111Y0136551D02*
X0273853Y0136551D01*
X0273853Y0135952D02*
X0161111Y0135952D01*
X0161111Y0135354D02*
X0273853Y0135354D01*
X0273853Y0134755D02*
X0161111Y0134755D01*
X0161111Y0134157D02*
X0273853Y0134157D01*
X0273853Y0164681D02*
X0132412Y0164681D01*
X0133011Y0165279D02*
X0273853Y0165279D01*
X0273853Y0165878D02*
X0144454Y0165878D01*
X0145052Y0166476D02*
X0273853Y0166476D01*
X0273853Y0167075D02*
X0145344Y0167075D01*
X0145344Y0167673D02*
X0273853Y0167673D01*
X0273853Y0168272D02*
X0145344Y0168272D01*
X0145344Y0168870D02*
X0273853Y0168870D01*
X0273853Y0169469D02*
X0145344Y0169469D01*
X0145344Y0170067D02*
X0273853Y0170067D01*
X0273828Y0170666D02*
X0145344Y0170666D01*
X0145344Y0171264D02*
X0273781Y0171264D01*
X0273615Y0171863D02*
X0145344Y0171863D01*
X0145344Y0172461D02*
X0273420Y0172461D01*
X0273226Y0173060D02*
X0145344Y0173060D01*
X0145344Y0173658D02*
X0272901Y0173658D01*
X0272466Y0174257D02*
X0145344Y0174257D01*
X0145344Y0174855D02*
X0272032Y0174855D01*
X0271301Y0175454D02*
X0145344Y0175454D01*
X0129484Y0176651D02*
X0079602Y0176651D01*
X0079602Y0177249D02*
X0129484Y0177249D01*
X0129484Y0177848D02*
X0079602Y0177848D01*
X0079602Y0178446D02*
X0129484Y0178446D01*
X0129484Y0179045D02*
X0079602Y0179045D01*
X0079602Y0179643D02*
X0129484Y0179643D01*
X0129484Y0180242D02*
X0079602Y0180242D01*
X0079602Y0180840D02*
X0129484Y0180840D01*
X0129484Y0181439D02*
X0079602Y0181439D01*
X0079602Y0182038D02*
X0129484Y0182038D01*
X0129484Y0182636D02*
X0079602Y0182636D01*
X0079602Y0183235D02*
X0129484Y0183235D01*
X0129484Y0183833D02*
X0079602Y0183833D01*
X0079602Y0184432D02*
X0129484Y0184432D01*
X0129484Y0185030D02*
X0079602Y0185030D01*
X0079602Y0185629D02*
X0129484Y0185629D01*
X0129484Y0186227D02*
X0079602Y0186227D01*
X0079602Y0186826D02*
X0129484Y0186826D01*
X0129484Y0187424D02*
X0079602Y0187424D01*
X0079602Y0188023D02*
X0129484Y0188023D01*
X0129484Y0188621D02*
X0079602Y0188621D01*
X0079602Y0189220D02*
X0129484Y0189220D01*
X0129484Y0189818D02*
X0079602Y0189818D01*
X0079602Y0190417D02*
X0129484Y0190417D01*
X0129484Y0191015D02*
X0079602Y0191015D01*
X0079602Y0191614D02*
X0129484Y0191614D01*
X0129484Y0192212D02*
X0079619Y0192212D01*
X0079666Y0192811D02*
X0129484Y0192811D01*
X0129484Y0193409D02*
X0079806Y0193409D01*
X0080000Y0194008D02*
X0129484Y0194008D01*
X0129484Y0194606D02*
X0080195Y0194606D01*
X0080476Y0195205D02*
X0129484Y0195205D01*
X0129484Y0195803D02*
X0080911Y0195803D01*
X0081346Y0196402D02*
X0129484Y0196402D01*
X0129484Y0197000D02*
X0082007Y0197000D01*
X0082830Y0197599D02*
X0129484Y0197599D01*
X0129484Y0198197D02*
X0084226Y0198197D01*
X0079602Y0176052D02*
X0122042Y0176052D01*
X0121497Y0175454D02*
X0079602Y0175454D01*
X0079602Y0174855D02*
X0121497Y0174855D01*
X0121497Y0174257D02*
X0079602Y0174257D01*
X0079602Y0173658D02*
X0121497Y0173658D01*
X0121497Y0173060D02*
X0079602Y0173060D01*
X0079602Y0172461D02*
X0121497Y0172461D01*
X0121497Y0171863D02*
X0079602Y0171863D01*
X0079602Y0171264D02*
X0121497Y0171264D01*
X0121497Y0170666D02*
X0079602Y0170666D01*
X0079602Y0170067D02*
X0121497Y0170067D01*
X0121497Y0169469D02*
X0079602Y0169469D01*
X0079602Y0168870D02*
X0121497Y0168870D01*
X0121497Y0168272D02*
X0079602Y0168272D01*
X0079602Y0167673D02*
X0121497Y0167673D01*
X0121497Y0167075D02*
X0079602Y0167075D01*
X0079602Y0166476D02*
X0121789Y0166476D01*
X0122387Y0165878D02*
X0079602Y0165878D01*
X0079602Y0165279D02*
X0122113Y0165279D01*
X0121515Y0164681D02*
X0079602Y0164681D01*
X0116941Y0164082D02*
X0120916Y0164082D01*
X0120318Y0163484D02*
X0118386Y0163484D01*
X0119149Y0162885D02*
X0119719Y0162885D01*
X0161111Y0140740D02*
X0173549Y0140740D01*
X0172951Y0140142D02*
X0161111Y0140142D01*
X0161111Y0139543D02*
X0172570Y0139543D01*
X0172570Y0138945D02*
X0161111Y0138945D01*
X0161111Y0138346D02*
X0172570Y0138346D01*
X0172770Y0137748D02*
X0161111Y0137748D01*
X0166033Y0132960D02*
X0195296Y0132960D01*
X0194929Y0129369D02*
X0166400Y0129369D01*
X0175969Y0140740D02*
X0193234Y0140740D01*
X0097843Y0089867D02*
X0088061Y0089867D01*
X0088062Y0089268D02*
X0096516Y0089268D01*
X0095917Y0088670D02*
X0088660Y0088670D01*
X0089259Y0088071D02*
X0095319Y0088071D01*
X0094959Y0087473D02*
X0089857Y0087473D01*
X0090456Y0086874D02*
X0094711Y0086874D01*
X0094463Y0086276D02*
X0091054Y0086276D01*
X0091653Y0085677D02*
X0094332Y0085677D01*
X0094332Y0085079D02*
X0092251Y0085079D01*
X0092850Y0084480D02*
X0094332Y0084480D01*
X0094332Y0083882D02*
X0093448Y0083882D01*
X0094047Y0083283D02*
X0094577Y0083283D01*
X0094645Y0082685D02*
X0094825Y0082685D01*
X0083872Y0059941D02*
X0269583Y0059941D01*
X0273853Y0067722D02*
X0256227Y0067722D01*
X0255752Y0067525D02*
X0257370Y0068195D01*
X0258607Y0069433D01*
X0259277Y0071050D01*
X0259277Y0072800D01*
X0258607Y0074418D01*
X0257370Y0075655D01*
X0255752Y0076325D01*
X0254002Y0076325D01*
X0252385Y0075655D01*
X0251147Y0074418D01*
X0250477Y0072800D01*
X0250477Y0071050D01*
X0251147Y0069433D01*
X0252385Y0068195D01*
X0254002Y0067525D01*
X0255752Y0067525D01*
X0257495Y0068320D02*
X0273853Y0068320D01*
X0273853Y0068919D02*
X0258093Y0068919D01*
X0258642Y0069517D02*
X0273853Y0069517D01*
X0273853Y0070116D02*
X0258890Y0070116D01*
X0259138Y0070714D02*
X0273853Y0070714D01*
X0273853Y0071313D02*
X0259277Y0071313D01*
X0259277Y0071911D02*
X0273853Y0071911D01*
X0273853Y0072510D02*
X0259277Y0072510D01*
X0259150Y0073108D02*
X0273853Y0073108D01*
X0273853Y0073707D02*
X0258902Y0073707D01*
X0258654Y0074305D02*
X0273853Y0074305D01*
X0273853Y0074904D02*
X0258121Y0074904D01*
X0257522Y0075502D02*
X0273853Y0075502D01*
X0273853Y0076101D02*
X0256294Y0076101D01*
X0253461Y0076101D02*
X0246294Y0076101D01*
X0245752Y0076325D02*
X0244002Y0076325D01*
X0242385Y0075655D01*
X0241147Y0074418D01*
X0240477Y0072800D01*
X0240477Y0071050D01*
X0241147Y0069433D01*
X0242385Y0068195D01*
X0244002Y0067525D01*
X0245752Y0067525D01*
X0247370Y0068195D01*
X0248607Y0069433D01*
X0249277Y0071050D01*
X0249277Y0072800D01*
X0248607Y0074418D01*
X0247370Y0075655D01*
X0245752Y0076325D01*
X0247522Y0075502D02*
X0252232Y0075502D01*
X0251633Y0074904D02*
X0248121Y0074904D01*
X0248654Y0074305D02*
X0251101Y0074305D01*
X0250853Y0073707D02*
X0248902Y0073707D01*
X0249150Y0073108D02*
X0250605Y0073108D01*
X0250477Y0072510D02*
X0249277Y0072510D01*
X0249277Y0071911D02*
X0250477Y0071911D01*
X0250477Y0071313D02*
X0249277Y0071313D01*
X0249138Y0070714D02*
X0250616Y0070714D01*
X0250864Y0070116D02*
X0248890Y0070116D01*
X0248642Y0069517D02*
X0251112Y0069517D01*
X0251661Y0068919D02*
X0248093Y0068919D01*
X0247495Y0068320D02*
X0252260Y0068320D01*
X0253527Y0067722D02*
X0246227Y0067722D01*
X0243527Y0067722D02*
X0236227Y0067722D01*
X0235752Y0067525D02*
X0237370Y0068195D01*
X0238607Y0069433D01*
X0239277Y0071050D01*
X0239277Y0072800D01*
X0238607Y0074418D01*
X0237370Y0075655D01*
X0235752Y0076325D01*
X0234002Y0076325D01*
X0232385Y0075655D01*
X0231147Y0074418D01*
X0230477Y0072800D01*
X0230477Y0071050D01*
X0231147Y0069433D01*
X0232385Y0068195D01*
X0234002Y0067525D01*
X0235752Y0067525D01*
X0237495Y0068320D02*
X0242260Y0068320D01*
X0241661Y0068919D02*
X0238093Y0068919D01*
X0238642Y0069517D02*
X0241112Y0069517D01*
X0240864Y0070116D02*
X0238890Y0070116D01*
X0239138Y0070714D02*
X0240616Y0070714D01*
X0240477Y0071313D02*
X0239277Y0071313D01*
X0239277Y0071911D02*
X0240477Y0071911D01*
X0240477Y0072510D02*
X0239277Y0072510D01*
X0239150Y0073108D02*
X0240605Y0073108D01*
X0240853Y0073707D02*
X0238902Y0073707D01*
X0238654Y0074305D02*
X0241101Y0074305D01*
X0241633Y0074904D02*
X0238121Y0074904D01*
X0237522Y0075502D02*
X0242232Y0075502D01*
X0243461Y0076101D02*
X0236294Y0076101D01*
X0233461Y0076101D02*
X0226294Y0076101D01*
X0227522Y0075502D02*
X0232232Y0075502D01*
X0231633Y0074904D02*
X0228121Y0074904D01*
X0228654Y0074305D02*
X0231101Y0074305D01*
X0230853Y0073707D02*
X0228902Y0073707D01*
X0229150Y0073108D02*
X0230605Y0073108D01*
X0230477Y0072510D02*
X0229277Y0072510D01*
X0229277Y0071911D02*
X0230477Y0071911D01*
X0230477Y0071313D02*
X0229277Y0071313D01*
X0229138Y0070714D02*
X0230616Y0070714D01*
X0230864Y0070116D02*
X0228890Y0070116D01*
X0228642Y0069517D02*
X0231112Y0069517D01*
X0231661Y0068919D02*
X0228093Y0068919D01*
X0227495Y0068320D02*
X0232260Y0068320D01*
X0233527Y0067722D02*
X0226227Y0067722D01*
X0223527Y0067722D02*
X0216227Y0067722D01*
X0217495Y0068320D02*
X0222260Y0068320D01*
X0221661Y0068919D02*
X0218093Y0068919D01*
X0218642Y0069517D02*
X0221112Y0069517D01*
X0220864Y0070116D02*
X0218890Y0070116D01*
X0219138Y0070714D02*
X0220616Y0070714D01*
X0220477Y0071313D02*
X0219277Y0071313D01*
X0219277Y0071911D02*
X0220477Y0071911D01*
X0220477Y0072510D02*
X0219277Y0072510D01*
X0219150Y0073108D02*
X0220605Y0073108D01*
X0220853Y0073707D02*
X0218902Y0073707D01*
X0218654Y0074305D02*
X0221101Y0074305D01*
X0221633Y0074904D02*
X0218121Y0074904D01*
X0221332Y0076101D02*
X0223461Y0076101D01*
X0200077Y0075502D02*
X0191907Y0075502D01*
X0192465Y0074904D02*
X0200077Y0074904D01*
X0200077Y0074305D02*
X0192870Y0074305D01*
X0193164Y0073707D02*
X0200077Y0073707D01*
X0200077Y0073108D02*
X0193359Y0073108D01*
X0193463Y0072510D02*
X0200077Y0072510D01*
X0200077Y0071313D02*
X0193459Y0071313D01*
X0193350Y0070714D02*
X0200077Y0070714D01*
X0200077Y0070116D02*
X0193155Y0070116D01*
X0192856Y0069517D02*
X0200077Y0069517D01*
X0200077Y0068919D02*
X0192445Y0068919D01*
X0191880Y0068320D02*
X0200077Y0068320D01*
X0200282Y0067722D02*
X0191020Y0067722D01*
X0188996Y0067722D02*
X0188396Y0067722D01*
X0188396Y0068320D02*
X0188996Y0068320D01*
X0188996Y0068919D02*
X0188396Y0068919D01*
X0188396Y0069517D02*
X0188996Y0069517D01*
X0188996Y0070116D02*
X0188396Y0070116D01*
X0188396Y0070714D02*
X0188996Y0070714D01*
X0183929Y0072510D02*
X0183096Y0072510D01*
X0182969Y0073108D02*
X0184034Y0073108D01*
X0184228Y0073707D02*
X0182721Y0073707D01*
X0182473Y0074305D02*
X0184522Y0074305D01*
X0184927Y0074904D02*
X0181940Y0074904D01*
X0181341Y0075502D02*
X0185485Y0075502D01*
D20*
X0149169Y0129012D03*
X0255468Y0129012D03*
D21*
X0229877Y0089484D02*
X0220192Y0079799D01*
X0140507Y0079799D01*
X0133421Y0086886D01*
X0122397Y0075862D01*
X0096019Y0075862D01*
X0084208Y0087673D01*
X0084208Y0113264D01*
X0096019Y0125075D01*
X0116491Y0125075D01*
X0133421Y0142004D01*
X0116885Y0154602D02*
X0115704Y0154602D01*
X0116885Y0154602D02*
X0133421Y0171138D01*
X0133421Y0116020D02*
X0120822Y0103421D01*
X0115704Y0103421D01*
M02*
