G75*
%MOIN*%
%OFA0B0*%
%FSLAX25Y25*%
%IPPOS*%
%LPD*%
%AMOC8*
5,1,8,0,0,1.08239X$1,22.5*
%
%ADD10C,0.00000*%
%ADD11C,0.00984*%
%ADD12C,0.00787*%
%ADD13R,0.02756X0.02756*%
%ADD14R,0.01575X0.03150*%
%ADD15R,0.03150X0.01575*%
%ADD16R,0.05709X0.05709*%
%ADD17R,0.07000X0.07000*%
%ADD18C,0.07000*%
%ADD19C,0.13055*%
%ADD20C,0.05433*%
%ADD21C,0.11811*%
%ADD22C,0.00689*%
%ADD23C,0.01600*%
%ADD24C,0.02775*%
%ADD25C,0.02578*%
%ADD26C,0.01000*%
%ADD27C,0.00600*%
%ADD28C,0.15811*%
%ADD29C,0.04000*%
%ADD30C,0.04724*%
D10*
X0072397Y0058146D02*
X0253499Y0058146D01*
X0253689Y0058148D01*
X0253879Y0058155D01*
X0254069Y0058167D01*
X0254259Y0058183D01*
X0254448Y0058203D01*
X0254637Y0058229D01*
X0254825Y0058258D01*
X0255012Y0058293D01*
X0255198Y0058332D01*
X0255383Y0058375D01*
X0255568Y0058423D01*
X0255751Y0058475D01*
X0255932Y0058531D01*
X0256112Y0058592D01*
X0256291Y0058658D01*
X0256468Y0058727D01*
X0256644Y0058801D01*
X0256817Y0058879D01*
X0256989Y0058962D01*
X0257158Y0059048D01*
X0257326Y0059138D01*
X0257491Y0059233D01*
X0257654Y0059331D01*
X0257814Y0059434D01*
X0257972Y0059540D01*
X0258127Y0059650D01*
X0258280Y0059763D01*
X0258430Y0059881D01*
X0258576Y0060002D01*
X0258720Y0060126D01*
X0258861Y0060254D01*
X0258999Y0060385D01*
X0259134Y0060520D01*
X0259265Y0060658D01*
X0259393Y0060799D01*
X0259517Y0060943D01*
X0259638Y0061089D01*
X0259756Y0061239D01*
X0259869Y0061392D01*
X0259979Y0061547D01*
X0260085Y0061705D01*
X0260188Y0061865D01*
X0260286Y0062028D01*
X0260381Y0062193D01*
X0260471Y0062361D01*
X0260557Y0062530D01*
X0260640Y0062702D01*
X0260718Y0062875D01*
X0260792Y0063051D01*
X0260861Y0063228D01*
X0260927Y0063407D01*
X0260988Y0063587D01*
X0261044Y0063768D01*
X0261096Y0063951D01*
X0261144Y0064136D01*
X0261187Y0064321D01*
X0261226Y0064507D01*
X0261261Y0064694D01*
X0261290Y0064882D01*
X0261316Y0065071D01*
X0261336Y0065260D01*
X0261352Y0065450D01*
X0261364Y0065640D01*
X0261371Y0065830D01*
X0261373Y0066020D01*
X0261373Y0170350D01*
X0261371Y0170540D01*
X0261364Y0170730D01*
X0261352Y0170920D01*
X0261336Y0171110D01*
X0261316Y0171299D01*
X0261290Y0171488D01*
X0261261Y0171676D01*
X0261226Y0171863D01*
X0261187Y0172049D01*
X0261144Y0172234D01*
X0261096Y0172419D01*
X0261044Y0172602D01*
X0260988Y0172783D01*
X0260927Y0172963D01*
X0260861Y0173142D01*
X0260792Y0173319D01*
X0260718Y0173495D01*
X0260640Y0173668D01*
X0260557Y0173840D01*
X0260471Y0174009D01*
X0260381Y0174177D01*
X0260286Y0174342D01*
X0260188Y0174505D01*
X0260085Y0174665D01*
X0259979Y0174823D01*
X0259869Y0174978D01*
X0259756Y0175131D01*
X0259638Y0175281D01*
X0259517Y0175427D01*
X0259393Y0175571D01*
X0259265Y0175712D01*
X0259134Y0175850D01*
X0258999Y0175985D01*
X0258861Y0176116D01*
X0258720Y0176244D01*
X0258576Y0176368D01*
X0258430Y0176489D01*
X0258280Y0176607D01*
X0258127Y0176720D01*
X0257972Y0176830D01*
X0257814Y0176936D01*
X0257654Y0177039D01*
X0257491Y0177137D01*
X0257326Y0177232D01*
X0257158Y0177322D01*
X0256989Y0177408D01*
X0256817Y0177491D01*
X0256644Y0177569D01*
X0256468Y0177643D01*
X0256291Y0177712D01*
X0256112Y0177778D01*
X0255932Y0177839D01*
X0255751Y0177895D01*
X0255568Y0177947D01*
X0255383Y0177995D01*
X0255198Y0178038D01*
X0255012Y0178077D01*
X0254825Y0178112D01*
X0254637Y0178141D01*
X0254448Y0178167D01*
X0254259Y0178187D01*
X0254069Y0178203D01*
X0253879Y0178215D01*
X0253689Y0178222D01*
X0253499Y0178224D01*
X0172791Y0178224D01*
X0172601Y0178226D01*
X0172411Y0178233D01*
X0172221Y0178245D01*
X0172031Y0178261D01*
X0171842Y0178281D01*
X0171653Y0178307D01*
X0171465Y0178336D01*
X0171278Y0178371D01*
X0171092Y0178410D01*
X0170907Y0178453D01*
X0170722Y0178501D01*
X0170539Y0178553D01*
X0170358Y0178609D01*
X0170178Y0178670D01*
X0169999Y0178736D01*
X0169822Y0178805D01*
X0169646Y0178879D01*
X0169473Y0178957D01*
X0169301Y0179040D01*
X0169132Y0179126D01*
X0168964Y0179216D01*
X0168799Y0179311D01*
X0168636Y0179409D01*
X0168476Y0179512D01*
X0168318Y0179618D01*
X0168163Y0179728D01*
X0168010Y0179841D01*
X0167860Y0179959D01*
X0167714Y0180080D01*
X0167570Y0180204D01*
X0167429Y0180332D01*
X0167291Y0180463D01*
X0167156Y0180598D01*
X0167025Y0180736D01*
X0166897Y0180877D01*
X0166773Y0181021D01*
X0166652Y0181167D01*
X0166534Y0181317D01*
X0166421Y0181470D01*
X0166311Y0181625D01*
X0166205Y0181783D01*
X0166102Y0181943D01*
X0166004Y0182106D01*
X0165909Y0182271D01*
X0165819Y0182439D01*
X0165733Y0182608D01*
X0165650Y0182780D01*
X0165572Y0182953D01*
X0165498Y0183129D01*
X0165429Y0183306D01*
X0165363Y0183485D01*
X0165302Y0183665D01*
X0165246Y0183846D01*
X0165194Y0184029D01*
X0165146Y0184214D01*
X0165103Y0184399D01*
X0165064Y0184585D01*
X0165029Y0184772D01*
X0165000Y0184960D01*
X0164974Y0185149D01*
X0164954Y0185338D01*
X0164938Y0185528D01*
X0164926Y0185718D01*
X0164919Y0185908D01*
X0164917Y0186098D01*
X0164917Y0192004D01*
X0164915Y0192194D01*
X0164908Y0192384D01*
X0164896Y0192574D01*
X0164880Y0192764D01*
X0164860Y0192953D01*
X0164834Y0193142D01*
X0164805Y0193330D01*
X0164770Y0193517D01*
X0164731Y0193703D01*
X0164688Y0193888D01*
X0164640Y0194073D01*
X0164588Y0194256D01*
X0164532Y0194437D01*
X0164471Y0194617D01*
X0164405Y0194796D01*
X0164336Y0194973D01*
X0164262Y0195149D01*
X0164184Y0195322D01*
X0164101Y0195494D01*
X0164015Y0195663D01*
X0163925Y0195831D01*
X0163830Y0195996D01*
X0163732Y0196159D01*
X0163629Y0196319D01*
X0163523Y0196477D01*
X0163413Y0196632D01*
X0163300Y0196785D01*
X0163182Y0196935D01*
X0163061Y0197081D01*
X0162937Y0197225D01*
X0162809Y0197366D01*
X0162678Y0197504D01*
X0162543Y0197639D01*
X0162405Y0197770D01*
X0162264Y0197898D01*
X0162120Y0198022D01*
X0161974Y0198143D01*
X0161824Y0198261D01*
X0161671Y0198374D01*
X0161516Y0198484D01*
X0161358Y0198590D01*
X0161198Y0198693D01*
X0161035Y0198791D01*
X0160870Y0198886D01*
X0160702Y0198976D01*
X0160533Y0199062D01*
X0160361Y0199145D01*
X0160188Y0199223D01*
X0160012Y0199297D01*
X0159835Y0199366D01*
X0159656Y0199432D01*
X0159476Y0199493D01*
X0159295Y0199549D01*
X0159112Y0199601D01*
X0158927Y0199649D01*
X0158742Y0199692D01*
X0158556Y0199731D01*
X0158369Y0199766D01*
X0158181Y0199795D01*
X0157992Y0199821D01*
X0157803Y0199841D01*
X0157613Y0199857D01*
X0157423Y0199869D01*
X0157233Y0199876D01*
X0157043Y0199878D01*
X0072397Y0199878D01*
X0072207Y0199876D01*
X0072017Y0199869D01*
X0071827Y0199857D01*
X0071637Y0199841D01*
X0071448Y0199821D01*
X0071259Y0199795D01*
X0071071Y0199766D01*
X0070884Y0199731D01*
X0070698Y0199692D01*
X0070513Y0199649D01*
X0070328Y0199601D01*
X0070145Y0199549D01*
X0069964Y0199493D01*
X0069784Y0199432D01*
X0069605Y0199366D01*
X0069428Y0199297D01*
X0069252Y0199223D01*
X0069079Y0199145D01*
X0068907Y0199062D01*
X0068738Y0198976D01*
X0068570Y0198886D01*
X0068405Y0198791D01*
X0068242Y0198693D01*
X0068082Y0198590D01*
X0067924Y0198484D01*
X0067769Y0198374D01*
X0067616Y0198261D01*
X0067466Y0198143D01*
X0067320Y0198022D01*
X0067176Y0197898D01*
X0067035Y0197770D01*
X0066897Y0197639D01*
X0066762Y0197504D01*
X0066631Y0197366D01*
X0066503Y0197225D01*
X0066379Y0197081D01*
X0066258Y0196935D01*
X0066140Y0196785D01*
X0066027Y0196632D01*
X0065917Y0196477D01*
X0065811Y0196319D01*
X0065708Y0196159D01*
X0065610Y0195996D01*
X0065515Y0195831D01*
X0065425Y0195663D01*
X0065339Y0195494D01*
X0065256Y0195322D01*
X0065178Y0195149D01*
X0065104Y0194973D01*
X0065035Y0194796D01*
X0064969Y0194617D01*
X0064908Y0194437D01*
X0064852Y0194256D01*
X0064800Y0194073D01*
X0064752Y0193888D01*
X0064709Y0193703D01*
X0064670Y0193517D01*
X0064635Y0193330D01*
X0064606Y0193142D01*
X0064580Y0192953D01*
X0064560Y0192764D01*
X0064544Y0192574D01*
X0064532Y0192384D01*
X0064525Y0192194D01*
X0064523Y0192004D01*
X0064523Y0066020D01*
X0064525Y0065830D01*
X0064532Y0065640D01*
X0064544Y0065450D01*
X0064560Y0065260D01*
X0064580Y0065071D01*
X0064606Y0064882D01*
X0064635Y0064694D01*
X0064670Y0064507D01*
X0064709Y0064321D01*
X0064752Y0064136D01*
X0064800Y0063951D01*
X0064852Y0063768D01*
X0064908Y0063587D01*
X0064969Y0063407D01*
X0065035Y0063228D01*
X0065104Y0063051D01*
X0065178Y0062875D01*
X0065256Y0062702D01*
X0065339Y0062530D01*
X0065425Y0062361D01*
X0065515Y0062193D01*
X0065610Y0062028D01*
X0065708Y0061865D01*
X0065811Y0061705D01*
X0065917Y0061547D01*
X0066027Y0061392D01*
X0066140Y0061239D01*
X0066258Y0061089D01*
X0066379Y0060943D01*
X0066503Y0060799D01*
X0066631Y0060658D01*
X0066762Y0060520D01*
X0066897Y0060385D01*
X0067035Y0060254D01*
X0067176Y0060126D01*
X0067320Y0060002D01*
X0067466Y0059881D01*
X0067616Y0059763D01*
X0067769Y0059650D01*
X0067924Y0059540D01*
X0068082Y0059434D01*
X0068242Y0059331D01*
X0068405Y0059233D01*
X0068570Y0059138D01*
X0068738Y0059048D01*
X0068907Y0058962D01*
X0069079Y0058879D01*
X0069252Y0058801D01*
X0069428Y0058727D01*
X0069605Y0058658D01*
X0069784Y0058592D01*
X0069964Y0058531D01*
X0070145Y0058475D01*
X0070328Y0058423D01*
X0070513Y0058375D01*
X0070698Y0058332D01*
X0070884Y0058293D01*
X0071071Y0058258D01*
X0071259Y0058229D01*
X0071448Y0058203D01*
X0071637Y0058183D01*
X0071827Y0058167D01*
X0072017Y0058155D01*
X0072207Y0058148D01*
X0072397Y0058146D01*
D11*
X0150842Y0094662D02*
X0150842Y0097614D01*
X0150842Y0094662D02*
X0147496Y0094662D01*
X0147496Y0097614D01*
X0150842Y0097614D01*
X0150842Y0095597D02*
X0147496Y0095597D01*
X0147496Y0096532D02*
X0150842Y0096532D01*
X0150842Y0097467D02*
X0147496Y0097467D01*
X0150842Y0101355D02*
X0150842Y0104307D01*
X0150842Y0101355D02*
X0147496Y0101355D01*
X0147496Y0104307D01*
X0150842Y0104307D01*
X0150842Y0102290D02*
X0147496Y0102290D01*
X0147496Y0103225D02*
X0150842Y0103225D01*
X0150842Y0104160D02*
X0147496Y0104160D01*
X0142180Y0111000D02*
X0139228Y0111000D01*
X0142180Y0111000D02*
X0142180Y0107654D01*
X0139228Y0107654D01*
X0139228Y0111000D01*
X0139228Y0108589D02*
X0142180Y0108589D01*
X0142180Y0109524D02*
X0139228Y0109524D01*
X0139228Y0110459D02*
X0142180Y0110459D01*
X0135487Y0111000D02*
X0132535Y0111000D01*
X0135487Y0111000D02*
X0135487Y0107654D01*
X0132535Y0107654D01*
X0132535Y0111000D01*
X0132535Y0108589D02*
X0135487Y0108589D01*
X0135487Y0109524D02*
X0132535Y0109524D01*
X0132535Y0110459D02*
X0135487Y0110459D01*
X0166000Y0099189D02*
X0168952Y0099189D01*
X0168952Y0095843D01*
X0166000Y0095843D01*
X0166000Y0099189D01*
X0166000Y0096778D02*
X0168952Y0096778D01*
X0168952Y0097713D02*
X0166000Y0097713D01*
X0166000Y0098648D02*
X0168952Y0098648D01*
X0172693Y0099189D02*
X0175645Y0099189D01*
X0175645Y0095843D01*
X0172693Y0095843D01*
X0172693Y0099189D01*
X0172693Y0096778D02*
X0175645Y0096778D01*
X0175645Y0097713D02*
X0172693Y0097713D01*
X0172693Y0098648D02*
X0175645Y0098648D01*
X0178992Y0097418D02*
X0178992Y0100370D01*
X0182338Y0100370D01*
X0182338Y0097418D01*
X0178992Y0097418D01*
X0178992Y0098353D02*
X0182338Y0098353D01*
X0182338Y0099288D02*
X0178992Y0099288D01*
X0178992Y0100223D02*
X0182338Y0100223D01*
X0178992Y0093677D02*
X0178992Y0090725D01*
X0178992Y0093677D02*
X0182338Y0093677D01*
X0182338Y0090725D01*
X0178992Y0090725D01*
X0178992Y0091660D02*
X0182338Y0091660D01*
X0182338Y0092595D02*
X0178992Y0092595D01*
X0178992Y0093530D02*
X0182338Y0093530D01*
X0181550Y0085409D02*
X0178598Y0085409D01*
X0181550Y0085409D02*
X0181550Y0082063D01*
X0178598Y0082063D01*
X0178598Y0085409D01*
X0178598Y0082998D02*
X0181550Y0082998D01*
X0181550Y0083933D02*
X0178598Y0083933D01*
X0178598Y0084868D02*
X0181550Y0084868D01*
X0174857Y0085409D02*
X0171905Y0085409D01*
X0174857Y0085409D02*
X0174857Y0082063D01*
X0171905Y0082063D01*
X0171905Y0085409D01*
X0171905Y0082998D02*
X0174857Y0082998D01*
X0174857Y0083933D02*
X0171905Y0083933D01*
X0171905Y0084868D02*
X0174857Y0084868D01*
X0169739Y0082063D02*
X0166787Y0082063D01*
X0166787Y0085409D01*
X0169739Y0085409D01*
X0169739Y0082063D01*
X0169739Y0082998D02*
X0166787Y0082998D01*
X0166787Y0083933D02*
X0169739Y0083933D01*
X0169739Y0084868D02*
X0166787Y0084868D01*
X0163046Y0082063D02*
X0160094Y0082063D01*
X0160094Y0085409D01*
X0163046Y0085409D01*
X0163046Y0082063D01*
X0163046Y0082998D02*
X0160094Y0082998D01*
X0160094Y0083933D02*
X0163046Y0083933D01*
X0163046Y0084868D02*
X0160094Y0084868D01*
X0167968Y0119465D02*
X0170920Y0119465D01*
X0167968Y0119465D02*
X0167968Y0122811D01*
X0170920Y0122811D01*
X0170920Y0119465D01*
X0170920Y0120400D02*
X0167968Y0120400D01*
X0167968Y0121335D02*
X0170920Y0121335D01*
X0170920Y0122270D02*
X0167968Y0122270D01*
X0174661Y0119465D02*
X0177613Y0119465D01*
X0174661Y0119465D02*
X0174661Y0122811D01*
X0177613Y0122811D01*
X0177613Y0119465D01*
X0177613Y0120400D02*
X0174661Y0120400D01*
X0174661Y0121335D02*
X0177613Y0121335D01*
X0177613Y0122270D02*
X0174661Y0122270D01*
X0150842Y0149780D02*
X0150842Y0152732D01*
X0150842Y0149780D02*
X0147496Y0149780D01*
X0147496Y0152732D01*
X0150842Y0152732D01*
X0150842Y0150715D02*
X0147496Y0150715D01*
X0147496Y0151650D02*
X0150842Y0151650D01*
X0150842Y0152585D02*
X0147496Y0152585D01*
X0150842Y0156473D02*
X0150842Y0159425D01*
X0150842Y0156473D02*
X0147496Y0156473D01*
X0147496Y0159425D01*
X0150842Y0159425D01*
X0150842Y0157408D02*
X0147496Y0157408D01*
X0147496Y0158343D02*
X0150842Y0158343D01*
X0150842Y0159278D02*
X0147496Y0159278D01*
X0142180Y0166118D02*
X0139228Y0166118D01*
X0142180Y0166118D02*
X0142180Y0162772D01*
X0139228Y0162772D01*
X0139228Y0166118D01*
X0139228Y0163707D02*
X0142180Y0163707D01*
X0142180Y0164642D02*
X0139228Y0164642D01*
X0139228Y0165577D02*
X0142180Y0165577D01*
X0135487Y0166118D02*
X0132535Y0166118D01*
X0135487Y0166118D02*
X0135487Y0162772D01*
X0132535Y0162772D01*
X0132535Y0166118D01*
X0132535Y0163707D02*
X0135487Y0163707D01*
X0135487Y0164642D02*
X0132535Y0164642D01*
X0132535Y0165577D02*
X0135487Y0165577D01*
X0161275Y0166315D02*
X0161275Y0169267D01*
X0164621Y0169267D01*
X0164621Y0166315D01*
X0161275Y0166315D01*
X0161275Y0167250D02*
X0164621Y0167250D01*
X0164621Y0168185D02*
X0161275Y0168185D01*
X0161275Y0169120D02*
X0164621Y0169120D01*
X0161275Y0162574D02*
X0161275Y0159622D01*
X0161275Y0162574D02*
X0164621Y0162574D01*
X0164621Y0159622D01*
X0161275Y0159622D01*
X0161275Y0160557D02*
X0164621Y0160557D01*
X0164621Y0161492D02*
X0161275Y0161492D01*
X0161275Y0162427D02*
X0164621Y0162427D01*
D12*
X0142280Y0158343D02*
X0139916Y0158343D01*
X0142280Y0158343D02*
X0142280Y0155587D01*
X0139916Y0155587D01*
X0139916Y0158343D01*
X0139916Y0156335D02*
X0142280Y0156335D01*
X0142280Y0157083D02*
X0139916Y0157083D01*
X0139916Y0157831D02*
X0142280Y0157831D01*
X0134799Y0158343D02*
X0132435Y0158343D01*
X0134799Y0158343D02*
X0134799Y0155587D01*
X0132435Y0155587D01*
X0132435Y0158343D01*
X0132435Y0156335D02*
X0134799Y0156335D01*
X0134799Y0157083D02*
X0132435Y0157083D01*
X0132435Y0157831D02*
X0134799Y0157831D01*
X0136176Y0149681D02*
X0138540Y0149681D01*
X0138540Y0146925D01*
X0136176Y0146925D01*
X0136176Y0149681D01*
X0136176Y0147673D02*
X0138540Y0147673D01*
X0138540Y0148421D02*
X0136176Y0148421D01*
X0136176Y0149169D02*
X0138540Y0149169D01*
X0139916Y0103224D02*
X0142280Y0103224D01*
X0142280Y0100468D01*
X0139916Y0100468D01*
X0139916Y0103224D01*
X0139916Y0101216D02*
X0142280Y0101216D01*
X0142280Y0101964D02*
X0139916Y0101964D01*
X0139916Y0102712D02*
X0142280Y0102712D01*
X0134799Y0103224D02*
X0132435Y0103224D01*
X0134799Y0103224D02*
X0134799Y0100468D01*
X0132435Y0100468D01*
X0132435Y0103224D01*
X0132435Y0101216D02*
X0134799Y0101216D01*
X0134799Y0101964D02*
X0132435Y0101964D01*
X0132435Y0102712D02*
X0134799Y0102712D01*
X0136176Y0094563D02*
X0138540Y0094563D01*
X0138540Y0091807D01*
X0136176Y0091807D01*
X0136176Y0094563D01*
X0136176Y0092555D02*
X0138540Y0092555D01*
X0138540Y0093303D02*
X0136176Y0093303D01*
X0136176Y0094051D02*
X0138540Y0094051D01*
D13*
X0174956Y0135114D03*
X0221806Y0135114D03*
X0221806Y0174091D03*
X0174956Y0174091D03*
D14*
X0179484Y0173894D03*
X0182633Y0173894D03*
X0185783Y0173894D03*
X0188932Y0173894D03*
X0192082Y0173894D03*
X0195232Y0173894D03*
X0198381Y0173894D03*
X0201531Y0173894D03*
X0204680Y0173894D03*
X0207830Y0173894D03*
X0210980Y0173894D03*
X0214129Y0173894D03*
X0217279Y0173894D03*
X0217279Y0135311D03*
X0214129Y0135311D03*
X0210980Y0135311D03*
X0207830Y0135311D03*
X0204680Y0135311D03*
X0201531Y0135311D03*
X0198381Y0135311D03*
X0195232Y0135311D03*
X0192082Y0135311D03*
X0188932Y0135311D03*
X0185783Y0135311D03*
X0182633Y0135311D03*
X0179484Y0135311D03*
D15*
X0175153Y0138854D03*
X0175153Y0142004D03*
X0175153Y0145154D03*
X0175153Y0148303D03*
X0175153Y0151453D03*
X0175153Y0154602D03*
X0175153Y0157752D03*
X0175153Y0160902D03*
X0175153Y0164051D03*
X0175153Y0167201D03*
X0175153Y0170350D03*
X0221610Y0170350D03*
X0221610Y0167201D03*
X0221610Y0164051D03*
X0221610Y0160902D03*
X0221610Y0157752D03*
X0221610Y0154602D03*
X0221610Y0151453D03*
X0221610Y0148303D03*
X0221610Y0145154D03*
X0221610Y0142004D03*
X0221610Y0138854D03*
D16*
X0206255Y0146728D03*
X0198381Y0146728D03*
X0190507Y0146728D03*
X0190507Y0154602D03*
X0198381Y0154602D03*
X0206255Y0154602D03*
X0206255Y0162476D03*
X0198381Y0162476D03*
X0190507Y0162476D03*
D17*
X0191098Y0071925D03*
D18*
X0201098Y0071925D03*
X0211098Y0071925D03*
X0221098Y0071925D03*
X0231098Y0071925D03*
X0241098Y0071925D03*
X0174917Y0071925D03*
X0164917Y0071925D03*
X0149326Y0071925D03*
X0139326Y0071925D03*
D19*
X0103893Y0067713D03*
X0103893Y0119445D03*
X0103893Y0138579D03*
X0103893Y0190311D03*
D20*
X0114562Y0178224D03*
X0114562Y0168382D03*
X0114562Y0160508D03*
X0114562Y0150665D03*
X0114562Y0107358D03*
X0114562Y0097516D03*
X0114562Y0089642D03*
X0114562Y0079799D03*
D21*
X0210192Y0093421D03*
X0210192Y0113421D03*
D22*
X0177565Y0112427D02*
X0175497Y0112427D01*
X0175497Y0115675D01*
X0177565Y0115675D01*
X0177565Y0112427D01*
X0177565Y0113082D02*
X0175497Y0113082D01*
X0175497Y0113737D02*
X0177565Y0113737D01*
X0177565Y0114392D02*
X0175497Y0114392D01*
X0175497Y0115047D02*
X0177565Y0115047D01*
X0170084Y0112427D02*
X0168016Y0112427D01*
X0168016Y0115675D01*
X0170084Y0115675D01*
X0170084Y0112427D01*
X0170084Y0113082D02*
X0168016Y0113082D01*
X0168016Y0113737D02*
X0170084Y0113737D01*
X0170084Y0114392D02*
X0168016Y0114392D01*
X0168016Y0115047D02*
X0170084Y0115047D01*
X0170084Y0102585D02*
X0168016Y0102585D01*
X0168016Y0105833D01*
X0170084Y0105833D01*
X0170084Y0102585D01*
X0170084Y0103240D02*
X0168016Y0103240D01*
X0168016Y0103895D02*
X0170084Y0103895D01*
X0170084Y0104550D02*
X0168016Y0104550D01*
X0168016Y0105205D02*
X0170084Y0105205D01*
X0171757Y0102585D02*
X0173825Y0102585D01*
X0171757Y0102585D02*
X0171757Y0105833D01*
X0173825Y0105833D01*
X0173825Y0102585D01*
X0173825Y0103240D02*
X0171757Y0103240D01*
X0171757Y0103895D02*
X0173825Y0103895D01*
X0173825Y0104550D02*
X0171757Y0104550D01*
X0171757Y0105205D02*
X0173825Y0105205D01*
X0175497Y0102585D02*
X0177565Y0102585D01*
X0175497Y0102585D02*
X0175497Y0105833D01*
X0177565Y0105833D01*
X0177565Y0102585D01*
X0177565Y0103240D02*
X0175497Y0103240D01*
X0175497Y0103895D02*
X0177565Y0103895D01*
X0177565Y0104550D02*
X0175497Y0104550D01*
X0175497Y0105205D02*
X0177565Y0105205D01*
D23*
X0176531Y0105593D02*
X0174547Y0107577D01*
X0171035Y0107577D01*
X0169050Y0105593D01*
X0169050Y0104209D01*
X0176531Y0104209D02*
X0176531Y0099878D01*
X0174169Y0097516D01*
X0175547Y0098894D01*
X0180665Y0098894D01*
X0176531Y0104209D02*
X0176531Y0105593D01*
X0169050Y0114051D02*
X0169050Y0120744D01*
X0169444Y0121138D01*
X0175350Y0127043D01*
X0178696Y0127043D01*
X0175153Y0164051D02*
X0171216Y0164051D01*
X0167476Y0167791D01*
X0162948Y0167791D01*
X0158421Y0167791D01*
X0157043Y0166413D01*
D24*
X0157043Y0166413D03*
D25*
X0168854Y0162476D03*
X0170822Y0170350D03*
X0182633Y0166413D03*
X0182633Y0158539D03*
X0182633Y0150665D03*
X0182633Y0142791D03*
X0194444Y0140823D03*
X0202318Y0140823D03*
X0214129Y0142791D03*
X0214129Y0150665D03*
X0214129Y0158539D03*
X0214129Y0166413D03*
X0202318Y0168382D03*
X0194444Y0168382D03*
X0227909Y0174287D03*
X0245625Y0148697D03*
X0222003Y0130980D03*
X0186570Y0130980D03*
X0178696Y0127043D03*
X0180665Y0121138D03*
X0168854Y0127043D03*
X0171291Y0135480D03*
X0168854Y0144760D03*
X0149169Y0146728D03*
X0132554Y0153177D03*
X0129484Y0156571D03*
X0129484Y0160508D03*
X0117673Y0156571D03*
X0068460Y0134917D03*
X0130586Y0102083D03*
X0130586Y0098146D03*
X0134523Y0098146D03*
X0149169Y0091610D03*
X0162948Y0097516D03*
X0186570Y0091610D03*
X0157043Y0073894D03*
X0151137Y0079799D03*
X0139326Y0079799D03*
X0117673Y0085705D03*
X0225940Y0066020D03*
X0251531Y0067988D03*
X0249562Y0087673D03*
X0076334Y0190035D03*
D26*
X0134011Y0164445D02*
X0141098Y0157358D01*
X0141098Y0156965D01*
X0142082Y0157949D01*
X0149169Y0157949D01*
X0149169Y0164445D02*
X0140704Y0164445D01*
X0149169Y0164445D02*
X0162948Y0150665D01*
X0162948Y0138854D01*
X0170770Y0131032D01*
X0176728Y0131032D01*
X0179484Y0133788D01*
X0179484Y0135311D01*
X0182633Y0135311D02*
X0182633Y0132949D01*
X0179117Y0129432D01*
X0157463Y0129432D01*
X0140704Y0112673D01*
X0140704Y0109327D01*
X0134011Y0109327D02*
X0141098Y0102240D01*
X0141098Y0101846D01*
X0142082Y0102831D01*
X0149169Y0102831D01*
X0159011Y0104012D02*
X0159011Y0093579D01*
X0168854Y0083736D01*
X0173381Y0083736D01*
X0168854Y0083736D02*
X0168263Y0083736D01*
X0161570Y0083736D02*
X0159011Y0083736D01*
X0155074Y0087673D01*
X0155074Y0121138D01*
X0160980Y0127043D01*
X0168854Y0127043D01*
X0169050Y0114051D02*
X0159011Y0104012D01*
X0155074Y0087673D02*
X0139326Y0071925D01*
X0164917Y0071925D02*
X0172791Y0079799D01*
X0184011Y0079799D01*
X0184602Y0079799D01*
X0220035Y0079799D01*
X0225940Y0085705D01*
X0225940Y0121138D01*
X0214129Y0132949D01*
X0214129Y0135311D01*
X0227909Y0150665D02*
X0227909Y0078736D01*
X0221098Y0071925D01*
X0229877Y0073146D02*
X0229877Y0150665D01*
X0229509Y0151034D01*
X0229509Y0151328D01*
X0223085Y0157752D01*
X0221610Y0157752D01*
X0221610Y0154602D02*
X0223972Y0154602D01*
X0227909Y0150665D01*
X0175153Y0148303D02*
X0172397Y0148303D01*
X0168854Y0144760D01*
X0180074Y0083736D02*
X0184011Y0079799D01*
X0229877Y0073146D02*
X0231098Y0071925D01*
D27*
X0069412Y0060162D02*
X0067748Y0061371D01*
X0066539Y0063035D01*
X0065904Y0064991D01*
X0065823Y0066020D01*
X0065823Y0192004D01*
X0065904Y0193032D01*
X0066539Y0194988D01*
X0067748Y0196652D01*
X0069412Y0197861D01*
X0071369Y0198497D01*
X0072397Y0198578D01*
X0115704Y0198578D01*
X0115704Y0181666D01*
X0115282Y0181841D01*
X0113843Y0181841D01*
X0112514Y0181290D01*
X0111496Y0180273D01*
X0110946Y0178944D01*
X0110946Y0177505D01*
X0111496Y0176176D01*
X0112514Y0175158D01*
X0113843Y0174608D01*
X0115282Y0174608D01*
X0116611Y0175158D01*
X0117408Y0175956D01*
X0172363Y0175956D01*
X0172278Y0175640D01*
X0172278Y0174391D01*
X0174656Y0174391D01*
X0174656Y0173791D01*
X0172278Y0173791D01*
X0172278Y0172541D01*
X0172367Y0172211D01*
X0172532Y0171925D01*
X0172367Y0171640D01*
X0172278Y0171309D01*
X0172278Y0170444D01*
X0175059Y0170444D01*
X0175059Y0170257D01*
X0172278Y0170257D01*
X0172278Y0169392D01*
X0172367Y0169061D01*
X0172532Y0168776D01*
X0172367Y0168490D01*
X0172278Y0168159D01*
X0172278Y0167294D01*
X0175059Y0167294D01*
X0175059Y0167107D01*
X0172278Y0167107D01*
X0172278Y0166242D01*
X0172367Y0165912D01*
X0172459Y0165751D01*
X0171920Y0165751D01*
X0168180Y0169491D01*
X0166013Y0169491D01*
X0166013Y0169844D01*
X0165198Y0170660D01*
X0160698Y0170660D01*
X0159883Y0169844D01*
X0159883Y0169491D01*
X0157716Y0169491D01*
X0156926Y0168701D01*
X0156095Y0168701D01*
X0154755Y0167361D01*
X0154755Y0165466D01*
X0156095Y0164126D01*
X0157990Y0164126D01*
X0159330Y0165466D01*
X0159330Y0166091D01*
X0159883Y0166091D01*
X0159883Y0165738D01*
X0160698Y0164923D01*
X0165198Y0164923D01*
X0166013Y0165738D01*
X0166013Y0166091D01*
X0166771Y0166091D01*
X0170512Y0162351D01*
X0172967Y0162351D01*
X0172678Y0162062D01*
X0172678Y0159741D01*
X0173093Y0159327D01*
X0172678Y0158912D01*
X0172678Y0156592D01*
X0173093Y0156177D01*
X0172678Y0155763D01*
X0172678Y0153442D01*
X0173093Y0153028D01*
X0172678Y0152613D01*
X0172678Y0150293D01*
X0173093Y0149878D01*
X0172918Y0149703D01*
X0171817Y0149703D01*
X0169063Y0146949D01*
X0167947Y0146949D01*
X0166665Y0145667D01*
X0166665Y0143853D01*
X0167947Y0142571D01*
X0169760Y0142571D01*
X0171043Y0143853D01*
X0171043Y0144969D01*
X0172947Y0146874D01*
X0173093Y0146728D01*
X0172678Y0146314D01*
X0172678Y0143993D01*
X0173093Y0143579D01*
X0172678Y0143164D01*
X0172678Y0140844D01*
X0172818Y0140704D01*
X0172780Y0140682D01*
X0172538Y0140440D01*
X0172367Y0140144D01*
X0172278Y0139813D01*
X0172278Y0138948D01*
X0175059Y0138948D01*
X0175059Y0138761D01*
X0172278Y0138761D01*
X0172278Y0137896D01*
X0172367Y0137565D01*
X0172532Y0137280D01*
X0172367Y0136994D01*
X0172278Y0136663D01*
X0172278Y0135414D01*
X0174656Y0135414D01*
X0174656Y0134814D01*
X0175256Y0134814D01*
X0175256Y0132436D01*
X0176152Y0132436D01*
X0176148Y0132432D01*
X0171350Y0132432D01*
X0164348Y0139434D01*
X0164348Y0151245D01*
X0149748Y0165845D01*
X0148589Y0165845D01*
X0143573Y0165845D01*
X0143573Y0166695D01*
X0142757Y0167510D01*
X0138651Y0167510D01*
X0137836Y0166695D01*
X0137836Y0162600D01*
X0136880Y0163556D01*
X0136880Y0166695D01*
X0136064Y0167510D01*
X0131958Y0167510D01*
X0131143Y0166695D01*
X0131143Y0162195D01*
X0131958Y0161380D01*
X0135097Y0161380D01*
X0138623Y0157853D01*
X0138623Y0155051D01*
X0139381Y0154293D01*
X0142815Y0154293D01*
X0143573Y0155051D01*
X0143573Y0156549D01*
X0146103Y0156549D01*
X0146103Y0155896D01*
X0146919Y0155080D01*
X0151418Y0155080D01*
X0152234Y0155896D01*
X0152234Y0159400D01*
X0161548Y0150085D01*
X0161548Y0138274D01*
X0162368Y0137454D01*
X0168990Y0130832D01*
X0156883Y0130832D01*
X0156063Y0130012D01*
X0139304Y0113253D01*
X0139304Y0112392D01*
X0138651Y0112392D01*
X0137836Y0111577D01*
X0137836Y0107482D01*
X0136880Y0108438D01*
X0136880Y0111577D01*
X0136064Y0112392D01*
X0131958Y0112392D01*
X0131143Y0111577D01*
X0131143Y0107077D01*
X0131958Y0106261D01*
X0135097Y0106261D01*
X0138623Y0102735D01*
X0138623Y0099933D01*
X0139381Y0099175D01*
X0142815Y0099175D01*
X0143573Y0099933D01*
X0143573Y0101431D01*
X0146103Y0101431D01*
X0146103Y0100778D01*
X0146919Y0099962D01*
X0151418Y0099962D01*
X0152234Y0100778D01*
X0152234Y0104884D01*
X0151418Y0105699D01*
X0146919Y0105699D01*
X0146103Y0104884D01*
X0146103Y0104231D01*
X0143102Y0104231D01*
X0142815Y0104518D01*
X0140800Y0104518D01*
X0139056Y0106261D01*
X0142757Y0106261D01*
X0143573Y0107077D01*
X0143573Y0111577D01*
X0142757Y0112392D01*
X0142403Y0112392D01*
X0158043Y0128032D01*
X0159989Y0128032D01*
X0154494Y0122538D01*
X0153674Y0121718D01*
X0153674Y0088253D01*
X0141294Y0075873D01*
X0140201Y0076325D01*
X0138451Y0076325D01*
X0136834Y0075655D01*
X0135596Y0074418D01*
X0134926Y0072800D01*
X0134926Y0071050D01*
X0135596Y0069433D01*
X0136834Y0068195D01*
X0138451Y0067525D01*
X0140201Y0067525D01*
X0141818Y0068195D01*
X0143056Y0069433D01*
X0143726Y0071050D01*
X0143726Y0072800D01*
X0143274Y0073893D01*
X0155074Y0085693D01*
X0158431Y0082336D01*
X0158702Y0082336D01*
X0158702Y0081486D01*
X0159517Y0080671D01*
X0163623Y0080671D01*
X0164439Y0081486D01*
X0164439Y0085986D01*
X0163623Y0086802D01*
X0159517Y0086802D01*
X0158721Y0086006D01*
X0156474Y0088253D01*
X0156474Y0120558D01*
X0161559Y0125643D01*
X0167158Y0125643D01*
X0167947Y0124854D01*
X0169760Y0124854D01*
X0171043Y0126137D01*
X0171043Y0127950D01*
X0170960Y0128032D01*
X0173935Y0128032D01*
X0173650Y0127747D01*
X0170105Y0124203D01*
X0167391Y0124203D01*
X0166576Y0123388D01*
X0166576Y0118888D01*
X0167350Y0118113D01*
X0167350Y0116769D01*
X0166773Y0116191D01*
X0166773Y0113753D01*
X0158431Y0105412D01*
X0157611Y0104592D01*
X0157611Y0092999D01*
X0158431Y0092179D01*
X0165395Y0085215D01*
X0165395Y0081486D01*
X0166210Y0080671D01*
X0170316Y0080671D01*
X0170822Y0081177D01*
X0171328Y0080671D01*
X0171682Y0080671D01*
X0166884Y0075873D01*
X0165792Y0076325D01*
X0164041Y0076325D01*
X0162424Y0075655D01*
X0161186Y0074418D01*
X0160517Y0072800D01*
X0160517Y0071050D01*
X0161186Y0069433D01*
X0162424Y0068195D01*
X0164041Y0067525D01*
X0165792Y0067525D01*
X0167409Y0068195D01*
X0168647Y0069433D01*
X0169317Y0071050D01*
X0169317Y0072800D01*
X0168864Y0073893D01*
X0173371Y0078399D01*
X0220615Y0078399D01*
X0221435Y0079219D01*
X0221435Y0079219D01*
X0226509Y0084293D01*
X0226509Y0079316D01*
X0223065Y0075873D01*
X0221973Y0076325D01*
X0220222Y0076325D01*
X0218605Y0075655D01*
X0217368Y0074418D01*
X0216698Y0072800D01*
X0216698Y0071050D01*
X0217368Y0069433D01*
X0218605Y0068195D01*
X0220222Y0067525D01*
X0221973Y0067525D01*
X0223590Y0068195D01*
X0224828Y0069433D01*
X0225498Y0071050D01*
X0225498Y0072800D01*
X0225045Y0073893D01*
X0228477Y0077325D01*
X0228477Y0075527D01*
X0227368Y0074418D01*
X0226698Y0072800D01*
X0226698Y0071050D01*
X0227368Y0069433D01*
X0228605Y0068195D01*
X0230222Y0067525D01*
X0231973Y0067525D01*
X0233590Y0068195D01*
X0234828Y0069433D01*
X0235498Y0071050D01*
X0235498Y0072800D01*
X0234828Y0074418D01*
X0233590Y0075655D01*
X0231973Y0076325D01*
X0231277Y0076325D01*
X0231277Y0151245D01*
X0230909Y0151614D01*
X0230909Y0151908D01*
X0224084Y0158732D01*
X0224084Y0158912D01*
X0223670Y0159327D01*
X0224084Y0159741D01*
X0224084Y0162062D01*
X0223670Y0162476D01*
X0224084Y0162891D01*
X0224084Y0165211D01*
X0223670Y0165626D01*
X0224084Y0166041D01*
X0224084Y0168361D01*
X0223670Y0168776D01*
X0224084Y0169190D01*
X0224084Y0171511D01*
X0223945Y0171650D01*
X0223983Y0171672D01*
X0224225Y0171914D01*
X0224396Y0172211D01*
X0224484Y0172541D01*
X0224484Y0173791D01*
X0222106Y0173791D01*
X0222106Y0174391D01*
X0224484Y0174391D01*
X0224484Y0175640D01*
X0224400Y0175956D01*
X0256831Y0175956D01*
X0258148Y0174999D01*
X0259357Y0173335D01*
X0259992Y0171379D01*
X0260073Y0170350D01*
X0260073Y0066020D01*
X0259992Y0064991D01*
X0259357Y0063035D01*
X0258148Y0061371D01*
X0256484Y0060162D01*
X0254528Y0059527D01*
X0253499Y0059446D01*
X0072397Y0059446D01*
X0071369Y0059527D01*
X0069412Y0060162D01*
X0068893Y0060540D02*
X0101801Y0060540D01*
X0102416Y0060285D02*
X0105370Y0060285D01*
X0108100Y0061416D01*
X0110190Y0063505D01*
X0111321Y0066235D01*
X0111321Y0069190D01*
X0110190Y0071920D01*
X0108100Y0074009D01*
X0105370Y0075140D01*
X0102416Y0075140D01*
X0099686Y0074009D01*
X0097596Y0071920D01*
X0096465Y0069190D01*
X0096465Y0066235D01*
X0097596Y0063505D01*
X0099686Y0061416D01*
X0102416Y0060285D01*
X0100356Y0061138D02*
X0068069Y0061138D01*
X0067483Y0061737D02*
X0099365Y0061737D01*
X0098766Y0062335D02*
X0067048Y0062335D01*
X0066613Y0062934D02*
X0098168Y0062934D01*
X0097585Y0063532D02*
X0066378Y0063532D01*
X0066183Y0064131D02*
X0097337Y0064131D01*
X0097089Y0064729D02*
X0065989Y0064729D01*
X0065877Y0065328D02*
X0096841Y0065328D01*
X0096593Y0065926D02*
X0065830Y0065926D01*
X0065823Y0066525D02*
X0096465Y0066525D01*
X0096465Y0067123D02*
X0065823Y0067123D01*
X0065823Y0067722D02*
X0096465Y0067722D01*
X0096465Y0068320D02*
X0065823Y0068320D01*
X0065823Y0068919D02*
X0096465Y0068919D01*
X0096601Y0069517D02*
X0065823Y0069517D01*
X0065823Y0070116D02*
X0096849Y0070116D01*
X0097097Y0070714D02*
X0065823Y0070714D01*
X0065823Y0071313D02*
X0097345Y0071313D01*
X0097593Y0071911D02*
X0065823Y0071911D01*
X0065823Y0072510D02*
X0098186Y0072510D01*
X0098785Y0073108D02*
X0065823Y0073108D01*
X0065823Y0073707D02*
X0099383Y0073707D01*
X0100400Y0074305D02*
X0065823Y0074305D01*
X0065823Y0074904D02*
X0101845Y0074904D01*
X0105941Y0074904D02*
X0136082Y0074904D01*
X0135549Y0074305D02*
X0107385Y0074305D01*
X0108403Y0073707D02*
X0135302Y0073707D01*
X0135054Y0073108D02*
X0109001Y0073108D01*
X0109600Y0072510D02*
X0134926Y0072510D01*
X0134926Y0071911D02*
X0110193Y0071911D01*
X0110441Y0071313D02*
X0134926Y0071313D01*
X0135065Y0070714D02*
X0110689Y0070714D01*
X0110937Y0070116D02*
X0135313Y0070116D01*
X0135561Y0069517D02*
X0111185Y0069517D01*
X0111321Y0068919D02*
X0136110Y0068919D01*
X0136708Y0068320D02*
X0111321Y0068320D01*
X0111321Y0067722D02*
X0137976Y0067722D01*
X0140676Y0067722D02*
X0147003Y0067722D01*
X0146810Y0067820D02*
X0147483Y0067477D01*
X0148202Y0067243D01*
X0148948Y0067125D01*
X0149026Y0067125D01*
X0149026Y0071625D01*
X0149626Y0071625D01*
X0149626Y0067125D01*
X0149704Y0067125D01*
X0150450Y0067243D01*
X0151169Y0067477D01*
X0151842Y0067820D01*
X0152453Y0068264D01*
X0152987Y0068798D01*
X0153431Y0069409D01*
X0153774Y0070083D01*
X0154008Y0070801D01*
X0154126Y0071547D01*
X0154126Y0071625D01*
X0149626Y0071625D01*
X0149626Y0072225D01*
X0154126Y0072225D01*
X0154126Y0072303D01*
X0154008Y0073049D01*
X0153774Y0073768D01*
X0153431Y0074441D01*
X0152987Y0075052D01*
X0152453Y0075586D01*
X0151842Y0076031D01*
X0151169Y0076374D01*
X0150450Y0076607D01*
X0149704Y0076725D01*
X0149626Y0076725D01*
X0149626Y0072225D01*
X0149026Y0072225D01*
X0149026Y0071625D01*
X0144526Y0071625D01*
X0144526Y0071547D01*
X0144644Y0070801D01*
X0144878Y0070083D01*
X0145221Y0069409D01*
X0145665Y0068798D01*
X0146199Y0068264D01*
X0146810Y0067820D01*
X0146143Y0068320D02*
X0141944Y0068320D01*
X0142542Y0068919D02*
X0145577Y0068919D01*
X0145166Y0069517D02*
X0143091Y0069517D01*
X0143339Y0070116D02*
X0144867Y0070116D01*
X0144672Y0070714D02*
X0143587Y0070714D01*
X0143726Y0071313D02*
X0144563Y0071313D01*
X0144526Y0072225D02*
X0149026Y0072225D01*
X0149026Y0076725D01*
X0148948Y0076725D01*
X0148202Y0076607D01*
X0147483Y0076374D01*
X0146810Y0076031D01*
X0146199Y0075586D01*
X0145665Y0075052D01*
X0145221Y0074441D01*
X0144878Y0073768D01*
X0144644Y0073049D01*
X0144526Y0072303D01*
X0144526Y0072225D01*
X0144559Y0072510D02*
X0143726Y0072510D01*
X0143726Y0071911D02*
X0149026Y0071911D01*
X0149026Y0071313D02*
X0149626Y0071313D01*
X0149626Y0071911D02*
X0160517Y0071911D01*
X0160517Y0071313D02*
X0154089Y0071313D01*
X0153980Y0070714D02*
X0160656Y0070714D01*
X0160904Y0070116D02*
X0153785Y0070116D01*
X0153486Y0069517D02*
X0161151Y0069517D01*
X0161700Y0068919D02*
X0153075Y0068919D01*
X0152509Y0068320D02*
X0162299Y0068320D01*
X0163567Y0067722D02*
X0151649Y0067722D01*
X0149626Y0067722D02*
X0149026Y0067722D01*
X0149026Y0068320D02*
X0149626Y0068320D01*
X0149626Y0068919D02*
X0149026Y0068919D01*
X0149026Y0069517D02*
X0149626Y0069517D01*
X0149626Y0070116D02*
X0149026Y0070116D01*
X0149026Y0070714D02*
X0149626Y0070714D01*
X0149626Y0072510D02*
X0149026Y0072510D01*
X0149026Y0073108D02*
X0149626Y0073108D01*
X0149626Y0073707D02*
X0149026Y0073707D01*
X0149026Y0074305D02*
X0149626Y0074305D01*
X0149626Y0074904D02*
X0149026Y0074904D01*
X0149026Y0075502D02*
X0149626Y0075502D01*
X0149626Y0076101D02*
X0149026Y0076101D01*
X0149026Y0076700D02*
X0149626Y0076700D01*
X0149866Y0076700D02*
X0167711Y0076700D01*
X0168310Y0077298D02*
X0146679Y0077298D01*
X0147277Y0077897D02*
X0168908Y0077897D01*
X0169507Y0078495D02*
X0147876Y0078495D01*
X0148474Y0079094D02*
X0170105Y0079094D01*
X0170704Y0079692D02*
X0149073Y0079692D01*
X0149671Y0080291D02*
X0171302Y0080291D01*
X0171110Y0080889D02*
X0170534Y0080889D01*
X0165992Y0080889D02*
X0163841Y0080889D01*
X0164439Y0081488D02*
X0165395Y0081488D01*
X0165395Y0082086D02*
X0164439Y0082086D01*
X0164439Y0082685D02*
X0165395Y0082685D01*
X0165395Y0083283D02*
X0164439Y0083283D01*
X0164439Y0083882D02*
X0165395Y0083882D01*
X0165395Y0084480D02*
X0164439Y0084480D01*
X0164439Y0085079D02*
X0165395Y0085079D01*
X0164933Y0085677D02*
X0164439Y0085677D01*
X0164334Y0086276D02*
X0164149Y0086276D01*
X0163736Y0086874D02*
X0157853Y0086874D01*
X0158452Y0086276D02*
X0158991Y0086276D01*
X0157254Y0087473D02*
X0163137Y0087473D01*
X0162539Y0088071D02*
X0156656Y0088071D01*
X0156474Y0088670D02*
X0161940Y0088670D01*
X0161342Y0089268D02*
X0156474Y0089268D01*
X0156474Y0089867D02*
X0160743Y0089867D01*
X0160145Y0090465D02*
X0156474Y0090465D01*
X0156474Y0091064D02*
X0159546Y0091064D01*
X0158948Y0091662D02*
X0156474Y0091662D01*
X0156474Y0092261D02*
X0158349Y0092261D01*
X0157751Y0092859D02*
X0156474Y0092859D01*
X0156474Y0093458D02*
X0157611Y0093458D01*
X0157611Y0094056D02*
X0156474Y0094056D01*
X0156474Y0094655D02*
X0157611Y0094655D01*
X0157611Y0095253D02*
X0156474Y0095253D01*
X0156474Y0095852D02*
X0157611Y0095852D01*
X0157611Y0096450D02*
X0156474Y0096450D01*
X0156474Y0097049D02*
X0157611Y0097049D01*
X0157611Y0097647D02*
X0156474Y0097647D01*
X0156474Y0098246D02*
X0157611Y0098246D01*
X0157611Y0098844D02*
X0156474Y0098844D01*
X0156474Y0099443D02*
X0157611Y0099443D01*
X0157611Y0100041D02*
X0156474Y0100041D01*
X0156474Y0100640D02*
X0157611Y0100640D01*
X0157611Y0101238D02*
X0156474Y0101238D01*
X0156474Y0101837D02*
X0157611Y0101837D01*
X0157611Y0102436D02*
X0156474Y0102436D01*
X0156474Y0103034D02*
X0157611Y0103034D01*
X0157611Y0103633D02*
X0156474Y0103633D01*
X0156474Y0104231D02*
X0157611Y0104231D01*
X0157849Y0104830D02*
X0156474Y0104830D01*
X0156474Y0105428D02*
X0158447Y0105428D01*
X0159046Y0106027D02*
X0156474Y0106027D01*
X0156474Y0106625D02*
X0159644Y0106625D01*
X0160243Y0107224D02*
X0156474Y0107224D01*
X0156474Y0107822D02*
X0160841Y0107822D01*
X0161440Y0108421D02*
X0156474Y0108421D01*
X0156474Y0109019D02*
X0162039Y0109019D01*
X0162637Y0109618D02*
X0156474Y0109618D01*
X0156474Y0110216D02*
X0163236Y0110216D01*
X0163834Y0110815D02*
X0156474Y0110815D01*
X0156474Y0111413D02*
X0164433Y0111413D01*
X0165031Y0112012D02*
X0156474Y0112012D01*
X0156474Y0112610D02*
X0165630Y0112610D01*
X0166228Y0113209D02*
X0156474Y0113209D01*
X0156474Y0113807D02*
X0166773Y0113807D01*
X0166773Y0114406D02*
X0156474Y0114406D01*
X0156474Y0115004D02*
X0166773Y0115004D01*
X0166773Y0115603D02*
X0156474Y0115603D01*
X0156474Y0116201D02*
X0166783Y0116201D01*
X0167350Y0116800D02*
X0156474Y0116800D01*
X0156474Y0117398D02*
X0167350Y0117398D01*
X0167350Y0117997D02*
X0156474Y0117997D01*
X0156474Y0118595D02*
X0166868Y0118595D01*
X0166576Y0119194D02*
X0156474Y0119194D01*
X0156474Y0119792D02*
X0166576Y0119792D01*
X0166576Y0120391D02*
X0156474Y0120391D01*
X0156906Y0120989D02*
X0166576Y0120989D01*
X0166576Y0121588D02*
X0157504Y0121588D01*
X0158103Y0122186D02*
X0166576Y0122186D01*
X0166576Y0122785D02*
X0158701Y0122785D01*
X0159300Y0123383D02*
X0166576Y0123383D01*
X0167170Y0123982D02*
X0159898Y0123982D01*
X0160497Y0124580D02*
X0170483Y0124580D01*
X0170085Y0125179D02*
X0171081Y0125179D01*
X0170683Y0125777D02*
X0171680Y0125777D01*
X0172278Y0126376D02*
X0171043Y0126376D01*
X0171043Y0126974D02*
X0172877Y0126974D01*
X0173475Y0127573D02*
X0171043Y0127573D01*
X0167622Y0125179D02*
X0161095Y0125179D01*
X0158931Y0126974D02*
X0156985Y0126974D01*
X0156387Y0126376D02*
X0158332Y0126376D01*
X0157734Y0125777D02*
X0155788Y0125777D01*
X0155190Y0125179D02*
X0157135Y0125179D01*
X0156537Y0124580D02*
X0154591Y0124580D01*
X0153993Y0123982D02*
X0155938Y0123982D01*
X0155340Y0123383D02*
X0153394Y0123383D01*
X0152796Y0122785D02*
X0154741Y0122785D01*
X0154143Y0122186D02*
X0152197Y0122186D01*
X0151599Y0121588D02*
X0153674Y0121588D01*
X0153674Y0120989D02*
X0151000Y0120989D01*
X0150402Y0120391D02*
X0153674Y0120391D01*
X0153674Y0119792D02*
X0149803Y0119792D01*
X0149204Y0119194D02*
X0153674Y0119194D01*
X0153674Y0118595D02*
X0148606Y0118595D01*
X0148007Y0117997D02*
X0153674Y0117997D01*
X0153674Y0117398D02*
X0147409Y0117398D01*
X0146810Y0116800D02*
X0153674Y0116800D01*
X0153674Y0116201D02*
X0146212Y0116201D01*
X0145613Y0115603D02*
X0153674Y0115603D01*
X0153674Y0115004D02*
X0145015Y0115004D01*
X0144416Y0114406D02*
X0153674Y0114406D01*
X0153674Y0113807D02*
X0143818Y0113807D01*
X0143219Y0113209D02*
X0153674Y0113209D01*
X0153674Y0112610D02*
X0142621Y0112610D01*
X0143137Y0112012D02*
X0153674Y0112012D01*
X0153674Y0111413D02*
X0143573Y0111413D01*
X0143573Y0110815D02*
X0153674Y0110815D01*
X0153674Y0110216D02*
X0143573Y0110216D01*
X0143573Y0109618D02*
X0153674Y0109618D01*
X0153674Y0109019D02*
X0143573Y0109019D01*
X0143573Y0108421D02*
X0153674Y0108421D01*
X0153674Y0107822D02*
X0143573Y0107822D01*
X0143573Y0107224D02*
X0153674Y0107224D01*
X0153674Y0106625D02*
X0143121Y0106625D01*
X0143102Y0104231D02*
X0146103Y0104231D01*
X0146103Y0104830D02*
X0140488Y0104830D01*
X0139890Y0105428D02*
X0146648Y0105428D01*
X0146103Y0101238D02*
X0143573Y0101238D01*
X0143573Y0100640D02*
X0146241Y0100640D01*
X0146839Y0100041D02*
X0143573Y0100041D01*
X0143083Y0099443D02*
X0153674Y0099443D01*
X0153674Y0100041D02*
X0151498Y0100041D01*
X0151534Y0099284D02*
X0151078Y0099406D01*
X0149469Y0099406D01*
X0149469Y0096438D01*
X0152634Y0096438D01*
X0152634Y0097850D01*
X0152512Y0098306D01*
X0152276Y0098715D01*
X0151942Y0099048D01*
X0151534Y0099284D01*
X0152146Y0098844D02*
X0153674Y0098844D01*
X0153674Y0098246D02*
X0152528Y0098246D01*
X0152634Y0097647D02*
X0153674Y0097647D01*
X0153674Y0097049D02*
X0152634Y0097049D01*
X0152634Y0096450D02*
X0153674Y0096450D01*
X0153674Y0095852D02*
X0149469Y0095852D01*
X0149469Y0095838D02*
X0149469Y0096438D01*
X0148869Y0096438D01*
X0148869Y0099406D01*
X0147259Y0099406D01*
X0146804Y0099284D01*
X0146395Y0099048D01*
X0146061Y0098715D01*
X0145825Y0098306D01*
X0145703Y0097850D01*
X0145703Y0096438D01*
X0148869Y0096438D01*
X0148869Y0095838D01*
X0149469Y0095838D01*
X0152634Y0095838D01*
X0152634Y0094425D01*
X0152512Y0093970D01*
X0152276Y0093561D01*
X0151942Y0093227D01*
X0151534Y0092991D01*
X0151078Y0092869D01*
X0149469Y0092869D01*
X0149469Y0095838D01*
X0149469Y0095253D02*
X0148869Y0095253D01*
X0148869Y0095838D02*
X0148869Y0092869D01*
X0147259Y0092869D01*
X0146804Y0092991D01*
X0146395Y0093227D01*
X0146061Y0093561D01*
X0145825Y0093970D01*
X0145703Y0094425D01*
X0145703Y0095838D01*
X0148869Y0095838D01*
X0148869Y0095852D02*
X0139079Y0095852D01*
X0139075Y0095857D02*
X0138486Y0095857D01*
X0137934Y0096085D01*
X0136781Y0096085D01*
X0136229Y0095857D01*
X0135641Y0095857D01*
X0134883Y0095099D01*
X0134883Y0094811D01*
X0122770Y0082699D01*
X0116777Y0082699D01*
X0116611Y0082865D01*
X0115282Y0083416D01*
X0113843Y0083416D01*
X0112514Y0082865D01*
X0111496Y0081848D01*
X0110946Y0080519D01*
X0110946Y0079080D01*
X0111496Y0077751D01*
X0112514Y0076733D01*
X0113843Y0076183D01*
X0115282Y0076183D01*
X0116611Y0076733D01*
X0116777Y0076899D01*
X0124549Y0076899D01*
X0125614Y0077341D01*
X0126430Y0078156D01*
X0138787Y0090513D01*
X0139075Y0090513D01*
X0139832Y0091271D01*
X0139832Y0091582D01*
X0140258Y0092608D01*
X0140258Y0093762D01*
X0139832Y0094788D01*
X0139832Y0095099D01*
X0139075Y0095857D01*
X0139678Y0095253D02*
X0145703Y0095253D01*
X0145703Y0094655D02*
X0139888Y0094655D01*
X0140136Y0094056D02*
X0145802Y0094056D01*
X0146164Y0093458D02*
X0140258Y0093458D01*
X0140258Y0092859D02*
X0153674Y0092859D01*
X0153674Y0092261D02*
X0140114Y0092261D01*
X0139866Y0091662D02*
X0153674Y0091662D01*
X0153674Y0091064D02*
X0139625Y0091064D01*
X0138739Y0090465D02*
X0153674Y0090465D01*
X0153674Y0089867D02*
X0138141Y0089867D01*
X0137542Y0089268D02*
X0153674Y0089268D01*
X0153674Y0088670D02*
X0136943Y0088670D01*
X0136345Y0088071D02*
X0153492Y0088071D01*
X0152894Y0087473D02*
X0135746Y0087473D01*
X0135148Y0086874D02*
X0152295Y0086874D01*
X0151697Y0086276D02*
X0134549Y0086276D01*
X0133951Y0085677D02*
X0151098Y0085677D01*
X0150500Y0085079D02*
X0133352Y0085079D01*
X0132754Y0084480D02*
X0149901Y0084480D01*
X0149303Y0083882D02*
X0132155Y0083882D01*
X0131557Y0083283D02*
X0148704Y0083283D01*
X0148106Y0082685D02*
X0130958Y0082685D01*
X0130360Y0082086D02*
X0147507Y0082086D01*
X0146909Y0081488D02*
X0129761Y0081488D01*
X0129163Y0080889D02*
X0146310Y0080889D01*
X0145712Y0080291D02*
X0128564Y0080291D01*
X0127966Y0079692D02*
X0145113Y0079692D01*
X0144515Y0079094D02*
X0127367Y0079094D01*
X0126769Y0078495D02*
X0143916Y0078495D01*
X0143318Y0077897D02*
X0126170Y0077897D01*
X0125511Y0077298D02*
X0142719Y0077298D01*
X0142120Y0076700D02*
X0116529Y0076700D01*
X0112595Y0076700D02*
X0065823Y0076700D01*
X0065823Y0077298D02*
X0111949Y0077298D01*
X0111436Y0077897D02*
X0065823Y0077897D01*
X0065823Y0078495D02*
X0111188Y0078495D01*
X0110946Y0079094D02*
X0065823Y0079094D01*
X0065823Y0079692D02*
X0110946Y0079692D01*
X0110946Y0080291D02*
X0065823Y0080291D01*
X0065823Y0080889D02*
X0111099Y0080889D01*
X0111347Y0081488D02*
X0065823Y0081488D01*
X0065823Y0082086D02*
X0111735Y0082086D01*
X0112333Y0082685D02*
X0065823Y0082685D01*
X0065823Y0083283D02*
X0113523Y0083283D01*
X0115602Y0083283D02*
X0123354Y0083283D01*
X0123953Y0083882D02*
X0065823Y0083882D01*
X0065823Y0084480D02*
X0124551Y0084480D01*
X0125150Y0085079D02*
X0065823Y0085079D01*
X0065823Y0085677D02*
X0125748Y0085677D01*
X0126347Y0086276D02*
X0115886Y0086276D01*
X0115282Y0086025D02*
X0116611Y0086576D01*
X0117628Y0087593D01*
X0118179Y0088922D01*
X0118179Y0090361D01*
X0117628Y0091690D01*
X0116611Y0092708D01*
X0115282Y0093258D01*
X0113843Y0093258D01*
X0112514Y0092708D01*
X0111496Y0091690D01*
X0110946Y0090361D01*
X0110946Y0088922D01*
X0111496Y0087593D01*
X0112514Y0086576D01*
X0113843Y0086025D01*
X0115282Y0086025D01*
X0116909Y0086874D02*
X0126946Y0086874D01*
X0127544Y0087473D02*
X0117508Y0087473D01*
X0117826Y0088071D02*
X0128143Y0088071D01*
X0128741Y0088670D02*
X0118074Y0088670D01*
X0118179Y0089268D02*
X0129340Y0089268D01*
X0129938Y0089867D02*
X0118179Y0089867D01*
X0118136Y0090465D02*
X0130537Y0090465D01*
X0131135Y0091064D02*
X0117888Y0091064D01*
X0117640Y0091662D02*
X0131734Y0091662D01*
X0132332Y0092261D02*
X0117058Y0092261D01*
X0116245Y0092859D02*
X0132931Y0092859D01*
X0133529Y0093458D02*
X0065823Y0093458D01*
X0065823Y0094056D02*
X0113464Y0094056D01*
X0113843Y0093899D02*
X0115282Y0093899D01*
X0116611Y0094450D01*
X0117628Y0095467D01*
X0118179Y0096796D01*
X0118179Y0098235D01*
X0117628Y0099564D01*
X0116611Y0100582D01*
X0115282Y0101132D01*
X0113843Y0101132D01*
X0112514Y0100582D01*
X0111496Y0099564D01*
X0110946Y0098235D01*
X0110946Y0096796D01*
X0111496Y0095467D01*
X0112514Y0094450D01*
X0113843Y0093899D01*
X0112880Y0092859D02*
X0065823Y0092859D01*
X0065823Y0092261D02*
X0112067Y0092261D01*
X0111485Y0091662D02*
X0065823Y0091662D01*
X0065823Y0091064D02*
X0111237Y0091064D01*
X0110989Y0090465D02*
X0065823Y0090465D01*
X0065823Y0089867D02*
X0110946Y0089867D01*
X0110946Y0089268D02*
X0065823Y0089268D01*
X0065823Y0088670D02*
X0111050Y0088670D01*
X0111298Y0088071D02*
X0065823Y0088071D01*
X0065823Y0087473D02*
X0111617Y0087473D01*
X0112215Y0086874D02*
X0065823Y0086874D01*
X0065823Y0086276D02*
X0113238Y0086276D01*
X0115661Y0094056D02*
X0134128Y0094056D01*
X0134726Y0094655D02*
X0116816Y0094655D01*
X0117414Y0095253D02*
X0135037Y0095253D01*
X0135636Y0095852D02*
X0117788Y0095852D01*
X0118035Y0096450D02*
X0145703Y0096450D01*
X0145703Y0097049D02*
X0118179Y0097049D01*
X0118179Y0097647D02*
X0145703Y0097647D01*
X0145809Y0098246D02*
X0118174Y0098246D01*
X0117926Y0098844D02*
X0131953Y0098844D01*
X0131783Y0098890D02*
X0132213Y0098775D01*
X0133317Y0098775D01*
X0133317Y0101546D01*
X0133917Y0101546D01*
X0133917Y0098775D01*
X0135021Y0098775D01*
X0135452Y0098890D01*
X0135838Y0099113D01*
X0136154Y0099429D01*
X0136377Y0099815D01*
X0136492Y0100246D01*
X0136492Y0101546D01*
X0133917Y0101546D01*
X0133917Y0102146D01*
X0136492Y0102146D01*
X0136492Y0103447D01*
X0136377Y0103878D01*
X0136154Y0104264D01*
X0135838Y0104580D01*
X0135452Y0104803D01*
X0135021Y0104918D01*
X0133917Y0104918D01*
X0133917Y0102146D01*
X0133317Y0102146D01*
X0133317Y0101546D01*
X0130743Y0101546D01*
X0130743Y0100246D01*
X0130858Y0099815D01*
X0131081Y0099429D01*
X0131396Y0099113D01*
X0131783Y0098890D01*
X0131073Y0099443D02*
X0117679Y0099443D01*
X0117151Y0100041D02*
X0130797Y0100041D01*
X0130743Y0100640D02*
X0116470Y0100640D01*
X0115282Y0103742D02*
X0116611Y0104292D01*
X0117628Y0105310D01*
X0118179Y0106639D01*
X0118179Y0108078D01*
X0117628Y0109407D01*
X0116611Y0110424D01*
X0115282Y0110975D01*
X0113843Y0110975D01*
X0112514Y0110424D01*
X0111496Y0109407D01*
X0110946Y0108078D01*
X0110946Y0106639D01*
X0111496Y0105310D01*
X0112514Y0104292D01*
X0113843Y0103742D01*
X0115282Y0103742D01*
X0116463Y0104231D02*
X0131062Y0104231D01*
X0131081Y0104264D02*
X0130858Y0103878D01*
X0130743Y0103447D01*
X0130743Y0102146D01*
X0133317Y0102146D01*
X0133317Y0104918D01*
X0132213Y0104918D01*
X0131783Y0104803D01*
X0131396Y0104580D01*
X0131081Y0104264D01*
X0130792Y0103633D02*
X0065823Y0103633D01*
X0065823Y0104231D02*
X0112662Y0104231D01*
X0111976Y0104830D02*
X0065823Y0104830D01*
X0065823Y0105428D02*
X0111447Y0105428D01*
X0111199Y0106027D02*
X0065823Y0106027D01*
X0065823Y0106625D02*
X0110951Y0106625D01*
X0110946Y0107224D02*
X0065823Y0107224D01*
X0065823Y0107822D02*
X0110946Y0107822D01*
X0111088Y0108421D02*
X0065823Y0108421D01*
X0065823Y0109019D02*
X0111336Y0109019D01*
X0111707Y0109618D02*
X0065823Y0109618D01*
X0065823Y0110216D02*
X0112306Y0110216D01*
X0113456Y0110815D02*
X0065823Y0110815D01*
X0065823Y0111413D02*
X0131143Y0111413D01*
X0131143Y0110815D02*
X0115668Y0110815D01*
X0116819Y0110216D02*
X0131143Y0110216D01*
X0131143Y0109618D02*
X0117417Y0109618D01*
X0117789Y0109019D02*
X0131143Y0109019D01*
X0131143Y0108421D02*
X0118037Y0108421D01*
X0118179Y0107822D02*
X0131143Y0107822D01*
X0131143Y0107224D02*
X0118179Y0107224D01*
X0118173Y0106625D02*
X0131594Y0106625D01*
X0131883Y0104830D02*
X0117148Y0104830D01*
X0117677Y0105428D02*
X0135930Y0105428D01*
X0135352Y0104830D02*
X0136528Y0104830D01*
X0136173Y0104231D02*
X0137127Y0104231D01*
X0137725Y0103633D02*
X0136443Y0103633D01*
X0136492Y0103034D02*
X0138324Y0103034D01*
X0138623Y0102436D02*
X0136492Y0102436D01*
X0136492Y0101238D02*
X0138623Y0101238D01*
X0138623Y0100640D02*
X0136492Y0100640D01*
X0136438Y0100041D02*
X0138623Y0100041D01*
X0139113Y0099443D02*
X0136162Y0099443D01*
X0135281Y0098844D02*
X0146191Y0098844D01*
X0148869Y0098844D02*
X0149469Y0098844D01*
X0149469Y0098246D02*
X0148869Y0098246D01*
X0148869Y0097647D02*
X0149469Y0097647D01*
X0149469Y0097049D02*
X0148869Y0097049D01*
X0148869Y0096450D02*
X0149469Y0096450D01*
X0149469Y0094655D02*
X0148869Y0094655D01*
X0148869Y0094056D02*
X0149469Y0094056D01*
X0149469Y0093458D02*
X0148869Y0093458D01*
X0152173Y0093458D02*
X0153674Y0093458D01*
X0153674Y0094056D02*
X0152535Y0094056D01*
X0152634Y0094655D02*
X0153674Y0094655D01*
X0153674Y0095253D02*
X0152634Y0095253D01*
X0160411Y0095253D02*
X0164302Y0095253D01*
X0164329Y0095151D02*
X0164565Y0094742D01*
X0164899Y0094408D01*
X0165308Y0094173D01*
X0165763Y0094050D01*
X0167176Y0094050D01*
X0167176Y0097216D01*
X0167776Y0097216D01*
X0167776Y0097816D01*
X0170744Y0097816D01*
X0170744Y0099425D01*
X0170622Y0099881D01*
X0170386Y0100289D01*
X0170052Y0100623D01*
X0169644Y0100859D01*
X0169188Y0100981D01*
X0167776Y0100981D01*
X0167776Y0097816D01*
X0167176Y0097816D01*
X0167176Y0100981D01*
X0165763Y0100981D01*
X0165308Y0100859D01*
X0164899Y0100623D01*
X0164565Y0100289D01*
X0164329Y0099881D01*
X0164207Y0099425D01*
X0164207Y0097816D01*
X0167176Y0097816D01*
X0167176Y0097216D01*
X0164207Y0097216D01*
X0164207Y0095607D01*
X0164329Y0095151D01*
X0164652Y0094655D02*
X0160411Y0094655D01*
X0160411Y0094159D02*
X0160411Y0103432D01*
X0168162Y0111183D01*
X0170599Y0111183D01*
X0171328Y0111912D01*
X0171328Y0116191D01*
X0170750Y0116769D01*
X0170750Y0118072D01*
X0171497Y0118072D01*
X0172313Y0118888D01*
X0172313Y0121602D01*
X0172869Y0122158D01*
X0172869Y0121438D01*
X0175837Y0121438D01*
X0175837Y0124603D01*
X0175314Y0124603D01*
X0176054Y0125343D01*
X0177300Y0125343D01*
X0177789Y0124854D01*
X0179603Y0124854D01*
X0180885Y0126137D01*
X0180885Y0127950D01*
X0180250Y0128585D01*
X0184033Y0132369D01*
X0184033Y0132860D01*
X0184197Y0132696D01*
X0184494Y0132525D01*
X0184824Y0132436D01*
X0185689Y0132436D01*
X0185689Y0135217D01*
X0185876Y0135217D01*
X0185876Y0132436D01*
X0186741Y0132436D01*
X0187072Y0132525D01*
X0187368Y0132696D01*
X0187610Y0132938D01*
X0187632Y0132976D01*
X0187772Y0132836D01*
X0190093Y0132836D01*
X0190507Y0133251D01*
X0190922Y0132836D01*
X0193242Y0132836D01*
X0193657Y0133251D01*
X0194071Y0132836D01*
X0196392Y0132836D01*
X0196806Y0133251D01*
X0197221Y0132836D01*
X0199541Y0132836D01*
X0199956Y0133251D01*
X0200371Y0132836D01*
X0202691Y0132836D01*
X0203106Y0133251D01*
X0203520Y0132836D01*
X0205841Y0132836D01*
X0206255Y0133251D01*
X0206670Y0132836D01*
X0208990Y0132836D01*
X0209405Y0133251D01*
X0209819Y0132836D01*
X0212140Y0132836D01*
X0212554Y0133251D01*
X0212729Y0133076D01*
X0212729Y0132369D01*
X0213549Y0131549D01*
X0213549Y0131549D01*
X0224540Y0120558D01*
X0224540Y0086285D01*
X0219455Y0081199D01*
X0184591Y0081199D01*
X0182943Y0082848D01*
X0182943Y0085986D01*
X0182127Y0086802D01*
X0178021Y0086802D01*
X0177206Y0085986D01*
X0177206Y0081486D01*
X0177493Y0081199D01*
X0175963Y0081199D01*
X0176250Y0081486D01*
X0176250Y0085986D01*
X0175434Y0086802D01*
X0171328Y0086802D01*
X0170822Y0086296D01*
X0170316Y0086802D01*
X0167768Y0086802D01*
X0160411Y0094159D01*
X0160513Y0094056D02*
X0165741Y0094056D01*
X0167176Y0094056D02*
X0167776Y0094056D01*
X0167776Y0094050D02*
X0169188Y0094050D01*
X0169644Y0094173D01*
X0170052Y0094408D01*
X0170386Y0094742D01*
X0170622Y0095151D01*
X0170744Y0095607D01*
X0170744Y0097216D01*
X0167776Y0097216D01*
X0167776Y0094050D01*
X0167776Y0094655D02*
X0167176Y0094655D01*
X0167176Y0095253D02*
X0167776Y0095253D01*
X0167776Y0095852D02*
X0167176Y0095852D01*
X0167176Y0096450D02*
X0167776Y0096450D01*
X0167776Y0097049D02*
X0167176Y0097049D01*
X0167176Y0097647D02*
X0160411Y0097647D01*
X0160411Y0097049D02*
X0164207Y0097049D01*
X0164207Y0096450D02*
X0160411Y0096450D01*
X0160411Y0095852D02*
X0164207Y0095852D01*
X0161710Y0092859D02*
X0177199Y0092859D01*
X0177199Y0092501D02*
X0180365Y0092501D01*
X0180365Y0095469D01*
X0178755Y0095469D01*
X0178300Y0095347D01*
X0177891Y0095111D01*
X0177557Y0094778D01*
X0177321Y0094369D01*
X0177199Y0093913D01*
X0177199Y0092501D01*
X0177199Y0091901D02*
X0177199Y0090488D01*
X0177321Y0090033D01*
X0177557Y0089624D01*
X0177891Y0089290D01*
X0178300Y0089054D01*
X0178755Y0088932D01*
X0180365Y0088932D01*
X0180365Y0091901D01*
X0180965Y0091901D01*
X0180965Y0092501D01*
X0184130Y0092501D01*
X0184130Y0093913D01*
X0184008Y0094369D01*
X0183772Y0094778D01*
X0183438Y0095111D01*
X0183030Y0095347D01*
X0182574Y0095469D01*
X0180965Y0095469D01*
X0180965Y0092501D01*
X0180365Y0092501D01*
X0180365Y0091901D01*
X0177199Y0091901D01*
X0177199Y0091662D02*
X0162907Y0091662D01*
X0162309Y0092261D02*
X0180365Y0092261D01*
X0180365Y0092859D02*
X0180965Y0092859D01*
X0180965Y0092261D02*
X0203387Y0092261D01*
X0203387Y0092068D02*
X0204423Y0089566D01*
X0206337Y0087652D01*
X0208838Y0086616D01*
X0211546Y0086616D01*
X0214047Y0087652D01*
X0215962Y0089566D01*
X0216998Y0092068D01*
X0216998Y0094775D01*
X0215962Y0097276D01*
X0214047Y0099191D01*
X0211546Y0100227D01*
X0208838Y0100227D01*
X0207883Y0099831D01*
X0207178Y0100536D01*
X0206362Y0101352D01*
X0205297Y0101794D01*
X0187502Y0101794D01*
X0187502Y0102030D01*
X0187060Y0103095D01*
X0186244Y0103911D01*
X0185761Y0104395D01*
X0185399Y0105269D01*
X0184481Y0106187D01*
X0183282Y0106683D01*
X0181984Y0106683D01*
X0180785Y0106187D01*
X0179868Y0105269D01*
X0179371Y0104070D01*
X0179371Y0102772D01*
X0179789Y0101762D01*
X0178502Y0101762D01*
X0178809Y0102069D01*
X0178809Y0106348D01*
X0178080Y0107077D01*
X0177451Y0107077D01*
X0176247Y0108281D01*
X0175251Y0109277D01*
X0170330Y0109277D01*
X0169335Y0108281D01*
X0168130Y0107077D01*
X0167502Y0107077D01*
X0166773Y0106348D01*
X0166773Y0102069D01*
X0167502Y0101340D01*
X0170599Y0101340D01*
X0170638Y0101378D01*
X0170747Y0101269D01*
X0171122Y0101052D01*
X0171541Y0100940D01*
X0172491Y0100940D01*
X0172491Y0103909D01*
X0173091Y0103909D01*
X0173091Y0100940D01*
X0174041Y0100940D01*
X0174459Y0101052D01*
X0174831Y0101267D01*
X0174831Y0100582D01*
X0174830Y0100581D01*
X0172116Y0100581D01*
X0171300Y0099766D01*
X0171300Y0095266D01*
X0172116Y0094450D01*
X0176222Y0094450D01*
X0177037Y0095266D01*
X0177037Y0097194D01*
X0177599Y0097194D01*
X0177599Y0096841D01*
X0178415Y0096025D01*
X0180012Y0096025D01*
X0180088Y0095994D01*
X0203519Y0095994D01*
X0203782Y0095730D01*
X0203387Y0094775D01*
X0203387Y0092068D01*
X0203555Y0091662D02*
X0184130Y0091662D01*
X0184130Y0091901D02*
X0184130Y0090488D01*
X0184008Y0090033D01*
X0183772Y0089624D01*
X0183438Y0089290D01*
X0183030Y0089054D01*
X0182574Y0088932D01*
X0180965Y0088932D01*
X0180965Y0091901D01*
X0184130Y0091901D01*
X0184130Y0091064D02*
X0203802Y0091064D01*
X0204050Y0090465D02*
X0184124Y0090465D01*
X0183912Y0089867D02*
X0204298Y0089867D01*
X0204721Y0089268D02*
X0183400Y0089268D01*
X0180965Y0089268D02*
X0180365Y0089268D01*
X0180365Y0089867D02*
X0180965Y0089867D01*
X0180965Y0090465D02*
X0180365Y0090465D01*
X0180365Y0091064D02*
X0180965Y0091064D01*
X0180965Y0091662D02*
X0180365Y0091662D01*
X0180365Y0093458D02*
X0180965Y0093458D01*
X0180965Y0094056D02*
X0180365Y0094056D01*
X0180365Y0094655D02*
X0180965Y0094655D01*
X0180965Y0095253D02*
X0180365Y0095253D01*
X0178137Y0095253D02*
X0177025Y0095253D01*
X0177037Y0095852D02*
X0203660Y0095852D01*
X0203585Y0095253D02*
X0183192Y0095253D01*
X0183843Y0094655D02*
X0203387Y0094655D01*
X0203387Y0094056D02*
X0184092Y0094056D01*
X0184130Y0093458D02*
X0203387Y0093458D01*
X0203387Y0092859D02*
X0184130Y0092859D01*
X0177487Y0094655D02*
X0176426Y0094655D01*
X0177238Y0094056D02*
X0169210Y0094056D01*
X0170299Y0094655D02*
X0171911Y0094655D01*
X0171313Y0095253D02*
X0170650Y0095253D01*
X0170744Y0095852D02*
X0171300Y0095852D01*
X0171300Y0096450D02*
X0170744Y0096450D01*
X0170744Y0097049D02*
X0171300Y0097049D01*
X0171300Y0097647D02*
X0167776Y0097647D01*
X0167776Y0098246D02*
X0167176Y0098246D01*
X0167176Y0098844D02*
X0167776Y0098844D01*
X0167776Y0099443D02*
X0167176Y0099443D01*
X0167176Y0100041D02*
X0167776Y0100041D01*
X0167776Y0100640D02*
X0167176Y0100640D01*
X0167005Y0101837D02*
X0160411Y0101837D01*
X0160411Y0102436D02*
X0166773Y0102436D01*
X0166773Y0103034D02*
X0160411Y0103034D01*
X0160612Y0103633D02*
X0166773Y0103633D01*
X0166773Y0104231D02*
X0161210Y0104231D01*
X0161809Y0104830D02*
X0166773Y0104830D01*
X0166773Y0105428D02*
X0162407Y0105428D01*
X0163006Y0106027D02*
X0166773Y0106027D01*
X0167049Y0106625D02*
X0163604Y0106625D01*
X0164203Y0107224D02*
X0168277Y0107224D01*
X0168875Y0107822D02*
X0164801Y0107822D01*
X0165400Y0108421D02*
X0169474Y0108421D01*
X0170072Y0109019D02*
X0165998Y0109019D01*
X0166597Y0109618D02*
X0204068Y0109618D01*
X0204188Y0109409D02*
X0204763Y0108660D01*
X0205431Y0107992D01*
X0206180Y0107417D01*
X0206998Y0106945D01*
X0207871Y0106584D01*
X0208783Y0106339D01*
X0209720Y0106216D01*
X0209892Y0106216D01*
X0209892Y0113121D01*
X0210492Y0113121D01*
X0210492Y0106216D01*
X0210664Y0106216D01*
X0211601Y0106339D01*
X0212513Y0106584D01*
X0213386Y0106945D01*
X0214204Y0107417D01*
X0214953Y0107992D01*
X0215621Y0108660D01*
X0216196Y0109409D01*
X0216668Y0110227D01*
X0217030Y0111100D01*
X0217274Y0112013D01*
X0217398Y0112949D01*
X0217398Y0113121D01*
X0210492Y0113121D01*
X0210492Y0113721D01*
X0217398Y0113721D01*
X0217398Y0113894D01*
X0217274Y0114830D01*
X0217030Y0115742D01*
X0216668Y0116615D01*
X0216196Y0117433D01*
X0215621Y0118182D01*
X0214953Y0118850D01*
X0214204Y0119425D01*
X0213386Y0119898D01*
X0212513Y0120259D01*
X0211601Y0120503D01*
X0210664Y0120627D01*
X0210492Y0120627D01*
X0210492Y0113721D01*
X0209892Y0113721D01*
X0209892Y0113121D01*
X0202987Y0113121D01*
X0202987Y0112949D01*
X0203110Y0112013D01*
X0203354Y0111100D01*
X0203716Y0110227D01*
X0204188Y0109409D01*
X0204488Y0109019D02*
X0175509Y0109019D01*
X0176107Y0108421D02*
X0205003Y0108421D01*
X0205653Y0107822D02*
X0176706Y0107822D01*
X0177304Y0107224D02*
X0206516Y0107224D01*
X0207771Y0106625D02*
X0183423Y0106625D01*
X0184641Y0106027D02*
X0224540Y0106027D01*
X0224540Y0106625D02*
X0212614Y0106625D01*
X0213869Y0107224D02*
X0224540Y0107224D01*
X0224540Y0107822D02*
X0214732Y0107822D01*
X0215382Y0108421D02*
X0224540Y0108421D01*
X0224540Y0109019D02*
X0215897Y0109019D01*
X0216316Y0109618D02*
X0224540Y0109618D01*
X0224540Y0110216D02*
X0216662Y0110216D01*
X0216912Y0110815D02*
X0224540Y0110815D01*
X0224540Y0111413D02*
X0217114Y0111413D01*
X0217274Y0112012D02*
X0224540Y0112012D01*
X0224540Y0112610D02*
X0217353Y0112610D01*
X0217398Y0113807D02*
X0224540Y0113807D01*
X0224540Y0113209D02*
X0210492Y0113209D01*
X0210492Y0113807D02*
X0209892Y0113807D01*
X0209892Y0113721D02*
X0209892Y0120627D01*
X0209720Y0120627D01*
X0208783Y0120503D01*
X0207871Y0120259D01*
X0206998Y0119898D01*
X0206180Y0119425D01*
X0205431Y0118850D01*
X0204763Y0118182D01*
X0204188Y0117433D01*
X0203716Y0116615D01*
X0203354Y0115742D01*
X0203110Y0114830D01*
X0202987Y0113894D01*
X0202987Y0113721D01*
X0209892Y0113721D01*
X0209892Y0113209D02*
X0178809Y0113209D01*
X0178809Y0113807D02*
X0202987Y0113807D01*
X0203054Y0114406D02*
X0178809Y0114406D01*
X0178809Y0115004D02*
X0203157Y0115004D01*
X0203317Y0115603D02*
X0178809Y0115603D01*
X0178809Y0116191D02*
X0178080Y0116920D01*
X0174982Y0116920D01*
X0174253Y0116191D01*
X0174253Y0111912D01*
X0174982Y0111183D01*
X0178080Y0111183D01*
X0178809Y0111912D01*
X0178809Y0116191D01*
X0178798Y0116201D02*
X0203545Y0116201D01*
X0203823Y0116800D02*
X0178200Y0116800D01*
X0177849Y0117672D02*
X0178305Y0117795D01*
X0178714Y0118031D01*
X0179048Y0118364D01*
X0179283Y0118773D01*
X0179406Y0119229D01*
X0179406Y0120838D01*
X0176437Y0120838D01*
X0176437Y0121438D01*
X0175837Y0121438D01*
X0175837Y0120838D01*
X0172869Y0120838D01*
X0172869Y0119229D01*
X0172991Y0118773D01*
X0173227Y0118364D01*
X0173560Y0118031D01*
X0173969Y0117795D01*
X0174425Y0117672D01*
X0175837Y0117672D01*
X0175837Y0120838D01*
X0176437Y0120838D01*
X0176437Y0117672D01*
X0177849Y0117672D01*
X0178655Y0117997D02*
X0204621Y0117997D01*
X0204168Y0117398D02*
X0170750Y0117398D01*
X0170750Y0116800D02*
X0174862Y0116800D01*
X0174263Y0116201D02*
X0171318Y0116201D01*
X0171328Y0115603D02*
X0174253Y0115603D01*
X0174253Y0115004D02*
X0171328Y0115004D01*
X0171328Y0114406D02*
X0174253Y0114406D01*
X0174253Y0113807D02*
X0171328Y0113807D01*
X0171328Y0113209D02*
X0174253Y0113209D01*
X0174253Y0112610D02*
X0171328Y0112610D01*
X0171328Y0112012D02*
X0174253Y0112012D01*
X0174751Y0111413D02*
X0170830Y0111413D01*
X0167794Y0110815D02*
X0203473Y0110815D01*
X0203271Y0111413D02*
X0178310Y0111413D01*
X0178809Y0112012D02*
X0203110Y0112012D01*
X0203031Y0112610D02*
X0178809Y0112610D01*
X0176437Y0117997D02*
X0175837Y0117997D01*
X0175837Y0118595D02*
X0176437Y0118595D01*
X0176437Y0119194D02*
X0175837Y0119194D01*
X0175837Y0119792D02*
X0176437Y0119792D01*
X0176437Y0120391D02*
X0175837Y0120391D01*
X0175837Y0120989D02*
X0172313Y0120989D01*
X0172313Y0120391D02*
X0172869Y0120391D01*
X0172869Y0119792D02*
X0172313Y0119792D01*
X0172313Y0119194D02*
X0172878Y0119194D01*
X0173093Y0118595D02*
X0172020Y0118595D01*
X0170750Y0117997D02*
X0173619Y0117997D01*
X0172869Y0121588D02*
X0172313Y0121588D01*
X0175837Y0121588D02*
X0176437Y0121588D01*
X0176437Y0121438D02*
X0176437Y0124603D01*
X0177849Y0124603D01*
X0178305Y0124481D01*
X0178714Y0124245D01*
X0179048Y0123911D01*
X0179283Y0123503D01*
X0179406Y0123047D01*
X0179406Y0121438D01*
X0176437Y0121438D01*
X0176437Y0120989D02*
X0224109Y0120989D01*
X0224540Y0120391D02*
X0212021Y0120391D01*
X0210492Y0120391D02*
X0209892Y0120391D01*
X0209892Y0119792D02*
X0210492Y0119792D01*
X0210492Y0119194D02*
X0209892Y0119194D01*
X0209892Y0118595D02*
X0210492Y0118595D01*
X0210492Y0117997D02*
X0209892Y0117997D01*
X0209892Y0117398D02*
X0210492Y0117398D01*
X0210492Y0116800D02*
X0209892Y0116800D01*
X0209892Y0116201D02*
X0210492Y0116201D01*
X0210492Y0115603D02*
X0209892Y0115603D01*
X0209892Y0115004D02*
X0210492Y0115004D01*
X0210492Y0114406D02*
X0209892Y0114406D01*
X0209892Y0112610D02*
X0210492Y0112610D01*
X0210492Y0112012D02*
X0209892Y0112012D01*
X0209892Y0111413D02*
X0210492Y0111413D01*
X0210492Y0110815D02*
X0209892Y0110815D01*
X0209892Y0110216D02*
X0210492Y0110216D01*
X0210492Y0109618D02*
X0209892Y0109618D01*
X0209892Y0109019D02*
X0210492Y0109019D01*
X0210492Y0108421D02*
X0209892Y0108421D01*
X0209892Y0107822D02*
X0210492Y0107822D01*
X0210492Y0107224D02*
X0209892Y0107224D01*
X0209892Y0106625D02*
X0210492Y0106625D01*
X0206476Y0101238D02*
X0224540Y0101238D01*
X0224540Y0100640D02*
X0207075Y0100640D01*
X0207673Y0100041D02*
X0208391Y0100041D01*
X0211993Y0100041D02*
X0224540Y0100041D01*
X0224540Y0099443D02*
X0213438Y0099443D01*
X0214393Y0098844D02*
X0224540Y0098844D01*
X0224540Y0098246D02*
X0214992Y0098246D01*
X0215590Y0097647D02*
X0224540Y0097647D01*
X0224540Y0097049D02*
X0216056Y0097049D01*
X0216304Y0096450D02*
X0224540Y0096450D01*
X0224540Y0095852D02*
X0216552Y0095852D01*
X0216800Y0095253D02*
X0224540Y0095253D01*
X0224540Y0094655D02*
X0216998Y0094655D01*
X0216998Y0094056D02*
X0224540Y0094056D01*
X0224540Y0093458D02*
X0216998Y0093458D01*
X0216998Y0092859D02*
X0224540Y0092859D01*
X0224540Y0092261D02*
X0216998Y0092261D01*
X0216830Y0091662D02*
X0224540Y0091662D01*
X0224540Y0091064D02*
X0216582Y0091064D01*
X0216334Y0090465D02*
X0224540Y0090465D01*
X0224540Y0089867D02*
X0216086Y0089867D01*
X0215664Y0089268D02*
X0224540Y0089268D01*
X0224540Y0088670D02*
X0215065Y0088670D01*
X0214467Y0088071D02*
X0224540Y0088071D01*
X0224540Y0087473D02*
X0213615Y0087473D01*
X0212170Y0086874D02*
X0224540Y0086874D01*
X0224531Y0086276D02*
X0182653Y0086276D01*
X0182943Y0085677D02*
X0223933Y0085677D01*
X0223334Y0085079D02*
X0182943Y0085079D01*
X0182943Y0084480D02*
X0222736Y0084480D01*
X0222137Y0083882D02*
X0182943Y0083882D01*
X0182943Y0083283D02*
X0221539Y0083283D01*
X0220940Y0082685D02*
X0183106Y0082685D01*
X0183704Y0082086D02*
X0220342Y0082086D01*
X0219743Y0081488D02*
X0184303Y0081488D01*
X0187096Y0076637D02*
X0186799Y0076465D01*
X0186557Y0076223D01*
X0186386Y0075927D01*
X0186298Y0075596D01*
X0186298Y0072225D01*
X0190798Y0072225D01*
X0190798Y0076725D01*
X0187427Y0076725D01*
X0187096Y0076637D01*
X0187331Y0076700D02*
X0175456Y0076700D01*
X0175294Y0076725D02*
X0175217Y0076725D01*
X0175217Y0072225D01*
X0179717Y0072225D01*
X0179717Y0072303D01*
X0179598Y0073049D01*
X0179365Y0073768D01*
X0179022Y0074441D01*
X0178578Y0075052D01*
X0178044Y0075586D01*
X0177432Y0076031D01*
X0176759Y0076374D01*
X0176041Y0076607D01*
X0175294Y0076725D01*
X0175217Y0076700D02*
X0174617Y0076700D01*
X0174617Y0076725D02*
X0174539Y0076725D01*
X0173793Y0076607D01*
X0173074Y0076374D01*
X0172401Y0076031D01*
X0171790Y0075586D01*
X0171255Y0075052D01*
X0170811Y0074441D01*
X0170468Y0073768D01*
X0170235Y0073049D01*
X0170117Y0072303D01*
X0170117Y0072225D01*
X0174617Y0072225D01*
X0174617Y0076725D01*
X0174377Y0076700D02*
X0171671Y0076700D01*
X0172269Y0077298D02*
X0224491Y0077298D01*
X0225089Y0077897D02*
X0172868Y0077897D01*
X0172539Y0076101D02*
X0171072Y0076101D01*
X0170474Y0075502D02*
X0171706Y0075502D01*
X0171148Y0074904D02*
X0169875Y0074904D01*
X0169277Y0074305D02*
X0170742Y0074305D01*
X0170449Y0073707D02*
X0168941Y0073707D01*
X0169189Y0073108D02*
X0170254Y0073108D01*
X0170149Y0072510D02*
X0169317Y0072510D01*
X0169317Y0071911D02*
X0174617Y0071911D01*
X0174617Y0071625D02*
X0170117Y0071625D01*
X0170117Y0071547D01*
X0170235Y0070801D01*
X0170468Y0070083D01*
X0170811Y0069409D01*
X0171255Y0068798D01*
X0171790Y0068264D01*
X0172401Y0067820D01*
X0173074Y0067477D01*
X0173793Y0067243D01*
X0174539Y0067125D01*
X0174617Y0067125D01*
X0174617Y0071625D01*
X0175217Y0071625D01*
X0175217Y0072225D01*
X0174617Y0072225D01*
X0174617Y0071625D01*
X0174617Y0071313D02*
X0175217Y0071313D01*
X0175217Y0071625D02*
X0175217Y0067125D01*
X0175294Y0067125D01*
X0176041Y0067243D01*
X0176759Y0067477D01*
X0177432Y0067820D01*
X0178044Y0068264D01*
X0178578Y0068798D01*
X0179022Y0069409D01*
X0179365Y0070083D01*
X0179598Y0070801D01*
X0179717Y0071547D01*
X0179717Y0071625D01*
X0175217Y0071625D01*
X0175217Y0071911D02*
X0190798Y0071911D01*
X0190798Y0071625D02*
X0186298Y0071625D01*
X0186298Y0068254D01*
X0186386Y0067923D01*
X0186557Y0067627D01*
X0186799Y0067385D01*
X0187096Y0067214D01*
X0187427Y0067125D01*
X0190798Y0067125D01*
X0190798Y0071625D01*
X0191398Y0071625D01*
X0191398Y0072225D01*
X0195898Y0072225D01*
X0195898Y0075596D01*
X0195809Y0075927D01*
X0195638Y0076223D01*
X0195396Y0076465D01*
X0195099Y0076637D01*
X0194769Y0076725D01*
X0191398Y0076725D01*
X0191398Y0072225D01*
X0190798Y0072225D01*
X0190798Y0071625D01*
X0190798Y0071313D02*
X0191398Y0071313D01*
X0191398Y0071625D02*
X0191398Y0067125D01*
X0194769Y0067125D01*
X0195099Y0067214D01*
X0195396Y0067385D01*
X0195638Y0067627D01*
X0195809Y0067923D01*
X0195898Y0068254D01*
X0195898Y0071625D01*
X0191398Y0071625D01*
X0191398Y0071911D02*
X0196698Y0071911D01*
X0196698Y0071313D02*
X0195898Y0071313D01*
X0195898Y0070714D02*
X0196837Y0070714D01*
X0196698Y0071050D02*
X0197368Y0069433D01*
X0198605Y0068195D01*
X0200222Y0067525D01*
X0201973Y0067525D01*
X0203590Y0068195D01*
X0204828Y0069433D01*
X0205498Y0071050D01*
X0205498Y0072800D01*
X0204828Y0074418D01*
X0203590Y0075655D01*
X0201973Y0076325D01*
X0200222Y0076325D01*
X0198605Y0075655D01*
X0197368Y0074418D01*
X0196698Y0072800D01*
X0196698Y0071050D01*
X0197085Y0070116D02*
X0195898Y0070116D01*
X0195898Y0069517D02*
X0197333Y0069517D01*
X0197881Y0068919D02*
X0195898Y0068919D01*
X0195898Y0068320D02*
X0198480Y0068320D01*
X0199748Y0067722D02*
X0195693Y0067722D01*
X0191398Y0067722D02*
X0190798Y0067722D01*
X0190798Y0068320D02*
X0191398Y0068320D01*
X0191398Y0068919D02*
X0190798Y0068919D01*
X0190798Y0069517D02*
X0191398Y0069517D01*
X0191398Y0070116D02*
X0190798Y0070116D01*
X0190798Y0070714D02*
X0191398Y0070714D01*
X0191398Y0072510D02*
X0190798Y0072510D01*
X0190798Y0073108D02*
X0191398Y0073108D01*
X0191398Y0073707D02*
X0190798Y0073707D01*
X0190798Y0074305D02*
X0191398Y0074305D01*
X0191398Y0074904D02*
X0190798Y0074904D01*
X0190798Y0075502D02*
X0191398Y0075502D01*
X0191398Y0076101D02*
X0190798Y0076101D01*
X0190798Y0076700D02*
X0191398Y0076700D01*
X0194865Y0076700D02*
X0223892Y0076700D01*
X0223294Y0076101D02*
X0222514Y0076101D01*
X0219681Y0076101D02*
X0212514Y0076101D01*
X0211973Y0076325D02*
X0210222Y0076325D01*
X0208605Y0075655D01*
X0207368Y0074418D01*
X0206698Y0072800D01*
X0206698Y0071050D01*
X0207368Y0069433D01*
X0208605Y0068195D01*
X0210222Y0067525D01*
X0211973Y0067525D01*
X0213590Y0068195D01*
X0214828Y0069433D01*
X0215498Y0071050D01*
X0215498Y0072800D01*
X0214828Y0074418D01*
X0213590Y0075655D01*
X0211973Y0076325D01*
X0213743Y0075502D02*
X0218452Y0075502D01*
X0217854Y0074904D02*
X0214341Y0074904D01*
X0214874Y0074305D02*
X0217321Y0074305D01*
X0217073Y0073707D02*
X0215122Y0073707D01*
X0215370Y0073108D02*
X0216825Y0073108D01*
X0216698Y0072510D02*
X0215498Y0072510D01*
X0215498Y0071911D02*
X0216698Y0071911D01*
X0216698Y0071313D02*
X0215498Y0071313D01*
X0215359Y0070714D02*
X0216837Y0070714D01*
X0217085Y0070116D02*
X0215111Y0070116D01*
X0214863Y0069517D02*
X0217333Y0069517D01*
X0217881Y0068919D02*
X0214314Y0068919D01*
X0213715Y0068320D02*
X0218480Y0068320D01*
X0219748Y0067722D02*
X0212448Y0067722D01*
X0209748Y0067722D02*
X0202448Y0067722D01*
X0203715Y0068320D02*
X0208480Y0068320D01*
X0207881Y0068919D02*
X0204314Y0068919D01*
X0204863Y0069517D02*
X0207333Y0069517D01*
X0207085Y0070116D02*
X0205111Y0070116D01*
X0205359Y0070714D02*
X0206837Y0070714D01*
X0206698Y0071313D02*
X0205498Y0071313D01*
X0205498Y0071911D02*
X0206698Y0071911D01*
X0206698Y0072510D02*
X0205498Y0072510D01*
X0205370Y0073108D02*
X0206825Y0073108D01*
X0207073Y0073707D02*
X0205122Y0073707D01*
X0204874Y0074305D02*
X0207321Y0074305D01*
X0207854Y0074904D02*
X0204341Y0074904D01*
X0203743Y0075502D02*
X0208452Y0075502D01*
X0209681Y0076101D02*
X0202514Y0076101D01*
X0199681Y0076101D02*
X0195709Y0076101D01*
X0195898Y0075502D02*
X0198452Y0075502D01*
X0197854Y0074904D02*
X0195898Y0074904D01*
X0195898Y0074305D02*
X0197321Y0074305D01*
X0197073Y0073707D02*
X0195898Y0073707D01*
X0195898Y0073108D02*
X0196825Y0073108D01*
X0196698Y0072510D02*
X0195898Y0072510D01*
X0186298Y0072510D02*
X0179684Y0072510D01*
X0179579Y0073108D02*
X0186298Y0073108D01*
X0186298Y0073707D02*
X0179385Y0073707D01*
X0179091Y0074305D02*
X0186298Y0074305D01*
X0186298Y0074904D02*
X0178686Y0074904D01*
X0178128Y0075502D02*
X0186298Y0075502D01*
X0186487Y0076101D02*
X0177294Y0076101D01*
X0175217Y0076101D02*
X0174617Y0076101D01*
X0174617Y0075502D02*
X0175217Y0075502D01*
X0175217Y0074904D02*
X0174617Y0074904D01*
X0174617Y0074305D02*
X0175217Y0074305D01*
X0175217Y0073707D02*
X0174617Y0073707D01*
X0174617Y0073108D02*
X0175217Y0073108D01*
X0175217Y0072510D02*
X0174617Y0072510D01*
X0174617Y0070714D02*
X0175217Y0070714D01*
X0175217Y0070116D02*
X0174617Y0070116D01*
X0174617Y0069517D02*
X0175217Y0069517D01*
X0175217Y0068919D02*
X0174617Y0068919D01*
X0174617Y0068320D02*
X0175217Y0068320D01*
X0175217Y0067722D02*
X0174617Y0067722D01*
X0172593Y0067722D02*
X0166267Y0067722D01*
X0167534Y0068320D02*
X0171733Y0068320D01*
X0171168Y0068919D02*
X0168133Y0068919D01*
X0168682Y0069517D02*
X0170756Y0069517D01*
X0170457Y0070116D02*
X0168930Y0070116D01*
X0169178Y0070714D02*
X0170263Y0070714D01*
X0170154Y0071313D02*
X0169317Y0071313D01*
X0162271Y0075502D02*
X0152537Y0075502D01*
X0153095Y0074904D02*
X0161673Y0074904D01*
X0161140Y0074305D02*
X0153500Y0074305D01*
X0153794Y0073707D02*
X0160892Y0073707D01*
X0160644Y0073108D02*
X0153989Y0073108D01*
X0154093Y0072510D02*
X0160517Y0072510D01*
X0163500Y0076101D02*
X0151703Y0076101D01*
X0148786Y0076700D02*
X0146080Y0076700D01*
X0145482Y0076101D02*
X0146949Y0076101D01*
X0146115Y0075502D02*
X0144883Y0075502D01*
X0144285Y0074904D02*
X0145557Y0074904D01*
X0145152Y0074305D02*
X0143686Y0074305D01*
X0143351Y0073707D02*
X0144858Y0073707D01*
X0144664Y0073108D02*
X0143598Y0073108D01*
X0141522Y0076101D02*
X0140742Y0076101D01*
X0137910Y0076101D02*
X0065823Y0076101D01*
X0065823Y0075502D02*
X0136681Y0075502D01*
X0150270Y0080889D02*
X0159299Y0080889D01*
X0158702Y0081488D02*
X0150868Y0081488D01*
X0151467Y0082086D02*
X0158702Y0082086D01*
X0158083Y0082685D02*
X0152065Y0082685D01*
X0152664Y0083283D02*
X0157484Y0083283D01*
X0156886Y0083882D02*
X0153262Y0083882D01*
X0153861Y0084480D02*
X0156287Y0084480D01*
X0155689Y0085079D02*
X0154459Y0085079D01*
X0155058Y0085677D02*
X0155090Y0085677D01*
X0163506Y0091064D02*
X0177199Y0091064D01*
X0177205Y0090465D02*
X0164104Y0090465D01*
X0164703Y0089867D02*
X0177417Y0089867D01*
X0177929Y0089268D02*
X0165301Y0089268D01*
X0165900Y0088670D02*
X0205319Y0088670D01*
X0205918Y0088071D02*
X0166498Y0088071D01*
X0167097Y0087473D02*
X0206770Y0087473D01*
X0208214Y0086874D02*
X0167696Y0086874D01*
X0175960Y0086276D02*
X0177495Y0086276D01*
X0177206Y0085677D02*
X0176250Y0085677D01*
X0176250Y0085079D02*
X0177206Y0085079D01*
X0177206Y0084480D02*
X0176250Y0084480D01*
X0176250Y0083882D02*
X0177206Y0083882D01*
X0177206Y0083283D02*
X0176250Y0083283D01*
X0176250Y0082685D02*
X0177206Y0082685D01*
X0177206Y0082086D02*
X0176250Y0082086D01*
X0176250Y0081488D02*
X0177206Y0081488D01*
X0167113Y0076101D02*
X0166333Y0076101D01*
X0177240Y0067722D02*
X0186503Y0067722D01*
X0186298Y0068320D02*
X0178100Y0068320D01*
X0178665Y0068919D02*
X0186298Y0068919D01*
X0186298Y0069517D02*
X0179077Y0069517D01*
X0179376Y0070116D02*
X0186298Y0070116D01*
X0186298Y0070714D02*
X0179570Y0070714D01*
X0179679Y0071313D02*
X0186298Y0071313D01*
X0220710Y0078495D02*
X0225688Y0078495D01*
X0226286Y0079094D02*
X0221309Y0079094D01*
X0221907Y0079692D02*
X0226509Y0079692D01*
X0226509Y0080291D02*
X0222506Y0080291D01*
X0223104Y0080889D02*
X0226509Y0080889D01*
X0226509Y0081488D02*
X0223703Y0081488D01*
X0224302Y0082086D02*
X0226509Y0082086D01*
X0226509Y0082685D02*
X0224900Y0082685D01*
X0225499Y0083283D02*
X0226509Y0083283D01*
X0226509Y0083882D02*
X0226097Y0083882D01*
X0231277Y0083882D02*
X0260073Y0083882D01*
X0260073Y0084480D02*
X0231277Y0084480D01*
X0231277Y0085079D02*
X0260073Y0085079D01*
X0260073Y0085677D02*
X0231277Y0085677D01*
X0231277Y0086276D02*
X0260073Y0086276D01*
X0260073Y0086874D02*
X0231277Y0086874D01*
X0231277Y0087473D02*
X0260073Y0087473D01*
X0260073Y0088071D02*
X0231277Y0088071D01*
X0231277Y0088670D02*
X0260073Y0088670D01*
X0260073Y0089268D02*
X0231277Y0089268D01*
X0231277Y0089867D02*
X0260073Y0089867D01*
X0260073Y0090465D02*
X0231277Y0090465D01*
X0231277Y0091064D02*
X0260073Y0091064D01*
X0260073Y0091662D02*
X0231277Y0091662D01*
X0231277Y0092261D02*
X0260073Y0092261D01*
X0260073Y0092859D02*
X0231277Y0092859D01*
X0231277Y0093458D02*
X0260073Y0093458D01*
X0260073Y0094056D02*
X0231277Y0094056D01*
X0231277Y0094655D02*
X0260073Y0094655D01*
X0260073Y0095253D02*
X0231277Y0095253D01*
X0231277Y0095852D02*
X0260073Y0095852D01*
X0260073Y0096450D02*
X0231277Y0096450D01*
X0231277Y0097049D02*
X0260073Y0097049D01*
X0260073Y0097647D02*
X0231277Y0097647D01*
X0231277Y0098246D02*
X0260073Y0098246D01*
X0260073Y0098844D02*
X0231277Y0098844D01*
X0231277Y0099443D02*
X0260073Y0099443D01*
X0260073Y0100041D02*
X0231277Y0100041D01*
X0231277Y0100640D02*
X0260073Y0100640D01*
X0260073Y0101238D02*
X0231277Y0101238D01*
X0231277Y0101837D02*
X0260073Y0101837D01*
X0260073Y0102436D02*
X0231277Y0102436D01*
X0231277Y0103034D02*
X0260073Y0103034D01*
X0260073Y0103633D02*
X0231277Y0103633D01*
X0231277Y0104231D02*
X0260073Y0104231D01*
X0260073Y0104830D02*
X0231277Y0104830D01*
X0231277Y0105428D02*
X0260073Y0105428D01*
X0260073Y0106027D02*
X0231277Y0106027D01*
X0231277Y0106625D02*
X0260073Y0106625D01*
X0260073Y0107224D02*
X0231277Y0107224D01*
X0231277Y0107822D02*
X0260073Y0107822D01*
X0260073Y0108421D02*
X0231277Y0108421D01*
X0231277Y0109019D02*
X0260073Y0109019D01*
X0260073Y0109618D02*
X0231277Y0109618D01*
X0231277Y0110216D02*
X0260073Y0110216D01*
X0260073Y0110815D02*
X0231277Y0110815D01*
X0231277Y0111413D02*
X0260073Y0111413D01*
X0260073Y0112012D02*
X0231277Y0112012D01*
X0231277Y0112610D02*
X0260073Y0112610D01*
X0260073Y0113209D02*
X0231277Y0113209D01*
X0231277Y0113807D02*
X0260073Y0113807D01*
X0260073Y0114406D02*
X0231277Y0114406D01*
X0231277Y0115004D02*
X0260073Y0115004D01*
X0260073Y0115603D02*
X0231277Y0115603D01*
X0231277Y0116201D02*
X0260073Y0116201D01*
X0260073Y0116800D02*
X0231277Y0116800D01*
X0231277Y0117398D02*
X0260073Y0117398D01*
X0260073Y0117997D02*
X0231277Y0117997D01*
X0231277Y0118595D02*
X0260073Y0118595D01*
X0260073Y0119194D02*
X0231277Y0119194D01*
X0231277Y0119792D02*
X0260073Y0119792D01*
X0260073Y0120391D02*
X0231277Y0120391D01*
X0231277Y0120989D02*
X0260073Y0120989D01*
X0260073Y0121588D02*
X0231277Y0121588D01*
X0231277Y0122186D02*
X0260073Y0122186D01*
X0260073Y0122785D02*
X0231277Y0122785D01*
X0231277Y0123383D02*
X0260073Y0123383D01*
X0260073Y0123982D02*
X0231277Y0123982D01*
X0231277Y0124580D02*
X0260073Y0124580D01*
X0260073Y0125179D02*
X0231277Y0125179D01*
X0231277Y0125777D02*
X0260073Y0125777D01*
X0260073Y0126376D02*
X0231277Y0126376D01*
X0231277Y0126974D02*
X0260073Y0126974D01*
X0260073Y0127573D02*
X0231277Y0127573D01*
X0231277Y0128171D02*
X0260073Y0128171D01*
X0260073Y0128770D02*
X0231277Y0128770D01*
X0231277Y0129369D02*
X0260073Y0129369D01*
X0260073Y0129967D02*
X0231277Y0129967D01*
X0231277Y0130566D02*
X0260073Y0130566D01*
X0260073Y0131164D02*
X0231277Y0131164D01*
X0231277Y0131763D02*
X0260073Y0131763D01*
X0260073Y0132361D02*
X0231277Y0132361D01*
X0231277Y0132960D02*
X0260073Y0132960D01*
X0260073Y0133558D02*
X0231277Y0133558D01*
X0231277Y0134157D02*
X0260073Y0134157D01*
X0260073Y0134755D02*
X0231277Y0134755D01*
X0231277Y0135354D02*
X0260073Y0135354D01*
X0260073Y0135952D02*
X0231277Y0135952D01*
X0231277Y0136551D02*
X0260073Y0136551D01*
X0260073Y0137149D02*
X0231277Y0137149D01*
X0231277Y0137748D02*
X0260073Y0137748D01*
X0260073Y0138346D02*
X0231277Y0138346D01*
X0231277Y0138945D02*
X0260073Y0138945D01*
X0260073Y0139543D02*
X0231277Y0139543D01*
X0231277Y0140142D02*
X0260073Y0140142D01*
X0260073Y0140740D02*
X0231277Y0140740D01*
X0231277Y0141339D02*
X0260073Y0141339D01*
X0260073Y0141937D02*
X0231277Y0141937D01*
X0231277Y0142536D02*
X0260073Y0142536D01*
X0260073Y0143134D02*
X0231277Y0143134D01*
X0231277Y0143733D02*
X0260073Y0143733D01*
X0260073Y0144331D02*
X0231277Y0144331D01*
X0231277Y0144930D02*
X0260073Y0144930D01*
X0260073Y0145528D02*
X0231277Y0145528D01*
X0231277Y0146127D02*
X0260073Y0146127D01*
X0260073Y0146725D02*
X0231277Y0146725D01*
X0231277Y0147324D02*
X0260073Y0147324D01*
X0260073Y0147922D02*
X0231277Y0147922D01*
X0231277Y0148521D02*
X0260073Y0148521D01*
X0260073Y0149119D02*
X0231277Y0149119D01*
X0231277Y0149718D02*
X0260073Y0149718D01*
X0260073Y0150316D02*
X0231277Y0150316D01*
X0231277Y0150915D02*
X0260073Y0150915D01*
X0260073Y0151513D02*
X0231009Y0151513D01*
X0230705Y0152112D02*
X0260073Y0152112D01*
X0260073Y0152710D02*
X0230106Y0152710D01*
X0229508Y0153309D02*
X0260073Y0153309D01*
X0260073Y0153907D02*
X0228909Y0153907D01*
X0228311Y0154506D02*
X0260073Y0154506D01*
X0260073Y0155105D02*
X0227712Y0155105D01*
X0227114Y0155703D02*
X0260073Y0155703D01*
X0260073Y0156302D02*
X0226515Y0156302D01*
X0225917Y0156900D02*
X0260073Y0156900D01*
X0260073Y0157499D02*
X0225318Y0157499D01*
X0224720Y0158097D02*
X0260073Y0158097D01*
X0260073Y0158696D02*
X0224121Y0158696D01*
X0223702Y0159294D02*
X0260073Y0159294D01*
X0260073Y0159893D02*
X0224084Y0159893D01*
X0224084Y0160491D02*
X0260073Y0160491D01*
X0260073Y0161090D02*
X0224084Y0161090D01*
X0224084Y0161688D02*
X0260073Y0161688D01*
X0260073Y0162287D02*
X0223859Y0162287D01*
X0224078Y0162885D02*
X0260073Y0162885D01*
X0260073Y0163484D02*
X0224084Y0163484D01*
X0224084Y0164082D02*
X0260073Y0164082D01*
X0260073Y0164681D02*
X0224084Y0164681D01*
X0224016Y0165279D02*
X0260073Y0165279D01*
X0260073Y0165878D02*
X0223921Y0165878D01*
X0224084Y0166476D02*
X0260073Y0166476D01*
X0260073Y0167075D02*
X0224084Y0167075D01*
X0224084Y0167673D02*
X0260073Y0167673D01*
X0260073Y0168272D02*
X0224084Y0168272D01*
X0223764Y0168870D02*
X0260073Y0168870D01*
X0260073Y0169469D02*
X0224084Y0169469D01*
X0224084Y0170067D02*
X0260073Y0170067D01*
X0260048Y0170666D02*
X0224084Y0170666D01*
X0224084Y0171264D02*
X0260001Y0171264D01*
X0259835Y0171863D02*
X0224173Y0171863D01*
X0224463Y0172461D02*
X0259641Y0172461D01*
X0259446Y0173060D02*
X0224484Y0173060D01*
X0224484Y0173658D02*
X0259122Y0173658D01*
X0258687Y0174257D02*
X0222106Y0174257D01*
X0221506Y0174257D02*
X0219366Y0174257D01*
X0219366Y0174391D02*
X0221506Y0174391D01*
X0221506Y0173791D01*
X0219366Y0173791D01*
X0219366Y0173800D01*
X0217373Y0173800D01*
X0217373Y0173987D01*
X0219366Y0173987D01*
X0219366Y0174391D01*
X0217373Y0173800D02*
X0217185Y0173800D01*
X0215191Y0173800D01*
X0214223Y0173800D01*
X0214223Y0173987D01*
X0217185Y0173987D01*
X0217185Y0173800D01*
X0217185Y0171019D01*
X0216320Y0171019D01*
X0215990Y0171107D01*
X0215704Y0171272D01*
X0215418Y0171107D01*
X0215088Y0171019D01*
X0214223Y0171019D01*
X0214223Y0173800D01*
X0214035Y0173800D01*
X0212042Y0173800D01*
X0211073Y0173800D01*
X0211073Y0171019D01*
X0211938Y0171019D01*
X0212269Y0171107D01*
X0212554Y0171272D01*
X0212840Y0171107D01*
X0213171Y0171019D01*
X0214035Y0171019D01*
X0214035Y0173800D01*
X0214035Y0173987D01*
X0211073Y0173987D01*
X0211073Y0173800D01*
X0210886Y0173800D01*
X0210886Y0171019D01*
X0210021Y0171019D01*
X0209690Y0171107D01*
X0209405Y0171272D01*
X0209119Y0171107D01*
X0208789Y0171019D01*
X0207924Y0171019D01*
X0207924Y0173800D01*
X0207924Y0173987D01*
X0210886Y0173987D01*
X0210886Y0173800D01*
X0208892Y0173800D01*
X0207924Y0173800D01*
X0207736Y0173800D01*
X0205743Y0173800D01*
X0204774Y0173800D01*
X0204774Y0171019D01*
X0205639Y0171019D01*
X0205970Y0171107D01*
X0206255Y0171272D01*
X0206541Y0171107D01*
X0206871Y0171019D01*
X0207736Y0171019D01*
X0207736Y0173800D01*
X0207736Y0173987D01*
X0204774Y0173987D01*
X0204774Y0173800D01*
X0204587Y0173800D01*
X0204587Y0171019D01*
X0203722Y0171019D01*
X0203391Y0171107D01*
X0203106Y0171272D01*
X0202820Y0171107D01*
X0202489Y0171019D01*
X0201624Y0171019D01*
X0201624Y0173800D01*
X0201437Y0173800D01*
X0200469Y0173800D01*
X0198475Y0173800D01*
X0198475Y0173987D01*
X0201437Y0173987D01*
X0201437Y0173800D01*
X0201437Y0171019D01*
X0200572Y0171019D01*
X0200242Y0171107D01*
X0199956Y0171272D01*
X0199670Y0171107D01*
X0199340Y0171019D01*
X0198475Y0171019D01*
X0198475Y0173800D01*
X0198287Y0173800D01*
X0195325Y0173800D01*
X0195325Y0171019D01*
X0196190Y0171019D01*
X0196521Y0171107D01*
X0196806Y0171272D01*
X0197092Y0171107D01*
X0197423Y0171019D01*
X0198287Y0171019D01*
X0198287Y0173800D01*
X0198287Y0173987D01*
X0196294Y0173987D01*
X0195325Y0173987D01*
X0195325Y0173800D01*
X0195138Y0173800D01*
X0195138Y0171019D01*
X0194273Y0171019D01*
X0193942Y0171107D01*
X0193657Y0171272D01*
X0193371Y0171107D01*
X0193041Y0171019D01*
X0192176Y0171019D01*
X0192176Y0173800D01*
X0192176Y0173987D01*
X0194169Y0173987D01*
X0195138Y0173987D01*
X0195138Y0173800D01*
X0192176Y0173800D01*
X0191988Y0173800D01*
X0189026Y0173800D01*
X0189026Y0171019D01*
X0189891Y0171019D01*
X0190222Y0171107D01*
X0190507Y0171272D01*
X0190793Y0171107D01*
X0191123Y0171019D01*
X0191988Y0171019D01*
X0191988Y0173800D01*
X0191988Y0173987D01*
X0191020Y0173987D01*
X0189026Y0173987D01*
X0189026Y0173800D01*
X0188839Y0173800D01*
X0188839Y0171019D01*
X0187974Y0171019D01*
X0187643Y0171107D01*
X0187358Y0171272D01*
X0187072Y0171107D01*
X0186741Y0171019D01*
X0185876Y0171019D01*
X0185876Y0173800D01*
X0185689Y0173800D01*
X0182727Y0173800D01*
X0182727Y0173987D01*
X0184721Y0173987D01*
X0185689Y0173987D01*
X0185689Y0173800D01*
X0185689Y0171019D01*
X0184824Y0171019D01*
X0184494Y0171107D01*
X0184208Y0171272D01*
X0183922Y0171107D01*
X0183592Y0171019D01*
X0182727Y0171019D01*
X0182727Y0173800D01*
X0182539Y0173800D01*
X0180546Y0173800D01*
X0179577Y0173800D01*
X0179577Y0171019D01*
X0180442Y0171019D01*
X0180773Y0171107D01*
X0181058Y0171272D01*
X0181344Y0171107D01*
X0181675Y0171019D01*
X0182539Y0171019D01*
X0182539Y0173800D01*
X0182539Y0173987D01*
X0179577Y0173987D01*
X0179577Y0173800D01*
X0179390Y0173800D01*
X0179390Y0171019D01*
X0178525Y0171019D01*
X0178194Y0171107D01*
X0178028Y0171204D01*
X0178028Y0170444D01*
X0175247Y0170444D01*
X0175247Y0170257D01*
X0178028Y0170257D01*
X0178028Y0169392D01*
X0177939Y0169061D01*
X0177774Y0168776D01*
X0177939Y0168490D01*
X0178028Y0168159D01*
X0178028Y0167294D01*
X0175247Y0167294D01*
X0175247Y0167107D01*
X0178028Y0167107D01*
X0178028Y0166242D01*
X0177939Y0165912D01*
X0177768Y0165615D01*
X0177526Y0165373D01*
X0177488Y0165351D01*
X0177628Y0165211D01*
X0177628Y0162891D01*
X0177213Y0162476D01*
X0177628Y0162062D01*
X0177628Y0159741D01*
X0177213Y0159327D01*
X0177628Y0158912D01*
X0177628Y0156592D01*
X0177213Y0156177D01*
X0177628Y0155763D01*
X0177628Y0153442D01*
X0177213Y0153028D01*
X0177628Y0152613D01*
X0177628Y0150293D01*
X0177213Y0149878D01*
X0177628Y0149463D01*
X0177628Y0147143D01*
X0177213Y0146728D01*
X0177628Y0146314D01*
X0177628Y0143993D01*
X0177213Y0143579D01*
X0177628Y0143164D01*
X0177628Y0140844D01*
X0177488Y0140704D01*
X0177526Y0140682D01*
X0177768Y0140440D01*
X0177939Y0140144D01*
X0178028Y0139813D01*
X0178028Y0138948D01*
X0175247Y0138948D01*
X0175247Y0138761D01*
X0178028Y0138761D01*
X0178028Y0137896D01*
X0177939Y0137565D01*
X0177768Y0137269D01*
X0177526Y0137027D01*
X0177545Y0136994D01*
X0177634Y0136663D01*
X0177634Y0135414D01*
X0175256Y0135414D01*
X0175256Y0134814D01*
X0177634Y0134814D01*
X0177634Y0133918D01*
X0177796Y0134081D01*
X0177796Y0137259D01*
X0178323Y0137786D01*
X0180644Y0137786D01*
X0181058Y0137371D01*
X0181473Y0137786D01*
X0183793Y0137786D01*
X0183933Y0137646D01*
X0183955Y0137684D01*
X0184197Y0137926D01*
X0184494Y0138097D01*
X0184824Y0138186D01*
X0185689Y0138186D01*
X0185689Y0135405D01*
X0185876Y0135405D01*
X0185876Y0138186D01*
X0186741Y0138186D01*
X0187072Y0138097D01*
X0187368Y0137926D01*
X0187610Y0137684D01*
X0187632Y0137646D01*
X0187772Y0137786D01*
X0190093Y0137786D01*
X0190507Y0137371D01*
X0190922Y0137786D01*
X0193242Y0137786D01*
X0193657Y0137371D01*
X0194071Y0137786D01*
X0196392Y0137786D01*
X0196806Y0137371D01*
X0197221Y0137786D01*
X0199541Y0137786D01*
X0199956Y0137371D01*
X0200371Y0137786D01*
X0202691Y0137786D01*
X0203106Y0137371D01*
X0203520Y0137786D01*
X0205841Y0137786D01*
X0206255Y0137371D01*
X0206670Y0137786D01*
X0208990Y0137786D01*
X0209405Y0137371D01*
X0209819Y0137786D01*
X0212140Y0137786D01*
X0212554Y0137371D01*
X0212969Y0137786D01*
X0215289Y0137786D01*
X0215704Y0137371D01*
X0216119Y0137786D01*
X0218439Y0137786D01*
X0218966Y0137259D01*
X0218966Y0133363D01*
X0218439Y0132836D01*
X0216222Y0132836D01*
X0226509Y0122549D01*
X0226509Y0150085D01*
X0224084Y0152510D01*
X0224084Y0150293D01*
X0223670Y0149878D01*
X0224084Y0149463D01*
X0224084Y0147143D01*
X0223670Y0146728D01*
X0224084Y0146314D01*
X0224084Y0143993D01*
X0223670Y0143579D01*
X0224084Y0143164D01*
X0224084Y0140844D01*
X0223670Y0140429D01*
X0224084Y0140015D01*
X0224084Y0137694D01*
X0223945Y0137554D01*
X0223983Y0137532D01*
X0224225Y0137290D01*
X0224396Y0136994D01*
X0224484Y0136663D01*
X0224484Y0135414D01*
X0222106Y0135414D01*
X0222106Y0134814D01*
X0222106Y0132436D01*
X0223355Y0132436D01*
X0223686Y0132525D01*
X0223983Y0132696D01*
X0224225Y0132938D01*
X0224396Y0133234D01*
X0224484Y0133565D01*
X0224484Y0134814D01*
X0222106Y0134814D01*
X0221506Y0134814D01*
X0219128Y0134814D01*
X0219128Y0133565D01*
X0219217Y0133234D01*
X0219388Y0132938D01*
X0219630Y0132696D01*
X0219927Y0132525D01*
X0220257Y0132436D01*
X0221506Y0132436D01*
X0221506Y0134814D01*
X0221506Y0135414D01*
X0219128Y0135414D01*
X0219128Y0136663D01*
X0219217Y0136994D01*
X0219388Y0137290D01*
X0219463Y0137366D01*
X0219135Y0137694D01*
X0219135Y0140015D01*
X0219549Y0140429D01*
X0219135Y0140844D01*
X0219135Y0143164D01*
X0219549Y0143579D01*
X0219135Y0143993D01*
X0219135Y0146314D01*
X0219549Y0146728D01*
X0219135Y0147143D01*
X0219135Y0149463D01*
X0219549Y0149878D01*
X0219135Y0150293D01*
X0219135Y0152613D01*
X0219549Y0153028D01*
X0219135Y0153442D01*
X0219135Y0155763D01*
X0219549Y0156177D01*
X0219135Y0156592D01*
X0219135Y0158912D01*
X0219549Y0159327D01*
X0219135Y0159741D01*
X0219135Y0162062D01*
X0219549Y0162476D01*
X0219135Y0162891D01*
X0219135Y0165211D01*
X0219549Y0165626D01*
X0219135Y0166041D01*
X0219135Y0168361D01*
X0219549Y0168776D01*
X0219135Y0169190D01*
X0219135Y0171511D01*
X0219463Y0171839D01*
X0219388Y0171914D01*
X0219330Y0172014D01*
X0219278Y0171817D01*
X0219106Y0171521D01*
X0218864Y0171279D01*
X0218568Y0171107D01*
X0218237Y0171019D01*
X0217373Y0171019D01*
X0217373Y0173800D01*
X0217373Y0173658D02*
X0217185Y0173658D01*
X0217185Y0173060D02*
X0217373Y0173060D01*
X0217373Y0172461D02*
X0217185Y0172461D01*
X0217185Y0171863D02*
X0217373Y0171863D01*
X0217373Y0171264D02*
X0217185Y0171264D01*
X0215718Y0171264D02*
X0215690Y0171264D01*
X0214223Y0171264D02*
X0214035Y0171264D01*
X0214035Y0171863D02*
X0214223Y0171863D01*
X0214223Y0172461D02*
X0214035Y0172461D01*
X0214035Y0173060D02*
X0214223Y0173060D01*
X0214223Y0173658D02*
X0214035Y0173658D01*
X0212568Y0171264D02*
X0212540Y0171264D01*
X0211073Y0171264D02*
X0210886Y0171264D01*
X0210886Y0171863D02*
X0211073Y0171863D01*
X0211073Y0172461D02*
X0210886Y0172461D01*
X0210886Y0173060D02*
X0211073Y0173060D01*
X0211073Y0173658D02*
X0210886Y0173658D01*
X0209419Y0171264D02*
X0209391Y0171264D01*
X0207924Y0171264D02*
X0207736Y0171264D01*
X0207736Y0171863D02*
X0207924Y0171863D01*
X0207924Y0172461D02*
X0207736Y0172461D01*
X0207736Y0173060D02*
X0207924Y0173060D01*
X0207924Y0173658D02*
X0207736Y0173658D01*
X0206269Y0171264D02*
X0206241Y0171264D01*
X0204774Y0171264D02*
X0204587Y0171264D01*
X0204587Y0171863D02*
X0204774Y0171863D01*
X0204774Y0172461D02*
X0204587Y0172461D01*
X0204587Y0173060D02*
X0204774Y0173060D01*
X0204774Y0173658D02*
X0204587Y0173658D01*
X0204587Y0173800D02*
X0202593Y0173800D01*
X0201625Y0173800D01*
X0201625Y0173987D01*
X0204587Y0173987D01*
X0204587Y0173800D01*
X0203120Y0171264D02*
X0203092Y0171264D01*
X0201624Y0171264D02*
X0201437Y0171264D01*
X0201437Y0171863D02*
X0201624Y0171863D01*
X0201624Y0172461D02*
X0201437Y0172461D01*
X0201437Y0173060D02*
X0201624Y0173060D01*
X0201624Y0173658D02*
X0201437Y0173658D01*
X0199970Y0171264D02*
X0199942Y0171264D01*
X0198475Y0171264D02*
X0198287Y0171264D01*
X0198287Y0171863D02*
X0198475Y0171863D01*
X0198475Y0172461D02*
X0198287Y0172461D01*
X0198287Y0173060D02*
X0198475Y0173060D01*
X0198475Y0173658D02*
X0198287Y0173658D01*
X0196820Y0171264D02*
X0196792Y0171264D01*
X0195325Y0171264D02*
X0195138Y0171264D01*
X0195138Y0171863D02*
X0195325Y0171863D01*
X0195325Y0172461D02*
X0195138Y0172461D01*
X0195138Y0173060D02*
X0195325Y0173060D01*
X0195325Y0173658D02*
X0195138Y0173658D01*
X0193671Y0171264D02*
X0193643Y0171264D01*
X0192176Y0171264D02*
X0191988Y0171264D01*
X0191988Y0171863D02*
X0192176Y0171863D01*
X0192176Y0172461D02*
X0191988Y0172461D01*
X0191988Y0173060D02*
X0192176Y0173060D01*
X0192176Y0173658D02*
X0191988Y0173658D01*
X0190521Y0171264D02*
X0190493Y0171264D01*
X0189026Y0171264D02*
X0188839Y0171264D01*
X0188839Y0171863D02*
X0189026Y0171863D01*
X0189026Y0172461D02*
X0188839Y0172461D01*
X0188839Y0173060D02*
X0189026Y0173060D01*
X0189026Y0173658D02*
X0188839Y0173658D01*
X0188839Y0173800D02*
X0185877Y0173800D01*
X0185877Y0173987D01*
X0187870Y0173987D01*
X0188839Y0173987D01*
X0188839Y0173800D01*
X0187372Y0171264D02*
X0187344Y0171264D01*
X0185876Y0171264D02*
X0185689Y0171264D01*
X0185689Y0171863D02*
X0185876Y0171863D01*
X0185876Y0172461D02*
X0185689Y0172461D01*
X0185689Y0173060D02*
X0185876Y0173060D01*
X0185876Y0173658D02*
X0185689Y0173658D01*
X0184222Y0171264D02*
X0184194Y0171264D01*
X0182727Y0171264D02*
X0182539Y0171264D01*
X0182539Y0171863D02*
X0182727Y0171863D01*
X0182727Y0172461D02*
X0182539Y0172461D01*
X0182539Y0173060D02*
X0182727Y0173060D01*
X0182727Y0173658D02*
X0182539Y0173658D01*
X0181072Y0171264D02*
X0181044Y0171264D01*
X0179577Y0171264D02*
X0179390Y0171264D01*
X0179390Y0171863D02*
X0179577Y0171863D01*
X0179577Y0172461D02*
X0179390Y0172461D01*
X0179390Y0173060D02*
X0179577Y0173060D01*
X0179577Y0173658D02*
X0179390Y0173658D01*
X0179390Y0173800D02*
X0177396Y0173800D01*
X0177396Y0173791D01*
X0175256Y0173791D01*
X0175256Y0174391D01*
X0177396Y0174391D01*
X0177396Y0173987D01*
X0179390Y0173987D01*
X0179390Y0173800D01*
X0177396Y0174257D02*
X0175256Y0174257D01*
X0175256Y0173791D02*
X0175256Y0172438D01*
X0175247Y0172438D01*
X0175247Y0170444D01*
X0175059Y0170444D01*
X0175059Y0172438D01*
X0174656Y0172438D01*
X0174656Y0173791D01*
X0175256Y0173791D01*
X0175256Y0173658D02*
X0174656Y0173658D01*
X0174656Y0173060D02*
X0175256Y0173060D01*
X0175256Y0172461D02*
X0174656Y0172461D01*
X0175059Y0171863D02*
X0175247Y0171863D01*
X0175247Y0171264D02*
X0175059Y0171264D01*
X0175059Y0170666D02*
X0175247Y0170666D01*
X0175247Y0170257D02*
X0175247Y0167295D01*
X0175059Y0167295D01*
X0175059Y0169288D01*
X0175059Y0170257D01*
X0175247Y0170257D01*
X0175247Y0170067D02*
X0175059Y0170067D01*
X0175059Y0169469D02*
X0175247Y0169469D01*
X0175247Y0168870D02*
X0175059Y0168870D01*
X0175059Y0168272D02*
X0175247Y0168272D01*
X0175247Y0167673D02*
X0175059Y0167673D01*
X0172278Y0167673D02*
X0169998Y0167673D01*
X0170596Y0167075D02*
X0172278Y0167075D01*
X0172278Y0166476D02*
X0171195Y0166476D01*
X0171793Y0165878D02*
X0172386Y0165878D01*
X0172308Y0168272D02*
X0169399Y0168272D01*
X0168801Y0168870D02*
X0172477Y0168870D01*
X0172278Y0169469D02*
X0168202Y0169469D01*
X0165791Y0170067D02*
X0172278Y0170067D01*
X0172278Y0170666D02*
X0117393Y0170666D01*
X0117628Y0170430D02*
X0116611Y0171448D01*
X0115282Y0171998D01*
X0113843Y0171998D01*
X0112514Y0171448D01*
X0111496Y0170430D01*
X0110946Y0169101D01*
X0110946Y0167663D01*
X0111496Y0166333D01*
X0112514Y0165316D01*
X0113843Y0164765D01*
X0115282Y0164765D01*
X0116611Y0165316D01*
X0117628Y0166333D01*
X0118179Y0167663D01*
X0118179Y0169101D01*
X0117628Y0170430D01*
X0117779Y0170067D02*
X0160106Y0170067D01*
X0157694Y0169469D02*
X0118027Y0169469D01*
X0118179Y0168870D02*
X0157095Y0168870D01*
X0155666Y0168272D02*
X0118179Y0168272D01*
X0118179Y0167673D02*
X0155068Y0167673D01*
X0154755Y0167075D02*
X0143193Y0167075D01*
X0143573Y0166476D02*
X0154755Y0166476D01*
X0154755Y0165878D02*
X0143573Y0165878D01*
X0138215Y0167075D02*
X0136500Y0167075D01*
X0136880Y0166476D02*
X0137836Y0166476D01*
X0137836Y0165878D02*
X0136880Y0165878D01*
X0136880Y0165279D02*
X0137836Y0165279D01*
X0137836Y0164681D02*
X0136880Y0164681D01*
X0136880Y0164082D02*
X0137836Y0164082D01*
X0137836Y0163484D02*
X0136952Y0163484D01*
X0137551Y0162885D02*
X0137836Y0162885D01*
X0135386Y0161090D02*
X0118179Y0161090D01*
X0118179Y0161227D02*
X0117628Y0162556D01*
X0116611Y0163574D01*
X0115282Y0164124D01*
X0113843Y0164124D01*
X0112514Y0163574D01*
X0111496Y0162556D01*
X0110946Y0161227D01*
X0110946Y0159788D01*
X0111496Y0158459D01*
X0112514Y0157442D01*
X0113843Y0156891D01*
X0115282Y0156891D01*
X0116611Y0157442D01*
X0117628Y0158459D01*
X0118179Y0159788D01*
X0118179Y0161227D01*
X0117988Y0161688D02*
X0131649Y0161688D01*
X0131143Y0162287D02*
X0117740Y0162287D01*
X0117300Y0162885D02*
X0131143Y0162885D01*
X0131143Y0163484D02*
X0116701Y0163484D01*
X0115384Y0164082D02*
X0131143Y0164082D01*
X0131143Y0164681D02*
X0065823Y0164681D01*
X0065823Y0165279D02*
X0112602Y0165279D01*
X0111952Y0165878D02*
X0065823Y0165878D01*
X0065823Y0166476D02*
X0111437Y0166476D01*
X0111189Y0167075D02*
X0065823Y0167075D01*
X0065823Y0167673D02*
X0110946Y0167673D01*
X0110946Y0168272D02*
X0065823Y0168272D01*
X0065823Y0168870D02*
X0110946Y0168870D01*
X0111098Y0169469D02*
X0065823Y0169469D01*
X0065823Y0170067D02*
X0111346Y0170067D01*
X0111732Y0170666D02*
X0065823Y0170666D01*
X0065823Y0171264D02*
X0112330Y0171264D01*
X0113516Y0171863D02*
X0065823Y0171863D01*
X0065823Y0172461D02*
X0172299Y0172461D01*
X0172278Y0173060D02*
X0065823Y0173060D01*
X0065823Y0173658D02*
X0172278Y0173658D01*
X0172278Y0174855D02*
X0115879Y0174855D01*
X0116906Y0175454D02*
X0172278Y0175454D01*
X0174656Y0174257D02*
X0065823Y0174257D01*
X0065823Y0174855D02*
X0113245Y0174855D01*
X0112218Y0175454D02*
X0065823Y0175454D01*
X0065823Y0176052D02*
X0111620Y0176052D01*
X0111300Y0176651D02*
X0065823Y0176651D01*
X0065823Y0177249D02*
X0111052Y0177249D01*
X0110946Y0177848D02*
X0065823Y0177848D01*
X0065823Y0178446D02*
X0110946Y0178446D01*
X0110988Y0179045D02*
X0065823Y0179045D01*
X0065823Y0179643D02*
X0111236Y0179643D01*
X0111483Y0180242D02*
X0065823Y0180242D01*
X0065823Y0180840D02*
X0112064Y0180840D01*
X0112873Y0181439D02*
X0065823Y0181439D01*
X0065823Y0182038D02*
X0115704Y0182038D01*
X0115704Y0182636D02*
X0065823Y0182636D01*
X0065823Y0183235D02*
X0101568Y0183235D01*
X0102416Y0182883D02*
X0099686Y0184014D01*
X0097596Y0186104D01*
X0096465Y0188834D01*
X0096465Y0191788D01*
X0097596Y0194518D01*
X0099686Y0196608D01*
X0102416Y0197739D01*
X0105370Y0197739D01*
X0108100Y0196608D01*
X0110190Y0194518D01*
X0111321Y0191788D01*
X0111321Y0188834D01*
X0110190Y0186104D01*
X0108100Y0184014D01*
X0105370Y0182883D01*
X0102416Y0182883D01*
X0100123Y0183833D02*
X0065823Y0183833D01*
X0065823Y0184432D02*
X0099268Y0184432D01*
X0098670Y0185030D02*
X0065823Y0185030D01*
X0065823Y0185629D02*
X0098071Y0185629D01*
X0097545Y0186227D02*
X0065823Y0186227D01*
X0065823Y0186826D02*
X0097297Y0186826D01*
X0097049Y0187424D02*
X0065823Y0187424D01*
X0065823Y0188023D02*
X0096801Y0188023D01*
X0096553Y0188621D02*
X0065823Y0188621D01*
X0065823Y0189220D02*
X0096465Y0189220D01*
X0096465Y0189818D02*
X0065823Y0189818D01*
X0065823Y0190417D02*
X0096465Y0190417D01*
X0096465Y0191015D02*
X0065823Y0191015D01*
X0065823Y0191614D02*
X0096465Y0191614D01*
X0096641Y0192212D02*
X0065839Y0192212D01*
X0065886Y0192811D02*
X0096889Y0192811D01*
X0097137Y0193409D02*
X0066026Y0193409D01*
X0066221Y0194008D02*
X0097385Y0194008D01*
X0097684Y0194606D02*
X0066415Y0194606D01*
X0066697Y0195205D02*
X0098283Y0195205D01*
X0098881Y0195803D02*
X0067131Y0195803D01*
X0067566Y0196402D02*
X0099480Y0196402D01*
X0100633Y0197000D02*
X0068227Y0197000D01*
X0069051Y0197599D02*
X0102078Y0197599D01*
X0105708Y0197599D02*
X0115704Y0197599D01*
X0115704Y0198197D02*
X0070446Y0198197D01*
X0107153Y0197000D02*
X0115704Y0197000D01*
X0115704Y0196402D02*
X0108306Y0196402D01*
X0108905Y0195803D02*
X0115704Y0195803D01*
X0115704Y0195205D02*
X0109503Y0195205D01*
X0110102Y0194606D02*
X0115704Y0194606D01*
X0115704Y0194008D02*
X0110401Y0194008D01*
X0110649Y0193409D02*
X0115704Y0193409D01*
X0115704Y0192811D02*
X0110897Y0192811D01*
X0111145Y0192212D02*
X0115704Y0192212D01*
X0115704Y0191614D02*
X0111321Y0191614D01*
X0111321Y0191015D02*
X0115704Y0191015D01*
X0115704Y0190417D02*
X0111321Y0190417D01*
X0111321Y0189818D02*
X0115704Y0189818D01*
X0115704Y0189220D02*
X0111321Y0189220D01*
X0111233Y0188621D02*
X0115704Y0188621D01*
X0115704Y0188023D02*
X0110985Y0188023D01*
X0110737Y0187424D02*
X0115704Y0187424D01*
X0115704Y0186826D02*
X0110489Y0186826D01*
X0110241Y0186227D02*
X0115704Y0186227D01*
X0115704Y0185629D02*
X0109715Y0185629D01*
X0109116Y0185030D02*
X0115704Y0185030D01*
X0115704Y0184432D02*
X0108518Y0184432D01*
X0107663Y0183833D02*
X0115704Y0183833D01*
X0115704Y0183235D02*
X0106218Y0183235D01*
X0115609Y0171863D02*
X0172496Y0171863D01*
X0172278Y0171264D02*
X0116794Y0171264D01*
X0117935Y0167075D02*
X0131523Y0167075D01*
X0131143Y0166476D02*
X0117687Y0166476D01*
X0117173Y0165878D02*
X0131143Y0165878D01*
X0131143Y0165279D02*
X0116522Y0165279D01*
X0113741Y0164082D02*
X0065823Y0164082D01*
X0065823Y0163484D02*
X0112424Y0163484D01*
X0111825Y0162885D02*
X0065823Y0162885D01*
X0065823Y0162287D02*
X0111385Y0162287D01*
X0111137Y0161688D02*
X0065823Y0161688D01*
X0065823Y0161090D02*
X0110946Y0161090D01*
X0110946Y0160491D02*
X0065823Y0160491D01*
X0065823Y0159893D02*
X0110946Y0159893D01*
X0111151Y0159294D02*
X0065823Y0159294D01*
X0065823Y0158696D02*
X0111398Y0158696D01*
X0111859Y0158097D02*
X0065823Y0158097D01*
X0065823Y0157499D02*
X0112457Y0157499D01*
X0113822Y0156900D02*
X0065823Y0156900D01*
X0065823Y0156302D02*
X0130743Y0156302D01*
X0130743Y0156665D02*
X0130743Y0155364D01*
X0130858Y0154933D01*
X0131081Y0154547D01*
X0131396Y0154231D01*
X0131783Y0154008D01*
X0132213Y0153893D01*
X0133317Y0153893D01*
X0133317Y0156665D01*
X0130743Y0156665D01*
X0130743Y0157265D02*
X0133317Y0157265D01*
X0133317Y0160036D01*
X0132213Y0160036D01*
X0131783Y0159921D01*
X0131396Y0159698D01*
X0131081Y0159382D01*
X0130858Y0158996D01*
X0130743Y0158566D01*
X0130743Y0157265D01*
X0130743Y0157499D02*
X0116668Y0157499D01*
X0117266Y0158097D02*
X0130743Y0158097D01*
X0130777Y0158696D02*
X0117726Y0158696D01*
X0117974Y0159294D02*
X0131030Y0159294D01*
X0131734Y0159893D02*
X0118179Y0159893D01*
X0118179Y0160491D02*
X0135985Y0160491D01*
X0135501Y0159893D02*
X0136583Y0159893D01*
X0136154Y0159382D02*
X0135838Y0159698D01*
X0135452Y0159921D01*
X0135021Y0160036D01*
X0133917Y0160036D01*
X0133917Y0157265D01*
X0133317Y0157265D01*
X0133317Y0156665D01*
X0133917Y0156665D01*
X0133917Y0157265D01*
X0136492Y0157265D01*
X0136492Y0158566D01*
X0136377Y0158996D01*
X0136154Y0159382D01*
X0136205Y0159294D02*
X0137182Y0159294D01*
X0137780Y0158696D02*
X0136457Y0158696D01*
X0136492Y0158097D02*
X0138379Y0158097D01*
X0138623Y0157499D02*
X0136492Y0157499D01*
X0136492Y0156665D02*
X0133917Y0156665D01*
X0133917Y0153893D01*
X0135021Y0153893D01*
X0135452Y0154008D01*
X0135838Y0154231D01*
X0136154Y0154547D01*
X0136377Y0154933D01*
X0136492Y0155364D01*
X0136492Y0156665D01*
X0136492Y0156302D02*
X0138623Y0156302D01*
X0138623Y0156900D02*
X0133917Y0156900D01*
X0133917Y0156302D02*
X0133317Y0156302D01*
X0133317Y0156900D02*
X0115303Y0156900D01*
X0115282Y0154282D02*
X0113843Y0154282D01*
X0112514Y0153731D01*
X0111496Y0152714D01*
X0110946Y0151385D01*
X0110946Y0149946D01*
X0111496Y0148617D01*
X0112514Y0147599D01*
X0113843Y0147049D01*
X0114078Y0147049D01*
X0115282Y0145845D01*
X0116348Y0145403D01*
X0137934Y0145403D01*
X0138486Y0145631D01*
X0139075Y0145631D01*
X0139832Y0146389D01*
X0139832Y0146700D01*
X0140258Y0147726D01*
X0140258Y0148880D01*
X0139832Y0149907D01*
X0139832Y0150217D01*
X0139075Y0150975D01*
X0138486Y0150975D01*
X0137934Y0151203D01*
X0118179Y0151203D01*
X0118179Y0151385D01*
X0117628Y0152714D01*
X0116611Y0153731D01*
X0115282Y0154282D01*
X0116186Y0153907D02*
X0132159Y0153907D01*
X0133317Y0153907D02*
X0133917Y0153907D01*
X0133917Y0154506D02*
X0133317Y0154506D01*
X0133317Y0155105D02*
X0133917Y0155105D01*
X0133917Y0155703D02*
X0133317Y0155703D01*
X0133317Y0157499D02*
X0133917Y0157499D01*
X0133917Y0158097D02*
X0133317Y0158097D01*
X0133317Y0158696D02*
X0133917Y0158696D01*
X0133917Y0159294D02*
X0133317Y0159294D01*
X0133317Y0159893D02*
X0133917Y0159893D01*
X0136492Y0155703D02*
X0138623Y0155703D01*
X0138623Y0155105D02*
X0136423Y0155105D01*
X0136113Y0154506D02*
X0139168Y0154506D01*
X0143028Y0154506D02*
X0147191Y0154506D01*
X0147259Y0154524D02*
X0146804Y0154402D01*
X0146395Y0154166D01*
X0146061Y0153833D01*
X0145825Y0153424D01*
X0145703Y0152968D01*
X0145703Y0151556D01*
X0148869Y0151556D01*
X0148869Y0154524D01*
X0147259Y0154524D01*
X0146895Y0155105D02*
X0143573Y0155105D01*
X0143573Y0155703D02*
X0146296Y0155703D01*
X0146103Y0156302D02*
X0143573Y0156302D01*
X0146136Y0153907D02*
X0135076Y0153907D01*
X0131122Y0154506D02*
X0065823Y0154506D01*
X0065823Y0155105D02*
X0130812Y0155105D01*
X0130743Y0155703D02*
X0065823Y0155703D01*
X0065823Y0153907D02*
X0112939Y0153907D01*
X0112091Y0153309D02*
X0065823Y0153309D01*
X0065823Y0152710D02*
X0111495Y0152710D01*
X0111247Y0152112D02*
X0065823Y0152112D01*
X0065823Y0151513D02*
X0110999Y0151513D01*
X0110946Y0150915D02*
X0065823Y0150915D01*
X0065823Y0150316D02*
X0110946Y0150316D01*
X0111040Y0149718D02*
X0065823Y0149718D01*
X0065823Y0149119D02*
X0111288Y0149119D01*
X0111592Y0148521D02*
X0065823Y0148521D01*
X0065823Y0147922D02*
X0112191Y0147922D01*
X0113179Y0147324D02*
X0065823Y0147324D01*
X0065823Y0146725D02*
X0114401Y0146725D01*
X0115000Y0146127D02*
X0065823Y0146127D01*
X0065823Y0145528D02*
X0101262Y0145528D01*
X0102416Y0146006D02*
X0099686Y0144876D01*
X0097596Y0142786D01*
X0096465Y0140056D01*
X0096465Y0137101D01*
X0097596Y0134371D01*
X0099686Y0132282D01*
X0102416Y0131151D01*
X0105370Y0131151D01*
X0108100Y0132282D01*
X0110190Y0134371D01*
X0111321Y0137101D01*
X0111321Y0140056D01*
X0110190Y0142786D01*
X0108100Y0144876D01*
X0105370Y0146006D01*
X0102416Y0146006D01*
X0099817Y0144930D02*
X0065823Y0144930D01*
X0065823Y0144331D02*
X0099141Y0144331D01*
X0098543Y0143733D02*
X0065823Y0143733D01*
X0065823Y0143134D02*
X0097944Y0143134D01*
X0097493Y0142536D02*
X0065823Y0142536D01*
X0065823Y0141937D02*
X0097245Y0141937D01*
X0096997Y0141339D02*
X0065823Y0141339D01*
X0065823Y0140740D02*
X0096749Y0140740D01*
X0096501Y0140142D02*
X0065823Y0140142D01*
X0065823Y0139543D02*
X0096465Y0139543D01*
X0096465Y0138945D02*
X0065823Y0138945D01*
X0065823Y0138346D02*
X0096465Y0138346D01*
X0096465Y0137748D02*
X0065823Y0137748D01*
X0065823Y0137149D02*
X0096465Y0137149D01*
X0096694Y0136551D02*
X0065823Y0136551D01*
X0065823Y0135952D02*
X0096941Y0135952D01*
X0097189Y0135354D02*
X0065823Y0135354D01*
X0065823Y0134755D02*
X0097437Y0134755D01*
X0097811Y0134157D02*
X0065823Y0134157D01*
X0065823Y0133558D02*
X0098409Y0133558D01*
X0099008Y0132960D02*
X0065823Y0132960D01*
X0065823Y0132361D02*
X0099606Y0132361D01*
X0100940Y0131763D02*
X0065823Y0131763D01*
X0065823Y0131164D02*
X0102384Y0131164D01*
X0105401Y0131164D02*
X0168658Y0131164D01*
X0168060Y0131763D02*
X0106846Y0131763D01*
X0108179Y0132361D02*
X0167461Y0132361D01*
X0166863Y0132960D02*
X0108778Y0132960D01*
X0109376Y0133558D02*
X0166264Y0133558D01*
X0165666Y0134157D02*
X0109975Y0134157D01*
X0110349Y0134755D02*
X0165067Y0134755D01*
X0164469Y0135354D02*
X0110597Y0135354D01*
X0110845Y0135952D02*
X0163870Y0135952D01*
X0163272Y0136551D02*
X0111092Y0136551D01*
X0111321Y0137149D02*
X0162673Y0137149D01*
X0162075Y0137748D02*
X0111321Y0137748D01*
X0111321Y0138346D02*
X0161548Y0138346D01*
X0161548Y0138945D02*
X0111321Y0138945D01*
X0111321Y0139543D02*
X0161548Y0139543D01*
X0161548Y0140142D02*
X0111285Y0140142D01*
X0111037Y0140740D02*
X0161548Y0140740D01*
X0161548Y0141339D02*
X0110789Y0141339D01*
X0110541Y0141937D02*
X0161548Y0141937D01*
X0161548Y0142536D02*
X0110293Y0142536D01*
X0109842Y0143134D02*
X0161548Y0143134D01*
X0161548Y0143733D02*
X0109243Y0143733D01*
X0108645Y0144331D02*
X0161548Y0144331D01*
X0161548Y0144930D02*
X0107969Y0144930D01*
X0106524Y0145528D02*
X0116045Y0145528D01*
X0118125Y0151513D02*
X0148869Y0151513D01*
X0148869Y0151556D02*
X0148869Y0150956D01*
X0149469Y0150956D01*
X0149469Y0151556D01*
X0152634Y0151556D01*
X0152634Y0152968D01*
X0152512Y0153424D01*
X0152276Y0153833D01*
X0151942Y0154166D01*
X0151534Y0154402D01*
X0151078Y0154524D01*
X0149469Y0154524D01*
X0149469Y0151556D01*
X0148869Y0151556D01*
X0148869Y0152112D02*
X0149469Y0152112D01*
X0149469Y0152710D02*
X0148869Y0152710D01*
X0148869Y0153309D02*
X0149469Y0153309D01*
X0149469Y0153907D02*
X0148869Y0153907D01*
X0148869Y0154506D02*
X0149469Y0154506D01*
X0151146Y0154506D02*
X0157128Y0154506D01*
X0157726Y0153907D02*
X0152201Y0153907D01*
X0152543Y0153309D02*
X0158325Y0153309D01*
X0158923Y0152710D02*
X0152634Y0152710D01*
X0152634Y0152112D02*
X0159522Y0152112D01*
X0160120Y0151513D02*
X0149469Y0151513D01*
X0149469Y0150956D02*
X0152634Y0150956D01*
X0152634Y0149544D01*
X0152512Y0149088D01*
X0152276Y0148679D01*
X0151942Y0148345D01*
X0151534Y0148110D01*
X0151078Y0147987D01*
X0149469Y0147987D01*
X0149469Y0150956D01*
X0149469Y0150915D02*
X0148869Y0150915D01*
X0148869Y0150956D02*
X0148869Y0147987D01*
X0147259Y0147987D01*
X0146804Y0148110D01*
X0146395Y0148345D01*
X0146061Y0148679D01*
X0145825Y0149088D01*
X0145703Y0149544D01*
X0145703Y0150956D01*
X0148869Y0150956D01*
X0148869Y0150316D02*
X0149469Y0150316D01*
X0149469Y0149718D02*
X0148869Y0149718D01*
X0148869Y0149119D02*
X0149469Y0149119D01*
X0149469Y0148521D02*
X0148869Y0148521D01*
X0146220Y0148521D02*
X0140258Y0148521D01*
X0140258Y0147922D02*
X0161548Y0147922D01*
X0161548Y0147324D02*
X0140091Y0147324D01*
X0139843Y0146725D02*
X0161548Y0146725D01*
X0161548Y0146127D02*
X0139570Y0146127D01*
X0138237Y0145528D02*
X0161548Y0145528D01*
X0164348Y0145528D02*
X0166665Y0145528D01*
X0166665Y0144930D02*
X0164348Y0144930D01*
X0164348Y0144331D02*
X0166665Y0144331D01*
X0166785Y0143733D02*
X0164348Y0143733D01*
X0164348Y0143134D02*
X0167384Y0143134D01*
X0170324Y0143134D02*
X0172678Y0143134D01*
X0172678Y0142536D02*
X0164348Y0142536D01*
X0164348Y0141937D02*
X0172678Y0141937D01*
X0172678Y0141339D02*
X0164348Y0141339D01*
X0164348Y0140740D02*
X0172782Y0140740D01*
X0172366Y0140142D02*
X0164348Y0140142D01*
X0164348Y0139543D02*
X0172278Y0139543D01*
X0172278Y0138346D02*
X0165436Y0138346D01*
X0166035Y0137748D02*
X0172318Y0137748D01*
X0172456Y0137149D02*
X0166633Y0137149D01*
X0167232Y0136551D02*
X0172278Y0136551D01*
X0172278Y0135952D02*
X0167830Y0135952D01*
X0168429Y0135354D02*
X0174656Y0135354D01*
X0174656Y0135414D02*
X0174656Y0136767D01*
X0175059Y0136767D01*
X0175059Y0138761D01*
X0175247Y0138761D01*
X0175247Y0136767D01*
X0175256Y0136767D01*
X0175256Y0135414D01*
X0174656Y0135414D01*
X0174656Y0135952D02*
X0175256Y0135952D01*
X0175256Y0135354D02*
X0177796Y0135354D01*
X0177796Y0135952D02*
X0177634Y0135952D01*
X0177634Y0136551D02*
X0177796Y0136551D01*
X0177796Y0137149D02*
X0177648Y0137149D01*
X0177988Y0137748D02*
X0178285Y0137748D01*
X0178028Y0138346D02*
X0219135Y0138346D01*
X0219135Y0137748D02*
X0218477Y0137748D01*
X0218966Y0137149D02*
X0219307Y0137149D01*
X0219128Y0136551D02*
X0218966Y0136551D01*
X0218966Y0135952D02*
X0219128Y0135952D01*
X0218966Y0135354D02*
X0221506Y0135354D01*
X0221506Y0134755D02*
X0222106Y0134755D01*
X0222106Y0134157D02*
X0221506Y0134157D01*
X0221506Y0133558D02*
X0222106Y0133558D01*
X0222106Y0132960D02*
X0221506Y0132960D01*
X0219376Y0132960D02*
X0218562Y0132960D01*
X0218966Y0133558D02*
X0219130Y0133558D01*
X0219128Y0134157D02*
X0218966Y0134157D01*
X0218966Y0134755D02*
X0219128Y0134755D01*
X0222106Y0135354D02*
X0226509Y0135354D01*
X0226509Y0135952D02*
X0224484Y0135952D01*
X0224484Y0136551D02*
X0226509Y0136551D01*
X0226509Y0137149D02*
X0224306Y0137149D01*
X0224084Y0137748D02*
X0226509Y0137748D01*
X0226509Y0138346D02*
X0224084Y0138346D01*
X0224084Y0138945D02*
X0226509Y0138945D01*
X0226509Y0139543D02*
X0224084Y0139543D01*
X0223957Y0140142D02*
X0226509Y0140142D01*
X0226509Y0140740D02*
X0223981Y0140740D01*
X0224084Y0141339D02*
X0226509Y0141339D01*
X0226509Y0141937D02*
X0224084Y0141937D01*
X0224084Y0142536D02*
X0226509Y0142536D01*
X0226509Y0143134D02*
X0224084Y0143134D01*
X0223824Y0143733D02*
X0226509Y0143733D01*
X0226509Y0144331D02*
X0224084Y0144331D01*
X0224084Y0144930D02*
X0226509Y0144930D01*
X0226509Y0145528D02*
X0224084Y0145528D01*
X0224084Y0146127D02*
X0226509Y0146127D01*
X0226509Y0146725D02*
X0223673Y0146725D01*
X0224084Y0147324D02*
X0226509Y0147324D01*
X0226509Y0147922D02*
X0224084Y0147922D01*
X0224084Y0148521D02*
X0226509Y0148521D01*
X0226509Y0149119D02*
X0224084Y0149119D01*
X0223830Y0149718D02*
X0226509Y0149718D01*
X0226278Y0150316D02*
X0224084Y0150316D01*
X0224084Y0150915D02*
X0225679Y0150915D01*
X0225081Y0151513D02*
X0224084Y0151513D01*
X0224084Y0152112D02*
X0224482Y0152112D01*
X0219232Y0152710D02*
X0210410Y0152710D01*
X0210410Y0152112D02*
X0219135Y0152112D01*
X0219135Y0151513D02*
X0210393Y0151513D01*
X0210410Y0151577D02*
X0210410Y0154302D01*
X0206555Y0154302D01*
X0206555Y0147028D01*
X0210410Y0147028D01*
X0210410Y0149754D01*
X0210321Y0150084D01*
X0210150Y0150381D01*
X0209908Y0150623D01*
X0209834Y0150665D01*
X0209908Y0150708D01*
X0210150Y0150950D01*
X0210321Y0151246D01*
X0210410Y0151577D01*
X0210115Y0150915D02*
X0219135Y0150915D01*
X0219135Y0150316D02*
X0210187Y0150316D01*
X0210410Y0149718D02*
X0219389Y0149718D01*
X0219135Y0149119D02*
X0210410Y0149119D01*
X0210410Y0148521D02*
X0219135Y0148521D01*
X0219135Y0147922D02*
X0210410Y0147922D01*
X0210410Y0147324D02*
X0219135Y0147324D01*
X0219546Y0146725D02*
X0206555Y0146725D01*
X0206555Y0146428D02*
X0206555Y0147028D01*
X0205955Y0147028D01*
X0205955Y0146428D01*
X0206555Y0146428D01*
X0206555Y0142574D01*
X0209281Y0142574D01*
X0209611Y0142663D01*
X0209908Y0142834D01*
X0210150Y0143076D01*
X0210321Y0143372D01*
X0210410Y0143703D01*
X0210410Y0146428D01*
X0206555Y0146428D01*
X0206555Y0146127D02*
X0205955Y0146127D01*
X0205955Y0146428D02*
X0205955Y0142574D01*
X0203230Y0142574D01*
X0202899Y0142663D01*
X0202603Y0142834D01*
X0202361Y0143076D01*
X0202318Y0143149D01*
X0202276Y0143076D01*
X0202034Y0142834D01*
X0201737Y0142663D01*
X0201407Y0142574D01*
X0198681Y0142574D01*
X0198681Y0146428D01*
X0198081Y0146428D01*
X0198081Y0142574D01*
X0195356Y0142574D01*
X0195025Y0142663D01*
X0194729Y0142834D01*
X0194487Y0143076D01*
X0194444Y0143149D01*
X0194402Y0143076D01*
X0194160Y0142834D01*
X0193863Y0142663D01*
X0193533Y0142574D01*
X0190807Y0142574D01*
X0190807Y0146428D01*
X0190207Y0146428D01*
X0190207Y0142574D01*
X0187482Y0142574D01*
X0187151Y0142663D01*
X0186855Y0142834D01*
X0186613Y0143076D01*
X0186441Y0143372D01*
X0186353Y0143703D01*
X0186353Y0146428D01*
X0190207Y0146428D01*
X0190207Y0147028D01*
X0186353Y0147028D01*
X0186353Y0149754D01*
X0186441Y0150084D01*
X0186613Y0150381D01*
X0186855Y0150623D01*
X0186928Y0150665D01*
X0186855Y0150708D01*
X0186613Y0150950D01*
X0186441Y0151246D01*
X0186353Y0151577D01*
X0186353Y0154302D01*
X0190207Y0154302D01*
X0190807Y0154302D01*
X0190807Y0150448D01*
X0190807Y0147028D01*
X0194227Y0147028D01*
X0198081Y0147028D01*
X0198081Y0146428D01*
X0190807Y0146428D01*
X0190807Y0147028D01*
X0190207Y0147028D01*
X0190207Y0154302D01*
X0190207Y0154902D01*
X0186353Y0154902D01*
X0186353Y0157628D01*
X0186441Y0157958D01*
X0186613Y0158255D01*
X0186855Y0158497D01*
X0186928Y0158539D01*
X0186855Y0158582D01*
X0186613Y0158824D01*
X0186441Y0159120D01*
X0186353Y0159451D01*
X0186353Y0162176D01*
X0190207Y0162176D01*
X0190807Y0162176D01*
X0190807Y0158322D01*
X0190807Y0154902D01*
X0194661Y0154902D01*
X0198081Y0154902D01*
X0198081Y0154302D01*
X0198681Y0154302D01*
X0198681Y0147028D01*
X0202535Y0147028D01*
X0205955Y0147028D01*
X0205955Y0150883D01*
X0205955Y0154302D01*
X0206555Y0154302D01*
X0206555Y0154902D01*
X0210410Y0154902D01*
X0210410Y0157628D01*
X0210321Y0157958D01*
X0210150Y0158255D01*
X0209908Y0158497D01*
X0209834Y0158539D01*
X0209908Y0158582D01*
X0210150Y0158824D01*
X0210321Y0159120D01*
X0210410Y0159451D01*
X0210410Y0162176D01*
X0206555Y0162176D01*
X0206555Y0154902D01*
X0205955Y0154902D01*
X0205955Y0154302D01*
X0202101Y0154302D01*
X0198681Y0154302D01*
X0198681Y0154902D01*
X0205955Y0154902D01*
X0205955Y0158757D01*
X0205955Y0162176D01*
X0206555Y0162176D01*
X0206555Y0162776D01*
X0210410Y0162776D01*
X0210410Y0165502D01*
X0210321Y0165832D01*
X0210150Y0166129D01*
X0209908Y0166371D01*
X0209611Y0166542D01*
X0209281Y0166631D01*
X0206555Y0166631D01*
X0206555Y0162776D01*
X0205955Y0162776D01*
X0205955Y0162176D01*
X0202101Y0162176D01*
X0198681Y0162176D01*
X0198681Y0158322D01*
X0198681Y0154902D01*
X0198081Y0154902D01*
X0198081Y0162176D01*
X0198681Y0162176D01*
X0198681Y0162776D01*
X0205955Y0162776D01*
X0205955Y0166631D01*
X0203230Y0166631D01*
X0202899Y0166542D01*
X0202603Y0166371D01*
X0202361Y0166129D01*
X0202318Y0166055D01*
X0202276Y0166129D01*
X0202034Y0166371D01*
X0201737Y0166542D01*
X0201407Y0166631D01*
X0198681Y0166631D01*
X0198681Y0162776D01*
X0198081Y0162776D01*
X0198081Y0162176D01*
X0190807Y0162176D01*
X0190807Y0162776D01*
X0194661Y0162776D01*
X0198081Y0162776D01*
X0198081Y0166631D01*
X0195356Y0166631D01*
X0195025Y0166542D01*
X0194729Y0166371D01*
X0194487Y0166129D01*
X0194444Y0166055D01*
X0194402Y0166129D01*
X0194160Y0166371D01*
X0193863Y0166542D01*
X0193533Y0166631D01*
X0190807Y0166631D01*
X0190807Y0162776D01*
X0190207Y0162776D01*
X0190207Y0162176D01*
X0190207Y0154902D01*
X0190807Y0154902D01*
X0190807Y0154302D01*
X0198081Y0154302D01*
X0198081Y0150883D01*
X0198081Y0147028D01*
X0198681Y0147028D01*
X0198681Y0146428D01*
X0205955Y0146428D01*
X0205955Y0146725D02*
X0198681Y0146725D01*
X0198681Y0146127D02*
X0198081Y0146127D01*
X0198081Y0146725D02*
X0190807Y0146725D01*
X0190807Y0146127D02*
X0190207Y0146127D01*
X0190207Y0146725D02*
X0177216Y0146725D01*
X0177628Y0146127D02*
X0186353Y0146127D01*
X0186353Y0145528D02*
X0177628Y0145528D01*
X0177628Y0144930D02*
X0186353Y0144930D01*
X0186353Y0144331D02*
X0177628Y0144331D01*
X0177367Y0143733D02*
X0186353Y0143733D01*
X0186579Y0143134D02*
X0177628Y0143134D01*
X0177628Y0142536D02*
X0219135Y0142536D01*
X0219135Y0143134D02*
X0210184Y0143134D01*
X0210410Y0143733D02*
X0219395Y0143733D01*
X0219135Y0144331D02*
X0210410Y0144331D01*
X0210410Y0144930D02*
X0219135Y0144930D01*
X0219135Y0145528D02*
X0210410Y0145528D01*
X0210410Y0146127D02*
X0219135Y0146127D01*
X0219135Y0141937D02*
X0177628Y0141937D01*
X0177628Y0141339D02*
X0219135Y0141339D01*
X0219238Y0140740D02*
X0177524Y0140740D01*
X0177940Y0140142D02*
X0219262Y0140142D01*
X0219135Y0139543D02*
X0178028Y0139543D01*
X0175247Y0138945D02*
X0219135Y0138945D01*
X0216080Y0137748D02*
X0215328Y0137748D01*
X0212931Y0137748D02*
X0212178Y0137748D01*
X0209781Y0137748D02*
X0209028Y0137748D01*
X0206632Y0137748D02*
X0205879Y0137748D01*
X0203482Y0137748D02*
X0202729Y0137748D01*
X0200332Y0137748D02*
X0199580Y0137748D01*
X0197183Y0137748D02*
X0196430Y0137748D01*
X0194033Y0137748D02*
X0193280Y0137748D01*
X0190884Y0137748D02*
X0190131Y0137748D01*
X0187734Y0137748D02*
X0187547Y0137748D01*
X0185876Y0137748D02*
X0185689Y0137748D01*
X0185689Y0137149D02*
X0185876Y0137149D01*
X0185876Y0136551D02*
X0185689Y0136551D01*
X0185689Y0135952D02*
X0185876Y0135952D01*
X0185876Y0134755D02*
X0185689Y0134755D01*
X0185689Y0134157D02*
X0185876Y0134157D01*
X0185876Y0133558D02*
X0185689Y0133558D01*
X0185689Y0132960D02*
X0185876Y0132960D01*
X0187623Y0132960D02*
X0187649Y0132960D01*
X0190216Y0132960D02*
X0190798Y0132960D01*
X0193366Y0132960D02*
X0193948Y0132960D01*
X0196515Y0132960D02*
X0197098Y0132960D01*
X0199665Y0132960D02*
X0200247Y0132960D01*
X0202814Y0132960D02*
X0203397Y0132960D01*
X0205964Y0132960D02*
X0206546Y0132960D01*
X0209114Y0132960D02*
X0209696Y0132960D01*
X0212263Y0132960D02*
X0212729Y0132960D01*
X0212737Y0132361D02*
X0184025Y0132361D01*
X0183427Y0131763D02*
X0213336Y0131763D01*
X0213934Y0131164D02*
X0182828Y0131164D01*
X0182230Y0130566D02*
X0214533Y0130566D01*
X0215131Y0129967D02*
X0181631Y0129967D01*
X0181033Y0129369D02*
X0215730Y0129369D01*
X0216328Y0128770D02*
X0180434Y0128770D01*
X0180664Y0128171D02*
X0216927Y0128171D01*
X0217525Y0127573D02*
X0180885Y0127573D01*
X0180885Y0126974D02*
X0218124Y0126974D01*
X0218722Y0126376D02*
X0180885Y0126376D01*
X0180526Y0125777D02*
X0219321Y0125777D01*
X0219919Y0125179D02*
X0179927Y0125179D01*
X0178977Y0123982D02*
X0221116Y0123982D01*
X0220518Y0124580D02*
X0177934Y0124580D01*
X0177465Y0125179D02*
X0175889Y0125179D01*
X0175837Y0124580D02*
X0176437Y0124580D01*
X0176437Y0123982D02*
X0175837Y0123982D01*
X0175837Y0123383D02*
X0176437Y0123383D01*
X0176437Y0122785D02*
X0175837Y0122785D01*
X0175837Y0122186D02*
X0176437Y0122186D01*
X0179406Y0122186D02*
X0222912Y0122186D01*
X0223510Y0121588D02*
X0179406Y0121588D01*
X0179406Y0122785D02*
X0222313Y0122785D01*
X0221715Y0123383D02*
X0179315Y0123383D01*
X0179406Y0120391D02*
X0208363Y0120391D01*
X0206816Y0119792D02*
X0179406Y0119792D01*
X0179396Y0119194D02*
X0205879Y0119194D01*
X0205176Y0118595D02*
X0179181Y0118595D01*
X0167195Y0110216D02*
X0203722Y0110216D01*
X0217330Y0114406D02*
X0224540Y0114406D01*
X0224540Y0115004D02*
X0217228Y0115004D01*
X0217067Y0115603D02*
X0224540Y0115603D01*
X0224540Y0116201D02*
X0216840Y0116201D01*
X0216562Y0116800D02*
X0224540Y0116800D01*
X0224540Y0117398D02*
X0216216Y0117398D01*
X0215764Y0117997D02*
X0224540Y0117997D01*
X0224540Y0118595D02*
X0215208Y0118595D01*
X0214506Y0119194D02*
X0224540Y0119194D01*
X0224540Y0119792D02*
X0213568Y0119792D01*
X0222083Y0126974D02*
X0226509Y0126974D01*
X0226509Y0126376D02*
X0222682Y0126376D01*
X0223280Y0125777D02*
X0226509Y0125777D01*
X0226509Y0125179D02*
X0223879Y0125179D01*
X0224477Y0124580D02*
X0226509Y0124580D01*
X0226509Y0123982D02*
X0225076Y0123982D01*
X0225674Y0123383D02*
X0226509Y0123383D01*
X0226509Y0122785D02*
X0226273Y0122785D01*
X0226509Y0127573D02*
X0221485Y0127573D01*
X0220886Y0128171D02*
X0226509Y0128171D01*
X0226509Y0128770D02*
X0220288Y0128770D01*
X0219689Y0129369D02*
X0226509Y0129369D01*
X0226509Y0129967D02*
X0219091Y0129967D01*
X0218492Y0130566D02*
X0226509Y0130566D01*
X0226509Y0131164D02*
X0217894Y0131164D01*
X0217295Y0131763D02*
X0226509Y0131763D01*
X0226509Y0132361D02*
X0216697Y0132361D01*
X0224237Y0132960D02*
X0226509Y0132960D01*
X0226509Y0133558D02*
X0224482Y0133558D01*
X0224484Y0134157D02*
X0226509Y0134157D01*
X0226509Y0134755D02*
X0224484Y0134755D01*
X0206555Y0143134D02*
X0205955Y0143134D01*
X0205955Y0143733D02*
X0206555Y0143733D01*
X0206555Y0144331D02*
X0205955Y0144331D01*
X0205955Y0144930D02*
X0206555Y0144930D01*
X0206555Y0145528D02*
X0205955Y0145528D01*
X0205955Y0147324D02*
X0206555Y0147324D01*
X0206555Y0147922D02*
X0205955Y0147922D01*
X0205955Y0148521D02*
X0206555Y0148521D01*
X0206555Y0149119D02*
X0205955Y0149119D01*
X0205955Y0149718D02*
X0206555Y0149718D01*
X0206555Y0150316D02*
X0205955Y0150316D01*
X0205955Y0150915D02*
X0206555Y0150915D01*
X0206555Y0151513D02*
X0205955Y0151513D01*
X0205955Y0152112D02*
X0206555Y0152112D01*
X0206555Y0152710D02*
X0205955Y0152710D01*
X0205955Y0153309D02*
X0206555Y0153309D01*
X0206555Y0153907D02*
X0205955Y0153907D01*
X0205955Y0154506D02*
X0198681Y0154506D01*
X0198681Y0155105D02*
X0198081Y0155105D01*
X0198081Y0155703D02*
X0198681Y0155703D01*
X0198681Y0156302D02*
X0198081Y0156302D01*
X0198081Y0156900D02*
X0198681Y0156900D01*
X0198681Y0157499D02*
X0198081Y0157499D01*
X0198081Y0158097D02*
X0198681Y0158097D01*
X0198681Y0158696D02*
X0198081Y0158696D01*
X0198081Y0159294D02*
X0198681Y0159294D01*
X0198681Y0159893D02*
X0198081Y0159893D01*
X0198081Y0160491D02*
X0198681Y0160491D01*
X0198681Y0161090D02*
X0198081Y0161090D01*
X0198081Y0161688D02*
X0198681Y0161688D01*
X0198681Y0162287D02*
X0205955Y0162287D01*
X0205955Y0162885D02*
X0206555Y0162885D01*
X0206555Y0162287D02*
X0219360Y0162287D01*
X0219141Y0162885D02*
X0210410Y0162885D01*
X0210410Y0163484D02*
X0219135Y0163484D01*
X0219135Y0164082D02*
X0210410Y0164082D01*
X0210410Y0164681D02*
X0219135Y0164681D01*
X0219203Y0165279D02*
X0210410Y0165279D01*
X0210295Y0165878D02*
X0219298Y0165878D01*
X0219135Y0166476D02*
X0209725Y0166476D01*
X0206555Y0166476D02*
X0205955Y0166476D01*
X0205955Y0165878D02*
X0206555Y0165878D01*
X0206555Y0165279D02*
X0205955Y0165279D01*
X0205955Y0164681D02*
X0206555Y0164681D01*
X0206555Y0164082D02*
X0205955Y0164082D01*
X0205955Y0163484D02*
X0206555Y0163484D01*
X0206555Y0161688D02*
X0205955Y0161688D01*
X0205955Y0161090D02*
X0206555Y0161090D01*
X0206555Y0160491D02*
X0205955Y0160491D01*
X0205955Y0159893D02*
X0206555Y0159893D01*
X0206555Y0159294D02*
X0205955Y0159294D01*
X0205955Y0158696D02*
X0206555Y0158696D01*
X0206555Y0158097D02*
X0205955Y0158097D01*
X0205955Y0157499D02*
X0206555Y0157499D01*
X0206555Y0156900D02*
X0205955Y0156900D01*
X0205955Y0156302D02*
X0206555Y0156302D01*
X0206555Y0155703D02*
X0205955Y0155703D01*
X0205955Y0155105D02*
X0206555Y0155105D01*
X0206555Y0154506D02*
X0219135Y0154506D01*
X0219135Y0155105D02*
X0210410Y0155105D01*
X0210410Y0155703D02*
X0219135Y0155703D01*
X0219425Y0156302D02*
X0210410Y0156302D01*
X0210410Y0156900D02*
X0219135Y0156900D01*
X0219135Y0157499D02*
X0210410Y0157499D01*
X0210241Y0158097D02*
X0219135Y0158097D01*
X0219135Y0158696D02*
X0210022Y0158696D01*
X0210367Y0159294D02*
X0219517Y0159294D01*
X0219135Y0159893D02*
X0210410Y0159893D01*
X0210410Y0160491D02*
X0219135Y0160491D01*
X0219135Y0161090D02*
X0210410Y0161090D01*
X0210410Y0161688D02*
X0219135Y0161688D01*
X0219135Y0167075D02*
X0178028Y0167075D01*
X0178028Y0167673D02*
X0219135Y0167673D01*
X0219135Y0168272D02*
X0177998Y0168272D01*
X0177829Y0168870D02*
X0219455Y0168870D01*
X0219135Y0169469D02*
X0178028Y0169469D01*
X0178028Y0170067D02*
X0219135Y0170067D01*
X0219135Y0170666D02*
X0178028Y0170666D01*
X0178028Y0166476D02*
X0187037Y0166476D01*
X0187151Y0166542D02*
X0186855Y0166371D01*
X0186613Y0166129D01*
X0186441Y0165832D01*
X0186353Y0165502D01*
X0186353Y0162776D01*
X0190207Y0162776D01*
X0190207Y0166631D01*
X0187482Y0166631D01*
X0187151Y0166542D01*
X0186468Y0165878D02*
X0177919Y0165878D01*
X0177560Y0165279D02*
X0186353Y0165279D01*
X0186353Y0164681D02*
X0177628Y0164681D01*
X0177628Y0164082D02*
X0186353Y0164082D01*
X0186353Y0163484D02*
X0177628Y0163484D01*
X0177622Y0162885D02*
X0186353Y0162885D01*
X0186353Y0161688D02*
X0177628Y0161688D01*
X0177628Y0161090D02*
X0186353Y0161090D01*
X0186353Y0160491D02*
X0177628Y0160491D01*
X0177628Y0159893D02*
X0186353Y0159893D01*
X0186395Y0159294D02*
X0177246Y0159294D01*
X0177628Y0158696D02*
X0186741Y0158696D01*
X0186521Y0158097D02*
X0177628Y0158097D01*
X0177628Y0157499D02*
X0186353Y0157499D01*
X0186353Y0156900D02*
X0177628Y0156900D01*
X0177337Y0156302D02*
X0186353Y0156302D01*
X0186353Y0155703D02*
X0177628Y0155703D01*
X0177628Y0155105D02*
X0186353Y0155105D01*
X0186353Y0153907D02*
X0177628Y0153907D01*
X0177628Y0154506D02*
X0190207Y0154506D01*
X0190207Y0155105D02*
X0190807Y0155105D01*
X0190807Y0155703D02*
X0190207Y0155703D01*
X0190207Y0156302D02*
X0190807Y0156302D01*
X0190807Y0156900D02*
X0190207Y0156900D01*
X0190207Y0157499D02*
X0190807Y0157499D01*
X0190807Y0158097D02*
X0190207Y0158097D01*
X0190207Y0158696D02*
X0190807Y0158696D01*
X0190807Y0159294D02*
X0190207Y0159294D01*
X0190207Y0159893D02*
X0190807Y0159893D01*
X0190807Y0160491D02*
X0190207Y0160491D01*
X0190207Y0161090D02*
X0190807Y0161090D01*
X0190807Y0161688D02*
X0190207Y0161688D01*
X0190207Y0162287D02*
X0177403Y0162287D01*
X0172903Y0162287D02*
X0166413Y0162287D01*
X0166413Y0162811D02*
X0166291Y0163267D01*
X0166055Y0163675D01*
X0165722Y0164009D01*
X0165313Y0164245D01*
X0164857Y0164367D01*
X0163248Y0164367D01*
X0163248Y0161398D01*
X0166413Y0161398D01*
X0166413Y0162811D01*
X0166394Y0162885D02*
X0169978Y0162885D01*
X0169379Y0163484D02*
X0166166Y0163484D01*
X0165595Y0164082D02*
X0168781Y0164082D01*
X0168182Y0164681D02*
X0158545Y0164681D01*
X0159143Y0165279D02*
X0160342Y0165279D01*
X0159883Y0165878D02*
X0159330Y0165878D01*
X0160301Y0164082D02*
X0151511Y0164082D01*
X0150913Y0164681D02*
X0155540Y0164681D01*
X0154942Y0165279D02*
X0150314Y0165279D01*
X0152110Y0163484D02*
X0159730Y0163484D01*
X0159841Y0163675D02*
X0159605Y0163267D01*
X0159483Y0162811D01*
X0159483Y0161398D01*
X0162648Y0161398D01*
X0162648Y0160798D01*
X0163248Y0160798D01*
X0163248Y0157830D01*
X0164857Y0157830D01*
X0165313Y0157952D01*
X0165722Y0158188D01*
X0166055Y0158522D01*
X0166291Y0158930D01*
X0166413Y0159386D01*
X0166413Y0160798D01*
X0163248Y0160798D01*
X0163248Y0161398D01*
X0162648Y0161398D01*
X0162648Y0164367D01*
X0161039Y0164367D01*
X0160583Y0164245D01*
X0160174Y0164009D01*
X0159841Y0163675D01*
X0159503Y0162885D02*
X0152708Y0162885D01*
X0153307Y0162287D02*
X0159483Y0162287D01*
X0159483Y0161688D02*
X0153905Y0161688D01*
X0154504Y0161090D02*
X0162648Y0161090D01*
X0162648Y0160798D02*
X0159483Y0160798D01*
X0159483Y0159386D01*
X0159605Y0158930D01*
X0159841Y0158522D01*
X0160174Y0158188D01*
X0160583Y0157952D01*
X0161039Y0157830D01*
X0162648Y0157830D01*
X0162648Y0160798D01*
X0162648Y0160491D02*
X0163248Y0160491D01*
X0163248Y0159893D02*
X0162648Y0159893D01*
X0162648Y0159294D02*
X0163248Y0159294D01*
X0163248Y0158696D02*
X0162648Y0158696D01*
X0162648Y0158097D02*
X0163248Y0158097D01*
X0165564Y0158097D02*
X0172678Y0158097D01*
X0172678Y0157499D02*
X0158095Y0157499D01*
X0157496Y0158097D02*
X0160332Y0158097D01*
X0159740Y0158696D02*
X0156898Y0158696D01*
X0156299Y0159294D02*
X0159507Y0159294D01*
X0159483Y0159893D02*
X0155701Y0159893D01*
X0155102Y0160491D02*
X0159483Y0160491D01*
X0162648Y0161688D02*
X0163248Y0161688D01*
X0163248Y0161090D02*
X0172678Y0161090D01*
X0172678Y0161688D02*
X0166413Y0161688D01*
X0166413Y0160491D02*
X0172678Y0160491D01*
X0172678Y0159893D02*
X0166413Y0159893D01*
X0166389Y0159294D02*
X0173060Y0159294D01*
X0172678Y0158696D02*
X0166156Y0158696D01*
X0163248Y0162287D02*
X0162648Y0162287D01*
X0162648Y0162885D02*
X0163248Y0162885D01*
X0163248Y0163484D02*
X0162648Y0163484D01*
X0162648Y0164082D02*
X0163248Y0164082D01*
X0165554Y0165279D02*
X0167584Y0165279D01*
X0166985Y0165878D02*
X0166013Y0165878D01*
X0172678Y0156900D02*
X0158693Y0156900D01*
X0159292Y0156302D02*
X0172968Y0156302D01*
X0172678Y0155703D02*
X0159890Y0155703D01*
X0160489Y0155105D02*
X0172678Y0155105D01*
X0172678Y0154506D02*
X0161087Y0154506D01*
X0161686Y0153907D02*
X0172678Y0153907D01*
X0172811Y0153309D02*
X0162284Y0153309D01*
X0162883Y0152710D02*
X0172776Y0152710D01*
X0172678Y0152112D02*
X0163481Y0152112D01*
X0164080Y0151513D02*
X0172678Y0151513D01*
X0172678Y0150915D02*
X0164348Y0150915D01*
X0164348Y0150316D02*
X0172678Y0150316D01*
X0172933Y0149718D02*
X0164348Y0149718D01*
X0164348Y0149119D02*
X0171233Y0149119D01*
X0170635Y0148521D02*
X0164348Y0148521D01*
X0164348Y0147922D02*
X0170036Y0147922D01*
X0169438Y0147324D02*
X0164348Y0147324D01*
X0164348Y0146725D02*
X0167723Y0146725D01*
X0167125Y0146127D02*
X0164348Y0146127D01*
X0161548Y0148521D02*
X0152118Y0148521D01*
X0152520Y0149119D02*
X0161548Y0149119D01*
X0161548Y0149718D02*
X0152634Y0149718D01*
X0152634Y0150316D02*
X0161317Y0150316D01*
X0160719Y0150915D02*
X0152634Y0150915D01*
X0151443Y0155105D02*
X0156529Y0155105D01*
X0155931Y0155703D02*
X0152041Y0155703D01*
X0152234Y0156302D02*
X0155332Y0156302D01*
X0154734Y0156900D02*
X0152234Y0156900D01*
X0152234Y0157499D02*
X0154135Y0157499D01*
X0153536Y0158097D02*
X0152234Y0158097D01*
X0152234Y0158696D02*
X0152938Y0158696D01*
X0152339Y0159294D02*
X0152234Y0159294D01*
X0145795Y0153309D02*
X0117033Y0153309D01*
X0117630Y0152710D02*
X0145703Y0152710D01*
X0145703Y0152112D02*
X0117878Y0152112D01*
X0139134Y0150915D02*
X0145703Y0150915D01*
X0145703Y0150316D02*
X0139733Y0150316D01*
X0139910Y0149718D02*
X0145703Y0149718D01*
X0145817Y0149119D02*
X0140158Y0149119D01*
X0156616Y0130566D02*
X0065823Y0130566D01*
X0065823Y0129967D02*
X0156018Y0129967D01*
X0155419Y0129369D02*
X0065823Y0129369D01*
X0065823Y0128770D02*
X0154821Y0128770D01*
X0154222Y0128171D02*
X0065823Y0128171D01*
X0065823Y0127573D02*
X0153624Y0127573D01*
X0153025Y0126974D02*
X0065823Y0126974D01*
X0065823Y0126376D02*
X0101217Y0126376D01*
X0102416Y0126872D02*
X0099686Y0125742D01*
X0097596Y0123652D01*
X0096465Y0120922D01*
X0096465Y0117967D01*
X0097596Y0115237D01*
X0099686Y0113148D01*
X0102416Y0112017D01*
X0105370Y0112017D01*
X0108100Y0113148D01*
X0110190Y0115237D01*
X0111321Y0117967D01*
X0111321Y0120922D01*
X0110190Y0123652D01*
X0108100Y0125742D01*
X0105370Y0126872D01*
X0102416Y0126872D01*
X0099772Y0125777D02*
X0065823Y0125777D01*
X0065823Y0125179D02*
X0099123Y0125179D01*
X0098524Y0124580D02*
X0065823Y0124580D01*
X0065823Y0123982D02*
X0097926Y0123982D01*
X0097485Y0123383D02*
X0065823Y0123383D01*
X0065823Y0122785D02*
X0097237Y0122785D01*
X0096989Y0122186D02*
X0065823Y0122186D01*
X0065823Y0121588D02*
X0096741Y0121588D01*
X0096493Y0120989D02*
X0065823Y0120989D01*
X0065823Y0120391D02*
X0096465Y0120391D01*
X0096465Y0119792D02*
X0065823Y0119792D01*
X0065823Y0119194D02*
X0096465Y0119194D01*
X0096465Y0118595D02*
X0065823Y0118595D01*
X0065823Y0117997D02*
X0096465Y0117997D01*
X0096701Y0117398D02*
X0065823Y0117398D01*
X0065823Y0116800D02*
X0096949Y0116800D01*
X0097197Y0116201D02*
X0065823Y0116201D01*
X0065823Y0115603D02*
X0097445Y0115603D01*
X0097829Y0115004D02*
X0065823Y0115004D01*
X0065823Y0114406D02*
X0098428Y0114406D01*
X0099026Y0113807D02*
X0065823Y0113807D01*
X0065823Y0113209D02*
X0099625Y0113209D01*
X0100984Y0112610D02*
X0065823Y0112610D01*
X0065823Y0112012D02*
X0131578Y0112012D01*
X0136445Y0112012D02*
X0138271Y0112012D01*
X0137836Y0111413D02*
X0136880Y0111413D01*
X0136880Y0110815D02*
X0137836Y0110815D01*
X0137836Y0110216D02*
X0136880Y0110216D01*
X0136880Y0109618D02*
X0137836Y0109618D01*
X0137836Y0109019D02*
X0136880Y0109019D01*
X0136897Y0108421D02*
X0137836Y0108421D01*
X0137836Y0107822D02*
X0137496Y0107822D01*
X0139291Y0106027D02*
X0153674Y0106027D01*
X0153674Y0105428D02*
X0151690Y0105428D01*
X0152234Y0104830D02*
X0153674Y0104830D01*
X0153674Y0104231D02*
X0152234Y0104231D01*
X0152234Y0103633D02*
X0153674Y0103633D01*
X0153674Y0103034D02*
X0152234Y0103034D01*
X0152234Y0102436D02*
X0153674Y0102436D01*
X0153674Y0101837D02*
X0152234Y0101837D01*
X0152234Y0101238D02*
X0153674Y0101238D01*
X0153674Y0100640D02*
X0152096Y0100640D01*
X0160411Y0100640D02*
X0164928Y0100640D01*
X0164422Y0100041D02*
X0160411Y0100041D01*
X0160411Y0099443D02*
X0164212Y0099443D01*
X0164207Y0098844D02*
X0160411Y0098844D01*
X0160411Y0098246D02*
X0164207Y0098246D01*
X0160411Y0101238D02*
X0170800Y0101238D01*
X0170023Y0100640D02*
X0174831Y0100640D01*
X0174831Y0101238D02*
X0174781Y0101238D01*
X0173091Y0101238D02*
X0172491Y0101238D01*
X0172491Y0101837D02*
X0173091Y0101837D01*
X0173091Y0102436D02*
X0172491Y0102436D01*
X0172491Y0103034D02*
X0173091Y0103034D01*
X0173091Y0103633D02*
X0172491Y0103633D01*
X0178577Y0101837D02*
X0179758Y0101837D01*
X0179510Y0102436D02*
X0178809Y0102436D01*
X0178809Y0103034D02*
X0179371Y0103034D01*
X0179371Y0103633D02*
X0178809Y0103633D01*
X0178809Y0104231D02*
X0179438Y0104231D01*
X0179686Y0104830D02*
X0178809Y0104830D01*
X0178809Y0105428D02*
X0180027Y0105428D01*
X0180625Y0106027D02*
X0178809Y0106027D01*
X0178532Y0106625D02*
X0181843Y0106625D01*
X0185240Y0105428D02*
X0224540Y0105428D01*
X0224540Y0104830D02*
X0185581Y0104830D01*
X0185925Y0104231D02*
X0224540Y0104231D01*
X0224540Y0103633D02*
X0186523Y0103633D01*
X0187086Y0103034D02*
X0224540Y0103034D01*
X0224540Y0102436D02*
X0187334Y0102436D01*
X0187502Y0101837D02*
X0224540Y0101837D01*
X0231277Y0083283D02*
X0260073Y0083283D01*
X0260073Y0082685D02*
X0231277Y0082685D01*
X0231277Y0082086D02*
X0260073Y0082086D01*
X0260073Y0081488D02*
X0231277Y0081488D01*
X0231277Y0080889D02*
X0260073Y0080889D01*
X0260073Y0080291D02*
X0231277Y0080291D01*
X0231277Y0079692D02*
X0260073Y0079692D01*
X0260073Y0079094D02*
X0231277Y0079094D01*
X0231277Y0078495D02*
X0260073Y0078495D01*
X0260073Y0077897D02*
X0231277Y0077897D01*
X0231277Y0077298D02*
X0260073Y0077298D01*
X0260073Y0076700D02*
X0231277Y0076700D01*
X0232514Y0076101D02*
X0239681Y0076101D01*
X0240222Y0076325D02*
X0238605Y0075655D01*
X0237368Y0074418D01*
X0236698Y0072800D01*
X0236698Y0071050D01*
X0237368Y0069433D01*
X0238605Y0068195D01*
X0240222Y0067525D01*
X0241973Y0067525D01*
X0243590Y0068195D01*
X0244828Y0069433D01*
X0245498Y0071050D01*
X0245498Y0072800D01*
X0244828Y0074418D01*
X0243590Y0075655D01*
X0241973Y0076325D01*
X0240222Y0076325D01*
X0238452Y0075502D02*
X0233743Y0075502D01*
X0234341Y0074904D02*
X0237854Y0074904D01*
X0237321Y0074305D02*
X0234874Y0074305D01*
X0235122Y0073707D02*
X0237073Y0073707D01*
X0236825Y0073108D02*
X0235370Y0073108D01*
X0235498Y0072510D02*
X0236698Y0072510D01*
X0236698Y0071911D02*
X0235498Y0071911D01*
X0235498Y0071313D02*
X0236698Y0071313D01*
X0236837Y0070714D02*
X0235359Y0070714D01*
X0235111Y0070116D02*
X0237085Y0070116D01*
X0237333Y0069517D02*
X0234863Y0069517D01*
X0234314Y0068919D02*
X0237881Y0068919D01*
X0238480Y0068320D02*
X0233715Y0068320D01*
X0232448Y0067722D02*
X0239748Y0067722D01*
X0242448Y0067722D02*
X0260073Y0067722D01*
X0260073Y0068320D02*
X0243715Y0068320D01*
X0244314Y0068919D02*
X0260073Y0068919D01*
X0260073Y0069517D02*
X0244863Y0069517D01*
X0245111Y0070116D02*
X0260073Y0070116D01*
X0260073Y0070714D02*
X0245359Y0070714D01*
X0245498Y0071313D02*
X0260073Y0071313D01*
X0260073Y0071911D02*
X0245498Y0071911D01*
X0245498Y0072510D02*
X0260073Y0072510D01*
X0260073Y0073108D02*
X0245370Y0073108D01*
X0245122Y0073707D02*
X0260073Y0073707D01*
X0260073Y0074305D02*
X0244874Y0074305D01*
X0244341Y0074904D02*
X0260073Y0074904D01*
X0260073Y0075502D02*
X0243743Y0075502D01*
X0242514Y0076101D02*
X0260073Y0076101D01*
X0260073Y0067123D02*
X0111321Y0067123D01*
X0111321Y0066525D02*
X0260073Y0066525D01*
X0260066Y0065926D02*
X0111193Y0065926D01*
X0110945Y0065328D02*
X0260019Y0065328D01*
X0259907Y0064729D02*
X0110697Y0064729D01*
X0110449Y0064131D02*
X0259713Y0064131D01*
X0259518Y0063532D02*
X0110201Y0063532D01*
X0109618Y0062934D02*
X0259283Y0062934D01*
X0258848Y0062335D02*
X0109020Y0062335D01*
X0108421Y0061737D02*
X0258413Y0061737D01*
X0257827Y0061138D02*
X0107430Y0061138D01*
X0105985Y0060540D02*
X0257003Y0060540D01*
X0255804Y0059941D02*
X0070092Y0059941D01*
X0065823Y0094655D02*
X0112309Y0094655D01*
X0111710Y0095253D02*
X0065823Y0095253D01*
X0065823Y0095852D02*
X0111337Y0095852D01*
X0111089Y0096450D02*
X0065823Y0096450D01*
X0065823Y0097049D02*
X0110946Y0097049D01*
X0110946Y0097647D02*
X0065823Y0097647D01*
X0065823Y0098246D02*
X0110950Y0098246D01*
X0111198Y0098844D02*
X0065823Y0098844D01*
X0065823Y0099443D02*
X0111446Y0099443D01*
X0111973Y0100041D02*
X0065823Y0100041D01*
X0065823Y0100640D02*
X0112654Y0100640D01*
X0117925Y0106027D02*
X0135331Y0106027D01*
X0133917Y0104830D02*
X0133317Y0104830D01*
X0133317Y0104231D02*
X0133917Y0104231D01*
X0133917Y0103633D02*
X0133317Y0103633D01*
X0133317Y0103034D02*
X0133917Y0103034D01*
X0133917Y0102436D02*
X0133317Y0102436D01*
X0133317Y0101837D02*
X0065823Y0101837D01*
X0065823Y0102436D02*
X0130743Y0102436D01*
X0130743Y0103034D02*
X0065823Y0103034D01*
X0065823Y0101238D02*
X0130743Y0101238D01*
X0133317Y0101238D02*
X0133917Y0101238D01*
X0133917Y0100640D02*
X0133317Y0100640D01*
X0133317Y0100041D02*
X0133917Y0100041D01*
X0133917Y0099443D02*
X0133317Y0099443D01*
X0133317Y0098844D02*
X0133917Y0098844D01*
X0133917Y0101837D02*
X0138623Y0101837D01*
X0139304Y0112610D02*
X0106802Y0112610D01*
X0108161Y0113209D02*
X0139304Y0113209D01*
X0139858Y0113807D02*
X0108759Y0113807D01*
X0109358Y0114406D02*
X0140457Y0114406D01*
X0141055Y0115004D02*
X0109956Y0115004D01*
X0110341Y0115603D02*
X0141654Y0115603D01*
X0142252Y0116201D02*
X0110589Y0116201D01*
X0110837Y0116800D02*
X0142851Y0116800D01*
X0143449Y0117398D02*
X0111085Y0117398D01*
X0111321Y0117997D02*
X0144048Y0117997D01*
X0144646Y0118595D02*
X0111321Y0118595D01*
X0111321Y0119194D02*
X0145245Y0119194D01*
X0145843Y0119792D02*
X0111321Y0119792D01*
X0111321Y0120391D02*
X0146442Y0120391D01*
X0147040Y0120989D02*
X0111293Y0120989D01*
X0111045Y0121588D02*
X0147639Y0121588D01*
X0148237Y0122186D02*
X0110797Y0122186D01*
X0110549Y0122785D02*
X0148836Y0122785D01*
X0149434Y0123383D02*
X0110301Y0123383D01*
X0109860Y0123982D02*
X0150033Y0123982D01*
X0150631Y0124580D02*
X0109262Y0124580D01*
X0108663Y0125179D02*
X0151230Y0125179D01*
X0151828Y0125777D02*
X0108014Y0125777D01*
X0106569Y0126376D02*
X0152427Y0126376D01*
X0157584Y0127573D02*
X0159529Y0127573D01*
X0169027Y0134755D02*
X0172278Y0134755D01*
X0172278Y0134814D02*
X0172278Y0133565D01*
X0172367Y0133234D01*
X0172538Y0132938D01*
X0172780Y0132696D01*
X0173076Y0132525D01*
X0173407Y0132436D01*
X0174656Y0132436D01*
X0174656Y0134814D01*
X0172278Y0134814D01*
X0172278Y0134157D02*
X0169626Y0134157D01*
X0170224Y0133558D02*
X0172280Y0133558D01*
X0172525Y0132960D02*
X0170823Y0132960D01*
X0174656Y0132960D02*
X0175256Y0132960D01*
X0175256Y0133558D02*
X0174656Y0133558D01*
X0174656Y0134157D02*
X0175256Y0134157D01*
X0175256Y0134755D02*
X0174656Y0134755D01*
X0174656Y0136551D02*
X0175256Y0136551D01*
X0175247Y0137149D02*
X0175059Y0137149D01*
X0175059Y0137748D02*
X0175247Y0137748D01*
X0175247Y0138346D02*
X0175059Y0138346D01*
X0175059Y0138945D02*
X0164838Y0138945D01*
X0170922Y0143733D02*
X0172939Y0143733D01*
X0172678Y0144331D02*
X0171043Y0144331D01*
X0171043Y0144930D02*
X0172678Y0144930D01*
X0172678Y0145528D02*
X0171602Y0145528D01*
X0172200Y0146127D02*
X0172678Y0146127D01*
X0172799Y0146725D02*
X0173090Y0146725D01*
X0177628Y0147324D02*
X0186353Y0147324D01*
X0186353Y0147922D02*
X0177628Y0147922D01*
X0177628Y0148521D02*
X0186353Y0148521D01*
X0186353Y0149119D02*
X0177628Y0149119D01*
X0177373Y0149718D02*
X0186353Y0149718D01*
X0186575Y0150316D02*
X0177628Y0150316D01*
X0177628Y0150915D02*
X0186647Y0150915D01*
X0186370Y0151513D02*
X0177628Y0151513D01*
X0177628Y0152112D02*
X0186353Y0152112D01*
X0186353Y0152710D02*
X0177530Y0152710D01*
X0177494Y0153309D02*
X0186353Y0153309D01*
X0190207Y0153309D02*
X0190807Y0153309D01*
X0190807Y0153907D02*
X0190207Y0153907D01*
X0190807Y0154506D02*
X0198081Y0154506D01*
X0198081Y0153907D02*
X0198681Y0153907D01*
X0198681Y0153309D02*
X0198081Y0153309D01*
X0198081Y0152710D02*
X0198681Y0152710D01*
X0198681Y0152112D02*
X0198081Y0152112D01*
X0198081Y0151513D02*
X0198681Y0151513D01*
X0198681Y0150915D02*
X0198081Y0150915D01*
X0198081Y0150316D02*
X0198681Y0150316D01*
X0198681Y0149718D02*
X0198081Y0149718D01*
X0198081Y0149119D02*
X0198681Y0149119D01*
X0198681Y0148521D02*
X0198081Y0148521D01*
X0198081Y0147922D02*
X0198681Y0147922D01*
X0198681Y0147324D02*
X0198081Y0147324D01*
X0198081Y0145528D02*
X0198681Y0145528D01*
X0198681Y0144930D02*
X0198081Y0144930D01*
X0198081Y0144331D02*
X0198681Y0144331D01*
X0198681Y0143733D02*
X0198081Y0143733D01*
X0198081Y0143134D02*
X0198681Y0143134D01*
X0202310Y0143134D02*
X0202327Y0143134D01*
X0194453Y0143134D02*
X0194435Y0143134D01*
X0190807Y0143134D02*
X0190207Y0143134D01*
X0190207Y0143733D02*
X0190807Y0143733D01*
X0190807Y0144331D02*
X0190207Y0144331D01*
X0190207Y0144930D02*
X0190807Y0144930D01*
X0190807Y0145528D02*
X0190207Y0145528D01*
X0190207Y0147324D02*
X0190807Y0147324D01*
X0190807Y0147922D02*
X0190207Y0147922D01*
X0190207Y0148521D02*
X0190807Y0148521D01*
X0190807Y0149119D02*
X0190207Y0149119D01*
X0190207Y0149718D02*
X0190807Y0149718D01*
X0190807Y0150316D02*
X0190207Y0150316D01*
X0190207Y0150915D02*
X0190807Y0150915D01*
X0190807Y0151513D02*
X0190207Y0151513D01*
X0190207Y0152112D02*
X0190807Y0152112D01*
X0190807Y0152710D02*
X0190207Y0152710D01*
X0190807Y0162287D02*
X0198081Y0162287D01*
X0198081Y0162885D02*
X0198681Y0162885D01*
X0198681Y0163484D02*
X0198081Y0163484D01*
X0198081Y0164082D02*
X0198681Y0164082D01*
X0198681Y0164681D02*
X0198081Y0164681D01*
X0198081Y0165279D02*
X0198681Y0165279D01*
X0198681Y0165878D02*
X0198081Y0165878D01*
X0198081Y0166476D02*
X0198681Y0166476D01*
X0201851Y0166476D02*
X0202785Y0166476D01*
X0194911Y0166476D02*
X0193977Y0166476D01*
X0190807Y0166476D02*
X0190207Y0166476D01*
X0190207Y0165878D02*
X0190807Y0165878D01*
X0190807Y0165279D02*
X0190207Y0165279D01*
X0190207Y0164681D02*
X0190807Y0164681D01*
X0190807Y0164082D02*
X0190207Y0164082D01*
X0190207Y0163484D02*
X0190807Y0163484D01*
X0190807Y0162885D02*
X0190207Y0162885D01*
X0210410Y0153907D02*
X0219135Y0153907D01*
X0219268Y0153309D02*
X0210410Y0153309D01*
X0218840Y0171264D02*
X0219135Y0171264D01*
X0219290Y0171863D02*
X0219440Y0171863D01*
X0224484Y0174855D02*
X0258252Y0174855D01*
X0257522Y0175454D02*
X0224484Y0175454D01*
X0184019Y0137748D02*
X0183831Y0137748D01*
X0181435Y0137748D02*
X0180682Y0137748D01*
X0177796Y0134755D02*
X0177634Y0134755D01*
X0177634Y0134157D02*
X0177796Y0134157D01*
X0171576Y0100041D02*
X0170529Y0100041D01*
X0170739Y0099443D02*
X0171300Y0099443D01*
X0171300Y0098844D02*
X0170744Y0098844D01*
X0170744Y0098246D02*
X0171300Y0098246D01*
X0177037Y0097049D02*
X0177599Y0097049D01*
X0177990Y0096450D02*
X0177037Y0096450D01*
X0177199Y0093458D02*
X0161112Y0093458D01*
X0222448Y0067722D02*
X0229748Y0067722D01*
X0228480Y0068320D02*
X0223715Y0068320D01*
X0224314Y0068919D02*
X0227881Y0068919D01*
X0227333Y0069517D02*
X0224863Y0069517D01*
X0225111Y0070116D02*
X0227085Y0070116D01*
X0226837Y0070714D02*
X0225359Y0070714D01*
X0225498Y0071313D02*
X0226698Y0071313D01*
X0226698Y0071911D02*
X0225498Y0071911D01*
X0225498Y0072510D02*
X0226698Y0072510D01*
X0226825Y0073108D02*
X0225370Y0073108D01*
X0225122Y0073707D02*
X0227073Y0073707D01*
X0227321Y0074305D02*
X0225458Y0074305D01*
X0226056Y0074904D02*
X0227854Y0074904D01*
X0228452Y0075502D02*
X0226655Y0075502D01*
X0227253Y0076101D02*
X0228477Y0076101D01*
X0228477Y0076700D02*
X0227852Y0076700D01*
X0228450Y0077298D02*
X0228477Y0077298D01*
D28*
X0241688Y0129012D03*
X0135389Y0129012D03*
D29*
X0137358Y0148303D02*
X0116924Y0148303D01*
X0114562Y0150665D01*
X0182633Y0103421D02*
X0184602Y0101453D01*
X0184602Y0098894D01*
X0204720Y0098894D01*
X0210192Y0093421D01*
X0184602Y0098894D02*
X0180665Y0098894D01*
X0137358Y0093185D02*
X0123972Y0079799D01*
X0114562Y0079799D01*
D30*
X0182633Y0103421D03*
M02*
