G75*
%MOIN*%
%OFA0B0*%
%FSLAX25Y25*%
%IPPOS*%
%LPD*%
%AMOC8*
5,1,8,0,0,1.08239X$1,22.5*
%
%ADD10C,0.00000*%
%ADD11C,0.00400*%
%ADD12C,0.00300*%
%ADD13C,0.00500*%
%ADD14C,0.00800*%
%ADD15C,0.00600*%
D10*
X0072397Y0058146D02*
X0253499Y0058146D01*
X0253689Y0058148D01*
X0253879Y0058155D01*
X0254069Y0058167D01*
X0254259Y0058183D01*
X0254448Y0058203D01*
X0254637Y0058229D01*
X0254825Y0058258D01*
X0255012Y0058293D01*
X0255198Y0058332D01*
X0255383Y0058375D01*
X0255568Y0058423D01*
X0255751Y0058475D01*
X0255932Y0058531D01*
X0256112Y0058592D01*
X0256291Y0058658D01*
X0256468Y0058727D01*
X0256644Y0058801D01*
X0256817Y0058879D01*
X0256989Y0058962D01*
X0257158Y0059048D01*
X0257326Y0059138D01*
X0257491Y0059233D01*
X0257654Y0059331D01*
X0257814Y0059434D01*
X0257972Y0059540D01*
X0258127Y0059650D01*
X0258280Y0059763D01*
X0258430Y0059881D01*
X0258576Y0060002D01*
X0258720Y0060126D01*
X0258861Y0060254D01*
X0258999Y0060385D01*
X0259134Y0060520D01*
X0259265Y0060658D01*
X0259393Y0060799D01*
X0259517Y0060943D01*
X0259638Y0061089D01*
X0259756Y0061239D01*
X0259869Y0061392D01*
X0259979Y0061547D01*
X0260085Y0061705D01*
X0260188Y0061865D01*
X0260286Y0062028D01*
X0260381Y0062193D01*
X0260471Y0062361D01*
X0260557Y0062530D01*
X0260640Y0062702D01*
X0260718Y0062875D01*
X0260792Y0063051D01*
X0260861Y0063228D01*
X0260927Y0063407D01*
X0260988Y0063587D01*
X0261044Y0063768D01*
X0261096Y0063951D01*
X0261144Y0064136D01*
X0261187Y0064321D01*
X0261226Y0064507D01*
X0261261Y0064694D01*
X0261290Y0064882D01*
X0261316Y0065071D01*
X0261336Y0065260D01*
X0261352Y0065450D01*
X0261364Y0065640D01*
X0261371Y0065830D01*
X0261373Y0066020D01*
X0261373Y0170350D01*
X0261371Y0170540D01*
X0261364Y0170730D01*
X0261352Y0170920D01*
X0261336Y0171110D01*
X0261316Y0171299D01*
X0261290Y0171488D01*
X0261261Y0171676D01*
X0261226Y0171863D01*
X0261187Y0172049D01*
X0261144Y0172234D01*
X0261096Y0172419D01*
X0261044Y0172602D01*
X0260988Y0172783D01*
X0260927Y0172963D01*
X0260861Y0173142D01*
X0260792Y0173319D01*
X0260718Y0173495D01*
X0260640Y0173668D01*
X0260557Y0173840D01*
X0260471Y0174009D01*
X0260381Y0174177D01*
X0260286Y0174342D01*
X0260188Y0174505D01*
X0260085Y0174665D01*
X0259979Y0174823D01*
X0259869Y0174978D01*
X0259756Y0175131D01*
X0259638Y0175281D01*
X0259517Y0175427D01*
X0259393Y0175571D01*
X0259265Y0175712D01*
X0259134Y0175850D01*
X0258999Y0175985D01*
X0258861Y0176116D01*
X0258720Y0176244D01*
X0258576Y0176368D01*
X0258430Y0176489D01*
X0258280Y0176607D01*
X0258127Y0176720D01*
X0257972Y0176830D01*
X0257814Y0176936D01*
X0257654Y0177039D01*
X0257491Y0177137D01*
X0257326Y0177232D01*
X0257158Y0177322D01*
X0256989Y0177408D01*
X0256817Y0177491D01*
X0256644Y0177569D01*
X0256468Y0177643D01*
X0256291Y0177712D01*
X0256112Y0177778D01*
X0255932Y0177839D01*
X0255751Y0177895D01*
X0255568Y0177947D01*
X0255383Y0177995D01*
X0255198Y0178038D01*
X0255012Y0178077D01*
X0254825Y0178112D01*
X0254637Y0178141D01*
X0254448Y0178167D01*
X0254259Y0178187D01*
X0254069Y0178203D01*
X0253879Y0178215D01*
X0253689Y0178222D01*
X0253499Y0178224D01*
X0172791Y0178224D01*
X0172601Y0178226D01*
X0172411Y0178233D01*
X0172221Y0178245D01*
X0172031Y0178261D01*
X0171842Y0178281D01*
X0171653Y0178307D01*
X0171465Y0178336D01*
X0171278Y0178371D01*
X0171092Y0178410D01*
X0170907Y0178453D01*
X0170722Y0178501D01*
X0170539Y0178553D01*
X0170358Y0178609D01*
X0170178Y0178670D01*
X0169999Y0178736D01*
X0169822Y0178805D01*
X0169646Y0178879D01*
X0169473Y0178957D01*
X0169301Y0179040D01*
X0169132Y0179126D01*
X0168964Y0179216D01*
X0168799Y0179311D01*
X0168636Y0179409D01*
X0168476Y0179512D01*
X0168318Y0179618D01*
X0168163Y0179728D01*
X0168010Y0179841D01*
X0167860Y0179959D01*
X0167714Y0180080D01*
X0167570Y0180204D01*
X0167429Y0180332D01*
X0167291Y0180463D01*
X0167156Y0180598D01*
X0167025Y0180736D01*
X0166897Y0180877D01*
X0166773Y0181021D01*
X0166652Y0181167D01*
X0166534Y0181317D01*
X0166421Y0181470D01*
X0166311Y0181625D01*
X0166205Y0181783D01*
X0166102Y0181943D01*
X0166004Y0182106D01*
X0165909Y0182271D01*
X0165819Y0182439D01*
X0165733Y0182608D01*
X0165650Y0182780D01*
X0165572Y0182953D01*
X0165498Y0183129D01*
X0165429Y0183306D01*
X0165363Y0183485D01*
X0165302Y0183665D01*
X0165246Y0183846D01*
X0165194Y0184029D01*
X0165146Y0184214D01*
X0165103Y0184399D01*
X0165064Y0184585D01*
X0165029Y0184772D01*
X0165000Y0184960D01*
X0164974Y0185149D01*
X0164954Y0185338D01*
X0164938Y0185528D01*
X0164926Y0185718D01*
X0164919Y0185908D01*
X0164917Y0186098D01*
X0164917Y0192004D01*
X0164915Y0192194D01*
X0164908Y0192384D01*
X0164896Y0192574D01*
X0164880Y0192764D01*
X0164860Y0192953D01*
X0164834Y0193142D01*
X0164805Y0193330D01*
X0164770Y0193517D01*
X0164731Y0193703D01*
X0164688Y0193888D01*
X0164640Y0194073D01*
X0164588Y0194256D01*
X0164532Y0194437D01*
X0164471Y0194617D01*
X0164405Y0194796D01*
X0164336Y0194973D01*
X0164262Y0195149D01*
X0164184Y0195322D01*
X0164101Y0195494D01*
X0164015Y0195663D01*
X0163925Y0195831D01*
X0163830Y0195996D01*
X0163732Y0196159D01*
X0163629Y0196319D01*
X0163523Y0196477D01*
X0163413Y0196632D01*
X0163300Y0196785D01*
X0163182Y0196935D01*
X0163061Y0197081D01*
X0162937Y0197225D01*
X0162809Y0197366D01*
X0162678Y0197504D01*
X0162543Y0197639D01*
X0162405Y0197770D01*
X0162264Y0197898D01*
X0162120Y0198022D01*
X0161974Y0198143D01*
X0161824Y0198261D01*
X0161671Y0198374D01*
X0161516Y0198484D01*
X0161358Y0198590D01*
X0161198Y0198693D01*
X0161035Y0198791D01*
X0160870Y0198886D01*
X0160702Y0198976D01*
X0160533Y0199062D01*
X0160361Y0199145D01*
X0160188Y0199223D01*
X0160012Y0199297D01*
X0159835Y0199366D01*
X0159656Y0199432D01*
X0159476Y0199493D01*
X0159295Y0199549D01*
X0159112Y0199601D01*
X0158927Y0199649D01*
X0158742Y0199692D01*
X0158556Y0199731D01*
X0158369Y0199766D01*
X0158181Y0199795D01*
X0157992Y0199821D01*
X0157803Y0199841D01*
X0157613Y0199857D01*
X0157423Y0199869D01*
X0157233Y0199876D01*
X0157043Y0199878D01*
X0072397Y0199878D01*
X0072207Y0199876D01*
X0072017Y0199869D01*
X0071827Y0199857D01*
X0071637Y0199841D01*
X0071448Y0199821D01*
X0071259Y0199795D01*
X0071071Y0199766D01*
X0070884Y0199731D01*
X0070698Y0199692D01*
X0070513Y0199649D01*
X0070328Y0199601D01*
X0070145Y0199549D01*
X0069964Y0199493D01*
X0069784Y0199432D01*
X0069605Y0199366D01*
X0069428Y0199297D01*
X0069252Y0199223D01*
X0069079Y0199145D01*
X0068907Y0199062D01*
X0068738Y0198976D01*
X0068570Y0198886D01*
X0068405Y0198791D01*
X0068242Y0198693D01*
X0068082Y0198590D01*
X0067924Y0198484D01*
X0067769Y0198374D01*
X0067616Y0198261D01*
X0067466Y0198143D01*
X0067320Y0198022D01*
X0067176Y0197898D01*
X0067035Y0197770D01*
X0066897Y0197639D01*
X0066762Y0197504D01*
X0066631Y0197366D01*
X0066503Y0197225D01*
X0066379Y0197081D01*
X0066258Y0196935D01*
X0066140Y0196785D01*
X0066027Y0196632D01*
X0065917Y0196477D01*
X0065811Y0196319D01*
X0065708Y0196159D01*
X0065610Y0195996D01*
X0065515Y0195831D01*
X0065425Y0195663D01*
X0065339Y0195494D01*
X0065256Y0195322D01*
X0065178Y0195149D01*
X0065104Y0194973D01*
X0065035Y0194796D01*
X0064969Y0194617D01*
X0064908Y0194437D01*
X0064852Y0194256D01*
X0064800Y0194073D01*
X0064752Y0193888D01*
X0064709Y0193703D01*
X0064670Y0193517D01*
X0064635Y0193330D01*
X0064606Y0193142D01*
X0064580Y0192953D01*
X0064560Y0192764D01*
X0064544Y0192574D01*
X0064532Y0192384D01*
X0064525Y0192194D01*
X0064523Y0192004D01*
X0064523Y0066020D01*
X0064525Y0065830D01*
X0064532Y0065640D01*
X0064544Y0065450D01*
X0064560Y0065260D01*
X0064580Y0065071D01*
X0064606Y0064882D01*
X0064635Y0064694D01*
X0064670Y0064507D01*
X0064709Y0064321D01*
X0064752Y0064136D01*
X0064800Y0063951D01*
X0064852Y0063768D01*
X0064908Y0063587D01*
X0064969Y0063407D01*
X0065035Y0063228D01*
X0065104Y0063051D01*
X0065178Y0062875D01*
X0065256Y0062702D01*
X0065339Y0062530D01*
X0065425Y0062361D01*
X0065515Y0062193D01*
X0065610Y0062028D01*
X0065708Y0061865D01*
X0065811Y0061705D01*
X0065917Y0061547D01*
X0066027Y0061392D01*
X0066140Y0061239D01*
X0066258Y0061089D01*
X0066379Y0060943D01*
X0066503Y0060799D01*
X0066631Y0060658D01*
X0066762Y0060520D01*
X0066897Y0060385D01*
X0067035Y0060254D01*
X0067176Y0060126D01*
X0067320Y0060002D01*
X0067466Y0059881D01*
X0067616Y0059763D01*
X0067769Y0059650D01*
X0067924Y0059540D01*
X0068082Y0059434D01*
X0068242Y0059331D01*
X0068405Y0059233D01*
X0068570Y0059138D01*
X0068738Y0059048D01*
X0068907Y0058962D01*
X0069079Y0058879D01*
X0069252Y0058801D01*
X0069428Y0058727D01*
X0069605Y0058658D01*
X0069784Y0058592D01*
X0069964Y0058531D01*
X0070145Y0058475D01*
X0070328Y0058423D01*
X0070513Y0058375D01*
X0070698Y0058332D01*
X0070884Y0058293D01*
X0071071Y0058258D01*
X0071259Y0058229D01*
X0071448Y0058203D01*
X0071637Y0058183D01*
X0071827Y0058167D01*
X0072017Y0058155D01*
X0072207Y0058148D01*
X0072397Y0058146D01*
D11*
X0232951Y0087873D02*
X0232951Y0090429D01*
X0232951Y0092118D02*
X0237551Y0093651D01*
X0232951Y0095184D01*
X0236018Y0090429D02*
X0236529Y0090429D01*
X0236591Y0090427D01*
X0236652Y0090422D01*
X0236713Y0090412D01*
X0236774Y0090399D01*
X0236833Y0090383D01*
X0236891Y0090363D01*
X0236948Y0090339D01*
X0237004Y0090312D01*
X0237058Y0090282D01*
X0237110Y0090248D01*
X0237159Y0090212D01*
X0237207Y0090172D01*
X0237252Y0090130D01*
X0237294Y0090085D01*
X0237334Y0090037D01*
X0237370Y0089988D01*
X0237404Y0089936D01*
X0237434Y0089882D01*
X0237461Y0089826D01*
X0237485Y0089769D01*
X0237505Y0089711D01*
X0237521Y0089652D01*
X0237534Y0089591D01*
X0237544Y0089530D01*
X0237549Y0089469D01*
X0237551Y0089407D01*
X0237551Y0087873D01*
X0236018Y0090429D02*
X0235956Y0090427D01*
X0235895Y0090422D01*
X0235834Y0090412D01*
X0235773Y0090399D01*
X0235714Y0090383D01*
X0235656Y0090363D01*
X0235599Y0090339D01*
X0235543Y0090312D01*
X0235489Y0090282D01*
X0235437Y0090248D01*
X0235388Y0090212D01*
X0235340Y0090172D01*
X0235295Y0090130D01*
X0235253Y0090085D01*
X0235213Y0090037D01*
X0235177Y0089988D01*
X0235143Y0089936D01*
X0235113Y0089882D01*
X0235086Y0089826D01*
X0235062Y0089769D01*
X0235042Y0089711D01*
X0235026Y0089652D01*
X0235013Y0089591D01*
X0235003Y0089530D01*
X0234998Y0089469D01*
X0234996Y0089407D01*
X0234996Y0087873D01*
X0232951Y0087873D01*
X0243168Y0091034D02*
X0243168Y0092312D01*
X0243170Y0092375D01*
X0243176Y0092438D01*
X0243185Y0092500D01*
X0243199Y0092561D01*
X0243216Y0092622D01*
X0243237Y0092681D01*
X0243262Y0092739D01*
X0243290Y0092796D01*
X0243321Y0092850D01*
X0243356Y0092902D01*
X0243394Y0092953D01*
X0243435Y0093001D01*
X0243479Y0093046D01*
X0243525Y0093088D01*
X0243574Y0093128D01*
X0243625Y0093164D01*
X0243679Y0093197D01*
X0243734Y0093227D01*
X0243792Y0093253D01*
X0243850Y0093276D01*
X0243910Y0093295D01*
X0243971Y0093310D01*
X0244033Y0093322D01*
X0244096Y0093330D01*
X0244159Y0093334D01*
X0244221Y0093334D01*
X0244284Y0093330D01*
X0244347Y0093322D01*
X0244409Y0093310D01*
X0244470Y0093295D01*
X0244530Y0093276D01*
X0244588Y0093253D01*
X0244646Y0093227D01*
X0244701Y0093197D01*
X0244755Y0093164D01*
X0244806Y0093128D01*
X0244855Y0093088D01*
X0244901Y0093046D01*
X0244945Y0093001D01*
X0244986Y0092953D01*
X0245024Y0092902D01*
X0245059Y0092850D01*
X0245090Y0092796D01*
X0245118Y0092739D01*
X0245143Y0092681D01*
X0245164Y0092622D01*
X0245181Y0092561D01*
X0245195Y0092500D01*
X0245204Y0092438D01*
X0245210Y0092375D01*
X0245212Y0092312D01*
X0245212Y0091034D01*
X0245212Y0092312D02*
X0245214Y0092382D01*
X0245220Y0092453D01*
X0245229Y0092522D01*
X0245243Y0092591D01*
X0245260Y0092660D01*
X0245281Y0092727D01*
X0245306Y0092793D01*
X0245334Y0092857D01*
X0245366Y0092920D01*
X0245401Y0092981D01*
X0245440Y0093040D01*
X0245481Y0093097D01*
X0245526Y0093151D01*
X0245574Y0093203D01*
X0245624Y0093252D01*
X0245678Y0093299D01*
X0245733Y0093342D01*
X0245791Y0093382D01*
X0245851Y0093419D01*
X0245913Y0093452D01*
X0245977Y0093482D01*
X0246042Y0093509D01*
X0246108Y0093532D01*
X0246176Y0093551D01*
X0246245Y0093566D01*
X0246314Y0093578D01*
X0246384Y0093586D01*
X0246455Y0093590D01*
X0246525Y0093590D01*
X0246596Y0093586D01*
X0246666Y0093578D01*
X0246735Y0093566D01*
X0246804Y0093551D01*
X0246872Y0093532D01*
X0246938Y0093509D01*
X0247003Y0093482D01*
X0247067Y0093452D01*
X0247129Y0093419D01*
X0247189Y0093382D01*
X0247247Y0093342D01*
X0247302Y0093299D01*
X0247356Y0093252D01*
X0247406Y0093203D01*
X0247454Y0093151D01*
X0247499Y0093097D01*
X0247540Y0093040D01*
X0247579Y0092981D01*
X0247614Y0092920D01*
X0247646Y0092857D01*
X0247674Y0092793D01*
X0247699Y0092727D01*
X0247720Y0092660D01*
X0247737Y0092591D01*
X0247751Y0092522D01*
X0247760Y0092453D01*
X0247766Y0092382D01*
X0247768Y0092312D01*
X0247768Y0091034D01*
X0243168Y0091034D01*
X0245084Y0087107D02*
X0245050Y0087053D01*
X0245013Y0087002D01*
X0244973Y0086953D01*
X0244930Y0086906D01*
X0244884Y0086863D01*
X0244836Y0086822D01*
X0244785Y0086784D01*
X0244732Y0086749D01*
X0244677Y0086717D01*
X0244620Y0086689D01*
X0244562Y0086665D01*
X0244502Y0086644D01*
X0244441Y0086627D01*
X0244379Y0086613D01*
X0244316Y0086604D01*
X0244253Y0086598D01*
X0244190Y0086596D01*
X0244128Y0086598D01*
X0244067Y0086603D01*
X0244006Y0086613D01*
X0243945Y0086626D01*
X0243886Y0086642D01*
X0243828Y0086662D01*
X0243771Y0086686D01*
X0243715Y0086713D01*
X0243661Y0086743D01*
X0243609Y0086777D01*
X0243560Y0086813D01*
X0243512Y0086853D01*
X0243467Y0086895D01*
X0243425Y0086940D01*
X0243385Y0086988D01*
X0243349Y0087037D01*
X0243315Y0087089D01*
X0243285Y0087143D01*
X0243258Y0087199D01*
X0243234Y0087256D01*
X0243214Y0087314D01*
X0243198Y0087373D01*
X0243185Y0087434D01*
X0243175Y0087495D01*
X0243170Y0087556D01*
X0243168Y0087618D01*
X0243167Y0087618D02*
X0243169Y0087700D01*
X0243174Y0087782D01*
X0243183Y0087864D01*
X0243195Y0087945D01*
X0243211Y0088026D01*
X0243230Y0088106D01*
X0243253Y0088185D01*
X0243279Y0088263D01*
X0243308Y0088340D01*
X0243341Y0088415D01*
X0243377Y0088489D01*
X0243415Y0088562D01*
X0243457Y0088633D01*
X0243502Y0088701D01*
X0243550Y0088768D01*
X0247128Y0086468D02*
X0247191Y0086532D01*
X0247250Y0086600D01*
X0247307Y0086669D01*
X0247361Y0086741D01*
X0247412Y0086815D01*
X0247460Y0086891D01*
X0247504Y0086968D01*
X0247545Y0087048D01*
X0247583Y0087129D01*
X0247618Y0087212D01*
X0247649Y0087296D01*
X0247676Y0087382D01*
X0247700Y0087468D01*
X0247721Y0087556D01*
X0247737Y0087644D01*
X0247750Y0087733D01*
X0247760Y0087822D01*
X0247765Y0087911D01*
X0247767Y0088001D01*
X0247768Y0088001D02*
X0247766Y0088063D01*
X0247761Y0088124D01*
X0247751Y0088185D01*
X0247738Y0088246D01*
X0247722Y0088305D01*
X0247702Y0088363D01*
X0247678Y0088420D01*
X0247651Y0088476D01*
X0247621Y0088530D01*
X0247587Y0088582D01*
X0247551Y0088631D01*
X0247511Y0088679D01*
X0247469Y0088724D01*
X0247424Y0088766D01*
X0247376Y0088806D01*
X0247327Y0088842D01*
X0247275Y0088876D01*
X0247221Y0088906D01*
X0247165Y0088933D01*
X0247108Y0088957D01*
X0247050Y0088977D01*
X0246991Y0088993D01*
X0246930Y0089006D01*
X0246869Y0089016D01*
X0246808Y0089021D01*
X0246746Y0089023D01*
X0245851Y0088512D02*
X0245084Y0087107D01*
X0245852Y0088512D02*
X0245886Y0088566D01*
X0245923Y0088617D01*
X0245963Y0088666D01*
X0246006Y0088713D01*
X0246052Y0088756D01*
X0246100Y0088797D01*
X0246151Y0088835D01*
X0246204Y0088870D01*
X0246259Y0088902D01*
X0246316Y0088930D01*
X0246374Y0088954D01*
X0246434Y0088975D01*
X0246495Y0088992D01*
X0246557Y0089006D01*
X0246620Y0089015D01*
X0246683Y0089021D01*
X0246746Y0089023D01*
X0252201Y0089736D02*
X0252201Y0091014D01*
X0252203Y0091069D01*
X0252209Y0091123D01*
X0252219Y0091177D01*
X0252232Y0091230D01*
X0252249Y0091282D01*
X0252270Y0091333D01*
X0252295Y0091382D01*
X0252323Y0091429D01*
X0252354Y0091474D01*
X0252388Y0091516D01*
X0252426Y0091556D01*
X0252466Y0091594D01*
X0252508Y0091628D01*
X0252553Y0091659D01*
X0252600Y0091687D01*
X0252649Y0091712D01*
X0252700Y0091733D01*
X0252752Y0091750D01*
X0252805Y0091763D01*
X0252859Y0091773D01*
X0252913Y0091779D01*
X0252968Y0091781D01*
X0255268Y0091781D01*
X0255268Y0089736D02*
X0252201Y0089736D01*
X0253223Y0087731D02*
X0254246Y0087731D01*
X0254309Y0087729D01*
X0254372Y0087723D01*
X0254434Y0087714D01*
X0254495Y0087700D01*
X0254556Y0087683D01*
X0254615Y0087662D01*
X0254673Y0087637D01*
X0254730Y0087609D01*
X0254784Y0087578D01*
X0254836Y0087543D01*
X0254887Y0087505D01*
X0254935Y0087464D01*
X0254980Y0087420D01*
X0255022Y0087374D01*
X0255062Y0087325D01*
X0255098Y0087274D01*
X0255131Y0087220D01*
X0255161Y0087165D01*
X0255187Y0087107D01*
X0255210Y0087049D01*
X0255229Y0086989D01*
X0255244Y0086928D01*
X0255256Y0086866D01*
X0255264Y0086803D01*
X0255268Y0086740D01*
X0255268Y0086678D01*
X0255264Y0086615D01*
X0255256Y0086552D01*
X0255244Y0086490D01*
X0255229Y0086429D01*
X0255210Y0086369D01*
X0255187Y0086311D01*
X0255161Y0086253D01*
X0255131Y0086198D01*
X0255098Y0086144D01*
X0255062Y0086093D01*
X0255022Y0086044D01*
X0254980Y0085998D01*
X0254935Y0085954D01*
X0254887Y0085913D01*
X0254836Y0085875D01*
X0254784Y0085840D01*
X0254730Y0085809D01*
X0254673Y0085781D01*
X0254615Y0085756D01*
X0254556Y0085735D01*
X0254495Y0085718D01*
X0254434Y0085704D01*
X0254372Y0085695D01*
X0254309Y0085689D01*
X0254246Y0085687D01*
X0254246Y0085686D02*
X0253223Y0085686D01*
X0253223Y0085687D02*
X0253160Y0085689D01*
X0253097Y0085695D01*
X0253035Y0085704D01*
X0252974Y0085718D01*
X0252913Y0085735D01*
X0252854Y0085756D01*
X0252796Y0085781D01*
X0252739Y0085809D01*
X0252685Y0085840D01*
X0252633Y0085875D01*
X0252582Y0085913D01*
X0252534Y0085954D01*
X0252489Y0085998D01*
X0252447Y0086044D01*
X0252407Y0086093D01*
X0252371Y0086144D01*
X0252338Y0086198D01*
X0252308Y0086253D01*
X0252282Y0086311D01*
X0252259Y0086369D01*
X0252240Y0086429D01*
X0252225Y0086490D01*
X0252213Y0086552D01*
X0252205Y0086615D01*
X0252201Y0086678D01*
X0252201Y0086740D01*
X0252205Y0086803D01*
X0252213Y0086866D01*
X0252225Y0086928D01*
X0252240Y0086989D01*
X0252259Y0087049D01*
X0252282Y0087107D01*
X0252308Y0087165D01*
X0252338Y0087220D01*
X0252371Y0087274D01*
X0252407Y0087325D01*
X0252447Y0087374D01*
X0252489Y0087420D01*
X0252534Y0087464D01*
X0252582Y0087505D01*
X0252633Y0087543D01*
X0252685Y0087578D01*
X0252739Y0087609D01*
X0252796Y0087637D01*
X0252854Y0087662D01*
X0252913Y0087683D01*
X0252974Y0087700D01*
X0253035Y0087714D01*
X0253097Y0087723D01*
X0253160Y0087729D01*
X0253223Y0087731D01*
X0255268Y0084012D02*
X0255268Y0082990D01*
X0255266Y0082928D01*
X0255261Y0082867D01*
X0255251Y0082806D01*
X0255238Y0082745D01*
X0255222Y0082686D01*
X0255202Y0082628D01*
X0255178Y0082571D01*
X0255151Y0082515D01*
X0255121Y0082461D01*
X0255087Y0082409D01*
X0255051Y0082360D01*
X0255011Y0082312D01*
X0254969Y0082267D01*
X0254924Y0082225D01*
X0254876Y0082185D01*
X0254827Y0082149D01*
X0254775Y0082115D01*
X0254721Y0082085D01*
X0254665Y0082058D01*
X0254608Y0082034D01*
X0254550Y0082014D01*
X0254491Y0081998D01*
X0254430Y0081985D01*
X0254369Y0081975D01*
X0254308Y0081970D01*
X0254246Y0081968D01*
X0251690Y0081968D01*
X0251628Y0081970D01*
X0251567Y0081975D01*
X0251506Y0081985D01*
X0251445Y0081998D01*
X0251386Y0082014D01*
X0251328Y0082034D01*
X0251271Y0082058D01*
X0251215Y0082085D01*
X0251161Y0082115D01*
X0251109Y0082149D01*
X0251060Y0082185D01*
X0251012Y0082225D01*
X0250967Y0082267D01*
X0250925Y0082312D01*
X0250886Y0082360D01*
X0250849Y0082409D01*
X0250815Y0082461D01*
X0250785Y0082515D01*
X0250758Y0082571D01*
X0250734Y0082628D01*
X0250714Y0082686D01*
X0250698Y0082745D01*
X0250685Y0082806D01*
X0250675Y0082867D01*
X0250670Y0082928D01*
X0250668Y0082990D01*
X0250668Y0084012D01*
X0246490Y0084523D02*
X0243168Y0084523D01*
X0243168Y0081968D02*
X0246490Y0081968D01*
X0246490Y0081967D02*
X0246560Y0081969D01*
X0246631Y0081975D01*
X0246700Y0081984D01*
X0246769Y0081998D01*
X0246838Y0082015D01*
X0246905Y0082036D01*
X0246971Y0082061D01*
X0247035Y0082089D01*
X0247098Y0082121D01*
X0247159Y0082156D01*
X0247218Y0082195D01*
X0247275Y0082236D01*
X0247329Y0082281D01*
X0247381Y0082329D01*
X0247430Y0082379D01*
X0247477Y0082433D01*
X0247520Y0082488D01*
X0247560Y0082546D01*
X0247597Y0082606D01*
X0247630Y0082668D01*
X0247660Y0082732D01*
X0247687Y0082797D01*
X0247710Y0082863D01*
X0247729Y0082931D01*
X0247744Y0083000D01*
X0247756Y0083069D01*
X0247764Y0083139D01*
X0247768Y0083210D01*
X0247768Y0083280D01*
X0247764Y0083351D01*
X0247756Y0083421D01*
X0247744Y0083490D01*
X0247729Y0083559D01*
X0247710Y0083627D01*
X0247687Y0083693D01*
X0247660Y0083758D01*
X0247630Y0083822D01*
X0247597Y0083884D01*
X0247560Y0083944D01*
X0247520Y0084002D01*
X0247477Y0084057D01*
X0247430Y0084111D01*
X0247381Y0084161D01*
X0247329Y0084209D01*
X0247275Y0084254D01*
X0247218Y0084295D01*
X0247159Y0084334D01*
X0247098Y0084369D01*
X0247035Y0084401D01*
X0246971Y0084429D01*
X0246905Y0084454D01*
X0246838Y0084475D01*
X0246769Y0084492D01*
X0246700Y0084506D01*
X0246631Y0084515D01*
X0246560Y0084521D01*
X0246490Y0084523D01*
X0252201Y0093406D02*
X0252201Y0094939D01*
X0250668Y0093917D02*
X0254501Y0093917D01*
X0254501Y0093916D02*
X0254556Y0093918D01*
X0254610Y0093924D01*
X0254664Y0093934D01*
X0254717Y0093947D01*
X0254769Y0093964D01*
X0254820Y0093985D01*
X0254869Y0094010D01*
X0254916Y0094038D01*
X0254961Y0094069D01*
X0255003Y0094103D01*
X0255043Y0094141D01*
X0255081Y0094181D01*
X0255115Y0094223D01*
X0255146Y0094268D01*
X0255174Y0094315D01*
X0255199Y0094364D01*
X0255220Y0094415D01*
X0255237Y0094467D01*
X0255250Y0094520D01*
X0255260Y0094574D01*
X0255266Y0094628D01*
X0255268Y0094683D01*
X0255268Y0094939D01*
X0255268Y0096812D02*
X0252201Y0096812D01*
X0252201Y0098346D01*
X0252712Y0098346D01*
X0253223Y0099786D02*
X0254246Y0099786D01*
X0254246Y0099787D02*
X0254309Y0099789D01*
X0254372Y0099795D01*
X0254434Y0099804D01*
X0254495Y0099818D01*
X0254556Y0099835D01*
X0254615Y0099856D01*
X0254673Y0099881D01*
X0254730Y0099909D01*
X0254784Y0099940D01*
X0254836Y0099975D01*
X0254887Y0100013D01*
X0254935Y0100054D01*
X0254980Y0100098D01*
X0255022Y0100144D01*
X0255062Y0100193D01*
X0255098Y0100244D01*
X0255131Y0100298D01*
X0255161Y0100353D01*
X0255187Y0100411D01*
X0255210Y0100469D01*
X0255229Y0100529D01*
X0255244Y0100590D01*
X0255256Y0100652D01*
X0255264Y0100715D01*
X0255268Y0100778D01*
X0255268Y0100840D01*
X0255264Y0100903D01*
X0255256Y0100966D01*
X0255244Y0101028D01*
X0255229Y0101089D01*
X0255210Y0101149D01*
X0255187Y0101207D01*
X0255161Y0101265D01*
X0255131Y0101320D01*
X0255098Y0101374D01*
X0255062Y0101425D01*
X0255022Y0101474D01*
X0254980Y0101520D01*
X0254935Y0101564D01*
X0254887Y0101605D01*
X0254836Y0101643D01*
X0254784Y0101678D01*
X0254730Y0101709D01*
X0254673Y0101737D01*
X0254615Y0101762D01*
X0254556Y0101783D01*
X0254495Y0101800D01*
X0254434Y0101814D01*
X0254372Y0101823D01*
X0254309Y0101829D01*
X0254246Y0101831D01*
X0253223Y0101831D01*
X0253160Y0101829D01*
X0253097Y0101823D01*
X0253035Y0101814D01*
X0252974Y0101800D01*
X0252913Y0101783D01*
X0252854Y0101762D01*
X0252796Y0101737D01*
X0252739Y0101709D01*
X0252685Y0101678D01*
X0252633Y0101643D01*
X0252582Y0101605D01*
X0252534Y0101564D01*
X0252489Y0101520D01*
X0252447Y0101474D01*
X0252407Y0101425D01*
X0252371Y0101374D01*
X0252338Y0101320D01*
X0252308Y0101265D01*
X0252282Y0101207D01*
X0252259Y0101149D01*
X0252240Y0101089D01*
X0252225Y0101028D01*
X0252213Y0100966D01*
X0252205Y0100903D01*
X0252201Y0100840D01*
X0252201Y0100778D01*
X0252205Y0100715D01*
X0252213Y0100652D01*
X0252225Y0100590D01*
X0252240Y0100529D01*
X0252259Y0100469D01*
X0252282Y0100411D01*
X0252308Y0100353D01*
X0252338Y0100298D01*
X0252371Y0100244D01*
X0252407Y0100193D01*
X0252447Y0100144D01*
X0252489Y0100098D01*
X0252534Y0100054D01*
X0252582Y0100013D01*
X0252633Y0099975D01*
X0252685Y0099940D01*
X0252739Y0099909D01*
X0252796Y0099881D01*
X0252854Y0099856D01*
X0252913Y0099835D01*
X0252974Y0099818D01*
X0253035Y0099804D01*
X0253097Y0099795D01*
X0253160Y0099789D01*
X0253223Y0099787D01*
X0254501Y0103745D02*
X0250668Y0103745D01*
X0250668Y0106145D02*
X0254501Y0106145D01*
X0254556Y0106147D01*
X0254610Y0106153D01*
X0254664Y0106163D01*
X0254717Y0106176D01*
X0254769Y0106193D01*
X0254820Y0106214D01*
X0254869Y0106239D01*
X0254916Y0106267D01*
X0254961Y0106298D01*
X0255003Y0106332D01*
X0255043Y0106370D01*
X0255081Y0106410D01*
X0255115Y0106452D01*
X0255146Y0106497D01*
X0255174Y0106544D01*
X0255199Y0106593D01*
X0255220Y0106644D01*
X0255237Y0106696D01*
X0255250Y0106749D01*
X0255260Y0106803D01*
X0255266Y0106857D01*
X0255268Y0106912D01*
X0254501Y0108486D02*
X0253223Y0108486D01*
X0253734Y0108486D02*
X0253734Y0110531D01*
X0253223Y0110531D01*
X0253160Y0110529D01*
X0253097Y0110523D01*
X0253035Y0110514D01*
X0252974Y0110500D01*
X0252913Y0110483D01*
X0252854Y0110462D01*
X0252796Y0110437D01*
X0252739Y0110409D01*
X0252685Y0110378D01*
X0252633Y0110343D01*
X0252582Y0110305D01*
X0252534Y0110264D01*
X0252489Y0110220D01*
X0252447Y0110174D01*
X0252407Y0110125D01*
X0252371Y0110074D01*
X0252338Y0110020D01*
X0252308Y0109965D01*
X0252282Y0109907D01*
X0252259Y0109849D01*
X0252240Y0109789D01*
X0252225Y0109728D01*
X0252213Y0109666D01*
X0252205Y0109603D01*
X0252201Y0109540D01*
X0252201Y0109478D01*
X0252205Y0109415D01*
X0252213Y0109352D01*
X0252225Y0109290D01*
X0252240Y0109229D01*
X0252259Y0109169D01*
X0252282Y0109111D01*
X0252308Y0109053D01*
X0252338Y0108998D01*
X0252371Y0108944D01*
X0252407Y0108893D01*
X0252447Y0108844D01*
X0252489Y0108798D01*
X0252534Y0108754D01*
X0252582Y0108713D01*
X0252633Y0108675D01*
X0252685Y0108640D01*
X0252739Y0108609D01*
X0252796Y0108581D01*
X0252854Y0108556D01*
X0252913Y0108535D01*
X0252974Y0108518D01*
X0253035Y0108504D01*
X0253097Y0108495D01*
X0253160Y0108489D01*
X0253223Y0108487D01*
X0254501Y0108486D02*
X0254556Y0108488D01*
X0254610Y0108494D01*
X0254664Y0108504D01*
X0254717Y0108517D01*
X0254769Y0108534D01*
X0254820Y0108555D01*
X0254869Y0108580D01*
X0254916Y0108608D01*
X0254961Y0108639D01*
X0255003Y0108673D01*
X0255043Y0108711D01*
X0255081Y0108751D01*
X0255115Y0108793D01*
X0255146Y0108838D01*
X0255174Y0108885D01*
X0255199Y0108934D01*
X0255220Y0108985D01*
X0255237Y0109037D01*
X0255250Y0109090D01*
X0255260Y0109144D01*
X0255266Y0109198D01*
X0255268Y0109253D01*
X0255268Y0110531D01*
X0255268Y0112562D02*
X0252201Y0112562D01*
X0252201Y0114096D01*
X0252712Y0114096D01*
X0249301Y0116956D02*
X0249301Y0117978D01*
X0249299Y0118033D01*
X0249293Y0118087D01*
X0249283Y0118141D01*
X0249270Y0118194D01*
X0249253Y0118246D01*
X0249232Y0118297D01*
X0249207Y0118346D01*
X0249179Y0118393D01*
X0249148Y0118438D01*
X0249114Y0118480D01*
X0249076Y0118520D01*
X0249036Y0118558D01*
X0248994Y0118592D01*
X0248949Y0118623D01*
X0248902Y0118651D01*
X0248853Y0118676D01*
X0248802Y0118697D01*
X0248750Y0118714D01*
X0248697Y0118727D01*
X0248643Y0118737D01*
X0248589Y0118743D01*
X0248534Y0118745D01*
X0248534Y0118744D02*
X0244701Y0118744D01*
X0244701Y0117467D01*
X0244703Y0117412D01*
X0244709Y0117358D01*
X0244719Y0117304D01*
X0244732Y0117251D01*
X0244749Y0117199D01*
X0244770Y0117148D01*
X0244795Y0117099D01*
X0244823Y0117052D01*
X0244854Y0117007D01*
X0244888Y0116965D01*
X0244926Y0116925D01*
X0244966Y0116887D01*
X0245008Y0116853D01*
X0245053Y0116822D01*
X0245100Y0116794D01*
X0245149Y0116769D01*
X0245200Y0116748D01*
X0245252Y0116731D01*
X0245305Y0116718D01*
X0245359Y0116708D01*
X0245413Y0116702D01*
X0245468Y0116700D01*
X0247001Y0116700D01*
X0247056Y0116702D01*
X0247110Y0116708D01*
X0247164Y0116718D01*
X0247217Y0116731D01*
X0247269Y0116748D01*
X0247320Y0116769D01*
X0247369Y0116794D01*
X0247416Y0116822D01*
X0247461Y0116853D01*
X0247503Y0116887D01*
X0247543Y0116925D01*
X0247581Y0116965D01*
X0247615Y0117007D01*
X0247646Y0117052D01*
X0247674Y0117099D01*
X0247699Y0117148D01*
X0247720Y0117199D01*
X0247737Y0117251D01*
X0247750Y0117304D01*
X0247760Y0117358D01*
X0247766Y0117412D01*
X0247768Y0117467D01*
X0247768Y0118744D01*
X0246746Y0114868D02*
X0245723Y0114868D01*
X0245723Y0114867D02*
X0245660Y0114865D01*
X0245597Y0114859D01*
X0245535Y0114850D01*
X0245474Y0114836D01*
X0245413Y0114819D01*
X0245354Y0114798D01*
X0245296Y0114773D01*
X0245239Y0114745D01*
X0245185Y0114714D01*
X0245133Y0114679D01*
X0245082Y0114641D01*
X0245034Y0114600D01*
X0244989Y0114556D01*
X0244947Y0114510D01*
X0244907Y0114461D01*
X0244871Y0114410D01*
X0244838Y0114356D01*
X0244808Y0114301D01*
X0244782Y0114243D01*
X0244759Y0114185D01*
X0244740Y0114125D01*
X0244725Y0114064D01*
X0244713Y0114002D01*
X0244705Y0113939D01*
X0244701Y0113876D01*
X0244701Y0113814D01*
X0244705Y0113751D01*
X0244713Y0113688D01*
X0244725Y0113626D01*
X0244740Y0113565D01*
X0244759Y0113505D01*
X0244782Y0113447D01*
X0244808Y0113389D01*
X0244838Y0113334D01*
X0244871Y0113280D01*
X0244907Y0113229D01*
X0244947Y0113180D01*
X0244989Y0113134D01*
X0245034Y0113090D01*
X0245082Y0113049D01*
X0245133Y0113011D01*
X0245185Y0112976D01*
X0245239Y0112945D01*
X0245296Y0112917D01*
X0245354Y0112892D01*
X0245413Y0112871D01*
X0245474Y0112854D01*
X0245535Y0112840D01*
X0245597Y0112831D01*
X0245660Y0112825D01*
X0245723Y0112823D01*
X0246746Y0112823D01*
X0246809Y0112825D01*
X0246872Y0112831D01*
X0246934Y0112840D01*
X0246995Y0112854D01*
X0247056Y0112871D01*
X0247115Y0112892D01*
X0247173Y0112917D01*
X0247230Y0112945D01*
X0247284Y0112976D01*
X0247336Y0113011D01*
X0247387Y0113049D01*
X0247435Y0113090D01*
X0247480Y0113134D01*
X0247522Y0113180D01*
X0247562Y0113229D01*
X0247598Y0113280D01*
X0247631Y0113334D01*
X0247661Y0113389D01*
X0247687Y0113447D01*
X0247710Y0113505D01*
X0247729Y0113565D01*
X0247744Y0113626D01*
X0247756Y0113688D01*
X0247764Y0113751D01*
X0247768Y0113814D01*
X0247768Y0113876D01*
X0247764Y0113939D01*
X0247756Y0114002D01*
X0247744Y0114064D01*
X0247729Y0114125D01*
X0247710Y0114185D01*
X0247687Y0114243D01*
X0247661Y0114301D01*
X0247631Y0114356D01*
X0247598Y0114410D01*
X0247562Y0114461D01*
X0247522Y0114510D01*
X0247480Y0114556D01*
X0247435Y0114600D01*
X0247387Y0114641D01*
X0247336Y0114679D01*
X0247284Y0114714D01*
X0247230Y0114745D01*
X0247173Y0114773D01*
X0247115Y0114798D01*
X0247056Y0114819D01*
X0246995Y0114836D01*
X0246934Y0114850D01*
X0246872Y0114859D01*
X0246809Y0114865D01*
X0246746Y0114867D01*
X0247768Y0111249D02*
X0247766Y0111194D01*
X0247760Y0111140D01*
X0247750Y0111086D01*
X0247737Y0111033D01*
X0247720Y0110981D01*
X0247699Y0110930D01*
X0247674Y0110881D01*
X0247646Y0110834D01*
X0247615Y0110789D01*
X0247581Y0110747D01*
X0247543Y0110707D01*
X0247503Y0110669D01*
X0247461Y0110635D01*
X0247416Y0110604D01*
X0247369Y0110576D01*
X0247320Y0110551D01*
X0247269Y0110530D01*
X0247217Y0110513D01*
X0247164Y0110500D01*
X0247110Y0110490D01*
X0247056Y0110484D01*
X0247001Y0110482D01*
X0243168Y0110482D01*
X0245468Y0108394D02*
X0247768Y0108394D01*
X0247768Y0107244D01*
X0247767Y0107244D02*
X0247765Y0107186D01*
X0247759Y0107127D01*
X0247750Y0107070D01*
X0247737Y0107013D01*
X0247720Y0106957D01*
X0247699Y0106902D01*
X0247675Y0106849D01*
X0247647Y0106797D01*
X0247616Y0106747D01*
X0247582Y0106700D01*
X0247545Y0106655D01*
X0247505Y0106612D01*
X0247462Y0106572D01*
X0247417Y0106535D01*
X0247370Y0106501D01*
X0247320Y0106470D01*
X0247268Y0106442D01*
X0247215Y0106418D01*
X0247160Y0106397D01*
X0247104Y0106380D01*
X0247047Y0106367D01*
X0246990Y0106358D01*
X0246931Y0106352D01*
X0246873Y0106350D01*
X0246815Y0106352D01*
X0246756Y0106358D01*
X0246699Y0106367D01*
X0246642Y0106380D01*
X0246586Y0106397D01*
X0246531Y0106418D01*
X0246478Y0106442D01*
X0246426Y0106470D01*
X0246376Y0106501D01*
X0246329Y0106535D01*
X0246284Y0106572D01*
X0246241Y0106612D01*
X0246201Y0106655D01*
X0246164Y0106700D01*
X0246130Y0106747D01*
X0246099Y0106797D01*
X0246071Y0106849D01*
X0246047Y0106902D01*
X0246026Y0106957D01*
X0246009Y0107013D01*
X0245996Y0107070D01*
X0245987Y0107127D01*
X0245981Y0107186D01*
X0245979Y0107244D01*
X0245979Y0108394D01*
X0245468Y0108395D02*
X0245413Y0108393D01*
X0245359Y0108387D01*
X0245305Y0108377D01*
X0245252Y0108364D01*
X0245200Y0108347D01*
X0245149Y0108326D01*
X0245100Y0108301D01*
X0245053Y0108273D01*
X0245008Y0108242D01*
X0244966Y0108208D01*
X0244926Y0108170D01*
X0244888Y0108130D01*
X0244854Y0108088D01*
X0244823Y0108043D01*
X0244795Y0107996D01*
X0244770Y0107947D01*
X0244749Y0107896D01*
X0244732Y0107844D01*
X0244719Y0107791D01*
X0244709Y0107737D01*
X0244703Y0107683D01*
X0244701Y0107628D01*
X0244701Y0106606D01*
X0245468Y0104368D02*
X0247768Y0104368D01*
X0247768Y0102323D02*
X0244701Y0102323D01*
X0244701Y0103601D01*
X0244703Y0103656D01*
X0244709Y0103710D01*
X0244719Y0103764D01*
X0244732Y0103817D01*
X0244749Y0103869D01*
X0244770Y0103920D01*
X0244795Y0103969D01*
X0244823Y0104016D01*
X0244854Y0104061D01*
X0244888Y0104103D01*
X0244926Y0104143D01*
X0244966Y0104181D01*
X0245008Y0104215D01*
X0245053Y0104246D01*
X0245100Y0104274D01*
X0245149Y0104299D01*
X0245200Y0104320D01*
X0245252Y0104337D01*
X0245305Y0104350D01*
X0245359Y0104360D01*
X0245413Y0104366D01*
X0245468Y0104368D01*
X0247768Y0100529D02*
X0243168Y0098995D01*
X0247768Y0097462D01*
X0246618Y0097845D02*
X0246618Y0100145D01*
X0254501Y0103745D02*
X0254556Y0103747D01*
X0254610Y0103753D01*
X0254664Y0103763D01*
X0254717Y0103776D01*
X0254769Y0103793D01*
X0254820Y0103814D01*
X0254869Y0103839D01*
X0254916Y0103867D01*
X0254961Y0103898D01*
X0255003Y0103932D01*
X0255043Y0103970D01*
X0255081Y0104010D01*
X0255115Y0104052D01*
X0255146Y0104097D01*
X0255174Y0104144D01*
X0255199Y0104193D01*
X0255220Y0104244D01*
X0255237Y0104296D01*
X0255250Y0104349D01*
X0255260Y0104403D01*
X0255266Y0104457D01*
X0255268Y0104512D01*
X0237551Y0108580D02*
X0237551Y0110114D01*
X0234996Y0110114D01*
X0234996Y0109347D01*
X0233973Y0107559D02*
X0233911Y0107561D01*
X0233850Y0107566D01*
X0233789Y0107576D01*
X0233728Y0107589D01*
X0233669Y0107605D01*
X0233611Y0107625D01*
X0233554Y0107649D01*
X0233498Y0107676D01*
X0233444Y0107706D01*
X0233392Y0107740D01*
X0233343Y0107776D01*
X0233295Y0107816D01*
X0233250Y0107858D01*
X0233208Y0107903D01*
X0233169Y0107951D01*
X0233132Y0108000D01*
X0233098Y0108052D01*
X0233068Y0108106D01*
X0233041Y0108162D01*
X0233017Y0108219D01*
X0232997Y0108277D01*
X0232981Y0108336D01*
X0232968Y0108397D01*
X0232958Y0108458D01*
X0232953Y0108519D01*
X0232951Y0108581D01*
X0232951Y0108580D02*
X0232951Y0110114D01*
X0232951Y0112358D02*
X0237551Y0114914D01*
X0232951Y0114914D01*
X0232951Y0117158D02*
X0232951Y0118436D01*
X0232951Y0117158D02*
X0237551Y0117158D01*
X0237551Y0118436D01*
X0237549Y0118505D01*
X0237544Y0118574D01*
X0237534Y0118643D01*
X0237521Y0118711D01*
X0237504Y0118778D01*
X0237484Y0118844D01*
X0237460Y0118909D01*
X0237433Y0118973D01*
X0237402Y0119035D01*
X0237368Y0119095D01*
X0237331Y0119153D01*
X0237290Y0119209D01*
X0237247Y0119263D01*
X0237201Y0119315D01*
X0237152Y0119364D01*
X0237100Y0119410D01*
X0237046Y0119453D01*
X0236990Y0119494D01*
X0236932Y0119531D01*
X0236872Y0119565D01*
X0236810Y0119596D01*
X0236746Y0119623D01*
X0236681Y0119647D01*
X0236615Y0119667D01*
X0236548Y0119684D01*
X0236480Y0119697D01*
X0236411Y0119707D01*
X0236342Y0119712D01*
X0236273Y0119714D01*
X0234229Y0119714D01*
X0234160Y0119712D01*
X0234091Y0119707D01*
X0234022Y0119697D01*
X0233954Y0119684D01*
X0233887Y0119667D01*
X0233821Y0119647D01*
X0233756Y0119623D01*
X0233692Y0119596D01*
X0233630Y0119565D01*
X0233570Y0119531D01*
X0233512Y0119494D01*
X0233456Y0119453D01*
X0233402Y0119410D01*
X0233350Y0119364D01*
X0233301Y0119315D01*
X0233255Y0119263D01*
X0233212Y0119209D01*
X0233171Y0119153D01*
X0233134Y0119095D01*
X0233100Y0119035D01*
X0233069Y0118973D01*
X0233042Y0118909D01*
X0233018Y0118844D01*
X0232998Y0118778D01*
X0232981Y0118711D01*
X0232968Y0118643D01*
X0232958Y0118574D01*
X0232953Y0118505D01*
X0232951Y0118436D01*
X0232951Y0112358D02*
X0237551Y0112358D01*
X0237551Y0108580D02*
X0237549Y0108518D01*
X0237544Y0108457D01*
X0237534Y0108396D01*
X0237521Y0108335D01*
X0237505Y0108276D01*
X0237485Y0108218D01*
X0237461Y0108161D01*
X0237434Y0108105D01*
X0237404Y0108051D01*
X0237370Y0107999D01*
X0237334Y0107950D01*
X0237294Y0107902D01*
X0237252Y0107857D01*
X0237207Y0107815D01*
X0237159Y0107775D01*
X0237110Y0107739D01*
X0237058Y0107705D01*
X0237004Y0107675D01*
X0236948Y0107648D01*
X0236891Y0107624D01*
X0236833Y0107604D01*
X0236774Y0107588D01*
X0236713Y0107575D01*
X0236652Y0107565D01*
X0236591Y0107560D01*
X0236529Y0107558D01*
X0233973Y0107558D01*
D12*
X0252543Y0139092D02*
X0252605Y0139090D01*
X0252667Y0139084D01*
X0252728Y0139075D01*
X0252788Y0139061D01*
X0252848Y0139044D01*
X0252906Y0139023D01*
X0252963Y0138999D01*
X0253018Y0138971D01*
X0253072Y0138940D01*
X0253123Y0138905D01*
X0253172Y0138868D01*
X0253219Y0138827D01*
X0253263Y0138784D01*
X0253262Y0138783D02*
X0255318Y0137036D01*
X0255318Y0139091D01*
X0254804Y0142383D02*
X0254708Y0142428D01*
X0254610Y0142469D01*
X0254510Y0142507D01*
X0254410Y0142542D01*
X0254308Y0142573D01*
X0254205Y0142601D01*
X0254102Y0142624D01*
X0253997Y0142645D01*
X0253892Y0142661D01*
X0253787Y0142674D01*
X0253681Y0142684D01*
X0253574Y0142689D01*
X0253468Y0142691D01*
X0253468Y0140636D02*
X0253362Y0140638D01*
X0253255Y0140643D01*
X0253149Y0140653D01*
X0253044Y0140666D01*
X0252939Y0140682D01*
X0252834Y0140703D01*
X0252731Y0140726D01*
X0252628Y0140754D01*
X0252526Y0140785D01*
X0252426Y0140820D01*
X0252326Y0140858D01*
X0252228Y0140899D01*
X0252132Y0140944D01*
X0251617Y0141664D02*
X0251619Y0141716D01*
X0251624Y0141769D01*
X0251633Y0141820D01*
X0251646Y0141871D01*
X0251662Y0141921D01*
X0251681Y0141970D01*
X0251704Y0142017D01*
X0251730Y0142063D01*
X0251759Y0142106D01*
X0251791Y0142148D01*
X0251825Y0142187D01*
X0251863Y0142224D01*
X0251903Y0142258D01*
X0251945Y0142290D01*
X0251989Y0142318D01*
X0252035Y0142343D01*
X0252082Y0142365D01*
X0252131Y0142384D01*
X0252440Y0142486D02*
X0254496Y0140841D01*
X0255318Y0141664D02*
X0255316Y0141716D01*
X0255311Y0141769D01*
X0255302Y0141820D01*
X0255289Y0141871D01*
X0255273Y0141921D01*
X0255254Y0141970D01*
X0255231Y0142017D01*
X0255205Y0142063D01*
X0255176Y0142106D01*
X0255144Y0142148D01*
X0255110Y0142187D01*
X0255072Y0142224D01*
X0255032Y0142258D01*
X0254990Y0142290D01*
X0254946Y0142318D01*
X0254900Y0142343D01*
X0254853Y0142365D01*
X0254804Y0142384D01*
X0255318Y0141664D02*
X0255316Y0141612D01*
X0255311Y0141559D01*
X0255302Y0141508D01*
X0255289Y0141457D01*
X0255273Y0141407D01*
X0255254Y0141358D01*
X0255231Y0141311D01*
X0255205Y0141265D01*
X0255176Y0141222D01*
X0255144Y0141180D01*
X0255110Y0141141D01*
X0255072Y0141104D01*
X0255032Y0141070D01*
X0254990Y0141038D01*
X0254946Y0141010D01*
X0254900Y0140985D01*
X0254853Y0140963D01*
X0254804Y0140944D01*
X0253468Y0142691D02*
X0253362Y0142689D01*
X0253255Y0142684D01*
X0253149Y0142674D01*
X0253044Y0142661D01*
X0252939Y0142645D01*
X0252834Y0142624D01*
X0252731Y0142601D01*
X0252628Y0142573D01*
X0252526Y0142542D01*
X0252426Y0142507D01*
X0252326Y0142469D01*
X0252228Y0142428D01*
X0252132Y0142383D01*
X0251617Y0141664D02*
X0251619Y0141612D01*
X0251624Y0141559D01*
X0251633Y0141508D01*
X0251646Y0141457D01*
X0251662Y0141407D01*
X0251681Y0141358D01*
X0251704Y0141311D01*
X0251730Y0141265D01*
X0251759Y0141222D01*
X0251791Y0141180D01*
X0251825Y0141141D01*
X0251863Y0141104D01*
X0251903Y0141070D01*
X0251945Y0141038D01*
X0251989Y0141010D01*
X0252035Y0140985D01*
X0252082Y0140963D01*
X0252131Y0140944D01*
X0253468Y0140636D02*
X0253574Y0140638D01*
X0253681Y0140643D01*
X0253787Y0140653D01*
X0253892Y0140666D01*
X0253997Y0140682D01*
X0254102Y0140703D01*
X0254205Y0140726D01*
X0254308Y0140754D01*
X0254410Y0140785D01*
X0254510Y0140820D01*
X0254610Y0140858D01*
X0254708Y0140899D01*
X0254804Y0140944D01*
X0255318Y0144236D02*
X0255318Y0146291D01*
X0255318Y0147836D02*
X0255318Y0148864D01*
X0255316Y0148927D01*
X0255310Y0148990D01*
X0255300Y0149053D01*
X0255287Y0149115D01*
X0255270Y0149176D01*
X0255249Y0149235D01*
X0255224Y0149294D01*
X0255196Y0149350D01*
X0255164Y0149405D01*
X0255129Y0149458D01*
X0255091Y0149508D01*
X0255050Y0149557D01*
X0255006Y0149602D01*
X0254959Y0149645D01*
X0254910Y0149684D01*
X0254858Y0149721D01*
X0254804Y0149754D01*
X0254748Y0149784D01*
X0254691Y0149811D01*
X0254632Y0149834D01*
X0254571Y0149853D01*
X0254510Y0149868D01*
X0254448Y0149880D01*
X0254385Y0149888D01*
X0254322Y0149892D01*
X0254258Y0149892D01*
X0254195Y0149888D01*
X0254132Y0149880D01*
X0254070Y0149868D01*
X0254009Y0149853D01*
X0253948Y0149834D01*
X0253889Y0149811D01*
X0253832Y0149784D01*
X0253776Y0149754D01*
X0253722Y0149721D01*
X0253670Y0149684D01*
X0253621Y0149645D01*
X0253574Y0149602D01*
X0253530Y0149557D01*
X0253489Y0149508D01*
X0253451Y0149458D01*
X0253416Y0149405D01*
X0253384Y0149350D01*
X0253356Y0149294D01*
X0253331Y0149235D01*
X0253310Y0149176D01*
X0253293Y0149115D01*
X0253280Y0149053D01*
X0253270Y0148990D01*
X0253264Y0148927D01*
X0253262Y0148864D01*
X0253262Y0149069D02*
X0253262Y0148247D01*
X0253262Y0149069D02*
X0253260Y0149125D01*
X0253254Y0149181D01*
X0253245Y0149236D01*
X0253232Y0149291D01*
X0253215Y0149344D01*
X0253194Y0149396D01*
X0253170Y0149447D01*
X0253142Y0149496D01*
X0253112Y0149543D01*
X0253078Y0149588D01*
X0253041Y0149630D01*
X0253001Y0149670D01*
X0252959Y0149707D01*
X0252914Y0149741D01*
X0252867Y0149771D01*
X0252818Y0149799D01*
X0252767Y0149823D01*
X0252715Y0149844D01*
X0252662Y0149861D01*
X0252607Y0149874D01*
X0252552Y0149883D01*
X0252496Y0149889D01*
X0252440Y0149891D01*
X0252384Y0149889D01*
X0252328Y0149883D01*
X0252273Y0149874D01*
X0252218Y0149861D01*
X0252165Y0149844D01*
X0252113Y0149823D01*
X0252062Y0149799D01*
X0252013Y0149771D01*
X0251966Y0149741D01*
X0251921Y0149707D01*
X0251879Y0149670D01*
X0251839Y0149630D01*
X0251802Y0149588D01*
X0251768Y0149543D01*
X0251738Y0149496D01*
X0251710Y0149447D01*
X0251686Y0149396D01*
X0251665Y0149344D01*
X0251648Y0149291D01*
X0251635Y0149236D01*
X0251626Y0149181D01*
X0251620Y0149125D01*
X0251618Y0149069D01*
X0251618Y0147836D01*
X0253262Y0145983D02*
X0255318Y0144236D01*
X0252440Y0144236D02*
X0252376Y0144259D01*
X0252313Y0144285D01*
X0252252Y0144315D01*
X0252193Y0144348D01*
X0252136Y0144385D01*
X0252081Y0144425D01*
X0252029Y0144468D01*
X0251979Y0144514D01*
X0251931Y0144562D01*
X0251887Y0144613D01*
X0251845Y0144667D01*
X0251807Y0144723D01*
X0251772Y0144781D01*
X0251740Y0144841D01*
X0251712Y0144903D01*
X0251687Y0144966D01*
X0251666Y0145031D01*
X0251649Y0145097D01*
X0251635Y0145163D01*
X0251626Y0145230D01*
X0251620Y0145298D01*
X0251618Y0145366D01*
X0251620Y0145424D01*
X0251625Y0145482D01*
X0251634Y0145539D01*
X0251647Y0145596D01*
X0251663Y0145652D01*
X0251683Y0145707D01*
X0251706Y0145760D01*
X0251732Y0145812D01*
X0251762Y0145862D01*
X0251795Y0145910D01*
X0251830Y0145956D01*
X0251869Y0145999D01*
X0251910Y0146040D01*
X0251953Y0146079D01*
X0251999Y0146114D01*
X0252047Y0146147D01*
X0252097Y0146177D01*
X0252149Y0146203D01*
X0252202Y0146226D01*
X0252257Y0146246D01*
X0252313Y0146262D01*
X0252370Y0146275D01*
X0252427Y0146284D01*
X0252485Y0146289D01*
X0252543Y0146291D01*
X0252543Y0146292D02*
X0252605Y0146290D01*
X0252667Y0146284D01*
X0252728Y0146275D01*
X0252788Y0146261D01*
X0252848Y0146244D01*
X0252906Y0146223D01*
X0252963Y0146199D01*
X0253018Y0146171D01*
X0253072Y0146140D01*
X0253123Y0146105D01*
X0253172Y0146068D01*
X0253219Y0146027D01*
X0253263Y0145984D01*
X0253879Y0151470D02*
X0253879Y0153937D01*
X0254804Y0157263D02*
X0254708Y0157308D01*
X0254610Y0157349D01*
X0254510Y0157387D01*
X0254410Y0157422D01*
X0254308Y0157453D01*
X0254205Y0157481D01*
X0254102Y0157504D01*
X0253997Y0157525D01*
X0253892Y0157541D01*
X0253787Y0157554D01*
X0253681Y0157564D01*
X0253574Y0157569D01*
X0253468Y0157571D01*
X0253468Y0155516D02*
X0253362Y0155518D01*
X0253255Y0155523D01*
X0253149Y0155533D01*
X0253044Y0155546D01*
X0252939Y0155562D01*
X0252834Y0155583D01*
X0252731Y0155606D01*
X0252628Y0155634D01*
X0252526Y0155665D01*
X0252426Y0155700D01*
X0252326Y0155738D01*
X0252228Y0155779D01*
X0252132Y0155824D01*
X0251617Y0156544D02*
X0251619Y0156596D01*
X0251624Y0156649D01*
X0251633Y0156700D01*
X0251646Y0156751D01*
X0251662Y0156801D01*
X0251681Y0156850D01*
X0251704Y0156897D01*
X0251730Y0156943D01*
X0251759Y0156986D01*
X0251791Y0157028D01*
X0251825Y0157067D01*
X0251863Y0157104D01*
X0251903Y0157138D01*
X0251945Y0157170D01*
X0251989Y0157198D01*
X0252035Y0157223D01*
X0252082Y0157245D01*
X0252131Y0157264D01*
X0252440Y0157366D02*
X0254496Y0155721D01*
X0255318Y0156544D02*
X0255316Y0156596D01*
X0255311Y0156649D01*
X0255302Y0156700D01*
X0255289Y0156751D01*
X0255273Y0156801D01*
X0255254Y0156850D01*
X0255231Y0156897D01*
X0255205Y0156943D01*
X0255176Y0156986D01*
X0255144Y0157028D01*
X0255110Y0157067D01*
X0255072Y0157104D01*
X0255032Y0157138D01*
X0254990Y0157170D01*
X0254946Y0157198D01*
X0254900Y0157223D01*
X0254853Y0157245D01*
X0254804Y0157264D01*
X0255318Y0156544D02*
X0255316Y0156492D01*
X0255311Y0156439D01*
X0255302Y0156388D01*
X0255289Y0156337D01*
X0255273Y0156287D01*
X0255254Y0156238D01*
X0255231Y0156191D01*
X0255205Y0156145D01*
X0255176Y0156102D01*
X0255144Y0156060D01*
X0255110Y0156021D01*
X0255072Y0155984D01*
X0255032Y0155950D01*
X0254990Y0155918D01*
X0254946Y0155890D01*
X0254900Y0155865D01*
X0254853Y0155843D01*
X0254804Y0155824D01*
X0253468Y0157571D02*
X0253362Y0157569D01*
X0253255Y0157564D01*
X0253149Y0157554D01*
X0253044Y0157541D01*
X0252939Y0157525D01*
X0252834Y0157504D01*
X0252731Y0157481D01*
X0252628Y0157453D01*
X0252526Y0157422D01*
X0252426Y0157387D01*
X0252326Y0157349D01*
X0252228Y0157308D01*
X0252132Y0157263D01*
X0251617Y0156544D02*
X0251619Y0156492D01*
X0251624Y0156439D01*
X0251633Y0156388D01*
X0251646Y0156337D01*
X0251662Y0156287D01*
X0251681Y0156238D01*
X0251704Y0156191D01*
X0251730Y0156145D01*
X0251759Y0156102D01*
X0251791Y0156060D01*
X0251825Y0156021D01*
X0251863Y0155984D01*
X0251903Y0155950D01*
X0251945Y0155918D01*
X0251989Y0155890D01*
X0252035Y0155865D01*
X0252082Y0155843D01*
X0252131Y0155824D01*
X0253468Y0155516D02*
X0253574Y0155518D01*
X0253681Y0155523D01*
X0253787Y0155533D01*
X0253892Y0155546D01*
X0253997Y0155562D01*
X0254102Y0155583D01*
X0254205Y0155606D01*
X0254308Y0155634D01*
X0254410Y0155665D01*
X0254510Y0155700D01*
X0254610Y0155738D01*
X0254708Y0155779D01*
X0254804Y0155824D01*
X0252029Y0159116D02*
X0251618Y0159116D01*
X0251618Y0161171D01*
X0255318Y0160144D01*
X0253879Y0162750D02*
X0253879Y0165217D01*
X0255318Y0166796D02*
X0255318Y0168851D01*
X0255318Y0166796D02*
X0253262Y0168543D01*
X0251618Y0167926D02*
X0251620Y0167858D01*
X0251626Y0167790D01*
X0251635Y0167723D01*
X0251649Y0167657D01*
X0251666Y0167591D01*
X0251687Y0167526D01*
X0251712Y0167463D01*
X0251740Y0167401D01*
X0251772Y0167341D01*
X0251807Y0167283D01*
X0251845Y0167227D01*
X0251887Y0167173D01*
X0251931Y0167122D01*
X0251979Y0167074D01*
X0252029Y0167028D01*
X0252081Y0166985D01*
X0252136Y0166945D01*
X0252193Y0166908D01*
X0252252Y0166875D01*
X0252313Y0166845D01*
X0252376Y0166819D01*
X0252440Y0166796D01*
X0253263Y0168544D02*
X0253219Y0168587D01*
X0253172Y0168628D01*
X0253123Y0168665D01*
X0253072Y0168700D01*
X0253018Y0168731D01*
X0252963Y0168759D01*
X0252906Y0168783D01*
X0252848Y0168804D01*
X0252788Y0168821D01*
X0252728Y0168835D01*
X0252667Y0168844D01*
X0252605Y0168850D01*
X0252543Y0168852D01*
X0252543Y0168851D02*
X0252485Y0168849D01*
X0252427Y0168844D01*
X0252370Y0168835D01*
X0252313Y0168822D01*
X0252257Y0168806D01*
X0252202Y0168786D01*
X0252149Y0168763D01*
X0252097Y0168737D01*
X0252047Y0168707D01*
X0251999Y0168674D01*
X0251953Y0168639D01*
X0251910Y0168600D01*
X0251869Y0168559D01*
X0251830Y0168516D01*
X0251795Y0168470D01*
X0251762Y0168422D01*
X0251732Y0168372D01*
X0251706Y0168320D01*
X0251683Y0168267D01*
X0251663Y0168212D01*
X0251647Y0168156D01*
X0251634Y0168099D01*
X0251625Y0168042D01*
X0251620Y0167984D01*
X0251618Y0167926D01*
X0251618Y0170396D02*
X0251618Y0172451D01*
X0255318Y0171423D01*
X0252029Y0170396D02*
X0251618Y0170396D01*
X0252543Y0139091D02*
X0252485Y0139089D01*
X0252427Y0139084D01*
X0252370Y0139075D01*
X0252313Y0139062D01*
X0252257Y0139046D01*
X0252202Y0139026D01*
X0252149Y0139003D01*
X0252097Y0138977D01*
X0252047Y0138947D01*
X0251999Y0138914D01*
X0251953Y0138879D01*
X0251910Y0138840D01*
X0251869Y0138799D01*
X0251830Y0138756D01*
X0251795Y0138710D01*
X0251762Y0138662D01*
X0251732Y0138612D01*
X0251706Y0138560D01*
X0251683Y0138507D01*
X0251663Y0138452D01*
X0251647Y0138396D01*
X0251634Y0138339D01*
X0251625Y0138282D01*
X0251620Y0138224D01*
X0251618Y0138166D01*
X0251620Y0138098D01*
X0251626Y0138030D01*
X0251635Y0137963D01*
X0251649Y0137897D01*
X0251666Y0137831D01*
X0251687Y0137766D01*
X0251712Y0137703D01*
X0251740Y0137641D01*
X0251772Y0137581D01*
X0251807Y0137523D01*
X0251845Y0137467D01*
X0251887Y0137413D01*
X0251931Y0137362D01*
X0251979Y0137314D01*
X0252029Y0137268D01*
X0252081Y0137225D01*
X0252136Y0137185D01*
X0252193Y0137148D01*
X0252252Y0137115D01*
X0252313Y0137085D01*
X0252376Y0137059D01*
X0252440Y0137036D01*
X0198581Y0065834D02*
X0197348Y0065834D01*
X0197292Y0065832D01*
X0197236Y0065826D01*
X0197181Y0065817D01*
X0197126Y0065804D01*
X0197073Y0065787D01*
X0197021Y0065766D01*
X0196970Y0065742D01*
X0196921Y0065714D01*
X0196874Y0065684D01*
X0196829Y0065650D01*
X0196787Y0065613D01*
X0196747Y0065573D01*
X0196710Y0065531D01*
X0196676Y0065486D01*
X0196646Y0065439D01*
X0196618Y0065390D01*
X0196594Y0065339D01*
X0196573Y0065287D01*
X0196556Y0065234D01*
X0196543Y0065179D01*
X0196534Y0065124D01*
X0196528Y0065068D01*
X0196526Y0065012D01*
X0196525Y0065012D02*
X0196525Y0062956D01*
X0196526Y0062956D02*
X0196528Y0062900D01*
X0196534Y0062844D01*
X0196543Y0062789D01*
X0196556Y0062734D01*
X0196573Y0062681D01*
X0196594Y0062629D01*
X0196618Y0062578D01*
X0196646Y0062529D01*
X0196676Y0062482D01*
X0196710Y0062437D01*
X0196747Y0062395D01*
X0196787Y0062355D01*
X0196829Y0062318D01*
X0196874Y0062284D01*
X0196921Y0062254D01*
X0196970Y0062226D01*
X0197021Y0062202D01*
X0197073Y0062181D01*
X0197126Y0062164D01*
X0197181Y0062151D01*
X0197236Y0062142D01*
X0197292Y0062136D01*
X0197348Y0062134D01*
X0198581Y0062134D01*
X0198581Y0064190D01*
X0197964Y0064190D01*
X0194861Y0064806D02*
X0194861Y0063162D01*
X0194859Y0063099D01*
X0194853Y0063036D01*
X0194843Y0062973D01*
X0194830Y0062911D01*
X0194813Y0062850D01*
X0194792Y0062791D01*
X0194767Y0062732D01*
X0194739Y0062676D01*
X0194707Y0062621D01*
X0194672Y0062568D01*
X0194634Y0062518D01*
X0194593Y0062469D01*
X0194549Y0062424D01*
X0194502Y0062381D01*
X0194453Y0062342D01*
X0194401Y0062305D01*
X0194347Y0062272D01*
X0194291Y0062242D01*
X0194234Y0062215D01*
X0194175Y0062192D01*
X0194114Y0062173D01*
X0194053Y0062158D01*
X0193991Y0062146D01*
X0193928Y0062138D01*
X0193865Y0062134D01*
X0193801Y0062134D01*
X0193738Y0062138D01*
X0193675Y0062146D01*
X0193613Y0062158D01*
X0193552Y0062173D01*
X0193491Y0062192D01*
X0193432Y0062215D01*
X0193375Y0062242D01*
X0193319Y0062272D01*
X0193265Y0062305D01*
X0193213Y0062342D01*
X0193164Y0062381D01*
X0193117Y0062424D01*
X0193073Y0062469D01*
X0193032Y0062518D01*
X0192994Y0062568D01*
X0192959Y0062621D01*
X0192927Y0062676D01*
X0192899Y0062732D01*
X0192874Y0062791D01*
X0192853Y0062850D01*
X0192836Y0062911D01*
X0192823Y0062973D01*
X0192813Y0063036D01*
X0192807Y0063099D01*
X0192805Y0063162D01*
X0192805Y0064806D01*
X0192807Y0064869D01*
X0192813Y0064932D01*
X0192823Y0064995D01*
X0192836Y0065057D01*
X0192853Y0065118D01*
X0192874Y0065177D01*
X0192899Y0065236D01*
X0192927Y0065292D01*
X0192959Y0065347D01*
X0192994Y0065400D01*
X0193032Y0065450D01*
X0193073Y0065499D01*
X0193117Y0065544D01*
X0193164Y0065587D01*
X0193213Y0065626D01*
X0193265Y0065663D01*
X0193319Y0065696D01*
X0193375Y0065726D01*
X0193432Y0065753D01*
X0193491Y0065776D01*
X0193552Y0065795D01*
X0193613Y0065810D01*
X0193675Y0065822D01*
X0193738Y0065830D01*
X0193801Y0065834D01*
X0193865Y0065834D01*
X0193928Y0065830D01*
X0193991Y0065822D01*
X0194053Y0065810D01*
X0194114Y0065795D01*
X0194175Y0065776D01*
X0194234Y0065753D01*
X0194291Y0065726D01*
X0194347Y0065696D01*
X0194401Y0065663D01*
X0194453Y0065626D01*
X0194502Y0065587D01*
X0194549Y0065544D01*
X0194593Y0065499D01*
X0194634Y0065450D01*
X0194672Y0065400D01*
X0194707Y0065347D01*
X0194739Y0065292D01*
X0194767Y0065236D01*
X0194792Y0065177D01*
X0194813Y0065118D01*
X0194830Y0065057D01*
X0194843Y0064995D01*
X0194853Y0064932D01*
X0194859Y0064869D01*
X0194861Y0064806D01*
X0191283Y0062134D02*
X0190461Y0063779D01*
X0190256Y0063779D02*
X0189228Y0063779D01*
X0190256Y0063778D02*
X0190319Y0063780D01*
X0190382Y0063786D01*
X0190445Y0063796D01*
X0190507Y0063809D01*
X0190568Y0063826D01*
X0190627Y0063847D01*
X0190686Y0063872D01*
X0190742Y0063900D01*
X0190797Y0063932D01*
X0190850Y0063967D01*
X0190900Y0064005D01*
X0190949Y0064046D01*
X0190994Y0064090D01*
X0191037Y0064137D01*
X0191076Y0064186D01*
X0191113Y0064238D01*
X0191146Y0064292D01*
X0191176Y0064348D01*
X0191203Y0064405D01*
X0191226Y0064464D01*
X0191245Y0064525D01*
X0191260Y0064586D01*
X0191272Y0064648D01*
X0191280Y0064711D01*
X0191284Y0064774D01*
X0191284Y0064838D01*
X0191280Y0064901D01*
X0191272Y0064964D01*
X0191260Y0065026D01*
X0191245Y0065087D01*
X0191226Y0065148D01*
X0191203Y0065207D01*
X0191176Y0065264D01*
X0191146Y0065320D01*
X0191113Y0065374D01*
X0191076Y0065426D01*
X0191037Y0065475D01*
X0190994Y0065522D01*
X0190949Y0065566D01*
X0190900Y0065607D01*
X0190850Y0065645D01*
X0190797Y0065680D01*
X0190742Y0065712D01*
X0190686Y0065740D01*
X0190627Y0065765D01*
X0190568Y0065786D01*
X0190507Y0065803D01*
X0190445Y0065816D01*
X0190382Y0065826D01*
X0190319Y0065832D01*
X0190256Y0065834D01*
X0189228Y0065834D01*
X0189228Y0062134D01*
X0186685Y0063779D02*
X0185657Y0063779D01*
X0186685Y0063778D02*
X0186748Y0063780D01*
X0186811Y0063786D01*
X0186874Y0063796D01*
X0186936Y0063809D01*
X0186997Y0063826D01*
X0187056Y0063847D01*
X0187115Y0063872D01*
X0187171Y0063900D01*
X0187226Y0063932D01*
X0187279Y0063967D01*
X0187329Y0064005D01*
X0187378Y0064046D01*
X0187423Y0064090D01*
X0187466Y0064137D01*
X0187505Y0064186D01*
X0187542Y0064238D01*
X0187575Y0064292D01*
X0187605Y0064348D01*
X0187632Y0064405D01*
X0187655Y0064464D01*
X0187674Y0064525D01*
X0187689Y0064586D01*
X0187701Y0064648D01*
X0187709Y0064711D01*
X0187713Y0064774D01*
X0187713Y0064838D01*
X0187709Y0064901D01*
X0187701Y0064964D01*
X0187689Y0065026D01*
X0187674Y0065087D01*
X0187655Y0065148D01*
X0187632Y0065207D01*
X0187605Y0065264D01*
X0187575Y0065320D01*
X0187542Y0065374D01*
X0187505Y0065426D01*
X0187466Y0065475D01*
X0187423Y0065522D01*
X0187378Y0065566D01*
X0187329Y0065607D01*
X0187279Y0065645D01*
X0187226Y0065680D01*
X0187171Y0065712D01*
X0187115Y0065740D01*
X0187056Y0065765D01*
X0186997Y0065786D01*
X0186936Y0065803D01*
X0186874Y0065816D01*
X0186811Y0065826D01*
X0186748Y0065832D01*
X0186685Y0065834D01*
X0185657Y0065834D01*
X0185657Y0062134D01*
X0172510Y0065775D02*
X0170455Y0065775D01*
X0171483Y0065775D02*
X0171483Y0062075D01*
X0169150Y0063103D02*
X0169150Y0064747D01*
X0169151Y0064747D02*
X0169149Y0064810D01*
X0169143Y0064873D01*
X0169133Y0064936D01*
X0169120Y0064998D01*
X0169103Y0065059D01*
X0169082Y0065118D01*
X0169057Y0065177D01*
X0169029Y0065233D01*
X0168997Y0065288D01*
X0168962Y0065341D01*
X0168924Y0065391D01*
X0168883Y0065440D01*
X0168839Y0065485D01*
X0168792Y0065528D01*
X0168743Y0065567D01*
X0168691Y0065604D01*
X0168637Y0065637D01*
X0168581Y0065667D01*
X0168524Y0065694D01*
X0168465Y0065717D01*
X0168404Y0065736D01*
X0168343Y0065751D01*
X0168281Y0065763D01*
X0168218Y0065771D01*
X0168155Y0065775D01*
X0168091Y0065775D01*
X0168028Y0065771D01*
X0167965Y0065763D01*
X0167903Y0065751D01*
X0167842Y0065736D01*
X0167781Y0065717D01*
X0167722Y0065694D01*
X0167665Y0065667D01*
X0167609Y0065637D01*
X0167555Y0065604D01*
X0167503Y0065567D01*
X0167454Y0065528D01*
X0167407Y0065485D01*
X0167363Y0065440D01*
X0167322Y0065391D01*
X0167284Y0065341D01*
X0167249Y0065288D01*
X0167217Y0065233D01*
X0167189Y0065177D01*
X0167164Y0065118D01*
X0167143Y0065059D01*
X0167126Y0064998D01*
X0167113Y0064936D01*
X0167103Y0064873D01*
X0167097Y0064810D01*
X0167095Y0064747D01*
X0167095Y0063103D01*
X0167097Y0063040D01*
X0167103Y0062977D01*
X0167113Y0062914D01*
X0167126Y0062852D01*
X0167143Y0062791D01*
X0167164Y0062732D01*
X0167189Y0062673D01*
X0167217Y0062617D01*
X0167249Y0062562D01*
X0167284Y0062509D01*
X0167322Y0062459D01*
X0167363Y0062410D01*
X0167407Y0062365D01*
X0167454Y0062322D01*
X0167503Y0062283D01*
X0167555Y0062246D01*
X0167609Y0062213D01*
X0167665Y0062183D01*
X0167722Y0062156D01*
X0167781Y0062133D01*
X0167842Y0062114D01*
X0167903Y0062099D01*
X0167965Y0062087D01*
X0168028Y0062079D01*
X0168091Y0062075D01*
X0168155Y0062075D01*
X0168218Y0062079D01*
X0168281Y0062087D01*
X0168343Y0062099D01*
X0168404Y0062114D01*
X0168465Y0062133D01*
X0168524Y0062156D01*
X0168581Y0062183D01*
X0168637Y0062213D01*
X0168691Y0062246D01*
X0168743Y0062283D01*
X0168792Y0062322D01*
X0168839Y0062365D01*
X0168883Y0062410D01*
X0168924Y0062459D01*
X0168962Y0062509D01*
X0168997Y0062562D01*
X0169029Y0062617D01*
X0169057Y0062673D01*
X0169082Y0062732D01*
X0169103Y0062791D01*
X0169120Y0062852D01*
X0169133Y0062914D01*
X0169143Y0062977D01*
X0169149Y0063040D01*
X0169151Y0063103D01*
X0165550Y0063103D02*
X0165550Y0064747D01*
X0165551Y0064747D02*
X0165549Y0064810D01*
X0165543Y0064873D01*
X0165533Y0064936D01*
X0165520Y0064998D01*
X0165503Y0065059D01*
X0165482Y0065118D01*
X0165457Y0065177D01*
X0165429Y0065233D01*
X0165397Y0065288D01*
X0165362Y0065341D01*
X0165324Y0065391D01*
X0165283Y0065440D01*
X0165239Y0065485D01*
X0165192Y0065528D01*
X0165143Y0065567D01*
X0165091Y0065604D01*
X0165037Y0065637D01*
X0164981Y0065667D01*
X0164924Y0065694D01*
X0164865Y0065717D01*
X0164804Y0065736D01*
X0164743Y0065751D01*
X0164681Y0065763D01*
X0164618Y0065771D01*
X0164555Y0065775D01*
X0164491Y0065775D01*
X0164428Y0065771D01*
X0164365Y0065763D01*
X0164303Y0065751D01*
X0164242Y0065736D01*
X0164181Y0065717D01*
X0164122Y0065694D01*
X0164065Y0065667D01*
X0164009Y0065637D01*
X0163955Y0065604D01*
X0163903Y0065567D01*
X0163854Y0065528D01*
X0163807Y0065485D01*
X0163763Y0065440D01*
X0163722Y0065391D01*
X0163684Y0065341D01*
X0163649Y0065288D01*
X0163617Y0065233D01*
X0163589Y0065177D01*
X0163564Y0065118D01*
X0163543Y0065059D01*
X0163526Y0064998D01*
X0163513Y0064936D01*
X0163503Y0064873D01*
X0163497Y0064810D01*
X0163495Y0064747D01*
X0163495Y0063103D01*
X0163497Y0063040D01*
X0163503Y0062977D01*
X0163513Y0062914D01*
X0163526Y0062852D01*
X0163543Y0062791D01*
X0163564Y0062732D01*
X0163589Y0062673D01*
X0163617Y0062617D01*
X0163649Y0062562D01*
X0163684Y0062509D01*
X0163722Y0062459D01*
X0163763Y0062410D01*
X0163807Y0062365D01*
X0163854Y0062322D01*
X0163903Y0062283D01*
X0163955Y0062246D01*
X0164009Y0062213D01*
X0164065Y0062183D01*
X0164122Y0062156D01*
X0164181Y0062133D01*
X0164242Y0062114D01*
X0164303Y0062099D01*
X0164365Y0062087D01*
X0164428Y0062079D01*
X0164491Y0062075D01*
X0164555Y0062075D01*
X0164618Y0062079D01*
X0164681Y0062087D01*
X0164743Y0062099D01*
X0164804Y0062114D01*
X0164865Y0062133D01*
X0164924Y0062156D01*
X0164981Y0062183D01*
X0165037Y0062213D01*
X0165091Y0062246D01*
X0165143Y0062283D01*
X0165192Y0062322D01*
X0165239Y0062365D01*
X0165283Y0062410D01*
X0165324Y0062459D01*
X0165362Y0062509D01*
X0165397Y0062562D01*
X0165429Y0062617D01*
X0165457Y0062673D01*
X0165482Y0062732D01*
X0165503Y0062791D01*
X0165520Y0062852D01*
X0165533Y0062914D01*
X0165543Y0062977D01*
X0165549Y0063040D01*
X0165551Y0063103D01*
X0161094Y0062075D02*
X0161157Y0062077D01*
X0161220Y0062083D01*
X0161283Y0062093D01*
X0161345Y0062106D01*
X0161406Y0062123D01*
X0161465Y0062144D01*
X0161524Y0062169D01*
X0161580Y0062197D01*
X0161635Y0062229D01*
X0161688Y0062264D01*
X0161738Y0062302D01*
X0161787Y0062343D01*
X0161832Y0062387D01*
X0161875Y0062434D01*
X0161914Y0062483D01*
X0161951Y0062535D01*
X0161984Y0062589D01*
X0162014Y0062645D01*
X0162041Y0062702D01*
X0162064Y0062761D01*
X0162083Y0062822D01*
X0162098Y0062883D01*
X0162110Y0062945D01*
X0162118Y0063008D01*
X0162122Y0063071D01*
X0162122Y0063135D01*
X0162118Y0063198D01*
X0162110Y0063261D01*
X0162098Y0063323D01*
X0162083Y0063384D01*
X0162064Y0063445D01*
X0162041Y0063504D01*
X0162014Y0063561D01*
X0161984Y0063617D01*
X0161951Y0063671D01*
X0161914Y0063723D01*
X0161875Y0063772D01*
X0161832Y0063819D01*
X0161787Y0063863D01*
X0161738Y0063904D01*
X0161688Y0063942D01*
X0161635Y0063977D01*
X0161580Y0064009D01*
X0161524Y0064037D01*
X0161465Y0064062D01*
X0161406Y0064083D01*
X0161345Y0064100D01*
X0161283Y0064113D01*
X0161220Y0064123D01*
X0161157Y0064129D01*
X0161094Y0064131D01*
X0160067Y0064131D01*
X0161094Y0064131D02*
X0161150Y0064133D01*
X0161206Y0064139D01*
X0161261Y0064148D01*
X0161316Y0064161D01*
X0161369Y0064178D01*
X0161421Y0064199D01*
X0161472Y0064223D01*
X0161521Y0064251D01*
X0161568Y0064281D01*
X0161613Y0064315D01*
X0161655Y0064352D01*
X0161695Y0064392D01*
X0161732Y0064434D01*
X0161766Y0064479D01*
X0161796Y0064526D01*
X0161824Y0064575D01*
X0161848Y0064626D01*
X0161869Y0064678D01*
X0161886Y0064731D01*
X0161899Y0064786D01*
X0161908Y0064841D01*
X0161914Y0064897D01*
X0161916Y0064953D01*
X0161914Y0065009D01*
X0161908Y0065065D01*
X0161899Y0065120D01*
X0161886Y0065175D01*
X0161869Y0065228D01*
X0161848Y0065280D01*
X0161824Y0065331D01*
X0161796Y0065380D01*
X0161766Y0065427D01*
X0161732Y0065472D01*
X0161695Y0065514D01*
X0161655Y0065554D01*
X0161613Y0065591D01*
X0161568Y0065625D01*
X0161521Y0065655D01*
X0161472Y0065683D01*
X0161421Y0065707D01*
X0161369Y0065728D01*
X0161316Y0065745D01*
X0161261Y0065758D01*
X0161206Y0065767D01*
X0161150Y0065773D01*
X0161094Y0065775D01*
X0160067Y0065775D01*
X0160067Y0062075D01*
X0161094Y0062075D01*
X0149469Y0065775D02*
X0147414Y0065775D01*
X0148441Y0065775D02*
X0148441Y0062075D01*
X0146305Y0062075D02*
X0144660Y0062075D01*
X0144660Y0065775D01*
X0146305Y0065775D01*
X0145894Y0064131D02*
X0144660Y0064131D01*
X0142698Y0063617D02*
X0141567Y0064234D01*
X0141979Y0065775D02*
X0142055Y0065773D01*
X0142131Y0065767D01*
X0142207Y0065758D01*
X0142282Y0065745D01*
X0142357Y0065728D01*
X0142430Y0065707D01*
X0142503Y0065683D01*
X0142574Y0065656D01*
X0142643Y0065624D01*
X0142712Y0065590D01*
X0142778Y0065552D01*
X0142842Y0065511D01*
X0142904Y0065467D01*
X0141567Y0064234D02*
X0141521Y0064263D01*
X0141478Y0064295D01*
X0141436Y0064329D01*
X0141397Y0064367D01*
X0141360Y0064406D01*
X0141326Y0064448D01*
X0141294Y0064493D01*
X0141266Y0064539D01*
X0141241Y0064587D01*
X0141218Y0064636D01*
X0141200Y0064687D01*
X0141184Y0064739D01*
X0141172Y0064791D01*
X0141163Y0064845D01*
X0141158Y0064899D01*
X0141156Y0064953D01*
X0141157Y0064953D02*
X0141159Y0065009D01*
X0141165Y0065065D01*
X0141174Y0065120D01*
X0141187Y0065175D01*
X0141204Y0065228D01*
X0141225Y0065280D01*
X0141249Y0065331D01*
X0141277Y0065380D01*
X0141307Y0065427D01*
X0141341Y0065472D01*
X0141378Y0065514D01*
X0141418Y0065554D01*
X0141460Y0065591D01*
X0141505Y0065625D01*
X0141552Y0065655D01*
X0141601Y0065683D01*
X0141652Y0065707D01*
X0141704Y0065728D01*
X0141757Y0065745D01*
X0141812Y0065758D01*
X0141867Y0065767D01*
X0141923Y0065773D01*
X0141979Y0065775D01*
X0141054Y0062589D02*
X0141112Y0062533D01*
X0141172Y0062480D01*
X0141235Y0062429D01*
X0141301Y0062382D01*
X0141368Y0062338D01*
X0141438Y0062297D01*
X0141509Y0062259D01*
X0141582Y0062225D01*
X0141656Y0062194D01*
X0141732Y0062166D01*
X0141809Y0062142D01*
X0141887Y0062122D01*
X0141966Y0062105D01*
X0142046Y0062092D01*
X0142126Y0062082D01*
X0142206Y0062077D01*
X0142287Y0062075D01*
X0142343Y0062077D01*
X0142399Y0062083D01*
X0142454Y0062092D01*
X0142509Y0062105D01*
X0142562Y0062122D01*
X0142614Y0062143D01*
X0142665Y0062167D01*
X0142714Y0062195D01*
X0142761Y0062225D01*
X0142806Y0062259D01*
X0142848Y0062296D01*
X0142888Y0062336D01*
X0142925Y0062378D01*
X0142959Y0062423D01*
X0142989Y0062470D01*
X0143017Y0062519D01*
X0143041Y0062570D01*
X0143062Y0062622D01*
X0143079Y0062675D01*
X0143092Y0062730D01*
X0143101Y0062785D01*
X0143107Y0062841D01*
X0143109Y0062897D01*
X0143107Y0062951D01*
X0143102Y0063005D01*
X0143093Y0063059D01*
X0143081Y0063111D01*
X0143065Y0063163D01*
X0143047Y0063214D01*
X0143024Y0063263D01*
X0142999Y0063311D01*
X0142971Y0063357D01*
X0142939Y0063402D01*
X0142905Y0063444D01*
X0142868Y0063483D01*
X0142829Y0063521D01*
X0142787Y0063555D01*
X0142744Y0063587D01*
X0142698Y0063616D01*
X0139825Y0062075D02*
X0138180Y0062075D01*
X0138180Y0065775D01*
X0139825Y0065775D01*
X0139414Y0064131D02*
X0138180Y0064131D01*
X0135709Y0063720D02*
X0136532Y0062075D01*
X0135504Y0063720D02*
X0134476Y0063720D01*
X0135504Y0063719D02*
X0135567Y0063721D01*
X0135630Y0063727D01*
X0135693Y0063737D01*
X0135755Y0063750D01*
X0135816Y0063767D01*
X0135875Y0063788D01*
X0135934Y0063813D01*
X0135990Y0063841D01*
X0136045Y0063873D01*
X0136098Y0063908D01*
X0136148Y0063946D01*
X0136197Y0063987D01*
X0136242Y0064031D01*
X0136285Y0064078D01*
X0136324Y0064127D01*
X0136361Y0064179D01*
X0136394Y0064233D01*
X0136424Y0064289D01*
X0136451Y0064346D01*
X0136474Y0064405D01*
X0136493Y0064466D01*
X0136508Y0064527D01*
X0136520Y0064589D01*
X0136528Y0064652D01*
X0136532Y0064715D01*
X0136532Y0064779D01*
X0136528Y0064842D01*
X0136520Y0064905D01*
X0136508Y0064967D01*
X0136493Y0065028D01*
X0136474Y0065089D01*
X0136451Y0065148D01*
X0136424Y0065205D01*
X0136394Y0065261D01*
X0136361Y0065315D01*
X0136324Y0065367D01*
X0136285Y0065416D01*
X0136242Y0065463D01*
X0136197Y0065507D01*
X0136148Y0065548D01*
X0136098Y0065586D01*
X0136045Y0065621D01*
X0135990Y0065653D01*
X0135934Y0065681D01*
X0135875Y0065706D01*
X0135816Y0065727D01*
X0135755Y0065744D01*
X0135693Y0065757D01*
X0135630Y0065767D01*
X0135567Y0065773D01*
X0135504Y0065775D01*
X0134476Y0065775D01*
X0134476Y0062075D01*
D13*
X0134326Y0066925D02*
X0134326Y0076925D01*
X0154326Y0076925D01*
X0154326Y0066925D01*
X0134326Y0066925D01*
X0121610Y0066020D02*
X0111767Y0066020D01*
X0121610Y0066020D02*
X0121610Y0121138D01*
X0111767Y0121138D01*
X0096019Y0121138D02*
X0066491Y0121138D01*
X0066491Y0136886D02*
X0096019Y0136886D01*
X0111767Y0136886D02*
X0121610Y0136886D01*
X0121610Y0192004D01*
X0111767Y0192004D01*
X0096019Y0192004D02*
X0066491Y0192004D01*
X0134208Y0167201D02*
X0140507Y0167201D01*
X0140507Y0161689D02*
X0134208Y0161689D01*
X0135783Y0155390D02*
X0138932Y0155390D01*
X0146413Y0157752D02*
X0146413Y0151453D01*
X0151924Y0151453D02*
X0151924Y0157752D01*
X0159798Y0161295D02*
X0159798Y0167594D01*
X0166098Y0167594D02*
X0166098Y0161295D01*
X0170822Y0178224D02*
X0225940Y0178224D01*
X0225940Y0199878D01*
X0170822Y0199878D01*
X0170822Y0178224D01*
X0170822Y0130980D01*
X0225940Y0130980D01*
X0225940Y0178224D01*
X0220035Y0182161D02*
X0220035Y0193972D01*
X0212161Y0193972D01*
X0212161Y0186098D01*
X0202318Y0186098D01*
X0202318Y0193972D01*
X0192476Y0193972D01*
X0192476Y0186098D01*
X0184602Y0186098D01*
X0184602Y0193972D01*
X0180665Y0193972D01*
X0180665Y0178224D01*
X0176728Y0178224D02*
X0176728Y0193972D01*
X0180665Y0193972D01*
X0175940Y0124287D02*
X0169641Y0124287D01*
X0169641Y0117988D02*
X0175940Y0117988D01*
X0188539Y0123421D02*
X0231846Y0123421D01*
X0231846Y0083421D01*
X0188539Y0083421D01*
X0188539Y0123421D01*
X0173972Y0100665D02*
X0167673Y0100665D01*
X0167673Y0094366D02*
X0173972Y0094366D01*
X0177515Y0092398D02*
X0177515Y0098697D01*
X0183814Y0098697D02*
X0183814Y0092398D01*
X0179877Y0086492D02*
X0173578Y0086492D01*
X0173578Y0080980D02*
X0179877Y0080980D01*
X0179917Y0076925D02*
X0159917Y0076925D01*
X0159917Y0066925D01*
X0179917Y0066925D01*
X0179917Y0076925D01*
X0186098Y0076925D02*
X0196098Y0076925D01*
X0196098Y0066925D01*
X0246098Y0066925D01*
X0246098Y0076925D01*
X0196098Y0076925D01*
X0186098Y0076925D02*
X0186098Y0066925D01*
X0196098Y0066925D01*
X0168066Y0080980D02*
X0161767Y0080980D01*
X0161767Y0086492D02*
X0168066Y0086492D01*
X0151924Y0096335D02*
X0151924Y0102634D01*
X0146413Y0102634D02*
X0146413Y0096335D01*
X0138932Y0100272D02*
X0135783Y0100272D01*
X0134208Y0106571D02*
X0140507Y0106571D01*
X0140507Y0112083D02*
X0134208Y0112083D01*
X0096019Y0066020D02*
X0066491Y0066020D01*
D14*
X0131452Y0094760D02*
X0131452Y0099878D01*
X0131452Y0094760D02*
X0134995Y0094760D01*
X0139720Y0094760D02*
X0143263Y0094760D01*
X0143263Y0099878D01*
X0143263Y0149878D02*
X0139720Y0149878D01*
X0143263Y0149878D02*
X0143263Y0154996D01*
X0134995Y0149878D02*
X0131452Y0149878D01*
X0131452Y0154996D01*
D15*
X0166798Y0112516D02*
X0166798Y0106138D01*
X0171129Y0112516D02*
X0174452Y0112516D01*
X0178783Y0112516D02*
X0178783Y0106138D01*
M02*
