G75*
%MOIN*%
%OFA0B0*%
%FSLAX25Y25*%
%IPPOS*%
%LPD*%
%AMOC8*
5,1,8,0,0,1.08239X$1,22.5*
%
%ADD10C,0.00000*%
%ADD11C,0.00400*%
%ADD12C,0.00500*%
%ADD13C,0.00800*%
%ADD14C,0.00600*%
D10*
X0010226Y0002294D02*
X0191329Y0002294D01*
X0191329Y0002295D02*
X0191519Y0002297D01*
X0191709Y0002304D01*
X0191899Y0002316D01*
X0192089Y0002332D01*
X0192278Y0002352D01*
X0192467Y0002378D01*
X0192655Y0002407D01*
X0192842Y0002442D01*
X0193028Y0002481D01*
X0193213Y0002524D01*
X0193398Y0002572D01*
X0193581Y0002624D01*
X0193762Y0002680D01*
X0193942Y0002741D01*
X0194121Y0002807D01*
X0194298Y0002876D01*
X0194474Y0002950D01*
X0194647Y0003028D01*
X0194819Y0003111D01*
X0194988Y0003197D01*
X0195156Y0003287D01*
X0195321Y0003382D01*
X0195484Y0003480D01*
X0195644Y0003583D01*
X0195802Y0003689D01*
X0195957Y0003799D01*
X0196110Y0003912D01*
X0196260Y0004030D01*
X0196406Y0004151D01*
X0196550Y0004275D01*
X0196691Y0004403D01*
X0196829Y0004534D01*
X0196964Y0004669D01*
X0197095Y0004807D01*
X0197223Y0004948D01*
X0197347Y0005092D01*
X0197468Y0005238D01*
X0197586Y0005388D01*
X0197699Y0005541D01*
X0197809Y0005696D01*
X0197915Y0005854D01*
X0198018Y0006014D01*
X0198116Y0006177D01*
X0198211Y0006342D01*
X0198301Y0006510D01*
X0198387Y0006679D01*
X0198470Y0006851D01*
X0198548Y0007024D01*
X0198622Y0007200D01*
X0198691Y0007377D01*
X0198757Y0007556D01*
X0198818Y0007736D01*
X0198874Y0007917D01*
X0198926Y0008100D01*
X0198974Y0008285D01*
X0199017Y0008470D01*
X0199056Y0008656D01*
X0199091Y0008843D01*
X0199120Y0009031D01*
X0199146Y0009220D01*
X0199166Y0009409D01*
X0199182Y0009599D01*
X0199194Y0009789D01*
X0199201Y0009979D01*
X0199203Y0010169D01*
X0199203Y0114499D01*
X0199201Y0114689D01*
X0199194Y0114879D01*
X0199182Y0115069D01*
X0199166Y0115259D01*
X0199146Y0115448D01*
X0199120Y0115637D01*
X0199091Y0115825D01*
X0199056Y0116012D01*
X0199017Y0116198D01*
X0198974Y0116383D01*
X0198926Y0116568D01*
X0198874Y0116751D01*
X0198818Y0116932D01*
X0198757Y0117112D01*
X0198691Y0117291D01*
X0198622Y0117468D01*
X0198548Y0117644D01*
X0198470Y0117817D01*
X0198387Y0117989D01*
X0198301Y0118158D01*
X0198211Y0118326D01*
X0198116Y0118491D01*
X0198018Y0118654D01*
X0197915Y0118814D01*
X0197809Y0118972D01*
X0197699Y0119127D01*
X0197586Y0119280D01*
X0197468Y0119430D01*
X0197347Y0119576D01*
X0197223Y0119720D01*
X0197095Y0119861D01*
X0196964Y0119999D01*
X0196829Y0120134D01*
X0196691Y0120265D01*
X0196550Y0120393D01*
X0196406Y0120517D01*
X0196260Y0120638D01*
X0196110Y0120756D01*
X0195957Y0120869D01*
X0195802Y0120979D01*
X0195644Y0121085D01*
X0195484Y0121188D01*
X0195321Y0121286D01*
X0195156Y0121381D01*
X0194988Y0121471D01*
X0194819Y0121557D01*
X0194647Y0121640D01*
X0194474Y0121718D01*
X0194298Y0121792D01*
X0194121Y0121861D01*
X0193942Y0121927D01*
X0193762Y0121988D01*
X0193581Y0122044D01*
X0193398Y0122096D01*
X0193213Y0122144D01*
X0193028Y0122187D01*
X0192842Y0122226D01*
X0192655Y0122261D01*
X0192467Y0122290D01*
X0192278Y0122316D01*
X0192089Y0122336D01*
X0191899Y0122352D01*
X0191709Y0122364D01*
X0191519Y0122371D01*
X0191329Y0122373D01*
X0110620Y0122373D01*
X0110430Y0122375D01*
X0110240Y0122382D01*
X0110050Y0122394D01*
X0109860Y0122410D01*
X0109671Y0122430D01*
X0109482Y0122456D01*
X0109294Y0122485D01*
X0109107Y0122520D01*
X0108921Y0122559D01*
X0108736Y0122602D01*
X0108551Y0122650D01*
X0108368Y0122702D01*
X0108187Y0122758D01*
X0108007Y0122819D01*
X0107828Y0122885D01*
X0107651Y0122954D01*
X0107475Y0123028D01*
X0107302Y0123106D01*
X0107130Y0123189D01*
X0106961Y0123275D01*
X0106793Y0123365D01*
X0106628Y0123460D01*
X0106465Y0123558D01*
X0106305Y0123661D01*
X0106147Y0123767D01*
X0105992Y0123877D01*
X0105839Y0123990D01*
X0105689Y0124108D01*
X0105543Y0124229D01*
X0105399Y0124353D01*
X0105258Y0124481D01*
X0105120Y0124612D01*
X0104985Y0124747D01*
X0104854Y0124885D01*
X0104726Y0125026D01*
X0104602Y0125170D01*
X0104481Y0125316D01*
X0104363Y0125466D01*
X0104250Y0125619D01*
X0104140Y0125774D01*
X0104034Y0125932D01*
X0103931Y0126092D01*
X0103833Y0126255D01*
X0103738Y0126420D01*
X0103648Y0126588D01*
X0103562Y0126757D01*
X0103479Y0126929D01*
X0103401Y0127102D01*
X0103327Y0127278D01*
X0103258Y0127455D01*
X0103192Y0127634D01*
X0103131Y0127814D01*
X0103075Y0127995D01*
X0103023Y0128178D01*
X0102975Y0128363D01*
X0102932Y0128548D01*
X0102893Y0128734D01*
X0102858Y0128921D01*
X0102829Y0129109D01*
X0102803Y0129298D01*
X0102783Y0129487D01*
X0102767Y0129677D01*
X0102755Y0129867D01*
X0102748Y0130057D01*
X0102746Y0130247D01*
X0102746Y0136153D01*
X0102744Y0136343D01*
X0102737Y0136533D01*
X0102725Y0136723D01*
X0102709Y0136913D01*
X0102689Y0137102D01*
X0102663Y0137291D01*
X0102634Y0137479D01*
X0102599Y0137666D01*
X0102560Y0137852D01*
X0102517Y0138037D01*
X0102469Y0138222D01*
X0102417Y0138405D01*
X0102361Y0138586D01*
X0102300Y0138766D01*
X0102234Y0138945D01*
X0102165Y0139122D01*
X0102091Y0139298D01*
X0102013Y0139471D01*
X0101930Y0139643D01*
X0101844Y0139812D01*
X0101754Y0139980D01*
X0101659Y0140145D01*
X0101561Y0140308D01*
X0101458Y0140468D01*
X0101352Y0140626D01*
X0101242Y0140781D01*
X0101129Y0140934D01*
X0101011Y0141084D01*
X0100890Y0141230D01*
X0100766Y0141374D01*
X0100638Y0141515D01*
X0100507Y0141653D01*
X0100372Y0141788D01*
X0100234Y0141919D01*
X0100093Y0142047D01*
X0099949Y0142171D01*
X0099803Y0142292D01*
X0099653Y0142410D01*
X0099500Y0142523D01*
X0099345Y0142633D01*
X0099187Y0142739D01*
X0099027Y0142842D01*
X0098864Y0142940D01*
X0098699Y0143035D01*
X0098531Y0143125D01*
X0098362Y0143211D01*
X0098190Y0143294D01*
X0098017Y0143372D01*
X0097841Y0143446D01*
X0097664Y0143515D01*
X0097485Y0143581D01*
X0097305Y0143642D01*
X0097124Y0143698D01*
X0096941Y0143750D01*
X0096756Y0143798D01*
X0096571Y0143841D01*
X0096385Y0143880D01*
X0096198Y0143915D01*
X0096010Y0143944D01*
X0095821Y0143970D01*
X0095632Y0143990D01*
X0095442Y0144006D01*
X0095252Y0144018D01*
X0095062Y0144025D01*
X0094872Y0144027D01*
X0010226Y0144027D01*
X0010036Y0144025D01*
X0009846Y0144018D01*
X0009656Y0144006D01*
X0009466Y0143990D01*
X0009277Y0143970D01*
X0009088Y0143944D01*
X0008900Y0143915D01*
X0008713Y0143880D01*
X0008527Y0143841D01*
X0008342Y0143798D01*
X0008157Y0143750D01*
X0007974Y0143698D01*
X0007793Y0143642D01*
X0007613Y0143581D01*
X0007434Y0143515D01*
X0007257Y0143446D01*
X0007081Y0143372D01*
X0006908Y0143294D01*
X0006736Y0143211D01*
X0006567Y0143125D01*
X0006399Y0143035D01*
X0006234Y0142940D01*
X0006071Y0142842D01*
X0005911Y0142739D01*
X0005753Y0142633D01*
X0005598Y0142523D01*
X0005445Y0142410D01*
X0005295Y0142292D01*
X0005149Y0142171D01*
X0005005Y0142047D01*
X0004864Y0141919D01*
X0004726Y0141788D01*
X0004591Y0141653D01*
X0004460Y0141515D01*
X0004332Y0141374D01*
X0004208Y0141230D01*
X0004087Y0141084D01*
X0003969Y0140934D01*
X0003856Y0140781D01*
X0003746Y0140626D01*
X0003640Y0140468D01*
X0003537Y0140308D01*
X0003439Y0140145D01*
X0003344Y0139980D01*
X0003254Y0139812D01*
X0003168Y0139643D01*
X0003085Y0139471D01*
X0003007Y0139298D01*
X0002933Y0139122D01*
X0002864Y0138945D01*
X0002798Y0138766D01*
X0002737Y0138586D01*
X0002681Y0138405D01*
X0002629Y0138222D01*
X0002581Y0138037D01*
X0002538Y0137852D01*
X0002499Y0137666D01*
X0002464Y0137479D01*
X0002435Y0137291D01*
X0002409Y0137102D01*
X0002389Y0136913D01*
X0002373Y0136723D01*
X0002361Y0136533D01*
X0002354Y0136343D01*
X0002352Y0136153D01*
X0002352Y0010169D01*
X0002354Y0009979D01*
X0002361Y0009789D01*
X0002373Y0009599D01*
X0002389Y0009409D01*
X0002409Y0009220D01*
X0002435Y0009031D01*
X0002464Y0008843D01*
X0002499Y0008656D01*
X0002538Y0008470D01*
X0002581Y0008285D01*
X0002629Y0008100D01*
X0002681Y0007917D01*
X0002737Y0007736D01*
X0002798Y0007556D01*
X0002864Y0007377D01*
X0002933Y0007200D01*
X0003007Y0007024D01*
X0003085Y0006851D01*
X0003168Y0006679D01*
X0003254Y0006510D01*
X0003344Y0006342D01*
X0003439Y0006177D01*
X0003537Y0006014D01*
X0003640Y0005854D01*
X0003746Y0005696D01*
X0003856Y0005541D01*
X0003969Y0005388D01*
X0004087Y0005238D01*
X0004208Y0005092D01*
X0004332Y0004948D01*
X0004460Y0004807D01*
X0004591Y0004669D01*
X0004726Y0004534D01*
X0004864Y0004403D01*
X0005005Y0004275D01*
X0005149Y0004151D01*
X0005295Y0004030D01*
X0005445Y0003912D01*
X0005598Y0003799D01*
X0005753Y0003689D01*
X0005911Y0003583D01*
X0006071Y0003480D01*
X0006234Y0003382D01*
X0006399Y0003287D01*
X0006567Y0003197D01*
X0006736Y0003111D01*
X0006908Y0003028D01*
X0007081Y0002950D01*
X0007257Y0002876D01*
X0007434Y0002807D01*
X0007613Y0002741D01*
X0007793Y0002680D01*
X0007974Y0002624D01*
X0008157Y0002572D01*
X0008342Y0002524D01*
X0008527Y0002481D01*
X0008713Y0002442D01*
X0008900Y0002407D01*
X0009088Y0002378D01*
X0009277Y0002352D01*
X0009466Y0002332D01*
X0009656Y0002316D01*
X0009846Y0002304D01*
X0010036Y0002297D01*
X0010226Y0002295D01*
D11*
X0188497Y0030054D02*
X0191819Y0030054D01*
X0191819Y0030053D02*
X0191889Y0030055D01*
X0191960Y0030061D01*
X0192029Y0030070D01*
X0192098Y0030084D01*
X0192167Y0030101D01*
X0192234Y0030122D01*
X0192300Y0030147D01*
X0192364Y0030175D01*
X0192427Y0030207D01*
X0192488Y0030242D01*
X0192547Y0030281D01*
X0192604Y0030322D01*
X0192658Y0030367D01*
X0192710Y0030415D01*
X0192759Y0030465D01*
X0192806Y0030519D01*
X0192849Y0030574D01*
X0192889Y0030632D01*
X0192926Y0030692D01*
X0192959Y0030754D01*
X0192989Y0030818D01*
X0193016Y0030883D01*
X0193039Y0030949D01*
X0193058Y0031017D01*
X0193073Y0031086D01*
X0193085Y0031155D01*
X0193093Y0031225D01*
X0193097Y0031296D01*
X0193097Y0031366D01*
X0193093Y0031437D01*
X0193085Y0031507D01*
X0193073Y0031576D01*
X0193058Y0031645D01*
X0193039Y0031713D01*
X0193016Y0031779D01*
X0192989Y0031844D01*
X0192959Y0031908D01*
X0192926Y0031970D01*
X0192889Y0032030D01*
X0192849Y0032088D01*
X0192806Y0032143D01*
X0192759Y0032197D01*
X0192710Y0032247D01*
X0192658Y0032295D01*
X0192604Y0032340D01*
X0192547Y0032381D01*
X0192488Y0032420D01*
X0192427Y0032455D01*
X0192364Y0032487D01*
X0192300Y0032515D01*
X0192234Y0032540D01*
X0192167Y0032561D01*
X0192098Y0032578D01*
X0192029Y0032592D01*
X0191960Y0032601D01*
X0191889Y0032607D01*
X0191819Y0032609D01*
X0188497Y0032609D01*
X0190414Y0035192D02*
X0191181Y0036598D01*
X0193097Y0036087D02*
X0193095Y0035997D01*
X0193090Y0035908D01*
X0193080Y0035819D01*
X0193067Y0035730D01*
X0193051Y0035642D01*
X0193030Y0035554D01*
X0193006Y0035468D01*
X0192979Y0035382D01*
X0192948Y0035298D01*
X0192913Y0035215D01*
X0192875Y0035134D01*
X0192834Y0035054D01*
X0192790Y0034977D01*
X0192742Y0034901D01*
X0192691Y0034827D01*
X0192637Y0034755D01*
X0192580Y0034686D01*
X0192521Y0034618D01*
X0192458Y0034554D01*
X0191181Y0036598D02*
X0191215Y0036652D01*
X0191252Y0036703D01*
X0191292Y0036752D01*
X0191335Y0036799D01*
X0191381Y0036842D01*
X0191429Y0036883D01*
X0191480Y0036921D01*
X0191533Y0036956D01*
X0191588Y0036988D01*
X0191645Y0037016D01*
X0191703Y0037040D01*
X0191763Y0037061D01*
X0191824Y0037078D01*
X0191886Y0037092D01*
X0191949Y0037101D01*
X0192012Y0037107D01*
X0192075Y0037109D01*
X0192137Y0037107D01*
X0192198Y0037102D01*
X0192259Y0037092D01*
X0192320Y0037079D01*
X0192379Y0037063D01*
X0192437Y0037043D01*
X0192494Y0037019D01*
X0192550Y0036992D01*
X0192604Y0036962D01*
X0192656Y0036928D01*
X0192705Y0036892D01*
X0192753Y0036852D01*
X0192798Y0036810D01*
X0192840Y0036765D01*
X0192880Y0036717D01*
X0192916Y0036668D01*
X0192950Y0036616D01*
X0192980Y0036562D01*
X0193007Y0036506D01*
X0193031Y0036449D01*
X0193051Y0036391D01*
X0193067Y0036332D01*
X0193080Y0036271D01*
X0193090Y0036210D01*
X0193095Y0036149D01*
X0193097Y0036087D01*
X0188880Y0036854D02*
X0188832Y0036787D01*
X0188787Y0036719D01*
X0188745Y0036648D01*
X0188707Y0036575D01*
X0188671Y0036501D01*
X0188638Y0036426D01*
X0188609Y0036349D01*
X0188583Y0036271D01*
X0188560Y0036192D01*
X0188541Y0036112D01*
X0188525Y0036031D01*
X0188513Y0035950D01*
X0188504Y0035868D01*
X0188499Y0035786D01*
X0188497Y0035704D01*
X0188499Y0035642D01*
X0188504Y0035581D01*
X0188514Y0035520D01*
X0188527Y0035459D01*
X0188543Y0035400D01*
X0188563Y0035342D01*
X0188587Y0035285D01*
X0188614Y0035229D01*
X0188644Y0035175D01*
X0188678Y0035123D01*
X0188714Y0035074D01*
X0188754Y0035026D01*
X0188796Y0034981D01*
X0188841Y0034939D01*
X0188889Y0034899D01*
X0188938Y0034863D01*
X0188990Y0034829D01*
X0189044Y0034799D01*
X0189100Y0034772D01*
X0189157Y0034748D01*
X0189215Y0034728D01*
X0189274Y0034712D01*
X0189335Y0034699D01*
X0189396Y0034689D01*
X0189457Y0034684D01*
X0189519Y0034682D01*
X0189519Y0034681D02*
X0189582Y0034683D01*
X0189645Y0034689D01*
X0189708Y0034698D01*
X0189770Y0034712D01*
X0189831Y0034729D01*
X0189891Y0034750D01*
X0189949Y0034774D01*
X0190006Y0034802D01*
X0190061Y0034834D01*
X0190114Y0034869D01*
X0190165Y0034907D01*
X0190213Y0034948D01*
X0190259Y0034991D01*
X0190302Y0035038D01*
X0190342Y0035087D01*
X0190379Y0035138D01*
X0190413Y0035192D01*
X0190542Y0039120D02*
X0190542Y0040398D01*
X0190541Y0040398D02*
X0190539Y0040461D01*
X0190533Y0040524D01*
X0190524Y0040586D01*
X0190510Y0040647D01*
X0190493Y0040708D01*
X0190472Y0040767D01*
X0190447Y0040825D01*
X0190419Y0040882D01*
X0190388Y0040936D01*
X0190353Y0040988D01*
X0190315Y0041039D01*
X0190274Y0041087D01*
X0190230Y0041132D01*
X0190184Y0041174D01*
X0190135Y0041214D01*
X0190084Y0041250D01*
X0190030Y0041283D01*
X0189975Y0041313D01*
X0189917Y0041339D01*
X0189859Y0041362D01*
X0189799Y0041381D01*
X0189738Y0041396D01*
X0189676Y0041408D01*
X0189613Y0041416D01*
X0189550Y0041420D01*
X0189488Y0041420D01*
X0189425Y0041416D01*
X0189362Y0041408D01*
X0189300Y0041396D01*
X0189239Y0041381D01*
X0189179Y0041362D01*
X0189121Y0041339D01*
X0189063Y0041313D01*
X0189008Y0041283D01*
X0188954Y0041250D01*
X0188903Y0041214D01*
X0188854Y0041174D01*
X0188808Y0041132D01*
X0188764Y0041087D01*
X0188723Y0041039D01*
X0188685Y0040988D01*
X0188650Y0040936D01*
X0188619Y0040882D01*
X0188591Y0040825D01*
X0188566Y0040767D01*
X0188545Y0040708D01*
X0188528Y0040647D01*
X0188514Y0040586D01*
X0188505Y0040524D01*
X0188499Y0040461D01*
X0188497Y0040398D01*
X0188497Y0039120D01*
X0193097Y0039120D01*
X0193097Y0040398D01*
X0193095Y0040468D01*
X0193089Y0040539D01*
X0193080Y0040608D01*
X0193066Y0040677D01*
X0193049Y0040746D01*
X0193028Y0040813D01*
X0193003Y0040879D01*
X0192975Y0040943D01*
X0192943Y0041006D01*
X0192908Y0041067D01*
X0192869Y0041126D01*
X0192828Y0041183D01*
X0192783Y0041237D01*
X0192735Y0041289D01*
X0192685Y0041338D01*
X0192631Y0041385D01*
X0192576Y0041428D01*
X0192518Y0041468D01*
X0192458Y0041505D01*
X0192396Y0041538D01*
X0192332Y0041568D01*
X0192267Y0041595D01*
X0192201Y0041618D01*
X0192133Y0041637D01*
X0192064Y0041652D01*
X0191995Y0041664D01*
X0191925Y0041672D01*
X0191854Y0041676D01*
X0191784Y0041676D01*
X0191713Y0041672D01*
X0191643Y0041664D01*
X0191574Y0041652D01*
X0191505Y0041637D01*
X0191437Y0041618D01*
X0191371Y0041595D01*
X0191306Y0041568D01*
X0191242Y0041538D01*
X0191180Y0041505D01*
X0191120Y0041468D01*
X0191062Y0041428D01*
X0191007Y0041385D01*
X0190953Y0041338D01*
X0190903Y0041289D01*
X0190855Y0041237D01*
X0190810Y0041183D01*
X0190769Y0041126D01*
X0190730Y0041067D01*
X0190695Y0041006D01*
X0190663Y0040943D01*
X0190635Y0040879D01*
X0190610Y0040813D01*
X0190589Y0040746D01*
X0190572Y0040677D01*
X0190558Y0040608D01*
X0190549Y0040539D01*
X0190543Y0040468D01*
X0190541Y0040398D01*
X0193097Y0045548D02*
X0188497Y0047081D01*
X0193097Y0048615D01*
X0191947Y0048231D02*
X0191947Y0045931D01*
X0193097Y0050409D02*
X0190031Y0050409D01*
X0190031Y0051687D01*
X0190030Y0051687D02*
X0190032Y0051742D01*
X0190038Y0051796D01*
X0190048Y0051850D01*
X0190061Y0051903D01*
X0190078Y0051955D01*
X0190099Y0052006D01*
X0190124Y0052055D01*
X0190152Y0052102D01*
X0190183Y0052147D01*
X0190217Y0052189D01*
X0190255Y0052229D01*
X0190295Y0052267D01*
X0190337Y0052301D01*
X0190382Y0052332D01*
X0190429Y0052360D01*
X0190478Y0052385D01*
X0190529Y0052406D01*
X0190581Y0052423D01*
X0190634Y0052436D01*
X0190688Y0052446D01*
X0190742Y0052452D01*
X0190797Y0052454D01*
X0193097Y0052454D01*
X0193097Y0055330D02*
X0193097Y0056480D01*
X0190797Y0056480D01*
X0191308Y0056480D02*
X0191308Y0055330D01*
X0190797Y0056481D02*
X0190742Y0056479D01*
X0190688Y0056473D01*
X0190634Y0056463D01*
X0190581Y0056450D01*
X0190529Y0056433D01*
X0190478Y0056412D01*
X0190429Y0056387D01*
X0190382Y0056359D01*
X0190337Y0056328D01*
X0190295Y0056294D01*
X0190255Y0056256D01*
X0190217Y0056216D01*
X0190183Y0056174D01*
X0190152Y0056129D01*
X0190124Y0056082D01*
X0190099Y0056033D01*
X0190078Y0055982D01*
X0190061Y0055930D01*
X0190048Y0055877D01*
X0190038Y0055823D01*
X0190032Y0055769D01*
X0190030Y0055714D01*
X0190031Y0055714D02*
X0190031Y0054691D01*
X0191309Y0055330D02*
X0191311Y0055272D01*
X0191317Y0055213D01*
X0191326Y0055156D01*
X0191339Y0055099D01*
X0191356Y0055043D01*
X0191377Y0054988D01*
X0191401Y0054935D01*
X0191429Y0054883D01*
X0191460Y0054833D01*
X0191494Y0054786D01*
X0191531Y0054741D01*
X0191571Y0054698D01*
X0191614Y0054658D01*
X0191659Y0054621D01*
X0191706Y0054587D01*
X0191756Y0054556D01*
X0191808Y0054528D01*
X0191861Y0054504D01*
X0191916Y0054483D01*
X0191972Y0054466D01*
X0192029Y0054453D01*
X0192086Y0054444D01*
X0192145Y0054438D01*
X0192203Y0054436D01*
X0192261Y0054438D01*
X0192320Y0054444D01*
X0192377Y0054453D01*
X0192434Y0054466D01*
X0192490Y0054483D01*
X0192545Y0054504D01*
X0192598Y0054528D01*
X0192650Y0054556D01*
X0192700Y0054587D01*
X0192747Y0054621D01*
X0192792Y0054658D01*
X0192835Y0054698D01*
X0192875Y0054741D01*
X0192912Y0054786D01*
X0192946Y0054833D01*
X0192977Y0054883D01*
X0193005Y0054935D01*
X0193029Y0054988D01*
X0193050Y0055043D01*
X0193067Y0055099D01*
X0193080Y0055156D01*
X0193089Y0055213D01*
X0193095Y0055272D01*
X0193097Y0055330D01*
X0192331Y0058568D02*
X0188497Y0058568D01*
X0191053Y0060909D02*
X0192075Y0060909D01*
X0192138Y0060911D01*
X0192201Y0060917D01*
X0192263Y0060926D01*
X0192324Y0060940D01*
X0192385Y0060957D01*
X0192444Y0060978D01*
X0192502Y0061003D01*
X0192559Y0061031D01*
X0192613Y0061062D01*
X0192665Y0061097D01*
X0192716Y0061135D01*
X0192764Y0061176D01*
X0192809Y0061220D01*
X0192851Y0061266D01*
X0192891Y0061315D01*
X0192927Y0061366D01*
X0192960Y0061420D01*
X0192990Y0061475D01*
X0193016Y0061533D01*
X0193039Y0061591D01*
X0193058Y0061651D01*
X0193073Y0061712D01*
X0193085Y0061774D01*
X0193093Y0061837D01*
X0193097Y0061900D01*
X0193097Y0061962D01*
X0193093Y0062025D01*
X0193085Y0062088D01*
X0193073Y0062150D01*
X0193058Y0062211D01*
X0193039Y0062271D01*
X0193016Y0062329D01*
X0192990Y0062387D01*
X0192960Y0062442D01*
X0192927Y0062496D01*
X0192891Y0062547D01*
X0192851Y0062596D01*
X0192809Y0062642D01*
X0192764Y0062686D01*
X0192716Y0062727D01*
X0192665Y0062765D01*
X0192613Y0062800D01*
X0192559Y0062831D01*
X0192502Y0062859D01*
X0192444Y0062884D01*
X0192385Y0062905D01*
X0192324Y0062922D01*
X0192263Y0062936D01*
X0192201Y0062945D01*
X0192138Y0062951D01*
X0192075Y0062953D01*
X0191053Y0062953D01*
X0190990Y0062951D01*
X0190927Y0062945D01*
X0190865Y0062936D01*
X0190804Y0062922D01*
X0190743Y0062905D01*
X0190684Y0062884D01*
X0190626Y0062859D01*
X0190569Y0062831D01*
X0190515Y0062800D01*
X0190463Y0062765D01*
X0190412Y0062727D01*
X0190364Y0062686D01*
X0190319Y0062642D01*
X0190277Y0062596D01*
X0190237Y0062547D01*
X0190201Y0062496D01*
X0190168Y0062442D01*
X0190138Y0062387D01*
X0190112Y0062329D01*
X0190089Y0062271D01*
X0190070Y0062211D01*
X0190055Y0062150D01*
X0190043Y0062088D01*
X0190035Y0062025D01*
X0190031Y0061962D01*
X0190031Y0061900D01*
X0190035Y0061837D01*
X0190043Y0061774D01*
X0190055Y0061712D01*
X0190070Y0061651D01*
X0190089Y0061591D01*
X0190112Y0061533D01*
X0190138Y0061475D01*
X0190168Y0061420D01*
X0190201Y0061366D01*
X0190237Y0061315D01*
X0190277Y0061266D01*
X0190319Y0061220D01*
X0190364Y0061176D01*
X0190412Y0061135D01*
X0190463Y0061097D01*
X0190515Y0061062D01*
X0190569Y0061031D01*
X0190626Y0061003D01*
X0190684Y0060978D01*
X0190743Y0060957D01*
X0190804Y0060940D01*
X0190865Y0060926D01*
X0190927Y0060917D01*
X0190990Y0060911D01*
X0191053Y0060909D01*
X0193098Y0059335D02*
X0193096Y0059280D01*
X0193090Y0059226D01*
X0193080Y0059172D01*
X0193067Y0059119D01*
X0193050Y0059067D01*
X0193029Y0059016D01*
X0193004Y0058967D01*
X0192976Y0058920D01*
X0192945Y0058875D01*
X0192911Y0058833D01*
X0192873Y0058793D01*
X0192833Y0058755D01*
X0192791Y0058721D01*
X0192746Y0058690D01*
X0192699Y0058662D01*
X0192650Y0058637D01*
X0192599Y0058616D01*
X0192547Y0058599D01*
X0192494Y0058586D01*
X0192440Y0058576D01*
X0192386Y0058570D01*
X0192331Y0058568D01*
X0192331Y0064786D02*
X0190797Y0064786D01*
X0190742Y0064788D01*
X0190688Y0064794D01*
X0190634Y0064804D01*
X0190581Y0064817D01*
X0190529Y0064834D01*
X0190478Y0064855D01*
X0190429Y0064880D01*
X0190382Y0064908D01*
X0190337Y0064939D01*
X0190295Y0064973D01*
X0190255Y0065011D01*
X0190217Y0065051D01*
X0190183Y0065093D01*
X0190152Y0065138D01*
X0190124Y0065185D01*
X0190099Y0065234D01*
X0190078Y0065285D01*
X0190061Y0065337D01*
X0190048Y0065390D01*
X0190038Y0065444D01*
X0190032Y0065498D01*
X0190030Y0065553D01*
X0190031Y0065553D02*
X0190031Y0066830D01*
X0193864Y0066830D01*
X0193864Y0066831D02*
X0193919Y0066829D01*
X0193973Y0066823D01*
X0194027Y0066813D01*
X0194080Y0066800D01*
X0194132Y0066783D01*
X0194183Y0066762D01*
X0194232Y0066737D01*
X0194279Y0066709D01*
X0194324Y0066678D01*
X0194366Y0066644D01*
X0194406Y0066606D01*
X0194444Y0066566D01*
X0194478Y0066524D01*
X0194509Y0066479D01*
X0194537Y0066432D01*
X0194562Y0066383D01*
X0194583Y0066332D01*
X0194600Y0066280D01*
X0194613Y0066227D01*
X0194623Y0066173D01*
X0194629Y0066119D01*
X0194631Y0066064D01*
X0194631Y0065041D01*
X0193097Y0065553D02*
X0193097Y0066830D01*
X0193098Y0065553D02*
X0193096Y0065498D01*
X0193090Y0065444D01*
X0193080Y0065390D01*
X0193067Y0065337D01*
X0193050Y0065285D01*
X0193029Y0065234D01*
X0193004Y0065185D01*
X0192976Y0065138D01*
X0192945Y0065093D01*
X0192911Y0065051D01*
X0192873Y0065011D01*
X0192833Y0064973D01*
X0192791Y0064939D01*
X0192746Y0064908D01*
X0192699Y0064880D01*
X0192650Y0064855D01*
X0192599Y0064834D01*
X0192547Y0064817D01*
X0192494Y0064804D01*
X0192440Y0064794D01*
X0192386Y0064788D01*
X0192331Y0064786D01*
X0192075Y0071290D02*
X0189519Y0071290D01*
X0189519Y0071291D02*
X0189457Y0071293D01*
X0189396Y0071298D01*
X0189335Y0071308D01*
X0189274Y0071321D01*
X0189215Y0071337D01*
X0189157Y0071357D01*
X0189100Y0071381D01*
X0189044Y0071408D01*
X0188990Y0071438D01*
X0188938Y0071472D01*
X0188889Y0071508D01*
X0188841Y0071548D01*
X0188796Y0071590D01*
X0188754Y0071635D01*
X0188715Y0071683D01*
X0188678Y0071732D01*
X0188644Y0071784D01*
X0188614Y0071838D01*
X0188587Y0071894D01*
X0188563Y0071951D01*
X0188543Y0072009D01*
X0188527Y0072068D01*
X0188514Y0072129D01*
X0188504Y0072190D01*
X0188499Y0072251D01*
X0188497Y0072313D01*
X0188497Y0073335D01*
X0192075Y0071291D02*
X0192137Y0071293D01*
X0192198Y0071298D01*
X0192259Y0071308D01*
X0192320Y0071321D01*
X0192379Y0071337D01*
X0192437Y0071357D01*
X0192494Y0071381D01*
X0192550Y0071408D01*
X0192604Y0071438D01*
X0192656Y0071472D01*
X0192705Y0071508D01*
X0192753Y0071548D01*
X0192798Y0071590D01*
X0192840Y0071635D01*
X0192880Y0071683D01*
X0192916Y0071732D01*
X0192950Y0071784D01*
X0192980Y0071838D01*
X0193007Y0071894D01*
X0193031Y0071951D01*
X0193051Y0072009D01*
X0193067Y0072068D01*
X0193080Y0072129D01*
X0193090Y0072190D01*
X0193095Y0072251D01*
X0193097Y0072313D01*
X0193097Y0073335D01*
X0192075Y0075009D02*
X0191053Y0075009D01*
X0190990Y0075011D01*
X0190927Y0075017D01*
X0190865Y0075026D01*
X0190804Y0075040D01*
X0190743Y0075057D01*
X0190684Y0075078D01*
X0190626Y0075103D01*
X0190569Y0075131D01*
X0190515Y0075162D01*
X0190463Y0075197D01*
X0190412Y0075235D01*
X0190364Y0075276D01*
X0190319Y0075320D01*
X0190277Y0075366D01*
X0190237Y0075415D01*
X0190201Y0075466D01*
X0190168Y0075520D01*
X0190138Y0075575D01*
X0190112Y0075633D01*
X0190089Y0075691D01*
X0190070Y0075751D01*
X0190055Y0075812D01*
X0190043Y0075874D01*
X0190035Y0075937D01*
X0190031Y0076000D01*
X0190031Y0076062D01*
X0190035Y0076125D01*
X0190043Y0076188D01*
X0190055Y0076250D01*
X0190070Y0076311D01*
X0190089Y0076371D01*
X0190112Y0076429D01*
X0190138Y0076487D01*
X0190168Y0076542D01*
X0190201Y0076596D01*
X0190237Y0076647D01*
X0190277Y0076696D01*
X0190319Y0076742D01*
X0190364Y0076786D01*
X0190412Y0076827D01*
X0190463Y0076865D01*
X0190515Y0076900D01*
X0190569Y0076931D01*
X0190626Y0076959D01*
X0190684Y0076984D01*
X0190743Y0077005D01*
X0190804Y0077022D01*
X0190865Y0077036D01*
X0190927Y0077045D01*
X0190990Y0077051D01*
X0191053Y0077053D01*
X0192075Y0077053D01*
X0192138Y0077051D01*
X0192201Y0077045D01*
X0192263Y0077036D01*
X0192324Y0077022D01*
X0192385Y0077005D01*
X0192444Y0076984D01*
X0192502Y0076959D01*
X0192559Y0076931D01*
X0192613Y0076900D01*
X0192665Y0076865D01*
X0192716Y0076827D01*
X0192764Y0076786D01*
X0192809Y0076742D01*
X0192851Y0076696D01*
X0192891Y0076647D01*
X0192927Y0076596D01*
X0192960Y0076542D01*
X0192990Y0076487D01*
X0193016Y0076429D01*
X0193039Y0076371D01*
X0193058Y0076311D01*
X0193073Y0076250D01*
X0193085Y0076188D01*
X0193093Y0076125D01*
X0193097Y0076062D01*
X0193097Y0076000D01*
X0193093Y0075937D01*
X0193085Y0075874D01*
X0193073Y0075812D01*
X0193058Y0075751D01*
X0193039Y0075691D01*
X0193016Y0075633D01*
X0192990Y0075575D01*
X0192960Y0075520D01*
X0192927Y0075466D01*
X0192891Y0075415D01*
X0192851Y0075366D01*
X0192809Y0075320D01*
X0192764Y0075276D01*
X0192716Y0075235D01*
X0192665Y0075197D01*
X0192613Y0075162D01*
X0192559Y0075131D01*
X0192502Y0075103D01*
X0192444Y0075078D01*
X0192385Y0075057D01*
X0192324Y0075040D01*
X0192263Y0075026D01*
X0192201Y0075017D01*
X0192138Y0075011D01*
X0192075Y0075009D01*
X0193097Y0079059D02*
X0190031Y0079059D01*
X0190031Y0080337D01*
X0190030Y0080337D02*
X0190032Y0080392D01*
X0190038Y0080446D01*
X0190048Y0080500D01*
X0190061Y0080553D01*
X0190078Y0080605D01*
X0190099Y0080656D01*
X0190124Y0080705D01*
X0190152Y0080752D01*
X0190183Y0080797D01*
X0190217Y0080839D01*
X0190255Y0080879D01*
X0190295Y0080917D01*
X0190337Y0080951D01*
X0190382Y0080982D01*
X0190429Y0081010D01*
X0190478Y0081035D01*
X0190529Y0081056D01*
X0190581Y0081073D01*
X0190634Y0081086D01*
X0190688Y0081096D01*
X0190742Y0081102D01*
X0190797Y0081104D01*
X0190797Y0081103D02*
X0193097Y0081103D01*
X0192331Y0083239D02*
X0188497Y0083239D01*
X0190031Y0082728D02*
X0190031Y0084262D01*
X0190031Y0086135D02*
X0190031Y0087668D01*
X0190542Y0087668D01*
X0191053Y0089109D02*
X0192075Y0089109D01*
X0192138Y0089111D01*
X0192201Y0089117D01*
X0192263Y0089126D01*
X0192324Y0089140D01*
X0192385Y0089157D01*
X0192444Y0089178D01*
X0192502Y0089203D01*
X0192559Y0089231D01*
X0192613Y0089262D01*
X0192665Y0089297D01*
X0192716Y0089335D01*
X0192764Y0089376D01*
X0192809Y0089420D01*
X0192851Y0089466D01*
X0192891Y0089515D01*
X0192927Y0089566D01*
X0192960Y0089620D01*
X0192990Y0089675D01*
X0193016Y0089733D01*
X0193039Y0089791D01*
X0193058Y0089851D01*
X0193073Y0089912D01*
X0193085Y0089974D01*
X0193093Y0090037D01*
X0193097Y0090100D01*
X0193097Y0090162D01*
X0193093Y0090225D01*
X0193085Y0090288D01*
X0193073Y0090350D01*
X0193058Y0090411D01*
X0193039Y0090471D01*
X0193016Y0090529D01*
X0192990Y0090587D01*
X0192960Y0090642D01*
X0192927Y0090696D01*
X0192891Y0090747D01*
X0192851Y0090796D01*
X0192809Y0090842D01*
X0192764Y0090886D01*
X0192716Y0090927D01*
X0192665Y0090965D01*
X0192613Y0091000D01*
X0192559Y0091031D01*
X0192502Y0091059D01*
X0192444Y0091084D01*
X0192385Y0091105D01*
X0192324Y0091122D01*
X0192263Y0091136D01*
X0192201Y0091145D01*
X0192138Y0091151D01*
X0192075Y0091153D01*
X0191053Y0091153D01*
X0190990Y0091151D01*
X0190927Y0091145D01*
X0190865Y0091136D01*
X0190804Y0091122D01*
X0190743Y0091105D01*
X0190684Y0091084D01*
X0190626Y0091059D01*
X0190569Y0091031D01*
X0190515Y0091000D01*
X0190463Y0090965D01*
X0190412Y0090927D01*
X0190364Y0090886D01*
X0190319Y0090842D01*
X0190277Y0090796D01*
X0190237Y0090747D01*
X0190201Y0090696D01*
X0190168Y0090642D01*
X0190138Y0090587D01*
X0190112Y0090529D01*
X0190089Y0090471D01*
X0190070Y0090411D01*
X0190055Y0090350D01*
X0190043Y0090288D01*
X0190035Y0090225D01*
X0190031Y0090162D01*
X0190031Y0090100D01*
X0190035Y0090037D01*
X0190043Y0089974D01*
X0190055Y0089912D01*
X0190070Y0089851D01*
X0190089Y0089791D01*
X0190112Y0089733D01*
X0190138Y0089675D01*
X0190168Y0089620D01*
X0190201Y0089566D01*
X0190237Y0089515D01*
X0190277Y0089466D01*
X0190319Y0089420D01*
X0190364Y0089376D01*
X0190412Y0089335D01*
X0190463Y0089297D01*
X0190515Y0089262D01*
X0190569Y0089231D01*
X0190626Y0089203D01*
X0190684Y0089178D01*
X0190743Y0089157D01*
X0190804Y0089140D01*
X0190865Y0089126D01*
X0190927Y0089117D01*
X0190990Y0089111D01*
X0191053Y0089109D01*
X0190031Y0086135D02*
X0193097Y0086135D01*
X0193097Y0084262D02*
X0193097Y0084006D01*
X0193098Y0084006D02*
X0193096Y0083951D01*
X0193090Y0083897D01*
X0193080Y0083843D01*
X0193067Y0083790D01*
X0193050Y0083738D01*
X0193029Y0083687D01*
X0193004Y0083638D01*
X0192976Y0083591D01*
X0192945Y0083546D01*
X0192911Y0083504D01*
X0192873Y0083464D01*
X0192833Y0083426D01*
X0192791Y0083392D01*
X0192746Y0083361D01*
X0192699Y0083333D01*
X0192650Y0083308D01*
X0192599Y0083287D01*
X0192547Y0083270D01*
X0192494Y0083257D01*
X0192440Y0083247D01*
X0192386Y0083241D01*
X0192331Y0083239D01*
X0192331Y0093068D02*
X0188497Y0093068D01*
X0188497Y0095468D02*
X0192331Y0095468D01*
X0192386Y0095470D01*
X0192440Y0095476D01*
X0192494Y0095486D01*
X0192547Y0095499D01*
X0192599Y0095516D01*
X0192650Y0095537D01*
X0192699Y0095562D01*
X0192746Y0095590D01*
X0192791Y0095621D01*
X0192833Y0095655D01*
X0192873Y0095693D01*
X0192911Y0095733D01*
X0192945Y0095775D01*
X0192976Y0095820D01*
X0193004Y0095867D01*
X0193029Y0095916D01*
X0193050Y0095967D01*
X0193067Y0096019D01*
X0193080Y0096072D01*
X0193090Y0096126D01*
X0193096Y0096180D01*
X0193098Y0096235D01*
X0192331Y0097809D02*
X0191053Y0097809D01*
X0191564Y0097809D02*
X0191564Y0099853D01*
X0191053Y0099853D01*
X0190990Y0099851D01*
X0190927Y0099845D01*
X0190865Y0099836D01*
X0190804Y0099822D01*
X0190743Y0099805D01*
X0190684Y0099784D01*
X0190626Y0099759D01*
X0190569Y0099731D01*
X0190515Y0099700D01*
X0190463Y0099665D01*
X0190412Y0099627D01*
X0190364Y0099586D01*
X0190319Y0099542D01*
X0190277Y0099496D01*
X0190237Y0099447D01*
X0190201Y0099396D01*
X0190168Y0099342D01*
X0190138Y0099287D01*
X0190112Y0099229D01*
X0190089Y0099171D01*
X0190070Y0099111D01*
X0190055Y0099050D01*
X0190043Y0098988D01*
X0190035Y0098925D01*
X0190031Y0098862D01*
X0190031Y0098800D01*
X0190035Y0098737D01*
X0190043Y0098674D01*
X0190055Y0098612D01*
X0190070Y0098551D01*
X0190089Y0098491D01*
X0190112Y0098433D01*
X0190138Y0098375D01*
X0190168Y0098320D01*
X0190201Y0098266D01*
X0190237Y0098215D01*
X0190277Y0098166D01*
X0190319Y0098120D01*
X0190364Y0098076D01*
X0190412Y0098035D01*
X0190463Y0097997D01*
X0190515Y0097962D01*
X0190569Y0097931D01*
X0190626Y0097903D01*
X0190684Y0097878D01*
X0190743Y0097857D01*
X0190804Y0097840D01*
X0190865Y0097826D01*
X0190927Y0097817D01*
X0190990Y0097811D01*
X0191053Y0097809D01*
X0192331Y0097809D02*
X0192386Y0097811D01*
X0192440Y0097817D01*
X0192494Y0097827D01*
X0192547Y0097840D01*
X0192599Y0097857D01*
X0192650Y0097878D01*
X0192699Y0097903D01*
X0192746Y0097931D01*
X0192791Y0097962D01*
X0192833Y0097996D01*
X0192873Y0098034D01*
X0192911Y0098074D01*
X0192945Y0098116D01*
X0192976Y0098161D01*
X0193004Y0098208D01*
X0193029Y0098257D01*
X0193050Y0098308D01*
X0193067Y0098360D01*
X0193080Y0098413D01*
X0193090Y0098467D01*
X0193096Y0098521D01*
X0193098Y0098576D01*
X0193097Y0098576D02*
X0193097Y0099853D01*
X0193097Y0101885D02*
X0190031Y0101885D01*
X0190031Y0103418D01*
X0190542Y0103418D01*
X0193098Y0093835D02*
X0193096Y0093780D01*
X0193090Y0093726D01*
X0193080Y0093672D01*
X0193067Y0093619D01*
X0193050Y0093567D01*
X0193029Y0093516D01*
X0193004Y0093467D01*
X0192976Y0093420D01*
X0192945Y0093375D01*
X0192911Y0093333D01*
X0192873Y0093293D01*
X0192833Y0093255D01*
X0192791Y0093221D01*
X0192746Y0093190D01*
X0192699Y0093162D01*
X0192650Y0093137D01*
X0192599Y0093116D01*
X0192547Y0093099D01*
X0192494Y0093086D01*
X0192440Y0093076D01*
X0192386Y0093070D01*
X0192331Y0093068D01*
X0106554Y0134384D02*
X0105276Y0134384D01*
X0106554Y0134384D02*
X0106624Y0134386D01*
X0106695Y0134392D01*
X0106764Y0134401D01*
X0106833Y0134415D01*
X0106902Y0134432D01*
X0106969Y0134453D01*
X0107035Y0134478D01*
X0107099Y0134506D01*
X0107162Y0134538D01*
X0107223Y0134573D01*
X0107282Y0134612D01*
X0107339Y0134653D01*
X0107393Y0134698D01*
X0107445Y0134746D01*
X0107494Y0134796D01*
X0107541Y0134850D01*
X0107584Y0134905D01*
X0107624Y0134963D01*
X0107661Y0135023D01*
X0107694Y0135085D01*
X0107724Y0135149D01*
X0107751Y0135214D01*
X0107774Y0135280D01*
X0107793Y0135348D01*
X0107808Y0135417D01*
X0107820Y0135486D01*
X0107828Y0135556D01*
X0107832Y0135627D01*
X0107832Y0135697D01*
X0107828Y0135768D01*
X0107820Y0135838D01*
X0107808Y0135907D01*
X0107793Y0135976D01*
X0107774Y0136044D01*
X0107751Y0136110D01*
X0107724Y0136175D01*
X0107694Y0136239D01*
X0107661Y0136301D01*
X0107624Y0136361D01*
X0107584Y0136419D01*
X0107541Y0136474D01*
X0107494Y0136528D01*
X0107445Y0136578D01*
X0107393Y0136626D01*
X0107339Y0136671D01*
X0107282Y0136712D01*
X0107223Y0136751D01*
X0107162Y0136786D01*
X0107099Y0136818D01*
X0107035Y0136846D01*
X0106969Y0136871D01*
X0106902Y0136892D01*
X0106833Y0136909D01*
X0106764Y0136923D01*
X0106695Y0136932D01*
X0106624Y0136938D01*
X0106554Y0136940D01*
X0106809Y0136940D02*
X0105787Y0136940D01*
X0101159Y0135023D02*
X0101111Y0135127D01*
X0101065Y0135232D01*
X0101023Y0135338D01*
X0100984Y0135446D01*
X0100948Y0135555D01*
X0100916Y0135665D01*
X0100886Y0135776D01*
X0100861Y0135888D01*
X0100838Y0136000D01*
X0100819Y0136113D01*
X0100804Y0136227D01*
X0100792Y0136341D01*
X0100783Y0136455D01*
X0100778Y0136569D01*
X0100776Y0136684D01*
X0103332Y0136684D02*
X0103330Y0136799D01*
X0103325Y0136913D01*
X0103316Y0137027D01*
X0103304Y0137141D01*
X0103289Y0137255D01*
X0103270Y0137368D01*
X0103247Y0137480D01*
X0103222Y0137592D01*
X0103192Y0137703D01*
X0103160Y0137813D01*
X0103124Y0137922D01*
X0103085Y0138030D01*
X0103043Y0138136D01*
X0102997Y0138241D01*
X0102949Y0138345D01*
X0103076Y0137962D02*
X0101031Y0135406D01*
X0102054Y0134384D02*
X0102113Y0134386D01*
X0102171Y0134391D01*
X0102229Y0134400D01*
X0102286Y0134413D01*
X0102343Y0134429D01*
X0102398Y0134449D01*
X0102452Y0134472D01*
X0102504Y0134498D01*
X0102555Y0134528D01*
X0102604Y0134560D01*
X0102651Y0134596D01*
X0102695Y0134634D01*
X0102737Y0134675D01*
X0102776Y0134719D01*
X0102813Y0134765D01*
X0102846Y0134813D01*
X0102877Y0134863D01*
X0102904Y0134915D01*
X0102928Y0134968D01*
X0102949Y0135023D01*
X0102054Y0134384D02*
X0101995Y0134386D01*
X0101937Y0134391D01*
X0101879Y0134400D01*
X0101822Y0134413D01*
X0101765Y0134429D01*
X0101710Y0134449D01*
X0101656Y0134472D01*
X0101604Y0134498D01*
X0101553Y0134528D01*
X0101504Y0134560D01*
X0101457Y0134596D01*
X0101413Y0134634D01*
X0101371Y0134675D01*
X0101332Y0134719D01*
X0101295Y0134765D01*
X0101262Y0134813D01*
X0101231Y0134863D01*
X0101204Y0134915D01*
X0101180Y0134968D01*
X0101159Y0135023D01*
X0102949Y0135023D02*
X0102997Y0135127D01*
X0103043Y0135232D01*
X0103085Y0135338D01*
X0103124Y0135446D01*
X0103160Y0135555D01*
X0103192Y0135665D01*
X0103222Y0135776D01*
X0103247Y0135888D01*
X0103270Y0136000D01*
X0103289Y0136113D01*
X0103304Y0136227D01*
X0103316Y0136341D01*
X0103325Y0136455D01*
X0103330Y0136569D01*
X0103332Y0136684D01*
X0100776Y0136684D02*
X0100778Y0136799D01*
X0100783Y0136913D01*
X0100792Y0137027D01*
X0100804Y0137141D01*
X0100819Y0137255D01*
X0100838Y0137368D01*
X0100861Y0137480D01*
X0100886Y0137592D01*
X0100916Y0137703D01*
X0100948Y0137813D01*
X0100984Y0137922D01*
X0101023Y0138030D01*
X0101065Y0138136D01*
X0101111Y0138241D01*
X0101159Y0138345D01*
X0102054Y0138985D02*
X0102113Y0138983D01*
X0102171Y0138978D01*
X0102229Y0138969D01*
X0102286Y0138956D01*
X0102343Y0138940D01*
X0102398Y0138920D01*
X0102452Y0138897D01*
X0102504Y0138871D01*
X0102555Y0138841D01*
X0102604Y0138809D01*
X0102651Y0138773D01*
X0102695Y0138735D01*
X0102737Y0138694D01*
X0102776Y0138650D01*
X0102813Y0138604D01*
X0102846Y0138556D01*
X0102877Y0138506D01*
X0102904Y0138454D01*
X0102928Y0138401D01*
X0102949Y0138346D01*
X0102054Y0138985D02*
X0101995Y0138983D01*
X0101937Y0138978D01*
X0101879Y0138969D01*
X0101822Y0138956D01*
X0101765Y0138940D01*
X0101710Y0138920D01*
X0101656Y0138897D01*
X0101604Y0138871D01*
X0101553Y0138841D01*
X0101504Y0138809D01*
X0101457Y0138773D01*
X0101413Y0138735D01*
X0101371Y0138694D01*
X0101332Y0138650D01*
X0101295Y0138604D01*
X0101262Y0138556D01*
X0101231Y0138506D01*
X0101204Y0138454D01*
X0101180Y0138401D01*
X0101159Y0138346D01*
X0098787Y0136173D02*
X0095720Y0136173D01*
X0093731Y0135918D02*
X0093731Y0135662D01*
X0093731Y0135918D02*
X0093729Y0135980D01*
X0093724Y0136041D01*
X0093714Y0136102D01*
X0093701Y0136163D01*
X0093685Y0136222D01*
X0093665Y0136280D01*
X0093641Y0136337D01*
X0093614Y0136393D01*
X0093584Y0136447D01*
X0093550Y0136499D01*
X0093514Y0136548D01*
X0093474Y0136596D01*
X0093432Y0136641D01*
X0093387Y0136683D01*
X0093339Y0136723D01*
X0093290Y0136759D01*
X0093238Y0136793D01*
X0093184Y0136823D01*
X0093128Y0136850D01*
X0093071Y0136874D01*
X0093013Y0136894D01*
X0092954Y0136910D01*
X0092893Y0136923D01*
X0092832Y0136933D01*
X0092771Y0136938D01*
X0092709Y0136940D01*
X0091176Y0136940D01*
X0091176Y0135662D01*
X0087059Y0135023D02*
X0087011Y0135127D01*
X0086965Y0135232D01*
X0086923Y0135338D01*
X0086884Y0135446D01*
X0086848Y0135555D01*
X0086816Y0135665D01*
X0086786Y0135776D01*
X0086761Y0135888D01*
X0086738Y0136000D01*
X0086719Y0136113D01*
X0086704Y0136227D01*
X0086692Y0136341D01*
X0086683Y0136455D01*
X0086678Y0136569D01*
X0086676Y0136684D01*
X0089232Y0136684D02*
X0089230Y0136799D01*
X0089225Y0136913D01*
X0089216Y0137027D01*
X0089204Y0137141D01*
X0089189Y0137255D01*
X0089170Y0137368D01*
X0089147Y0137480D01*
X0089122Y0137592D01*
X0089092Y0137703D01*
X0089060Y0137813D01*
X0089024Y0137922D01*
X0088985Y0138030D01*
X0088943Y0138136D01*
X0088897Y0138241D01*
X0088849Y0138345D01*
X0088976Y0137962D02*
X0086931Y0135406D01*
X0087954Y0134384D02*
X0088013Y0134386D01*
X0088071Y0134391D01*
X0088129Y0134400D01*
X0088186Y0134413D01*
X0088243Y0134429D01*
X0088298Y0134449D01*
X0088352Y0134472D01*
X0088404Y0134498D01*
X0088455Y0134528D01*
X0088504Y0134560D01*
X0088551Y0134596D01*
X0088595Y0134634D01*
X0088637Y0134675D01*
X0088676Y0134719D01*
X0088713Y0134765D01*
X0088746Y0134813D01*
X0088777Y0134863D01*
X0088804Y0134915D01*
X0088828Y0134968D01*
X0088849Y0135023D01*
X0087954Y0134384D02*
X0087895Y0134386D01*
X0087837Y0134391D01*
X0087779Y0134400D01*
X0087722Y0134413D01*
X0087665Y0134429D01*
X0087610Y0134449D01*
X0087556Y0134472D01*
X0087504Y0134498D01*
X0087453Y0134528D01*
X0087404Y0134560D01*
X0087357Y0134596D01*
X0087313Y0134634D01*
X0087271Y0134675D01*
X0087232Y0134719D01*
X0087195Y0134765D01*
X0087162Y0134813D01*
X0087131Y0134863D01*
X0087104Y0134915D01*
X0087080Y0134968D01*
X0087059Y0135023D01*
X0088849Y0135023D02*
X0088897Y0135127D01*
X0088943Y0135232D01*
X0088985Y0135338D01*
X0089024Y0135446D01*
X0089060Y0135555D01*
X0089092Y0135665D01*
X0089122Y0135776D01*
X0089147Y0135888D01*
X0089170Y0136000D01*
X0089189Y0136113D01*
X0089204Y0136227D01*
X0089216Y0136341D01*
X0089225Y0136455D01*
X0089230Y0136569D01*
X0089232Y0136684D01*
X0086676Y0136684D02*
X0086678Y0136799D01*
X0086683Y0136913D01*
X0086692Y0137027D01*
X0086704Y0137141D01*
X0086719Y0137255D01*
X0086738Y0137368D01*
X0086761Y0137480D01*
X0086786Y0137592D01*
X0086816Y0137703D01*
X0086848Y0137813D01*
X0086884Y0137922D01*
X0086923Y0138030D01*
X0086965Y0138136D01*
X0087011Y0138241D01*
X0087059Y0138345D01*
X0087954Y0138985D02*
X0088013Y0138983D01*
X0088071Y0138978D01*
X0088129Y0138969D01*
X0088186Y0138956D01*
X0088243Y0138940D01*
X0088298Y0138920D01*
X0088352Y0138897D01*
X0088404Y0138871D01*
X0088455Y0138841D01*
X0088504Y0138809D01*
X0088551Y0138773D01*
X0088595Y0138735D01*
X0088637Y0138694D01*
X0088676Y0138650D01*
X0088713Y0138604D01*
X0088746Y0138556D01*
X0088777Y0138506D01*
X0088804Y0138454D01*
X0088828Y0138401D01*
X0088849Y0138346D01*
X0087954Y0138985D02*
X0087895Y0138983D01*
X0087837Y0138978D01*
X0087779Y0138969D01*
X0087722Y0138956D01*
X0087665Y0138940D01*
X0087610Y0138920D01*
X0087556Y0138897D01*
X0087504Y0138871D01*
X0087453Y0138841D01*
X0087404Y0138809D01*
X0087357Y0138773D01*
X0087313Y0138735D01*
X0087271Y0138694D01*
X0087232Y0138650D01*
X0087195Y0138604D01*
X0087162Y0138556D01*
X0087131Y0138506D01*
X0087104Y0138454D01*
X0087080Y0138401D01*
X0087059Y0138346D01*
X0084687Y0136173D02*
X0081620Y0136173D01*
X0078609Y0136940D02*
X0077587Y0136940D01*
X0078609Y0136940D02*
X0078672Y0136942D01*
X0078735Y0136948D01*
X0078797Y0136957D01*
X0078858Y0136971D01*
X0078919Y0136988D01*
X0078978Y0137009D01*
X0079036Y0137034D01*
X0079093Y0137062D01*
X0079147Y0137093D01*
X0079199Y0137128D01*
X0079250Y0137166D01*
X0079298Y0137207D01*
X0079343Y0137251D01*
X0079385Y0137297D01*
X0079425Y0137346D01*
X0079461Y0137397D01*
X0079494Y0137451D01*
X0079524Y0137506D01*
X0079550Y0137564D01*
X0079573Y0137622D01*
X0079592Y0137682D01*
X0079607Y0137743D01*
X0079619Y0137805D01*
X0079627Y0137868D01*
X0079631Y0137931D01*
X0079631Y0137993D01*
X0079627Y0138056D01*
X0079619Y0138119D01*
X0079607Y0138181D01*
X0079592Y0138242D01*
X0079573Y0138302D01*
X0079550Y0138360D01*
X0079524Y0138418D01*
X0079494Y0138473D01*
X0079461Y0138527D01*
X0079425Y0138578D01*
X0079385Y0138627D01*
X0079343Y0138673D01*
X0079298Y0138717D01*
X0079250Y0138758D01*
X0079199Y0138796D01*
X0079147Y0138831D01*
X0079093Y0138862D01*
X0079036Y0138890D01*
X0078978Y0138915D01*
X0078919Y0138936D01*
X0078858Y0138953D01*
X0078797Y0138967D01*
X0078735Y0138976D01*
X0078672Y0138982D01*
X0078609Y0138984D01*
X0077076Y0138984D01*
X0074748Y0136940D02*
X0072576Y0134384D01*
X0075132Y0134384D01*
X0077076Y0134384D02*
X0078354Y0134384D01*
X0078424Y0134386D01*
X0078495Y0134392D01*
X0078564Y0134401D01*
X0078633Y0134415D01*
X0078702Y0134432D01*
X0078769Y0134453D01*
X0078835Y0134478D01*
X0078899Y0134506D01*
X0078962Y0134538D01*
X0079023Y0134573D01*
X0079082Y0134612D01*
X0079139Y0134653D01*
X0079193Y0134698D01*
X0079245Y0134746D01*
X0079294Y0134796D01*
X0079341Y0134850D01*
X0079384Y0134905D01*
X0079424Y0134963D01*
X0079461Y0135023D01*
X0079494Y0135085D01*
X0079524Y0135149D01*
X0079551Y0135214D01*
X0079574Y0135280D01*
X0079593Y0135348D01*
X0079608Y0135417D01*
X0079620Y0135486D01*
X0079628Y0135556D01*
X0079632Y0135627D01*
X0079632Y0135697D01*
X0079628Y0135768D01*
X0079620Y0135838D01*
X0079608Y0135907D01*
X0079593Y0135976D01*
X0079574Y0136044D01*
X0079551Y0136110D01*
X0079524Y0136175D01*
X0079494Y0136239D01*
X0079461Y0136301D01*
X0079424Y0136361D01*
X0079384Y0136419D01*
X0079341Y0136474D01*
X0079294Y0136528D01*
X0079245Y0136578D01*
X0079193Y0136626D01*
X0079139Y0136671D01*
X0079082Y0136712D01*
X0079023Y0136751D01*
X0078962Y0136786D01*
X0078899Y0136818D01*
X0078835Y0136846D01*
X0078769Y0136871D01*
X0078702Y0136892D01*
X0078633Y0136909D01*
X0078564Y0136923D01*
X0078495Y0136932D01*
X0078424Y0136938D01*
X0078354Y0136940D01*
X0073982Y0138984D02*
X0073908Y0138982D01*
X0073834Y0138977D01*
X0073760Y0138967D01*
X0073687Y0138954D01*
X0073614Y0138938D01*
X0073543Y0138917D01*
X0073473Y0138893D01*
X0073404Y0138866D01*
X0073336Y0138835D01*
X0073270Y0138801D01*
X0073206Y0138764D01*
X0073144Y0138723D01*
X0073084Y0138679D01*
X0073026Y0138633D01*
X0072970Y0138583D01*
X0072917Y0138531D01*
X0072867Y0138476D01*
X0072820Y0138419D01*
X0072776Y0138359D01*
X0072734Y0138297D01*
X0072696Y0138234D01*
X0072661Y0138168D01*
X0072630Y0138101D01*
X0072602Y0138032D01*
X0072577Y0137962D01*
X0074748Y0136940D02*
X0074795Y0136987D01*
X0074839Y0137037D01*
X0074881Y0137089D01*
X0074920Y0137143D01*
X0074955Y0137199D01*
X0074988Y0137257D01*
X0075018Y0137317D01*
X0075044Y0137378D01*
X0075067Y0137441D01*
X0075086Y0137505D01*
X0075102Y0137569D01*
X0075115Y0137635D01*
X0075124Y0137701D01*
X0075129Y0137767D01*
X0075131Y0137834D01*
X0075132Y0137834D02*
X0075130Y0137901D01*
X0075124Y0137968D01*
X0075115Y0138034D01*
X0075101Y0138099D01*
X0075084Y0138164D01*
X0075063Y0138227D01*
X0075038Y0138289D01*
X0075010Y0138350D01*
X0074978Y0138409D01*
X0074943Y0138466D01*
X0074904Y0138521D01*
X0074863Y0138573D01*
X0074818Y0138623D01*
X0074771Y0138670D01*
X0074721Y0138715D01*
X0074669Y0138756D01*
X0074614Y0138795D01*
X0074557Y0138830D01*
X0074498Y0138862D01*
X0074437Y0138890D01*
X0074375Y0138915D01*
X0074312Y0138936D01*
X0074247Y0138953D01*
X0074182Y0138967D01*
X0074116Y0138976D01*
X0074049Y0138982D01*
X0073982Y0138984D01*
X0070376Y0137962D02*
X0068332Y0135406D01*
X0069354Y0134384D02*
X0069413Y0134386D01*
X0069471Y0134391D01*
X0069529Y0134400D01*
X0069586Y0134413D01*
X0069643Y0134429D01*
X0069698Y0134449D01*
X0069752Y0134472D01*
X0069804Y0134498D01*
X0069855Y0134528D01*
X0069904Y0134560D01*
X0069951Y0134596D01*
X0069995Y0134634D01*
X0070037Y0134675D01*
X0070076Y0134719D01*
X0070113Y0134765D01*
X0070146Y0134813D01*
X0070177Y0134863D01*
X0070204Y0134915D01*
X0070228Y0134968D01*
X0070249Y0135023D01*
X0069354Y0134384D02*
X0069295Y0134386D01*
X0069237Y0134391D01*
X0069179Y0134400D01*
X0069122Y0134413D01*
X0069065Y0134429D01*
X0069010Y0134449D01*
X0068956Y0134472D01*
X0068904Y0134498D01*
X0068853Y0134528D01*
X0068804Y0134560D01*
X0068757Y0134596D01*
X0068713Y0134634D01*
X0068671Y0134675D01*
X0068632Y0134719D01*
X0068595Y0134765D01*
X0068562Y0134813D01*
X0068531Y0134863D01*
X0068504Y0134915D01*
X0068480Y0134968D01*
X0068459Y0135023D01*
X0070632Y0136684D02*
X0070630Y0136799D01*
X0070625Y0136913D01*
X0070616Y0137027D01*
X0070604Y0137141D01*
X0070589Y0137255D01*
X0070570Y0137368D01*
X0070547Y0137480D01*
X0070522Y0137592D01*
X0070492Y0137703D01*
X0070460Y0137813D01*
X0070424Y0137922D01*
X0070385Y0138030D01*
X0070343Y0138136D01*
X0070297Y0138241D01*
X0070249Y0138345D01*
X0070249Y0138346D02*
X0070228Y0138401D01*
X0070204Y0138454D01*
X0070177Y0138506D01*
X0070146Y0138556D01*
X0070113Y0138604D01*
X0070076Y0138650D01*
X0070037Y0138694D01*
X0069995Y0138735D01*
X0069951Y0138773D01*
X0069904Y0138809D01*
X0069855Y0138841D01*
X0069804Y0138871D01*
X0069752Y0138897D01*
X0069698Y0138920D01*
X0069643Y0138940D01*
X0069586Y0138956D01*
X0069529Y0138969D01*
X0069471Y0138978D01*
X0069413Y0138983D01*
X0069354Y0138985D01*
X0069295Y0138983D01*
X0069237Y0138978D01*
X0069179Y0138969D01*
X0069122Y0138956D01*
X0069065Y0138940D01*
X0069010Y0138920D01*
X0068956Y0138897D01*
X0068904Y0138871D01*
X0068853Y0138841D01*
X0068804Y0138809D01*
X0068757Y0138773D01*
X0068713Y0138735D01*
X0068671Y0138694D01*
X0068632Y0138650D01*
X0068595Y0138604D01*
X0068562Y0138556D01*
X0068531Y0138506D01*
X0068504Y0138454D01*
X0068480Y0138401D01*
X0068459Y0138346D01*
X0065748Y0136940D02*
X0063576Y0134384D01*
X0066132Y0134384D01*
X0070249Y0135023D02*
X0070297Y0135127D01*
X0070343Y0135232D01*
X0070385Y0135338D01*
X0070424Y0135446D01*
X0070460Y0135555D01*
X0070492Y0135665D01*
X0070522Y0135776D01*
X0070547Y0135888D01*
X0070570Y0136000D01*
X0070589Y0136113D01*
X0070604Y0136227D01*
X0070616Y0136341D01*
X0070625Y0136455D01*
X0070630Y0136569D01*
X0070632Y0136684D01*
X0068076Y0136684D02*
X0068078Y0136799D01*
X0068083Y0136913D01*
X0068092Y0137027D01*
X0068104Y0137141D01*
X0068119Y0137255D01*
X0068138Y0137368D01*
X0068161Y0137480D01*
X0068186Y0137592D01*
X0068216Y0137703D01*
X0068248Y0137813D01*
X0068284Y0137922D01*
X0068323Y0138030D01*
X0068365Y0138136D01*
X0068411Y0138241D01*
X0068459Y0138345D01*
X0066132Y0137834D02*
X0066130Y0137901D01*
X0066124Y0137968D01*
X0066115Y0138034D01*
X0066101Y0138099D01*
X0066084Y0138164D01*
X0066063Y0138227D01*
X0066038Y0138289D01*
X0066010Y0138350D01*
X0065978Y0138409D01*
X0065943Y0138466D01*
X0065904Y0138521D01*
X0065863Y0138573D01*
X0065818Y0138623D01*
X0065771Y0138670D01*
X0065721Y0138715D01*
X0065669Y0138756D01*
X0065614Y0138795D01*
X0065557Y0138830D01*
X0065498Y0138862D01*
X0065437Y0138890D01*
X0065375Y0138915D01*
X0065312Y0138936D01*
X0065247Y0138953D01*
X0065182Y0138967D01*
X0065116Y0138976D01*
X0065049Y0138982D01*
X0064982Y0138984D01*
X0066131Y0137834D02*
X0066129Y0137767D01*
X0066124Y0137701D01*
X0066115Y0137635D01*
X0066102Y0137569D01*
X0066086Y0137505D01*
X0066067Y0137441D01*
X0066044Y0137378D01*
X0066018Y0137317D01*
X0065988Y0137257D01*
X0065955Y0137199D01*
X0065920Y0137143D01*
X0065881Y0137089D01*
X0065839Y0137037D01*
X0065795Y0136987D01*
X0065748Y0136940D01*
X0064982Y0138984D02*
X0064908Y0138982D01*
X0064834Y0138977D01*
X0064760Y0138967D01*
X0064687Y0138954D01*
X0064614Y0138938D01*
X0064543Y0138917D01*
X0064473Y0138893D01*
X0064404Y0138866D01*
X0064336Y0138835D01*
X0064270Y0138801D01*
X0064206Y0138764D01*
X0064144Y0138723D01*
X0064084Y0138679D01*
X0064026Y0138633D01*
X0063970Y0138583D01*
X0063917Y0138531D01*
X0063867Y0138476D01*
X0063820Y0138419D01*
X0063776Y0138359D01*
X0063734Y0138297D01*
X0063696Y0138234D01*
X0063661Y0138168D01*
X0063630Y0138101D01*
X0063602Y0138032D01*
X0063577Y0137962D01*
X0068076Y0136684D02*
X0068078Y0136569D01*
X0068083Y0136455D01*
X0068092Y0136341D01*
X0068104Y0136227D01*
X0068119Y0136113D01*
X0068138Y0136000D01*
X0068161Y0135888D01*
X0068186Y0135776D01*
X0068216Y0135665D01*
X0068248Y0135555D01*
X0068284Y0135446D01*
X0068323Y0135338D01*
X0068365Y0135232D01*
X0068411Y0135127D01*
X0068459Y0135023D01*
X0091176Y0135662D02*
X0091178Y0135592D01*
X0091184Y0135521D01*
X0091193Y0135452D01*
X0091207Y0135383D01*
X0091224Y0135314D01*
X0091245Y0135247D01*
X0091270Y0135181D01*
X0091298Y0135117D01*
X0091330Y0135054D01*
X0091365Y0134993D01*
X0091404Y0134934D01*
X0091445Y0134877D01*
X0091490Y0134823D01*
X0091538Y0134771D01*
X0091588Y0134722D01*
X0091642Y0134675D01*
X0091697Y0134632D01*
X0091755Y0134592D01*
X0091815Y0134555D01*
X0091877Y0134522D01*
X0091941Y0134492D01*
X0092006Y0134465D01*
X0092072Y0134442D01*
X0092140Y0134423D01*
X0092209Y0134408D01*
X0092278Y0134396D01*
X0092348Y0134388D01*
X0092419Y0134384D01*
X0092489Y0134384D01*
X0092560Y0134388D01*
X0092630Y0134396D01*
X0092699Y0134408D01*
X0092768Y0134423D01*
X0092836Y0134442D01*
X0092902Y0134465D01*
X0092967Y0134492D01*
X0093031Y0134522D01*
X0093093Y0134555D01*
X0093153Y0134592D01*
X0093211Y0134632D01*
X0093266Y0134675D01*
X0093320Y0134722D01*
X0093370Y0134771D01*
X0093418Y0134823D01*
X0093463Y0134877D01*
X0093504Y0134934D01*
X0093543Y0134993D01*
X0093578Y0135054D01*
X0093610Y0135117D01*
X0093638Y0135181D01*
X0093663Y0135247D01*
X0093684Y0135314D01*
X0093701Y0135383D01*
X0093715Y0135452D01*
X0093724Y0135521D01*
X0093730Y0135592D01*
X0093732Y0135662D01*
X0091176Y0136940D02*
X0091178Y0137029D01*
X0091184Y0137118D01*
X0091193Y0137207D01*
X0091207Y0137295D01*
X0091224Y0137382D01*
X0091246Y0137469D01*
X0091271Y0137555D01*
X0091299Y0137639D01*
X0091332Y0137722D01*
X0091368Y0137804D01*
X0091407Y0137884D01*
X0091450Y0137962D01*
X0091496Y0138038D01*
X0091546Y0138112D01*
X0091598Y0138184D01*
X0091654Y0138254D01*
X0091713Y0138321D01*
X0091775Y0138385D01*
X0091839Y0138447D01*
X0091906Y0138506D01*
X0091976Y0138562D01*
X0092048Y0138614D01*
X0092122Y0138664D01*
X0092198Y0138710D01*
X0092276Y0138753D01*
X0092356Y0138792D01*
X0092438Y0138828D01*
X0092521Y0138861D01*
X0092605Y0138889D01*
X0092691Y0138914D01*
X0092778Y0138936D01*
X0092865Y0138953D01*
X0092953Y0138967D01*
X0093042Y0138976D01*
X0093131Y0138982D01*
X0093220Y0138984D01*
X0105276Y0138984D02*
X0106809Y0138984D01*
X0106872Y0138982D01*
X0106935Y0138976D01*
X0106997Y0138967D01*
X0107058Y0138953D01*
X0107119Y0138936D01*
X0107178Y0138915D01*
X0107236Y0138890D01*
X0107293Y0138862D01*
X0107347Y0138831D01*
X0107399Y0138796D01*
X0107450Y0138758D01*
X0107498Y0138717D01*
X0107543Y0138673D01*
X0107585Y0138627D01*
X0107625Y0138578D01*
X0107661Y0138527D01*
X0107694Y0138473D01*
X0107724Y0138418D01*
X0107750Y0138360D01*
X0107773Y0138302D01*
X0107792Y0138242D01*
X0107807Y0138181D01*
X0107819Y0138119D01*
X0107827Y0138056D01*
X0107831Y0137993D01*
X0107831Y0137931D01*
X0107827Y0137868D01*
X0107819Y0137805D01*
X0107807Y0137743D01*
X0107792Y0137682D01*
X0107773Y0137622D01*
X0107750Y0137564D01*
X0107724Y0137506D01*
X0107694Y0137451D01*
X0107661Y0137397D01*
X0107625Y0137346D01*
X0107585Y0137297D01*
X0107543Y0137251D01*
X0107498Y0137207D01*
X0107450Y0137166D01*
X0107399Y0137128D01*
X0107347Y0137093D01*
X0107293Y0137062D01*
X0107236Y0137034D01*
X0107178Y0137009D01*
X0107119Y0136988D01*
X0107058Y0136971D01*
X0106997Y0136957D01*
X0106935Y0136948D01*
X0106872Y0136942D01*
X0106809Y0136940D01*
D12*
X0108652Y0144027D02*
X0163770Y0144027D01*
X0163770Y0122373D01*
X0108652Y0122373D01*
X0108652Y0075129D01*
X0163770Y0075129D01*
X0163770Y0122373D01*
X0157864Y0126310D02*
X0157864Y0138121D01*
X0149990Y0138121D01*
X0149990Y0130247D01*
X0140148Y0130247D01*
X0140148Y0138121D01*
X0130305Y0138121D01*
X0130305Y0130247D01*
X0122431Y0130247D01*
X0122431Y0138121D01*
X0118494Y0138121D01*
X0118494Y0122373D01*
X0114557Y0122373D02*
X0114557Y0138121D01*
X0118494Y0138121D01*
X0108652Y0144027D02*
X0108652Y0122373D01*
X0103927Y0111743D02*
X0103927Y0105444D01*
X0097628Y0105444D02*
X0097628Y0111743D01*
X0089754Y0101901D02*
X0089754Y0095602D01*
X0084242Y0095602D02*
X0084242Y0101901D01*
X0078337Y0105838D02*
X0072037Y0105838D01*
X0072037Y0111350D02*
X0078337Y0111350D01*
X0076762Y0099539D02*
X0073612Y0099539D01*
X0059439Y0081035D02*
X0049596Y0081035D01*
X0059439Y0081035D02*
X0059439Y0136153D01*
X0049596Y0136153D01*
X0033848Y0136153D02*
X0004321Y0136153D01*
X0004321Y0081035D02*
X0033848Y0081035D01*
X0033848Y0065287D02*
X0004321Y0065287D01*
X0049596Y0065287D02*
X0059439Y0065287D01*
X0059439Y0010169D01*
X0049596Y0010169D01*
X0033848Y0010169D02*
X0004321Y0010169D01*
X0072037Y0050720D02*
X0078337Y0050720D01*
X0084242Y0046783D02*
X0084242Y0040483D01*
X0089754Y0040483D02*
X0089754Y0046783D01*
X0076762Y0044420D02*
X0073612Y0044420D01*
X0072037Y0056231D02*
X0078337Y0056231D01*
X0105502Y0044814D02*
X0111801Y0044814D01*
X0115344Y0042846D02*
X0115344Y0036546D01*
X0111801Y0038515D02*
X0105502Y0038515D01*
X0121644Y0036546D02*
X0121644Y0042846D01*
X0124085Y0025917D02*
X0124085Y0069224D01*
X0164085Y0069224D01*
X0164085Y0025917D01*
X0124085Y0025917D01*
X0123927Y0021074D02*
X0133927Y0021074D01*
X0133927Y0011074D01*
X0183927Y0011074D01*
X0183927Y0021074D01*
X0133927Y0021074D01*
X0123927Y0021074D02*
X0123927Y0011074D01*
X0133927Y0011074D01*
X0117746Y0011074D02*
X0117746Y0021074D01*
X0097746Y0021074D01*
X0097746Y0011074D01*
X0117746Y0011074D01*
X0092156Y0011074D02*
X0092156Y0021074D01*
X0072156Y0021074D01*
X0072156Y0011074D01*
X0092156Y0011074D01*
X0107470Y0062137D02*
X0113770Y0062137D01*
X0113770Y0068436D02*
X0107470Y0068436D01*
D13*
X0081093Y0044027D02*
X0081093Y0038909D01*
X0077549Y0038909D01*
X0072825Y0038909D02*
X0069281Y0038909D01*
X0069281Y0044027D01*
X0069281Y0094027D02*
X0069281Y0099145D01*
X0069281Y0094027D02*
X0072825Y0094027D01*
X0077549Y0094027D02*
X0081093Y0094027D01*
X0081093Y0099145D01*
D14*
X0104628Y0056665D02*
X0104628Y0050287D01*
X0108959Y0056665D02*
X0112281Y0056665D01*
X0116612Y0056665D02*
X0116612Y0050287D01*
M02*
