G75*
%MOIN*%
%OFA0B0*%
%FSLAX25Y25*%
%IPPOS*%
%LPD*%
%AMOC8*
5,1,8,0,0,1.08239X$1,22.5*
%
%ADD10C,0.00000*%
%ADD11C,0.01388*%
%ADD12C,0.01171*%
%ADD13R,0.03156X0.03156*%
%ADD14R,0.01975X0.03550*%
%ADD15R,0.03550X0.01975*%
%ADD16R,0.06109X0.06109*%
%ADD17R,0.07400X0.07400*%
%ADD18C,0.07400*%
%ADD19C,0.12211*%
%ADD20R,0.04731X0.02762*%
%ADD21R,0.04731X0.14967*%
%ADD22C,0.01613*%
%ADD23C,0.09061*%
D10*
X0086176Y0058146D02*
X0267279Y0058146D01*
X0267469Y0058148D01*
X0267659Y0058155D01*
X0267849Y0058167D01*
X0268039Y0058183D01*
X0268228Y0058203D01*
X0268417Y0058229D01*
X0268605Y0058258D01*
X0268792Y0058293D01*
X0268978Y0058332D01*
X0269163Y0058375D01*
X0269348Y0058423D01*
X0269531Y0058475D01*
X0269712Y0058531D01*
X0269892Y0058592D01*
X0270071Y0058658D01*
X0270248Y0058727D01*
X0270424Y0058801D01*
X0270597Y0058879D01*
X0270769Y0058962D01*
X0270938Y0059048D01*
X0271106Y0059138D01*
X0271271Y0059233D01*
X0271434Y0059331D01*
X0271594Y0059434D01*
X0271752Y0059540D01*
X0271907Y0059650D01*
X0272060Y0059763D01*
X0272210Y0059881D01*
X0272356Y0060002D01*
X0272500Y0060126D01*
X0272641Y0060254D01*
X0272779Y0060385D01*
X0272914Y0060520D01*
X0273045Y0060658D01*
X0273173Y0060799D01*
X0273297Y0060943D01*
X0273418Y0061089D01*
X0273536Y0061239D01*
X0273649Y0061392D01*
X0273759Y0061547D01*
X0273865Y0061705D01*
X0273968Y0061865D01*
X0274066Y0062028D01*
X0274161Y0062193D01*
X0274251Y0062361D01*
X0274337Y0062530D01*
X0274420Y0062702D01*
X0274498Y0062875D01*
X0274572Y0063051D01*
X0274641Y0063228D01*
X0274707Y0063407D01*
X0274768Y0063587D01*
X0274824Y0063768D01*
X0274876Y0063951D01*
X0274924Y0064136D01*
X0274967Y0064321D01*
X0275006Y0064507D01*
X0275041Y0064694D01*
X0275070Y0064882D01*
X0275096Y0065071D01*
X0275116Y0065260D01*
X0275132Y0065450D01*
X0275144Y0065640D01*
X0275151Y0065830D01*
X0275153Y0066020D01*
X0275153Y0170350D01*
X0275151Y0170540D01*
X0275144Y0170730D01*
X0275132Y0170920D01*
X0275116Y0171110D01*
X0275096Y0171299D01*
X0275070Y0171488D01*
X0275041Y0171676D01*
X0275006Y0171863D01*
X0274967Y0172049D01*
X0274924Y0172234D01*
X0274876Y0172419D01*
X0274824Y0172602D01*
X0274768Y0172783D01*
X0274707Y0172963D01*
X0274641Y0173142D01*
X0274572Y0173319D01*
X0274498Y0173495D01*
X0274420Y0173668D01*
X0274337Y0173840D01*
X0274251Y0174009D01*
X0274161Y0174177D01*
X0274066Y0174342D01*
X0273968Y0174505D01*
X0273865Y0174665D01*
X0273759Y0174823D01*
X0273649Y0174978D01*
X0273536Y0175131D01*
X0273418Y0175281D01*
X0273297Y0175427D01*
X0273173Y0175571D01*
X0273045Y0175712D01*
X0272914Y0175850D01*
X0272779Y0175985D01*
X0272641Y0176116D01*
X0272500Y0176244D01*
X0272356Y0176368D01*
X0272210Y0176489D01*
X0272060Y0176607D01*
X0271907Y0176720D01*
X0271752Y0176830D01*
X0271594Y0176936D01*
X0271434Y0177039D01*
X0271271Y0177137D01*
X0271106Y0177232D01*
X0270938Y0177322D01*
X0270769Y0177408D01*
X0270597Y0177491D01*
X0270424Y0177569D01*
X0270248Y0177643D01*
X0270071Y0177712D01*
X0269892Y0177778D01*
X0269712Y0177839D01*
X0269531Y0177895D01*
X0269348Y0177947D01*
X0269163Y0177995D01*
X0268978Y0178038D01*
X0268792Y0178077D01*
X0268605Y0178112D01*
X0268417Y0178141D01*
X0268228Y0178167D01*
X0268039Y0178187D01*
X0267849Y0178203D01*
X0267659Y0178215D01*
X0267469Y0178222D01*
X0267279Y0178224D01*
X0186570Y0178224D01*
X0186380Y0178226D01*
X0186190Y0178233D01*
X0186000Y0178245D01*
X0185810Y0178261D01*
X0185621Y0178281D01*
X0185432Y0178307D01*
X0185244Y0178336D01*
X0185057Y0178371D01*
X0184871Y0178410D01*
X0184686Y0178453D01*
X0184501Y0178501D01*
X0184318Y0178553D01*
X0184137Y0178609D01*
X0183957Y0178670D01*
X0183778Y0178736D01*
X0183601Y0178805D01*
X0183425Y0178879D01*
X0183252Y0178957D01*
X0183080Y0179040D01*
X0182911Y0179126D01*
X0182743Y0179216D01*
X0182578Y0179311D01*
X0182415Y0179409D01*
X0182255Y0179512D01*
X0182097Y0179618D01*
X0181942Y0179728D01*
X0181789Y0179841D01*
X0181639Y0179959D01*
X0181493Y0180080D01*
X0181349Y0180204D01*
X0181208Y0180332D01*
X0181070Y0180463D01*
X0180935Y0180598D01*
X0180804Y0180736D01*
X0180676Y0180877D01*
X0180552Y0181021D01*
X0180431Y0181167D01*
X0180313Y0181317D01*
X0180200Y0181470D01*
X0180090Y0181625D01*
X0179984Y0181783D01*
X0179881Y0181943D01*
X0179783Y0182106D01*
X0179688Y0182271D01*
X0179598Y0182439D01*
X0179512Y0182608D01*
X0179429Y0182780D01*
X0179351Y0182953D01*
X0179277Y0183129D01*
X0179208Y0183306D01*
X0179142Y0183485D01*
X0179081Y0183665D01*
X0179025Y0183846D01*
X0178973Y0184029D01*
X0178925Y0184214D01*
X0178882Y0184399D01*
X0178843Y0184585D01*
X0178808Y0184772D01*
X0178779Y0184960D01*
X0178753Y0185149D01*
X0178733Y0185338D01*
X0178717Y0185528D01*
X0178705Y0185718D01*
X0178698Y0185908D01*
X0178696Y0186098D01*
X0178696Y0192004D01*
X0178694Y0192194D01*
X0178687Y0192384D01*
X0178675Y0192574D01*
X0178659Y0192764D01*
X0178639Y0192953D01*
X0178613Y0193142D01*
X0178584Y0193330D01*
X0178549Y0193517D01*
X0178510Y0193703D01*
X0178467Y0193888D01*
X0178419Y0194073D01*
X0178367Y0194256D01*
X0178311Y0194437D01*
X0178250Y0194617D01*
X0178184Y0194796D01*
X0178115Y0194973D01*
X0178041Y0195149D01*
X0177963Y0195322D01*
X0177880Y0195494D01*
X0177794Y0195663D01*
X0177704Y0195831D01*
X0177609Y0195996D01*
X0177511Y0196159D01*
X0177408Y0196319D01*
X0177302Y0196477D01*
X0177192Y0196632D01*
X0177079Y0196785D01*
X0176961Y0196935D01*
X0176840Y0197081D01*
X0176716Y0197225D01*
X0176588Y0197366D01*
X0176457Y0197504D01*
X0176322Y0197639D01*
X0176184Y0197770D01*
X0176043Y0197898D01*
X0175899Y0198022D01*
X0175753Y0198143D01*
X0175603Y0198261D01*
X0175450Y0198374D01*
X0175295Y0198484D01*
X0175137Y0198590D01*
X0174977Y0198693D01*
X0174814Y0198791D01*
X0174649Y0198886D01*
X0174481Y0198976D01*
X0174312Y0199062D01*
X0174140Y0199145D01*
X0173967Y0199223D01*
X0173791Y0199297D01*
X0173614Y0199366D01*
X0173435Y0199432D01*
X0173255Y0199493D01*
X0173074Y0199549D01*
X0172891Y0199601D01*
X0172706Y0199649D01*
X0172521Y0199692D01*
X0172335Y0199731D01*
X0172148Y0199766D01*
X0171960Y0199795D01*
X0171771Y0199821D01*
X0171582Y0199841D01*
X0171392Y0199857D01*
X0171202Y0199869D01*
X0171012Y0199876D01*
X0170822Y0199878D01*
X0086176Y0199878D01*
X0085986Y0199876D01*
X0085796Y0199869D01*
X0085606Y0199857D01*
X0085416Y0199841D01*
X0085227Y0199821D01*
X0085038Y0199795D01*
X0084850Y0199766D01*
X0084663Y0199731D01*
X0084477Y0199692D01*
X0084292Y0199649D01*
X0084107Y0199601D01*
X0083924Y0199549D01*
X0083743Y0199493D01*
X0083563Y0199432D01*
X0083384Y0199366D01*
X0083207Y0199297D01*
X0083031Y0199223D01*
X0082858Y0199145D01*
X0082686Y0199062D01*
X0082517Y0198976D01*
X0082349Y0198886D01*
X0082184Y0198791D01*
X0082021Y0198693D01*
X0081861Y0198590D01*
X0081703Y0198484D01*
X0081548Y0198374D01*
X0081395Y0198261D01*
X0081245Y0198143D01*
X0081099Y0198022D01*
X0080955Y0197898D01*
X0080814Y0197770D01*
X0080676Y0197639D01*
X0080541Y0197504D01*
X0080410Y0197366D01*
X0080282Y0197225D01*
X0080158Y0197081D01*
X0080037Y0196935D01*
X0079919Y0196785D01*
X0079806Y0196632D01*
X0079696Y0196477D01*
X0079590Y0196319D01*
X0079487Y0196159D01*
X0079389Y0195996D01*
X0079294Y0195831D01*
X0079204Y0195663D01*
X0079118Y0195494D01*
X0079035Y0195322D01*
X0078957Y0195149D01*
X0078883Y0194973D01*
X0078814Y0194796D01*
X0078748Y0194617D01*
X0078687Y0194437D01*
X0078631Y0194256D01*
X0078579Y0194073D01*
X0078531Y0193888D01*
X0078488Y0193703D01*
X0078449Y0193517D01*
X0078414Y0193330D01*
X0078385Y0193142D01*
X0078359Y0192953D01*
X0078339Y0192764D01*
X0078323Y0192574D01*
X0078311Y0192384D01*
X0078304Y0192194D01*
X0078302Y0192004D01*
X0078302Y0066020D01*
X0078304Y0065830D01*
X0078311Y0065640D01*
X0078323Y0065450D01*
X0078339Y0065260D01*
X0078359Y0065071D01*
X0078385Y0064882D01*
X0078414Y0064694D01*
X0078449Y0064507D01*
X0078488Y0064321D01*
X0078531Y0064136D01*
X0078579Y0063951D01*
X0078631Y0063768D01*
X0078687Y0063587D01*
X0078748Y0063407D01*
X0078814Y0063228D01*
X0078883Y0063051D01*
X0078957Y0062875D01*
X0079035Y0062702D01*
X0079118Y0062530D01*
X0079204Y0062361D01*
X0079294Y0062193D01*
X0079389Y0062028D01*
X0079487Y0061865D01*
X0079590Y0061705D01*
X0079696Y0061547D01*
X0079806Y0061392D01*
X0079919Y0061239D01*
X0080037Y0061089D01*
X0080158Y0060943D01*
X0080282Y0060799D01*
X0080410Y0060658D01*
X0080541Y0060520D01*
X0080676Y0060385D01*
X0080814Y0060254D01*
X0080955Y0060126D01*
X0081099Y0060002D01*
X0081245Y0059881D01*
X0081395Y0059763D01*
X0081548Y0059650D01*
X0081703Y0059540D01*
X0081861Y0059434D01*
X0082021Y0059331D01*
X0082184Y0059233D01*
X0082349Y0059138D01*
X0082517Y0059048D01*
X0082686Y0058962D01*
X0082858Y0058879D01*
X0083031Y0058801D01*
X0083207Y0058727D01*
X0083384Y0058658D01*
X0083563Y0058592D01*
X0083743Y0058531D01*
X0083924Y0058475D01*
X0084107Y0058423D01*
X0084292Y0058375D01*
X0084477Y0058332D01*
X0084663Y0058293D01*
X0084850Y0058258D01*
X0085038Y0058229D01*
X0085227Y0058203D01*
X0085416Y0058183D01*
X0085606Y0058167D01*
X0085796Y0058155D01*
X0085986Y0058148D01*
X0086176Y0058146D01*
D11*
X0152808Y0094664D02*
X0152808Y0097612D01*
X0152808Y0094664D02*
X0149466Y0094664D01*
X0149466Y0097612D01*
X0152808Y0097612D01*
X0152808Y0095983D02*
X0149466Y0095983D01*
X0149466Y0097302D02*
X0152808Y0097302D01*
X0157340Y0098601D02*
X0157340Y0101549D01*
X0160682Y0101549D01*
X0160682Y0098601D01*
X0157340Y0098601D01*
X0157340Y0099920D02*
X0160682Y0099920D01*
X0160682Y0101239D02*
X0157340Y0101239D01*
X0157340Y0105294D02*
X0157340Y0108242D01*
X0160682Y0108242D01*
X0160682Y0105294D01*
X0157340Y0105294D01*
X0157340Y0106613D02*
X0160682Y0106613D01*
X0160682Y0107932D02*
X0157340Y0107932D01*
X0152808Y0104305D02*
X0152808Y0101357D01*
X0149466Y0101357D01*
X0149466Y0104305D01*
X0152808Y0104305D01*
X0152808Y0102676D02*
X0149466Y0102676D01*
X0149466Y0103995D02*
X0152808Y0103995D01*
X0144147Y0110998D02*
X0141199Y0110998D01*
X0144147Y0110998D02*
X0144147Y0107656D01*
X0141199Y0107656D01*
X0141199Y0110998D01*
X0141199Y0108975D02*
X0144147Y0108975D01*
X0144147Y0110294D02*
X0141199Y0110294D01*
X0137454Y0110998D02*
X0134506Y0110998D01*
X0137454Y0110998D02*
X0137454Y0107656D01*
X0134506Y0107656D01*
X0134506Y0110998D01*
X0134506Y0108975D02*
X0137454Y0108975D01*
X0137454Y0110294D02*
X0134506Y0110294D01*
X0165214Y0108242D02*
X0165214Y0105294D01*
X0165214Y0108242D02*
X0168556Y0108242D01*
X0168556Y0105294D01*
X0165214Y0105294D01*
X0165214Y0106613D02*
X0168556Y0106613D01*
X0168556Y0107932D02*
X0165214Y0107932D01*
X0165214Y0101549D02*
X0165214Y0098601D01*
X0165214Y0101549D02*
X0168556Y0101549D01*
X0168556Y0098601D01*
X0165214Y0098601D01*
X0165214Y0099920D02*
X0168556Y0099920D01*
X0168556Y0101239D02*
X0165214Y0101239D01*
X0184304Y0102336D02*
X0184304Y0099388D01*
X0180962Y0099388D01*
X0180962Y0102336D01*
X0184304Y0102336D01*
X0184304Y0100707D02*
X0180962Y0100707D01*
X0180962Y0102026D02*
X0184304Y0102026D01*
X0189624Y0103719D02*
X0192572Y0103719D01*
X0189624Y0103719D02*
X0189624Y0107061D01*
X0192572Y0107061D01*
X0192572Y0103719D01*
X0192572Y0105038D02*
X0189624Y0105038D01*
X0189624Y0106357D02*
X0192572Y0106357D01*
X0196317Y0103719D02*
X0199265Y0103719D01*
X0196317Y0103719D02*
X0196317Y0107061D01*
X0199265Y0107061D01*
X0199265Y0103719D01*
X0199265Y0105038D02*
X0196317Y0105038D01*
X0196317Y0106357D02*
X0199265Y0106357D01*
X0184304Y0095643D02*
X0184304Y0092695D01*
X0180962Y0092695D01*
X0180962Y0095643D01*
X0184304Y0095643D01*
X0184304Y0094014D02*
X0180962Y0094014D01*
X0180962Y0095333D02*
X0184304Y0095333D01*
X0184304Y0090525D02*
X0184304Y0087577D01*
X0180962Y0087577D01*
X0180962Y0090525D01*
X0184304Y0090525D01*
X0184304Y0088896D02*
X0180962Y0088896D01*
X0180962Y0090215D02*
X0184304Y0090215D01*
X0184304Y0083832D02*
X0184304Y0080884D01*
X0180962Y0080884D01*
X0180962Y0083832D01*
X0184304Y0083832D01*
X0184304Y0082203D02*
X0180962Y0082203D01*
X0180962Y0083522D02*
X0184304Y0083522D01*
X0195529Y0083439D02*
X0198477Y0083439D01*
X0198477Y0080097D01*
X0195529Y0080097D01*
X0195529Y0083439D01*
X0195529Y0081416D02*
X0198477Y0081416D01*
X0198477Y0082735D02*
X0195529Y0082735D01*
X0202222Y0083439D02*
X0205170Y0083439D01*
X0205170Y0080097D01*
X0202222Y0080097D01*
X0202222Y0083439D01*
X0202222Y0081416D02*
X0205170Y0081416D01*
X0205170Y0082735D02*
X0202222Y0082735D01*
X0166588Y0081864D02*
X0166588Y0078916D01*
X0163246Y0078916D01*
X0163246Y0081864D01*
X0166588Y0081864D01*
X0166588Y0080235D02*
X0163246Y0080235D01*
X0163246Y0081554D02*
X0166588Y0081554D01*
X0158714Y0081864D02*
X0158714Y0078916D01*
X0155372Y0078916D01*
X0155372Y0081864D01*
X0158714Y0081864D01*
X0158714Y0080235D02*
X0155372Y0080235D01*
X0155372Y0081554D02*
X0158714Y0081554D01*
X0158714Y0085609D02*
X0158714Y0088557D01*
X0158714Y0085609D02*
X0155372Y0085609D01*
X0155372Y0088557D01*
X0158714Y0088557D01*
X0158714Y0086928D02*
X0155372Y0086928D01*
X0155372Y0088247D02*
X0158714Y0088247D01*
X0166588Y0088557D02*
X0166588Y0085609D01*
X0163246Y0085609D01*
X0163246Y0088557D01*
X0166588Y0088557D01*
X0166588Y0086928D02*
X0163246Y0086928D01*
X0163246Y0088247D02*
X0166588Y0088247D01*
X0152808Y0149782D02*
X0152808Y0152730D01*
X0152808Y0149782D02*
X0149466Y0149782D01*
X0149466Y0152730D01*
X0152808Y0152730D01*
X0152808Y0151101D02*
X0149466Y0151101D01*
X0149466Y0152420D02*
X0152808Y0152420D01*
X0152808Y0156475D02*
X0152808Y0159423D01*
X0152808Y0156475D02*
X0149466Y0156475D01*
X0149466Y0159423D01*
X0152808Y0159423D01*
X0152808Y0157794D02*
X0149466Y0157794D01*
X0149466Y0159113D02*
X0152808Y0159113D01*
X0144147Y0166116D02*
X0141199Y0166116D01*
X0144147Y0166116D02*
X0144147Y0162774D01*
X0141199Y0162774D01*
X0141199Y0166116D01*
X0141199Y0164093D02*
X0144147Y0164093D01*
X0144147Y0165412D02*
X0141199Y0165412D01*
X0137454Y0166116D02*
X0134506Y0166116D01*
X0137454Y0166116D02*
X0137454Y0162774D01*
X0134506Y0162774D01*
X0134506Y0166116D01*
X0134506Y0164093D02*
X0137454Y0164093D01*
X0137454Y0165412D02*
X0134506Y0165412D01*
X0180367Y0164541D02*
X0180367Y0161593D01*
X0177025Y0161593D01*
X0177025Y0164541D01*
X0180367Y0164541D01*
X0180367Y0162912D02*
X0177025Y0162912D01*
X0177025Y0164231D02*
X0180367Y0164231D01*
X0180367Y0168286D02*
X0180367Y0171234D01*
X0180367Y0168286D02*
X0177025Y0168286D01*
X0177025Y0171234D01*
X0180367Y0171234D01*
X0180367Y0169605D02*
X0177025Y0169605D01*
X0177025Y0170924D02*
X0180367Y0170924D01*
D12*
X0144256Y0158351D02*
X0141876Y0158351D01*
X0144256Y0158351D02*
X0144256Y0155579D01*
X0141876Y0155579D01*
X0141876Y0158351D01*
X0141876Y0156691D02*
X0144256Y0156691D01*
X0144256Y0157803D02*
X0141876Y0157803D01*
X0136776Y0158351D02*
X0134396Y0158351D01*
X0136776Y0158351D02*
X0136776Y0155579D01*
X0134396Y0155579D01*
X0134396Y0158351D01*
X0134396Y0156691D02*
X0136776Y0156691D01*
X0136776Y0157803D02*
X0134396Y0157803D01*
X0138136Y0149689D02*
X0140516Y0149689D01*
X0140516Y0146917D01*
X0138136Y0146917D01*
X0138136Y0149689D01*
X0138136Y0148029D02*
X0140516Y0148029D01*
X0140516Y0149141D02*
X0138136Y0149141D01*
X0136776Y0103232D02*
X0134396Y0103232D01*
X0136776Y0103232D02*
X0136776Y0100460D01*
X0134396Y0100460D01*
X0134396Y0103232D01*
X0134396Y0101572D02*
X0136776Y0101572D01*
X0136776Y0102684D02*
X0134396Y0102684D01*
X0141876Y0103232D02*
X0144256Y0103232D01*
X0144256Y0100460D01*
X0141876Y0100460D01*
X0141876Y0103232D01*
X0141876Y0101572D02*
X0144256Y0101572D01*
X0144256Y0102684D02*
X0141876Y0102684D01*
X0140516Y0094571D02*
X0138136Y0094571D01*
X0140516Y0094571D02*
X0140516Y0091799D01*
X0138136Y0091799D01*
X0138136Y0094571D01*
X0138136Y0092911D02*
X0140516Y0092911D01*
X0140516Y0094023D02*
X0138136Y0094023D01*
D13*
X0188736Y0135114D03*
X0235586Y0135114D03*
X0235586Y0174091D03*
X0188736Y0174091D03*
D14*
X0193263Y0173894D03*
X0196413Y0173894D03*
X0199562Y0173894D03*
X0202712Y0173894D03*
X0205861Y0173894D03*
X0209011Y0173894D03*
X0212161Y0173894D03*
X0215310Y0173894D03*
X0218460Y0173894D03*
X0221610Y0173894D03*
X0224759Y0173894D03*
X0227909Y0173894D03*
X0231058Y0173894D03*
X0231058Y0135311D03*
X0227909Y0135311D03*
X0224759Y0135311D03*
X0221610Y0135311D03*
X0218460Y0135311D03*
X0215310Y0135311D03*
X0212161Y0135311D03*
X0209011Y0135311D03*
X0205861Y0135311D03*
X0202712Y0135311D03*
X0199562Y0135311D03*
X0196413Y0135311D03*
X0193263Y0135311D03*
D15*
X0188932Y0138854D03*
X0188932Y0142004D03*
X0188932Y0145154D03*
X0188932Y0148303D03*
X0188932Y0151453D03*
X0188932Y0154602D03*
X0188932Y0157752D03*
X0188932Y0160902D03*
X0188932Y0164051D03*
X0188932Y0167201D03*
X0188932Y0170350D03*
X0235389Y0170350D03*
X0235389Y0167201D03*
X0235389Y0164051D03*
X0235389Y0160902D03*
X0235389Y0157752D03*
X0235389Y0154602D03*
X0235389Y0151453D03*
X0235389Y0148303D03*
X0235389Y0145154D03*
X0235389Y0142004D03*
X0235389Y0138854D03*
D16*
X0220035Y0146728D03*
X0212161Y0146728D03*
X0204287Y0146728D03*
X0204287Y0154602D03*
X0212161Y0154602D03*
X0220035Y0154602D03*
X0220035Y0162476D03*
X0212161Y0162476D03*
X0204287Y0162476D03*
D17*
X0204877Y0071925D03*
D18*
X0214877Y0071925D03*
X0224877Y0071925D03*
X0234877Y0071925D03*
X0244877Y0071925D03*
X0254877Y0071925D03*
X0188696Y0071925D03*
X0178696Y0071925D03*
X0163106Y0071925D03*
X0153106Y0071925D03*
D19*
X0229877Y0089484D03*
X0229877Y0109484D03*
D20*
X0201531Y0097319D03*
X0201531Y0093579D03*
X0201531Y0089839D03*
X0191295Y0089839D03*
X0191295Y0093579D03*
X0191295Y0097319D03*
D21*
X0188539Y0119169D03*
X0176728Y0119169D03*
D22*
X0176554Y0105177D02*
X0176554Y0101469D01*
X0172964Y0101469D01*
X0172964Y0105177D01*
X0176554Y0105177D01*
X0176554Y0103001D02*
X0172964Y0103001D01*
X0172964Y0104533D02*
X0176554Y0104533D01*
X0176554Y0093563D02*
X0176554Y0089855D01*
X0172964Y0089855D01*
X0172964Y0093563D01*
X0176554Y0093563D01*
X0176554Y0091387D02*
X0172964Y0091387D01*
X0172964Y0092919D02*
X0176554Y0092919D01*
D23*
X0115704Y0099091D02*
X0115704Y0107752D01*
X0092476Y0107752D02*
X0092476Y0099091D01*
X0099562Y0084917D02*
X0108224Y0084917D01*
X0108224Y0136098D02*
X0099562Y0136098D01*
X0092476Y0150272D02*
X0092476Y0158933D01*
X0115704Y0158933D02*
X0115704Y0150272D01*
M02*
