G75*
%MOIN*%
%OFA0B0*%
%FSLAX25Y25*%
%IPPOS*%
%LPD*%
%AMOC8*
5,1,8,0,0,1.08239X$1,22.5*
%
%ADD10C,0.00000*%
%ADD11C,0.00039*%
%ADD12C,0.00200*%
%ADD13C,0.00400*%
%ADD14C,0.00500*%
D10*
X0010226Y0002294D02*
X0191329Y0002294D01*
X0191329Y0002295D02*
X0191519Y0002297D01*
X0191709Y0002304D01*
X0191899Y0002316D01*
X0192089Y0002332D01*
X0192278Y0002352D01*
X0192467Y0002378D01*
X0192655Y0002407D01*
X0192842Y0002442D01*
X0193028Y0002481D01*
X0193213Y0002524D01*
X0193398Y0002572D01*
X0193581Y0002624D01*
X0193762Y0002680D01*
X0193942Y0002741D01*
X0194121Y0002807D01*
X0194298Y0002876D01*
X0194474Y0002950D01*
X0194647Y0003028D01*
X0194819Y0003111D01*
X0194988Y0003197D01*
X0195156Y0003287D01*
X0195321Y0003382D01*
X0195484Y0003480D01*
X0195644Y0003583D01*
X0195802Y0003689D01*
X0195957Y0003799D01*
X0196110Y0003912D01*
X0196260Y0004030D01*
X0196406Y0004151D01*
X0196550Y0004275D01*
X0196691Y0004403D01*
X0196829Y0004534D01*
X0196964Y0004669D01*
X0197095Y0004807D01*
X0197223Y0004948D01*
X0197347Y0005092D01*
X0197468Y0005238D01*
X0197586Y0005388D01*
X0197699Y0005541D01*
X0197809Y0005696D01*
X0197915Y0005854D01*
X0198018Y0006014D01*
X0198116Y0006177D01*
X0198211Y0006342D01*
X0198301Y0006510D01*
X0198387Y0006679D01*
X0198470Y0006851D01*
X0198548Y0007024D01*
X0198622Y0007200D01*
X0198691Y0007377D01*
X0198757Y0007556D01*
X0198818Y0007736D01*
X0198874Y0007917D01*
X0198926Y0008100D01*
X0198974Y0008285D01*
X0199017Y0008470D01*
X0199056Y0008656D01*
X0199091Y0008843D01*
X0199120Y0009031D01*
X0199146Y0009220D01*
X0199166Y0009409D01*
X0199182Y0009599D01*
X0199194Y0009789D01*
X0199201Y0009979D01*
X0199203Y0010169D01*
X0199203Y0114499D01*
X0199201Y0114689D01*
X0199194Y0114879D01*
X0199182Y0115069D01*
X0199166Y0115259D01*
X0199146Y0115448D01*
X0199120Y0115637D01*
X0199091Y0115825D01*
X0199056Y0116012D01*
X0199017Y0116198D01*
X0198974Y0116383D01*
X0198926Y0116568D01*
X0198874Y0116751D01*
X0198818Y0116932D01*
X0198757Y0117112D01*
X0198691Y0117291D01*
X0198622Y0117468D01*
X0198548Y0117644D01*
X0198470Y0117817D01*
X0198387Y0117989D01*
X0198301Y0118158D01*
X0198211Y0118326D01*
X0198116Y0118491D01*
X0198018Y0118654D01*
X0197915Y0118814D01*
X0197809Y0118972D01*
X0197699Y0119127D01*
X0197586Y0119280D01*
X0197468Y0119430D01*
X0197347Y0119576D01*
X0197223Y0119720D01*
X0197095Y0119861D01*
X0196964Y0119999D01*
X0196829Y0120134D01*
X0196691Y0120265D01*
X0196550Y0120393D01*
X0196406Y0120517D01*
X0196260Y0120638D01*
X0196110Y0120756D01*
X0195957Y0120869D01*
X0195802Y0120979D01*
X0195644Y0121085D01*
X0195484Y0121188D01*
X0195321Y0121286D01*
X0195156Y0121381D01*
X0194988Y0121471D01*
X0194819Y0121557D01*
X0194647Y0121640D01*
X0194474Y0121718D01*
X0194298Y0121792D01*
X0194121Y0121861D01*
X0193942Y0121927D01*
X0193762Y0121988D01*
X0193581Y0122044D01*
X0193398Y0122096D01*
X0193213Y0122144D01*
X0193028Y0122187D01*
X0192842Y0122226D01*
X0192655Y0122261D01*
X0192467Y0122290D01*
X0192278Y0122316D01*
X0192089Y0122336D01*
X0191899Y0122352D01*
X0191709Y0122364D01*
X0191519Y0122371D01*
X0191329Y0122373D01*
X0110620Y0122373D01*
X0110430Y0122375D01*
X0110240Y0122382D01*
X0110050Y0122394D01*
X0109860Y0122410D01*
X0109671Y0122430D01*
X0109482Y0122456D01*
X0109294Y0122485D01*
X0109107Y0122520D01*
X0108921Y0122559D01*
X0108736Y0122602D01*
X0108551Y0122650D01*
X0108368Y0122702D01*
X0108187Y0122758D01*
X0108007Y0122819D01*
X0107828Y0122885D01*
X0107651Y0122954D01*
X0107475Y0123028D01*
X0107302Y0123106D01*
X0107130Y0123189D01*
X0106961Y0123275D01*
X0106793Y0123365D01*
X0106628Y0123460D01*
X0106465Y0123558D01*
X0106305Y0123661D01*
X0106147Y0123767D01*
X0105992Y0123877D01*
X0105839Y0123990D01*
X0105689Y0124108D01*
X0105543Y0124229D01*
X0105399Y0124353D01*
X0105258Y0124481D01*
X0105120Y0124612D01*
X0104985Y0124747D01*
X0104854Y0124885D01*
X0104726Y0125026D01*
X0104602Y0125170D01*
X0104481Y0125316D01*
X0104363Y0125466D01*
X0104250Y0125619D01*
X0104140Y0125774D01*
X0104034Y0125932D01*
X0103931Y0126092D01*
X0103833Y0126255D01*
X0103738Y0126420D01*
X0103648Y0126588D01*
X0103562Y0126757D01*
X0103479Y0126929D01*
X0103401Y0127102D01*
X0103327Y0127278D01*
X0103258Y0127455D01*
X0103192Y0127634D01*
X0103131Y0127814D01*
X0103075Y0127995D01*
X0103023Y0128178D01*
X0102975Y0128363D01*
X0102932Y0128548D01*
X0102893Y0128734D01*
X0102858Y0128921D01*
X0102829Y0129109D01*
X0102803Y0129298D01*
X0102783Y0129487D01*
X0102767Y0129677D01*
X0102755Y0129867D01*
X0102748Y0130057D01*
X0102746Y0130247D01*
X0102746Y0136153D01*
X0102744Y0136343D01*
X0102737Y0136533D01*
X0102725Y0136723D01*
X0102709Y0136913D01*
X0102689Y0137102D01*
X0102663Y0137291D01*
X0102634Y0137479D01*
X0102599Y0137666D01*
X0102560Y0137852D01*
X0102517Y0138037D01*
X0102469Y0138222D01*
X0102417Y0138405D01*
X0102361Y0138586D01*
X0102300Y0138766D01*
X0102234Y0138945D01*
X0102165Y0139122D01*
X0102091Y0139298D01*
X0102013Y0139471D01*
X0101930Y0139643D01*
X0101844Y0139812D01*
X0101754Y0139980D01*
X0101659Y0140145D01*
X0101561Y0140308D01*
X0101458Y0140468D01*
X0101352Y0140626D01*
X0101242Y0140781D01*
X0101129Y0140934D01*
X0101011Y0141084D01*
X0100890Y0141230D01*
X0100766Y0141374D01*
X0100638Y0141515D01*
X0100507Y0141653D01*
X0100372Y0141788D01*
X0100234Y0141919D01*
X0100093Y0142047D01*
X0099949Y0142171D01*
X0099803Y0142292D01*
X0099653Y0142410D01*
X0099500Y0142523D01*
X0099345Y0142633D01*
X0099187Y0142739D01*
X0099027Y0142842D01*
X0098864Y0142940D01*
X0098699Y0143035D01*
X0098531Y0143125D01*
X0098362Y0143211D01*
X0098190Y0143294D01*
X0098017Y0143372D01*
X0097841Y0143446D01*
X0097664Y0143515D01*
X0097485Y0143581D01*
X0097305Y0143642D01*
X0097124Y0143698D01*
X0096941Y0143750D01*
X0096756Y0143798D01*
X0096571Y0143841D01*
X0096385Y0143880D01*
X0096198Y0143915D01*
X0096010Y0143944D01*
X0095821Y0143970D01*
X0095632Y0143990D01*
X0095442Y0144006D01*
X0095252Y0144018D01*
X0095062Y0144025D01*
X0094872Y0144027D01*
X0010226Y0144027D01*
X0010036Y0144025D01*
X0009846Y0144018D01*
X0009656Y0144006D01*
X0009466Y0143990D01*
X0009277Y0143970D01*
X0009088Y0143944D01*
X0008900Y0143915D01*
X0008713Y0143880D01*
X0008527Y0143841D01*
X0008342Y0143798D01*
X0008157Y0143750D01*
X0007974Y0143698D01*
X0007793Y0143642D01*
X0007613Y0143581D01*
X0007434Y0143515D01*
X0007257Y0143446D01*
X0007081Y0143372D01*
X0006908Y0143294D01*
X0006736Y0143211D01*
X0006567Y0143125D01*
X0006399Y0143035D01*
X0006234Y0142940D01*
X0006071Y0142842D01*
X0005911Y0142739D01*
X0005753Y0142633D01*
X0005598Y0142523D01*
X0005445Y0142410D01*
X0005295Y0142292D01*
X0005149Y0142171D01*
X0005005Y0142047D01*
X0004864Y0141919D01*
X0004726Y0141788D01*
X0004591Y0141653D01*
X0004460Y0141515D01*
X0004332Y0141374D01*
X0004208Y0141230D01*
X0004087Y0141084D01*
X0003969Y0140934D01*
X0003856Y0140781D01*
X0003746Y0140626D01*
X0003640Y0140468D01*
X0003537Y0140308D01*
X0003439Y0140145D01*
X0003344Y0139980D01*
X0003254Y0139812D01*
X0003168Y0139643D01*
X0003085Y0139471D01*
X0003007Y0139298D01*
X0002933Y0139122D01*
X0002864Y0138945D01*
X0002798Y0138766D01*
X0002737Y0138586D01*
X0002681Y0138405D01*
X0002629Y0138222D01*
X0002581Y0138037D01*
X0002538Y0137852D01*
X0002499Y0137666D01*
X0002464Y0137479D01*
X0002435Y0137291D01*
X0002409Y0137102D01*
X0002389Y0136913D01*
X0002373Y0136723D01*
X0002361Y0136533D01*
X0002354Y0136343D01*
X0002352Y0136153D01*
X0002352Y0010169D01*
X0002354Y0009979D01*
X0002361Y0009789D01*
X0002373Y0009599D01*
X0002389Y0009409D01*
X0002409Y0009220D01*
X0002435Y0009031D01*
X0002464Y0008843D01*
X0002499Y0008656D01*
X0002538Y0008470D01*
X0002581Y0008285D01*
X0002629Y0008100D01*
X0002681Y0007917D01*
X0002737Y0007736D01*
X0002798Y0007556D01*
X0002864Y0007377D01*
X0002933Y0007200D01*
X0003007Y0007024D01*
X0003085Y0006851D01*
X0003168Y0006679D01*
X0003254Y0006510D01*
X0003344Y0006342D01*
X0003439Y0006177D01*
X0003537Y0006014D01*
X0003640Y0005854D01*
X0003746Y0005696D01*
X0003856Y0005541D01*
X0003969Y0005388D01*
X0004087Y0005238D01*
X0004208Y0005092D01*
X0004332Y0004948D01*
X0004460Y0004807D01*
X0004591Y0004669D01*
X0004726Y0004534D01*
X0004864Y0004403D01*
X0005005Y0004275D01*
X0005149Y0004151D01*
X0005295Y0004030D01*
X0005445Y0003912D01*
X0005598Y0003799D01*
X0005753Y0003689D01*
X0005911Y0003583D01*
X0006071Y0003480D01*
X0006234Y0003382D01*
X0006399Y0003287D01*
X0006567Y0003197D01*
X0006736Y0003111D01*
X0006908Y0003028D01*
X0007081Y0002950D01*
X0007257Y0002876D01*
X0007434Y0002807D01*
X0007613Y0002741D01*
X0007793Y0002680D01*
X0007974Y0002624D01*
X0008157Y0002572D01*
X0008342Y0002524D01*
X0008527Y0002481D01*
X0008713Y0002442D01*
X0008900Y0002407D01*
X0009088Y0002378D01*
X0009277Y0002352D01*
X0009466Y0002332D01*
X0009656Y0002316D01*
X0009846Y0002304D01*
X0010036Y0002297D01*
X0010226Y0002295D01*
D11*
X0088420Y0039733D02*
X0088518Y0039609D01*
X0098953Y0039620D01*
X0099101Y0039620D01*
X0099101Y0041397D01*
X0099037Y0041555D01*
X0095929Y0041555D01*
X0095806Y0041599D01*
X0095948Y0041770D01*
X0096079Y0041949D01*
X0096200Y0042135D01*
X0096309Y0042329D01*
X0096407Y0042528D01*
X0096493Y0042732D01*
X0096567Y0042942D01*
X0096628Y0043155D01*
X0096676Y0043372D01*
X0096712Y0043591D01*
X0096735Y0043812D01*
X0096745Y0044033D01*
X0096744Y0044255D01*
X0096731Y0044477D01*
X0096705Y0044698D01*
X0096666Y0044916D01*
X0096613Y0045132D01*
X0096549Y0045344D01*
X0096471Y0045552D01*
X0096381Y0045755D01*
X0096279Y0045952D01*
X0096166Y0046143D01*
X0096041Y0046327D01*
X0095906Y0046503D01*
X0095760Y0046670D01*
X0095605Y0046829D01*
X0095441Y0046978D01*
X0095271Y0047121D01*
X0095094Y0047255D01*
X0094911Y0047380D01*
X0094722Y0047497D01*
X0094527Y0047604D01*
X0094328Y0047701D01*
X0094123Y0047788D01*
X0093915Y0047865D01*
X0093704Y0047932D01*
X0093489Y0047989D01*
X0093272Y0048034D01*
X0093053Y0048070D01*
X0092832Y0048094D01*
X0092610Y0048108D01*
X0092388Y0048111D01*
X0092167Y0048103D01*
X0091945Y0048085D01*
X0091725Y0048055D01*
X0091507Y0048015D01*
X0091291Y0047965D01*
X0091077Y0047904D01*
X0093794Y0047904D01*
X0093914Y0047866D02*
X0090966Y0047866D01*
X0090867Y0047832D02*
X0090661Y0047750D01*
X0090459Y0047659D01*
X0090261Y0047557D01*
X0090069Y0047446D01*
X0089883Y0047326D01*
X0089702Y0047196D01*
X0089528Y0047058D01*
X0089362Y0046912D01*
X0089204Y0046755D01*
X0089056Y0046590D01*
X0088918Y0046416D01*
X0088790Y0046235D01*
X0088673Y0046046D01*
X0088567Y0045851D01*
X0088472Y0045651D01*
X0088389Y0045445D01*
X0088317Y0045235D01*
X0088258Y0045021D01*
X0088212Y0044804D01*
X0088177Y0044584D01*
X0088156Y0044363D01*
X0088148Y0044141D01*
X0088152Y0043920D01*
X0088169Y0043698D01*
X0088198Y0043478D01*
X0088240Y0043260D01*
X0088295Y0043045D01*
X0088362Y0042833D01*
X0088441Y0042626D01*
X0088532Y0042424D01*
X0088634Y0042227D01*
X0088748Y0042036D01*
X0088872Y0041852D01*
X0089007Y0041675D01*
X0089148Y0041511D01*
X0090364Y0042374D01*
X0090233Y0042547D01*
X0090116Y0042736D01*
X0090020Y0042936D01*
X0089943Y0043144D01*
X0089888Y0043359D01*
X0089854Y0043578D01*
X0089842Y0043800D01*
X0089842Y0043873D01*
X0089857Y0044095D01*
X0089893Y0044313D01*
X0089952Y0044528D01*
X0090031Y0044735D01*
X0090130Y0044933D01*
X0090249Y0045121D01*
X0090386Y0045295D01*
X0090540Y0045456D01*
X0090709Y0045598D01*
X0090891Y0045727D01*
X0091082Y0045840D01*
X0091281Y0045937D01*
X0091488Y0046018D01*
X0091700Y0046081D01*
X0091917Y0046128D01*
X0092137Y0046157D01*
X0092359Y0046168D01*
X0092581Y0046162D01*
X0092801Y0046137D01*
X0093019Y0046095D01*
X0093233Y0046036D01*
X0093442Y0045959D01*
X0093643Y0045866D01*
X0093836Y0045757D01*
X0094020Y0045633D01*
X0094194Y0045494D01*
X0094348Y0045335D01*
X0094485Y0045161D01*
X0094606Y0044974D01*
X0094707Y0044777D01*
X0094790Y0044571D01*
X0094852Y0044358D01*
X0094893Y0044140D01*
X0094913Y0043919D01*
X0094911Y0043697D01*
X0094889Y0043476D01*
X0094845Y0043258D01*
X0094780Y0043046D01*
X0094695Y0042841D01*
X0094591Y0042645D01*
X0094468Y0042460D01*
X0094329Y0042288D01*
X0094172Y0042131D01*
X0093997Y0041994D01*
X0093812Y0041872D01*
X0093617Y0041765D01*
X0093415Y0041674D01*
X0093206Y0041600D01*
X0092991Y0041542D01*
X0092773Y0041503D01*
X0092552Y0041481D01*
X0092330Y0041476D01*
X0092109Y0041490D01*
X0091889Y0041521D01*
X0091673Y0041570D01*
X0091461Y0041636D01*
X0091255Y0041719D01*
X0091056Y0041818D01*
X0090867Y0041933D01*
X0090687Y0042063D01*
X0090519Y0042208D01*
X0090371Y0042367D01*
X0089153Y0041503D01*
X0089207Y0041388D01*
X0088541Y0041388D01*
X0088420Y0041287D01*
X0088420Y0039733D01*
X0088429Y0039721D02*
X0099101Y0039721D01*
X0099101Y0039683D02*
X0088459Y0039683D01*
X0088489Y0039646D02*
X0099101Y0039646D01*
X0099101Y0039759D02*
X0088420Y0039759D01*
X0088420Y0039797D02*
X0099101Y0039797D01*
X0099101Y0039835D02*
X0088420Y0039835D01*
X0088420Y0039873D02*
X0099101Y0039873D01*
X0099101Y0039911D02*
X0088420Y0039911D01*
X0088420Y0039949D02*
X0099101Y0039949D01*
X0099101Y0039986D02*
X0088420Y0039986D01*
X0088420Y0040024D02*
X0099101Y0040024D01*
X0099101Y0040062D02*
X0088420Y0040062D01*
X0088420Y0040100D02*
X0099101Y0040100D01*
X0099101Y0040138D02*
X0088420Y0040138D01*
X0088420Y0040176D02*
X0099101Y0040176D01*
X0099101Y0040214D02*
X0088420Y0040214D01*
X0088420Y0040252D02*
X0099101Y0040252D01*
X0099101Y0040290D02*
X0088420Y0040290D01*
X0088420Y0040327D02*
X0099101Y0040327D01*
X0099101Y0040365D02*
X0088420Y0040365D01*
X0088420Y0040403D02*
X0099101Y0040403D01*
X0099101Y0040441D02*
X0088420Y0040441D01*
X0088420Y0040479D02*
X0099101Y0040479D01*
X0099101Y0040517D02*
X0088420Y0040517D01*
X0088420Y0040555D02*
X0099101Y0040555D01*
X0099101Y0040593D02*
X0088420Y0040593D01*
X0088420Y0040630D02*
X0099101Y0040630D01*
X0099101Y0040668D02*
X0088420Y0040668D01*
X0088420Y0040706D02*
X0099101Y0040706D01*
X0099101Y0040744D02*
X0088420Y0040744D01*
X0088420Y0040782D02*
X0099101Y0040782D01*
X0099101Y0040820D02*
X0088420Y0040820D01*
X0088420Y0040858D02*
X0099101Y0040858D01*
X0099101Y0040896D02*
X0088420Y0040896D01*
X0088420Y0040934D02*
X0099101Y0040934D01*
X0099101Y0040971D02*
X0088420Y0040971D01*
X0088420Y0041009D02*
X0099101Y0041009D01*
X0099101Y0041047D02*
X0088420Y0041047D01*
X0088420Y0041085D02*
X0099101Y0041085D01*
X0099101Y0041123D02*
X0088420Y0041123D01*
X0088420Y0041161D02*
X0099101Y0041161D01*
X0099101Y0041199D02*
X0088420Y0041199D01*
X0088420Y0041237D02*
X0099101Y0041237D01*
X0099101Y0041274D02*
X0088420Y0041274D01*
X0088450Y0041312D02*
X0099101Y0041312D01*
X0099101Y0041350D02*
X0088496Y0041350D01*
X0088966Y0041729D02*
X0089455Y0041729D01*
X0089472Y0041729D02*
X0091235Y0041729D01*
X0091159Y0041767D02*
X0089526Y0041767D01*
X0089509Y0041767D02*
X0088937Y0041767D01*
X0088908Y0041805D02*
X0089562Y0041805D01*
X0089579Y0041805D02*
X0091083Y0041805D01*
X0091016Y0041843D02*
X0089632Y0041843D01*
X0089616Y0041843D02*
X0088879Y0041843D01*
X0088853Y0041881D02*
X0089669Y0041881D01*
X0089686Y0041881D02*
X0090954Y0041881D01*
X0090891Y0041918D02*
X0089739Y0041918D01*
X0089722Y0041918D02*
X0088827Y0041918D01*
X0088801Y0041956D02*
X0089776Y0041956D01*
X0089792Y0041956D02*
X0090835Y0041956D01*
X0090782Y0041994D02*
X0089846Y0041994D01*
X0089829Y0041994D02*
X0088776Y0041994D01*
X0088750Y0042032D02*
X0089882Y0042032D01*
X0089899Y0042032D02*
X0090730Y0042032D01*
X0090679Y0042070D02*
X0089952Y0042070D01*
X0089936Y0042070D02*
X0088727Y0042070D01*
X0088705Y0042108D02*
X0089989Y0042108D01*
X0090006Y0042108D02*
X0090635Y0042108D01*
X0090591Y0042146D02*
X0090059Y0042146D01*
X0090042Y0042146D02*
X0088682Y0042146D01*
X0088660Y0042184D02*
X0090096Y0042184D01*
X0090112Y0042184D02*
X0090547Y0042184D01*
X0090506Y0042221D02*
X0090166Y0042221D01*
X0090149Y0042221D02*
X0088637Y0042221D01*
X0088617Y0042259D02*
X0090202Y0042259D01*
X0090219Y0042259D02*
X0090471Y0042259D01*
X0090436Y0042297D02*
X0090272Y0042297D01*
X0090256Y0042297D02*
X0088598Y0042297D01*
X0088578Y0042335D02*
X0090309Y0042335D01*
X0090326Y0042335D02*
X0090400Y0042335D01*
X0090362Y0042373D02*
X0088558Y0042373D01*
X0088539Y0042411D02*
X0090336Y0042411D01*
X0090308Y0042449D02*
X0088521Y0042449D01*
X0088504Y0042487D02*
X0090279Y0042487D01*
X0090250Y0042525D02*
X0088487Y0042525D01*
X0088470Y0042562D02*
X0090223Y0042562D01*
X0090200Y0042600D02*
X0088453Y0042600D01*
X0088436Y0042638D02*
X0090177Y0042638D01*
X0090153Y0042676D02*
X0088422Y0042676D01*
X0088408Y0042714D02*
X0090130Y0042714D01*
X0090109Y0042752D02*
X0088393Y0042752D01*
X0088379Y0042790D02*
X0090090Y0042790D01*
X0090072Y0042828D02*
X0088364Y0042828D01*
X0088352Y0042865D02*
X0090054Y0042865D01*
X0090035Y0042903D02*
X0088340Y0042903D01*
X0088328Y0042941D02*
X0090017Y0042941D01*
X0090004Y0042979D02*
X0088316Y0042979D01*
X0088304Y0043017D02*
X0089990Y0043017D01*
X0089976Y0043055D02*
X0088293Y0043055D01*
X0088283Y0043093D02*
X0089962Y0043093D01*
X0089948Y0043131D02*
X0088273Y0043131D01*
X0088264Y0043169D02*
X0089937Y0043169D01*
X0089927Y0043206D02*
X0088254Y0043206D01*
X0088245Y0043244D02*
X0089917Y0043244D01*
X0089907Y0043282D02*
X0088236Y0043282D01*
X0088229Y0043320D02*
X0089898Y0043320D01*
X0089888Y0043358D02*
X0088222Y0043358D01*
X0088214Y0043396D02*
X0089882Y0043396D01*
X0089876Y0043434D02*
X0088207Y0043434D01*
X0088200Y0043472D02*
X0089870Y0043472D01*
X0089865Y0043509D02*
X0088194Y0043509D01*
X0088189Y0043547D02*
X0089859Y0043547D01*
X0089854Y0043585D02*
X0088184Y0043585D01*
X0088179Y0043623D02*
X0089852Y0043623D01*
X0089850Y0043661D02*
X0088174Y0043661D01*
X0088169Y0043699D02*
X0089848Y0043699D01*
X0089846Y0043737D02*
X0088166Y0043737D01*
X0088163Y0043775D02*
X0089844Y0043775D01*
X0089842Y0043812D02*
X0088160Y0043812D01*
X0088157Y0043850D02*
X0089842Y0043850D01*
X0089843Y0043888D02*
X0088154Y0043888D01*
X0088152Y0043926D02*
X0089846Y0043926D01*
X0089848Y0043964D02*
X0088151Y0043964D01*
X0088150Y0044002D02*
X0089851Y0044002D01*
X0089853Y0044040D02*
X0088149Y0044040D01*
X0088149Y0044078D02*
X0089856Y0044078D01*
X0089860Y0044116D02*
X0088148Y0044116D01*
X0088148Y0044153D02*
X0089867Y0044153D01*
X0089873Y0044191D02*
X0088150Y0044191D01*
X0088151Y0044229D02*
X0089879Y0044229D01*
X0089886Y0044267D02*
X0088152Y0044267D01*
X0088154Y0044305D02*
X0089892Y0044305D01*
X0089901Y0044343D02*
X0088155Y0044343D01*
X0088158Y0044381D02*
X0089912Y0044381D01*
X0089922Y0044419D02*
X0088162Y0044419D01*
X0088165Y0044456D02*
X0089932Y0044456D01*
X0089942Y0044494D02*
X0088169Y0044494D01*
X0088173Y0044532D02*
X0089953Y0044532D01*
X0089968Y0044570D02*
X0088176Y0044570D01*
X0088181Y0044608D02*
X0089982Y0044608D01*
X0089997Y0044646D02*
X0088187Y0044646D01*
X0088193Y0044684D02*
X0090011Y0044684D01*
X0090026Y0044722D02*
X0088199Y0044722D01*
X0088205Y0044760D02*
X0090043Y0044760D01*
X0090062Y0044797D02*
X0088211Y0044797D01*
X0088218Y0044835D02*
X0090081Y0044835D01*
X0090100Y0044873D02*
X0088227Y0044873D01*
X0088235Y0044911D02*
X0090119Y0044911D01*
X0090140Y0044949D02*
X0088243Y0044949D01*
X0088251Y0044987D02*
X0090164Y0044987D01*
X0090188Y0045025D02*
X0088259Y0045025D01*
X0088270Y0045063D02*
X0090212Y0045063D01*
X0090236Y0045100D02*
X0088280Y0045100D01*
X0088291Y0045138D02*
X0090263Y0045138D01*
X0090292Y0045176D02*
X0088301Y0045176D01*
X0088312Y0045214D02*
X0090322Y0045214D01*
X0090352Y0045252D02*
X0088323Y0045252D01*
X0088336Y0045290D02*
X0090381Y0045290D01*
X0090417Y0045328D02*
X0088349Y0045328D01*
X0088362Y0045366D02*
X0090453Y0045366D01*
X0090490Y0045404D02*
X0088375Y0045404D01*
X0088387Y0045441D02*
X0090526Y0045441D01*
X0090568Y0045479D02*
X0088402Y0045479D01*
X0088418Y0045517D02*
X0090613Y0045517D01*
X0090658Y0045555D02*
X0088433Y0045555D01*
X0088448Y0045593D02*
X0090703Y0045593D01*
X0090755Y0045631D02*
X0088464Y0045631D01*
X0088480Y0045669D02*
X0090809Y0045669D01*
X0090862Y0045707D02*
X0088498Y0045707D01*
X0088516Y0045744D02*
X0090921Y0045744D01*
X0090985Y0045782D02*
X0088534Y0045782D01*
X0088552Y0045820D02*
X0091049Y0045820D01*
X0091120Y0045858D02*
X0088570Y0045858D01*
X0088591Y0045896D02*
X0091197Y0045896D01*
X0091275Y0045934D02*
X0088612Y0045934D01*
X0088632Y0045972D02*
X0091370Y0045972D01*
X0091467Y0046010D02*
X0088653Y0046010D01*
X0088674Y0046048D02*
X0091587Y0046048D01*
X0091719Y0046085D02*
X0088697Y0046085D01*
X0088721Y0046123D02*
X0091895Y0046123D01*
X0092221Y0046161D02*
X0088745Y0046161D01*
X0088768Y0046199D02*
X0096128Y0046199D01*
X0096154Y0046161D02*
X0092584Y0046161D01*
X0092874Y0046123D02*
X0096178Y0046123D01*
X0096200Y0046085D02*
X0093054Y0046085D01*
X0093191Y0046048D02*
X0096223Y0046048D01*
X0096245Y0046010D02*
X0093305Y0046010D01*
X0093408Y0045972D02*
X0096268Y0045972D01*
X0096289Y0045934D02*
X0093497Y0045934D01*
X0093579Y0045896D02*
X0096308Y0045896D01*
X0096328Y0045858D02*
X0093658Y0045858D01*
X0093725Y0045820D02*
X0096347Y0045820D01*
X0096367Y0045782D02*
X0093792Y0045782D01*
X0093855Y0045744D02*
X0096386Y0045744D01*
X0096403Y0045707D02*
X0093911Y0045707D01*
X0093967Y0045669D02*
X0096419Y0045669D01*
X0096436Y0045631D02*
X0094023Y0045631D01*
X0094070Y0045593D02*
X0096453Y0045593D01*
X0096470Y0045555D02*
X0094118Y0045555D01*
X0094165Y0045517D02*
X0096484Y0045517D01*
X0096498Y0045479D02*
X0094208Y0045479D01*
X0094245Y0045441D02*
X0096512Y0045441D01*
X0096526Y0045404D02*
X0094281Y0045404D01*
X0094318Y0045366D02*
X0096541Y0045366D01*
X0096554Y0045328D02*
X0094353Y0045328D01*
X0094383Y0045290D02*
X0096565Y0045290D01*
X0096577Y0045252D02*
X0094413Y0045252D01*
X0094443Y0045214D02*
X0096588Y0045214D01*
X0096600Y0045176D02*
X0094473Y0045176D01*
X0094500Y0045138D02*
X0096611Y0045138D01*
X0096621Y0045100D02*
X0094524Y0045100D01*
X0094549Y0045063D02*
X0096630Y0045063D01*
X0096639Y0045025D02*
X0094573Y0045025D01*
X0094597Y0044987D02*
X0096649Y0044987D01*
X0096658Y0044949D02*
X0094619Y0044949D01*
X0094638Y0044911D02*
X0096667Y0044911D01*
X0096673Y0044873D02*
X0094658Y0044873D01*
X0094677Y0044835D02*
X0096680Y0044835D01*
X0096687Y0044797D02*
X0094697Y0044797D01*
X0094714Y0044760D02*
X0096694Y0044760D01*
X0096700Y0044722D02*
X0094729Y0044722D01*
X0094745Y0044684D02*
X0096706Y0044684D01*
X0096711Y0044646D02*
X0094760Y0044646D01*
X0094775Y0044608D02*
X0096715Y0044608D01*
X0096720Y0044570D02*
X0094790Y0044570D01*
X0094801Y0044532D02*
X0096724Y0044532D01*
X0096729Y0044494D02*
X0094812Y0044494D01*
X0094823Y0044456D02*
X0096732Y0044456D01*
X0096734Y0044419D02*
X0094834Y0044419D01*
X0094845Y0044381D02*
X0096736Y0044381D01*
X0096739Y0044343D02*
X0094854Y0044343D01*
X0094862Y0044305D02*
X0096741Y0044305D01*
X0096743Y0044267D02*
X0094869Y0044267D01*
X0094876Y0044229D02*
X0096744Y0044229D01*
X0096744Y0044191D02*
X0094883Y0044191D01*
X0094890Y0044153D02*
X0096744Y0044153D01*
X0096744Y0044116D02*
X0094895Y0044116D01*
X0094898Y0044078D02*
X0096744Y0044078D01*
X0096745Y0044040D02*
X0094902Y0044040D01*
X0094905Y0044002D02*
X0096743Y0044002D01*
X0096742Y0043964D02*
X0094909Y0043964D01*
X0094912Y0043926D02*
X0096740Y0043926D01*
X0096738Y0043888D02*
X0094913Y0043888D01*
X0094912Y0043850D02*
X0096737Y0043850D01*
X0096735Y0043812D02*
X0094912Y0043812D01*
X0094912Y0043775D02*
X0096731Y0043775D01*
X0096727Y0043737D02*
X0094912Y0043737D01*
X0094911Y0043699D02*
X0096723Y0043699D01*
X0096719Y0043661D02*
X0094908Y0043661D01*
X0094904Y0043623D02*
X0096715Y0043623D01*
X0096711Y0043585D02*
X0094900Y0043585D01*
X0094896Y0043547D02*
X0096705Y0043547D01*
X0096699Y0043509D02*
X0094892Y0043509D01*
X0094888Y0043472D02*
X0096693Y0043472D01*
X0096687Y0043434D02*
X0094880Y0043434D01*
X0094872Y0043396D02*
X0096680Y0043396D01*
X0096673Y0043358D02*
X0094865Y0043358D01*
X0094857Y0043320D02*
X0096665Y0043320D01*
X0096656Y0043282D02*
X0094849Y0043282D01*
X0094840Y0043244D02*
X0096648Y0043244D01*
X0096639Y0043206D02*
X0094829Y0043206D01*
X0094817Y0043169D02*
X0096631Y0043169D01*
X0096621Y0043131D02*
X0094806Y0043131D01*
X0094794Y0043093D02*
X0096610Y0043093D01*
X0096599Y0043055D02*
X0094783Y0043055D01*
X0094768Y0043017D02*
X0096588Y0043017D01*
X0096577Y0042979D02*
X0094752Y0042979D01*
X0094737Y0042941D02*
X0096566Y0042941D01*
X0096553Y0042903D02*
X0094721Y0042903D01*
X0094705Y0042865D02*
X0096540Y0042865D01*
X0096526Y0042828D02*
X0094688Y0042828D01*
X0094668Y0042790D02*
X0096513Y0042790D01*
X0096500Y0042752D02*
X0094648Y0042752D01*
X0094628Y0042714D02*
X0096485Y0042714D01*
X0096469Y0042676D02*
X0094607Y0042676D01*
X0094586Y0042638D02*
X0096453Y0042638D01*
X0096438Y0042600D02*
X0094561Y0042600D01*
X0094536Y0042562D02*
X0096422Y0042562D01*
X0096405Y0042525D02*
X0094511Y0042525D01*
X0094486Y0042487D02*
X0096387Y0042487D01*
X0096368Y0042449D02*
X0094459Y0042449D01*
X0094428Y0042411D02*
X0096350Y0042411D01*
X0096331Y0042373D02*
X0094398Y0042373D01*
X0094367Y0042335D02*
X0096313Y0042335D01*
X0096292Y0042297D02*
X0094336Y0042297D01*
X0094300Y0042259D02*
X0096270Y0042259D01*
X0096249Y0042221D02*
X0094262Y0042221D01*
X0094224Y0042184D02*
X0096227Y0042184D01*
X0096206Y0042146D02*
X0094186Y0042146D01*
X0094142Y0042108D02*
X0096182Y0042108D01*
X0096158Y0042070D02*
X0094094Y0042070D01*
X0094046Y0042032D02*
X0096133Y0042032D01*
X0096109Y0041994D02*
X0093997Y0041994D01*
X0093940Y0041956D02*
X0096084Y0041956D01*
X0096057Y0041918D02*
X0093882Y0041918D01*
X0093825Y0041881D02*
X0096029Y0041881D01*
X0096001Y0041843D02*
X0093759Y0041843D01*
X0093690Y0041805D02*
X0095974Y0041805D01*
X0095946Y0041767D02*
X0093621Y0041767D01*
X0093538Y0041729D02*
X0095914Y0041729D01*
X0095883Y0041691D02*
X0093453Y0041691D01*
X0093357Y0041653D02*
X0095851Y0041653D01*
X0095820Y0041615D02*
X0093250Y0041615D01*
X0093123Y0041577D02*
X0095866Y0041577D01*
X0092976Y0041540D02*
X0099043Y0041540D01*
X0099059Y0041502D02*
X0092762Y0041502D01*
X0092026Y0041502D02*
X0089154Y0041502D01*
X0089171Y0041464D02*
X0099074Y0041464D01*
X0099089Y0041426D02*
X0089189Y0041426D01*
X0089207Y0041388D02*
X0099101Y0041388D01*
X0096102Y0046237D02*
X0088792Y0046237D01*
X0088819Y0046275D02*
X0096077Y0046275D01*
X0096051Y0046313D02*
X0088845Y0046313D01*
X0088872Y0046351D02*
X0096023Y0046351D01*
X0095994Y0046388D02*
X0088899Y0046388D01*
X0088926Y0046426D02*
X0095965Y0046426D01*
X0095936Y0046464D02*
X0088957Y0046464D01*
X0088987Y0046502D02*
X0095906Y0046502D01*
X0095874Y0046540D02*
X0089017Y0046540D01*
X0089047Y0046578D02*
X0095841Y0046578D01*
X0095808Y0046616D02*
X0089080Y0046616D01*
X0089114Y0046654D02*
X0095775Y0046654D01*
X0095739Y0046691D02*
X0089148Y0046691D01*
X0089181Y0046729D02*
X0095702Y0046729D01*
X0095665Y0046767D02*
X0089217Y0046767D01*
X0089255Y0046805D02*
X0095628Y0046805D01*
X0095589Y0046843D02*
X0089293Y0046843D01*
X0089331Y0046881D02*
X0095548Y0046881D01*
X0095506Y0046919D02*
X0089370Y0046919D01*
X0089413Y0046957D02*
X0095465Y0046957D01*
X0095421Y0046995D02*
X0089456Y0046995D01*
X0089499Y0047032D02*
X0095376Y0047032D01*
X0095331Y0047070D02*
X0089543Y0047070D01*
X0089591Y0047108D02*
X0095286Y0047108D01*
X0095237Y0047146D02*
X0089639Y0047146D01*
X0089687Y0047184D02*
X0095188Y0047184D01*
X0095138Y0047222D02*
X0089738Y0047222D01*
X0089791Y0047260D02*
X0095087Y0047260D01*
X0095032Y0047298D02*
X0089843Y0047298D01*
X0089898Y0047335D02*
X0094976Y0047335D01*
X0094921Y0047373D02*
X0089956Y0047373D01*
X0090015Y0047411D02*
X0094861Y0047411D01*
X0094799Y0047449D02*
X0090074Y0047449D01*
X0090140Y0047487D02*
X0094737Y0047487D01*
X0094670Y0047525D02*
X0090205Y0047525D01*
X0090272Y0047563D02*
X0094601Y0047563D01*
X0094532Y0047601D02*
X0090346Y0047601D01*
X0090419Y0047639D02*
X0094455Y0047639D01*
X0094378Y0047676D02*
X0090498Y0047676D01*
X0090581Y0047714D02*
X0094296Y0047714D01*
X0094207Y0047752D02*
X0090665Y0047752D01*
X0090761Y0047790D02*
X0094118Y0047790D01*
X0094016Y0047828D02*
X0090856Y0047828D01*
X0090867Y0047832D02*
X0091077Y0047904D01*
X0091210Y0047942D02*
X0093668Y0047942D01*
X0093524Y0047979D02*
X0091354Y0047979D01*
X0091518Y0048017D02*
X0093353Y0048017D01*
X0093143Y0048055D02*
X0091725Y0048055D01*
X0092046Y0048093D02*
X0092842Y0048093D01*
X0092820Y0049011D02*
X0093041Y0049038D01*
X0093260Y0049076D01*
X0093476Y0049126D01*
X0093690Y0049185D01*
X0093901Y0049256D01*
X0094108Y0049337D01*
X0094310Y0049428D01*
X0094508Y0049529D01*
X0094700Y0049641D01*
X0094887Y0049761D01*
X0095067Y0049891D01*
X0095240Y0050030D01*
X0095407Y0050177D01*
X0095564Y0050334D01*
X0095712Y0050500D01*
X0095851Y0050673D01*
X0095980Y0050854D01*
X0096099Y0051041D01*
X0096208Y0051235D01*
X0096307Y0051434D01*
X0096395Y0051638D01*
X0096472Y0051846D01*
X0096537Y0052058D01*
X0096591Y0052274D01*
X0096633Y0052492D01*
X0096664Y0052712D01*
X0096683Y0052933D01*
X0096689Y0053155D01*
X0096684Y0053377D01*
X0096667Y0053599D01*
X0096638Y0053819D01*
X0096597Y0054037D01*
X0096545Y0054253D01*
X0096481Y0054466D01*
X0096406Y0054675D01*
X0096320Y0054880D01*
X0096222Y0055079D01*
X0096114Y0055273D01*
X0095996Y0055462D01*
X0095868Y0055643D01*
X0095731Y0055817D01*
X0095584Y0055984D01*
X0095428Y0056143D01*
X0095268Y0056297D01*
X0095100Y0056442D01*
X0094924Y0056578D01*
X0094742Y0056704D01*
X0094553Y0056821D01*
X0094358Y0056927D01*
X0094157Y0057023D01*
X0093952Y0057108D01*
X0093743Y0057182D01*
X0093529Y0057244D01*
X0093313Y0057295D01*
X0093095Y0057335D01*
X0092874Y0057363D01*
X0092653Y0057379D01*
X0092431Y0057383D01*
X0092209Y0057378D01*
X0091987Y0057363D01*
X0091766Y0057340D01*
X0091546Y0057307D01*
X0091532Y0057097D01*
X0091532Y0051104D01*
X0093077Y0051177D01*
X0093077Y0055393D01*
X0093222Y0055356D01*
X0093432Y0055285D01*
X0093635Y0055195D01*
X0093829Y0055087D01*
X0094012Y0054961D01*
X0094183Y0054820D01*
X0094345Y0054668D01*
X0094490Y0054500D01*
X0094617Y0054317D01*
X0094723Y0054122D01*
X0094807Y0053916D01*
X0094869Y0053703D01*
X0094907Y0053484D01*
X0094922Y0053263D01*
X0094918Y0053041D01*
X0094892Y0052820D01*
X0094843Y0052604D01*
X0094771Y0052394D01*
X0094678Y0052192D01*
X0094564Y0052002D01*
X0094430Y0051824D01*
X0094278Y0051662D01*
X0094111Y0051516D01*
X0093932Y0051385D01*
X0093743Y0051268D01*
X0093545Y0051168D01*
X0093339Y0051083D01*
X0093128Y0051016D01*
X0093078Y0051167D01*
X0091527Y0051098D01*
X0091392Y0051073D01*
X0091189Y0051161D01*
X0090993Y0051267D01*
X0090808Y0051389D01*
X0090634Y0051528D01*
X0090471Y0051678D01*
X0090323Y0051844D01*
X0090193Y0052024D01*
X0090083Y0052217D01*
X0089993Y0052420D01*
X0089925Y0052631D01*
X0089879Y0052848D01*
X0089856Y0053069D01*
X0089855Y0053291D01*
X0089873Y0053513D01*
X0089913Y0053731D01*
X0089974Y0053945D01*
X0090055Y0054151D01*
X0090155Y0054349D01*
X0090275Y0054536D01*
X0090417Y0054707D01*
X0090579Y0054859D01*
X0090758Y0054990D01*
X0090898Y0055131D01*
X0090898Y0056908D01*
X0090884Y0057112D01*
X0090674Y0057041D01*
X0090467Y0056959D01*
X0090266Y0056864D01*
X0090071Y0056759D01*
X0089882Y0056642D01*
X0089700Y0056515D01*
X0089526Y0056377D01*
X0089359Y0056230D01*
X0089202Y0056073D01*
X0089054Y0055908D01*
X0088915Y0055734D01*
X0088789Y0055552D01*
X0088672Y0055363D01*
X0088566Y0055167D01*
X0088470Y0054967D01*
X0088385Y0054762D01*
X0088310Y0054553D01*
X0088246Y0054340D01*
X0088194Y0054124D01*
X0088152Y0053906D01*
X0088123Y0053686D01*
X0088104Y0053465D01*
X0088097Y0053243D01*
X0088097Y0053170D01*
X0088100Y0052948D01*
X0088114Y0052726D01*
X0088141Y0052506D01*
X0088180Y0052287D01*
X0088231Y0052071D01*
X0088294Y0051858D01*
X0088368Y0051648D01*
X0088454Y0051444D01*
X0088551Y0051244D01*
X0088659Y0051050D01*
X0088778Y0050862D01*
X0088907Y0050681D01*
X0089045Y0050507D01*
X0089193Y0050341D01*
X0089350Y0050184D01*
X0089516Y0050037D01*
X0089689Y0049898D01*
X0089869Y0049767D01*
X0090055Y0049646D01*
X0094709Y0049646D01*
X0094767Y0049684D02*
X0089997Y0049684D01*
X0090055Y0049646D02*
X0090247Y0049535D01*
X0090445Y0049433D01*
X0090647Y0049341D01*
X0090854Y0049260D01*
X0091064Y0049189D01*
X0091278Y0049128D01*
X0091494Y0049079D01*
X0091713Y0049040D01*
X0091933Y0049012D01*
X0092155Y0048995D01*
X0092377Y0048989D01*
X0092599Y0048995D01*
X0092820Y0049011D01*
X0092702Y0049002D02*
X0092062Y0049002D01*
X0091711Y0049040D02*
X0093052Y0049040D01*
X0093267Y0049078D02*
X0091498Y0049078D01*
X0091332Y0049116D02*
X0093434Y0049116D01*
X0093577Y0049154D02*
X0091187Y0049154D01*
X0091055Y0049192D02*
X0093709Y0049192D01*
X0093822Y0049230D02*
X0090943Y0049230D01*
X0090834Y0049267D02*
X0093930Y0049267D01*
X0094027Y0049305D02*
X0090738Y0049305D01*
X0090642Y0049343D02*
X0094122Y0049343D01*
X0094206Y0049381D02*
X0090559Y0049381D01*
X0090475Y0049419D02*
X0094290Y0049419D01*
X0094366Y0049457D02*
X0090398Y0049457D01*
X0090325Y0049495D02*
X0094440Y0049495D01*
X0094513Y0049533D02*
X0090251Y0049533D01*
X0090185Y0049570D02*
X0094579Y0049570D01*
X0094644Y0049608D02*
X0090120Y0049608D01*
X0089939Y0049722D02*
X0094826Y0049722D01*
X0094885Y0049760D02*
X0089880Y0049760D01*
X0089827Y0049798D02*
X0094937Y0049798D01*
X0094990Y0049836D02*
X0089775Y0049836D01*
X0089722Y0049874D02*
X0095042Y0049874D01*
X0095092Y0049911D02*
X0089672Y0049911D01*
X0089625Y0049949D02*
X0095140Y0049949D01*
X0095187Y0049987D02*
X0089577Y0049987D01*
X0089530Y0050025D02*
X0095234Y0050025D01*
X0095278Y0050063D02*
X0089486Y0050063D01*
X0089444Y0050101D02*
X0095321Y0050101D01*
X0095364Y0050139D02*
X0089401Y0050139D01*
X0089358Y0050177D02*
X0095407Y0050177D01*
X0095444Y0050214D02*
X0089319Y0050214D01*
X0089282Y0050252D02*
X0095482Y0050252D01*
X0095520Y0050290D02*
X0089244Y0050290D01*
X0089206Y0050328D02*
X0095558Y0050328D01*
X0095592Y0050366D02*
X0089171Y0050366D01*
X0089137Y0050404D02*
X0095626Y0050404D01*
X0095660Y0050442D02*
X0089103Y0050442D01*
X0089070Y0050480D02*
X0095694Y0050480D01*
X0095726Y0050518D02*
X0089037Y0050518D01*
X0089007Y0050555D02*
X0095756Y0050555D01*
X0095786Y0050593D02*
X0088976Y0050593D01*
X0088946Y0050631D02*
X0095817Y0050631D01*
X0095847Y0050669D02*
X0088916Y0050669D01*
X0088888Y0050707D02*
X0095875Y0050707D01*
X0095902Y0050745D02*
X0088861Y0050745D01*
X0088834Y0050783D02*
X0095929Y0050783D01*
X0095956Y0050821D02*
X0088807Y0050821D01*
X0088780Y0050858D02*
X0095983Y0050858D01*
X0096007Y0050896D02*
X0088756Y0050896D01*
X0088732Y0050934D02*
X0096031Y0050934D01*
X0096055Y0050972D02*
X0088708Y0050972D01*
X0088684Y0051010D02*
X0096079Y0051010D01*
X0096103Y0051048D02*
X0093228Y0051048D01*
X0093117Y0051048D02*
X0088660Y0051048D01*
X0088639Y0051086D02*
X0091364Y0051086D01*
X0091459Y0051086D02*
X0093105Y0051086D01*
X0093093Y0051124D02*
X0092096Y0051124D01*
X0091945Y0051124D02*
X0091532Y0051124D01*
X0091532Y0051161D02*
X0092748Y0051161D01*
X0092946Y0051161D02*
X0093080Y0051161D01*
X0093077Y0051199D02*
X0091532Y0051199D01*
X0091532Y0051237D02*
X0093077Y0051237D01*
X0093077Y0051275D02*
X0091532Y0051275D01*
X0091532Y0051313D02*
X0093077Y0051313D01*
X0093077Y0051351D02*
X0091532Y0051351D01*
X0091532Y0051389D02*
X0093077Y0051389D01*
X0093077Y0051427D02*
X0091532Y0051427D01*
X0091532Y0051465D02*
X0093077Y0051465D01*
X0093077Y0051502D02*
X0091532Y0051502D01*
X0091532Y0051540D02*
X0093077Y0051540D01*
X0093077Y0051578D02*
X0091532Y0051578D01*
X0091532Y0051616D02*
X0093077Y0051616D01*
X0093077Y0051654D02*
X0091532Y0051654D01*
X0091532Y0051692D02*
X0093077Y0051692D01*
X0093077Y0051730D02*
X0091532Y0051730D01*
X0091532Y0051768D02*
X0093077Y0051768D01*
X0093077Y0051805D02*
X0091532Y0051805D01*
X0091532Y0051843D02*
X0093077Y0051843D01*
X0093077Y0051881D02*
X0091532Y0051881D01*
X0091532Y0051919D02*
X0093077Y0051919D01*
X0093077Y0051957D02*
X0091532Y0051957D01*
X0091532Y0051995D02*
X0093077Y0051995D01*
X0093077Y0052033D02*
X0091532Y0052033D01*
X0091532Y0052071D02*
X0093077Y0052071D01*
X0093077Y0052109D02*
X0091532Y0052109D01*
X0091532Y0052146D02*
X0093077Y0052146D01*
X0093077Y0052184D02*
X0091532Y0052184D01*
X0091532Y0052222D02*
X0093077Y0052222D01*
X0093077Y0052260D02*
X0091532Y0052260D01*
X0091532Y0052298D02*
X0093077Y0052298D01*
X0093077Y0052336D02*
X0091532Y0052336D01*
X0091532Y0052374D02*
X0093077Y0052374D01*
X0093077Y0052412D02*
X0091532Y0052412D01*
X0091532Y0052449D02*
X0093077Y0052449D01*
X0093077Y0052487D02*
X0091532Y0052487D01*
X0091532Y0052525D02*
X0093077Y0052525D01*
X0093077Y0052563D02*
X0091532Y0052563D01*
X0091532Y0052601D02*
X0093077Y0052601D01*
X0093077Y0052639D02*
X0091532Y0052639D01*
X0091532Y0052677D02*
X0093077Y0052677D01*
X0093077Y0052715D02*
X0091532Y0052715D01*
X0091532Y0052753D02*
X0093077Y0052753D01*
X0093077Y0052790D02*
X0091532Y0052790D01*
X0091532Y0052828D02*
X0093077Y0052828D01*
X0093077Y0052866D02*
X0091532Y0052866D01*
X0091532Y0052904D02*
X0093077Y0052904D01*
X0093077Y0052942D02*
X0091532Y0052942D01*
X0091532Y0052980D02*
X0093077Y0052980D01*
X0093077Y0053018D02*
X0091532Y0053018D01*
X0091532Y0053056D02*
X0093077Y0053056D01*
X0093077Y0053093D02*
X0091532Y0053093D01*
X0091532Y0053131D02*
X0093077Y0053131D01*
X0093077Y0053169D02*
X0091532Y0053169D01*
X0091532Y0053207D02*
X0093077Y0053207D01*
X0093077Y0053245D02*
X0091532Y0053245D01*
X0091532Y0053283D02*
X0093077Y0053283D01*
X0093077Y0053321D02*
X0091532Y0053321D01*
X0091532Y0053359D02*
X0093077Y0053359D01*
X0093077Y0053396D02*
X0091532Y0053396D01*
X0091532Y0053434D02*
X0093077Y0053434D01*
X0093077Y0053472D02*
X0091532Y0053472D01*
X0091532Y0053510D02*
X0093077Y0053510D01*
X0093077Y0053548D02*
X0091532Y0053548D01*
X0091532Y0053586D02*
X0093077Y0053586D01*
X0093077Y0053624D02*
X0091532Y0053624D01*
X0091532Y0053662D02*
X0093077Y0053662D01*
X0093077Y0053700D02*
X0091532Y0053700D01*
X0091532Y0053737D02*
X0093077Y0053737D01*
X0093077Y0053775D02*
X0091532Y0053775D01*
X0091532Y0053813D02*
X0093077Y0053813D01*
X0093077Y0053851D02*
X0091532Y0053851D01*
X0091532Y0053889D02*
X0093077Y0053889D01*
X0093077Y0053927D02*
X0091532Y0053927D01*
X0091532Y0053965D02*
X0093077Y0053965D01*
X0093077Y0054003D02*
X0091532Y0054003D01*
X0091532Y0054040D02*
X0093077Y0054040D01*
X0093077Y0054078D02*
X0091532Y0054078D01*
X0091532Y0054116D02*
X0093077Y0054116D01*
X0093077Y0054154D02*
X0091532Y0054154D01*
X0091532Y0054192D02*
X0093077Y0054192D01*
X0093077Y0054230D02*
X0091532Y0054230D01*
X0091532Y0054268D02*
X0093077Y0054268D01*
X0093077Y0054306D02*
X0091532Y0054306D01*
X0091532Y0054344D02*
X0093077Y0054344D01*
X0093077Y0054381D02*
X0091532Y0054381D01*
X0091532Y0054419D02*
X0093077Y0054419D01*
X0093077Y0054457D02*
X0091532Y0054457D01*
X0091532Y0054495D02*
X0093077Y0054495D01*
X0093077Y0054533D02*
X0091532Y0054533D01*
X0091532Y0054571D02*
X0093077Y0054571D01*
X0093077Y0054609D02*
X0091532Y0054609D01*
X0091532Y0054647D02*
X0093077Y0054647D01*
X0093077Y0054684D02*
X0091532Y0054684D01*
X0091532Y0054722D02*
X0093077Y0054722D01*
X0093077Y0054760D02*
X0091532Y0054760D01*
X0091532Y0054798D02*
X0093077Y0054798D01*
X0093077Y0054836D02*
X0091532Y0054836D01*
X0091532Y0054874D02*
X0093077Y0054874D01*
X0093077Y0054912D02*
X0091532Y0054912D01*
X0091532Y0054950D02*
X0093077Y0054950D01*
X0093077Y0054988D02*
X0091532Y0054988D01*
X0091532Y0055025D02*
X0093077Y0055025D01*
X0093077Y0055063D02*
X0091532Y0055063D01*
X0091532Y0055101D02*
X0093077Y0055101D01*
X0093077Y0055139D02*
X0091532Y0055139D01*
X0091532Y0055177D02*
X0093077Y0055177D01*
X0093077Y0055215D02*
X0091532Y0055215D01*
X0091532Y0055253D02*
X0093077Y0055253D01*
X0093077Y0055291D02*
X0091532Y0055291D01*
X0091532Y0055328D02*
X0093077Y0055328D01*
X0093077Y0055366D02*
X0091532Y0055366D01*
X0091532Y0055404D02*
X0096032Y0055404D01*
X0096056Y0055366D02*
X0093181Y0055366D01*
X0093303Y0055328D02*
X0096080Y0055328D01*
X0096104Y0055291D02*
X0093415Y0055291D01*
X0093505Y0055253D02*
X0096126Y0055253D01*
X0096147Y0055215D02*
X0093590Y0055215D01*
X0093667Y0055177D02*
X0096168Y0055177D01*
X0096189Y0055139D02*
X0093735Y0055139D01*
X0093803Y0055101D02*
X0096210Y0055101D01*
X0096230Y0055063D02*
X0093863Y0055063D01*
X0093918Y0055025D02*
X0096248Y0055025D01*
X0096267Y0054988D02*
X0093974Y0054988D01*
X0094026Y0054950D02*
X0096285Y0054950D01*
X0096304Y0054912D02*
X0094072Y0054912D01*
X0094118Y0054874D02*
X0096322Y0054874D01*
X0096338Y0054836D02*
X0094164Y0054836D01*
X0094206Y0054798D02*
X0096354Y0054798D01*
X0096370Y0054760D02*
X0094247Y0054760D01*
X0094287Y0054722D02*
X0096386Y0054722D01*
X0096402Y0054684D02*
X0094328Y0054684D01*
X0094364Y0054647D02*
X0096416Y0054647D01*
X0096430Y0054609D02*
X0094396Y0054609D01*
X0094429Y0054571D02*
X0096443Y0054571D01*
X0096457Y0054533D02*
X0094462Y0054533D01*
X0094494Y0054495D02*
X0096471Y0054495D01*
X0096484Y0054457D02*
X0094520Y0054457D01*
X0094546Y0054419D02*
X0096495Y0054419D01*
X0096507Y0054381D02*
X0094572Y0054381D01*
X0094598Y0054344D02*
X0096518Y0054344D01*
X0096529Y0054306D02*
X0094623Y0054306D01*
X0094643Y0054268D02*
X0096541Y0054268D01*
X0096551Y0054230D02*
X0094664Y0054230D01*
X0094684Y0054192D02*
X0096560Y0054192D01*
X0096569Y0054154D02*
X0094705Y0054154D01*
X0094725Y0054116D02*
X0096578Y0054116D01*
X0096587Y0054078D02*
X0094740Y0054078D01*
X0094756Y0054040D02*
X0096597Y0054040D01*
X0096604Y0054003D02*
X0094771Y0054003D01*
X0094787Y0053965D02*
X0096611Y0053965D01*
X0096618Y0053927D02*
X0094802Y0053927D01*
X0094815Y0053889D02*
X0096625Y0053889D01*
X0096632Y0053851D02*
X0094826Y0053851D01*
X0094837Y0053813D02*
X0096639Y0053813D01*
X0096644Y0053775D02*
X0094848Y0053775D01*
X0094859Y0053737D02*
X0096649Y0053737D01*
X0096654Y0053700D02*
X0094869Y0053700D01*
X0094876Y0053662D02*
X0096659Y0053662D01*
X0096664Y0053624D02*
X0094883Y0053624D01*
X0094889Y0053586D02*
X0096668Y0053586D01*
X0096671Y0053548D02*
X0094896Y0053548D01*
X0094903Y0053510D02*
X0096674Y0053510D01*
X0096677Y0053472D02*
X0094908Y0053472D01*
X0094911Y0053434D02*
X0096680Y0053434D01*
X0096683Y0053396D02*
X0094913Y0053396D01*
X0094916Y0053359D02*
X0096685Y0053359D01*
X0096686Y0053321D02*
X0094918Y0053321D01*
X0094921Y0053283D02*
X0096686Y0053283D01*
X0096687Y0053245D02*
X0094922Y0053245D01*
X0094921Y0053207D02*
X0096688Y0053207D01*
X0096689Y0053169D02*
X0094920Y0053169D01*
X0094920Y0053131D02*
X0096689Y0053131D01*
X0096687Y0053093D02*
X0094919Y0053093D01*
X0094918Y0053056D02*
X0096686Y0053056D01*
X0096685Y0053018D02*
X0094915Y0053018D01*
X0094911Y0052980D02*
X0096684Y0052980D01*
X0096683Y0052942D02*
X0094906Y0052942D01*
X0094902Y0052904D02*
X0096680Y0052904D01*
X0096677Y0052866D02*
X0094897Y0052866D01*
X0094893Y0052828D02*
X0096674Y0052828D01*
X0096671Y0052790D02*
X0094885Y0052790D01*
X0094877Y0052753D02*
X0096667Y0052753D01*
X0096664Y0052715D02*
X0094868Y0052715D01*
X0094859Y0052677D02*
X0096659Y0052677D01*
X0096654Y0052639D02*
X0094851Y0052639D01*
X0094842Y0052601D02*
X0096649Y0052601D01*
X0096643Y0052563D02*
X0094829Y0052563D01*
X0094816Y0052525D02*
X0096638Y0052525D01*
X0096633Y0052487D02*
X0094803Y0052487D01*
X0094790Y0052449D02*
X0096625Y0052449D01*
X0096618Y0052412D02*
X0094777Y0052412D01*
X0094762Y0052374D02*
X0096611Y0052374D01*
X0096603Y0052336D02*
X0094744Y0052336D01*
X0094727Y0052298D02*
X0096596Y0052298D01*
X0096588Y0052260D02*
X0094709Y0052260D01*
X0094692Y0052222D02*
X0096578Y0052222D01*
X0096569Y0052184D02*
X0094673Y0052184D01*
X0094650Y0052146D02*
X0096559Y0052146D01*
X0096550Y0052109D02*
X0094628Y0052109D01*
X0094605Y0052071D02*
X0096540Y0052071D01*
X0096529Y0052033D02*
X0094582Y0052033D01*
X0094558Y0051995D02*
X0096518Y0051995D01*
X0096506Y0051957D02*
X0094530Y0051957D01*
X0094501Y0051919D02*
X0096494Y0051919D01*
X0096483Y0051881D02*
X0094473Y0051881D01*
X0094444Y0051843D02*
X0096471Y0051843D01*
X0096457Y0051805D02*
X0094412Y0051805D01*
X0094377Y0051768D02*
X0096443Y0051768D01*
X0096429Y0051730D02*
X0094341Y0051730D01*
X0094306Y0051692D02*
X0096415Y0051692D01*
X0096401Y0051654D02*
X0094269Y0051654D01*
X0094225Y0051616D02*
X0096386Y0051616D01*
X0096369Y0051578D02*
X0094182Y0051578D01*
X0094138Y0051540D02*
X0096353Y0051540D01*
X0096337Y0051502D02*
X0094092Y0051502D01*
X0094040Y0051465D02*
X0096320Y0051465D01*
X0096304Y0051427D02*
X0093989Y0051427D01*
X0093937Y0051389D02*
X0096285Y0051389D01*
X0096266Y0051351D02*
X0093877Y0051351D01*
X0093815Y0051313D02*
X0096247Y0051313D01*
X0096229Y0051275D02*
X0093754Y0051275D01*
X0093682Y0051237D02*
X0096210Y0051237D01*
X0096189Y0051199D02*
X0093607Y0051199D01*
X0093530Y0051161D02*
X0096167Y0051161D01*
X0096146Y0051124D02*
X0093438Y0051124D01*
X0093345Y0051086D02*
X0096124Y0051086D01*
X0096009Y0055442D02*
X0091532Y0055442D01*
X0091532Y0055480D02*
X0095983Y0055480D01*
X0095957Y0055518D02*
X0091532Y0055518D01*
X0091532Y0055556D02*
X0095930Y0055556D01*
X0095903Y0055594D02*
X0091532Y0055594D01*
X0091532Y0055631D02*
X0095876Y0055631D01*
X0095848Y0055669D02*
X0091532Y0055669D01*
X0091532Y0055707D02*
X0095818Y0055707D01*
X0095788Y0055745D02*
X0091532Y0055745D01*
X0091532Y0055783D02*
X0095758Y0055783D01*
X0095728Y0055821D02*
X0091532Y0055821D01*
X0091532Y0055859D02*
X0095694Y0055859D01*
X0095661Y0055897D02*
X0091532Y0055897D01*
X0091532Y0055935D02*
X0095628Y0055935D01*
X0095594Y0055972D02*
X0091532Y0055972D01*
X0091532Y0056010D02*
X0095558Y0056010D01*
X0095521Y0056048D02*
X0091532Y0056048D01*
X0091532Y0056086D02*
X0095484Y0056086D01*
X0095447Y0056124D02*
X0091532Y0056124D01*
X0091532Y0056162D02*
X0095409Y0056162D01*
X0095369Y0056200D02*
X0091532Y0056200D01*
X0091532Y0056238D02*
X0095330Y0056238D01*
X0095290Y0056275D02*
X0091532Y0056275D01*
X0091532Y0056313D02*
X0095249Y0056313D01*
X0095205Y0056351D02*
X0091532Y0056351D01*
X0091532Y0056389D02*
X0095161Y0056389D01*
X0095117Y0056427D02*
X0091532Y0056427D01*
X0091532Y0056465D02*
X0095070Y0056465D01*
X0095021Y0056503D02*
X0091532Y0056503D01*
X0091532Y0056541D02*
X0094972Y0056541D01*
X0094923Y0056579D02*
X0091532Y0056579D01*
X0091532Y0056616D02*
X0094868Y0056616D01*
X0094814Y0056654D02*
X0091532Y0056654D01*
X0091532Y0056692D02*
X0094759Y0056692D01*
X0094700Y0056730D02*
X0091532Y0056730D01*
X0091532Y0056768D02*
X0094638Y0056768D01*
X0094577Y0056806D02*
X0091532Y0056806D01*
X0091532Y0056844D02*
X0094510Y0056844D01*
X0094441Y0056882D02*
X0091532Y0056882D01*
X0091532Y0056919D02*
X0094372Y0056919D01*
X0094294Y0056957D02*
X0091532Y0056957D01*
X0091532Y0056995D02*
X0094215Y0056995D01*
X0094132Y0057033D02*
X0091532Y0057033D01*
X0091532Y0057071D02*
X0094041Y0057071D01*
X0093949Y0057109D02*
X0091533Y0057109D01*
X0091535Y0057147D02*
X0093841Y0057147D01*
X0093732Y0057185D02*
X0091538Y0057185D01*
X0091541Y0057223D02*
X0093603Y0057223D01*
X0093461Y0057260D02*
X0091543Y0057260D01*
X0091546Y0057298D02*
X0093298Y0057298D01*
X0093085Y0057336D02*
X0091742Y0057336D01*
X0092152Y0057374D02*
X0092721Y0057374D01*
X0090885Y0057109D02*
X0090876Y0057109D01*
X0090887Y0057071D02*
X0090763Y0057071D01*
X0090653Y0057033D02*
X0090890Y0057033D01*
X0090892Y0056995D02*
X0090559Y0056995D01*
X0090464Y0056957D02*
X0090895Y0056957D01*
X0090898Y0056919D02*
X0090384Y0056919D01*
X0090303Y0056882D02*
X0090898Y0056882D01*
X0090898Y0056844D02*
X0090228Y0056844D01*
X0090158Y0056806D02*
X0090898Y0056806D01*
X0090898Y0056768D02*
X0090088Y0056768D01*
X0090024Y0056730D02*
X0090898Y0056730D01*
X0090898Y0056692D02*
X0089963Y0056692D01*
X0089901Y0056654D02*
X0090898Y0056654D01*
X0090898Y0056616D02*
X0089845Y0056616D01*
X0089790Y0056579D02*
X0090898Y0056579D01*
X0090898Y0056541D02*
X0089736Y0056541D01*
X0089684Y0056503D02*
X0090898Y0056503D01*
X0090898Y0056465D02*
X0089636Y0056465D01*
X0089588Y0056427D02*
X0090898Y0056427D01*
X0090898Y0056389D02*
X0089540Y0056389D01*
X0089496Y0056351D02*
X0090898Y0056351D01*
X0090898Y0056313D02*
X0089453Y0056313D01*
X0089411Y0056275D02*
X0090898Y0056275D01*
X0090898Y0056238D02*
X0089368Y0056238D01*
X0089329Y0056200D02*
X0090898Y0056200D01*
X0090898Y0056162D02*
X0089291Y0056162D01*
X0089253Y0056124D02*
X0090898Y0056124D01*
X0090898Y0056086D02*
X0089215Y0056086D01*
X0089179Y0056048D02*
X0090898Y0056048D01*
X0090898Y0056010D02*
X0089145Y0056010D01*
X0089112Y0055972D02*
X0090898Y0055972D01*
X0090898Y0055935D02*
X0089078Y0055935D01*
X0089045Y0055897D02*
X0090898Y0055897D01*
X0090898Y0055859D02*
X0089015Y0055859D01*
X0088985Y0055821D02*
X0090898Y0055821D01*
X0090898Y0055783D02*
X0088954Y0055783D01*
X0088924Y0055745D02*
X0090898Y0055745D01*
X0090898Y0055707D02*
X0088897Y0055707D01*
X0088870Y0055669D02*
X0090898Y0055669D01*
X0090898Y0055631D02*
X0088844Y0055631D01*
X0088818Y0055594D02*
X0090898Y0055594D01*
X0090898Y0055556D02*
X0088791Y0055556D01*
X0088768Y0055518D02*
X0090898Y0055518D01*
X0090898Y0055480D02*
X0088744Y0055480D01*
X0088721Y0055442D02*
X0090898Y0055442D01*
X0090898Y0055404D02*
X0088698Y0055404D01*
X0088675Y0055366D02*
X0090898Y0055366D01*
X0090898Y0055328D02*
X0088654Y0055328D01*
X0088633Y0055291D02*
X0090898Y0055291D01*
X0090898Y0055253D02*
X0088613Y0055253D01*
X0088592Y0055215D02*
X0090898Y0055215D01*
X0090898Y0055177D02*
X0088571Y0055177D01*
X0088553Y0055139D02*
X0090898Y0055139D01*
X0090869Y0055101D02*
X0088534Y0055101D01*
X0088516Y0055063D02*
X0090831Y0055063D01*
X0090794Y0055025D02*
X0088498Y0055025D01*
X0088480Y0054988D02*
X0090755Y0054988D01*
X0090703Y0054950D02*
X0088463Y0054950D01*
X0088447Y0054912D02*
X0090652Y0054912D01*
X0090600Y0054874D02*
X0088431Y0054874D01*
X0088416Y0054836D02*
X0090555Y0054836D01*
X0090514Y0054798D02*
X0088400Y0054798D01*
X0088384Y0054760D02*
X0090474Y0054760D01*
X0090434Y0054722D02*
X0088371Y0054722D01*
X0088357Y0054684D02*
X0090398Y0054684D01*
X0090367Y0054647D02*
X0088344Y0054647D01*
X0088330Y0054609D02*
X0090335Y0054609D01*
X0090304Y0054571D02*
X0088316Y0054571D01*
X0088304Y0054533D02*
X0090273Y0054533D01*
X0090249Y0054495D02*
X0088293Y0054495D01*
X0088281Y0054457D02*
X0090225Y0054457D01*
X0090200Y0054419D02*
X0088270Y0054419D01*
X0088259Y0054381D02*
X0090176Y0054381D01*
X0090152Y0054344D02*
X0088248Y0054344D01*
X0088238Y0054306D02*
X0090133Y0054306D01*
X0090114Y0054268D02*
X0088229Y0054268D01*
X0088220Y0054230D02*
X0090095Y0054230D01*
X0090075Y0054192D02*
X0088210Y0054192D01*
X0088201Y0054154D02*
X0090056Y0054154D01*
X0090041Y0054116D02*
X0088192Y0054116D01*
X0088185Y0054078D02*
X0090026Y0054078D01*
X0090011Y0054040D02*
X0088178Y0054040D01*
X0088171Y0054003D02*
X0089996Y0054003D01*
X0089981Y0053965D02*
X0088164Y0053965D01*
X0088156Y0053927D02*
X0089968Y0053927D01*
X0089958Y0053889D02*
X0088150Y0053889D01*
X0088145Y0053851D02*
X0089947Y0053851D01*
X0089936Y0053813D02*
X0088140Y0053813D01*
X0088135Y0053775D02*
X0089925Y0053775D01*
X0089915Y0053737D02*
X0088130Y0053737D01*
X0088124Y0053700D02*
X0089907Y0053700D01*
X0089900Y0053662D02*
X0088121Y0053662D01*
X0088117Y0053624D02*
X0089893Y0053624D01*
X0089886Y0053586D02*
X0088114Y0053586D01*
X0088111Y0053548D02*
X0089879Y0053548D01*
X0089873Y0053510D02*
X0088108Y0053510D01*
X0088105Y0053472D02*
X0089870Y0053472D01*
X0089867Y0053434D02*
X0088103Y0053434D01*
X0088102Y0053396D02*
X0089863Y0053396D01*
X0089860Y0053359D02*
X0088101Y0053359D01*
X0088100Y0053321D02*
X0089857Y0053321D01*
X0089855Y0053283D02*
X0088098Y0053283D01*
X0088097Y0053245D02*
X0089855Y0053245D01*
X0089855Y0053207D02*
X0088097Y0053207D01*
X0088097Y0053169D02*
X0089856Y0053169D01*
X0089856Y0053131D02*
X0088098Y0053131D01*
X0088098Y0053093D02*
X0089856Y0053093D01*
X0089858Y0053056D02*
X0088099Y0053056D01*
X0088099Y0053018D02*
X0089861Y0053018D01*
X0089865Y0052980D02*
X0088099Y0052980D01*
X0088100Y0052942D02*
X0089869Y0052942D01*
X0089873Y0052904D02*
X0088103Y0052904D01*
X0088105Y0052866D02*
X0089877Y0052866D01*
X0089883Y0052828D02*
X0088108Y0052828D01*
X0088110Y0052790D02*
X0089891Y0052790D01*
X0089899Y0052753D02*
X0088113Y0052753D01*
X0088116Y0052715D02*
X0089907Y0052715D01*
X0089915Y0052677D02*
X0088120Y0052677D01*
X0088125Y0052639D02*
X0089923Y0052639D01*
X0089935Y0052601D02*
X0088130Y0052601D01*
X0088134Y0052563D02*
X0089947Y0052563D01*
X0089959Y0052525D02*
X0088139Y0052525D01*
X0088144Y0052487D02*
X0089971Y0052487D01*
X0089984Y0052449D02*
X0088151Y0052449D01*
X0088158Y0052412D02*
X0089997Y0052412D01*
X0090014Y0052374D02*
X0088165Y0052374D01*
X0088171Y0052336D02*
X0090030Y0052336D01*
X0090047Y0052298D02*
X0088178Y0052298D01*
X0088186Y0052260D02*
X0090064Y0052260D01*
X0090081Y0052222D02*
X0088195Y0052222D01*
X0088204Y0052184D02*
X0090102Y0052184D01*
X0090123Y0052146D02*
X0088213Y0052146D01*
X0088222Y0052109D02*
X0090145Y0052109D01*
X0090167Y0052071D02*
X0088231Y0052071D01*
X0088242Y0052033D02*
X0090188Y0052033D01*
X0090214Y0051995D02*
X0088253Y0051995D01*
X0088265Y0051957D02*
X0090242Y0051957D01*
X0090269Y0051919D02*
X0088276Y0051919D01*
X0088287Y0051881D02*
X0090296Y0051881D01*
X0090324Y0051843D02*
X0088299Y0051843D01*
X0088313Y0051805D02*
X0090357Y0051805D01*
X0090391Y0051768D02*
X0088326Y0051768D01*
X0088339Y0051730D02*
X0090425Y0051730D01*
X0090459Y0051692D02*
X0088353Y0051692D01*
X0088366Y0051654D02*
X0090497Y0051654D01*
X0090538Y0051616D02*
X0088382Y0051616D01*
X0088398Y0051578D02*
X0090579Y0051578D01*
X0090620Y0051540D02*
X0088414Y0051540D01*
X0088430Y0051502D02*
X0090666Y0051502D01*
X0090713Y0051465D02*
X0088446Y0051465D01*
X0088463Y0051427D02*
X0090761Y0051427D01*
X0090809Y0051389D02*
X0088481Y0051389D01*
X0088499Y0051351D02*
X0090866Y0051351D01*
X0090924Y0051313D02*
X0088518Y0051313D01*
X0088536Y0051275D02*
X0090981Y0051275D01*
X0091049Y0051237D02*
X0088555Y0051237D01*
X0088576Y0051199D02*
X0091119Y0051199D01*
X0091189Y0051161D02*
X0088597Y0051161D01*
X0088618Y0051124D02*
X0091276Y0051124D01*
X0088427Y0058728D02*
X0096412Y0058728D01*
X0096412Y0060502D01*
X0096216Y0060528D01*
X0095994Y0060528D01*
X0095823Y0060544D01*
X0096003Y0060672D01*
X0096166Y0060824D01*
X0096309Y0060993D01*
X0096432Y0061177D01*
X0096533Y0061374D01*
X0096610Y0061582D01*
X0096663Y0061797D01*
X0096690Y0062017D01*
X0096692Y0062239D01*
X0096635Y0062407D01*
X0094861Y0062407D01*
X0094795Y0061983D01*
X0094736Y0061770D01*
X0094654Y0061564D01*
X0094551Y0061368D01*
X0094427Y0061184D01*
X0094266Y0061033D01*
X0094083Y0060906D01*
X0093887Y0060804D01*
X0093679Y0060728D01*
X0093463Y0060678D01*
X0093242Y0060656D01*
X0093021Y0060662D01*
X0088364Y0060661D01*
X0088364Y0058886D01*
X0088427Y0058728D01*
X0088423Y0058738D02*
X0096412Y0058738D01*
X0096412Y0058776D02*
X0088408Y0058776D01*
X0088393Y0058814D02*
X0096412Y0058814D01*
X0096412Y0058851D02*
X0088378Y0058851D01*
X0088364Y0058889D02*
X0096412Y0058889D01*
X0096412Y0058927D02*
X0088364Y0058927D01*
X0088364Y0058965D02*
X0096412Y0058965D01*
X0096412Y0059003D02*
X0088364Y0059003D01*
X0088364Y0059041D02*
X0096412Y0059041D01*
X0096412Y0059079D02*
X0088364Y0059079D01*
X0088364Y0059117D02*
X0096412Y0059117D01*
X0096412Y0059154D02*
X0088364Y0059154D01*
X0088364Y0059192D02*
X0096412Y0059192D01*
X0096412Y0059230D02*
X0088364Y0059230D01*
X0088364Y0059268D02*
X0096412Y0059268D01*
X0096412Y0059306D02*
X0088364Y0059306D01*
X0088364Y0059344D02*
X0096412Y0059344D01*
X0096412Y0059382D02*
X0088364Y0059382D01*
X0088364Y0059420D02*
X0096412Y0059420D01*
X0096412Y0059458D02*
X0088364Y0059458D01*
X0088364Y0059495D02*
X0096412Y0059495D01*
X0096412Y0059533D02*
X0088364Y0059533D01*
X0088364Y0059571D02*
X0096412Y0059571D01*
X0096412Y0059609D02*
X0088364Y0059609D01*
X0088364Y0059647D02*
X0096412Y0059647D01*
X0096412Y0059685D02*
X0088364Y0059685D01*
X0088364Y0059723D02*
X0096412Y0059723D01*
X0096412Y0059761D02*
X0088364Y0059761D01*
X0088364Y0059798D02*
X0096412Y0059798D01*
X0096412Y0059836D02*
X0088364Y0059836D01*
X0088364Y0059874D02*
X0096412Y0059874D01*
X0096412Y0059912D02*
X0088364Y0059912D01*
X0088364Y0059950D02*
X0096412Y0059950D01*
X0096412Y0059988D02*
X0088364Y0059988D01*
X0088364Y0060026D02*
X0096412Y0060026D01*
X0096412Y0060064D02*
X0088364Y0060064D01*
X0088364Y0060102D02*
X0096412Y0060102D01*
X0096412Y0060139D02*
X0088364Y0060139D01*
X0088364Y0060177D02*
X0096412Y0060177D01*
X0096412Y0060215D02*
X0088364Y0060215D01*
X0088364Y0060253D02*
X0096412Y0060253D01*
X0096412Y0060291D02*
X0088364Y0060291D01*
X0088364Y0060329D02*
X0096412Y0060329D01*
X0096412Y0060367D02*
X0088364Y0060367D01*
X0088364Y0060405D02*
X0096412Y0060405D01*
X0096412Y0060442D02*
X0088364Y0060442D01*
X0088364Y0060480D02*
X0096412Y0060480D01*
X0096290Y0060518D02*
X0088364Y0060518D01*
X0088364Y0060556D02*
X0095841Y0060556D01*
X0095894Y0060594D02*
X0088364Y0060594D01*
X0088364Y0060632D02*
X0095947Y0060632D01*
X0096000Y0060670D02*
X0093379Y0060670D01*
X0093592Y0060708D02*
X0096041Y0060708D01*
X0096082Y0060745D02*
X0093727Y0060745D01*
X0093830Y0060783D02*
X0096122Y0060783D01*
X0096163Y0060821D02*
X0093919Y0060821D01*
X0093992Y0060859D02*
X0096196Y0060859D01*
X0096228Y0060897D02*
X0094065Y0060897D01*
X0094124Y0060935D02*
X0096260Y0060935D01*
X0096292Y0060973D02*
X0094179Y0060973D01*
X0094234Y0061011D02*
X0096321Y0061011D01*
X0096346Y0061049D02*
X0094282Y0061049D01*
X0094323Y0061086D02*
X0096372Y0061086D01*
X0096397Y0061124D02*
X0094364Y0061124D01*
X0094404Y0061162D02*
X0096422Y0061162D01*
X0096444Y0061200D02*
X0094438Y0061200D01*
X0094464Y0061238D02*
X0096463Y0061238D01*
X0096483Y0061276D02*
X0094489Y0061276D01*
X0094515Y0061314D02*
X0096502Y0061314D01*
X0096521Y0061352D02*
X0094540Y0061352D01*
X0094562Y0061389D02*
X0096539Y0061389D01*
X0096553Y0061427D02*
X0094582Y0061427D01*
X0094602Y0061465D02*
X0096567Y0061465D01*
X0096581Y0061503D02*
X0094622Y0061503D01*
X0094642Y0061541D02*
X0096595Y0061541D01*
X0096609Y0061579D02*
X0094660Y0061579D01*
X0094675Y0061617D02*
X0096619Y0061617D01*
X0096628Y0061655D02*
X0094690Y0061655D01*
X0094705Y0061693D02*
X0096637Y0061693D01*
X0096647Y0061730D02*
X0094720Y0061730D01*
X0094735Y0061768D02*
X0096656Y0061768D01*
X0096664Y0061806D02*
X0094746Y0061806D01*
X0094756Y0061844D02*
X0096669Y0061844D01*
X0096673Y0061882D02*
X0094767Y0061882D01*
X0094778Y0061920D02*
X0096678Y0061920D01*
X0096683Y0061958D02*
X0094788Y0061958D01*
X0094797Y0061996D02*
X0096688Y0061996D01*
X0096690Y0062033D02*
X0094803Y0062033D01*
X0094809Y0062071D02*
X0096691Y0062071D01*
X0096691Y0062109D02*
X0094815Y0062109D01*
X0094821Y0062147D02*
X0096691Y0062147D01*
X0096692Y0062185D02*
X0094827Y0062185D01*
X0094832Y0062223D02*
X0096692Y0062223D01*
X0096685Y0062261D02*
X0094838Y0062261D01*
X0094844Y0062299D02*
X0096672Y0062299D01*
X0096659Y0062337D02*
X0094850Y0062337D01*
X0094856Y0062374D02*
X0096646Y0062374D01*
X0095282Y0063965D02*
X0089481Y0063965D01*
X0089471Y0063974D02*
X0089645Y0063835D01*
X0089826Y0063705D01*
X0090013Y0063585D01*
X0090206Y0063473D01*
X0094555Y0063473D01*
X0094487Y0063435D02*
X0090280Y0063435D01*
X0090354Y0063397D02*
X0094410Y0063397D01*
X0094483Y0063433D02*
X0094678Y0063541D01*
X0094867Y0063658D01*
X0095050Y0063784D01*
X0095227Y0063919D01*
X0095397Y0064063D01*
X0095562Y0064213D01*
X0095718Y0064372D01*
X0095864Y0064540D01*
X0095999Y0064717D01*
X0096124Y0064901D01*
X0096237Y0065093D01*
X0096338Y0065291D01*
X0093875Y0065291D01*
X0093877Y0065292D02*
X0093684Y0065181D01*
X0093483Y0065085D01*
X0093275Y0065006D01*
X0093061Y0064944D01*
X0092843Y0064899D01*
X0092622Y0064872D01*
X0092400Y0064862D01*
X0092177Y0064870D01*
X0091956Y0064895D01*
X0091738Y0064938D01*
X0091523Y0064999D01*
X0091315Y0065076D01*
X0091113Y0065170D01*
X0090919Y0065279D01*
X0090735Y0065404D01*
X0090561Y0065543D01*
X0090403Y0065700D01*
X0090262Y0065872D01*
X0090138Y0066057D01*
X0090034Y0066254D01*
X0089949Y0066459D01*
X0089886Y0066673D01*
X0089845Y0066891D01*
X0089825Y0067113D01*
X0089828Y0067336D01*
X0089853Y0067557D01*
X0089900Y0067774D01*
X0089968Y0067986D01*
X0090058Y0068190D01*
X0090167Y0068384D01*
X0090295Y0068566D01*
X0090440Y0068734D01*
X0090602Y0068887D01*
X0090777Y0069024D01*
X0090963Y0069147D01*
X0091158Y0069255D01*
X0091361Y0069346D01*
X0091571Y0069420D01*
X0091786Y0069477D01*
X0092005Y0069517D01*
X0092227Y0069539D01*
X0092449Y0069543D01*
X0092671Y0069529D01*
X0092892Y0069497D01*
X0093109Y0069448D01*
X0093321Y0069381D01*
X0093527Y0069297D01*
X0093726Y0069197D01*
X0093916Y0069081D01*
X0094096Y0068951D01*
X0094265Y0068805D01*
X0094414Y0068647D01*
X0095546Y0069594D01*
X0095693Y0069620D01*
X0096361Y0069620D01*
X0096412Y0069793D01*
X0096412Y0071352D01*
X0096336Y0071499D01*
X0090102Y0071499D01*
X0089657Y0071504D01*
X0089434Y0071498D01*
X0089212Y0071482D01*
X0088991Y0071456D01*
X0088771Y0071420D01*
X0088553Y0071374D01*
X0088338Y0071319D01*
X0088125Y0071254D01*
X0087915Y0071179D01*
X0087709Y0071095D01*
X0087507Y0071002D01*
X0087309Y0070899D01*
X0087116Y0070788D01*
X0086928Y0070669D01*
X0086746Y0070541D01*
X0086570Y0070405D01*
X0086401Y0070260D01*
X0086244Y0070102D01*
X0086096Y0069935D01*
X0085957Y0069762D01*
X0085827Y0069581D01*
X0085708Y0069393D01*
X0085598Y0069199D01*
X0085499Y0068999D01*
X0085411Y0068795D01*
X0085334Y0068586D01*
X0085268Y0068373D01*
X0085214Y0068158D01*
X0085172Y0067939D01*
X0085141Y0067719D01*
X0085122Y0067497D01*
X0085115Y0067274D01*
X0085120Y0066829D01*
X0085132Y0066607D01*
X0085156Y0066385D01*
X0085191Y0066166D01*
X0085237Y0065948D01*
X0085294Y0065732D01*
X0085361Y0065520D01*
X0085439Y0065312D01*
X0085527Y0065107D01*
X0085626Y0064908D01*
X0085734Y0064713D01*
X0085852Y0064524D01*
X0085981Y0064343D01*
X0086121Y0064170D01*
X0086271Y0064006D01*
X0086432Y0063851D01*
X0086601Y0063707D01*
X0086780Y0063574D01*
X0086966Y0063451D01*
X0087159Y0063341D01*
X0087359Y0063243D01*
X0087564Y0063157D01*
X0087775Y0063085D01*
X0087772Y0065309D01*
X0087584Y0065429D01*
X0087416Y0065575D01*
X0087271Y0065743D01*
X0087152Y0065931D01*
X0087056Y0066132D01*
X0086976Y0066340D01*
X0086915Y0066554D01*
X0086871Y0066772D01*
X0086847Y0066993D01*
X0086841Y0067153D01*
X0086845Y0067375D01*
X0085118Y0067375D01*
X0085119Y0067413D02*
X0086849Y0067413D01*
X0086854Y0067450D02*
X0085120Y0067450D01*
X0085122Y0067488D02*
X0086858Y0067488D01*
X0086862Y0067526D02*
X0085124Y0067526D01*
X0085128Y0067564D02*
X0086866Y0067564D01*
X0086870Y0067597D02*
X0086914Y0067815D01*
X0086978Y0068028D01*
X0087061Y0068234D01*
X0087163Y0068433D01*
X0087282Y0068621D01*
X0087417Y0068797D01*
X0087569Y0068960D01*
X0087736Y0069107D01*
X0087915Y0069239D01*
X0088105Y0069356D01*
X0088303Y0069457D01*
X0088509Y0069542D01*
X0088721Y0069610D01*
X0088937Y0069662D01*
X0089157Y0069695D01*
X0089296Y0069677D01*
X0089138Y0069520D01*
X0088989Y0069354D01*
X0088851Y0069180D01*
X0088722Y0068998D01*
X0088605Y0068809D01*
X0088500Y0068613D01*
X0088406Y0068411D01*
X0088324Y0068204D01*
X0088254Y0067992D01*
X0088197Y0067777D01*
X0088152Y0067559D01*
X0088121Y0067339D01*
X0088103Y0067117D01*
X0088097Y0066894D01*
X0088101Y0066672D01*
X0088118Y0066450D01*
X0088149Y0066229D01*
X0088193Y0066011D01*
X0088250Y0065796D01*
X0088319Y0065584D01*
X0088402Y0065378D01*
X0088497Y0065176D01*
X0088604Y0064981D01*
X0088722Y0064792D01*
X0088852Y0064612D01*
X0088992Y0064439D01*
X0089143Y0064275D01*
X0089303Y0064120D01*
X0089471Y0063974D01*
X0089437Y0064003D02*
X0095327Y0064003D01*
X0095372Y0064041D02*
X0089394Y0064041D01*
X0089350Y0064079D02*
X0095415Y0064079D01*
X0095457Y0064117D02*
X0089307Y0064117D01*
X0089267Y0064155D02*
X0095498Y0064155D01*
X0095540Y0064193D02*
X0089228Y0064193D01*
X0089189Y0064231D02*
X0095580Y0064231D01*
X0095617Y0064268D02*
X0089149Y0064268D01*
X0089114Y0064306D02*
X0095654Y0064306D01*
X0095691Y0064344D02*
X0089079Y0064344D01*
X0089044Y0064382D02*
X0095727Y0064382D01*
X0095760Y0064420D02*
X0089009Y0064420D01*
X0088977Y0064458D02*
X0095793Y0064458D01*
X0095826Y0064496D02*
X0088946Y0064496D01*
X0088915Y0064534D02*
X0095858Y0064534D01*
X0095888Y0064572D02*
X0088884Y0064572D01*
X0088854Y0064609D02*
X0095917Y0064609D01*
X0095946Y0064647D02*
X0088826Y0064647D01*
X0088799Y0064685D02*
X0095975Y0064685D01*
X0096004Y0064723D02*
X0088772Y0064723D01*
X0088745Y0064761D02*
X0096029Y0064761D01*
X0096055Y0064799D02*
X0088718Y0064799D01*
X0088694Y0064837D02*
X0096080Y0064837D01*
X0096106Y0064875D02*
X0092646Y0064875D01*
X0092908Y0064912D02*
X0096130Y0064912D01*
X0096153Y0064950D02*
X0093083Y0064950D01*
X0093213Y0064988D02*
X0096175Y0064988D01*
X0096197Y0065026D02*
X0093327Y0065026D01*
X0093427Y0065064D02*
X0096220Y0065064D01*
X0096241Y0065102D02*
X0093518Y0065102D01*
X0093598Y0065140D02*
X0096261Y0065140D01*
X0096280Y0065178D02*
X0093677Y0065178D01*
X0093744Y0065215D02*
X0096299Y0065215D01*
X0096319Y0065253D02*
X0093810Y0065253D01*
X0093877Y0065292D02*
X0094060Y0065418D01*
X0094232Y0065560D01*
X0094386Y0065720D01*
X0094524Y0065895D01*
X0094643Y0066083D01*
X0094743Y0066281D01*
X0094823Y0066489D01*
X0094882Y0066704D01*
X0094918Y0066923D01*
X0094933Y0067145D01*
X0094933Y0067208D01*
X0094925Y0067431D01*
X0094895Y0067651D01*
X0094841Y0067867D01*
X0096572Y0067867D01*
X0096564Y0067900D02*
X0096499Y0068113D01*
X0096421Y0068321D01*
X0096330Y0068525D01*
X0096227Y0068722D01*
X0096112Y0068912D01*
X0095985Y0069096D01*
X0095848Y0069270D01*
X0095699Y0069436D01*
X0095544Y0069590D01*
X0094421Y0068640D01*
X0094553Y0068467D01*
X0094670Y0068277D01*
X0094766Y0068077D01*
X0094841Y0067867D01*
X0094851Y0067829D02*
X0096581Y0067829D01*
X0096590Y0067791D02*
X0094860Y0067791D01*
X0094869Y0067754D02*
X0096599Y0067754D01*
X0096608Y0067716D02*
X0094879Y0067716D01*
X0094888Y0067678D02*
X0096617Y0067678D01*
X0096616Y0067683D02*
X0096564Y0067900D01*
X0096562Y0067905D02*
X0094828Y0067905D01*
X0094814Y0067943D02*
X0096551Y0067943D01*
X0096539Y0067981D02*
X0094801Y0067981D01*
X0094787Y0068019D02*
X0096528Y0068019D01*
X0096516Y0068057D02*
X0094773Y0068057D01*
X0094758Y0068094D02*
X0096505Y0068094D01*
X0096492Y0068132D02*
X0094739Y0068132D01*
X0094721Y0068170D02*
X0096477Y0068170D01*
X0096463Y0068208D02*
X0094703Y0068208D01*
X0094685Y0068246D02*
X0096449Y0068246D01*
X0096435Y0068284D02*
X0094666Y0068284D01*
X0094642Y0068322D02*
X0096421Y0068322D01*
X0096404Y0068360D02*
X0094619Y0068360D01*
X0094596Y0068398D02*
X0096387Y0068398D01*
X0096370Y0068435D02*
X0094572Y0068435D01*
X0094548Y0068473D02*
X0096353Y0068473D01*
X0096336Y0068511D02*
X0094519Y0068511D01*
X0094490Y0068549D02*
X0096317Y0068549D01*
X0096298Y0068587D02*
X0094461Y0068587D01*
X0094432Y0068625D02*
X0096278Y0068625D01*
X0096258Y0068663D02*
X0094448Y0068663D01*
X0094433Y0068663D02*
X0094399Y0068663D01*
X0094363Y0068701D02*
X0094478Y0068701D01*
X0094493Y0068701D02*
X0096238Y0068701D01*
X0096217Y0068738D02*
X0094538Y0068738D01*
X0094523Y0068738D02*
X0094328Y0068738D01*
X0094292Y0068776D02*
X0094569Y0068776D01*
X0094582Y0068776D02*
X0096194Y0068776D01*
X0096171Y0068814D02*
X0094627Y0068814D01*
X0094614Y0068814D02*
X0094254Y0068814D01*
X0094210Y0068852D02*
X0094659Y0068852D01*
X0094672Y0068852D02*
X0096148Y0068852D01*
X0096126Y0068890D02*
X0094717Y0068890D01*
X0094704Y0068890D02*
X0094166Y0068890D01*
X0094122Y0068928D02*
X0094750Y0068928D01*
X0094762Y0068928D02*
X0096101Y0068928D01*
X0096075Y0068966D02*
X0094806Y0068966D01*
X0094795Y0068966D02*
X0094075Y0068966D01*
X0094023Y0069004D02*
X0094840Y0069004D01*
X0094851Y0069004D02*
X0096049Y0069004D01*
X0096023Y0069042D02*
X0094896Y0069042D01*
X0094886Y0069042D02*
X0093971Y0069042D01*
X0093919Y0069079D02*
X0094931Y0069079D01*
X0094941Y0069079D02*
X0095996Y0069079D01*
X0095968Y0069117D02*
X0094986Y0069117D01*
X0094976Y0069117D02*
X0093857Y0069117D01*
X0093795Y0069155D02*
X0095021Y0069155D01*
X0095030Y0069155D02*
X0095938Y0069155D01*
X0095909Y0069193D02*
X0095075Y0069193D01*
X0095067Y0069193D02*
X0093733Y0069193D01*
X0093659Y0069231D02*
X0095112Y0069231D01*
X0095120Y0069231D02*
X0095879Y0069231D01*
X0095849Y0069269D02*
X0095165Y0069269D01*
X0095157Y0069269D02*
X0093584Y0069269D01*
X0093504Y0069307D02*
X0095203Y0069307D01*
X0095210Y0069307D02*
X0095815Y0069307D01*
X0095781Y0069345D02*
X0095255Y0069345D01*
X0095248Y0069345D02*
X0093411Y0069345D01*
X0093317Y0069382D02*
X0095293Y0069382D01*
X0095299Y0069382D02*
X0095748Y0069382D01*
X0095714Y0069420D02*
X0095344Y0069420D01*
X0095338Y0069420D02*
X0093196Y0069420D01*
X0093064Y0069458D02*
X0095384Y0069458D01*
X0095389Y0069458D02*
X0095677Y0069458D01*
X0095639Y0069496D02*
X0095434Y0069496D01*
X0095429Y0069496D02*
X0092896Y0069496D01*
X0092591Y0069534D02*
X0095474Y0069534D01*
X0095479Y0069534D02*
X0095601Y0069534D01*
X0095562Y0069572D02*
X0095523Y0069572D01*
X0095519Y0069572D02*
X0089190Y0069572D01*
X0089228Y0069610D02*
X0095634Y0069610D01*
X0096369Y0069648D02*
X0089266Y0069648D01*
X0089230Y0069685D02*
X0096380Y0069685D01*
X0096391Y0069723D02*
X0085929Y0069723D01*
X0085902Y0069685D02*
X0089093Y0069685D01*
X0089152Y0069534D02*
X0092178Y0069534D01*
X0091890Y0069496D02*
X0089116Y0069496D01*
X0089082Y0069458D02*
X0091714Y0069458D01*
X0091572Y0069420D02*
X0089048Y0069420D01*
X0089014Y0069382D02*
X0091465Y0069382D01*
X0091359Y0069345D02*
X0088981Y0069345D01*
X0088951Y0069307D02*
X0091274Y0069307D01*
X0091190Y0069269D02*
X0088921Y0069269D01*
X0088891Y0069231D02*
X0091115Y0069231D01*
X0091046Y0069193D02*
X0088861Y0069193D01*
X0088833Y0069155D02*
X0090978Y0069155D01*
X0090918Y0069117D02*
X0088806Y0069117D01*
X0088780Y0069079D02*
X0090861Y0069079D01*
X0090803Y0069042D02*
X0088753Y0069042D01*
X0088727Y0069004D02*
X0090751Y0069004D01*
X0090703Y0068966D02*
X0088703Y0068966D01*
X0088679Y0068928D02*
X0090654Y0068928D01*
X0090606Y0068890D02*
X0088656Y0068890D01*
X0088632Y0068852D02*
X0090565Y0068852D01*
X0090525Y0068814D02*
X0088609Y0068814D01*
X0088588Y0068776D02*
X0090485Y0068776D01*
X0090445Y0068738D02*
X0088568Y0068738D01*
X0088547Y0068701D02*
X0090411Y0068701D01*
X0090378Y0068663D02*
X0088527Y0068663D01*
X0088506Y0068625D02*
X0090346Y0068625D01*
X0090313Y0068587D02*
X0088488Y0068587D01*
X0088470Y0068549D02*
X0090283Y0068549D01*
X0090256Y0068511D02*
X0088452Y0068511D01*
X0088435Y0068473D02*
X0090229Y0068473D01*
X0090203Y0068435D02*
X0088417Y0068435D01*
X0088400Y0068398D02*
X0090176Y0068398D01*
X0090153Y0068360D02*
X0088385Y0068360D01*
X0088370Y0068322D02*
X0090132Y0068322D01*
X0090110Y0068284D02*
X0088355Y0068284D01*
X0088340Y0068246D02*
X0090089Y0068246D01*
X0090068Y0068208D02*
X0088325Y0068208D01*
X0088312Y0068170D02*
X0090049Y0068170D01*
X0090032Y0068132D02*
X0088300Y0068132D01*
X0088288Y0068094D02*
X0090016Y0068094D01*
X0089999Y0068057D02*
X0088275Y0068057D01*
X0088263Y0068019D02*
X0089982Y0068019D01*
X0089966Y0067981D02*
X0088251Y0067981D01*
X0088241Y0067943D02*
X0089954Y0067943D01*
X0089942Y0067905D02*
X0088231Y0067905D01*
X0088221Y0067867D02*
X0089930Y0067867D01*
X0089917Y0067829D02*
X0088211Y0067829D01*
X0088201Y0067791D02*
X0089905Y0067791D01*
X0089895Y0067754D02*
X0088192Y0067754D01*
X0088184Y0067716D02*
X0089887Y0067716D01*
X0089879Y0067678D02*
X0088177Y0067678D01*
X0088169Y0067640D02*
X0089871Y0067640D01*
X0089862Y0067602D02*
X0088161Y0067602D01*
X0088153Y0067564D02*
X0089854Y0067564D01*
X0089849Y0067526D02*
X0088148Y0067526D01*
X0088142Y0067488D02*
X0089845Y0067488D01*
X0089841Y0067450D02*
X0088137Y0067450D01*
X0088132Y0067413D02*
X0089836Y0067413D01*
X0089832Y0067375D02*
X0088126Y0067375D01*
X0088121Y0067337D02*
X0089828Y0067337D01*
X0089827Y0067299D02*
X0088118Y0067299D01*
X0088115Y0067261D02*
X0089827Y0067261D01*
X0089826Y0067223D02*
X0088111Y0067223D01*
X0088108Y0067185D02*
X0089826Y0067185D01*
X0089825Y0067147D02*
X0088105Y0067147D01*
X0088102Y0067110D02*
X0089825Y0067110D01*
X0089829Y0067072D02*
X0088102Y0067072D01*
X0088101Y0067034D02*
X0089832Y0067034D01*
X0089835Y0066996D02*
X0088100Y0066996D01*
X0088099Y0066958D02*
X0089839Y0066958D01*
X0089842Y0066920D02*
X0088098Y0066920D01*
X0088098Y0066882D02*
X0089846Y0066882D01*
X0089853Y0066844D02*
X0088098Y0066844D01*
X0088099Y0066807D02*
X0089861Y0066807D01*
X0089868Y0066769D02*
X0088100Y0066769D01*
X0088100Y0066731D02*
X0089875Y0066731D01*
X0089882Y0066693D02*
X0088101Y0066693D01*
X0088102Y0066655D02*
X0089891Y0066655D01*
X0089903Y0066617D02*
X0088105Y0066617D01*
X0088108Y0066579D02*
X0089914Y0066579D01*
X0089925Y0066541D02*
X0088111Y0066541D01*
X0088114Y0066503D02*
X0089936Y0066503D01*
X0089948Y0066466D02*
X0088117Y0066466D01*
X0088121Y0066428D02*
X0089962Y0066428D01*
X0089978Y0066390D02*
X0088127Y0066390D01*
X0088132Y0066352D02*
X0089993Y0066352D01*
X0090009Y0066314D02*
X0088137Y0066314D01*
X0088142Y0066276D02*
X0090024Y0066276D01*
X0090042Y0066238D02*
X0088148Y0066238D01*
X0088155Y0066200D02*
X0090062Y0066200D01*
X0090082Y0066163D02*
X0088162Y0066163D01*
X0088170Y0066125D02*
X0090102Y0066125D01*
X0090122Y0066087D02*
X0088177Y0066087D01*
X0088185Y0066049D02*
X0090144Y0066049D01*
X0090169Y0066011D02*
X0088193Y0066011D01*
X0088203Y0065973D02*
X0090194Y0065973D01*
X0090219Y0065935D02*
X0088213Y0065935D01*
X0088223Y0065897D02*
X0090245Y0065897D01*
X0090272Y0065859D02*
X0088233Y0065859D01*
X0088243Y0065822D02*
X0090303Y0065822D01*
X0090334Y0065784D02*
X0088254Y0065784D01*
X0088266Y0065746D02*
X0090365Y0065746D01*
X0090397Y0065708D02*
X0088279Y0065708D01*
X0088291Y0065670D02*
X0090433Y0065670D01*
X0090472Y0065632D02*
X0088304Y0065632D01*
X0088316Y0065594D02*
X0090510Y0065594D01*
X0090548Y0065556D02*
X0088331Y0065556D01*
X0088346Y0065519D02*
X0090592Y0065519D01*
X0090639Y0065481D02*
X0088361Y0065481D01*
X0088376Y0065443D02*
X0090687Y0065443D01*
X0090734Y0065405D02*
X0088391Y0065405D01*
X0088407Y0065367D02*
X0090790Y0065367D01*
X0090846Y0065329D02*
X0088425Y0065329D01*
X0088443Y0065291D02*
X0090902Y0065291D01*
X0090965Y0065253D02*
X0088460Y0065253D01*
X0088478Y0065215D02*
X0091032Y0065215D01*
X0091099Y0065178D02*
X0088496Y0065178D01*
X0088517Y0065140D02*
X0091178Y0065140D01*
X0091259Y0065102D02*
X0088538Y0065102D01*
X0088558Y0065064D02*
X0091347Y0065064D01*
X0091450Y0065026D02*
X0088579Y0065026D01*
X0088600Y0064988D02*
X0091561Y0064988D01*
X0091695Y0064950D02*
X0088623Y0064950D01*
X0088647Y0064912D02*
X0091869Y0064912D01*
X0092135Y0064875D02*
X0088671Y0064875D01*
X0087773Y0064875D02*
X0085644Y0064875D01*
X0085623Y0064912D02*
X0087772Y0064912D01*
X0087772Y0064950D02*
X0085605Y0064950D01*
X0085586Y0064988D02*
X0087772Y0064988D01*
X0087772Y0065026D02*
X0085567Y0065026D01*
X0085549Y0065064D02*
X0087772Y0065064D01*
X0087772Y0065102D02*
X0085530Y0065102D01*
X0085513Y0065140D02*
X0087772Y0065140D01*
X0087772Y0065178D02*
X0085497Y0065178D01*
X0085481Y0065215D02*
X0087772Y0065215D01*
X0087772Y0065253D02*
X0085464Y0065253D01*
X0085448Y0065291D02*
X0087772Y0065291D01*
X0087741Y0065329D02*
X0085433Y0065329D01*
X0085418Y0065367D02*
X0087682Y0065367D01*
X0087622Y0065405D02*
X0085404Y0065405D01*
X0085390Y0065443D02*
X0087569Y0065443D01*
X0087525Y0065481D02*
X0085376Y0065481D01*
X0085362Y0065519D02*
X0087481Y0065519D01*
X0087437Y0065556D02*
X0085350Y0065556D01*
X0085338Y0065594D02*
X0087399Y0065594D01*
X0087367Y0065632D02*
X0085326Y0065632D01*
X0085314Y0065670D02*
X0087334Y0065670D01*
X0087302Y0065708D02*
X0085302Y0065708D01*
X0085290Y0065746D02*
X0087270Y0065746D01*
X0087246Y0065784D02*
X0085280Y0065784D01*
X0085270Y0065822D02*
X0087222Y0065822D01*
X0087198Y0065859D02*
X0085260Y0065859D01*
X0085250Y0065897D02*
X0087174Y0065897D01*
X0087150Y0065935D02*
X0085240Y0065935D01*
X0085232Y0065973D02*
X0087132Y0065973D01*
X0087114Y0066011D02*
X0085224Y0066011D01*
X0085216Y0066049D02*
X0087096Y0066049D01*
X0087078Y0066087D02*
X0085208Y0066087D01*
X0085200Y0066125D02*
X0087059Y0066125D01*
X0087044Y0066163D02*
X0085192Y0066163D01*
X0085186Y0066200D02*
X0087030Y0066200D01*
X0087015Y0066238D02*
X0085180Y0066238D01*
X0085174Y0066276D02*
X0087001Y0066276D01*
X0086986Y0066314D02*
X0085168Y0066314D01*
X0085162Y0066352D02*
X0086973Y0066352D01*
X0086962Y0066390D02*
X0085156Y0066390D01*
X0085152Y0066428D02*
X0086951Y0066428D01*
X0086940Y0066466D02*
X0085148Y0066466D01*
X0085144Y0066503D02*
X0086929Y0066503D01*
X0086918Y0066541D02*
X0085140Y0066541D01*
X0085135Y0066579D02*
X0086910Y0066579D01*
X0086902Y0066617D02*
X0085132Y0066617D01*
X0085130Y0066655D02*
X0086895Y0066655D01*
X0086887Y0066693D02*
X0085128Y0066693D01*
X0085125Y0066731D02*
X0086880Y0066731D01*
X0086872Y0066769D02*
X0085123Y0066769D01*
X0085121Y0066807D02*
X0086868Y0066807D01*
X0086863Y0066844D02*
X0085119Y0066844D01*
X0085119Y0066882D02*
X0086859Y0066882D01*
X0086855Y0066920D02*
X0085119Y0066920D01*
X0085118Y0066958D02*
X0086851Y0066958D01*
X0086847Y0066996D02*
X0085118Y0066996D01*
X0085117Y0067034D02*
X0086846Y0067034D01*
X0086844Y0067072D02*
X0085117Y0067072D01*
X0085117Y0067110D02*
X0086843Y0067110D01*
X0086841Y0067147D02*
X0085116Y0067147D01*
X0085116Y0067185D02*
X0086842Y0067185D01*
X0086843Y0067223D02*
X0085115Y0067223D01*
X0085115Y0067261D02*
X0086843Y0067261D01*
X0086844Y0067299D02*
X0085116Y0067299D01*
X0085117Y0067337D02*
X0086845Y0067337D01*
X0086845Y0067375D02*
X0086870Y0067597D01*
X0086871Y0067602D02*
X0085131Y0067602D01*
X0085134Y0067640D02*
X0086878Y0067640D01*
X0086886Y0067678D02*
X0085137Y0067678D01*
X0085141Y0067716D02*
X0086894Y0067716D01*
X0086902Y0067754D02*
X0085146Y0067754D01*
X0085151Y0067791D02*
X0086909Y0067791D01*
X0086918Y0067829D02*
X0085156Y0067829D01*
X0085162Y0067867D02*
X0086930Y0067867D01*
X0086941Y0067905D02*
X0085167Y0067905D01*
X0085172Y0067943D02*
X0086952Y0067943D01*
X0086964Y0067981D02*
X0085180Y0067981D01*
X0085187Y0068019D02*
X0086975Y0068019D01*
X0086989Y0068057D02*
X0085195Y0068057D01*
X0085202Y0068094D02*
X0087005Y0068094D01*
X0087020Y0068132D02*
X0085209Y0068132D01*
X0085217Y0068170D02*
X0087035Y0068170D01*
X0087050Y0068208D02*
X0085227Y0068208D01*
X0085236Y0068246D02*
X0087067Y0068246D01*
X0087086Y0068284D02*
X0085246Y0068284D01*
X0085255Y0068322D02*
X0087106Y0068322D01*
X0087125Y0068360D02*
X0085265Y0068360D01*
X0085276Y0068398D02*
X0087145Y0068398D01*
X0087164Y0068435D02*
X0085288Y0068435D01*
X0085299Y0068473D02*
X0087188Y0068473D01*
X0087212Y0068511D02*
X0085311Y0068511D01*
X0085323Y0068549D02*
X0087236Y0068549D01*
X0087260Y0068587D02*
X0085335Y0068587D01*
X0085348Y0068625D02*
X0087285Y0068625D01*
X0087314Y0068663D02*
X0085362Y0068663D01*
X0085376Y0068701D02*
X0087343Y0068701D01*
X0087372Y0068738D02*
X0085390Y0068738D01*
X0085404Y0068776D02*
X0087401Y0068776D01*
X0087433Y0068814D02*
X0085420Y0068814D01*
X0085436Y0068852D02*
X0087468Y0068852D01*
X0087503Y0068890D02*
X0085452Y0068890D01*
X0085468Y0068928D02*
X0087538Y0068928D01*
X0087575Y0068966D02*
X0085485Y0068966D01*
X0085501Y0069004D02*
X0087618Y0069004D01*
X0087661Y0069042D02*
X0085520Y0069042D01*
X0085539Y0069079D02*
X0087704Y0069079D01*
X0087750Y0069117D02*
X0085558Y0069117D01*
X0085577Y0069155D02*
X0087801Y0069155D01*
X0087853Y0069193D02*
X0085595Y0069193D01*
X0085616Y0069231D02*
X0087905Y0069231D01*
X0087964Y0069269D02*
X0085638Y0069269D01*
X0085659Y0069307D02*
X0088026Y0069307D01*
X0088087Y0069345D02*
X0085680Y0069345D01*
X0085702Y0069382D02*
X0088157Y0069382D01*
X0088231Y0069420D02*
X0085725Y0069420D01*
X0085749Y0069458D02*
X0088306Y0069458D01*
X0088398Y0069496D02*
X0085773Y0069496D01*
X0085798Y0069534D02*
X0088489Y0069534D01*
X0088601Y0069572D02*
X0085822Y0069572D01*
X0085848Y0069610D02*
X0088719Y0069610D01*
X0088878Y0069648D02*
X0085875Y0069648D01*
X0085957Y0069761D02*
X0096402Y0069761D01*
X0096412Y0069799D02*
X0085987Y0069799D01*
X0086017Y0069837D02*
X0096412Y0069837D01*
X0096412Y0069875D02*
X0086047Y0069875D01*
X0086078Y0069913D02*
X0096412Y0069913D01*
X0096412Y0069951D02*
X0086109Y0069951D01*
X0086143Y0069989D02*
X0096412Y0069989D01*
X0096412Y0070026D02*
X0086177Y0070026D01*
X0086211Y0070064D02*
X0096412Y0070064D01*
X0096412Y0070102D02*
X0086245Y0070102D01*
X0086282Y0070140D02*
X0096412Y0070140D01*
X0096412Y0070178D02*
X0086320Y0070178D01*
X0086357Y0070216D02*
X0096412Y0070216D01*
X0096412Y0070254D02*
X0086395Y0070254D01*
X0086438Y0070292D02*
X0096412Y0070292D01*
X0096412Y0070329D02*
X0086482Y0070329D01*
X0086526Y0070367D02*
X0096412Y0070367D01*
X0096412Y0070405D02*
X0086571Y0070405D01*
X0086620Y0070443D02*
X0096412Y0070443D01*
X0096412Y0070481D02*
X0086669Y0070481D01*
X0086718Y0070519D02*
X0096412Y0070519D01*
X0096412Y0070557D02*
X0086769Y0070557D01*
X0086823Y0070595D02*
X0096412Y0070595D01*
X0096412Y0070633D02*
X0086877Y0070633D01*
X0086931Y0070670D02*
X0096412Y0070670D01*
X0096412Y0070708D02*
X0086991Y0070708D01*
X0087050Y0070746D02*
X0096412Y0070746D01*
X0096412Y0070784D02*
X0087109Y0070784D01*
X0087175Y0070822D02*
X0096412Y0070822D01*
X0096412Y0070860D02*
X0087240Y0070860D01*
X0087306Y0070898D02*
X0096412Y0070898D01*
X0096412Y0070936D02*
X0087379Y0070936D01*
X0087452Y0070973D02*
X0096412Y0070973D01*
X0096412Y0071011D02*
X0087528Y0071011D01*
X0087610Y0071049D02*
X0096412Y0071049D01*
X0096412Y0071087D02*
X0087692Y0071087D01*
X0087783Y0071125D02*
X0096412Y0071125D01*
X0096412Y0071163D02*
X0087876Y0071163D01*
X0087976Y0071201D02*
X0096412Y0071201D01*
X0096412Y0071239D02*
X0088083Y0071239D01*
X0088200Y0071277D02*
X0096412Y0071277D01*
X0096412Y0071314D02*
X0088323Y0071314D01*
X0088467Y0071352D02*
X0096411Y0071352D01*
X0096392Y0071390D02*
X0088628Y0071390D01*
X0088819Y0071428D02*
X0096372Y0071428D01*
X0096353Y0071466D02*
X0089075Y0071466D01*
X0089643Y0071504D02*
X0089688Y0071504D01*
X0090384Y0072976D02*
X0090586Y0072882D01*
X0090792Y0072800D01*
X0091003Y0072728D01*
X0091216Y0072667D01*
X0091433Y0072617D01*
X0091652Y0072579D01*
X0091872Y0072552D01*
X0092094Y0072536D01*
X0092539Y0072530D01*
X0092761Y0072535D01*
X0092982Y0072553D01*
X0093202Y0072582D01*
X0093421Y0072623D01*
X0093637Y0072676D01*
X0093850Y0072740D01*
X0094059Y0072815D01*
X0094264Y0072901D01*
X0094464Y0072998D01*
X0094658Y0073105D01*
X0094847Y0073223D01*
X0095029Y0073350D01*
X0095204Y0073487D01*
X0095372Y0073633D01*
X0095690Y0073943D01*
X0095837Y0074110D01*
X0095974Y0074285D01*
X0096101Y0074467D01*
X0096217Y0074657D01*
X0096322Y0074852D01*
X0096416Y0075054D01*
X0096498Y0075260D01*
X0096568Y0075471D01*
X0096626Y0075686D01*
X0096672Y0075903D01*
X0096705Y0076123D01*
X0096726Y0076344D01*
X0096734Y0076566D01*
X0096732Y0076788D01*
X0096717Y0077010D01*
X0096688Y0077231D01*
X0096646Y0077449D01*
X0096590Y0077664D01*
X0096520Y0077875D01*
X0096438Y0078081D01*
X0096342Y0078282D01*
X0096235Y0078476D01*
X0096115Y0078663D01*
X0095983Y0078842D01*
X0095841Y0079013D01*
X0095989Y0079046D01*
X0099101Y0079046D01*
X0099146Y0079223D01*
X0099146Y0080779D01*
X0099125Y0080980D01*
X0088456Y0080980D01*
X0088409Y0080805D01*
X0088409Y0079472D01*
X0088439Y0079280D01*
X0089105Y0079280D01*
X0089233Y0079245D01*
X0090455Y0078356D01*
X0090610Y0078509D01*
X0090785Y0078645D01*
X0090970Y0078768D01*
X0091165Y0078875D01*
X0091368Y0078966D01*
X0091577Y0079040D01*
X0091792Y0079097D01*
X0092011Y0079136D01*
X0092232Y0079157D01*
X0092454Y0079161D01*
X0092676Y0079147D01*
X0092895Y0079115D01*
X0093112Y0079065D01*
X0093324Y0078998D01*
X0093529Y0078914D01*
X0093728Y0078813D01*
X0093917Y0078697D01*
X0094096Y0078566D01*
X0094263Y0078419D01*
X0094414Y0078256D01*
X0094548Y0078079D01*
X0094664Y0077889D01*
X0094760Y0077689D01*
X0094836Y0077480D01*
X0094890Y0077265D01*
X0094923Y0077045D01*
X0094933Y0076823D01*
X0094933Y0076758D01*
X0094918Y0076536D01*
X0094881Y0076317D01*
X0094823Y0076103D01*
X0094743Y0075896D01*
X0094643Y0075697D01*
X0094524Y0075510D01*
X0094387Y0075335D01*
X0094233Y0075175D01*
X0094062Y0075032D01*
X0093881Y0074905D01*
X0093689Y0074792D01*
X0093489Y0074695D01*
X0093282Y0074614D01*
X0093069Y0074551D01*
X0092852Y0074505D01*
X0092631Y0074476D01*
X0092410Y0074466D01*
X0092187Y0074473D01*
X0091967Y0074498D01*
X0091749Y0074541D01*
X0091535Y0074601D01*
X0091326Y0074678D01*
X0091125Y0074772D01*
X0090932Y0074881D01*
X0090748Y0075006D01*
X0090575Y0075146D01*
X0090421Y0075306D01*
X0090283Y0075480D01*
X0090163Y0075667D01*
X0090061Y0075864D01*
X0089979Y0076071D01*
X0089917Y0076284D01*
X0089877Y0076503D01*
X0089857Y0076724D01*
X0089860Y0076946D01*
X0089883Y0077167D01*
X0089928Y0077385D01*
X0089994Y0077597D01*
X0090081Y0077802D01*
X0090186Y0077997D01*
X0090310Y0078181D01*
X0090448Y0078349D01*
X0089234Y0079240D01*
X0089081Y0079086D01*
X0088935Y0078919D01*
X0088799Y0078743D01*
X0088674Y0078559D01*
X0088560Y0078368D01*
X0088458Y0078171D01*
X0090303Y0078171D01*
X0090278Y0078133D02*
X0088442Y0078133D01*
X0088458Y0078171D02*
X0088368Y0077968D01*
X0088291Y0077759D01*
X0088226Y0077547D01*
X0088174Y0077331D01*
X0088135Y0077112D01*
X0088110Y0076891D01*
X0088098Y0076669D01*
X0088097Y0076512D01*
X0088101Y0076290D01*
X0088119Y0076068D01*
X0088150Y0075848D01*
X0088193Y0075630D01*
X0088250Y0075415D01*
X0088320Y0075204D01*
X0088402Y0074998D01*
X0088496Y0074797D01*
X0088603Y0074602D01*
X0088720Y0074413D01*
X0088849Y0074232D01*
X0088989Y0074059D01*
X0089139Y0073895D01*
X0089462Y0073591D01*
X0089634Y0073449D01*
X0089812Y0073316D01*
X0089997Y0073193D01*
X0090188Y0073079D01*
X0090384Y0072976D01*
X0090374Y0072981D02*
X0094429Y0072981D01*
X0094502Y0073019D02*
X0090302Y0073019D01*
X0090230Y0073057D02*
X0094571Y0073057D01*
X0094640Y0073095D02*
X0090161Y0073095D01*
X0090098Y0073133D02*
X0094703Y0073133D01*
X0094764Y0073171D02*
X0090034Y0073171D01*
X0089973Y0073208D02*
X0094824Y0073208D01*
X0094881Y0073246D02*
X0089916Y0073246D01*
X0089860Y0073284D02*
X0094935Y0073284D01*
X0094990Y0073322D02*
X0089804Y0073322D01*
X0089753Y0073360D02*
X0095042Y0073360D01*
X0095091Y0073398D02*
X0089702Y0073398D01*
X0089651Y0073436D02*
X0095139Y0073436D01*
X0095188Y0073474D02*
X0089604Y0073474D01*
X0089558Y0073512D02*
X0095233Y0073512D01*
X0095276Y0073549D02*
X0089512Y0073549D01*
X0089466Y0073587D02*
X0095320Y0073587D01*
X0095364Y0073625D02*
X0089426Y0073625D01*
X0089385Y0073663D02*
X0095403Y0073663D01*
X0095442Y0073701D02*
X0089345Y0073701D01*
X0089305Y0073739D02*
X0095481Y0073739D01*
X0095520Y0073777D02*
X0089264Y0073777D01*
X0089224Y0073815D02*
X0095558Y0073815D01*
X0095597Y0073852D02*
X0089184Y0073852D01*
X0089143Y0073890D02*
X0095636Y0073890D01*
X0095675Y0073928D02*
X0089108Y0073928D01*
X0089074Y0073966D02*
X0095710Y0073966D01*
X0095744Y0074004D02*
X0089039Y0074004D01*
X0089004Y0074042D02*
X0095777Y0074042D01*
X0095810Y0074080D02*
X0088972Y0074080D01*
X0088942Y0074118D02*
X0095843Y0074118D01*
X0095872Y0074155D02*
X0088911Y0074155D01*
X0088881Y0074193D02*
X0095902Y0074193D01*
X0095932Y0074231D02*
X0088850Y0074231D01*
X0088823Y0074269D02*
X0095962Y0074269D01*
X0095989Y0074307D02*
X0088796Y0074307D01*
X0088769Y0074345D02*
X0096016Y0074345D01*
X0096042Y0074383D02*
X0088742Y0074383D01*
X0088716Y0074421D02*
X0096068Y0074421D01*
X0096095Y0074459D02*
X0088692Y0074459D01*
X0088668Y0074496D02*
X0091980Y0074496D01*
X0091781Y0074534D02*
X0088645Y0074534D01*
X0088621Y0074572D02*
X0091636Y0074572D01*
X0091509Y0074610D02*
X0088598Y0074610D01*
X0088577Y0074648D02*
X0091407Y0074648D01*
X0091309Y0074686D02*
X0088557Y0074686D01*
X0088536Y0074724D02*
X0091228Y0074724D01*
X0091147Y0074762D02*
X0088515Y0074762D01*
X0088495Y0074799D02*
X0091076Y0074799D01*
X0091009Y0074837D02*
X0088477Y0074837D01*
X0088459Y0074875D02*
X0090942Y0074875D01*
X0090885Y0074913D02*
X0088442Y0074913D01*
X0088424Y0074951D02*
X0090829Y0074951D01*
X0090774Y0074989D02*
X0088406Y0074989D01*
X0088390Y0075027D02*
X0090723Y0075027D01*
X0090676Y0075065D02*
X0088375Y0075065D01*
X0088360Y0075103D02*
X0090629Y0075103D01*
X0090582Y0075140D02*
X0088345Y0075140D01*
X0088330Y0075178D02*
X0090544Y0075178D01*
X0090507Y0075216D02*
X0088316Y0075216D01*
X0088303Y0075254D02*
X0090471Y0075254D01*
X0090434Y0075292D02*
X0088291Y0075292D01*
X0088278Y0075330D02*
X0090402Y0075330D01*
X0090372Y0075368D02*
X0088266Y0075368D01*
X0088253Y0075406D02*
X0090342Y0075406D01*
X0090312Y0075443D02*
X0088243Y0075443D01*
X0088233Y0075481D02*
X0090282Y0075481D01*
X0090258Y0075519D02*
X0088223Y0075519D01*
X0088213Y0075557D02*
X0090233Y0075557D01*
X0090209Y0075595D02*
X0088203Y0075595D01*
X0088193Y0075633D02*
X0090185Y0075633D01*
X0090161Y0075671D02*
X0088185Y0075671D01*
X0088178Y0075709D02*
X0090141Y0075709D01*
X0090122Y0075747D02*
X0088170Y0075747D01*
X0088162Y0075784D02*
X0090102Y0075784D01*
X0090083Y0075822D02*
X0088155Y0075822D01*
X0088148Y0075860D02*
X0090063Y0075860D01*
X0090048Y0075898D02*
X0088143Y0075898D01*
X0088137Y0075936D02*
X0090033Y0075936D01*
X0090018Y0075974D02*
X0088132Y0075974D01*
X0088127Y0076012D02*
X0090002Y0076012D01*
X0089987Y0076050D02*
X0088121Y0076050D01*
X0088117Y0076087D02*
X0089974Y0076087D01*
X0089963Y0076125D02*
X0088114Y0076125D01*
X0088111Y0076163D02*
X0089952Y0076163D01*
X0089941Y0076201D02*
X0088108Y0076201D01*
X0088105Y0076239D02*
X0089930Y0076239D01*
X0089919Y0076277D02*
X0088102Y0076277D01*
X0088101Y0076315D02*
X0089912Y0076315D01*
X0089905Y0076353D02*
X0088100Y0076353D01*
X0088100Y0076391D02*
X0089898Y0076391D01*
X0089891Y0076428D02*
X0088099Y0076428D01*
X0088098Y0076466D02*
X0089883Y0076466D01*
X0089877Y0076504D02*
X0088097Y0076504D01*
X0088097Y0076542D02*
X0089873Y0076542D01*
X0089870Y0076580D02*
X0088098Y0076580D01*
X0088098Y0076618D02*
X0089867Y0076618D01*
X0089863Y0076656D02*
X0088098Y0076656D01*
X0088099Y0076694D02*
X0089860Y0076694D01*
X0089857Y0076731D02*
X0088101Y0076731D01*
X0088103Y0076769D02*
X0089858Y0076769D01*
X0089858Y0076807D02*
X0088105Y0076807D01*
X0088107Y0076845D02*
X0089859Y0076845D01*
X0089859Y0076883D02*
X0088109Y0076883D01*
X0088113Y0076921D02*
X0089859Y0076921D01*
X0089861Y0076959D02*
X0088118Y0076959D01*
X0088122Y0076997D02*
X0089865Y0076997D01*
X0089869Y0077034D02*
X0088126Y0077034D01*
X0088131Y0077072D02*
X0089873Y0077072D01*
X0089877Y0077110D02*
X0088135Y0077110D01*
X0088142Y0077148D02*
X0089881Y0077148D01*
X0089887Y0077186D02*
X0088148Y0077186D01*
X0088155Y0077224D02*
X0089895Y0077224D01*
X0089903Y0077262D02*
X0088162Y0077262D01*
X0088168Y0077300D02*
X0089911Y0077300D01*
X0089919Y0077338D02*
X0088176Y0077338D01*
X0088185Y0077375D02*
X0089926Y0077375D01*
X0089937Y0077413D02*
X0088194Y0077413D01*
X0088203Y0077451D02*
X0089949Y0077451D01*
X0089961Y0077489D02*
X0088212Y0077489D01*
X0088221Y0077527D02*
X0089973Y0077527D01*
X0089984Y0077565D02*
X0088231Y0077565D01*
X0088243Y0077603D02*
X0089997Y0077603D01*
X0090013Y0077641D02*
X0088255Y0077641D01*
X0088266Y0077678D02*
X0090029Y0077678D01*
X0090045Y0077716D02*
X0088278Y0077716D01*
X0088289Y0077754D02*
X0090061Y0077754D01*
X0090077Y0077792D02*
X0088303Y0077792D01*
X0088317Y0077830D02*
X0090096Y0077830D01*
X0090116Y0077868D02*
X0088331Y0077868D01*
X0088345Y0077906D02*
X0090137Y0077906D01*
X0090157Y0077944D02*
X0088359Y0077944D01*
X0088374Y0077982D02*
X0090178Y0077982D01*
X0090201Y0078019D02*
X0088391Y0078019D01*
X0088408Y0078057D02*
X0090227Y0078057D01*
X0090252Y0078095D02*
X0088425Y0078095D01*
X0088478Y0078209D02*
X0090333Y0078209D01*
X0090364Y0078247D02*
X0088497Y0078247D01*
X0088517Y0078285D02*
X0090395Y0078285D01*
X0090427Y0078322D02*
X0088537Y0078322D01*
X0088556Y0078360D02*
X0090433Y0078360D01*
X0090449Y0078360D02*
X0090459Y0078360D01*
X0090498Y0078398D02*
X0090397Y0078398D01*
X0090381Y0078398D02*
X0088578Y0078398D01*
X0088601Y0078436D02*
X0090330Y0078436D01*
X0090345Y0078436D02*
X0090536Y0078436D01*
X0090575Y0078474D02*
X0090293Y0078474D01*
X0090278Y0078474D02*
X0088623Y0078474D01*
X0088646Y0078512D02*
X0090226Y0078512D01*
X0090241Y0078512D02*
X0090614Y0078512D01*
X0090662Y0078550D02*
X0090189Y0078550D01*
X0090175Y0078550D02*
X0088668Y0078550D01*
X0088693Y0078588D02*
X0090123Y0078588D01*
X0090137Y0078588D02*
X0090711Y0078588D01*
X0090759Y0078626D02*
X0090085Y0078626D01*
X0090072Y0078626D02*
X0088719Y0078626D01*
X0088745Y0078663D02*
X0090020Y0078663D01*
X0090033Y0078663D02*
X0090812Y0078663D01*
X0090869Y0078701D02*
X0089981Y0078701D01*
X0089968Y0078701D02*
X0088771Y0078701D01*
X0088797Y0078739D02*
X0089917Y0078739D01*
X0089928Y0078739D02*
X0090927Y0078739D01*
X0090987Y0078777D02*
X0089876Y0078777D01*
X0089865Y0078777D02*
X0088826Y0078777D01*
X0088855Y0078815D02*
X0089814Y0078815D01*
X0089824Y0078815D02*
X0091056Y0078815D01*
X0091125Y0078853D02*
X0089772Y0078853D01*
X0089762Y0078853D02*
X0088884Y0078853D01*
X0088914Y0078891D02*
X0089710Y0078891D01*
X0089720Y0078891D02*
X0091200Y0078891D01*
X0091285Y0078929D02*
X0089668Y0078929D01*
X0089659Y0078929D02*
X0088944Y0078929D01*
X0088977Y0078966D02*
X0089607Y0078966D01*
X0089616Y0078966D02*
X0091369Y0078966D01*
X0091477Y0079004D02*
X0089564Y0079004D01*
X0089556Y0079004D02*
X0089010Y0079004D01*
X0089043Y0079042D02*
X0089504Y0079042D01*
X0089512Y0079042D02*
X0091586Y0079042D01*
X0091729Y0079080D02*
X0089460Y0079080D01*
X0089452Y0079080D02*
X0089077Y0079080D01*
X0089113Y0079118D02*
X0089401Y0079118D01*
X0089408Y0079118D02*
X0091910Y0079118D01*
X0092215Y0079156D02*
X0089356Y0079156D01*
X0089349Y0079156D02*
X0089151Y0079156D01*
X0089188Y0079194D02*
X0089298Y0079194D01*
X0089303Y0079194D02*
X0099138Y0079194D01*
X0099146Y0079232D02*
X0089251Y0079232D01*
X0089246Y0079232D02*
X0089225Y0079232D01*
X0089143Y0079269D02*
X0099146Y0079269D01*
X0099146Y0079307D02*
X0088434Y0079307D01*
X0088428Y0079345D02*
X0099146Y0079345D01*
X0099146Y0079383D02*
X0088422Y0079383D01*
X0088417Y0079421D02*
X0099146Y0079421D01*
X0099146Y0079459D02*
X0088411Y0079459D01*
X0088409Y0079497D02*
X0099146Y0079497D01*
X0099146Y0079535D02*
X0088409Y0079535D01*
X0088409Y0079573D02*
X0099146Y0079573D01*
X0099146Y0079610D02*
X0088409Y0079610D01*
X0088409Y0079648D02*
X0099146Y0079648D01*
X0099146Y0079686D02*
X0088409Y0079686D01*
X0088409Y0079724D02*
X0099146Y0079724D01*
X0099146Y0079762D02*
X0088409Y0079762D01*
X0088409Y0079800D02*
X0099146Y0079800D01*
X0099146Y0079838D02*
X0088409Y0079838D01*
X0088409Y0079876D02*
X0099146Y0079876D01*
X0099146Y0079913D02*
X0088409Y0079913D01*
X0088409Y0079951D02*
X0099146Y0079951D01*
X0099146Y0079989D02*
X0088409Y0079989D01*
X0088409Y0080027D02*
X0099146Y0080027D01*
X0099146Y0080065D02*
X0088409Y0080065D01*
X0088409Y0080103D02*
X0099146Y0080103D01*
X0099146Y0080141D02*
X0088409Y0080141D01*
X0088409Y0080179D02*
X0099146Y0080179D01*
X0099146Y0080217D02*
X0088409Y0080217D01*
X0088409Y0080254D02*
X0099146Y0080254D01*
X0099146Y0080292D02*
X0088409Y0080292D01*
X0088409Y0080330D02*
X0099146Y0080330D01*
X0099146Y0080368D02*
X0088409Y0080368D01*
X0088409Y0080406D02*
X0099146Y0080406D01*
X0099146Y0080444D02*
X0088409Y0080444D01*
X0088409Y0080482D02*
X0099146Y0080482D01*
X0099146Y0080520D02*
X0088409Y0080520D01*
X0088409Y0080557D02*
X0099146Y0080557D01*
X0099146Y0080595D02*
X0088409Y0080595D01*
X0088409Y0080633D02*
X0099146Y0080633D01*
X0099146Y0080671D02*
X0088409Y0080671D01*
X0088409Y0080709D02*
X0099146Y0080709D01*
X0099146Y0080747D02*
X0088409Y0080747D01*
X0088409Y0080785D02*
X0099145Y0080785D01*
X0099141Y0080823D02*
X0088413Y0080823D01*
X0088424Y0080861D02*
X0099137Y0080861D01*
X0099133Y0080898D02*
X0088434Y0080898D01*
X0088444Y0080936D02*
X0099129Y0080936D01*
X0099125Y0080974D02*
X0088454Y0080974D01*
X0089810Y0082808D02*
X0089995Y0082686D01*
X0090187Y0082573D01*
X0090384Y0082469D01*
X0090585Y0082376D01*
X0094176Y0082376D01*
X0094256Y0082410D02*
X0094456Y0082507D01*
X0094651Y0082614D01*
X0094840Y0082731D01*
X0095023Y0082857D01*
X0095200Y0082991D01*
X0095535Y0083284D01*
X0095691Y0083442D01*
X0095838Y0083609D01*
X0095975Y0083784D01*
X0096100Y0083968D01*
X0096215Y0084158D01*
X0096318Y0084355D01*
X0096409Y0084558D01*
X0096487Y0084766D01*
X0096553Y0084978D01*
X0096607Y0085194D01*
X0096647Y0085413D01*
X0096674Y0085634D01*
X0096688Y0085856D01*
X0096685Y0086300D01*
X0096667Y0086522D01*
X0096635Y0086742D01*
X0096590Y0086959D01*
X0096532Y0087174D01*
X0096461Y0087385D01*
X0096377Y0087591D01*
X0096281Y0087791D01*
X0096173Y0087985D01*
X0096054Y0088173D01*
X0095923Y0088353D01*
X0095781Y0088524D01*
X0095630Y0088687D01*
X0095727Y0088739D01*
X0096394Y0088739D01*
X0096456Y0088899D01*
X0096456Y0090455D01*
X0096295Y0090517D01*
X0088513Y0090517D01*
X0088409Y0090399D01*
X0088409Y0088842D01*
X0088527Y0088739D01*
X0089194Y0088739D01*
X0089193Y0088653D01*
X0090329Y0087744D01*
X0090470Y0087910D01*
X0090631Y0088063D01*
X0090808Y0088198D01*
X0090995Y0088318D01*
X0091191Y0088422D01*
X0091395Y0088511D01*
X0091606Y0088582D01*
X0091821Y0088636D01*
X0092040Y0088673D01*
X0092262Y0088692D01*
X0092484Y0088693D01*
X0092706Y0088677D01*
X0092925Y0088642D01*
X0093141Y0088590D01*
X0093353Y0088521D01*
X0093558Y0088435D01*
X0093755Y0088332D01*
X0093943Y0088215D01*
X0094121Y0088082D01*
X0094287Y0087933D01*
X0094435Y0087768D01*
X0094567Y0087589D01*
X0094680Y0087397D01*
X0094773Y0087195D01*
X0094845Y0086985D01*
X0094897Y0086769D01*
X0094926Y0086549D01*
X0094933Y0086327D01*
X0094930Y0086151D01*
X0094907Y0085930D01*
X0094861Y0085713D01*
X0094794Y0085501D01*
X0094706Y0085297D01*
X0094598Y0085102D01*
X0094471Y0084920D01*
X0094327Y0084751D01*
X0094166Y0084597D01*
X0093991Y0084461D01*
X0093805Y0084339D01*
X0093610Y0084232D01*
X0093407Y0084142D01*
X0093197Y0084068D01*
X0092982Y0084012D01*
X0092763Y0083973D01*
X0092542Y0083951D01*
X0092320Y0083948D01*
X0092098Y0083962D01*
X0091878Y0083994D01*
X0091661Y0084044D01*
X0091449Y0084111D01*
X0091244Y0084195D01*
X0091045Y0084296D01*
X0090856Y0084412D01*
X0090676Y0084543D01*
X0090510Y0084690D01*
X0090362Y0084856D01*
X0090230Y0085035D01*
X0090116Y0085226D01*
X0090021Y0085426D01*
X0089945Y0085635D01*
X0089890Y0085851D01*
X0089855Y0086070D01*
X0089842Y0086292D01*
X0089849Y0086514D01*
X0089879Y0086734D01*
X0089929Y0086951D01*
X0089999Y0087162D01*
X0090089Y0087365D01*
X0090198Y0087559D01*
X0090323Y0087737D01*
X0089190Y0088645D01*
X0089041Y0088487D01*
X0088898Y0088316D01*
X0088766Y0088138D01*
X0088644Y0087951D01*
X0088534Y0087758D01*
X0088436Y0087559D01*
X0088349Y0087354D01*
X0088275Y0087144D01*
X0088214Y0086931D01*
X0088165Y0086714D01*
X0088129Y0086494D01*
X0088107Y0086273D01*
X0088098Y0086051D01*
X0088097Y0086004D01*
X0088101Y0085782D01*
X0088119Y0085560D01*
X0088149Y0085340D01*
X0088192Y0085122D01*
X0088249Y0084907D01*
X0088318Y0084696D01*
X0088400Y0084489D01*
X0088494Y0084287D01*
X0088600Y0084092D01*
X0088717Y0083903D01*
X0088845Y0083721D01*
X0088984Y0083548D01*
X0089133Y0083383D01*
X0089292Y0083227D01*
X0089458Y0083079D01*
X0089630Y0082939D01*
X0089810Y0082808D01*
X0089833Y0082792D02*
X0094930Y0082792D01*
X0094875Y0082755D02*
X0089891Y0082755D01*
X0089948Y0082717D02*
X0094817Y0082717D01*
X0094756Y0082679D02*
X0090007Y0082679D01*
X0090071Y0082641D02*
X0094694Y0082641D01*
X0094630Y0082603D02*
X0090135Y0082603D01*
X0090201Y0082565D02*
X0094561Y0082565D01*
X0094493Y0082527D02*
X0090273Y0082527D01*
X0090345Y0082489D02*
X0094419Y0082489D01*
X0094342Y0082452D02*
X0090422Y0082452D01*
X0090503Y0082414D02*
X0094264Y0082414D01*
X0094256Y0082410D02*
X0094052Y0082323D01*
X0093843Y0082246D01*
X0093631Y0082179D01*
X0093416Y0082123D01*
X0093198Y0082077D01*
X0092978Y0082043D01*
X0092757Y0082019D01*
X0092535Y0082006D01*
X0092313Y0082004D01*
X0092091Y0082013D01*
X0091870Y0082032D01*
X0091649Y0082063D01*
X0091431Y0082104D01*
X0091215Y0082156D01*
X0091001Y0082219D01*
X0090791Y0082292D01*
X0090585Y0082376D01*
X0090679Y0082338D02*
X0094087Y0082338D01*
X0093990Y0082300D02*
X0090772Y0082300D01*
X0090878Y0082262D02*
X0093888Y0082262D01*
X0093775Y0082224D02*
X0090987Y0082224D01*
X0091113Y0082186D02*
X0093654Y0082186D01*
X0093514Y0082148D02*
X0091248Y0082148D01*
X0091405Y0082111D02*
X0093357Y0082111D01*
X0093168Y0082073D02*
X0091598Y0082073D01*
X0091852Y0082035D02*
X0092905Y0082035D01*
X0094985Y0082830D02*
X0089779Y0082830D01*
X0089727Y0082868D02*
X0095039Y0082868D01*
X0095088Y0082906D02*
X0089676Y0082906D01*
X0089625Y0082944D02*
X0095138Y0082944D01*
X0095188Y0082982D02*
X0089578Y0082982D01*
X0089531Y0083020D02*
X0095233Y0083020D01*
X0095276Y0083058D02*
X0089484Y0083058D01*
X0089439Y0083096D02*
X0095320Y0083096D01*
X0095363Y0083133D02*
X0089397Y0083133D01*
X0089354Y0083171D02*
X0095406Y0083171D01*
X0095450Y0083209D02*
X0089312Y0083209D01*
X0089271Y0083247D02*
X0095493Y0083247D01*
X0095536Y0083285D02*
X0089233Y0083285D01*
X0089194Y0083323D02*
X0095574Y0083323D01*
X0095611Y0083361D02*
X0089155Y0083361D01*
X0089119Y0083399D02*
X0095649Y0083399D01*
X0095686Y0083436D02*
X0089085Y0083436D01*
X0089050Y0083474D02*
X0095720Y0083474D01*
X0095753Y0083512D02*
X0089016Y0083512D01*
X0088982Y0083550D02*
X0095787Y0083550D01*
X0095820Y0083588D02*
X0088952Y0083588D01*
X0088921Y0083626D02*
X0095851Y0083626D01*
X0095881Y0083664D02*
X0088891Y0083664D01*
X0088861Y0083702D02*
X0095910Y0083702D01*
X0095940Y0083739D02*
X0088832Y0083739D01*
X0088805Y0083777D02*
X0095969Y0083777D01*
X0095996Y0083815D02*
X0088779Y0083815D01*
X0088752Y0083853D02*
X0096022Y0083853D01*
X0096048Y0083891D02*
X0088725Y0083891D01*
X0088701Y0083929D02*
X0096074Y0083929D01*
X0096100Y0083967D02*
X0092702Y0083967D01*
X0092943Y0084005D02*
X0096123Y0084005D01*
X0096145Y0084043D02*
X0093100Y0084043D01*
X0093232Y0084080D02*
X0096168Y0084080D01*
X0096191Y0084118D02*
X0093340Y0084118D01*
X0093439Y0084156D02*
X0096214Y0084156D01*
X0096234Y0084194D02*
X0093524Y0084194D01*
X0093609Y0084232D02*
X0096253Y0084232D01*
X0096273Y0084270D02*
X0093679Y0084270D01*
X0093748Y0084308D02*
X0096293Y0084308D01*
X0096313Y0084346D02*
X0093815Y0084346D01*
X0093873Y0084383D02*
X0096330Y0084383D01*
X0096347Y0084421D02*
X0093931Y0084421D01*
X0093988Y0084459D02*
X0096364Y0084459D01*
X0096381Y0084497D02*
X0094037Y0084497D01*
X0094086Y0084535D02*
X0096398Y0084535D01*
X0096414Y0084573D02*
X0094135Y0084573D01*
X0094180Y0084611D02*
X0096429Y0084611D01*
X0096443Y0084649D02*
X0094220Y0084649D01*
X0094260Y0084687D02*
X0096457Y0084687D01*
X0096472Y0084724D02*
X0094300Y0084724D01*
X0094337Y0084762D02*
X0096486Y0084762D01*
X0096498Y0084800D02*
X0094369Y0084800D01*
X0094402Y0084838D02*
X0096510Y0084838D01*
X0096522Y0084876D02*
X0094434Y0084876D01*
X0094466Y0084914D02*
X0096533Y0084914D01*
X0096545Y0084952D02*
X0094494Y0084952D01*
X0094520Y0084990D02*
X0096556Y0084990D01*
X0096566Y0085027D02*
X0094546Y0085027D01*
X0094572Y0085065D02*
X0096575Y0085065D01*
X0096584Y0085103D02*
X0094599Y0085103D01*
X0094620Y0085141D02*
X0096594Y0085141D01*
X0096603Y0085179D02*
X0094641Y0085179D01*
X0094662Y0085217D02*
X0096611Y0085217D01*
X0096618Y0085255D02*
X0094683Y0085255D01*
X0094704Y0085293D02*
X0096625Y0085293D01*
X0096632Y0085331D02*
X0094721Y0085331D01*
X0094737Y0085368D02*
X0096639Y0085368D01*
X0096646Y0085406D02*
X0094753Y0085406D01*
X0094770Y0085444D02*
X0096651Y0085444D01*
X0096655Y0085482D02*
X0094786Y0085482D01*
X0094800Y0085520D02*
X0096660Y0085520D01*
X0096665Y0085558D02*
X0094812Y0085558D01*
X0094824Y0085596D02*
X0096669Y0085596D01*
X0096674Y0085634D02*
X0094836Y0085634D01*
X0094848Y0085671D02*
X0096676Y0085671D01*
X0096679Y0085709D02*
X0094860Y0085709D01*
X0094868Y0085747D02*
X0096681Y0085747D01*
X0096683Y0085785D02*
X0094876Y0085785D01*
X0094884Y0085823D02*
X0096686Y0085823D01*
X0096688Y0085861D02*
X0094892Y0085861D01*
X0094900Y0085899D02*
X0096687Y0085899D01*
X0096687Y0085937D02*
X0094907Y0085937D01*
X0094911Y0085974D02*
X0096687Y0085974D01*
X0096687Y0086012D02*
X0094915Y0086012D01*
X0094919Y0086050D02*
X0096687Y0086050D01*
X0096687Y0086088D02*
X0094923Y0086088D01*
X0094927Y0086126D02*
X0096686Y0086126D01*
X0096686Y0086164D02*
X0094930Y0086164D01*
X0094931Y0086202D02*
X0096686Y0086202D01*
X0096686Y0086240D02*
X0094932Y0086240D01*
X0094932Y0086278D02*
X0096686Y0086278D01*
X0096684Y0086315D02*
X0094933Y0086315D01*
X0094932Y0086353D02*
X0096681Y0086353D01*
X0096678Y0086391D02*
X0094931Y0086391D01*
X0094930Y0086429D02*
X0096675Y0086429D01*
X0096672Y0086467D02*
X0094929Y0086467D01*
X0094927Y0086505D02*
X0096668Y0086505D01*
X0096664Y0086543D02*
X0094926Y0086543D01*
X0094922Y0086581D02*
X0096658Y0086581D01*
X0096653Y0086618D02*
X0094917Y0086618D01*
X0094912Y0086656D02*
X0096648Y0086656D01*
X0096642Y0086694D02*
X0094907Y0086694D01*
X0094902Y0086732D02*
X0096637Y0086732D01*
X0096629Y0086770D02*
X0094896Y0086770D01*
X0094887Y0086808D02*
X0096621Y0086808D01*
X0096614Y0086846D02*
X0094878Y0086846D01*
X0094869Y0086884D02*
X0096606Y0086884D01*
X0096598Y0086922D02*
X0094860Y0086922D01*
X0094852Y0086959D02*
X0096590Y0086959D01*
X0096580Y0086997D02*
X0094841Y0086997D01*
X0094828Y0087035D02*
X0096570Y0087035D01*
X0096559Y0087073D02*
X0094815Y0087073D01*
X0094802Y0087111D02*
X0096549Y0087111D01*
X0096539Y0087149D02*
X0094789Y0087149D01*
X0094776Y0087187D02*
X0096528Y0087187D01*
X0096515Y0087225D02*
X0094759Y0087225D01*
X0094742Y0087262D02*
X0096502Y0087262D01*
X0096489Y0087300D02*
X0094724Y0087300D01*
X0094707Y0087338D02*
X0096476Y0087338D01*
X0096464Y0087376D02*
X0094689Y0087376D01*
X0094670Y0087414D02*
X0096449Y0087414D01*
X0096434Y0087452D02*
X0094647Y0087452D01*
X0094625Y0087490D02*
X0096418Y0087490D01*
X0096403Y0087528D02*
X0094603Y0087528D01*
X0094580Y0087566D02*
X0096387Y0087566D01*
X0096371Y0087603D02*
X0094556Y0087603D01*
X0094528Y0087641D02*
X0096353Y0087641D01*
X0096335Y0087679D02*
X0094500Y0087679D01*
X0094473Y0087717D02*
X0096317Y0087717D01*
X0096299Y0087755D02*
X0094445Y0087755D01*
X0094413Y0087793D02*
X0096280Y0087793D01*
X0096259Y0087831D02*
X0094379Y0087831D01*
X0094345Y0087869D02*
X0096238Y0087869D01*
X0096217Y0087906D02*
X0094311Y0087906D01*
X0094274Y0087944D02*
X0096196Y0087944D01*
X0096175Y0087982D02*
X0094232Y0087982D01*
X0094190Y0088020D02*
X0096151Y0088020D01*
X0096127Y0088058D02*
X0094148Y0088058D01*
X0094102Y0088096D02*
X0096103Y0088096D01*
X0096078Y0088134D02*
X0094051Y0088134D01*
X0094001Y0088172D02*
X0096054Y0088172D01*
X0096027Y0088209D02*
X0093950Y0088209D01*
X0093891Y0088247D02*
X0095999Y0088247D01*
X0095972Y0088285D02*
X0093830Y0088285D01*
X0093770Y0088323D02*
X0095944Y0088323D01*
X0095916Y0088361D02*
X0093700Y0088361D01*
X0093627Y0088399D02*
X0095885Y0088399D01*
X0095854Y0088437D02*
X0093553Y0088437D01*
X0093463Y0088475D02*
X0095822Y0088475D01*
X0095791Y0088513D02*
X0093373Y0088513D01*
X0093263Y0088550D02*
X0095757Y0088550D01*
X0095722Y0088588D02*
X0093148Y0088588D01*
X0092993Y0088626D02*
X0095686Y0088626D01*
X0095651Y0088664D02*
X0092787Y0088664D01*
X0091986Y0088664D02*
X0089193Y0088664D01*
X0089194Y0088702D02*
X0095658Y0088702D01*
X0096394Y0088740D02*
X0088526Y0088740D01*
X0088482Y0088778D02*
X0096409Y0088778D01*
X0096424Y0088816D02*
X0088439Y0088816D01*
X0088409Y0088853D02*
X0096438Y0088853D01*
X0096453Y0088891D02*
X0088409Y0088891D01*
X0088409Y0088929D02*
X0096456Y0088929D01*
X0096456Y0088967D02*
X0088409Y0088967D01*
X0088409Y0089005D02*
X0096456Y0089005D01*
X0096456Y0089043D02*
X0088409Y0089043D01*
X0088409Y0089081D02*
X0096456Y0089081D01*
X0096456Y0089119D02*
X0088409Y0089119D01*
X0088409Y0089157D02*
X0096456Y0089157D01*
X0096456Y0089194D02*
X0088409Y0089194D01*
X0088409Y0089232D02*
X0096456Y0089232D01*
X0096456Y0089270D02*
X0088409Y0089270D01*
X0088409Y0089308D02*
X0096456Y0089308D01*
X0096456Y0089346D02*
X0088409Y0089346D01*
X0088409Y0089384D02*
X0096456Y0089384D01*
X0096456Y0089422D02*
X0088409Y0089422D01*
X0088409Y0089460D02*
X0096456Y0089460D01*
X0096456Y0089497D02*
X0088409Y0089497D01*
X0088409Y0089535D02*
X0096456Y0089535D01*
X0096456Y0089573D02*
X0088409Y0089573D01*
X0088409Y0089611D02*
X0096456Y0089611D01*
X0096456Y0089649D02*
X0088409Y0089649D01*
X0088409Y0089687D02*
X0096456Y0089687D01*
X0096456Y0089725D02*
X0088409Y0089725D01*
X0088409Y0089763D02*
X0096456Y0089763D01*
X0096456Y0089801D02*
X0088409Y0089801D01*
X0088409Y0089838D02*
X0096456Y0089838D01*
X0096456Y0089876D02*
X0088409Y0089876D01*
X0088409Y0089914D02*
X0096456Y0089914D01*
X0096456Y0089952D02*
X0088409Y0089952D01*
X0088409Y0089990D02*
X0096456Y0089990D01*
X0096456Y0090028D02*
X0088409Y0090028D01*
X0088409Y0090066D02*
X0096456Y0090066D01*
X0096456Y0090104D02*
X0088409Y0090104D01*
X0088409Y0090141D02*
X0096456Y0090141D01*
X0096456Y0090179D02*
X0088409Y0090179D01*
X0088409Y0090217D02*
X0096456Y0090217D01*
X0096456Y0090255D02*
X0088409Y0090255D01*
X0088409Y0090293D02*
X0096456Y0090293D01*
X0096456Y0090331D02*
X0088409Y0090331D01*
X0088409Y0090369D02*
X0096456Y0090369D01*
X0096456Y0090407D02*
X0088415Y0090407D01*
X0088449Y0090445D02*
X0096456Y0090445D01*
X0096386Y0090482D02*
X0088482Y0090482D01*
X0088443Y0091940D02*
X0099101Y0091984D01*
X0099101Y0093761D01*
X0099037Y0093918D01*
X0095928Y0093918D01*
X0095939Y0094019D01*
X0096081Y0094191D01*
X0096209Y0094372D01*
X0096323Y0094562D01*
X0096423Y0094760D01*
X0096507Y0094966D01*
X0096576Y0095177D01*
X0096629Y0095392D01*
X0096665Y0095611D01*
X0096685Y0095832D01*
X0096690Y0096054D01*
X0096684Y0096276D01*
X0096662Y0096497D01*
X0096622Y0096716D01*
X0096566Y0096930D01*
X0096493Y0097140D01*
X0096404Y0097343D01*
X0096299Y0097539D01*
X0096180Y0097726D01*
X0096047Y0097904D01*
X0095900Y0098071D01*
X0095741Y0098225D01*
X0095565Y0098361D01*
X0095381Y0098485D01*
X0095190Y0098598D01*
X0094993Y0098700D01*
X0094790Y0098790D01*
X0094583Y0098869D01*
X0094371Y0098936D01*
X0094155Y0098990D01*
X0093937Y0099032D01*
X0093717Y0099061D01*
X0093496Y0099077D01*
X0093274Y0099081D01*
X0093052Y0099076D01*
X0088389Y0099076D01*
X0088364Y0098879D01*
X0088364Y0097324D01*
X0088404Y0097142D01*
X0092623Y0097142D01*
X0092845Y0097148D01*
X0093066Y0097142D01*
X0093287Y0097119D01*
X0093506Y0097079D01*
X0093720Y0097023D01*
X0093930Y0096950D01*
X0094133Y0096861D01*
X0094329Y0096757D01*
X0094495Y0096610D01*
X0094636Y0096439D01*
X0094751Y0096249D01*
X0094839Y0096045D01*
X0094898Y0095832D01*
X0094926Y0095612D01*
X0094924Y0095390D01*
X0094890Y0095170D01*
X0094827Y0094958D01*
X0094734Y0094756D01*
X0094614Y0094570D01*
X0094470Y0094401D01*
X0094298Y0094263D01*
X0094101Y0094159D01*
X0093897Y0094071D01*
X0093688Y0093998D01*
X0093473Y0093941D01*
X0093255Y0093900D01*
X0093034Y0093876D01*
X0092813Y0093867D01*
X0092591Y0093874D01*
X0088375Y0093870D01*
X0088375Y0092094D01*
X0088443Y0091940D01*
X0088434Y0091960D02*
X0093192Y0091960D01*
X0093179Y0093892D02*
X0099048Y0093892D01*
X0099063Y0093854D02*
X0088375Y0093854D01*
X0088375Y0093816D02*
X0099079Y0093816D01*
X0099094Y0093778D02*
X0088375Y0093778D01*
X0088375Y0093740D02*
X0099101Y0093740D01*
X0099101Y0093702D02*
X0088375Y0093702D01*
X0088375Y0093664D02*
X0099101Y0093664D01*
X0099101Y0093627D02*
X0088375Y0093627D01*
X0088375Y0093589D02*
X0099101Y0093589D01*
X0099101Y0093551D02*
X0088375Y0093551D01*
X0088375Y0093513D02*
X0099101Y0093513D01*
X0099101Y0093475D02*
X0088375Y0093475D01*
X0088375Y0093437D02*
X0099101Y0093437D01*
X0099101Y0093399D02*
X0088375Y0093399D01*
X0088375Y0093361D02*
X0099101Y0093361D01*
X0099101Y0093323D02*
X0088375Y0093323D01*
X0088375Y0093286D02*
X0099101Y0093286D01*
X0099101Y0093248D02*
X0088375Y0093248D01*
X0088375Y0093210D02*
X0099101Y0093210D01*
X0099101Y0093172D02*
X0088375Y0093172D01*
X0088375Y0093134D02*
X0099101Y0093134D01*
X0099101Y0093096D02*
X0088375Y0093096D01*
X0088375Y0093058D02*
X0099101Y0093058D01*
X0099101Y0093020D02*
X0088375Y0093020D01*
X0088375Y0092983D02*
X0099101Y0092983D01*
X0099101Y0092945D02*
X0088375Y0092945D01*
X0088375Y0092907D02*
X0099101Y0092907D01*
X0099101Y0092869D02*
X0088375Y0092869D01*
X0088375Y0092831D02*
X0099101Y0092831D01*
X0099101Y0092793D02*
X0088375Y0092793D01*
X0088375Y0092755D02*
X0099101Y0092755D01*
X0099101Y0092717D02*
X0088375Y0092717D01*
X0088375Y0092680D02*
X0099101Y0092680D01*
X0099101Y0092642D02*
X0088375Y0092642D01*
X0088375Y0092604D02*
X0099101Y0092604D01*
X0099101Y0092566D02*
X0088375Y0092566D01*
X0088375Y0092528D02*
X0099101Y0092528D01*
X0099101Y0092490D02*
X0088375Y0092490D01*
X0088375Y0092452D02*
X0099101Y0092452D01*
X0099101Y0092414D02*
X0088375Y0092414D01*
X0088375Y0092376D02*
X0099101Y0092376D01*
X0099101Y0092339D02*
X0088375Y0092339D01*
X0088375Y0092301D02*
X0099101Y0092301D01*
X0099101Y0092263D02*
X0088375Y0092263D01*
X0088375Y0092225D02*
X0099101Y0092225D01*
X0099101Y0092187D02*
X0088375Y0092187D01*
X0088375Y0092149D02*
X0099101Y0092149D01*
X0099101Y0092111D02*
X0088375Y0092111D01*
X0088384Y0092073D02*
X0099101Y0092073D01*
X0099101Y0092036D02*
X0088401Y0092036D01*
X0088418Y0091998D02*
X0099101Y0091998D01*
X0095929Y0093930D02*
X0093411Y0093930D01*
X0093572Y0093967D02*
X0095934Y0093967D01*
X0095938Y0094005D02*
X0093708Y0094005D01*
X0093817Y0094043D02*
X0095959Y0094043D01*
X0095990Y0094081D02*
X0093920Y0094081D01*
X0094008Y0094119D02*
X0096021Y0094119D01*
X0096053Y0094157D02*
X0094095Y0094157D01*
X0094169Y0094195D02*
X0096084Y0094195D01*
X0096110Y0094233D02*
X0094241Y0094233D01*
X0094308Y0094271D02*
X0096137Y0094271D01*
X0096164Y0094308D02*
X0094354Y0094308D01*
X0094401Y0094346D02*
X0096191Y0094346D01*
X0096216Y0094384D02*
X0094448Y0094384D01*
X0094487Y0094422D02*
X0096239Y0094422D01*
X0096262Y0094460D02*
X0094520Y0094460D01*
X0094553Y0094498D02*
X0096285Y0094498D01*
X0096307Y0094536D02*
X0094585Y0094536D01*
X0094617Y0094574D02*
X0096329Y0094574D01*
X0096348Y0094611D02*
X0094641Y0094611D01*
X0094665Y0094649D02*
X0096367Y0094649D01*
X0096386Y0094687D02*
X0094690Y0094687D01*
X0094714Y0094725D02*
X0096405Y0094725D01*
X0096424Y0094763D02*
X0094737Y0094763D01*
X0094754Y0094801D02*
X0096439Y0094801D01*
X0096455Y0094839D02*
X0094772Y0094839D01*
X0094789Y0094877D02*
X0096471Y0094877D01*
X0096486Y0094915D02*
X0094807Y0094915D01*
X0094824Y0094952D02*
X0096502Y0094952D01*
X0096515Y0094990D02*
X0094836Y0094990D01*
X0094848Y0095028D02*
X0096528Y0095028D01*
X0096540Y0095066D02*
X0094859Y0095066D01*
X0094870Y0095104D02*
X0096552Y0095104D01*
X0096565Y0095142D02*
X0094882Y0095142D01*
X0094892Y0095180D02*
X0096577Y0095180D01*
X0096586Y0095218D02*
X0094898Y0095218D01*
X0094903Y0095255D02*
X0096595Y0095255D01*
X0096605Y0095293D02*
X0094909Y0095293D01*
X0094915Y0095331D02*
X0096614Y0095331D01*
X0096623Y0095369D02*
X0094921Y0095369D01*
X0094924Y0095407D02*
X0096631Y0095407D01*
X0096638Y0095445D02*
X0094924Y0095445D01*
X0094925Y0095483D02*
X0096644Y0095483D01*
X0096650Y0095521D02*
X0094925Y0095521D01*
X0094926Y0095558D02*
X0096657Y0095558D01*
X0096663Y0095596D02*
X0094926Y0095596D01*
X0094923Y0095634D02*
X0096668Y0095634D01*
X0096671Y0095672D02*
X0094919Y0095672D01*
X0094914Y0095710D02*
X0096674Y0095710D01*
X0096678Y0095748D02*
X0094909Y0095748D01*
X0094904Y0095786D02*
X0096681Y0095786D01*
X0096685Y0095824D02*
X0094899Y0095824D01*
X0094890Y0095862D02*
X0096686Y0095862D01*
X0096687Y0095899D02*
X0094879Y0095899D01*
X0094869Y0095937D02*
X0096688Y0095937D01*
X0096688Y0095975D02*
X0094858Y0095975D01*
X0094848Y0096013D02*
X0096689Y0096013D01*
X0096690Y0096051D02*
X0094837Y0096051D01*
X0094820Y0096089D02*
X0096689Y0096089D01*
X0096688Y0096127D02*
X0094804Y0096127D01*
X0094788Y0096165D02*
X0096687Y0096165D01*
X0096686Y0096202D02*
X0094771Y0096202D01*
X0094755Y0096240D02*
X0096685Y0096240D01*
X0096684Y0096278D02*
X0094734Y0096278D01*
X0094710Y0096316D02*
X0096680Y0096316D01*
X0096677Y0096354D02*
X0094687Y0096354D01*
X0094664Y0096392D02*
X0096673Y0096392D01*
X0096669Y0096430D02*
X0094641Y0096430D01*
X0094612Y0096468D02*
X0096665Y0096468D01*
X0096660Y0096506D02*
X0094581Y0096506D01*
X0094550Y0096543D02*
X0096653Y0096543D01*
X0096647Y0096581D02*
X0094519Y0096581D01*
X0094485Y0096619D02*
X0096640Y0096619D01*
X0096633Y0096657D02*
X0094442Y0096657D01*
X0094399Y0096695D02*
X0096626Y0096695D01*
X0096618Y0096733D02*
X0094356Y0096733D01*
X0094303Y0096771D02*
X0096608Y0096771D01*
X0096598Y0096809D02*
X0094232Y0096809D01*
X0094161Y0096846D02*
X0096588Y0096846D01*
X0096578Y0096884D02*
X0094080Y0096884D01*
X0093993Y0096922D02*
X0096568Y0096922D01*
X0096555Y0096960D02*
X0093900Y0096960D01*
X0093792Y0096998D02*
X0096542Y0096998D01*
X0096529Y0097036D02*
X0093671Y0097036D01*
X0093527Y0097074D02*
X0096516Y0097074D01*
X0096503Y0097112D02*
X0093329Y0097112D01*
X0093848Y0099044D02*
X0088385Y0099044D01*
X0088380Y0099006D02*
X0094073Y0099006D01*
X0094243Y0098968D02*
X0088375Y0098968D01*
X0088371Y0098930D02*
X0094389Y0098930D01*
X0094509Y0098892D02*
X0088366Y0098892D01*
X0088364Y0098854D02*
X0094622Y0098854D01*
X0094722Y0098816D02*
X0088364Y0098816D01*
X0088364Y0098778D02*
X0094817Y0098778D01*
X0094902Y0098741D02*
X0088364Y0098741D01*
X0088364Y0098703D02*
X0094987Y0098703D01*
X0095061Y0098665D02*
X0088364Y0098665D01*
X0088364Y0098627D02*
X0095134Y0098627D01*
X0095205Y0098589D02*
X0088364Y0098589D01*
X0088364Y0098551D02*
X0095269Y0098551D01*
X0095333Y0098513D02*
X0088364Y0098513D01*
X0088364Y0098475D02*
X0095395Y0098475D01*
X0095451Y0098437D02*
X0088364Y0098437D01*
X0088364Y0098400D02*
X0095508Y0098400D01*
X0095564Y0098362D02*
X0088364Y0098362D01*
X0088364Y0098324D02*
X0095613Y0098324D01*
X0095662Y0098286D02*
X0088364Y0098286D01*
X0088364Y0098248D02*
X0095712Y0098248D01*
X0095757Y0098210D02*
X0088364Y0098210D01*
X0088364Y0098172D02*
X0095796Y0098172D01*
X0095835Y0098134D02*
X0088364Y0098134D01*
X0088364Y0098097D02*
X0095874Y0098097D01*
X0095911Y0098059D02*
X0088364Y0098059D01*
X0088364Y0098021D02*
X0095944Y0098021D01*
X0095977Y0097983D02*
X0088364Y0097983D01*
X0088364Y0097945D02*
X0096011Y0097945D01*
X0096044Y0097907D02*
X0088364Y0097907D01*
X0088364Y0097869D02*
X0096073Y0097869D01*
X0096102Y0097831D02*
X0088364Y0097831D01*
X0088364Y0097793D02*
X0096130Y0097793D01*
X0096158Y0097756D02*
X0088364Y0097756D01*
X0088364Y0097718D02*
X0096186Y0097718D01*
X0096210Y0097680D02*
X0088364Y0097680D01*
X0088364Y0097642D02*
X0096234Y0097642D01*
X0096258Y0097604D02*
X0088364Y0097604D01*
X0088364Y0097566D02*
X0096282Y0097566D01*
X0096305Y0097528D02*
X0088364Y0097528D01*
X0088364Y0097490D02*
X0096326Y0097490D01*
X0096346Y0097453D02*
X0088364Y0097453D01*
X0088364Y0097415D02*
X0096366Y0097415D01*
X0096386Y0097377D02*
X0088364Y0097377D01*
X0088364Y0097339D02*
X0096406Y0097339D01*
X0096422Y0097301D02*
X0088369Y0097301D01*
X0088377Y0097263D02*
X0096439Y0097263D01*
X0096456Y0097225D02*
X0088386Y0097225D01*
X0088394Y0097187D02*
X0096472Y0097187D01*
X0096489Y0097150D02*
X0088402Y0097150D01*
X0088435Y0100688D02*
X0099101Y0100699D01*
X0099101Y0102476D01*
X0099024Y0102622D01*
X0088581Y0102622D01*
X0088364Y0102616D01*
X0088364Y0100838D01*
X0088435Y0100688D01*
X0088425Y0100710D02*
X0099101Y0100710D01*
X0099101Y0100748D02*
X0088407Y0100748D01*
X0088389Y0100786D02*
X0099101Y0100786D01*
X0099101Y0100824D02*
X0088371Y0100824D01*
X0088364Y0100862D02*
X0099101Y0100862D01*
X0099101Y0100900D02*
X0088364Y0100900D01*
X0088364Y0100938D02*
X0099101Y0100938D01*
X0099101Y0100976D02*
X0088364Y0100976D01*
X0088364Y0101013D02*
X0099101Y0101013D01*
X0099101Y0101051D02*
X0088364Y0101051D01*
X0088364Y0101089D02*
X0099101Y0101089D01*
X0099101Y0101127D02*
X0088364Y0101127D01*
X0088364Y0101165D02*
X0099101Y0101165D01*
X0099101Y0101203D02*
X0088364Y0101203D01*
X0088364Y0101241D02*
X0099101Y0101241D01*
X0099101Y0101279D02*
X0088364Y0101279D01*
X0088364Y0101316D02*
X0099101Y0101316D01*
X0099101Y0101354D02*
X0088364Y0101354D01*
X0088364Y0101392D02*
X0099101Y0101392D01*
X0099101Y0101430D02*
X0088364Y0101430D01*
X0088364Y0101468D02*
X0099101Y0101468D01*
X0099101Y0101506D02*
X0088364Y0101506D01*
X0088364Y0101544D02*
X0099101Y0101544D01*
X0099101Y0101582D02*
X0088364Y0101582D01*
X0088364Y0101620D02*
X0099101Y0101620D01*
X0099101Y0101657D02*
X0088364Y0101657D01*
X0088364Y0101695D02*
X0099101Y0101695D01*
X0099101Y0101733D02*
X0088364Y0101733D01*
X0088364Y0101771D02*
X0099101Y0101771D01*
X0099101Y0101809D02*
X0088364Y0101809D01*
X0088364Y0101847D02*
X0099101Y0101847D01*
X0099101Y0101885D02*
X0088364Y0101885D01*
X0088364Y0101923D02*
X0099101Y0101923D01*
X0099101Y0101960D02*
X0088364Y0101960D01*
X0088364Y0101998D02*
X0099101Y0101998D01*
X0099101Y0102036D02*
X0088364Y0102036D01*
X0088364Y0102074D02*
X0099101Y0102074D01*
X0099101Y0102112D02*
X0088364Y0102112D01*
X0088364Y0102150D02*
X0099101Y0102150D01*
X0099101Y0102188D02*
X0088364Y0102188D01*
X0088364Y0102226D02*
X0099101Y0102226D01*
X0099101Y0102263D02*
X0088364Y0102263D01*
X0088364Y0102301D02*
X0099101Y0102301D01*
X0099101Y0102339D02*
X0088364Y0102339D01*
X0088364Y0102377D02*
X0099101Y0102377D01*
X0099101Y0102415D02*
X0088364Y0102415D01*
X0088364Y0102453D02*
X0099101Y0102453D01*
X0099094Y0102491D02*
X0088364Y0102491D01*
X0088364Y0102529D02*
X0099074Y0102529D01*
X0099054Y0102567D02*
X0088364Y0102567D01*
X0088364Y0102604D02*
X0099033Y0102604D01*
X0091781Y0088626D02*
X0089227Y0088626D01*
X0089213Y0088626D02*
X0089172Y0088626D01*
X0089137Y0088588D02*
X0089260Y0088588D01*
X0089275Y0088588D02*
X0091630Y0088588D01*
X0091512Y0088550D02*
X0089322Y0088550D01*
X0089308Y0088550D02*
X0089101Y0088550D01*
X0089065Y0088513D02*
X0089355Y0088513D01*
X0089369Y0088513D02*
X0091401Y0088513D01*
X0091312Y0088475D02*
X0089417Y0088475D01*
X0089402Y0088475D02*
X0089031Y0088475D01*
X0088999Y0088437D02*
X0089449Y0088437D01*
X0089464Y0088437D02*
X0091225Y0088437D01*
X0091147Y0088399D02*
X0089511Y0088399D01*
X0089497Y0088399D02*
X0088967Y0088399D01*
X0088935Y0088361D02*
X0089544Y0088361D01*
X0089559Y0088361D02*
X0091076Y0088361D01*
X0091005Y0088323D02*
X0089606Y0088323D01*
X0089591Y0088323D02*
X0088904Y0088323D01*
X0088875Y0088285D02*
X0089639Y0088285D01*
X0089653Y0088285D02*
X0090944Y0088285D01*
X0090885Y0088247D02*
X0089701Y0088247D01*
X0089686Y0088247D02*
X0088847Y0088247D01*
X0088819Y0088209D02*
X0089733Y0088209D01*
X0089748Y0088209D02*
X0090826Y0088209D01*
X0090774Y0088172D02*
X0089795Y0088172D01*
X0089780Y0088172D02*
X0088791Y0088172D01*
X0088763Y0088134D02*
X0089828Y0088134D01*
X0089843Y0088134D02*
X0090724Y0088134D01*
X0090674Y0088096D02*
X0089890Y0088096D01*
X0089875Y0088096D02*
X0088738Y0088096D01*
X0088714Y0088058D02*
X0089922Y0088058D01*
X0089937Y0088058D02*
X0090626Y0088058D01*
X0090586Y0088020D02*
X0089985Y0088020D01*
X0089969Y0088020D02*
X0088689Y0088020D01*
X0088664Y0087982D02*
X0090017Y0087982D01*
X0090032Y0087982D02*
X0090546Y0087982D01*
X0090506Y0087944D02*
X0090079Y0087944D01*
X0090064Y0087944D02*
X0088640Y0087944D01*
X0088619Y0087906D02*
X0090111Y0087906D01*
X0090127Y0087906D02*
X0090467Y0087906D01*
X0090435Y0087869D02*
X0090174Y0087869D01*
X0090158Y0087869D02*
X0088597Y0087869D01*
X0088575Y0087831D02*
X0090206Y0087831D01*
X0090221Y0087831D02*
X0090402Y0087831D01*
X0090370Y0087793D02*
X0090269Y0087793D01*
X0090253Y0087793D02*
X0088554Y0087793D01*
X0088532Y0087755D02*
X0090300Y0087755D01*
X0090316Y0087755D02*
X0090338Y0087755D01*
X0090309Y0087717D02*
X0088514Y0087717D01*
X0088495Y0087679D02*
X0090283Y0087679D01*
X0090256Y0087641D02*
X0088476Y0087641D01*
X0088458Y0087603D02*
X0090230Y0087603D01*
X0090203Y0087566D02*
X0088439Y0087566D01*
X0088423Y0087528D02*
X0090181Y0087528D01*
X0090160Y0087490D02*
X0088407Y0087490D01*
X0088391Y0087452D02*
X0090138Y0087452D01*
X0090117Y0087414D02*
X0088375Y0087414D01*
X0088359Y0087376D02*
X0090095Y0087376D01*
X0090077Y0087338D02*
X0088344Y0087338D01*
X0088330Y0087300D02*
X0090060Y0087300D01*
X0090044Y0087262D02*
X0088317Y0087262D01*
X0088304Y0087225D02*
X0090027Y0087225D01*
X0090010Y0087187D02*
X0088290Y0087187D01*
X0088277Y0087149D02*
X0089995Y0087149D01*
X0089982Y0087111D02*
X0088266Y0087111D01*
X0088255Y0087073D02*
X0089969Y0087073D01*
X0089957Y0087035D02*
X0088244Y0087035D01*
X0088233Y0086997D02*
X0089944Y0086997D01*
X0089931Y0086959D02*
X0088222Y0086959D01*
X0088212Y0086922D02*
X0089922Y0086922D01*
X0089913Y0086884D02*
X0088203Y0086884D01*
X0088195Y0086846D02*
X0089904Y0086846D01*
X0089895Y0086808D02*
X0088186Y0086808D01*
X0088178Y0086770D02*
X0089887Y0086770D01*
X0089878Y0086732D02*
X0088169Y0086732D01*
X0088162Y0086694D02*
X0089873Y0086694D01*
X0089868Y0086656D02*
X0088156Y0086656D01*
X0088150Y0086618D02*
X0089863Y0086618D01*
X0089858Y0086581D02*
X0088143Y0086581D01*
X0088137Y0086543D02*
X0089853Y0086543D01*
X0089849Y0086505D02*
X0088131Y0086505D01*
X0088127Y0086467D02*
X0089848Y0086467D01*
X0089846Y0086429D02*
X0088123Y0086429D01*
X0088119Y0086391D02*
X0089845Y0086391D01*
X0089844Y0086353D02*
X0088115Y0086353D01*
X0088111Y0086315D02*
X0089842Y0086315D01*
X0089842Y0086278D02*
X0088107Y0086278D01*
X0088106Y0086240D02*
X0089845Y0086240D01*
X0089847Y0086202D02*
X0088104Y0086202D01*
X0088102Y0086164D02*
X0089849Y0086164D01*
X0089852Y0086126D02*
X0088101Y0086126D01*
X0088099Y0086088D02*
X0089854Y0086088D01*
X0089858Y0086050D02*
X0088098Y0086050D01*
X0088097Y0086012D02*
X0089864Y0086012D01*
X0089870Y0085974D02*
X0088098Y0085974D01*
X0088099Y0085937D02*
X0089876Y0085937D01*
X0089882Y0085899D02*
X0088099Y0085899D01*
X0088100Y0085861D02*
X0089888Y0085861D01*
X0089897Y0085823D02*
X0088101Y0085823D01*
X0088101Y0085785D02*
X0089906Y0085785D01*
X0089916Y0085747D02*
X0088104Y0085747D01*
X0088107Y0085709D02*
X0089926Y0085709D01*
X0089936Y0085671D02*
X0088110Y0085671D01*
X0088113Y0085634D02*
X0089946Y0085634D01*
X0089959Y0085596D02*
X0088116Y0085596D01*
X0088119Y0085558D02*
X0089973Y0085558D01*
X0089987Y0085520D02*
X0088124Y0085520D01*
X0088129Y0085482D02*
X0090001Y0085482D01*
X0090014Y0085444D02*
X0088135Y0085444D01*
X0088140Y0085406D02*
X0090030Y0085406D01*
X0090048Y0085368D02*
X0088145Y0085368D01*
X0088151Y0085331D02*
X0090066Y0085331D01*
X0090084Y0085293D02*
X0088158Y0085293D01*
X0088166Y0085255D02*
X0090102Y0085255D01*
X0090121Y0085217D02*
X0088174Y0085217D01*
X0088181Y0085179D02*
X0090144Y0085179D01*
X0090166Y0085141D02*
X0088189Y0085141D01*
X0088197Y0085103D02*
X0090189Y0085103D01*
X0090212Y0085065D02*
X0088207Y0085065D01*
X0088217Y0085027D02*
X0090235Y0085027D01*
X0090263Y0084990D02*
X0088227Y0084990D01*
X0088237Y0084952D02*
X0090291Y0084952D01*
X0090319Y0084914D02*
X0088247Y0084914D01*
X0088259Y0084876D02*
X0090347Y0084876D01*
X0090378Y0084838D02*
X0088272Y0084838D01*
X0088284Y0084800D02*
X0090412Y0084800D01*
X0090446Y0084762D02*
X0088296Y0084762D01*
X0088309Y0084724D02*
X0090480Y0084724D01*
X0090514Y0084687D02*
X0088322Y0084687D01*
X0088337Y0084649D02*
X0090557Y0084649D01*
X0090600Y0084611D02*
X0088352Y0084611D01*
X0088367Y0084573D02*
X0090642Y0084573D01*
X0090687Y0084535D02*
X0088382Y0084535D01*
X0088397Y0084497D02*
X0090739Y0084497D01*
X0090791Y0084459D02*
X0088414Y0084459D01*
X0088431Y0084421D02*
X0090843Y0084421D01*
X0090902Y0084383D02*
X0088449Y0084383D01*
X0088467Y0084346D02*
X0090964Y0084346D01*
X0091025Y0084308D02*
X0088484Y0084308D01*
X0088503Y0084270D02*
X0091096Y0084270D01*
X0091171Y0084232D02*
X0088524Y0084232D01*
X0088544Y0084194D02*
X0091247Y0084194D01*
X0091339Y0084156D02*
X0088565Y0084156D01*
X0088585Y0084118D02*
X0091432Y0084118D01*
X0091547Y0084080D02*
X0088607Y0084080D01*
X0088630Y0084043D02*
X0091668Y0084043D01*
X0091834Y0084005D02*
X0088654Y0084005D01*
X0088677Y0083967D02*
X0092067Y0083967D01*
X0092536Y0079156D02*
X0099129Y0079156D01*
X0099119Y0079118D02*
X0092873Y0079118D01*
X0093046Y0079080D02*
X0099109Y0079080D01*
X0096462Y0078019D02*
X0094585Y0078019D01*
X0094608Y0077982D02*
X0096478Y0077982D01*
X0096493Y0077944D02*
X0094631Y0077944D01*
X0094654Y0077906D02*
X0096508Y0077906D01*
X0096523Y0077868D02*
X0094674Y0077868D01*
X0094692Y0077830D02*
X0096535Y0077830D01*
X0096548Y0077792D02*
X0094711Y0077792D01*
X0094729Y0077754D02*
X0096560Y0077754D01*
X0096573Y0077716D02*
X0094747Y0077716D01*
X0094764Y0077678D02*
X0096585Y0077678D01*
X0096596Y0077641D02*
X0094778Y0077641D01*
X0094791Y0077603D02*
X0096606Y0077603D01*
X0096616Y0077565D02*
X0094805Y0077565D01*
X0094819Y0077527D02*
X0096626Y0077527D01*
X0096635Y0077489D02*
X0094832Y0077489D01*
X0094843Y0077451D02*
X0096645Y0077451D01*
X0096653Y0077413D02*
X0094852Y0077413D01*
X0094862Y0077375D02*
X0096660Y0077375D01*
X0096668Y0077338D02*
X0094872Y0077338D01*
X0094881Y0077300D02*
X0096675Y0077300D01*
X0096682Y0077262D02*
X0094890Y0077262D01*
X0094896Y0077224D02*
X0096689Y0077224D01*
X0096694Y0077186D02*
X0094902Y0077186D01*
X0094907Y0077148D02*
X0096699Y0077148D01*
X0096704Y0077110D02*
X0094913Y0077110D01*
X0094919Y0077072D02*
X0096709Y0077072D01*
X0096714Y0077034D02*
X0094923Y0077034D01*
X0094925Y0076997D02*
X0096718Y0076997D01*
X0096720Y0076959D02*
X0094927Y0076959D01*
X0094929Y0076921D02*
X0096723Y0076921D01*
X0096725Y0076883D02*
X0094930Y0076883D01*
X0094932Y0076845D02*
X0096728Y0076845D01*
X0096730Y0076807D02*
X0094933Y0076807D01*
X0094933Y0076769D02*
X0096732Y0076769D01*
X0096732Y0076731D02*
X0094931Y0076731D01*
X0094929Y0076694D02*
X0096733Y0076694D01*
X0096733Y0076656D02*
X0094926Y0076656D01*
X0094924Y0076618D02*
X0096734Y0076618D01*
X0096734Y0076580D02*
X0094921Y0076580D01*
X0094919Y0076542D02*
X0096733Y0076542D01*
X0096732Y0076504D02*
X0094913Y0076504D01*
X0094906Y0076466D02*
X0096731Y0076466D01*
X0096729Y0076428D02*
X0094900Y0076428D01*
X0094894Y0076391D02*
X0096728Y0076391D01*
X0096726Y0076353D02*
X0094887Y0076353D01*
X0094881Y0076315D02*
X0096723Y0076315D01*
X0096720Y0076277D02*
X0094870Y0076277D01*
X0094860Y0076239D02*
X0096716Y0076239D01*
X0096713Y0076201D02*
X0094850Y0076201D01*
X0094839Y0076163D02*
X0096709Y0076163D01*
X0096706Y0076125D02*
X0094829Y0076125D01*
X0094817Y0076087D02*
X0096700Y0076087D01*
X0096694Y0076050D02*
X0094802Y0076050D01*
X0094788Y0076012D02*
X0096689Y0076012D01*
X0096683Y0075974D02*
X0094773Y0075974D01*
X0094759Y0075936D02*
X0096677Y0075936D01*
X0096671Y0075898D02*
X0094744Y0075898D01*
X0094725Y0075860D02*
X0096663Y0075860D01*
X0096655Y0075822D02*
X0094706Y0075822D01*
X0094687Y0075784D02*
X0096647Y0075784D01*
X0096639Y0075747D02*
X0094668Y0075747D01*
X0094649Y0075709D02*
X0096631Y0075709D01*
X0096622Y0075671D02*
X0094626Y0075671D01*
X0094602Y0075633D02*
X0096612Y0075633D01*
X0096602Y0075595D02*
X0094578Y0075595D01*
X0094554Y0075557D02*
X0096592Y0075557D01*
X0096581Y0075519D02*
X0094530Y0075519D01*
X0094502Y0075481D02*
X0096571Y0075481D01*
X0096559Y0075443D02*
X0094472Y0075443D01*
X0094442Y0075406D02*
X0096546Y0075406D01*
X0096534Y0075368D02*
X0094412Y0075368D01*
X0094382Y0075330D02*
X0096521Y0075330D01*
X0096509Y0075292D02*
X0094345Y0075292D01*
X0094309Y0075254D02*
X0096495Y0075254D01*
X0096480Y0075216D02*
X0094272Y0075216D01*
X0094236Y0075178D02*
X0096465Y0075178D01*
X0096450Y0075140D02*
X0094191Y0075140D01*
X0094146Y0075103D02*
X0096435Y0075103D01*
X0096420Y0075065D02*
X0094101Y0075065D01*
X0094054Y0075027D02*
X0096403Y0075027D01*
X0096386Y0074989D02*
X0094000Y0074989D01*
X0093946Y0074951D02*
X0096368Y0074951D01*
X0096350Y0074913D02*
X0093893Y0074913D01*
X0093831Y0074875D02*
X0096333Y0074875D01*
X0096314Y0074837D02*
X0093766Y0074837D01*
X0093702Y0074799D02*
X0096294Y0074799D01*
X0096273Y0074762D02*
X0093627Y0074762D01*
X0093549Y0074724D02*
X0096253Y0074724D01*
X0096232Y0074686D02*
X0093466Y0074686D01*
X0093369Y0074648D02*
X0096211Y0074648D01*
X0096188Y0074610D02*
X0093268Y0074610D01*
X0093140Y0074572D02*
X0096165Y0074572D01*
X0096142Y0074534D02*
X0092990Y0074534D01*
X0092786Y0074496D02*
X0096119Y0074496D01*
X0094351Y0072943D02*
X0090454Y0072943D01*
X0090536Y0072905D02*
X0094273Y0072905D01*
X0094184Y0072868D02*
X0090623Y0072868D01*
X0090718Y0072830D02*
X0094094Y0072830D01*
X0093994Y0072792D02*
X0090815Y0072792D01*
X0090926Y0072754D02*
X0093889Y0072754D01*
X0093770Y0072716D02*
X0091044Y0072716D01*
X0091177Y0072678D02*
X0093644Y0072678D01*
X0093490Y0072640D02*
X0091333Y0072640D01*
X0091517Y0072602D02*
X0093308Y0072602D01*
X0093068Y0072564D02*
X0091768Y0072564D01*
X0094896Y0067640D02*
X0096623Y0067640D01*
X0096630Y0067602D02*
X0094901Y0067602D01*
X0094907Y0067564D02*
X0096636Y0067564D01*
X0096643Y0067526D02*
X0094912Y0067526D01*
X0094917Y0067488D02*
X0096650Y0067488D01*
X0096654Y0067464D02*
X0096616Y0067683D01*
X0096654Y0067464D02*
X0096678Y0067243D01*
X0096689Y0067021D01*
X0096689Y0066798D01*
X0096679Y0066575D01*
X0096655Y0066354D01*
X0096617Y0066135D01*
X0096567Y0065918D01*
X0096503Y0065705D01*
X0096427Y0065495D01*
X0096338Y0065291D01*
X0096354Y0065329D02*
X0093930Y0065329D01*
X0093986Y0065367D02*
X0096371Y0065367D01*
X0096387Y0065405D02*
X0094041Y0065405D01*
X0094090Y0065443D02*
X0096404Y0065443D01*
X0096420Y0065481D02*
X0094136Y0065481D01*
X0094182Y0065519D02*
X0096435Y0065519D01*
X0096449Y0065556D02*
X0094228Y0065556D01*
X0094265Y0065594D02*
X0096463Y0065594D01*
X0096477Y0065632D02*
X0094302Y0065632D01*
X0094338Y0065670D02*
X0096491Y0065670D01*
X0096504Y0065708D02*
X0094375Y0065708D01*
X0094407Y0065746D02*
X0096516Y0065746D01*
X0096527Y0065784D02*
X0094436Y0065784D01*
X0094466Y0065822D02*
X0096538Y0065822D01*
X0096550Y0065859D02*
X0094496Y0065859D01*
X0094525Y0065897D02*
X0096561Y0065897D01*
X0096571Y0065935D02*
X0094550Y0065935D01*
X0094574Y0065973D02*
X0096580Y0065973D01*
X0096589Y0066011D02*
X0094598Y0066011D01*
X0094622Y0066049D02*
X0096597Y0066049D01*
X0096606Y0066087D02*
X0094645Y0066087D01*
X0094664Y0066125D02*
X0096615Y0066125D01*
X0096622Y0066163D02*
X0094684Y0066163D01*
X0094703Y0066200D02*
X0096629Y0066200D01*
X0096635Y0066238D02*
X0094722Y0066238D01*
X0094741Y0066276D02*
X0096642Y0066276D01*
X0096648Y0066314D02*
X0094756Y0066314D01*
X0094770Y0066352D02*
X0096654Y0066352D01*
X0096659Y0066390D02*
X0094785Y0066390D01*
X0094800Y0066428D02*
X0096663Y0066428D01*
X0096667Y0066466D02*
X0094814Y0066466D01*
X0094827Y0066503D02*
X0096671Y0066503D01*
X0096675Y0066541D02*
X0094837Y0066541D01*
X0094848Y0066579D02*
X0096679Y0066579D01*
X0096681Y0066617D02*
X0094858Y0066617D01*
X0094868Y0066655D02*
X0096682Y0066655D01*
X0096684Y0066693D02*
X0094879Y0066693D01*
X0094886Y0066731D02*
X0096686Y0066731D01*
X0096688Y0066769D02*
X0094892Y0066769D01*
X0094899Y0066807D02*
X0096689Y0066807D01*
X0096689Y0066844D02*
X0094905Y0066844D01*
X0094911Y0066882D02*
X0096689Y0066882D01*
X0096689Y0066920D02*
X0094918Y0066920D01*
X0094921Y0066958D02*
X0096689Y0066958D01*
X0096689Y0066996D02*
X0094923Y0066996D01*
X0094926Y0067034D02*
X0096689Y0067034D01*
X0096687Y0067072D02*
X0094928Y0067072D01*
X0094931Y0067110D02*
X0096685Y0067110D01*
X0096683Y0067147D02*
X0094933Y0067147D01*
X0094933Y0067185D02*
X0096681Y0067185D01*
X0096679Y0067223D02*
X0094933Y0067223D01*
X0094931Y0067261D02*
X0096676Y0067261D01*
X0096672Y0067299D02*
X0094930Y0067299D01*
X0094929Y0067337D02*
X0096668Y0067337D01*
X0096664Y0067375D02*
X0094927Y0067375D01*
X0094926Y0067413D02*
X0096660Y0067413D01*
X0096655Y0067450D02*
X0094923Y0067450D01*
X0095237Y0063928D02*
X0089529Y0063928D01*
X0089577Y0063890D02*
X0095188Y0063890D01*
X0095139Y0063852D02*
X0089624Y0063852D01*
X0089675Y0063814D02*
X0095089Y0063814D01*
X0095038Y0063776D02*
X0089728Y0063776D01*
X0089781Y0063738D02*
X0094983Y0063738D01*
X0094929Y0063700D02*
X0089834Y0063700D01*
X0089893Y0063662D02*
X0094874Y0063662D01*
X0094813Y0063624D02*
X0089951Y0063624D01*
X0090010Y0063587D02*
X0094752Y0063587D01*
X0094691Y0063549D02*
X0090075Y0063549D01*
X0090141Y0063511D02*
X0094624Y0063511D01*
X0094483Y0063433D02*
X0094283Y0063335D01*
X0094079Y0063247D01*
X0093870Y0063169D01*
X0093658Y0063101D01*
X0093443Y0063044D01*
X0093225Y0062998D01*
X0093005Y0062962D01*
X0092784Y0062937D01*
X0092562Y0062923D01*
X0092339Y0062919D01*
X0092117Y0062927D01*
X0091895Y0062945D01*
X0091674Y0062974D01*
X0091455Y0063014D01*
X0091238Y0063065D01*
X0091024Y0063126D01*
X0090814Y0063198D01*
X0090607Y0063279D01*
X0090404Y0063371D01*
X0090206Y0063473D01*
X0090430Y0063359D02*
X0094333Y0063359D01*
X0094252Y0063321D02*
X0090514Y0063321D01*
X0090598Y0063284D02*
X0094164Y0063284D01*
X0094076Y0063246D02*
X0090692Y0063246D01*
X0090788Y0063208D02*
X0093974Y0063208D01*
X0093873Y0063170D02*
X0090895Y0063170D01*
X0091007Y0063132D02*
X0093755Y0063132D01*
X0093631Y0063094D02*
X0091136Y0063094D01*
X0091275Y0063056D02*
X0093489Y0063056D01*
X0093322Y0063018D02*
X0091438Y0063018D01*
X0091641Y0062980D02*
X0093119Y0062980D01*
X0092835Y0062943D02*
X0091928Y0062943D01*
X0087775Y0063094D02*
X0087748Y0063094D01*
X0087775Y0063132D02*
X0087638Y0063132D01*
X0087535Y0063170D02*
X0087775Y0063170D01*
X0087775Y0063208D02*
X0087444Y0063208D01*
X0087354Y0063246D02*
X0087775Y0063246D01*
X0087775Y0063284D02*
X0087276Y0063284D01*
X0087199Y0063321D02*
X0087775Y0063321D01*
X0087774Y0063359D02*
X0087127Y0063359D01*
X0087061Y0063397D02*
X0087774Y0063397D01*
X0087774Y0063435D02*
X0086994Y0063435D01*
X0086933Y0063473D02*
X0087774Y0063473D01*
X0087774Y0063511D02*
X0086875Y0063511D01*
X0086818Y0063549D02*
X0087774Y0063549D01*
X0087774Y0063587D02*
X0086762Y0063587D01*
X0086712Y0063624D02*
X0087774Y0063624D01*
X0087774Y0063662D02*
X0086661Y0063662D01*
X0086611Y0063700D02*
X0087774Y0063700D01*
X0087774Y0063738D02*
X0086565Y0063738D01*
X0086520Y0063776D02*
X0087774Y0063776D01*
X0087774Y0063814D02*
X0086476Y0063814D01*
X0086431Y0063852D02*
X0087774Y0063852D01*
X0087774Y0063890D02*
X0086392Y0063890D01*
X0086353Y0063928D02*
X0087774Y0063928D01*
X0087774Y0063965D02*
X0086313Y0063965D01*
X0086274Y0064003D02*
X0087774Y0064003D01*
X0087774Y0064041D02*
X0086239Y0064041D01*
X0086204Y0064079D02*
X0087774Y0064079D01*
X0087774Y0064117D02*
X0086169Y0064117D01*
X0086135Y0064155D02*
X0087773Y0064155D01*
X0087773Y0064193D02*
X0086102Y0064193D01*
X0086072Y0064231D02*
X0087773Y0064231D01*
X0087773Y0064268D02*
X0086041Y0064268D01*
X0086010Y0064306D02*
X0087773Y0064306D01*
X0087773Y0064344D02*
X0085980Y0064344D01*
X0085953Y0064382D02*
X0087773Y0064382D01*
X0087773Y0064420D02*
X0085926Y0064420D01*
X0085899Y0064458D02*
X0087773Y0064458D01*
X0087773Y0064496D02*
X0085872Y0064496D01*
X0085846Y0064534D02*
X0087773Y0064534D01*
X0087773Y0064572D02*
X0085823Y0064572D01*
X0085799Y0064609D02*
X0087773Y0064609D01*
X0087773Y0064647D02*
X0085775Y0064647D01*
X0085752Y0064685D02*
X0087773Y0064685D01*
X0087773Y0064723D02*
X0085729Y0064723D01*
X0085707Y0064761D02*
X0087773Y0064761D01*
X0087773Y0064799D02*
X0085686Y0064799D01*
X0085665Y0064837D02*
X0087773Y0064837D01*
X0094562Y0078057D02*
X0096447Y0078057D01*
X0096431Y0078095D02*
X0094536Y0078095D01*
X0094508Y0078133D02*
X0096413Y0078133D01*
X0096395Y0078171D02*
X0094479Y0078171D01*
X0094450Y0078209D02*
X0096377Y0078209D01*
X0096359Y0078247D02*
X0094422Y0078247D01*
X0094388Y0078285D02*
X0096341Y0078285D01*
X0096320Y0078322D02*
X0094353Y0078322D01*
X0094318Y0078360D02*
X0096299Y0078360D01*
X0096278Y0078398D02*
X0094283Y0078398D01*
X0094244Y0078436D02*
X0096257Y0078436D01*
X0096236Y0078474D02*
X0094201Y0078474D01*
X0094158Y0078512D02*
X0096212Y0078512D01*
X0096187Y0078550D02*
X0094114Y0078550D01*
X0094066Y0078588D02*
X0096163Y0078588D01*
X0096139Y0078626D02*
X0094014Y0078626D01*
X0093963Y0078663D02*
X0096115Y0078663D01*
X0096087Y0078701D02*
X0093910Y0078701D01*
X0093848Y0078739D02*
X0096059Y0078739D01*
X0096031Y0078777D02*
X0093786Y0078777D01*
X0093724Y0078815D02*
X0096004Y0078815D01*
X0095975Y0078853D02*
X0093650Y0078853D01*
X0093575Y0078891D02*
X0095943Y0078891D01*
X0095912Y0078929D02*
X0093493Y0078929D01*
X0093400Y0078966D02*
X0095880Y0078966D01*
X0095848Y0079004D02*
X0093303Y0079004D01*
X0093184Y0079042D02*
X0095971Y0079042D01*
X0091324Y0041691D02*
X0089419Y0041691D01*
X0089402Y0041691D02*
X0088995Y0041691D01*
X0089026Y0041653D02*
X0089349Y0041653D01*
X0089366Y0041653D02*
X0091418Y0041653D01*
X0091527Y0041615D02*
X0089312Y0041615D01*
X0089295Y0041615D02*
X0089058Y0041615D01*
X0089091Y0041577D02*
X0089242Y0041577D01*
X0089259Y0041577D02*
X0091648Y0041577D01*
X0091807Y0041540D02*
X0089206Y0041540D01*
X0089189Y0041540D02*
X0089123Y0041540D01*
D12*
X0130116Y0061892D02*
X0130616Y0061292D01*
X0132016Y0059892D01*
X0132716Y0059292D01*
X0135916Y0061692D01*
X0136716Y0061292D01*
X0137616Y0060892D01*
X0138616Y0060492D01*
X0139616Y0060292D01*
X0140316Y0056092D01*
X0142916Y0056092D01*
X0144116Y0056192D01*
X0144716Y0060192D01*
X0146316Y0060792D01*
X0147216Y0061192D01*
X0148116Y0061692D01*
X0151516Y0059392D01*
X0152216Y0059992D01*
X0153616Y0061392D01*
X0154216Y0062092D01*
X0151816Y0065492D01*
X0152816Y0067492D01*
X0153116Y0068592D01*
X0157216Y0069392D01*
X0157216Y0073192D01*
X0153116Y0073792D01*
X0152716Y0075192D01*
X0152316Y0075992D01*
X0151916Y0076892D01*
X0154316Y0080292D01*
X0152916Y0081892D01*
X0152216Y0082592D01*
X0151516Y0083192D01*
X0148316Y0080692D01*
X0147516Y0081192D01*
X0146816Y0081592D01*
X0146216Y0081792D01*
X0145116Y0082192D01*
X0144416Y0086292D01*
X0143416Y0086392D01*
X0142616Y0086492D01*
X0141716Y0086492D01*
X0140616Y0086392D01*
X0139916Y0082392D01*
X0139216Y0082192D01*
X0137416Y0081592D01*
X0136616Y0081092D01*
X0133016Y0083492D01*
X0131616Y0082292D01*
X0130316Y0080992D01*
X0132716Y0077692D01*
X0131516Y0075592D01*
X0138216Y0072992D01*
X0138574Y0073698D01*
X0139057Y0074323D01*
X0139650Y0074848D01*
X0140330Y0075251D01*
X0141074Y0075520D01*
X0141855Y0075645D01*
X0142645Y0075621D01*
X0143417Y0075450D01*
X0144144Y0075137D01*
X0144798Y0074693D01*
X0145358Y0074134D01*
X0145803Y0073480D01*
X0146118Y0072754D01*
X0146291Y0071983D01*
X0146316Y0071192D01*
X0146254Y0070415D01*
X0146049Y0069663D01*
X0145707Y0068962D01*
X0145242Y0068336D01*
X0144668Y0067808D01*
X0144006Y0067396D01*
X0143279Y0067114D01*
X0142512Y0066972D01*
X0141732Y0066975D01*
X0140967Y0067123D01*
X0140242Y0067410D01*
X0139583Y0067827D01*
X0139013Y0068360D01*
X0138552Y0068989D01*
X0138216Y0069692D01*
X0131416Y0067292D01*
X0131716Y0066692D01*
X0132016Y0065992D01*
X0132416Y0065292D01*
X0130116Y0061892D01*
X0130153Y0061848D02*
X0154007Y0061848D01*
X0154177Y0062046D02*
X0130220Y0062046D01*
X0130355Y0062245D02*
X0154108Y0062245D01*
X0153968Y0062443D02*
X0130489Y0062443D01*
X0130623Y0062642D02*
X0153828Y0062642D01*
X0153688Y0062840D02*
X0130758Y0062840D01*
X0130892Y0063039D02*
X0153548Y0063039D01*
X0153408Y0063237D02*
X0131026Y0063237D01*
X0131161Y0063436D02*
X0153268Y0063436D01*
X0153127Y0063634D02*
X0131295Y0063634D01*
X0131429Y0063833D02*
X0152987Y0063833D01*
X0152847Y0064032D02*
X0131563Y0064032D01*
X0131698Y0064230D02*
X0152707Y0064230D01*
X0152567Y0064429D02*
X0131832Y0064429D01*
X0131966Y0064627D02*
X0152427Y0064627D01*
X0152287Y0064826D02*
X0132101Y0064826D01*
X0132235Y0065024D02*
X0152147Y0065024D01*
X0152006Y0065223D02*
X0132369Y0065223D01*
X0132342Y0065421D02*
X0151866Y0065421D01*
X0151880Y0065620D02*
X0132229Y0065620D01*
X0132116Y0065818D02*
X0151979Y0065818D01*
X0152078Y0066017D02*
X0132006Y0066017D01*
X0131921Y0066215D02*
X0152178Y0066215D01*
X0152277Y0066414D02*
X0131835Y0066414D01*
X0131750Y0066612D02*
X0152376Y0066612D01*
X0152475Y0066811D02*
X0131657Y0066811D01*
X0131558Y0067009D02*
X0141556Y0067009D01*
X0140753Y0067208D02*
X0131458Y0067208D01*
X0131739Y0067406D02*
X0140252Y0067406D01*
X0139935Y0067605D02*
X0132302Y0067605D01*
X0132864Y0067803D02*
X0139621Y0067803D01*
X0139397Y0068002D02*
X0133427Y0068002D01*
X0133989Y0068200D02*
X0139184Y0068200D01*
X0138985Y0068399D02*
X0134552Y0068399D01*
X0135114Y0068597D02*
X0138839Y0068597D01*
X0138694Y0068796D02*
X0135676Y0068796D01*
X0136239Y0068994D02*
X0138550Y0068994D01*
X0138455Y0069193D02*
X0136801Y0069193D01*
X0137364Y0069391D02*
X0138360Y0069391D01*
X0138265Y0069590D02*
X0137926Y0069590D01*
X0137776Y0073163D02*
X0138303Y0073163D01*
X0138403Y0073362D02*
X0137264Y0073362D01*
X0136753Y0073560D02*
X0138504Y0073560D01*
X0138621Y0073759D02*
X0136241Y0073759D01*
X0135730Y0073957D02*
X0138774Y0073957D01*
X0138928Y0074156D02*
X0135218Y0074156D01*
X0134706Y0074354D02*
X0139092Y0074354D01*
X0139316Y0074553D02*
X0134195Y0074553D01*
X0133683Y0074751D02*
X0139541Y0074751D01*
X0139822Y0074950D02*
X0133172Y0074950D01*
X0132660Y0075148D02*
X0140156Y0075148D01*
X0140594Y0075347D02*
X0132149Y0075347D01*
X0131637Y0075545D02*
X0141229Y0075545D01*
X0142988Y0075545D02*
X0152540Y0075545D01*
X0152639Y0075347D02*
X0143657Y0075347D01*
X0144117Y0075148D02*
X0152729Y0075148D01*
X0152785Y0074950D02*
X0144419Y0074950D01*
X0144712Y0074751D02*
X0152842Y0074751D01*
X0152899Y0074553D02*
X0144939Y0074553D01*
X0145137Y0074354D02*
X0152956Y0074354D01*
X0153012Y0074156D02*
X0145336Y0074156D01*
X0145478Y0073957D02*
X0153069Y0073957D01*
X0153345Y0073759D02*
X0145614Y0073759D01*
X0145749Y0073560D02*
X0154702Y0073560D01*
X0156058Y0073362D02*
X0145855Y0073362D01*
X0145941Y0073163D02*
X0157216Y0073163D01*
X0157216Y0072965D02*
X0146027Y0072965D01*
X0146113Y0072766D02*
X0157216Y0072766D01*
X0157216Y0072567D02*
X0146160Y0072567D01*
X0146204Y0072369D02*
X0157216Y0072369D01*
X0157216Y0072170D02*
X0146249Y0072170D01*
X0146291Y0071972D02*
X0157216Y0071972D01*
X0157216Y0071773D02*
X0146298Y0071773D01*
X0146304Y0071575D02*
X0157216Y0071575D01*
X0157216Y0071376D02*
X0146310Y0071376D01*
X0146315Y0071178D02*
X0157216Y0071178D01*
X0157216Y0070979D02*
X0146299Y0070979D01*
X0146283Y0070781D02*
X0157216Y0070781D01*
X0157216Y0070582D02*
X0146268Y0070582D01*
X0146246Y0070384D02*
X0157216Y0070384D01*
X0157216Y0070185D02*
X0146192Y0070185D01*
X0146137Y0069987D02*
X0157216Y0069987D01*
X0157216Y0069788D02*
X0146083Y0069788D01*
X0146013Y0069590D02*
X0157216Y0069590D01*
X0157212Y0069391D02*
X0145917Y0069391D01*
X0145820Y0069193D02*
X0156195Y0069193D01*
X0155177Y0068994D02*
X0145723Y0068994D01*
X0145584Y0068796D02*
X0154160Y0068796D01*
X0153143Y0068597D02*
X0145436Y0068597D01*
X0145288Y0068399D02*
X0153063Y0068399D01*
X0153009Y0068200D02*
X0145094Y0068200D01*
X0144878Y0068002D02*
X0152955Y0068002D01*
X0152901Y0067803D02*
X0144660Y0067803D01*
X0144341Y0067605D02*
X0152847Y0067605D01*
X0152773Y0067406D02*
X0144022Y0067406D01*
X0143520Y0067208D02*
X0152674Y0067208D01*
X0152575Y0067009D02*
X0142712Y0067009D01*
X0145426Y0060458D02*
X0138785Y0060458D01*
X0138204Y0060657D02*
X0145955Y0060657D01*
X0146458Y0060855D02*
X0137708Y0060855D01*
X0137252Y0061054D02*
X0146905Y0061054D01*
X0147325Y0061252D02*
X0136806Y0061252D01*
X0136399Y0061451D02*
X0147682Y0061451D01*
X0148039Y0061649D02*
X0136002Y0061649D01*
X0135859Y0061649D02*
X0130318Y0061649D01*
X0130484Y0061451D02*
X0135594Y0061451D01*
X0135330Y0061252D02*
X0130656Y0061252D01*
X0130854Y0061054D02*
X0135065Y0061054D01*
X0134800Y0060855D02*
X0131053Y0060855D01*
X0131251Y0060657D02*
X0134536Y0060657D01*
X0134271Y0060458D02*
X0131450Y0060458D01*
X0131648Y0060260D02*
X0134006Y0060260D01*
X0133742Y0060061D02*
X0131847Y0060061D01*
X0132050Y0059863D02*
X0133477Y0059863D01*
X0133212Y0059664D02*
X0132282Y0059664D01*
X0132514Y0059466D02*
X0132948Y0059466D01*
X0139622Y0060260D02*
X0144897Y0060260D01*
X0144697Y0060061D02*
X0139655Y0060061D01*
X0139688Y0059863D02*
X0144667Y0059863D01*
X0144637Y0059664D02*
X0139721Y0059664D01*
X0139754Y0059466D02*
X0144607Y0059466D01*
X0144577Y0059267D02*
X0139787Y0059267D01*
X0139820Y0059069D02*
X0144548Y0059069D01*
X0144518Y0058870D02*
X0139853Y0058870D01*
X0139886Y0058672D02*
X0144488Y0058672D01*
X0144458Y0058473D02*
X0139919Y0058473D01*
X0139952Y0058275D02*
X0144429Y0058275D01*
X0144399Y0058076D02*
X0139985Y0058076D01*
X0140019Y0057878D02*
X0144369Y0057878D01*
X0144339Y0057679D02*
X0140052Y0057679D01*
X0140085Y0057481D02*
X0144309Y0057481D01*
X0144280Y0057282D02*
X0140118Y0057282D01*
X0140151Y0057084D02*
X0144250Y0057084D01*
X0144220Y0056885D02*
X0140184Y0056885D01*
X0140217Y0056687D02*
X0144190Y0056687D01*
X0144161Y0056488D02*
X0140250Y0056488D01*
X0140283Y0056290D02*
X0144131Y0056290D01*
X0150234Y0060260D02*
X0152484Y0060260D01*
X0152682Y0060458D02*
X0149940Y0060458D01*
X0149647Y0060657D02*
X0152881Y0060657D01*
X0153079Y0060855D02*
X0149353Y0060855D01*
X0149060Y0061054D02*
X0153278Y0061054D01*
X0153476Y0061252D02*
X0148766Y0061252D01*
X0148473Y0061451D02*
X0153666Y0061451D01*
X0153837Y0061649D02*
X0148179Y0061649D01*
X0150527Y0060061D02*
X0152285Y0060061D01*
X0152065Y0059863D02*
X0150820Y0059863D01*
X0151114Y0059664D02*
X0151834Y0059664D01*
X0151602Y0059466D02*
X0151407Y0059466D01*
X0152440Y0075744D02*
X0131603Y0075744D01*
X0131716Y0075942D02*
X0152341Y0075942D01*
X0152250Y0076141D02*
X0131830Y0076141D01*
X0131943Y0076339D02*
X0152162Y0076339D01*
X0152074Y0076538D02*
X0132056Y0076538D01*
X0132170Y0076736D02*
X0151985Y0076736D01*
X0151946Y0076935D02*
X0132283Y0076935D01*
X0132397Y0077133D02*
X0152086Y0077133D01*
X0152226Y0077332D02*
X0132510Y0077332D01*
X0132624Y0077530D02*
X0152367Y0077530D01*
X0152507Y0077729D02*
X0132689Y0077729D01*
X0132545Y0077927D02*
X0152647Y0077927D01*
X0152787Y0078126D02*
X0132401Y0078126D01*
X0132256Y0078324D02*
X0152927Y0078324D01*
X0153067Y0078523D02*
X0132112Y0078523D01*
X0131968Y0078721D02*
X0153207Y0078721D01*
X0153347Y0078920D02*
X0131823Y0078920D01*
X0131679Y0079118D02*
X0153488Y0079118D01*
X0153628Y0079317D02*
X0131535Y0079317D01*
X0131390Y0079515D02*
X0153768Y0079515D01*
X0153908Y0079714D02*
X0131246Y0079714D01*
X0131101Y0079912D02*
X0154048Y0079912D01*
X0154188Y0080111D02*
X0130957Y0080111D01*
X0130813Y0080309D02*
X0154301Y0080309D01*
X0154127Y0080508D02*
X0130668Y0080508D01*
X0130524Y0080706D02*
X0148293Y0080706D01*
X0148334Y0080706D02*
X0153954Y0080706D01*
X0153780Y0080905D02*
X0148589Y0080905D01*
X0148843Y0081103D02*
X0153606Y0081103D01*
X0153433Y0081302D02*
X0149097Y0081302D01*
X0149351Y0081501D02*
X0153259Y0081501D01*
X0153085Y0081699D02*
X0149605Y0081699D01*
X0149859Y0081898D02*
X0152911Y0081898D01*
X0152712Y0082096D02*
X0150113Y0082096D01*
X0150367Y0082295D02*
X0152514Y0082295D01*
X0152315Y0082493D02*
X0150621Y0082493D01*
X0150875Y0082692D02*
X0152100Y0082692D01*
X0151869Y0082890D02*
X0151130Y0082890D01*
X0151384Y0083089D02*
X0151637Y0083089D01*
X0147976Y0080905D02*
X0130380Y0080905D01*
X0130427Y0081103D02*
X0136599Y0081103D01*
X0136634Y0081103D02*
X0147658Y0081103D01*
X0147324Y0081302D02*
X0136952Y0081302D01*
X0137270Y0081501D02*
X0146976Y0081501D01*
X0146495Y0081699D02*
X0137737Y0081699D01*
X0138332Y0081898D02*
X0145926Y0081898D01*
X0145380Y0082096D02*
X0138928Y0082096D01*
X0139575Y0082295D02*
X0145099Y0082295D01*
X0145065Y0082493D02*
X0139934Y0082493D01*
X0139969Y0082692D02*
X0145031Y0082692D01*
X0144997Y0082890D02*
X0140003Y0082890D01*
X0140038Y0083089D02*
X0144963Y0083089D01*
X0144929Y0083287D02*
X0140073Y0083287D01*
X0140107Y0083486D02*
X0144895Y0083486D01*
X0144861Y0083684D02*
X0140142Y0083684D01*
X0140177Y0083883D02*
X0144828Y0083883D01*
X0144794Y0084081D02*
X0140212Y0084081D01*
X0140246Y0084280D02*
X0144760Y0084280D01*
X0144726Y0084478D02*
X0140281Y0084478D01*
X0140316Y0084677D02*
X0144692Y0084677D01*
X0144658Y0084875D02*
X0140351Y0084875D01*
X0140385Y0085074D02*
X0144624Y0085074D01*
X0144590Y0085272D02*
X0140420Y0085272D01*
X0140455Y0085471D02*
X0144556Y0085471D01*
X0144522Y0085669D02*
X0140490Y0085669D01*
X0140524Y0085868D02*
X0144489Y0085868D01*
X0144455Y0086066D02*
X0140559Y0086066D01*
X0140594Y0086265D02*
X0144421Y0086265D01*
X0142847Y0086463D02*
X0141399Y0086463D01*
X0136301Y0081302D02*
X0130626Y0081302D01*
X0130825Y0081501D02*
X0136004Y0081501D01*
X0135706Y0081699D02*
X0131023Y0081699D01*
X0131222Y0081898D02*
X0135408Y0081898D01*
X0135110Y0082096D02*
X0131420Y0082096D01*
X0131619Y0082295D02*
X0134813Y0082295D01*
X0134515Y0082493D02*
X0131851Y0082493D01*
X0132082Y0082692D02*
X0134217Y0082692D01*
X0133919Y0082890D02*
X0132314Y0082890D01*
X0132545Y0083089D02*
X0133621Y0083089D01*
X0133324Y0083287D02*
X0132777Y0083287D01*
X0133009Y0083486D02*
X0133026Y0083486D01*
D13*
X0125983Y0082957D02*
X0125983Y0081424D01*
X0122916Y0081424D01*
X0125472Y0082957D02*
X0125983Y0082957D01*
X0125216Y0084403D02*
X0123683Y0084403D01*
X0123628Y0084405D01*
X0123574Y0084411D01*
X0123520Y0084421D01*
X0123467Y0084434D01*
X0123415Y0084451D01*
X0123364Y0084472D01*
X0123315Y0084497D01*
X0123268Y0084525D01*
X0123223Y0084556D01*
X0123181Y0084590D01*
X0123141Y0084628D01*
X0123103Y0084668D01*
X0123069Y0084710D01*
X0123038Y0084755D01*
X0123010Y0084802D01*
X0122985Y0084851D01*
X0122964Y0084902D01*
X0122947Y0084954D01*
X0122934Y0085007D01*
X0122924Y0085061D01*
X0122918Y0085115D01*
X0122916Y0085170D01*
X0122916Y0086192D01*
X0123683Y0087848D02*
X0124961Y0087848D01*
X0124449Y0087848D02*
X0124449Y0089892D01*
X0124961Y0089892D01*
X0125024Y0089890D01*
X0125087Y0089884D01*
X0125149Y0089875D01*
X0125210Y0089861D01*
X0125271Y0089844D01*
X0125330Y0089823D01*
X0125388Y0089798D01*
X0125445Y0089770D01*
X0125499Y0089739D01*
X0125551Y0089704D01*
X0125602Y0089666D01*
X0125650Y0089625D01*
X0125695Y0089581D01*
X0125737Y0089535D01*
X0125777Y0089486D01*
X0125813Y0089435D01*
X0125846Y0089381D01*
X0125876Y0089326D01*
X0125902Y0089268D01*
X0125925Y0089210D01*
X0125944Y0089150D01*
X0125959Y0089089D01*
X0125971Y0089027D01*
X0125979Y0088964D01*
X0125983Y0088901D01*
X0125983Y0088839D01*
X0125979Y0088776D01*
X0125971Y0088713D01*
X0125959Y0088651D01*
X0125944Y0088590D01*
X0125925Y0088530D01*
X0125902Y0088472D01*
X0125876Y0088414D01*
X0125846Y0088359D01*
X0125813Y0088305D01*
X0125777Y0088254D01*
X0125737Y0088205D01*
X0125695Y0088159D01*
X0125650Y0088115D01*
X0125602Y0088074D01*
X0125551Y0088036D01*
X0125499Y0088001D01*
X0125445Y0087970D01*
X0125388Y0087942D01*
X0125330Y0087917D01*
X0125271Y0087896D01*
X0125210Y0087879D01*
X0125149Y0087865D01*
X0125087Y0087856D01*
X0125024Y0087850D01*
X0124961Y0087848D01*
X0123683Y0087847D02*
X0123628Y0087849D01*
X0123574Y0087855D01*
X0123520Y0087865D01*
X0123467Y0087878D01*
X0123415Y0087895D01*
X0123364Y0087916D01*
X0123315Y0087941D01*
X0123268Y0087969D01*
X0123223Y0088000D01*
X0123181Y0088034D01*
X0123141Y0088072D01*
X0123103Y0088112D01*
X0123069Y0088154D01*
X0123038Y0088199D01*
X0123010Y0088246D01*
X0122985Y0088295D01*
X0122964Y0088346D01*
X0122947Y0088398D01*
X0122934Y0088451D01*
X0122924Y0088505D01*
X0122918Y0088559D01*
X0122916Y0088614D01*
X0122916Y0089892D01*
X0125983Y0086192D02*
X0125983Y0085170D01*
X0125981Y0085115D01*
X0125975Y0085061D01*
X0125965Y0085007D01*
X0125952Y0084954D01*
X0125935Y0084902D01*
X0125914Y0084851D01*
X0125889Y0084802D01*
X0125861Y0084755D01*
X0125830Y0084710D01*
X0125796Y0084668D01*
X0125758Y0084628D01*
X0125718Y0084590D01*
X0125676Y0084556D01*
X0125631Y0084525D01*
X0125584Y0084497D01*
X0125535Y0084472D01*
X0125484Y0084451D01*
X0125432Y0084434D01*
X0125379Y0084421D01*
X0125325Y0084411D01*
X0125271Y0084405D01*
X0125216Y0084403D01*
X0118483Y0082357D02*
X0118483Y0080824D01*
X0115416Y0080824D01*
X0115416Y0078619D02*
X0117716Y0078619D01*
X0117205Y0078619D02*
X0117205Y0077469D01*
X0117716Y0078619D02*
X0117771Y0078617D01*
X0117825Y0078611D01*
X0117879Y0078601D01*
X0117932Y0078588D01*
X0117984Y0078571D01*
X0118035Y0078550D01*
X0118084Y0078525D01*
X0118131Y0078497D01*
X0118176Y0078466D01*
X0118218Y0078432D01*
X0118258Y0078394D01*
X0118296Y0078354D01*
X0118330Y0078312D01*
X0118361Y0078267D01*
X0118389Y0078220D01*
X0118414Y0078171D01*
X0118435Y0078120D01*
X0118452Y0078068D01*
X0118465Y0078015D01*
X0118475Y0077961D01*
X0118481Y0077907D01*
X0118483Y0077852D01*
X0118483Y0076830D01*
X0117205Y0077469D02*
X0117203Y0077411D01*
X0117197Y0077352D01*
X0117188Y0077295D01*
X0117175Y0077238D01*
X0117158Y0077182D01*
X0117137Y0077127D01*
X0117113Y0077074D01*
X0117085Y0077022D01*
X0117054Y0076972D01*
X0117020Y0076925D01*
X0116983Y0076880D01*
X0116943Y0076837D01*
X0116900Y0076797D01*
X0116855Y0076760D01*
X0116808Y0076726D01*
X0116758Y0076695D01*
X0116706Y0076667D01*
X0116653Y0076643D01*
X0116598Y0076622D01*
X0116542Y0076605D01*
X0116485Y0076592D01*
X0116428Y0076583D01*
X0116369Y0076577D01*
X0116311Y0076575D01*
X0116253Y0076577D01*
X0116194Y0076583D01*
X0116137Y0076592D01*
X0116080Y0076605D01*
X0116024Y0076622D01*
X0115969Y0076643D01*
X0115916Y0076667D01*
X0115864Y0076695D01*
X0115814Y0076726D01*
X0115767Y0076760D01*
X0115722Y0076797D01*
X0115679Y0076837D01*
X0115639Y0076880D01*
X0115602Y0076925D01*
X0115568Y0076972D01*
X0115537Y0077022D01*
X0115509Y0077074D01*
X0115485Y0077127D01*
X0115464Y0077182D01*
X0115447Y0077238D01*
X0115434Y0077295D01*
X0115425Y0077352D01*
X0115419Y0077411D01*
X0115417Y0077469D01*
X0115416Y0077469D02*
X0115416Y0078619D01*
X0117972Y0082357D02*
X0118483Y0082357D01*
X0117461Y0083798D02*
X0116183Y0083798D01*
X0116183Y0083797D02*
X0116128Y0083799D01*
X0116074Y0083805D01*
X0116020Y0083815D01*
X0115967Y0083828D01*
X0115915Y0083845D01*
X0115864Y0083866D01*
X0115815Y0083891D01*
X0115768Y0083919D01*
X0115723Y0083950D01*
X0115681Y0083984D01*
X0115641Y0084022D01*
X0115603Y0084062D01*
X0115569Y0084104D01*
X0115538Y0084149D01*
X0115510Y0084196D01*
X0115485Y0084245D01*
X0115464Y0084296D01*
X0115447Y0084348D01*
X0115434Y0084401D01*
X0115424Y0084455D01*
X0115418Y0084509D01*
X0115416Y0084564D01*
X0115416Y0085842D01*
X0116949Y0085842D02*
X0116949Y0083798D01*
X0117461Y0083798D02*
X0117524Y0083800D01*
X0117587Y0083806D01*
X0117649Y0083815D01*
X0117710Y0083829D01*
X0117771Y0083846D01*
X0117830Y0083867D01*
X0117888Y0083892D01*
X0117945Y0083920D01*
X0117999Y0083951D01*
X0118051Y0083986D01*
X0118102Y0084024D01*
X0118150Y0084065D01*
X0118195Y0084109D01*
X0118237Y0084155D01*
X0118277Y0084204D01*
X0118313Y0084255D01*
X0118346Y0084309D01*
X0118376Y0084364D01*
X0118402Y0084422D01*
X0118425Y0084480D01*
X0118444Y0084540D01*
X0118459Y0084601D01*
X0118471Y0084663D01*
X0118479Y0084726D01*
X0118483Y0084789D01*
X0118483Y0084851D01*
X0118479Y0084914D01*
X0118471Y0084977D01*
X0118459Y0085039D01*
X0118444Y0085100D01*
X0118425Y0085160D01*
X0118402Y0085218D01*
X0118376Y0085276D01*
X0118346Y0085331D01*
X0118313Y0085385D01*
X0118277Y0085436D01*
X0118237Y0085485D01*
X0118195Y0085531D01*
X0118150Y0085575D01*
X0118102Y0085616D01*
X0118051Y0085654D01*
X0117999Y0085689D01*
X0117945Y0085720D01*
X0117888Y0085748D01*
X0117830Y0085773D01*
X0117771Y0085794D01*
X0117710Y0085811D01*
X0117649Y0085825D01*
X0117587Y0085834D01*
X0117524Y0085840D01*
X0117461Y0085842D01*
X0116949Y0085842D01*
X0122916Y0079242D02*
X0125983Y0079242D01*
X0125983Y0077198D02*
X0123683Y0077198D01*
X0123683Y0077197D02*
X0123628Y0077199D01*
X0123574Y0077205D01*
X0123520Y0077215D01*
X0123467Y0077228D01*
X0123415Y0077245D01*
X0123364Y0077266D01*
X0123315Y0077291D01*
X0123268Y0077319D01*
X0123223Y0077350D01*
X0123181Y0077384D01*
X0123141Y0077422D01*
X0123103Y0077462D01*
X0123069Y0077504D01*
X0123038Y0077549D01*
X0123010Y0077596D01*
X0122985Y0077645D01*
X0122964Y0077696D01*
X0122947Y0077748D01*
X0122934Y0077801D01*
X0122924Y0077855D01*
X0122918Y0077909D01*
X0122916Y0077964D01*
X0122916Y0079242D01*
X0123938Y0075192D02*
X0124961Y0075192D01*
X0125024Y0075190D01*
X0125087Y0075184D01*
X0125149Y0075175D01*
X0125210Y0075161D01*
X0125271Y0075144D01*
X0125330Y0075123D01*
X0125388Y0075098D01*
X0125445Y0075070D01*
X0125499Y0075039D01*
X0125551Y0075004D01*
X0125602Y0074966D01*
X0125650Y0074925D01*
X0125695Y0074881D01*
X0125737Y0074835D01*
X0125777Y0074786D01*
X0125813Y0074735D01*
X0125846Y0074681D01*
X0125876Y0074626D01*
X0125902Y0074568D01*
X0125925Y0074510D01*
X0125944Y0074450D01*
X0125959Y0074389D01*
X0125971Y0074327D01*
X0125979Y0074264D01*
X0125983Y0074201D01*
X0125983Y0074139D01*
X0125979Y0074076D01*
X0125971Y0074013D01*
X0125959Y0073951D01*
X0125944Y0073890D01*
X0125925Y0073830D01*
X0125902Y0073772D01*
X0125876Y0073714D01*
X0125846Y0073659D01*
X0125813Y0073605D01*
X0125777Y0073554D01*
X0125737Y0073505D01*
X0125695Y0073459D01*
X0125650Y0073415D01*
X0125602Y0073374D01*
X0125551Y0073336D01*
X0125499Y0073301D01*
X0125445Y0073270D01*
X0125388Y0073242D01*
X0125330Y0073217D01*
X0125271Y0073196D01*
X0125210Y0073179D01*
X0125149Y0073165D01*
X0125087Y0073156D01*
X0125024Y0073150D01*
X0124961Y0073148D01*
X0123938Y0073148D01*
X0123875Y0073150D01*
X0123812Y0073156D01*
X0123750Y0073165D01*
X0123689Y0073179D01*
X0123628Y0073196D01*
X0123569Y0073217D01*
X0123511Y0073242D01*
X0123454Y0073270D01*
X0123400Y0073301D01*
X0123348Y0073336D01*
X0123297Y0073374D01*
X0123249Y0073415D01*
X0123204Y0073459D01*
X0123162Y0073505D01*
X0123122Y0073554D01*
X0123086Y0073605D01*
X0123053Y0073659D01*
X0123023Y0073714D01*
X0122997Y0073772D01*
X0122974Y0073830D01*
X0122955Y0073890D01*
X0122940Y0073951D01*
X0122928Y0074013D01*
X0122920Y0074076D01*
X0122916Y0074139D01*
X0122916Y0074201D01*
X0122920Y0074264D01*
X0122928Y0074327D01*
X0122940Y0074389D01*
X0122955Y0074450D01*
X0122974Y0074510D01*
X0122997Y0074568D01*
X0123023Y0074626D01*
X0123053Y0074681D01*
X0123086Y0074735D01*
X0123122Y0074786D01*
X0123162Y0074835D01*
X0123204Y0074881D01*
X0123249Y0074925D01*
X0123297Y0074966D01*
X0123348Y0075004D01*
X0123400Y0075039D01*
X0123454Y0075070D01*
X0123511Y0075098D01*
X0123569Y0075123D01*
X0123628Y0075144D01*
X0123689Y0075161D01*
X0123750Y0075175D01*
X0123812Y0075184D01*
X0123875Y0075190D01*
X0123938Y0075192D01*
X0118483Y0074803D02*
X0115416Y0074037D01*
X0117461Y0073270D01*
X0115416Y0072503D01*
X0118483Y0071737D01*
X0118483Y0069769D02*
X0118483Y0068491D01*
X0118481Y0068436D01*
X0118475Y0068382D01*
X0118465Y0068328D01*
X0118452Y0068275D01*
X0118435Y0068223D01*
X0118414Y0068172D01*
X0118389Y0068123D01*
X0118361Y0068076D01*
X0118330Y0068031D01*
X0118296Y0067989D01*
X0118258Y0067949D01*
X0118218Y0067911D01*
X0118176Y0067877D01*
X0118131Y0067846D01*
X0118084Y0067818D01*
X0118035Y0067793D01*
X0117984Y0067772D01*
X0117932Y0067755D01*
X0117879Y0067742D01*
X0117825Y0067732D01*
X0117771Y0067726D01*
X0117716Y0067724D01*
X0117716Y0067725D02*
X0116183Y0067725D01*
X0116183Y0067724D02*
X0116128Y0067726D01*
X0116074Y0067732D01*
X0116020Y0067742D01*
X0115967Y0067755D01*
X0115915Y0067772D01*
X0115864Y0067793D01*
X0115815Y0067818D01*
X0115768Y0067846D01*
X0115723Y0067877D01*
X0115681Y0067911D01*
X0115641Y0067949D01*
X0115603Y0067989D01*
X0115569Y0068031D01*
X0115538Y0068076D01*
X0115510Y0068123D01*
X0115485Y0068172D01*
X0115464Y0068223D01*
X0115447Y0068275D01*
X0115434Y0068328D01*
X0115424Y0068382D01*
X0115418Y0068436D01*
X0115416Y0068491D01*
X0115416Y0069769D01*
X0120016Y0069769D01*
X0125727Y0071036D02*
X0125766Y0070946D01*
X0125802Y0070853D01*
X0125835Y0070760D01*
X0125864Y0070666D01*
X0125891Y0070571D01*
X0125914Y0070475D01*
X0125934Y0070378D01*
X0125950Y0070280D01*
X0125963Y0070182D01*
X0125973Y0070084D01*
X0125980Y0069985D01*
X0125983Y0069886D01*
X0125982Y0069835D01*
X0125977Y0069785D01*
X0125967Y0069734D01*
X0125955Y0069685D01*
X0125938Y0069637D01*
X0125917Y0069590D01*
X0125894Y0069544D01*
X0125866Y0069501D01*
X0125836Y0069460D01*
X0125802Y0069422D01*
X0125766Y0069386D01*
X0125726Y0069353D01*
X0125685Y0069323D01*
X0125641Y0069297D01*
X0125596Y0069274D01*
X0125548Y0069255D01*
X0125500Y0069239D01*
X0125450Y0069227D01*
X0125400Y0069219D01*
X0125349Y0069215D01*
X0125298Y0069214D01*
X0125247Y0069218D01*
X0125196Y0069226D01*
X0125146Y0069237D01*
X0125097Y0069252D01*
X0125050Y0069271D01*
X0125004Y0069294D01*
X0124960Y0069320D01*
X0124918Y0069349D01*
X0124879Y0069382D01*
X0124842Y0069417D01*
X0124808Y0069456D01*
X0124777Y0069496D01*
X0124750Y0069539D01*
X0124725Y0069584D01*
X0124704Y0069631D01*
X0124705Y0069631D02*
X0124194Y0070909D01*
X0124195Y0070909D02*
X0124174Y0070956D01*
X0124149Y0071001D01*
X0124122Y0071044D01*
X0124091Y0071084D01*
X0124057Y0071123D01*
X0124020Y0071158D01*
X0123981Y0071191D01*
X0123939Y0071220D01*
X0123895Y0071246D01*
X0123849Y0071269D01*
X0123802Y0071288D01*
X0123753Y0071303D01*
X0123703Y0071314D01*
X0123652Y0071322D01*
X0123601Y0071326D01*
X0123550Y0071325D01*
X0123499Y0071321D01*
X0123449Y0071313D01*
X0123399Y0071301D01*
X0123351Y0071285D01*
X0123303Y0071266D01*
X0123258Y0071243D01*
X0123214Y0071217D01*
X0123173Y0071187D01*
X0123133Y0071154D01*
X0123097Y0071118D01*
X0123063Y0071080D01*
X0123033Y0071039D01*
X0123005Y0070996D01*
X0122982Y0070950D01*
X0122961Y0070903D01*
X0122944Y0070855D01*
X0122932Y0070806D01*
X0122922Y0070755D01*
X0122917Y0070705D01*
X0122916Y0070654D01*
X0122916Y0070653D02*
X0122920Y0070523D01*
X0122928Y0070392D01*
X0122940Y0070263D01*
X0122955Y0070133D01*
X0122975Y0070004D01*
X0122998Y0069876D01*
X0123025Y0069748D01*
X0123056Y0069621D01*
X0123091Y0069496D01*
X0123130Y0069371D01*
X0123172Y0069248D01*
X0118483Y0066307D02*
X0117972Y0066307D01*
X0118483Y0066307D02*
X0118483Y0064774D01*
X0115416Y0064774D01*
X0115416Y0062569D02*
X0117716Y0062569D01*
X0117205Y0062569D02*
X0117205Y0061419D01*
X0117716Y0062569D02*
X0117771Y0062567D01*
X0117825Y0062561D01*
X0117879Y0062551D01*
X0117932Y0062538D01*
X0117984Y0062521D01*
X0118035Y0062500D01*
X0118084Y0062475D01*
X0118131Y0062447D01*
X0118176Y0062416D01*
X0118218Y0062382D01*
X0118258Y0062344D01*
X0118296Y0062304D01*
X0118330Y0062262D01*
X0118361Y0062217D01*
X0118389Y0062170D01*
X0118414Y0062121D01*
X0118435Y0062070D01*
X0118452Y0062018D01*
X0118465Y0061965D01*
X0118475Y0061911D01*
X0118481Y0061857D01*
X0118483Y0061802D01*
X0118483Y0060780D01*
X0117205Y0061419D02*
X0117203Y0061361D01*
X0117197Y0061302D01*
X0117188Y0061245D01*
X0117175Y0061188D01*
X0117158Y0061132D01*
X0117137Y0061077D01*
X0117113Y0061024D01*
X0117085Y0060972D01*
X0117054Y0060922D01*
X0117020Y0060875D01*
X0116983Y0060830D01*
X0116943Y0060787D01*
X0116900Y0060747D01*
X0116855Y0060710D01*
X0116808Y0060676D01*
X0116758Y0060645D01*
X0116706Y0060617D01*
X0116653Y0060593D01*
X0116598Y0060572D01*
X0116542Y0060555D01*
X0116485Y0060542D01*
X0116428Y0060533D01*
X0116369Y0060527D01*
X0116311Y0060525D01*
X0116253Y0060527D01*
X0116194Y0060533D01*
X0116137Y0060542D01*
X0116080Y0060555D01*
X0116024Y0060572D01*
X0115969Y0060593D01*
X0115916Y0060617D01*
X0115864Y0060645D01*
X0115814Y0060676D01*
X0115767Y0060710D01*
X0115722Y0060747D01*
X0115679Y0060787D01*
X0115639Y0060830D01*
X0115602Y0060875D01*
X0115568Y0060922D01*
X0115537Y0060972D01*
X0115509Y0061024D01*
X0115485Y0061077D01*
X0115464Y0061132D01*
X0115447Y0061188D01*
X0115434Y0061245D01*
X0115425Y0061302D01*
X0115419Y0061361D01*
X0115417Y0061419D01*
X0115416Y0061419D02*
X0115416Y0062569D01*
X0115416Y0058542D02*
X0117716Y0058542D01*
X0117771Y0058540D01*
X0117825Y0058534D01*
X0117879Y0058524D01*
X0117932Y0058511D01*
X0117984Y0058494D01*
X0118035Y0058473D01*
X0118084Y0058448D01*
X0118131Y0058420D01*
X0118176Y0058389D01*
X0118218Y0058355D01*
X0118258Y0058317D01*
X0118296Y0058277D01*
X0118330Y0058235D01*
X0118361Y0058190D01*
X0118389Y0058143D01*
X0118414Y0058094D01*
X0118435Y0058043D01*
X0118452Y0057991D01*
X0118465Y0057938D01*
X0118475Y0057884D01*
X0118481Y0057830D01*
X0118483Y0057775D01*
X0118483Y0056498D01*
X0120016Y0056498D02*
X0115416Y0056498D01*
X0121383Y0054871D02*
X0125983Y0054871D01*
X0125983Y0056149D01*
X0125981Y0056204D01*
X0125975Y0056258D01*
X0125965Y0056312D01*
X0125952Y0056365D01*
X0125935Y0056417D01*
X0125914Y0056468D01*
X0125889Y0056517D01*
X0125861Y0056564D01*
X0125830Y0056609D01*
X0125796Y0056651D01*
X0125758Y0056691D01*
X0125718Y0056729D01*
X0125676Y0056763D01*
X0125631Y0056794D01*
X0125584Y0056822D01*
X0125535Y0056847D01*
X0125484Y0056868D01*
X0125432Y0056885D01*
X0125379Y0056898D01*
X0125325Y0056908D01*
X0125271Y0056914D01*
X0125216Y0056916D01*
X0125216Y0056915D02*
X0123683Y0056915D01*
X0123683Y0056916D02*
X0123628Y0056914D01*
X0123574Y0056908D01*
X0123520Y0056898D01*
X0123467Y0056885D01*
X0123415Y0056868D01*
X0123364Y0056847D01*
X0123315Y0056822D01*
X0123268Y0056794D01*
X0123223Y0056763D01*
X0123181Y0056729D01*
X0123141Y0056691D01*
X0123103Y0056651D01*
X0123069Y0056609D01*
X0123038Y0056564D01*
X0123010Y0056517D01*
X0122985Y0056468D01*
X0122964Y0056417D01*
X0122947Y0056365D01*
X0122934Y0056312D01*
X0122924Y0056258D01*
X0122918Y0056204D01*
X0122916Y0056149D01*
X0122916Y0054871D01*
X0123938Y0052842D02*
X0124961Y0052842D01*
X0125024Y0052840D01*
X0125087Y0052834D01*
X0125149Y0052825D01*
X0125210Y0052811D01*
X0125271Y0052794D01*
X0125330Y0052773D01*
X0125388Y0052748D01*
X0125445Y0052720D01*
X0125499Y0052689D01*
X0125551Y0052654D01*
X0125602Y0052616D01*
X0125650Y0052575D01*
X0125695Y0052531D01*
X0125737Y0052485D01*
X0125777Y0052436D01*
X0125813Y0052385D01*
X0125846Y0052331D01*
X0125876Y0052276D01*
X0125902Y0052218D01*
X0125925Y0052160D01*
X0125944Y0052100D01*
X0125959Y0052039D01*
X0125971Y0051977D01*
X0125979Y0051914D01*
X0125983Y0051851D01*
X0125983Y0051789D01*
X0125979Y0051726D01*
X0125971Y0051663D01*
X0125959Y0051601D01*
X0125944Y0051540D01*
X0125925Y0051480D01*
X0125902Y0051422D01*
X0125876Y0051364D01*
X0125846Y0051309D01*
X0125813Y0051255D01*
X0125777Y0051204D01*
X0125737Y0051155D01*
X0125695Y0051109D01*
X0125650Y0051065D01*
X0125602Y0051024D01*
X0125551Y0050986D01*
X0125499Y0050951D01*
X0125445Y0050920D01*
X0125388Y0050892D01*
X0125330Y0050867D01*
X0125271Y0050846D01*
X0125210Y0050829D01*
X0125149Y0050815D01*
X0125087Y0050806D01*
X0125024Y0050800D01*
X0124961Y0050798D01*
X0123938Y0050798D01*
X0123875Y0050800D01*
X0123812Y0050806D01*
X0123750Y0050815D01*
X0123689Y0050829D01*
X0123628Y0050846D01*
X0123569Y0050867D01*
X0123511Y0050892D01*
X0123454Y0050920D01*
X0123400Y0050951D01*
X0123348Y0050986D01*
X0123297Y0051024D01*
X0123249Y0051065D01*
X0123204Y0051109D01*
X0123162Y0051155D01*
X0123122Y0051204D01*
X0123086Y0051255D01*
X0123053Y0051309D01*
X0123023Y0051364D01*
X0122997Y0051422D01*
X0122974Y0051480D01*
X0122955Y0051540D01*
X0122940Y0051601D01*
X0122928Y0051663D01*
X0122920Y0051726D01*
X0122916Y0051789D01*
X0122916Y0051851D01*
X0122920Y0051914D01*
X0122928Y0051977D01*
X0122940Y0052039D01*
X0122955Y0052100D01*
X0122974Y0052160D01*
X0122997Y0052218D01*
X0123023Y0052276D01*
X0123053Y0052331D01*
X0123086Y0052385D01*
X0123122Y0052436D01*
X0123162Y0052485D01*
X0123204Y0052531D01*
X0123249Y0052575D01*
X0123297Y0052616D01*
X0123348Y0052654D01*
X0123400Y0052689D01*
X0123454Y0052720D01*
X0123511Y0052748D01*
X0123569Y0052773D01*
X0123628Y0052794D01*
X0123689Y0052811D01*
X0123750Y0052825D01*
X0123812Y0052834D01*
X0123875Y0052840D01*
X0123938Y0052842D01*
X0123683Y0058748D02*
X0124961Y0058748D01*
X0124449Y0058748D02*
X0124449Y0060792D01*
X0124961Y0060792D01*
X0125024Y0060790D01*
X0125087Y0060784D01*
X0125149Y0060775D01*
X0125210Y0060761D01*
X0125271Y0060744D01*
X0125330Y0060723D01*
X0125388Y0060698D01*
X0125445Y0060670D01*
X0125499Y0060639D01*
X0125551Y0060604D01*
X0125602Y0060566D01*
X0125650Y0060525D01*
X0125695Y0060481D01*
X0125737Y0060435D01*
X0125777Y0060386D01*
X0125813Y0060335D01*
X0125846Y0060281D01*
X0125876Y0060226D01*
X0125902Y0060168D01*
X0125925Y0060110D01*
X0125944Y0060050D01*
X0125959Y0059989D01*
X0125971Y0059927D01*
X0125979Y0059864D01*
X0125983Y0059801D01*
X0125983Y0059739D01*
X0125979Y0059676D01*
X0125971Y0059613D01*
X0125959Y0059551D01*
X0125944Y0059490D01*
X0125925Y0059430D01*
X0125902Y0059372D01*
X0125876Y0059314D01*
X0125846Y0059259D01*
X0125813Y0059205D01*
X0125777Y0059154D01*
X0125737Y0059105D01*
X0125695Y0059059D01*
X0125650Y0059015D01*
X0125602Y0058974D01*
X0125551Y0058936D01*
X0125499Y0058901D01*
X0125445Y0058870D01*
X0125388Y0058842D01*
X0125330Y0058817D01*
X0125271Y0058796D01*
X0125210Y0058779D01*
X0125149Y0058765D01*
X0125087Y0058756D01*
X0125024Y0058750D01*
X0124961Y0058748D01*
X0123683Y0058747D02*
X0123628Y0058749D01*
X0123574Y0058755D01*
X0123520Y0058765D01*
X0123467Y0058778D01*
X0123415Y0058795D01*
X0123364Y0058816D01*
X0123315Y0058841D01*
X0123268Y0058869D01*
X0123223Y0058900D01*
X0123181Y0058934D01*
X0123141Y0058972D01*
X0123103Y0059012D01*
X0123069Y0059054D01*
X0123038Y0059099D01*
X0123010Y0059146D01*
X0122985Y0059195D01*
X0122964Y0059246D01*
X0122947Y0059298D01*
X0122934Y0059351D01*
X0122924Y0059405D01*
X0122918Y0059459D01*
X0122916Y0059514D01*
X0122916Y0060792D01*
X0122916Y0062798D02*
X0125983Y0062798D01*
X0125983Y0064075D01*
X0125981Y0064130D01*
X0125975Y0064184D01*
X0125965Y0064238D01*
X0125952Y0064291D01*
X0125935Y0064343D01*
X0125914Y0064394D01*
X0125889Y0064443D01*
X0125861Y0064490D01*
X0125830Y0064535D01*
X0125796Y0064577D01*
X0125758Y0064617D01*
X0125718Y0064655D01*
X0125676Y0064689D01*
X0125631Y0064720D01*
X0125584Y0064748D01*
X0125535Y0064773D01*
X0125484Y0064794D01*
X0125432Y0064811D01*
X0125379Y0064824D01*
X0125325Y0064834D01*
X0125271Y0064840D01*
X0125216Y0064842D01*
X0122916Y0064842D01*
D14*
X0033848Y0049539D02*
X0018100Y0049539D01*
X0018100Y0025917D02*
X0033848Y0025917D01*
X0033848Y0096783D02*
X0018100Y0096783D01*
X0018100Y0120405D02*
X0033848Y0120405D01*
M02*
